<?xml version="1.0" encoding="utf-8"?>
<!-- Generator: Adobe Illustrator 16.0.0, SVG Export Plug-In . SVG Version: 6.00 Build 0)  -->
<!DOCTYPE svg PUBLIC "-//W3C//DTD SVG 1.1//EN" "http://www.w3.org/Graphics/SVG/1.1/DTD/svg11.dtd">
<svg version="1.1" id="Layer_1" xmlns="http://www.w3.org/2000/svg" xmlns:xlink="http://www.w3.org/1999/xlink" x="0px" y="0px"
	 width="300px" height="160px" viewBox="0 0 300 160" enable-background="new 0 0 300 160" xml:space="preserve">
<g>
	<g>
		<defs>
			<rect id="XMLID_15_" y="5.092" width="300" height="150"/>
		</defs>
		<use xlink:href="#XMLID_15_"  overflow="visible" fill="#FFFA52"/>
		<clipPath id="XMLID_24_">
			<use xlink:href="#XMLID_15_"  overflow="visible"/>
		</clipPath>
		<g opacity="0.8" clip-path="url(#XMLID_24_)">
			<circle fill="#00E57D" fill-opacity="0.65" cx="259.358" cy="100.823" r="32.92"/>
			<circle fill="#00E57D" fill-opacity="0.65" cx="213.729" cy="-1.523" r="6.171"/>
			<circle fill="#00E57D" fill-opacity="0.65" cx="30.395" cy="25.374" r="6.17"/>
			<circle fill="#00E57D" fill-opacity="0.65" cx="99.066" cy="41.979" r="34.312"/>
			<circle fill="#00E57D" fill-opacity="0.65" cx="138.476" cy="20.536" r="28.072"/>
			<circle fill="#00E57D" fill-opacity="0.65" cx="116.413" cy="145.481" r="8.787"/>
			<circle fill="#00E57D" fill-opacity="0.65" cx="70.169" cy="118.563" r="8.787"/>
			<circle fill="#00E57D" fill-opacity="0.65" cx="196.778" cy="62.851" r="16.451"/>
			<circle fill="#00E57D" fill-opacity="0.65" cx="97.576" cy="130.756" r="2.285"/>
			<path fill="#00E57D" fill-opacity="0.65" d="M40.989,160.312c-0.895,2.599-3.726,3.982-6.323,3.089
				c-2.598-0.894-3.982-3.722-3.09-6.324c0.893-2.597,3.725-3.979,6.323-3.089C40.498,154.883,41.881,157.715,40.989,160.312z"/>
			<circle fill="#00E57D" fill-opacity="0.65" cx="109.18" cy="106.121" r="14.351"/>
			<circle fill="#00E57D" fill-opacity="0.65" cx="6.871" cy="104.729" r="2.237"/>
			<circle fill="#00E57D" fill-opacity="0.65" cx="280.923" cy="160.014" r="2.473"/>
			<path fill="#00E57D" fill-opacity="0.65" d="M160.816,131.832c-3.146,2.341-7.593,1.689-9.933-1.459
				c-2.34-3.145-1.688-7.591,1.458-9.931c3.145-2.343,7.592-1.689,9.932,1.458C164.614,125.044,163.962,129.49,160.816,131.832z"/>
			<circle fill="#00E57D" fill-opacity="0.65" cx="284.307" cy="36.328" r="17.899"/>
			<circle fill="#00E57D" fill-opacity="0.65" cx="242.939" cy="28.753" r="10.127"/>
			<circle fill="#00E57D" fill-opacity="0.65" cx="78.789" cy="160.433" r="3.568"/>
			<circle fill="#00E57D" fill-opacity="0.65" cx="152.195" cy="155.027" r="3.849"/>
			<path opacity="0.75" fill="#E539B1" d="M183.19,74.499c10.21,16.363,5.22,37.903-11.143,48.111
				c-16.361,10.208-37.9,5.218-48.109-11.143c-10.209-16.366-5.218-37.904,11.143-48.111
				C151.443,53.147,172.982,58.136,183.19,74.499z"/>
			<circle opacity="0.75" fill="#E539B1" cx="74.833" cy="139.946" r="3.905"/>
			<path opacity="0.75" fill="#E539B1" d="M244.535-36.939c19.503,1.467,34.126,18.467,32.658,37.974
				c-1.468,19.506-18.469,34.125-37.974,32.656c-19.504-1.467-34.127-18.465-32.66-37.972
				C208.027-23.788,225.03-38.407,244.535-36.939"/>
			<circle opacity="0.75" fill="#E539B1" cx="70.649" cy="16.992" r="15.109"/>
			<circle opacity="0.75" fill="#E539B1" cx="258.489" cy="133.514" r="27.521"/>
			<circle opacity="0.75" fill="#E539B1" cx="264.021" cy="38.354" r="24.16"/>
			<path opacity="0.75" fill="#E539B1" d="M201.67,6.188c10.377-2.89,21.13,3.181,24.019,13.561
				c2.889,10.376-3.182,21.131-13.561,24.018c-10.378,2.891-21.13-3.182-24.018-13.558C185.221,19.829,191.292,9.076,201.67,6.188z"
				/>
			<circle opacity="0.75" fill="#E539B1" cx="6.019" cy="33.826" r="2.607"/>
			<circle opacity="0.75" fill="#E539B1" cx="123.424" cy="-3.74" r="5.54"/>
			<circle opacity="0.75" fill="#E539B1" cx="34.553" cy="52.933" r="14.754"/>
			<circle opacity="0.75" fill="#E539B1" cx="100.257" cy="73.495" r="14.754"/>
			<circle opacity="0.75" fill="#E539B1" cx="173.308" cy="21.808" r="2.862"/>
			<circle opacity="0.75" fill="#E539B1" cx="65.93" cy="45.948" r="9.904"/>
			<circle opacity="0.75" fill="#E539B1" cx="166.153" cy="53.12" r="29.354"/>
			<circle opacity="0.75" fill="#E539B1" cx="89.606" cy="-1.801" r="5.713"/>
			<circle opacity="0.75" fill="#E539B1" cx="32.322" cy="88.25" r="31.82"/>
			<circle opacity="0.75" fill="#E539B1" cx="291.929" cy="-2.985" r="6.165"/>
			<circle opacity="0.75" fill="#E539B1" cx="14.822" cy="-0.564" r="2.902"/>
			<circle fill="#3B63E2" fill-opacity="0.75" cx="49.157" cy="-1.009" r="3.28"/>
			<circle fill="#3B63E2" fill-opacity="0.75" cx="229.126" cy="51.345" r="23.601"/>
			<circle fill="#3B63E2" fill-opacity="0.75" cx="274.486" cy="72.035" r="3.173"/>
			<circle fill="#3B63E2" fill-opacity="0.75" cx="47.641" cy="137.486" r="2.496"/>
			<circle fill="#3B63E2" fill-opacity="0.75" cx="287.619" cy="125.916" r="10.269"/>
			<circle fill="#3B63E2" fill-opacity="0.75" cx="287.907" cy="19.871" r="9.764"/>
			<circle fill="#3B63E2" fill-opacity="0.75" cx="53.223" cy="112.037" r="7.146"/>
			<circle fill="#3B63E2" fill-opacity="0.75" cx="23.442" cy="124.481" r="14.869"/>
			<circle fill="#3B63E2" fill-opacity="0.75" cx="83.547" cy="98.923" r="20.33"/>
			<path fill="#3B63E2" fill-opacity="0.75" d="M296.151,147.772c0.743-1.607,2.648-2.306,4.254-1.561
				c1.606,0.741,2.306,2.646,1.563,4.252c-0.742,1.608-2.648,2.308-4.256,1.564C296.106,151.285,295.407,149.379,296.151,147.772z"
				/>
			<circle fill="#3B63E2" fill-opacity="0.75" cx="244.422" cy="158.258" r="2.538"/>
			<path fill="#3B63E2" fill-opacity="0.75" d="M188.547,150.973c0.352,2.876-1.695,5.494-4.57,5.844
				c-2.876,0.353-5.492-1.695-5.844-4.567c-0.352-2.879,1.694-5.494,4.569-5.846C185.578,146.053,188.194,148.097,188.547,150.973z"
				/>
			<circle fill="#3B63E2" fill-opacity="0.75" cx="151.673" cy="-2.562" r="4.018"/>
			<circle fill="#3B63E2" fill-opacity="0.75" cx="221.865" cy="137.164" r="17.607"/>
			<circle fill="#3B63E2" fill-opacity="0.75" cx="9.656" cy="151.518" r="3.287"/>
			<circle fill="#3B63E2" fill-opacity="0.75" cx="200.112" cy="110.268" r="32.476"/>
		</g>
	</g>
	<g id="XMLID_8_">
		<path fill="#F9F9F9" d="M295.5,10.092v140H5.5v-140H295.5 M300.5,5.092H0.5v150h300V5.092L300.5,5.092z"/>
	</g>
	<g>
		<g>
			<path fill="#FF00CF" d="M67.137,110.974l-8.291,1.462l-0.596-3.782l-5.405,0.953l-0.654,4.003l-8.29,1.462l7.136-31.88
				l9.81-1.729L67.137,110.974z M57.308,102.255l-0.519-3.478c-0.013-0.011-0.039-0.185-0.077-0.522
				c-0.026-0.286-0.16-1.412-0.404-3.38c-0.026-0.22-0.058-0.521-0.096-0.905c-0.039-0.383-0.09-0.866-0.154-1.45l-0.25-2.852
				c-0.026,0.282-0.061,0.599-0.106,0.951c-0.045,0.352-0.093,0.737-0.144,1.156c-0.09,0.836-0.154,1.415-0.192,1.739
				s-0.064,0.52-0.077,0.589L54.73,97.91l-0.808,4.942L57.308,102.255z"/>
			<path fill="#FF00CF" d="M69,110.563V79.942l7.887-1.351l4.136,10.041c0.218,0.596,0.522,1.279,0.798,2.051
				c0.275,0.771,0.609,1.663,0.943,2.675l0.841,2.552c-0.295-2.605-0.37-4.84-0.524-6.704C82.928,87.343,83,85.77,83,84.487v-6.882
				l7-1.35v30.621l-7.47,1.35l-3.945-10.553c-0.424-1.128-0.759-2.188-1.099-3.18c-0.34-0.991-0.614-1.939-0.871-2.847
				c0.166,2.126,0.24,3.982,0.318,5.568C77.01,98.802,77,100.197,77,101.399v7.814L69,110.563z"/>
			<path fill="#FF00CF" d="M103,104.73l-8,1.414V75.522l8-1.414V104.73z"/>
			<path fill="#FF00CF" d="M137.266,98.608l-8.386,1.479l-0.596-13.856l-0.25-5.529c-0.09,1.087-0.192,2.126-0.308,3.118
				c-0.116,0.992-0.257,1.959-0.423,2.901l-2.52,14.089l-6.54,1.153l-2.154-13.285c-0.128-0.771-0.301-2.102-0.519-3.994
				c-0.026-0.286-0.083-0.87-0.173-1.754l-0.192,5.686l-0.712,14.009l-8.54,1.506l3.462-31.232l9.982-1.76l1.674,10.018
				c0.141,0.821,0.266,1.719,0.375,2.69c0.109,0.973,0.208,2.033,0.298,3.181c0.167-1.974,0.397-3.752,0.692-5.338l2.039-11.446
				l9.906-1.747L137.266,98.608z"/>
			<path fill="#FF00CF" d="M162.213,94.209l-8.29,1.462l-0.596-3.782l-5.405,0.953l-0.654,4.003l-8.29,1.462l7.136-31.88l9.81-1.729
				L162.213,94.209z M152.384,85.491l-0.519-3.479c-0.013-0.011-0.039-0.185-0.077-0.522c-0.025-0.286-0.16-1.412-0.403-3.379
				c-0.026-0.221-0.058-0.522-0.096-0.905c-0.039-0.384-0.09-0.867-0.154-1.451l-0.25-2.852c-0.026,0.282-0.061,0.6-0.106,0.951
				c-0.045,0.353-0.093,0.737-0.144,1.156c-0.09,0.836-0.154,1.415-0.192,1.739c-0.039,0.324-0.064,0.521-0.077,0.589l-0.558,3.807
				l-0.808,4.942L152.384,85.491z"/>
			<path fill="#FF00CF" d="M175,91.971l-8,1.415V70.102l-5,0.78v-7.338l18-3.005v7.338l-5,0.811V91.971z"/>
			<path fill="#FF00CF" d="M190,89.38l-8,1.414V60.173l8-1.414V89.38z"/>
			<path fill="#FF00CF" d="M215.589,69.586c0,4.668-1.032,8.644-3.097,11.931c-2.052,3.27-4.726,5.196-8.021,5.777
				c-2.924,0.516-5.431-0.16-7.521-2.026c-2.629-2.365-3.943-6.378-3.943-12.037c0-5.421,1.372-9.808,4.116-13.16
				c2.039-2.489,4.456-3.979,7.251-4.472c3.424-0.604,6.148,0.356,8.175,2.882C214.576,61.006,215.589,64.707,215.589,69.586z
				 M207.26,71.114c0-5.54-0.949-8.143-2.847-7.808c-0.949,0.167-1.706,1.027-2.27,2.582c-0.551,1.445-0.827,3.478-0.827,6.095
				c0,2.578,0.26,4.533,0.779,5.862s1.241,1.913,2.164,1.751c0.949-0.168,1.68-0.998,2.192-2.489
				C206.991,75.611,207.26,73.613,207.26,71.114z"/>
			<path fill="#FF00CF" d="M219,84.194V53.572l7.661-1.35l4.024,10.04c0.218,0.597,0.466,1.28,0.742,2.052
				c0.275,0.771,0.58,1.663,0.914,2.675l0.828,2.552c-0.295-2.605-0.651-4.84-0.806-6.704C232.209,60.973,232,59.4,232,58.118
				v-6.882l8-1.351v30.622l-7.695,1.35l-4.059-10.553c-0.423-1.128-0.815-2.188-1.155-3.18c-0.34-0.991-0.643-1.94-0.899-2.847
				c0.166,2.125,0.452,3.981,0.53,5.567c0.077,1.586,0.278,2.981,0.278,4.185v7.814L219,84.194z"/>
			<path fill="#FF00CF" d="M243,79.133v-9.618c2,1.943,3.502,2.753,5.336,2.43c0.692-0.122,1.367-0.41,1.802-0.864
				c0.437-0.453,0.709-0.965,0.709-1.533c0-0.82-0.447-1.535-1.396-2.148l-1.294-0.82c-0.873-0.521-1.609-1.061-2.225-1.62
				c-0.616-0.559-1.112-1.158-1.497-1.798c-0.384-0.64-0.665-1.32-0.844-2.042c-0.18-0.723-0.269-1.5-0.269-2.333
				c0-1.428,0.32-2.979,0.962-4.651c0.32-0.783,0.693-1.514,1.116-2.189c0.423-0.677,0.91-1.294,1.461-1.854
				c1.513-1.589,3.282-2.572,5.424-2.95c1.91-0.337,3.712-0.153,5.712,0.55v9.36c-1-0.929-1.34-1.62-2.173-2.075
				c-0.834-0.455-1.625-0.611-2.433-0.469c-0.616,0.108-1.108,0.384-1.505,0.823c-0.411,0.43-0.608,0.896-0.608,1.397
				c0,0.82,0.548,1.537,1.638,2.151l1.272,0.748c1.692,0.958,2.905,2.033,3.636,3.227c0.744,1.19,1.116,2.672,1.116,4.444
				c0,3.014-0.891,5.657-2.673,7.928c-1.782,2.271-4.259,3.647-6.991,4.129C247.394,79.687,246,79.613,243,79.133z"/>
		</g>
		<g>
			<path fill="#00FFFF" d="M65.167,109.29l-8.291,1.462l-0.596-3.782l-5.405,0.953l-0.654,4.003l-8.29,1.462l7.136-31.88l9.81-1.729
				L65.167,109.29z M55.338,100.571l-0.52-3.478c-0.013-0.011-0.039-0.185-0.077-0.522c-0.026-0.286-0.161-1.412-0.404-3.38
				c-0.026-0.22-0.058-0.521-0.096-0.905c-0.039-0.383-0.09-0.866-0.154-1.45l-0.25-2.852c-0.026,0.282-0.061,0.6-0.106,0.951
				c-0.045,0.353-0.093,0.737-0.144,1.156c-0.09,0.836-0.154,1.415-0.192,1.739s-0.064,0.52-0.077,0.589l-0.558,3.807l-0.808,4.942
				L55.338,100.571z"/>
			<path fill="#00FFFF" d="M67,108.88V78.259l7.902-1.351l4.144,10.041c0.218,0.596,0.526,1.279,0.802,2.051
				c0.275,0.771,0.611,1.663,0.945,2.675l0.842,2.552c-0.295-2.605-0.385-4.84-0.539-6.704C80.943,85.659,81,84.086,81,82.804
				v-6.882l7-1.35v30.621l-7.454,1.35L76.607,95.99c-0.423-1.128-0.755-2.188-1.095-3.18s-0.612-1.939-0.869-2.847
				c0.167,2.126,0.227,3.982,0.304,5.568C75.024,97.118,75,98.514,75,99.716v7.814L67,108.88z"/>
			<path fill="#00FFFF" d="M101,103.047l-8,1.414V73.839l8-1.414V103.047z"/>
			<path fill="#00FFFF" d="M135.296,96.925l-8.386,1.479l-0.597-13.856l-0.25-5.529c-0.09,1.087-0.192,2.126-0.308,3.118
				s-0.257,1.959-0.423,2.901l-2.52,14.089l-6.54,1.153l-2.155-13.285c-0.128-0.771-0.301-2.102-0.519-3.994
				c-0.026-0.286-0.083-0.87-0.173-1.754l-0.192,5.686l-0.712,14.009l-8.54,1.506l3.462-31.232l9.982-1.76l1.673,10.018
				c0.141,0.821,0.266,1.719,0.375,2.69c0.108,0.973,0.208,2.033,0.298,3.181c0.167-1.973,0.397-3.752,0.692-5.338l2.039-11.446
				l9.906-1.747L135.296,96.925z"/>
			<path fill="#00FFFF" d="M160.244,92.525l-8.29,1.462l-0.597-3.781l-5.405,0.952l-0.654,4.003l-8.29,1.462l7.136-31.88l9.81-1.729
				L160.244,92.525z M150.415,83.808l-0.52-3.479c-0.013-0.011-0.039-0.185-0.077-0.522c-0.026-0.285-0.161-1.412-0.404-3.379
				c-0.026-0.221-0.058-0.522-0.096-0.905c-0.039-0.383-0.09-0.867-0.154-1.451l-0.25-2.851c-0.026,0.282-0.061,0.599-0.106,0.95
				c-0.045,0.353-0.093,0.737-0.144,1.156c-0.09,0.836-0.154,1.415-0.192,1.739s-0.064,0.521-0.077,0.589l-0.558,3.807l-0.808,4.942
				L150.415,83.808z"/>
			<path fill="#00FFFF" d="M173,90.287l-8,1.415V68.418l-5,0.78V61.86l18-3.005v7.338l-5,0.811V90.287z"/>
			<path fill="#00FFFF" d="M188,87.696l-8,1.414V58.489l8-1.414V87.696z"/>
			<path fill="#00FFFF" d="M213.619,67.902c0,4.668-1.033,8.644-3.097,11.931c-2.052,3.27-4.726,5.196-8.021,5.777
				c-2.924,0.516-5.431-0.16-7.521-2.026c-2.629-2.365-3.943-6.378-3.943-12.037c0-5.421,1.372-9.808,4.116-13.16
				c2.039-2.489,4.456-3.979,7.251-4.472c3.424-0.604,6.148,0.356,8.175,2.882C212.606,59.322,213.619,63.023,213.619,67.902z
				 M205.291,69.431c0-5.54-0.949-8.143-2.847-7.808c-0.949,0.167-1.706,1.027-2.27,2.582c-0.552,1.445-0.827,3.478-0.827,6.095
				c0,2.579,0.259,4.533,0.779,5.862s1.241,1.913,2.164,1.751c0.949-0.168,1.68-0.998,2.192-2.489
				C205.021,73.928,205.291,71.93,205.291,69.431z"/>
			<path fill="#00FFFF" d="M217,82.511V51.889l7.677-1.35l4.031,10.041c0.218,0.596,0.47,1.279,0.746,2.051
				c0.275,0.771,0.583,1.663,0.916,2.675l0.829,2.552c-0.295-2.605-0.666-4.84-0.82-6.704c-0.153-1.864-0.377-3.437-0.377-4.719
				v-6.882l8-1.351v30.622l-7.68,1.35l-4.052-10.553c-0.423-1.128-0.811-2.188-1.15-3.18c-0.341-0.991-0.642-1.94-0.898-2.847
				c0.167,2.125,0.438,3.981,0.515,5.567c0.077,1.586,0.265,2.981,0.265,4.185v7.814L217,82.511z"/>
			<path fill="#00FFFF" d="M241,77.449v-9.618c2,1.943,3.518,2.753,5.352,2.43c0.692-0.122,1.374-0.41,1.81-0.864
				c0.436-0.453,0.713-0.965,0.713-1.533c0-0.819-0.445-1.535-1.394-2.148l-1.293-0.82c-0.873-0.521-1.608-1.062-2.224-1.62
				s-1.112-1.158-1.497-1.798c-0.384-0.639-0.665-1.32-0.844-2.042s-0.268-1.5-0.268-2.333c0-1.428,0.32-2.979,0.962-4.651
				c0.321-0.783,0.693-1.514,1.116-2.189c0.423-0.677,0.91-1.294,1.462-1.854c1.513-1.589,3.267-2.572,5.409-2.95
				c1.91-0.337,3.697-0.153,5.697,0.55v9.36c-1-0.929-1.324-1.62-2.158-2.075s-1.617-0.611-2.425-0.469
				c-0.616,0.108-1.104,0.384-1.502,0.823c-0.411,0.43-0.606,0.896-0.606,1.397c0,0.82,0.55,1.537,1.64,2.151l1.272,0.748
				c1.692,0.958,2.905,2.033,3.636,3.227c0.744,1.19,1.116,2.672,1.116,4.444c0,3.014-0.891,5.657-2.673,7.928
				c-1.783,2.271-4.274,3.647-7.006,4.13C245.409,78.003,244,77.93,241,77.449z"/>
		</g>
	</g>
</g>
</svg>
