<?xml version="1.0" encoding="utf-8"?>
<!-- Generator: Adobe Illustrator 16.0.0, SVG Export Plug-In . SVG Version: 6.00 Build 0)  -->
<!DOCTYPE svg PUBLIC "-//W3C//DTD SVG 1.1//EN" "http://www.w3.org/Graphics/SVG/1.1/DTD/svg11.dtd">
<svg version="1.1" id="Layer_1" xmlns="http://www.w3.org/2000/svg" xmlns:xlink="http://www.w3.org/1999/xlink" x="0px" y="0px"
	 width="300px" height="160px" viewBox="0 0 300 160" enable-background="new 0 0 300 160" xml:space="preserve">
<g>
	<g>
		<defs>
			<rect id="XMLID_11_" y="5" width="300" height="150"/>
		</defs>
		<use xlink:href="#XMLID_11_"  overflow="visible" fill="#00C4F2"/>
		<clipPath id="XMLID_24_">
			<use xlink:href="#XMLID_11_"  overflow="visible"/>
		</clipPath>
		<g clip-path="url(#XMLID_24_)">
			<g>
				<g>
					<path fill="none" stroke="#F4C327" stroke-width="0.873" stroke-miterlimit="10" d="M192,32.364"/>
					<g>
						<path fill="#FFEC00" d="M206.775,38.351c0.938-0.056,1.685-0.827,1.685-1.778h-6.19c0,0.953,0.748,1.724,1.688,1.778"/>
						<path fill="#FFEC00" d="M205.366,13.183c0.565,0,1.022-0.458,1.022-1.021V9.783c0-0.565-0.457-1.022-1.022-1.022
							c-0.564,0-1.022,0.457-1.022,1.022v2.378C204.344,12.725,204.802,13.183,205.366,13.183z"/>
						<path fill="#FFEC00" d="M198.659,14.672c0.201,0.275,0.513,0.422,0.829,0.422c0.208,0,0.418-0.063,0.6-0.196
							c0.456-0.331,0.558-0.97,0.227-1.426l-1.397-1.925c-0.332-0.456-0.97-0.56-1.428-0.228c-0.456,0.333-0.558,0.971-0.227,1.428
							L198.659,14.672z"/>
						<path fill="#FFEC00" d="M212.072,29.654c-0.331-0.456-0.971-0.558-1.428-0.227c-0.456,0.332-0.557,0.972-0.225,1.428
							l1.398,1.924c0.199,0.275,0.511,0.421,0.827,0.421c0.208,0,0.418-0.062,0.6-0.194c0.456-0.332,0.558-0.972,0.226-1.428
							L212.072,29.654z"/>
						<path fill="#FFEC00" d="M196.171,18.1l-2.262-0.735c-0.542-0.175-1.114,0.119-1.289,0.656
							c-0.174,0.536,0.119,1.114,0.656,1.288l2.262,0.735c0.105,0.034,0.211,0.051,0.315,0.051c0.432,0,0.832-0.274,0.973-0.707
							C197.001,18.852,196.707,18.275,196.171,18.1z"/>
						<path fill="#FFEC00" d="M217.456,25.017l-2.261-0.735c-0.537-0.173-1.114,0.121-1.288,0.657s0.12,1.113,0.656,1.287
							l2.263,0.735c0.104,0.034,0.21,0.05,0.314,0.05c0.431,0,0.832-0.274,0.973-0.706
							C218.288,25.768,217.993,25.191,217.456,25.017z"/>
						<path fill="#FFEC00" d="M195.539,24.281l-2.262,0.734c-0.537,0.175-0.832,0.75-0.657,1.287
							c0.14,0.433,0.541,0.707,0.972,0.707c0.104,0,0.211-0.016,0.316-0.05l2.262-0.734c0.538-0.174,0.832-0.749,0.658-1.286
							S196.081,24.108,195.539,24.281z"/>
						<path fill="#FFEC00" d="M214.879,20.095c0.105,0,0.21-0.017,0.316-0.051l2.261-0.734c0.537-0.174,0.832-0.751,0.657-1.288
							c-0.175-0.536-0.753-0.829-1.287-0.656l-2.263,0.734c-0.536,0.176-0.831,0.752-0.656,1.288
							C214.047,19.82,214.448,20.095,214.879,20.095z"/>
						<path fill="#FFEC00" d="M198.661,29.653l-1.399,1.924c-0.333,0.456-0.231,1.096,0.226,1.428
							c0.18,0.132,0.391,0.195,0.599,0.195c0.317,0,0.628-0.146,0.828-0.421l1.4-1.923c0.332-0.457,0.231-1.097-0.226-1.429
							C199.633,29.095,198.991,29.197,198.661,29.653z"/>
						<path fill="#FFEC00" d="M211.816,11.547l-1.397,1.925c-0.332,0.456-0.229,1.095,0.226,1.426
							c0.182,0.133,0.393,0.196,0.6,0.196c0.316,0,0.628-0.146,0.828-0.422l1.397-1.925c0.332-0.457,0.229-1.095-0.227-1.428
							C212.785,10.986,212.148,11.09,211.816,11.547z"/>
						<path fill="#FFEC00" d="M212.748,22.2c0-4.077-3.305-7.383-7.383-7.383s-7.383,3.306-7.383,7.383c0,1.72,0.591,3.3,1.58,4.554
							c0.866,1.099,1.686,2.299,2.396,3.506v2.452h6.771v-2.387c0.705-1.174,1.615-2.526,2.438-3.57
							C212.157,25.501,212.748,23.922,212.748,22.2z"/>
					</g>
					<rect x="202" y="34" fill="#FFEC00" width="7" height="1"/>
				</g>
				<g>
					<rect x="9" y="23" fill="#FFEC00" width="18" height="2"/>
					<g>
						<polygon fill="#FFEC00" points="25,28.986 33.635,24 25,19.014 						"/>
					</g>
				</g>
				<g>
					<path fill="#FFEC00" d="M58.616,39.434c-8.446,0-15.317-6.871-15.317-15.317c0-8.445,6.871-15.316,15.317-15.316
						c8.445,0,15.316,6.871,15.316,15.316C73.933,32.562,67.062,39.434,58.616,39.434z M58.616,10.534
						c-7.49,0-13.583,6.093-13.583,13.582c0,7.49,6.093,13.583,13.583,13.583c7.489,0,13.582-6.093,13.582-13.583
						C72.198,16.627,66.105,10.534,58.616,10.534z"/>
					<g>
						<path fill-rule="evenodd" clip-rule="evenodd" fill="#FFEC00" d="M58.945,29.13c0.645,0,1.167,0.523,1.167,1.167
							c0,0.643-0.522,1.165-1.167,1.165c-0.644,0-1.166-0.522-1.166-1.165C57.779,29.653,58.302,29.13,58.945,29.13L58.945,29.13
							L58.945,29.13z M57.779,17.485l0.362,8.872c0.038,0.906,1.571,0.906,1.608,0l0.363-8.872
							C60.161,16.271,57.73,16.271,57.779,17.485z"/>
					</g>
				</g>
				<g>
					<rect x="84" y="23" fill="#FFEC00" width="18" height="2"/>
					<g>
						<polygon fill="#FFEC00" points="100,28.986 108.635,24 100,19.014 						"/>
					</g>
				</g>
				<g>
					<path fill="#FFEC00" d="M282.616,39.434c-8.446,0-15.317-6.871-15.317-15.317c0-8.445,6.871-15.316,15.317-15.316
						c8.445,0,15.316,6.871,15.316,15.316C297.933,32.562,291.062,39.434,282.616,39.434z M282.616,10.534
						c-7.49,0-13.583,6.093-13.583,13.582c0,7.49,6.093,13.583,13.583,13.583c7.489,0,13.582-6.093,13.582-13.583
						C296.198,16.627,290.105,10.534,282.616,10.534z"/>
					<polygon fill="#FFEC00" points="292.329,19.093 289.952,16.715 279.845,26.714 275.851,22.779 273.473,25.156 279.817,31.44 
						279.944,31.313 279.972,31.342 					"/>
				</g>
				<g>
					<rect x="156" y="23" fill="#FFEC00" width="18" height="2"/>
					<g>
						<polygon fill="#FFEC00" points="172,28.986 180.635,24 172,19.014 						"/>
					</g>
				</g>
				<g>
					<path fill="#FFEC00" d="M137.434,9.556h-7.487c-4.118,0-7.487,3.369-7.487,7.487v7.486c0,3.894,2.995,7.038,6.738,7.412v2.32
						c0,0.974,0.524,1.723,1.348,2.098l-2.695,2.695l1.048,1.047l3.519-3.519h2.396l3.593,3.594l1.048-1.048l-2.695-2.695
						c0.824-0.299,1.423-1.123,1.423-2.096v-2.321c3.744-0.375,6.738-3.594,6.738-7.412v-7.487
						C144.92,12.925,141.551,9.556,137.434,9.556z M136.685,32.017v2.245c0,0.45-0.299,0.749-0.749,0.749h-4.493
						c-0.449,0-0.748-0.299-0.748-0.749v-2.245H136.685z M143.423,24.529c0,3.294-2.695,5.989-5.989,5.989h-2.995V17.043h-1.498
						v13.476h-2.995c-3.294,0-5.989-2.695-5.989-5.989v-7.486c0-3.295,2.695-5.99,5.989-5.99h7.487c3.294,0,5.989,2.695,5.989,5.99
						V24.529z"/>
					<rect x="138.182" y="26.026" fill="#FFEC00" width="2.246" height="1.498"/>
					<rect x="139.68" y="17.792" fill="#FFEC00" width="2.246" height="1.497"/>
					<rect x="135.187" y="14.047" fill="#FFEC00" width="2.247" height="1.498"/>
					<rect x="126.952" y="26.026" fill="#FFEC00" width="2.246" height="1.498"/>
					<rect x="129.197" y="20.037" fill="#FFEC00" width="2.246" height="1.497"/>
					<rect x="137.059" y="20.786" fill="#FFEC00" width="2.246" height="1.497"/>
					<rect x="125.454" y="17.792" fill="#FFEC00" width="2.246" height="1.497"/>
					<rect x="129.946" y="14.047" fill="#FFEC00" width="2.246" height="1.498"/>
				</g>
				<g>
					<rect x="232" y="23" fill="#FFEC00" width="18" height="2"/>
					<g>
						<polygon fill="#FFEC00" points="248,28.986 256.635,24 248,19.014 						"/>
					</g>
				</g>
			</g>
			<g>
				<g>
					<g>
						<g>
							<path fill="#FFEC00" d="M275.775,112.351c0.938-0.056,1.685-0.827,1.685-1.778h-6.19c0,0.953,0.748,1.724,1.688,1.778"/>
							<path fill="#FFEC00" d="M274.366,87.183c0.565,0,1.022-0.458,1.022-1.021v-2.378c0-0.565-0.457-1.022-1.022-1.022
								c-0.564,0-1.022,0.457-1.022,1.022v2.378C273.344,86.725,273.802,87.183,274.366,87.183z"/>
							<path fill="#FFEC00" d="M267.659,88.672c0.201,0.275,0.513,0.422,0.829,0.422c0.208,0,0.418-0.063,0.6-0.196
								c0.456-0.331,0.558-0.97,0.227-1.426l-1.397-1.925c-0.332-0.456-0.97-0.56-1.428-0.228c-0.456,0.333-0.558,0.971-0.227,1.428
								L267.659,88.672z"/>
							<path fill="#FFEC00" d="M281.072,103.654c-0.331-0.456-0.971-0.558-1.428-0.227c-0.456,0.332-0.557,0.972-0.225,1.428
								l1.398,1.924c0.199,0.275,0.511,0.421,0.827,0.421c0.208,0,0.418-0.062,0.6-0.194c0.456-0.332,0.558-0.972,0.226-1.428
								L281.072,103.654z"/>
							<path fill="#FFEC00" d="M265.171,92.1l-2.262-0.735c-0.542-0.175-1.114,0.119-1.289,0.656
								c-0.174,0.536,0.119,1.114,0.656,1.288l2.262,0.735c0.105,0.034,0.211,0.051,0.315,0.051c0.432,0,0.832-0.274,0.973-0.707
								C266.001,92.852,265.707,92.275,265.171,92.1z"/>
							<path fill="#FFEC00" d="M286.456,99.017l-2.261-0.735c-0.537-0.173-1.114,0.121-1.288,0.657s0.12,1.113,0.656,1.287
								l2.263,0.735c0.104,0.034,0.21,0.05,0.314,0.05c0.431,0,0.832-0.274,0.973-0.706
								C287.288,99.768,286.993,99.191,286.456,99.017z"/>
							<path fill="#FFEC00" d="M264.539,98.281l-2.262,0.734c-0.537,0.175-0.832,0.75-0.657,1.287
								c0.14,0.433,0.541,0.707,0.972,0.707c0.104,0,0.211-0.016,0.316-0.05l2.262-0.734c0.538-0.174,0.832-0.749,0.658-1.286
								S265.081,98.108,264.539,98.281z"/>
							<path fill="#FFEC00" d="M283.879,94.095c0.105,0,0.21-0.017,0.316-0.051l2.261-0.734c0.537-0.174,0.832-0.751,0.657-1.288
								c-0.175-0.536-0.753-0.829-1.287-0.656l-2.263,0.734c-0.536,0.176-0.831,0.752-0.656,1.288
								C283.047,93.82,283.448,94.095,283.879,94.095z"/>
							<path fill="#FFEC00" d="M267.661,103.653l-1.399,1.924c-0.333,0.456-0.231,1.096,0.226,1.428
								c0.18,0.132,0.391,0.195,0.599,0.195c0.317,0,0.628-0.146,0.828-0.421l1.4-1.923c0.332-0.457,0.231-1.097-0.226-1.429
								C268.633,103.095,267.991,103.197,267.661,103.653z"/>
							<path fill="#FFEC00" d="M280.816,85.547l-1.397,1.925c-0.332,0.456-0.229,1.095,0.226,1.426
								c0.182,0.133,0.393,0.196,0.6,0.196c0.316,0,0.628-0.146,0.828-0.422l1.397-1.925c0.332-0.457,0.229-1.095-0.227-1.428
								C281.785,84.986,281.148,85.09,280.816,85.547z"/>
							<path fill="#FFEC00" d="M281.748,96.2c0-4.077-3.305-7.383-7.383-7.383s-7.383,3.306-7.383,7.383
								c0,1.72,0.591,3.3,1.58,4.554c0.866,1.099,1.686,2.299,2.396,3.506v2.452h6.771v-2.387c0.705-1.174,1.615-2.526,2.438-3.57
								C281.157,99.501,281.748,97.922,281.748,96.2z"/>
						</g>
						<rect x="271" y="108" fill="#FFEC00" width="7" height="1"/>
					</g>
				</g>
				<g>
					<g>
						<rect x="80" y="97" fill="#FFEC00" width="18" height="2"/>
						<g>
							<polygon fill="#FFEC00" points="96,102.986 104.635,98 96,93.014 							"/>
						</g>
					</g>
					<g>
						<path fill="#FFEC00" d="M129.616,113.434c-8.446,0-15.317-6.871-15.317-15.317c0-8.445,6.871-15.316,15.317-15.316
							c8.445,0,15.316,6.871,15.316,15.316C144.933,106.562,138.062,113.434,129.616,113.434z M129.616,84.534
							c-7.49,0-13.583,6.093-13.583,13.582c0,7.49,6.093,13.583,13.583,13.583c7.489,0,13.582-6.093,13.582-13.583
							C143.198,90.627,137.105,84.534,129.616,84.534z"/>
						<g>
							<path fill-rule="evenodd" clip-rule="evenodd" fill="#FFEC00" d="M129.945,103.13c0.645,0,1.167,0.523,1.167,1.167
								c0,0.643-0.522,1.165-1.167,1.165c-0.644,0-1.166-0.522-1.166-1.165C128.779,103.653,129.302,103.13,129.945,103.13
								L129.945,103.13L129.945,103.13z M128.779,91.485l0.362,8.872c0.038,0.906,1.571,0.906,1.608,0l0.363-8.872
								C131.161,90.271,128.73,90.271,128.779,91.485z"/>
						</g>
					</g>
					<g>
						<rect x="155" y="97" fill="#FFEC00" width="18" height="2"/>
						<g>
							<polygon fill="#FFEC00" points="171,102.986 179.635,98 171,93.014 							"/>
						</g>
					</g>
					<g>
						<rect x="227" y="97" fill="#FFEC00" width="18" height="2"/>
						<g>
							<polygon fill="#FFEC00" points="243,102.986 251.635,98 243,93.014 							"/>
						</g>
					</g>
					<g>
						<path fill="#FFEC00" d="M52.688,87.719c2.062,0,4.001,0.804,5.46,2.262c1.458,1.458,2.261,3.397,2.261,5.46
							s-0.803,4.001-2.261,5.459c-1.458,1.458-3.397,2.262-5.46,2.262s-4.001-0.804-5.459-2.262s-2.262-3.396-2.261-5.459
							c0-2.062,0.803-4.002,2.261-5.46S50.626,87.719,52.688,87.719 M52.688,85.937c-2.432,0-4.864,0.928-6.72,2.783
							c-3.711,3.712-3.712,9.729,0,13.44c1.855,1.855,4.288,2.783,6.72,2.783s4.864-0.928,6.72-2.783
							c3.711-3.711,3.711-9.729,0-13.44C57.553,86.864,55.121,85.937,52.688,85.937L52.688,85.937z"/>
						
							<rect x="56.849" y="105.446" transform="matrix(0.7071 0.7071 -0.7071 0.7071 93.797 -13.7795)" fill="#FFEC00" width="13.368" height="1.782"/>
						
							<rect x="58.239" y="105.723" transform="matrix(0.7071 0.7071 -0.7071 0.7071 94.7455 -14.1705)" fill="#FFEC00" width="12.478" height="3.119"/>
					</g>
					<g>
						<path fill="#FFEC00" d="M208.434,83.556h-7.487c-4.118,0-7.487,3.369-7.487,7.487v7.486c0,3.894,2.995,7.038,6.738,7.412v2.32
							c0,0.974,0.524,1.723,1.348,2.098l-2.695,2.695l1.048,1.047l3.519-3.519h2.396l3.593,3.594l1.048-1.048l-2.695-2.695
							c0.824-0.299,1.423-1.123,1.423-2.096v-2.321c3.744-0.375,6.738-3.594,6.738-7.412v-7.487
							C215.92,86.925,212.551,83.556,208.434,83.556z M207.685,106.017v2.245c0,0.45-0.299,0.749-0.749,0.749h-4.493
							c-0.449,0-0.748-0.299-0.748-0.749v-2.245H207.685z M214.423,98.529c0,3.294-2.695,5.989-5.989,5.989h-2.995V91.043h-1.498
							v13.476h-2.995c-3.294,0-5.989-2.695-5.989-5.989v-7.486c0-3.295,2.695-5.99,5.989-5.99h7.487c3.294,0,5.989,2.695,5.989,5.99
							V98.529z"/>
						<rect x="209.182" y="100.026" fill="#FFEC00" width="2.246" height="1.498"/>
						<rect x="210.68" y="91.792" fill="#FFEC00" width="2.246" height="1.497"/>
						<rect x="206.187" y="88.047" fill="#FFEC00" width="2.247" height="1.498"/>
						<rect x="197.952" y="100.026" fill="#FFEC00" width="2.246" height="1.498"/>
						<rect x="200.197" y="94.037" fill="#FFEC00" width="2.246" height="1.497"/>
						<rect x="208.059" y="94.786" fill="#FFEC00" width="2.246" height="1.497"/>
						<rect x="196.454" y="91.792" fill="#FFEC00" width="2.246" height="1.497"/>
						<rect x="200.946" y="88.047" fill="#FFEC00" width="2.246" height="1.498"/>
					</g>
					<g>
						<rect x="9" y="97" fill="#FFEC00" width="18" height="2"/>
						<g>
							<polygon fill="#FFEC00" points="25,102.986 33.635,98 25,93.014 							"/>
						</g>
					</g>
				</g>
			</g>
			<g>
				<g>
					<path fill="none" stroke="#F4C327" stroke-width="0.873" stroke-miterlimit="10" d="M10,69.364"/>
					<g>
						<path fill="#FFEC00" d="M24.775,75.351c0.938-0.056,1.685-0.827,1.685-1.778h-6.19c0,0.953,0.748,1.724,1.688,1.778"/>
						<path fill="#FFEC00" d="M23.366,50.183c0.565,0,1.022-0.458,1.022-1.021v-2.378c0-0.565-0.457-1.022-1.022-1.022
							c-0.564,0-1.022,0.457-1.022,1.022v2.378C22.344,49.725,22.802,50.183,23.366,50.183z"/>
						<path fill="#FFEC00" d="M16.659,51.672c0.201,0.275,0.513,0.422,0.829,0.422c0.208,0,0.418-0.063,0.6-0.196
							c0.456-0.331,0.558-0.97,0.227-1.426l-1.397-1.925c-0.332-0.456-0.97-0.56-1.428-0.228c-0.456,0.333-0.558,0.971-0.227,1.428
							L16.659,51.672z"/>
						<path fill="#FFEC00" d="M30.072,66.654c-0.331-0.456-0.971-0.558-1.428-0.227c-0.456,0.332-0.557,0.972-0.225,1.428
							l1.398,1.924c0.199,0.275,0.511,0.421,0.827,0.421c0.208,0,0.418-0.062,0.6-0.194c0.456-0.332,0.558-0.972,0.226-1.428
							L30.072,66.654z"/>
						<path fill="#FFEC00" d="M14.171,55.1l-2.262-0.735c-0.542-0.175-1.114,0.119-1.289,0.656
							c-0.174,0.536,0.119,1.114,0.656,1.288l2.262,0.735c0.105,0.034,0.211,0.051,0.315,0.051c0.432,0,0.832-0.274,0.973-0.707
							C15.001,55.852,14.707,55.275,14.171,55.1z"/>
						<path fill="#FFEC00" d="M35.456,62.017l-2.261-0.735c-0.537-0.173-1.114,0.121-1.288,0.657s0.12,1.113,0.656,1.287
							l2.263,0.735c0.104,0.034,0.21,0.05,0.314,0.05c0.431,0,0.832-0.274,0.973-0.706C36.288,62.768,35.993,62.191,35.456,62.017z"
							/>
						<path fill="#FFEC00" d="M13.539,61.281l-2.262,0.734c-0.537,0.175-0.832,0.75-0.657,1.287c0.14,0.433,0.541,0.707,0.972,0.707
							c0.104,0,0.211-0.016,0.316-0.05l2.262-0.734c0.538-0.174,0.832-0.749,0.658-1.286S14.081,61.108,13.539,61.281z"/>
						<path fill="#FFEC00" d="M32.879,57.095c0.105,0,0.21-0.017,0.316-0.051l2.261-0.734c0.537-0.174,0.832-0.751,0.657-1.288
							c-0.175-0.536-0.753-0.829-1.287-0.656L32.563,55.1c-0.536,0.176-0.831,0.752-0.656,1.288
							C32.047,56.82,32.448,57.095,32.879,57.095z"/>
						<path fill="#FFEC00" d="M16.661,66.653l-1.399,1.924c-0.333,0.456-0.231,1.096,0.226,1.428
							c0.18,0.132,0.391,0.195,0.599,0.195c0.317,0,0.628-0.146,0.828-0.421l1.4-1.923c0.332-0.457,0.231-1.097-0.226-1.429
							C17.633,66.095,16.991,66.197,16.661,66.653z"/>
						<path fill="#FFEC00" d="M29.816,48.547l-1.397,1.925c-0.332,0.456-0.229,1.095,0.226,1.426c0.182,0.133,0.393,0.196,0.6,0.196
							c0.316,0,0.628-0.146,0.828-0.422l1.397-1.925c0.332-0.457,0.229-1.095-0.227-1.428C30.785,47.986,30.148,48.09,29.816,48.547
							z"/>
						<path fill="#FFEC00" d="M30.748,59.2c0-4.077-3.305-7.383-7.383-7.383s-7.383,3.306-7.383,7.383c0,1.72,0.591,3.3,1.58,4.554
							c0.866,1.099,1.686,2.299,2.396,3.506v2.452h6.771v-2.387c0.705-1.174,1.615-2.526,2.438-3.57
							C30.157,62.501,30.748,60.922,30.748,59.2z"/>
					</g>
					<rect x="20" y="71" fill="#FFEC00" width="7" height="1"/>
				</g>
				<g>
					<path fill="#FFEC00" d="M97.616,76.434c-8.446,0-15.317-6.871-15.317-15.317c0-8.445,6.871-15.316,15.317-15.316
						c8.445,0,15.316,6.871,15.316,15.316C112.933,69.562,106.062,76.434,97.616,76.434z M97.616,47.534
						c-7.49,0-13.583,6.093-13.583,13.582c0,7.49,6.093,13.583,13.583,13.583c7.489,0,13.582-6.093,13.582-13.583
						C111.198,53.627,105.105,47.534,97.616,47.534z"/>
					<polygon fill="#FFEC00" points="107.329,56.093 104.952,53.715 94.845,63.714 90.851,59.779 88.473,62.156 94.817,68.44 
						94.944,68.313 94.972,68.342 					"/>
				</g>
				<g>
					<path fill="#FFEC00" d="M181.039,50.509l1.528-2.312l-1-0.998l-2.261,1.499c-0.38-0.236-0.795-0.445-1.236-0.572l-0.551-2.741
						h-1.411l-0.537,2.675c-0.448,0.104-0.875,0.275-1.268,0.492l-2.313-1.53l-0.997,1l1.499,2.259
						c-0.238,0.382-0.402,0.797-0.53,1.238l-2.698,0.551v1.409l2.631,0.538c0.104,0.448,0.254,0.875,0.47,1.268l-1.54,2.312
						l0.994,0.997l2.257-1.498c0.38,0.237,0.794,0.406,1.235,0.535l0.55,2.701h1.411l0.537-2.635
						c0.449-0.104,0.875-0.257,1.269-0.474l2.312,1.54l0.998-0.995l-1.499-2.258c0.237-0.381,0.45-0.794,0.578-1.235l2.746-0.55
						v-1.41l-2.679-0.537C181.43,51.328,181.256,50.902,181.039,50.509z M176.691,55.022c-1.174,0-2.126-0.952-2.126-2.126
						c0-1.175,0.952-2.126,2.126-2.126s2.127,0.951,2.127,2.126C178.818,54.07,177.865,55.022,176.691,55.022z"/>
					<path fill="#FFEC00" d="M167.056,66.14l-0.71-3.005c0.415-0.321,0.778-0.691,1.082-1.104l3.124,0.485l0.557-1.508l-2.627-1.623
						c0.064-0.507,0.063-1.025-0.016-1.543l2.555-1.866l-0.673-1.46l-3.003,0.71c-0.321-0.415-0.691-0.779-1.104-1.082l0.486-3.123
						l-1.507-0.557l-1.623,2.627c-0.508-0.064-1.024-0.061-1.542,0.018l-1.867-2.554l-1.459,0.672l0.709,3.003
						c-0.415,0.321-0.778,0.691-1.082,1.103l-3.125-0.486l-0.556,1.509l2.627,1.621c-0.065,0.508-0.062,1.025,0.016,1.544
						l-2.555,1.866l0.672,1.46l3.003-0.711c0.322,0.415,0.692,0.78,1.104,1.083l-0.486,3.124l1.508,0.556l1.623-2.627
						c0.508,0.064,1.026,0.063,1.543-0.015l1.869,2.556L167.056,66.14z M163.904,60.882c-1.216,0.56-2.655,0.027-3.215-1.188
						c-0.561-1.215-0.029-2.654,1.187-3.214c1.215-0.561,2.655-0.028,3.215,1.187C165.65,58.883,165.119,60.322,163.904,60.882z"/>
					<path fill="#FFEC00" d="M180.106,76.024l-0.548-3.038c0.431-0.298,0.815-0.649,1.14-1.044l3.093,0.652l0.637-1.475
						l-2.536-1.763c0.092-0.503,0.118-1.021,0.067-1.541l2.651-1.728l-0.593-1.493l-3.037,0.547
						c-0.299-0.431-0.649-0.814-1.044-1.14l0.654-3.094l-1.476-0.637l-1.762,2.536c-0.504-0.092-1.02-0.115-1.542-0.064l-1.726-2.65
						l-1.494,0.592l0.547,3.037c-0.432,0.299-0.815,0.647-1.141,1.043l-3.094-0.654l-0.636,1.475l2.536,1.763
						c-0.092,0.503-0.117,1.021-0.067,1.542l-2.651,1.727l0.593,1.492l3.037-0.547c0.299,0.432,0.648,0.816,1.043,1.14l-0.654,3.094
						l1.476,0.638l1.762-2.536c0.503,0.091,1.021,0.118,1.542,0.067l1.727,2.653L180.106,76.024z M177.241,70.605
						c-1.244,0.492-2.652-0.116-3.146-1.359s0.114-2.652,1.358-3.146c1.244-0.494,2.652,0.115,3.146,1.358
						C179.093,68.703,178.485,70.111,177.241,70.605z"/>
				</g>
				<g>
					<rect x="121" y="60" fill="#FFEC00" width="18" height="2"/>
					<g>
						<polygon fill="#FFEC00" points="137,65.986 145.635,61 137,56.014 						"/>
					</g>
				</g>
				<g>
					<rect x="50" y="60" fill="#FFEC00" width="18" height="2"/>
					<g>
						<polygon fill="#FFEC00" points="66,65.986 74.635,61 66,56.014 						"/>
					</g>
				</g>
				<g>
					<rect x="197" y="60" fill="#FFEC00" width="18" height="2"/>
					<g>
						<polygon fill="#FFEC00" points="213,65.986 221.635,61 213,56.014 						"/>
					</g>
				</g>
				<g>
					<circle fill="#FFEC00" cx="233.544" cy="56.154" r="3.711"/>
					<circle fill="#FFEC00" cx="247.461" cy="72.854" r="3.711"/>
					<circle fill="#FFEC00" cx="264.16" cy="49.545" r="3.711"/>
					<circle fill="#FFEC00" cx="278.425" cy="64.504" r="3.711"/>
					<circle fill="#FFEC00" cx="287.122" cy="51.979" r="3.711"/>
					<polygon fill="#FFEC00" points="247.513,74.275 232.876,56.711 234.212,55.598 247.409,71.434 264.07,48.177 278.316,63.378 
						286.403,51.49 287.841,52.469 278.533,66.153 264.25,50.913 					"/>
				</g>
			</g>
			<g>
				<g>
					<path fill="none" stroke="#F4C327" stroke-width="0.873" stroke-miterlimit="10" d="M79,144.364"/>
					<g>
						<path fill="#FFEC00" d="M93.775,150.351c0.938-0.056,1.685-0.827,1.685-1.778h-6.19c0,0.953,0.748,1.724,1.688,1.778"/>
						<path fill="#FFEC00" d="M92.366,125.183c0.565,0,1.022-0.458,1.022-1.021v-2.378c0-0.565-0.457-1.022-1.022-1.022
							c-0.564,0-1.022,0.457-1.022,1.022v2.378C91.344,124.725,91.802,125.183,92.366,125.183z"/>
						<path fill="#FFEC00" d="M85.659,126.672c0.201,0.275,0.513,0.422,0.829,0.422c0.208,0,0.418-0.063,0.6-0.196
							c0.456-0.331,0.558-0.97,0.227-1.426l-1.397-1.925c-0.332-0.456-0.97-0.56-1.428-0.228c-0.456,0.333-0.558,0.971-0.227,1.428
							L85.659,126.672z"/>
						<path fill="#FFEC00" d="M99.072,141.654c-0.331-0.456-0.971-0.558-1.428-0.227c-0.456,0.332-0.557,0.972-0.225,1.428
							l1.398,1.924c0.199,0.275,0.511,0.421,0.827,0.421c0.208,0,0.418-0.062,0.6-0.194c0.456-0.332,0.558-0.972,0.226-1.428
							L99.072,141.654z"/>
						<path fill="#FFEC00" d="M83.171,130.1l-2.262-0.735c-0.542-0.175-1.114,0.119-1.289,0.656
							c-0.174,0.536,0.119,1.114,0.656,1.288l2.262,0.735c0.105,0.034,0.211,0.051,0.315,0.051c0.432,0,0.832-0.274,0.973-0.707
							C84.001,130.852,83.707,130.275,83.171,130.1z"/>
						<path fill="#FFEC00" d="M104.456,137.017l-2.261-0.735c-0.537-0.173-1.114,0.121-1.288,0.657s0.12,1.113,0.656,1.287
							l2.263,0.735c0.104,0.034,0.21,0.05,0.314,0.05c0.431,0,0.832-0.274,0.973-0.706
							C105.288,137.768,104.993,137.191,104.456,137.017z"/>
						<path fill="#FFEC00" d="M82.539,136.281l-2.262,0.734c-0.537,0.175-0.832,0.75-0.657,1.287
							c0.14,0.433,0.541,0.707,0.972,0.707c0.104,0,0.211-0.016,0.316-0.05l2.262-0.734c0.538-0.174,0.832-0.749,0.658-1.286
							S83.081,136.108,82.539,136.281z"/>
						<path fill="#FFEC00" d="M101.879,132.095c0.105,0,0.21-0.017,0.316-0.051l2.261-0.734c0.537-0.174,0.832-0.751,0.657-1.288
							c-0.175-0.536-0.753-0.829-1.287-0.656l-2.263,0.734c-0.536,0.176-0.831,0.752-0.656,1.288
							C101.047,131.82,101.448,132.095,101.879,132.095z"/>
						<path fill="#FFEC00" d="M85.661,141.653l-1.399,1.924c-0.333,0.456-0.231,1.096,0.226,1.428
							c0.18,0.132,0.391,0.195,0.599,0.195c0.317,0,0.628-0.146,0.828-0.421l1.4-1.923c0.332-0.457,0.231-1.097-0.226-1.429
							C86.633,141.095,85.991,141.197,85.661,141.653z"/>
						<path fill="#FFEC00" d="M98.816,123.547l-1.397,1.925c-0.332,0.456-0.229,1.095,0.226,1.426
							c0.182,0.133,0.393,0.196,0.6,0.196c0.316,0,0.628-0.146,0.828-0.422l1.397-1.925c0.332-0.457,0.229-1.095-0.227-1.428
							C99.785,122.986,99.148,123.09,98.816,123.547z"/>
						<path fill="#FFEC00" d="M99.748,134.2c0-4.077-3.305-7.383-7.383-7.383s-7.383,3.306-7.383,7.383c0,1.72,0.591,3.3,1.58,4.554
							c0.866,1.099,1.686,2.299,2.396,3.506v2.452h6.771v-2.387c0.705-1.174,1.615-2.526,2.438-3.57
							C99.157,137.501,99.748,135.922,99.748,134.2z"/>
					</g>
					<rect x="89" y="146" fill="#FFEC00" width="7" height="1"/>
				</g>
				<g>
					<path fill="#FFEC00" d="M166.616,151.434c-8.446,0-15.317-6.871-15.317-15.317c0-8.445,6.871-15.316,15.317-15.316
						c8.445,0,15.316,6.871,15.316,15.316C181.933,144.562,175.062,151.434,166.616,151.434z M166.616,122.534
						c-7.49,0-13.583,6.093-13.583,13.582c0,7.49,6.093,13.583,13.583,13.583c7.489,0,13.582-6.093,13.582-13.583
						C180.198,128.627,174.105,122.534,166.616,122.534z"/>
					<polygon fill="#FFEC00" points="176.329,131.093 173.952,128.715 163.845,138.714 159.851,134.779 157.473,137.156 
						163.817,143.44 163.944,143.313 163.972,143.342 					"/>
				</g>
				<g>
					<rect x="43" y="135" fill="#FFEC00" width="18" height="2"/>
					<g>
						<polygon fill="#FFEC00" points="59,140.986 67.635,136 59,131.014 						"/>
					</g>
				</g>
				<g>
					<path fill="#FFEC00" d="M250.039,125.509l1.528-2.312l-1-0.998l-2.261,1.499c-0.38-0.236-0.795-0.445-1.236-0.572l-0.551-2.741
						h-1.411l-0.537,2.675c-0.448,0.104-0.875,0.275-1.268,0.492l-2.313-1.53l-0.997,1l1.499,2.259
						c-0.238,0.382-0.402,0.797-0.53,1.238l-2.698,0.551v1.409l2.631,0.538c0.104,0.448,0.254,0.875,0.47,1.268l-1.54,2.312
						l0.994,0.997l2.257-1.498c0.38,0.237,0.794,0.406,1.235,0.535l0.55,2.701h1.411l0.537-2.635
						c0.449-0.104,0.875-0.257,1.269-0.474l2.312,1.54l0.998-0.995l-1.499-2.258c0.237-0.381,0.45-0.794,0.578-1.235l2.746-0.55
						v-1.41l-2.679-0.537C250.43,126.328,250.256,125.902,250.039,125.509z M245.691,130.022c-1.174,0-2.126-0.952-2.126-2.126
						c0-1.175,0.952-2.126,2.126-2.126s2.127,0.951,2.127,2.126C247.818,129.07,246.865,130.022,245.691,130.022z"/>
					<path fill="#FFEC00" d="M236.056,141.14l-0.71-3.005c0.415-0.321,0.778-0.691,1.082-1.104l3.124,0.485l0.557-1.508
						l-2.627-1.623c0.064-0.507,0.063-1.025-0.016-1.543l2.555-1.866l-0.673-1.46l-3.003,0.71c-0.321-0.415-0.691-0.779-1.104-1.082
						l0.486-3.123l-1.507-0.557l-1.623,2.627c-0.508-0.064-1.024-0.061-1.542,0.018l-1.867-2.554l-1.459,0.672l0.709,3.003
						c-0.415,0.321-0.778,0.691-1.082,1.103l-3.125-0.486l-0.556,1.509l2.627,1.621c-0.065,0.508-0.062,1.025,0.016,1.544
						l-2.555,1.866l0.672,1.46l3.003-0.711c0.322,0.415,0.692,0.78,1.104,1.083l-0.486,3.124l1.508,0.556l1.623-2.627
						c0.508,0.064,1.026,0.063,1.543-0.015l1.869,2.556L236.056,141.14z M232.904,135.882c-1.216,0.56-2.655,0.027-3.215-1.188
						c-0.561-1.215-0.029-2.654,1.187-3.214c1.215-0.561,2.655-0.028,3.215,1.187C234.65,133.883,234.119,135.322,232.904,135.882z"
						/>
					<path fill="#FFEC00" d="M249.106,151.024l-0.548-3.038c0.431-0.298,0.815-0.649,1.14-1.044l3.093,0.652l0.637-1.475
						l-2.536-1.763c0.092-0.503,0.118-1.021,0.067-1.541l2.651-1.728l-0.593-1.493l-3.037,0.547
						c-0.299-0.431-0.649-0.814-1.044-1.14l0.654-3.094l-1.476-0.637l-1.762,2.536c-0.504-0.092-1.02-0.115-1.542-0.064l-1.726-2.65
						l-1.494,0.592l0.547,3.037c-0.432,0.299-0.815,0.647-1.141,1.043l-3.094-0.654l-0.636,1.475l2.536,1.763
						c-0.092,0.503-0.117,1.021-0.067,1.542l-2.651,1.727l0.593,1.492l3.037-0.547c0.299,0.432,0.648,0.816,1.043,1.14l-0.654,3.094
						l1.476,0.638l1.762-2.536c0.503,0.091,1.021,0.118,1.542,0.067l1.727,2.653L249.106,151.024z M246.241,145.605
						c-1.244,0.492-2.652-0.116-3.146-1.359s0.114-2.652,1.358-3.146c1.244-0.494,2.652,0.115,3.146,1.358
						C248.093,143.703,247.485,145.111,246.241,145.605z"/>
				</g>
				<g>
					<rect x="190" y="135" fill="#FFEC00" width="18" height="2"/>
					<g>
						<polygon fill="#FFEC00" points="206,140.986 214.635,136 206,131.014 						"/>
					</g>
				</g>
				<g>
					<path fill="#FFEC00" d="M24.434,121.556h-7.487c-4.118,0-7.487,3.369-7.487,7.487v7.486c0,3.894,2.995,7.038,6.738,7.412v2.32
						c0,0.974,0.524,1.723,1.348,2.098l-2.695,2.695l1.048,1.047l3.519-3.519h2.396l3.593,3.594l1.048-1.048l-2.695-2.695
						c0.824-0.299,1.423-1.123,1.423-2.096v-2.321c3.744-0.375,6.738-3.594,6.738-7.412v-7.487
						C31.92,124.925,28.551,121.556,24.434,121.556z M23.685,144.017v2.245c0,0.45-0.299,0.749-0.749,0.749h-4.493
						c-0.449,0-0.748-0.299-0.748-0.749v-2.245H23.685z M30.423,136.529c0,3.294-2.695,5.989-5.989,5.989h-2.995v-13.476h-1.498
						v13.476h-2.995c-3.294,0-5.989-2.695-5.989-5.989v-7.486c0-3.295,2.695-5.99,5.989-5.99h7.487c3.294,0,5.989,2.695,5.989,5.99
						V136.529z"/>
					<rect x="25.182" y="138.026" fill="#FFEC00" width="2.246" height="1.498"/>
					<rect x="26.68" y="129.792" fill="#FFEC00" width="2.246" height="1.497"/>
					<rect x="22.187" y="126.047" fill="#FFEC00" width="2.247" height="1.498"/>
					<rect x="13.952" y="138.026" fill="#FFEC00" width="2.246" height="1.498"/>
					<rect x="16.197" y="132.037" fill="#FFEC00" width="2.246" height="1.497"/>
					<rect x="24.059" y="132.786" fill="#FFEC00" width="2.246" height="1.497"/>
					<rect x="12.454" y="129.792" fill="#FFEC00" width="2.246" height="1.497"/>
					<rect x="16.946" y="126.047" fill="#FFEC00" width="2.246" height="1.498"/>
				</g>
				<g>
					<rect x="119" y="135" fill="#FFEC00" width="18" height="2"/>
					<g>
						<polygon fill="#FFEC00" points="135,140.986 143.635,136 135,131.014 						"/>
					</g>
				</g>
				<g>
					<rect x="266" y="135" fill="#FFEC00" width="18" height="2"/>
					<g>
						<polygon fill="#FFEC00" points="282,140.986 290.635,136 282,131.014 						"/>
					</g>
				</g>
			</g>
		</g>
		<g id="XMLID_12_" clip-path="url(#XMLID_24_)">
			<path fill="#F9F9F9" d="M295,10v140H5V10H295 M300,5H0v150h300V5L300,5z"/>
		</g>
	</g>
	<g>
		<g>
			<path fill="#8800FF" d="M150.792,95.362l-6.444,4.786l-2.75-3.621c-0.923,0.428-1.719,0.7-2.385,0.817
				c-3.18,0.562-5.828-0.308-7.944-2.605c-2.257-2.444-3.385-6.173-3.385-11.184c0-4.852,1.025-8.894,3.078-12.125
				c2.051-3.257,4.795-5.188,8.232-5.795c3.347-0.59,6.065,0.366,8.156,2.866c2.09,2.5,3.135,6.051,3.135,10.652
				c0,5.249-1.123,9.467-3.366,12.651L150.792,95.362z M142.175,81.135c0-1.309-0.071-2.466-0.211-3.473
				c-0.141-1.007-0.34-1.841-0.597-2.503c-0.256-0.662-0.574-1.148-0.952-1.458c-0.378-0.311-0.805-0.424-1.279-0.34
				c-0.897,0.158-1.616,1.025-2.154,2.601c-0.526,1.68-0.789,3.716-0.789,6.109c0,1.269,0.067,2.395,0.202,3.375
				c0.134,0.981,0.327,1.794,0.577,2.437c0.25,0.644,0.561,1.114,0.933,1.413c0.372,0.298,0.789,0.406,1.25,0.324
				c0.474-0.083,0.897-0.336,1.27-0.759c0.371-0.423,0.688-1.001,0.952-1.735c0.262-0.733,0.461-1.601,0.596-2.604
				S142.175,82.392,142.175,81.135z"/>
			<path fill="#8800FF" d="M175.605,90.393l-8.29,1.462l-0.597-3.782l-5.405,0.953l-0.654,4.003l-8.29,1.461l7.136-31.879l9.81-1.73
				L175.605,90.393z M165.776,81.674l-0.52-3.479c-0.013-0.01-0.038-0.185-0.077-0.521c-0.026-0.286-0.161-1.412-0.404-3.38
				c-0.026-0.221-0.058-0.522-0.096-0.905s-0.09-0.866-0.154-1.45l-0.25-2.852c-0.026,0.282-0.061,0.599-0.106,0.951
				c-0.045,0.352-0.093,0.737-0.144,1.155c-0.09,0.836-0.154,1.416-0.192,1.74s-0.064,0.52-0.077,0.588l-0.558,3.808l-0.808,4.941
				L165.776,81.674z"/>
		</g>
		<g>
			<path fill="#FF00A4" d="M148.823,93.68l-6.443,4.785l-2.75-3.621c-0.923,0.428-1.719,0.7-2.385,0.817
				c-3.18,0.562-5.828-0.308-7.944-2.605c-2.257-2.444-3.385-6.173-3.385-11.184c0-4.852,1.026-8.894,3.078-12.125
				c2.051-3.257,4.795-5.188,8.232-5.795c3.347-0.59,6.065,0.366,8.155,2.866c2.09,2.5,3.135,6.052,3.135,10.652
				c0,5.249-1.123,9.467-3.366,12.651L148.823,93.68z M140.206,79.451c0-1.309-0.071-2.466-0.212-3.473
				c-0.141-1.007-0.34-1.841-0.597-2.503c-0.256-0.662-0.574-1.148-0.952-1.458c-0.378-0.311-0.805-0.424-1.279-0.34
				c-0.897,0.158-1.616,1.025-2.154,2.601c-0.526,1.68-0.789,3.716-0.789,6.109c0,1.269,0.067,2.395,0.202,3.375
				c0.135,0.981,0.327,1.794,0.577,2.438c0.25,0.643,0.561,1.113,0.933,1.412c0.372,0.298,0.789,0.406,1.25,0.324
				c0.474-0.083,0.897-0.336,1.27-0.759c0.372-0.423,0.689-1.001,0.952-1.734c0.262-0.734,0.461-1.602,0.596-2.604
				S140.206,80.708,140.206,79.451z"/>
			<path fill="#FF00A4" d="M173.635,88.709l-8.29,1.462l-0.597-3.782l-5.405,0.953l-0.654,4.003l-8.29,1.461l7.136-31.879l9.81-1.73
				L173.635,88.709z M163.807,79.99l-0.52-3.479c-0.013-0.01-0.038-0.185-0.077-0.521c-0.026-0.286-0.161-1.412-0.404-3.38
				c-0.026-0.221-0.058-0.522-0.096-0.905c-0.038-0.383-0.09-0.866-0.154-1.45l-0.25-2.852c-0.026,0.282-0.061,0.599-0.106,0.951
				c-0.045,0.352-0.093,0.737-0.144,1.155c-0.09,0.836-0.154,1.416-0.192,1.74s-0.064,0.52-0.077,0.588l-0.558,3.808l-0.808,4.941
				L163.807,79.99z"/>
		</g>
	</g>
</g>
</svg>
