<?xml version="1.0" encoding="utf-8"?>
<!-- Generator: Adobe Illustrator 16.0.0, SVG Export Plug-In . SVG Version: 6.00 Build 0)  -->
<!DOCTYPE svg PUBLIC "-//W3C//DTD SVG 1.1//EN" "http://www.w3.org/Graphics/SVG/1.1/DTD/svg11.dtd">
<svg version="1.1" id="Layer_1" xmlns="http://www.w3.org/2000/svg" xmlns:xlink="http://www.w3.org/1999/xlink" x="0px" y="0px"
	 width="150px" height="150px" viewBox="0 0 150 150" enable-background="new 0 0 150 150" xml:space="preserve">
<path fill="#F6D6AE" stroke="#37152C" stroke-width="1.1142" stroke-miterlimit="10" d="M114.595,72.379
	c2.729-2.475,7.744-1.809,8.062,0.191c1.12,7.074-2.478,21.293-7.63,25.102c-1.021,0.753-6.981,1.376-6.369-2.794
	C109.466,89.376,110.478,76.114,114.595,72.379z"/>
<path fill="#F6D6AE" stroke="#37152C" stroke-width="1.1142" stroke-miterlimit="10" d="M29.634,72.379
	c-2.729-2.475-7.744-1.809-8.062,0.191c-1.121,7.074,2.106,21.666,7.259,25.472c1.021,0.754,6.981,1.377,6.369-2.794
	C34.393,89.748,33.75,76.114,29.634,72.379z"/>
<linearGradient id="SVGID_1_" gradientUnits="userSpaceOnUse" x1="72.625" y1="62.7773" x2="72.625" y2="186.8293">
	<stop  offset="0" style="stop-color:#F6D6AE"/>
	<stop  offset="1" style="stop-color:#E6C186"/>
</linearGradient>
<path fill="url(#SVGID_1_)" stroke="#37152C" stroke-width="1.1142" stroke-miterlimit="10" d="M113.139,61.375
	c-1.43-6.067-7.544-23.771-7.544-23.771L83.959,16.537l-2.125-0.378l0.238-3.323l-9.447,1.684l-9.448-1.684l0.239,3.323
	l-2.125,0.378L39.654,37.604c0,0-6.113,17.704-7.545,23.771l-2.846,14.234c3.378,20.234,4.822,37.017,11.054,46.181
	c8.484,12.477,10.583,15.721,14.854,20.198c6.871,7.209,17.312,4.605,17.454,4.522c0.142,0.083,11.151,3.057,17.303-3.73
	c4.055-4.476,6.76-7.554,14.465-19.438c6.102-9.41,8.082-26.697,11.594-47.732L113.139,61.375z"/>
<linearGradient id="SVGID_2_" gradientUnits="userSpaceOnUse" x1="72.5723" y1="143.168" x2="72.5723" y2="147.4035">
	<stop  offset="0" style="stop-color:#664728"/>
	<stop  offset="1" style="stop-color:#824636"/>
</linearGradient>
<path opacity="0.3" fill="url(#SVGID_2_)" d="M66.7,147.245c0,0,5.552-1.352,5.978-3.558c0,0,0.748,2.277,5.766,3.772
	c0,0-4.627-0.143-5.766-1.566C72.678,145.894,69.476,148.101,66.7,147.245z"/>
<g opacity="0.6">
	<path fill="#37152C" d="M67.839,127.262c0,0,0.632,0.312,1.571,0.635c0.233,0.085,0.49,0.158,0.758,0.238
		c0.266,0.088,0.559,0.128,0.847,0.21c0.592,0.091,1.216,0.217,1.846,0.184c0.629,0.026,1.251-0.075,1.839-0.176
		c0.293-0.058,0.568-0.151,0.842-0.213c0.275-0.057,0.512-0.18,0.75-0.252c0.23-0.09,0.461-0.144,0.641-0.239
		c0.189-0.082,0.355-0.154,0.492-0.213c0.279-0.114,0.449-0.174,0.449-0.174s-0.11,0.133-0.322,0.355
		c-0.215,0.216-0.511,0.555-0.962,0.837c-0.224,0.144-0.447,0.343-0.734,0.456c-0.28,0.125-0.568,0.293-0.894,0.389
		c-0.329,0.08-0.661,0.224-1.021,0.256c-0.356,0.037-0.72,0.106-1.087,0.087c-0.367,0-0.73-0.034-1.084-0.099
		c-0.358-0.033-0.688-0.173-1.016-0.255c-0.636-0.233-1.202-0.509-1.634-0.824C68.232,127.867,67.839,127.262,67.839,127.262z"/>
</g>
<linearGradient id="SVGID_3_" gradientUnits="userSpaceOnUse" x1="73.9609" y1="130.9336" x2="73.9609" y2="130.9336">
	<stop  offset="0" style="stop-color:#A37749"/>
	<stop  offset="1" style="stop-color:#824636"/>
</linearGradient>
<path fill="url(#SVGID_3_)" stroke="#37152C" stroke-width="0.8541" stroke-miterlimit="10" d="M73.96,130.933"/>
<linearGradient id="SVGID_4_" gradientUnits="userSpaceOnUse" x1="71.3965" y1="130.9336" x2="71.3965" y2="130.9336">
	<stop  offset="0" style="stop-color:#A37749"/>
	<stop  offset="1" style="stop-color:#824636"/>
</linearGradient>
<path fill="url(#SVGID_4_)" stroke="#37152C" stroke-width="0.8541" stroke-miterlimit="10" d="M71.396,130.933"/>
<linearGradient id="SVGID_5_" gradientUnits="userSpaceOnUse" x1="68.7021" y1="82.6006" x2="96.6223" y2="175.4032">
	<stop  offset="0" style="stop-color:#A37749"/>
	<stop  offset="1" style="stop-color:#824636"/>
</linearGradient>
<path opacity="0.3" fill="url(#SVGID_5_)" d="M72.993,111.708l0.005,5.354c17.061-1.808,17.898,1.615,17.898,1.615
	s-1.254,8.562-3.626,13.07c-0.804,1.527-3.431,3.826-5.339,4.537c0,0-3.2-4.414-9.254-4.541v-0.005
	c-0.028,0-0.055,0.002-0.083,0.003c-0.027-0.001-0.055-0.003-0.083-0.003v0.005c-6.055,0.127-9.252,4.541-9.252,4.541
	c-1.909-0.711-4.536-3.01-5.34-4.537c-2.373-4.508-3.627-13.07-3.627-13.07s0.838-3.423,17.898-1.615l0.005-5.354
	c-8.068-0.606-17.697,0.774-21.623-1.345c-3.434-1.854-4.428-5.684-7.056-6.973c-13.177-6.467-12.154-11.828-11.724-11.158
	c2.202,10.072,3.213,21.753,7.048,27.669c7.828,12.078,12.896,19.663,18.165,23.729c6.152,4.748,14.11,3.283,15.486,3.111
	c0.005,0.004,0.006,0.009,0.019,0.017v-0.019c0.029-0.003,0.06-0.008,0.083-0.011c0.022,0.003,0.054,0.008,0.083,0.011v0.019
	c0.013-0.008,0.015-0.013,0.02-0.017c1.377,0.172,9.334,2.38,15.486-2.368c5.268-4.067,10.635-11.213,18.166-23.729
	c3.633-6.042,4.846-18.341,7.046-28.413c0.431-0.668-0.606,5.877-13.699,12.351c-2.688,1.327-3.299,4.703-6.366,6.339
	C89.934,112.733,80.891,111.633,72.993,111.708z"/>
<linearGradient id="SVGID_6_" gradientUnits="userSpaceOnUse" x1="52.5342" y1="-15.0312" x2="94.8603" y2="142.1393">
	<stop  offset="0" style="stop-color:#A37749"/>
	<stop  offset="1" style="stop-color:#824636"/>
</linearGradient>
<path fill="url(#SVGID_6_)" stroke="#37152C" stroke-width="1.1142" stroke-miterlimit="10" d="M42.264,57.437
	c0.238-0.157-5.788,5.606-7.308,13.674c7.974-16.085,17.85-8.955,20.696-27.602c0,0,1.678,6.732-5.453,12.711
	c13.796-7.402,6.11-26.444,30.734-36.125c13.998,6.026,10.107,17.794,19.691,28.137c0,0-3.227-4.005-1.186-8.987
	c0,0-1.425,9.178,10.249,20.992c0,0,7.741,10.874,1.904,32.652c0,0,3.986-7.544,4.982-11.957c0,0-1.85,10.106-3.985,13.522
	c0,0,17.502-26.754,4.977-45.971c0,0,3.873,4.011,5.582,4.723c-5.693-6.548,2.014-22.111-14.316-30.977c0,0,4.414,1.851,6.834,1.14
	C94.173,15.968,102.001,4.865,83.354,9.848c0,0,2.389-4.383,5.379-4.952c0,0-3.243-0.742-5.948,2.531c0,0,0.286-0.105-1.423-4.335
	c0,0,0.048,3.372-0.688,4.493c-9.703-15.872-22.352,7.314-37.215,5.551c0,0,1.89,1.637,11.996-1.922
	c-11.387,7.117-14.348,1.938-25.448,16.314c0,0,3.44-3.758,5.718-4.468c-8.256,12.384-7.847,4.01-14.252,32.62
	c0,0,2.784-6.548,3.779-9.679c0,0-6.38,29.473,6.004,51.529c0,0-1.424-6.121-0.854-7.829c0,0,1.28,5.551,3.132,10.105
	C33.534,99.808,24.428,69.285,42.264,57.437z"/>
<linearGradient id="SVGID_7_" gradientUnits="userSpaceOnUse" x1="51.3223" y1="57.7148" x2="51.3223" y2="86.9012">
	<stop  offset="0" style="stop-color:#A37749"/>
	<stop  offset="1" style="stop-color:#824636"/>
</linearGradient>
<path fill="url(#SVGID_7_)" d="M65.168,73.175c-0.126-3.277-0.428-5.923-11.743-6.208c0,0-9.537-0.767-12.314,1.511l1.425,0.228
	c0,0-1.29,0.483-5.062,5.038c0,0,9.332-5.124,27.695,0.428C65.168,74.171,65.177,73.422,65.168,73.175z"/>
<linearGradient id="SVGID_8_" gradientUnits="userSpaceOnUse" x1="-3399.3179" y1="58.1377" x2="-3399.3179" y2="87.328" gradientTransform="matrix(-1 0 0 1 -3305.9844 0)">
	<stop  offset="0" style="stop-color:#A37749"/>
	<stop  offset="1" style="stop-color:#824636"/>
</linearGradient>
<path fill="url(#SVGID_8_)" d="M79.672,73.36c0.127-3.276,0.428-5.923,11.744-6.208c0,0,9.538-0.768,12.312,1.51l-1.422,0.229
	c0,0,0.918,0.482,4.69,5.038c0,0-8.961-5.125-27.325,0.428C79.672,74.357,79.664,73.608,79.672,73.36z"/>
<g>
	<defs>
		<path id="XMLID_28_" d="M79.666,71.556l0.002-0.001l-0.004,0.002c-0.012,0.004-0.022,0.006-0.033,0.01l0.004-0.012
			c-0.011,0.008-0.021,0.013-0.032,0.021c-0.513,0.149-1.028,0.308-1.545,0.474c0,0-2.14,0.733-4.823,1.002
			c-3.188-0.096-5.951-1.002-5.951-1.002c-0.536-0.172-1.071-0.337-1.607-0.492c-0.001,0-0.002-0.002-0.002-0.002v0.001
			c-17.91-5.23-34.936-1.296-34.936-1.296v5.025c3.005,0.911,4.34,3.75,4.515,5.324c1.576,14.114,14.056,14.566,14.056,14.566
			s17.741,2.827,20.046-15.624c0.163-0.086,0.199-0.291,0.367-0.36c2.055-0.844,4.47-0.382,6.02,0.096
			c0.077,0.088,0.131,0.203,0.244,0.265c2.306,18.451,20.046,15.624,20.046,15.624s12.48-0.452,14.057-14.566
			c0.175-1.574,1.51-4.413,4.514-5.324V70.26C114.602,70.26,97.576,66.325,79.666,71.556z"/>
	</defs>
	<use xlink:href="#XMLID_28_"  overflow="visible" fill="#0F0F10"/>
	<clipPath id="XMLID_30_">
		<use xlink:href="#XMLID_28_"  overflow="visible"/>
	</clipPath>
	<linearGradient id="SVGID_9_" gradientUnits="userSpaceOnUse" x1="113.8164" y1="71.9473" x2="113.8164" y2="73.4326">
		<stop  offset="0" style="stop-color:#9DCC5C"/>
		<stop  offset="1" style="stop-color:#D98B7F"/>
	</linearGradient>
	<rect x="110.972" y="71.947" clip-path="url(#XMLID_30_)" fill="url(#SVGID_9_)" width="5.69" height="1.485"/>
	<linearGradient id="SVGID_10_" gradientUnits="userSpaceOnUse" x1="31.0039" y1="71.9473" x2="31.0039" y2="73.4326">
		<stop  offset="0" style="stop-color:#9DCC5C"/>
		<stop  offset="1" style="stop-color:#D98B7F"/>
	</linearGradient>
	<rect x="28.159" y="71.947" clip-path="url(#XMLID_30_)" fill="url(#SVGID_10_)" width="5.689" height="1.485"/>
</g>
<linearGradient id="SVGID_11_" gradientUnits="userSpaceOnUse" x1="88.0459" y1="69.8916" x2="100.4479" y2="92.3869">
	<stop  offset="0" style="stop-color:#61C7D6"/>
	<stop  offset="1" style="stop-color:#336EB5"/>
</linearGradient>
<path fill="url(#SVGID_11_)" d="M78.314,79.544c0,0-0.534-4.455,3.875-6.387c0,0,13.564-3.86,22.19-1.662
	c0,0,4.004,0.868,4.004,6.729c0,0-0.194,14.368-12.735,15.376C95.648,93.601,79.611,96.256,78.314,79.544z"/>
<linearGradient id="SVGID_12_" gradientUnits="userSpaceOnUse" x1="45.7715" y1="68.7109" x2="58.8996" y2="92.5232">
	<stop  offset="0" style="stop-color:#61C7D6"/>
	<stop  offset="1" style="stop-color:#336EB5"/>
</linearGradient>
<path fill="url(#SVGID_12_)" d="M67.027,79.544c0,0,0.533-4.455-3.876-6.387c0,0-13.563-3.86-22.191-1.662
	c0,0-4.004,0.868-4.003,6.729c0,0,0.193,14.368,12.734,15.376C49.691,93.601,65.729,96.256,67.027,79.544z"/>
</svg>
