<?xml version="1.0" encoding="utf-8"?>
<!-- Generator: Adobe Illustrator 16.0.0, SVG Export Plug-In . SVG Version: 6.00 Build 0)  -->
<!DOCTYPE svg PUBLIC "-//W3C//DTD SVG 1.1//EN" "http://www.w3.org/Graphics/SVG/1.1/DTD/svg11.dtd">
<svg version="1.1" id="Layer_1" xmlns="http://www.w3.org/2000/svg" xmlns:xlink="http://www.w3.org/1999/xlink" x="0px" y="0px"
	 width="150px" height="150px" viewBox="0 0 150 150" enable-background="new 0 0 150 150" xml:space="preserve">
<linearGradient id="SVGID_1_" gradientUnits="userSpaceOnUse" x1="73.8203" y1="14.0225" x2="73.8203" y2="172.6591">
	<stop  offset="0" style="stop-color:#F6D6AE"/>
	<stop  offset="0.9316" style="stop-color:#E6C186"/>
</linearGradient>
<path fill="url(#SVGID_1_)" stroke="#37152C" stroke-width="1.1569" stroke-miterlimit="10" d="M74.879,147.57
	c3.589-0.275,10.777-1.66,14.049-3.164c3.99-1.835,9.396-6.31,12.154-9.727c2.518-3.121,5.465-9.608,6.656-13.437
	c0.777-2.5,2.984-10.313,2.984-10.313c5.254,2.584,5.338-6.65,5.338-6.65c-0.531-6.364,3.857-12.439,3.857-12.439
	c2.415-9.148-2.389-8.47-3.592-8.168l1.666-9.404l1.402-19.079l-9.217-16.131L88.416,23.184H74.879h-1.867H59.475L37.713,39.058
	l-9.218,16.131l1.403,19.079l1.681,9.483v-0.003c0,0-6.607-2.324-3.858,8.092c0,0,4.389,6.075,3.858,12.439
	c0,0-1.009,7.894,4.814,6.631l0.771-0.001c0,0,2.208,7.829,2.986,10.334c1.193,3.828,4.14,10.315,6.657,13.437
	c2.759,3.417,8.165,7.892,12.154,9.727c3.27,1.504,10.459,2.889,14.049,3.164C73.477,147.605,74.412,147.605,74.879,147.57z"/>
<linearGradient id="SVGID_2_" gradientUnits="userSpaceOnUse" x1="74.4746" y1="-3.2959" x2="74.4746" y2="100.7886">
	<stop  offset="0" style="stop-color:#A57A41"/>
	<stop  offset="0.1696" style="stop-color:#A1723D"/>
	<stop  offset="1" style="stop-color:#8E4D29"/>
</linearGradient>
<path fill="url(#SVGID_2_)" stroke="#37152C" stroke-width="1.1569" stroke-miterlimit="10" d="M66.151,4.033
	c-6.769,3.26-18.709-2.7-26.039,9.065c0,0-6.171,6.364-9.45,6.558c0,0,3.279,0.578,4.628,0c0,0-4.332,0.771-6.795,10.416
	c0,0-8.249,7.328-6.513,21.022c0,0,1.544-5.399,2.508-6.365c0,0-3.086,12.152-1.929,17.552l1.157-3.471c0,0,0,7.521,1.93,12.15
	l0.385-3.472c0,0,1.453,8.68,1.884,12.344l0.578-3.396l2.649,14.195l1.261,0.562c-1.087-9.446-0.272-11.254-0.097-14.757
	c0.392-7.801,3.802-12.806,9.638-28.042c13.79,4.001,27.772-6.944,27.772-6.944c-0.612,0.759-5.545,6.558-13.212,8.68
	c0,0,13.694-0.58,23.531-10.802c0,0-0.579,3.473-3.856,5.979c0,0,10.414-3.086,14.85-13.115c0,0,4.244,9.644,8.101,11.765
	c0,0-3.086-6.172-2.894-8.293c0,0,7.041,14.852,11.863,18.323l0.481-4.244c3.856,19.865,8.235,24.495,6.751,41.468l1.351-0.419
	c0,0,3.664-16.36,5.785-20.99v2.894c0,0,3.28-7.136,2.122-13.693c0,0,0.965,5.593,1.158,6.558c0,0,3.278-11.959,0-21.409
	l1.455,0.386L120.928,32l1.927,1.158c0,0-11.957-27.967-26.229-25.074l1.736-2.122c0,0-6.172-0.193-11.574,3.665
	C86.787,9.627,77.963-1.653,66.151,4.033z"/>
<linearGradient id="SVGID_3_" gradientUnits="userSpaceOnUse" x1="73.6299" y1="106.3281" x2="73.6299" y2="136.9923">
	<stop  offset="0" style="stop-color:#A57A41"/>
	<stop  offset="0.1696" style="stop-color:#A1723D"/>
	<stop  offset="1" style="stop-color:#8E4D29"/>
</linearGradient>
<path opacity="0.7" fill="url(#SVGID_3_)" d="M91.91,113.684c0,0-2.182-0.714-3.086-1.11c-1.436-0.628-2.682-0.796-4.004-1.64
	c-1.013-0.646-2.305-0.908-3.326-1.543c-0.611-0.38-2.027-0.87-2.749-0.868c-1.221,0.005-4.386,0.73-5.116,0.902
	c-0.729-0.172-3.895-0.897-5.115-0.902c-0.721-0.002-2.137,0.488-2.749,0.868c-1.021,0.635-2.312,0.897-3.326,1.543
	c-1.321,0.844-2.568,1.012-4.004,1.64c-0.903,0.396-3.085,1.11-3.085,1.11l-0.964,5.111c0,0,1.771-0.572,2.894-1.352
	c2.882-2.003,7.144-2.759,10.607-3.327c0.643-0.104,2.751-0.188,3.376,0c0.548,0.167,1.724,1.063,2.212,1.446v0.236l0.089,0.054
	v-0.113c0,0,0.025-0.021,0.065-0.054c0.041,0.033,0.066,0.054,0.066,0.054v0.113l0.09-0.054v-0.236
	c0.487-0.383,1.665-1.279,2.213-1.446c0.622-0.188,2.732-0.104,3.375,0c3.464,0.568,7.725,1.324,10.608,3.327
	c1.122,0.779,2.893,1.352,2.893,1.352L91.91,113.684z"/>
<linearGradient id="SVGID_4_" gradientUnits="userSpaceOnUse" x1="51.8291" y1="50.2373" x2="51.8291" y2="81.7632">
	<stop  offset="0" style="stop-color:#A57A41"/>
	<stop  offset="0.1696" style="stop-color:#A1723D"/>
	<stop  offset="1" style="stop-color:#8E4D29"/>
</linearGradient>
<path fill="url(#SVGID_4_)" d="M66.634,69.997c1.156,4.338-2.075,4.016-3.184,3.567c-9.858-3.981-26.672,2.121-26.672,2.121
	l3.721-3.135l-2.074-0.385c5.812-4.552,8.535-3.842,8.535-3.842c-1.073-0.547-2.314-0.306-2.314-0.306S59.048,63.123,66.634,69.997z
	"/>
<linearGradient id="SVGID_5_" gradientUnits="userSpaceOnUse" x1="-3421.189" y1="50.2363" x2="-3421.189" y2="81.7622" gradientTransform="matrix(-1 0 0 1 -3326.002 0)">
	<stop  offset="0" style="stop-color:#A57A41"/>
	<stop  offset="0.1696" style="stop-color:#A1723D"/>
	<stop  offset="1" style="stop-color:#8E4D29"/>
</linearGradient>
<path fill="url(#SVGID_5_)" d="M80.383,69.997c-1.158,4.338,2.073,4.016,3.182,3.567c9.858-3.981,26.673,2.121,26.673,2.121
	l-3.721-3.135l2.073-0.385c-5.812-4.552-8.535-3.842-8.535-3.842c1.073-0.547,2.315-0.306,2.315-0.306S87.968,63.123,80.383,69.997z
	"/>
</svg>
