<?xml version="1.0" encoding="utf-8"?>
<!-- Generator: Adobe Illustrator 16.0.0, SVG Export Plug-In . SVG Version: 6.00 Build 0)  -->
<!DOCTYPE svg PUBLIC "-//W3C//DTD SVG 1.1//EN" "http://www.w3.org/Graphics/SVG/1.1/DTD/svg11.dtd">
<svg version="1.1" id="Layer_1" xmlns="http://www.w3.org/2000/svg" xmlns:xlink="http://www.w3.org/1999/xlink" x="0px" y="0px"
	 width="150px" height="150px" viewBox="0 0 150 150" enable-background="new 0 0 150 150" xml:space="preserve">
<linearGradient id="SVGID_1_" gradientUnits="userSpaceOnUse" x1="75.1328" y1="61.0449" x2="75.1328" y2="140.7128">
	<stop  offset="0" style="stop-color:#F8D8AF"/>
	<stop  offset="1" style="stop-color:#E7C287"/>
</linearGradient>
<path fill="url(#SVGID_1_)" d="M39.595,44.424l-3.914,15.529l-1.199,28.51l4.107,19.177l4.919,6.726l12.098,20.422l13.018,8.192
	l13.768-0.593c0,0,4.525-5.89,5.137-6.745c0.611-0.854,23.727-30.003,23.727-30.003l3.418-20.605l1.113-16.398l-4.414-21.398
	L75.538,35.864l-28.118,3.79L39.595,44.424z"/>
<g>
	<path fill="#38122C" d="M57.146,107.458c0,0,0.088,0.112,0.271,0.304c0.174,0.2,0.456,0.469,0.803,0.819
		c0.354,0.343,0.794,0.75,1.321,1.186c0.532,0.432,1.138,0.906,1.828,1.384c0.662,0.515,1.473,0.936,2.283,1.438
		c0.87,0.402,1.741,0.912,2.726,1.257c0.486,0.183,0.968,0.402,1.477,0.563c0.514,0.146,1.034,0.293,1.558,0.441
		c0.518,0.176,1.058,0.272,1.604,0.357l1.632,0.284c1.103,0.078,2.208,0.192,3.298,0.2c1.09-0.076,2.171-0.045,3.207-0.164
		c1.03-0.165,2.033-0.296,2.987-0.424c0.938-0.202,1.817-0.446,2.636-0.644c0.409-0.101,0.802-0.197,1.176-0.289
		c0.37-0.104,0.711-0.235,1.037-0.341c0.651-0.222,1.219-0.414,1.687-0.572c0.945-0.307,1.485-0.481,1.485-0.481
		s-0.51,0.247-1.402,0.679c-0.451,0.211-1,0.466-1.628,0.759c-0.316,0.143-0.647,0.313-1.009,0.459
		c-0.37,0.12-0.76,0.248-1.166,0.38c-0.816,0.256-1.695,0.563-2.642,0.834c-0.963,0.197-1.982,0.411-3.044,0.603
		c-1.065,0.15-2.186,0.188-3.317,0.266c-1.134,0.003-2.29-0.099-3.441-0.172l-1.705-0.315c-0.568-0.097-1.132-0.205-1.671-0.394
		c-0.544-0.168-1.084-0.336-1.616-0.501c-0.525-0.187-1.021-0.432-1.521-0.64c-1.017-0.383-1.886-0.985-2.752-1.457
		c-0.806-0.575-1.604-1.062-2.25-1.636c-0.328-0.278-0.659-0.523-0.941-0.795c-0.278-0.275-0.542-0.536-0.79-0.781
		c-0.486-0.499-0.884-0.958-1.202-1.341C57.431,107.951,57.146,107.458,57.146,107.458z"/>
</g>
<path fill="#F8D8AF" stroke="#38122C" stroke-width="1.1005" stroke-miterlimit="10" d="M36.824,76.95
	c-2.471-2.672-7.464-2.447-7.948-0.507c-1.712,6.864,0.368,19.672,5.11,23.861c0.939,0.829,6.016,1.956,5.773-2.201
	C39.437,92.621,40.554,80.979,36.824,76.95z"/>
<path fill="#F8D8AF" stroke="#38122C" stroke-width="1.1005" stroke-miterlimit="10" d="M121.707,76.443
	c-0.482-1.94-6.104-2.631-7.947,0.507c-2.344,3.986-3.347,15.671-3.669,21.153c-0.244,4.157,5.567,3.03,6.507,2.201
	C121.34,96.115,123.42,83.308,121.707,76.443z M115.601,98.908c-0.7,0-1.267-0.565-1.267-1.265s0.566-1.267,1.267-1.267
	c0.698,0,1.266,0.567,1.266,1.267S116.299,98.908,115.601,98.908z"/>
<linearGradient id="SVGID_2_" gradientUnits="userSpaceOnUse" x1="68.9795" y1="75.9395" x2="87.4564" y2="167.9225">
	<stop  offset="0" style="stop-color:#F05B4B"/>
	<stop  offset="1" style="stop-color:#DB5B3A"/>
</linearGradient>
<path fill="url(#SVGID_2_)" stroke="#38122C" stroke-width="1.1005" stroke-miterlimit="10" d="M89.266,126.437l2.18,5.135
	c0,0,2.647-5.187,1.783-10.939c0,0,2.046,2.098,3.433,4.227v-5.209c0,0,10.374-5.144,10.74-13.852l1.101,3.302
	c0,0,1.307-2.29,0.471-7.058l1.481,0.917c0,0,0.065-0.546-0.013-7.546l2.723-0.734l0,0c-1.219,10.361-0.936,16.535,0.29,24.485
	c0,0-1.696-1.258-2.384-3.184c0,0-0.183,5.43,1.1,10.051c0,0-3.255-1.797-4.034-4.078c0,0-0.734,5.95,0,8.701
	c0,0-2.384,0.109-3.852-3.155c0,0-1.467,4.988-2.019,7.558c0,0-1.931-1.669-2.378-3.485c0,0-3.491,5.502-4.041,10.089
	c0,0-1.27-0.397-1.827-2.217c-18.615,17.003-37.248-0.001-37.248-0.001c-0.558,1.82-1.826,2.218-1.826,2.218
	c-0.551-4.587-4.043-10.089-4.043-10.089c-0.444,1.815-2.377,3.485-2.377,3.485c-0.55-2.569-2.018-7.558-2.018-7.558
	c-1.467,3.265-3.851,3.155-3.851,3.155c0.732-2.751,0-8.701,0-8.701c-0.781,2.281-4.036,4.078-4.036,4.078
	c1.284-4.621,1.101-10.051,1.101-10.051c-0.688,1.926-2.386,3.184-2.386,3.184c1.226-7.95,0.777-14.124-0.441-24.485l0,0
	l2.723,0.368c-0.193,6.556,1.454,9.013,1.454,9.013l1.483-2.018c-0.838,4.768-0.266,7.058-0.266,7.058l1.101-3.302
	c0.367,8.708,10.741,13.852,10.741,13.852v5.209c1.387-2.129,3.434-4.227,3.434-4.227c-0.866,5.753,1.783,10.939,1.783,10.939
	l2.178-5.503c0,0,2.407,13.396,13.607,10.001C75.133,136.069,85.851,140.656,89.266,126.437z"/>
<g>
	<linearGradient id="SVGID_3_" gradientUnits="userSpaceOnUse" x1="63.2168" y1="-19.9629" x2="108.0111" y2="203.0358">
		<stop  offset="0" style="stop-color:#F05B4B"/>
		<stop  offset="1" style="stop-color:#DB5B3A"/>
	</linearGradient>
	<path fill="url(#SVGID_3_)" stroke="#38122C" stroke-width="1.1005" stroke-miterlimit="10" d="M119.375,47.933
		c4.271,1.285,6.735,4.771,6.735,4.771c-2.752-13.023-12.817-15.957-12.817-15.957c5.298-2.386,11.717,1.496,11.717,1.496
		c-4.769-10.668-15.385-9.751-15.385-9.751c2.406-4.585,12.45-7.702,12.45-7.702c-11.372-5.319-23.294,0.917-23.294,0.917
		c3.853-5.687,14.512-10.822,14.512-10.822c-16.852-3.669-34.864,8.68-34.864,8.68C79.903,11.001,92.428,3.73,92.428,3.73
		C66.448,7.868,46.141,25.638,46.141,25.638s1.101-5.473,4.586-8.188c0,0-8.307,2.237-11.122,10.308c0,0-1.534-2.812-1.166-6.419
		c0,0-2.323,3.423-1.138,7.886l-4.549,0.918l3.484,0.777c0,0-7.337,2.157-11.555,6.009c0,0,6.053-2.751,8.438-1.834
		c0,0-6.971,6.97-6.054,17.241c0,0,2.832-4.586,4.351-4.403c-1.94,11.909,3.365,26.774,5.16,41.122l2.277,1.467
		c-0.384-9.449-1.056-24.396,3.436-41.304c0,0,29.897-20.359,66.213,0c4.49,16.907,3.821,31.854,3.437,41.304l1.911-1.467
		C113.85,89.055,120.141,59.802,119.375,47.933z"/>
</g>
<linearGradient id="SVGID_4_" gradientUnits="userSpaceOnUse" x1="81.7236" y1="72.7363" x2="107.3945" y2="72.7363">
	<stop  offset="0" style="stop-color:#F05B4B"/>
	<stop  offset="1" style="stop-color:#DB5B3A"/>
</linearGradient>
<path fill="url(#SVGID_4_)" d="M81.724,75.91c0,0,6.053-7.337,25.671-6.236c0,0-1.799,2.531-3.389,5.136
	C104.006,74.81,97.07,71.814,81.724,75.91z"/>
<linearGradient id="SVGID_5_" gradientUnits="userSpaceOnUse" x1="43.5693" y1="72.9395" x2="68.874" y2="72.9395">
	<stop  offset="0" style="stop-color:#F05B4B"/>
	<stop  offset="1" style="stop-color:#DB5B3A"/>
</linearGradient>
<path fill="url(#SVGID_5_)" d="M68.874,76.113c0,0-5.686-7.337-25.305-6.236c0,0,1.802,2.531,3.39,5.136
	C46.959,75.013,53.527,72.017,68.874,76.113z"/>
<g>
	<polygon fill="#37152C" points="44.692,77.948 37.634,77.948 37.634,73.21 47.26,73.21 	"/>
	<polygon fill="#37152C" points="34.643,76.995 37.932,77.948 37.932,73.21 33.374,73.485 	"/>
	<linearGradient id="SVGID_6_" gradientUnits="userSpaceOnUse" x1="38.167" y1="74.7129" x2="41.209" y2="74.7129">
		<stop  offset="0" style="stop-color:#DE926B"/>
		<stop  offset="0" style="stop-color:#DCA956"/>
		<stop  offset="0" style="stop-color:#D9C63C"/>
		<stop  offset="0" style="stop-color:#D7D82C"/>
		<stop  offset="0" style="stop-color:#D6DE26"/>
	</linearGradient>
	<rect x="38.167" y="74.187" fill="url(#SVGID_6_)" width="3.042" height="1.054"/>
</g>
<g>
	<polygon fill="#37152C" points="106.495,77.948 113.556,77.948 113.556,73.21 103.194,73.21 	"/>
	<polygon fill="#37152C" points="116.18,77.362 113.258,77.948 113.258,73.21 117.081,73.851 	"/>
	
		<linearGradient id="SVGID_7_" gradientUnits="userSpaceOnUse" x1="-2325.1084" y1="74.7129" x2="-2322.0645" y2="74.7129" gradientTransform="matrix(-1 0 0 1 -2212.0859 0)">
		<stop  offset="0" style="stop-color:#DE926B"/>
		<stop  offset="0" style="stop-color:#DCA956"/>
		<stop  offset="0" style="stop-color:#D9C63C"/>
		<stop  offset="0" style="stop-color:#D7D82C"/>
		<stop  offset="0" style="stop-color:#D6DE26"/>
	</linearGradient>
	<rect x="109.979" y="74.187" fill="url(#SVGID_7_)" width="3.044" height="1.054"/>
</g>
<line fill="none" stroke="#37152C" stroke-width="0.9274" stroke-miterlimit="10" x1="63.472" y1="74.859" x2="87.498" y2="74.859"/>
<path fill="none" stroke="#37152C" stroke-width="0.9274" stroke-miterlimit="10" d="M70.441,81.615L70.441,81.615
	c0-1.771,1.437-3.209,3.209-3.209h3.394c1.771,0,3.209,1.438,3.209,3.209l0,0"/>
<linearGradient id="SVGID_8_" gradientUnits="userSpaceOnUse" x1="76.1328" y1="130.2529" x2="34.6299" y2="34.7965">
	<stop  offset="0.06" style="stop-color:#008EA8"/>
	<stop  offset="0.0744" style="stop-color:#0590A5"/>
	<stop  offset="0.2654" style="stop-color:#44A77F"/>
	<stop  offset="0.4481" style="stop-color:#78BB5F"/>
	<stop  offset="0.6177" style="stop-color:#A1CA46"/>
	<stop  offset="0.7714" style="stop-color:#BED535"/>
	<stop  offset="0.9039" style="stop-color:#D0DC2A"/>
	<stop  offset="1" style="stop-color:#D6DE26"/>
</linearGradient>
<path fill="url(#SVGID_8_)" stroke="#36162C" stroke-width="1.0431" stroke-miterlimit="10" d="M48.416,73.296
	c0,0,9.039-3.207,20.411,1.458c0,0,6.608,3.5,1.942,11.371c0,0-4.146,9.299-12.895,12.701c0,0-10.334,4.468-16.555-6.317
	C41.32,92.509,34.615,76.796,48.416,73.296z"/>
<linearGradient id="SVGID_9_" gradientUnits="userSpaceOnUse" x1="-2399.584" y1="129.4355" x2="-2353.3569" y2="37.828" gradientTransform="matrix(-1 0 0 1 -2281.0195 0)">
	<stop  offset="0.0455" style="stop-color:#008EA8"/>
	<stop  offset="0.0602" style="stop-color:#0590A5"/>
	<stop  offset="0.2541" style="stop-color:#44A77F"/>
	<stop  offset="0.4396" style="stop-color:#78BB5F"/>
	<stop  offset="0.6119" style="stop-color:#A1CA46"/>
	<stop  offset="0.7679" style="stop-color:#BED535"/>
	<stop  offset="0.9024" style="stop-color:#D0DC2A"/>
	<stop  offset="1" style="stop-color:#D6DE26"/>
</linearGradient>
<path fill="url(#SVGID_9_)" stroke="#36162C" stroke-width="1.0431" stroke-miterlimit="10" d="M102.28,73.268
	c0,0-9.038-3.207-20.41,1.458c0,0-6.609,3.499-1.943,11.371c0,0,4.147,9.3,12.896,12.701c0,0,10.333,4.472,16.553-6.317
	C109.375,92.48,116.081,76.768,102.28,73.268z"/>
<path fill="#38122C" d="M61.551,112.101c0,0-4.771-5.238-7.787-1.893c0,0,0.539-6.052,7.326-6.144c0,0-5.455,2.201,0.436,7.106
	L61.551,112.101z"/>
<g opacity="0.9">
	<path fill="#38122C" d="M70.031,121.259c0,0-0.01-0.005-0.03-0.013c0-0.015-0.044,0.012-0.019-0.05
		c0.025-0.002,0.041,0.002,0.063,0.004c0.085,0.013,0.207,0.029,0.358,0.062c0.298,0.063,0.725,0.153,1.236,0.261
		c1.013,0.214,2.34,0.496,3.661,0.622c1.321,0.149,2.635,0.099,3.62-0.098c0.491-0.1,0.904-0.214,1.194-0.31
		c0.293-0.101,0.46-0.157,0.46-0.157s-0.115,0.138-0.352,0.347c-0.236,0.208-0.604,0.48-1.101,0.719
		c-0.492,0.242-1.113,0.443-1.794,0.546c-0.681,0.112-1.417,0.111-2.139,0.048c-1.449-0.148-2.813-0.638-3.762-1.124
		c-0.477-0.238-0.853-0.479-1.109-0.652c-0.127-0.089-0.227-0.159-0.295-0.207c-0.015-0.01-0.027-0.019-0.039-0.025
		c0.018-0.039,0.014,0.005,0.023,0.003C70.024,121.25,70.031,121.259,70.031,121.259z"/>
</g>
<path d="M119.264,98.192"/>
<path fill="#38122C" d="M118.997,96.66c-0.183,0,0.206,0.157,0.027,0.179c0.041,0.151-0.5,0.168-0.5,0.335
	c0,0.042,0.193,0.221,0.191,0.261c0.052,0.004-0.099-0.13-0.047-0.114c1.343,0.009,2.062,1.368,2.062,3.045
	c0,1.684-1.094,3.048-2.442,3.048s-2.443-1.364-2.443-3.048c0-0.74,0.217-1.416,0.57-1.943c-0.23-0.181-0.404-0.464-0.488-0.8
	c-0.027,0.021-0.056,0.041-0.082,0.063c-0.922,0.788-1.507,1.958-1.507,3.267c0,2.37,1.92,4.292,4.291,4.292
	s4.291-1.922,4.291-4.292C122.921,98.581,121.367,96.66,118.997,96.66z"/>
<linearGradient id="SVGID_10_" gradientUnits="userSpaceOnUse" x1="71.5605" y1="128.3438" x2="78.9727" y2="128.3438">
	<stop  offset="0" style="stop-color:#F05B4B"/>
	<stop  offset="1" style="stop-color:#F16341"/>
</linearGradient>
<path fill="url(#SVGID_10_)" stroke="#38122C" stroke-width="1.1005" stroke-miterlimit="10" d="M76.527,127.449
	c0,0,1.161,1.056,1.468,1.467c0,0,0.519-1.467,0.978-4.4c0,0-3.302,1.513-7.337-0.367c0,0-0.321,2.567,0.368,4.892
	c0,0,0.459-1.212,1.222-1.835c0,0,0.794,3.545,2.032,5.333C75.258,132.538,76.391,130.033,76.527,127.449z"/>
<linearGradient id="SVGID_11_" gradientUnits="userSpaceOnUse" x1="65.9033" y1="97.7383" x2="40.2051" y2="63.3812">
	<stop  offset="0" style="stop-color:#008EA8"/>
	<stop  offset="0.0153" style="stop-color:#0590A5"/>
	<stop  offset="0.2185" style="stop-color:#44A77F"/>
	<stop  offset="0.4129" style="stop-color:#78BB5F"/>
	<stop  offset="0.5933" style="stop-color:#A1CA46"/>
	<stop  offset="0.7568" style="stop-color:#BED535"/>
	<stop  offset="0.8978" style="stop-color:#D0DC2A"/>
	<stop  offset="1" style="stop-color:#D6DE26"/>
</linearGradient>
<path fill="url(#SVGID_11_)" stroke="#36162C" stroke-width="1.0445" stroke-miterlimit="10" d="M48.491,73.404
	c0,0,9.052-3.212,20.437,1.459c0,0,6.616,3.503,1.945,11.387c0,0-4.152,9.311-12.911,12.717c0,0-10.347,4.476-16.575-6.326
	C41.387,92.641,34.672,76.906,48.491,73.404z"/>
<linearGradient id="SVGID_12_" gradientUnits="userSpaceOnUse" x1="106.0312" y1="100.7666" x2="81.0148" y2="60.3554">
	<stop  offset="0" style="stop-color:#008EA8"/>
	<stop  offset="0.0153" style="stop-color:#0590A5"/>
	<stop  offset="0.2185" style="stop-color:#44A77F"/>
	<stop  offset="0.4129" style="stop-color:#78BB5F"/>
	<stop  offset="0.5933" style="stop-color:#A1CA46"/>
	<stop  offset="0.7568" style="stop-color:#BED535"/>
	<stop  offset="0.8978" style="stop-color:#D0DC2A"/>
	<stop  offset="1" style="stop-color:#D6DE26"/>
</linearGradient>
<path fill="url(#SVGID_12_)" stroke="#36162C" stroke-width="1.0445" stroke-miterlimit="10" d="M102.242,73.377
	c0,0-9.05-3.212-20.438,1.459c0,0-6.617,3.503-1.944,11.387c0,0,4.152,9.31,12.91,12.716c0,0,10.347,4.477,16.576-6.325
	C109.347,92.613,116.061,76.879,102.242,73.377z"/>
</svg>
