<?xml version="1.0" encoding="utf-8"?>
<!-- Generator: Adobe Illustrator 16.0.0, SVG Export Plug-In . SVG Version: 6.00 Build 0)  -->
<!DOCTYPE svg PUBLIC "-//W3C//DTD SVG 1.1//EN" "http://www.w3.org/Graphics/SVG/1.1/DTD/svg11.dtd">
<svg version="1.1" id="Layer_1" xmlns="http://www.w3.org/2000/svg" xmlns:xlink="http://www.w3.org/1999/xlink" x="0px" y="0px"
	 width="150px" height="150px" viewBox="0 0 150 150" enable-background="new 0 0 150 150" xml:space="preserve">
<path fill="#F6D6AE" stroke="#37152C" stroke-width="1.0462" stroke-miterlimit="10" d="M118.007,71.261
	c2.603-2.28,7.301-1.571,7.565,0.311c0.937,6.66-2.302,18.562-7.202,22.051c-0.972,0.691-6.577,1.18-5.933-2.728
	C113.287,85.744,114.081,74.7,118.007,71.261z"/>
<path fill="#F6D6AE" stroke="#37152C" stroke-width="1.0462" stroke-miterlimit="10" d="M34.702,71.283
	c-2.562-2.324-7.271-1.699-7.569,0.178c-1.052,6.645,1.978,18.6,6.816,22.175c0.958,0.708,6.556,1.293,5.98-2.624
	C39.169,85.848,38.567,74.791,34.702,71.283z"/>
<linearGradient id="SVGID_1_" gradientUnits="userSpaceOnUse" x1="76.3672" y1="64.3037" x2="76.3672" y2="149.34">
	<stop  offset="0" style="stop-color:#F6D6AE"/>
	<stop  offset="1" style="stop-color:#E6C186"/>
</linearGradient>
<path fill="url(#SVGID_1_)" stroke="#37152C" stroke-width="1.0462" stroke-miterlimit="10" d="M98.768,25.225l-22.401,4.479
	l-22.4-4.479L33.849,37.448v23.173v17.672c0,0,5.546,20.576,8.149,27.885c3.459,9.714,6.365,16.375,28.521,31.857h5.329h1.037h5.33
	c22.154-15.482,25.062-22.969,28.521-32.683c2.602-7.309,8.147-27.06,8.147-27.06V60.621V37.448L98.768,25.225z"/>
<linearGradient id="SVGID_2_" gradientUnits="userSpaceOnUse" x1="89.6807" y1="4.3691" x2="103.327" y2="140.2262">
	<stop  offset="0" style="stop-color:#5394B3"/>
	<stop  offset="0.2607" style="stop-color:#5591B1"/>
	<stop  offset="0.4799" style="stop-color:#5C86AB"/>
	<stop  offset="0.6841" style="stop-color:#6875A1"/>
	<stop  offset="0.8781" style="stop-color:#785C92"/>
	<stop  offset="1" style="stop-color:#854987"/>
</linearGradient>
<path fill="url(#SVGID_2_)" d="M84.45,75.013c0,0,5.404-6.974,24.056-5.928c0,0-1.362,2.405-2.874,4.883
	C105.632,73.968,99.039,71.119,84.45,75.013z"/>
<linearGradient id="SVGID_3_" gradientUnits="userSpaceOnUse" x1="-3258.1011" y1="8.207" x2="-3244.4521" y2="144.089" gradientTransform="matrix(-1 0 0 1 -3194.2783 0)">
	<stop  offset="0" style="stop-color:#5394B3"/>
	<stop  offset="0.2607" style="stop-color:#5591B1"/>
	<stop  offset="0.4799" style="stop-color:#5C86AB"/>
	<stop  offset="0.6841" style="stop-color:#6875A1"/>
	<stop  offset="0.8781" style="stop-color:#785C92"/>
	<stop  offset="1" style="stop-color:#854987"/>
</linearGradient>
<path fill="url(#SVGID_3_)" d="M69.438,75.013c0,0-5.405-6.974-24.055-5.928c0,0,1.362,2.405,2.873,4.883
	C48.256,73.968,54.85,71.119,69.438,75.013z"/>
<linearGradient id="SVGID_4_" gradientUnits="userSpaceOnUse" x1="53.6201" y1="83.1562" x2="88.1874" y2="156.5363">
	<stop  offset="0" style="stop-color:#5394B3"/>
	<stop  offset="0.2791" style="stop-color:#5191B1"/>
	<stop  offset="0.5139" style="stop-color:#4986AC"/>
	<stop  offset="0.7326" style="stop-color:#3C75A3"/>
	<stop  offset="0.9404" style="stop-color:#2A5C96"/>
	<stop  offset="1" style="stop-color:#245492"/>
</linearGradient>
<path fill="url(#SVGID_4_)" stroke="#37152C" stroke-width="1.0462" stroke-miterlimit="10" d="M75.899,109.584v-3.399
	c0,0-9.679-0.044-13.907,3.227c0,0-2.877,2.615-3.575,4.707c0,0,1.154-0.567,1.569-0.697c0,0-1.481,3.226-0.871,5.667
	c0,0,1.221-4.186,3.662-4.883c0,0-0.176,0.96-0.088,1.396c0,0,3.182-3.142,5.637-3.492C68.326,112.108,73.415,111.59,75.899,109.584
	z"/>
<linearGradient id="SVGID_5_" gradientUnits="userSpaceOnUse" x1="68.7148" y1="73.9404" x2="103.2824" y2="147.3212">
	<stop  offset="0" style="stop-color:#5394B3"/>
	<stop  offset="0.2791" style="stop-color:#5191B1"/>
	<stop  offset="0.5139" style="stop-color:#4986AC"/>
	<stop  offset="0.7326" style="stop-color:#3C75A3"/>
	<stop  offset="0.9404" style="stop-color:#2A5C96"/>
	<stop  offset="1" style="stop-color:#245492"/>
</linearGradient>
<path fill="url(#SVGID_5_)" stroke="#37152C" stroke-width="1.0462" stroke-miterlimit="10" d="M77.815,109.584v-3.399
	c0,0,9.679-0.044,13.906,3.227c0,0,2.877,2.615,3.574,4.707c0,0-1.152-0.567-1.569-0.697c0,0,1.482,3.226,0.872,5.667
	c0,0-1.221-4.186-3.661-4.883c0,0,0.175,0.96,0.087,1.396c0,0-3.182-3.142-5.635-3.492C85.39,112.108,80.299,111.59,77.815,109.584z
	"/>
<linearGradient id="SVGID_6_" gradientUnits="userSpaceOnUse" x1="74.4658" y1="124.8164" x2="80.2686" y2="124.8164">
	<stop  offset="0" style="stop-color:#5394B3"/>
	<stop  offset="0.2791" style="stop-color:#5191B1"/>
	<stop  offset="0.5139" style="stop-color:#4986AC"/>
	<stop  offset="0.7326" style="stop-color:#3C75A3"/>
	<stop  offset="0.9404" style="stop-color:#2A5C96"/>
	<stop  offset="1" style="stop-color:#245492"/>
</linearGradient>
<path fill="url(#SVGID_6_)" stroke="#37152C" stroke-width="1.0462" stroke-miterlimit="10" d="M74.466,121.064
	c0,0,3.335,1.539,5.803,0c0,0-0.194,3.121-1.019,4.565l-0.516-0.992l-1.188,3.932l-1.288-4.086l-0.517,1.249
	C75.742,125.732,74.568,123.438,74.466,121.064z"/>
<linearGradient id="SVGID_7_" gradientUnits="userSpaceOnUse" x1="68.7451" y1="79.7188" x2="84.1722" y2="177.3387">
	<stop  offset="0" style="stop-color:#5394B3"/>
	<stop  offset="0.2721" style="stop-color:#5091B1"/>
	<stop  offset="0.5098" style="stop-color:#4986AC"/>
	<stop  offset="0.7348" style="stop-color:#3B74A2"/>
	<stop  offset="0.9507" style="stop-color:#295B96"/>
	<stop  offset="1" style="stop-color:#245492"/>
</linearGradient>
<path fill="url(#SVGID_7_)" stroke="#37152C" stroke-width="1.0462" stroke-miterlimit="10" d="M94.908,128.252
	c-0.397,3.128-7.896,10.276-8.415,14.421c-1.211-2.203-1.47-2.326-1.809-6.032l-4.999,10.292l-1.527-3.405l-1.272,4.584
	c-6.366-10.695-8.405-11.122-8.405-11.122c0.51,4.839-1.018,4.595-1.018,4.595c-1.273-6.621-6.733-6.261-9.527-13.251
	c0,0,7.806,4.529,19.34,2.677C77.275,131.01,86.556,133.442,94.908,128.252z"/>
<g>
	<defs>
		<path id="XMLID_27_" d="M82.991,72.775L82.991,72.775c0.001,0-0.002,0-0.003,0.001c-0.01,0.002-0.021,0.006-0.029,0.009
			l0.002-0.01c-0.01,0.007-0.021,0.011-0.03,0.019c-0.481,0.142-0.966,0.288-1.449,0.444c0,0-2.011,0.689-4.529,0.94
			c-2.993-0.089-5.589-0.94-5.589-0.94c-0.504-0.162-1.006-0.316-1.508-0.462c-0.001-0.001-0.003-0.001-0.003-0.001h0.001
			c-16.817-4.912-32.804-1.217-32.804-1.217v4.719c2.82,0.854,4.074,3.521,4.239,5c1.479,13.252,13.197,13.678,13.197,13.678
			s16.658,2.653,18.823-14.672c0.152-0.08,0.187-0.272,0.344-0.337c1.929-0.793,4.197-0.359,5.652,0.089
			c0.073,0.083,0.123,0.191,0.229,0.248C81.7,97.608,98.357,94.955,98.357,94.955s11.719-0.426,13.199-13.678
			c0.164-1.479,1.417-4.146,4.238-5v-4.719C115.795,71.559,99.809,67.863,82.991,72.775z"/>
	</defs>
	<use xlink:href="#XMLID_27_"  overflow="visible" fill="#0F0F10"/>
	<clipPath id="XMLID_30_">
		<use xlink:href="#XMLID_27_"  overflow="visible"/>
	</clipPath>
	<linearGradient id="SVGID_8_" gradientUnits="userSpaceOnUse" x1="115.0566" y1="73.1426" x2="115.0566" y2="74.5381">
		<stop  offset="0" style="stop-color:#DEE350"/>
		<stop  offset="1" style="stop-color:#E1EAA2"/>
	</linearGradient>
	<rect x="112.385" y="73.143" clip-path="url(#XMLID_30_)" fill="url(#SVGID_8_)" width="5.345" height="1.396"/>
	<linearGradient id="SVGID_9_" gradientUnits="userSpaceOnUse" x1="37.2988" y1="73.1426" x2="37.2988" y2="74.5381">
		<stop  offset="0" style="stop-color:#DEE350"/>
		<stop  offset="1" style="stop-color:#E1EAA2"/>
	</linearGradient>
	<rect x="34.627" y="73.143" clip-path="url(#XMLID_30_)" fill="url(#SVGID_9_)" width="5.344" height="1.396"/>
</g>
<linearGradient id="SVGID_10_" gradientUnits="userSpaceOnUse" x1="90.8584" y1="71.2129" x2="102.5041" y2="92.3364">
	<stop  offset="0" style="stop-color:#0D96D3"/>
	<stop  offset="1" style="stop-color:#7EC142"/>
</linearGradient>
<path fill="url(#SVGID_10_)" d="M81.722,80.278c0,0-0.503-4.185,3.638-5.999c0,0,12.737-3.625,20.837-1.561
	c0,0,3.76,0.814,3.76,6.319c0,0-0.183,13.491-11.958,14.437C97.998,93.475,82.939,95.969,81.722,80.278z"/>
<linearGradient id="SVGID_11_" gradientUnits="userSpaceOnUse" x1="51.165" y1="70.1045" x2="63.4921" y2="92.4638">
	<stop  offset="0" style="stop-color:#0D96D3"/>
	<stop  offset="1" style="stop-color:#7EC142"/>
</linearGradient>
<path fill="url(#SVGID_11_)" d="M71.123,80.278c0,0,0.502-4.185-3.64-5.999c0,0-12.735-3.625-20.836-1.561
	c0,0-3.76,0.814-3.759,6.319c0,0,0.182,13.491,11.957,14.437C54.846,93.475,69.906,95.969,71.123,80.278z"/>
<linearGradient id="SVGID_12_" gradientUnits="userSpaceOnUse" x1="74.3711" y1="-9.8389" x2="74.3711" y2="89.4609">
	<stop  offset="0" style="stop-color:#63A8BC"/>
	<stop  offset="0.1875" style="stop-color:#5EA2B9"/>
	<stop  offset="0.4433" style="stop-color:#5190B0"/>
	<stop  offset="0.7372" style="stop-color:#3C74A2"/>
	<stop  offset="1" style="stop-color:#245492"/>
</linearGradient>
<path fill="url(#SVGID_12_)" stroke="#37152C" stroke-width="1.0462" stroke-miterlimit="10" d="M42.252,57.565
	c0,0-8.866,8.249-4.164,32.264l-2.226-4.534l-0.619,5.188c-1.847-4.61-5.035-11.018-4.771-22.732c0,0-1.299,1.674-1.299,4.562
	c0,0-5.712-13.614-1.725-25.715c0,0-1.397,4.812-2.327,7.563c0,0-2.484-11.552,4.94-21.59c0,0-3.609,0.688-5.088,3.024
	c0,0,2.2-9.489,11-12.513c0,0-2.474-3.438-6.462-3.025c0,0,5.362-1.926,9.489,1.374c0,0-1.513-2.888-0.688-4.399
	c0,0,1.374,2.613,3.162,3.438c0,0,0.275-5.913,2.889-7.151c0,0-2.062,4.677,0,5.914c0,0,2.476-10.177,10.039-11.689
	c0,0-3.851,2.614-3.851,5.914c0,0,7.287-11.012,15.538-10.388c0,0-5.913,2.412-5.638,7.225c0,0,6.875-10.038,21.177-7.976
	c0,0-7.15,1.65-6.462,4.812c0,0,15.537-7.15,28.465,3.575c0,0-6.464-2.062-8.526-1.375c0,0,17.602,3.733,22.14,15.894
	c0,0-2.613-2.417-5.363-3.517c0,0,9.351,7.149,10.726,15.95c0,0-3.85-5.224-6.051-5.638c0,0,6.188,5.8,6.051,14.589
	c0,0-1.119-2.488-3.723-4c0,0,5.649,8.25,5.098,17.326c0,0-0.825-3.024-2.199-3.85c0,0,0.536,6.826-0.403,14.139
	c-0.506,3.935-0.789,12.873-2.844,18.511c0,0-0.238-5.161,0.055-6.958c0,0-1.417,5.013-2.481,8.642c0,0,1.272-27.458-6.566-34.884
	c0,0,2.339-16.363-12.513-20.627c0,0-7.976,7.426-3.851,16.09c0,0-10.726-4.813-12.1-10.313c0,0-4.676,8.25,2.475,15.812
	c0,0-11.963-3.024-22.689-18.151c0,0-2.201,8.938,3.299,15.539c0,0-14.163-4.675-16.5-17.326
	C47.664,36.559,38.903,46.806,42.252,57.565z"/>
<g>
	<path fill="#36162C" d="M108.565,65.21c-1.793,0-3.245,1.453-3.245,3.245c0,0.067,0.007,0.135,0.011,0.201
		c0.056-0.014,0.113-0.022,0.173-0.023c-0.003-0.06-0.009-0.118-0.009-0.178c0-1.504,1.219-2.722,2.722-2.722
		c1.504,0,2.722,1.218,2.722,2.722c0,1.503-1.218,2.721-2.722,2.721c-0.893,0-1.683-0.432-2.18-1.097
		c-0.062,0.05-0.128,0.093-0.202,0.123c0.577,0.9,1.583,1.498,2.73,1.498c1.792,0,3.245-1.453,3.245-3.245
		S110.357,65.21,108.565,65.21z"/>
</g>
</svg>
