<?xml version="1.0" encoding="utf-8"?>
<!-- Generator: Adobe Illustrator 16.0.0, SVG Export Plug-In . SVG Version: 6.00 Build 0)  -->
<!DOCTYPE svg PUBLIC "-//W3C//DTD SVG 1.1//EN" "http://www.w3.org/Graphics/SVG/1.1/DTD/svg11.dtd">
<svg version="1.1" id="Layer_1" xmlns="http://www.w3.org/2000/svg" xmlns:xlink="http://www.w3.org/1999/xlink" x="0px" y="0px"
	 width="150px" height="150px" viewBox="0 0 150 150" enable-background="new 0 0 150 150" xml:space="preserve">
<path fill="#F6D6AE" stroke="#37152C" stroke-width="1.1197" stroke-miterlimit="10" d="M114.941,75.695
	c2.742-2.487,7.781-1.817,8.1,0.192c1.127,7.108-2.49,21.398-7.669,25.224c-1.024,0.758-7.015,1.385-6.399-2.808
	C109.787,92.776,110.802,79.45,114.941,75.695z"/>
<path fill="#F6D6AE" stroke="#37152C" stroke-width="1.1197" stroke-miterlimit="10" d="M37.248,75.695
	c-2.743-2.487-7.783-1.817-8.101,0.192c-1.127,7.108,2.489,21.398,7.667,25.224c1.026,0.758,7.018,1.385,6.4-2.808
	C42.401,92.776,41.386,79.45,37.248,75.695z"/>
<linearGradient id="SVGID_1_" gradientUnits="userSpaceOnUse" x1="76.1465" y1="14.3877" x2="76.1465" y2="154.5609">
	<stop  offset="0" style="stop-color:#F8D8AF"/>
	<stop  offset="0.8292" style="stop-color:#E7C287"/>
</linearGradient>
<polygon fill="url(#SVGID_1_)" stroke="#38122C" stroke-width="0.8881" stroke-miterlimit="10" points="112.271,34.143 
	104.393,22.483 93.681,19.018 77.205,19.018 75.089,19.018 58.613,19.018 47.902,22.483 40.023,34.143 33.78,58.403 35.671,83.258 
	40.141,110.395 51.683,136.232 62.711,143.048 74.736,145.884 75.089,145.884 77.205,145.884 77.559,145.884 89.584,143.048 
	100.611,136.232 111.408,110.395 116.623,83.258 118.514,58.403 "/>
<linearGradient id="SVGID_2_" gradientUnits="userSpaceOnUse" x1="75.7959" y1="-13.1289" x2="75.7959" y2="281.3157">
	<stop  offset="0" style="stop-color:#A47649"/>
	<stop  offset="0.2774" style="stop-color:#A17247"/>
	<stop  offset="0.5749" style="stop-color:#986542"/>
	<stop  offset="0.8807" style="stop-color:#894F3A"/>
	<stop  offset="1" style="stop-color:#824536"/>
</linearGradient>
<path fill="url(#SVGID_2_)" stroke="#38122C" stroke-width="1.1197" stroke-miterlimit="10" d="M116.055,89.144l0.534-2.233
	c0,0,6.926-17.896,6.036-45.667c0,0,0.084-24.286-22.075-34.199C76.279-3.814,52.686,6.239,52.686,6.239s3.358-0.574,5.316,0.373
	c0,0-7.174-0.534-16.29,8.607c-2.64,2.646-4.693,5.761-7.531,10.357c0,0-8.742,12.283-3.757,40.412c0,0,2.315,9.796,5.104,23.155
	c2.139,34.679,17.116,48.207,16.063,47.292c0,0,22.943,25.014,48.709,0.302C107.975,129.379,112.577,113.828,116.055,89.144z
	 M92.335,124.204c-6.053,5.875-13.708,6.766-13.708,6.766c-0.436,0.086-1.271,0.152-1.975,0.2c-0.64,0.073-1.009,0-1.009,0
	c-0.706-0.048-1.54-0.114-1.976-0.2c0,0-7.654-0.891-13.709-6.766c0,0-0.877-3.383,0-7.656c0,0,1.551-2.16,3.918-1.957
	c2.395,0.204,5.898-0.328,9.613-0.075c0,0,1.389,0.226,2.463,0.392h0.389c1.074-0.166,2.463-0.392,2.463-0.392
	c3.714-0.253,7.219,0.279,9.613,0.075c2.367-0.203,3.917,1.957,3.917,1.957C93.231,119.706,92.335,124.204,92.335,124.204z
	 M114.351,88.456c-0.349,5.127-4.671,32.983-19.362,34.679c0,0,0.007-2.219,0.373-8.705c0.092-1.605-0.242-4.971-4.807-4.646
	c-2.336,0.166-6.963-0.653-9.258-1.425c-1.25-0.42-3.83,1.156-5.15,1.156c-1.318,0-3.898-1.576-5.148-1.156
	c-2.295,0.771-6.922,1.591-9.258,1.425c-4.565-0.325-4.898,3.04-4.807,4.646c0.365,6.486,0.373,8.705,0.373,8.705
	c-17.514-2.021-20.505-34.957-20.5-34.843l-0.123-0.593c-0.522-7.294-1.085-20.273,1.041-25.272c0,0,3.471-7.88,3.898-19.582
	c0,0,1.424-8.012,4.272-8.723c0,0,16.758,0.533,24.034,6.053c0,0-2.849-4.239-7.478-6.02c0,0,8.725,1.391,13.531,5.663
	c0,0-1.782-3.562-3.739-6.053c0,0,8.544,1.603,18.692,8.723c0,0-2.492-3.916-4.985-6.409c0,0,5.342,1.603,11.929,8.725
	c0,0-2.849-6.053-4.985-9.08c0,0,5.163,3.383,10.147,8.545c0,0-2.085-5.467-3.864-6.892c0,0,4.152,1.713,8.604,8.3
	c0,0,0.939-4.379,0.263-6.766c0,0,1.61,6.306,3.383,18.32c0.272,1.833,2.83,5.252,3.366,7.154
	C116.422,70.179,115.002,77.952,114.351,88.456z"/>
<linearGradient id="SVGID_3_" gradientUnits="userSpaceOnUse" x1="76.248" y1="106.7637" x2="76.248" y2="178.4012">
	<stop  offset="0" style="stop-color:#A47649"/>
	<stop  offset="1" style="stop-color:#824536"/>
</linearGradient>
<path fill="url(#SVGID_3_)" d="M82.645,122.764c0,0-2.598,0.818-6.396,0.829c-3.799-0.011-6.398-0.829-6.398-0.829
	c0.524,5.237,4.934,5.896,6.221,5.977v0.011c0,0,0.064,0.002,0.178-0.003c0.111,0.005,0.176,0.003,0.176,0.003v-0.011
	C77.712,128.659,82.121,128.001,82.645,122.764z"/>
<linearGradient id="SVGID_4_" gradientUnits="userSpaceOnUse" x1="95.7852" y1="32.4482" x2="95.7851" y2="133.8378">
	<stop  offset="0" style="stop-color:#A47649"/>
	<stop  offset="1" style="stop-color:#824536"/>
</linearGradient>
<path fill="url(#SVGID_4_)" d="M83.849,75.246c0,0,12.429-2.314,13.854-2.137c0,0,7.884,0.178,10.021,4.272v-4.984
	c0,0-2.511-4.45-12.496-2.849l-10.665,1.959L83.849,75.246z"/>
<linearGradient id="SVGID_5_" gradientUnits="userSpaceOnUse" x1="56.2129" y1="34.7197" x2="56.2129" y2="136.1092">
	<stop  offset="0" style="stop-color:#A47649"/>
	<stop  offset="1" style="stop-color:#824536"/>
</linearGradient>
<path fill="url(#SVGID_5_)" d="M68.149,75.246c0,0-12.43-2.314-13.854-2.137c0,0-7.885,0.178-10.021,4.272v-4.984
	c0,0,2.511-4.45,12.496-2.849l10.666,1.959L68.149,75.246z"/>
</svg>
