<?xml version="1.0" encoding="utf-8"?>
<!-- Generator: Adobe Illustrator 16.0.0, SVG Export Plug-In . SVG Version: 6.00 Build 0)  -->
<!DOCTYPE svg PUBLIC "-//W3C//DTD SVG 1.1//EN" "http://www.w3.org/Graphics/SVG/1.1/DTD/svg11.dtd">
<svg version="1.1" id="Layer_1" xmlns="http://www.w3.org/2000/svg" xmlns:xlink="http://www.w3.org/1999/xlink" x="0px" y="0px"
	 width="150px" height="150px" viewBox="0 0 150 150" enable-background="new 0 0 150 150" xml:space="preserve">
<path fill="#F6D6AE" stroke="#37152C" stroke-width="1.0927" stroke-miterlimit="10" d="M34.914,78.232
	c-2.676-2.429-7.595-1.775-7.906,0.187c-1.099,6.938,2.065,21.249,7.12,24.982c1.001,0.739,6.848,1.351,6.247-2.74
	C39.581,95.266,38.952,81.896,34.914,78.232z"/>
<path fill="#F6D6AE" stroke="#37152C" stroke-width="1.0927" stroke-miterlimit="10" d="M114.938,78.232
	c2.676-2.429,7.596-1.775,7.905,0.187c1.1,6.938-2.064,21.249-7.119,24.982c-1.001,0.739-6.848,1.351-6.246-2.74
	C110.271,95.266,110.898,81.896,114.938,78.232z"/>
<linearGradient id="SVGID_1_" gradientUnits="userSpaceOnUse" x1="75.25" y1="17.2666" x2="75.25" y2="168.7426">
	<stop  offset="0" style="stop-color:#F6D6AE"/>
	<stop  offset="1" style="stop-color:#E6C186"/>
</linearGradient>
<path fill="url(#SVGID_1_)" stroke="#37152C" stroke-width="0.9208" stroke-miterlimit="10" d="M90.371,28.047l-14.939,3.531
	l-14.939-3.531L32.248,40.814l1.109,35.111c2.55,19.214,2.942,32.564,7.724,42c0.969,1.913,3.138,5.709,4.385,7.406
	c2.968,4.038,12.721,13.93,12.721,13.93c6.966,9.041,17.245,6.629,17.245,6.629s10.645,2.412,17.609-6.629
	c0,0,9.388-10.621,12.355-14.658c1.247-1.698,3.417-5.857,4.386-7.771c4.781-9.436,5.037-21.693,7.589-40.907l0.88-35.111
	L90.371,28.047z"/>
<path fill="none" stroke="#37152C" stroke-width="0.9208" stroke-miterlimit="10" d="M70.377,84.103L70.377,84.103
	c0-1.76,1.428-3.187,3.188-3.187h3.369c1.76,0,3.187,1.427,3.187,3.187l0,0"/>
<linearGradient id="SVGID_2_" gradientUnits="userSpaceOnUse" x1="33.0576" y1="104.4121" x2="119.6748" y2="104.4121">
	<stop  offset="0" style="stop-color:#AD7081"/>
	<stop  offset="1" style="stop-color:#3C3087"/>
</linearGradient>
<path opacity="0.3" fill="url(#SVGID_2_)" d="M116.08,62.816l-2.346,32.323c-0.272,9.778-10.016,20.929-10.016,20.929
	c-7.605,9.235-8.998,2.067-8.998,2.067c-2.174-4.074-4.677-5.251-6.792-5.525c-2.524-0.326-10.182-0.271-10.182-0.271l-2.451,1.03
	l-2.448-1.03c0,0-7.657-0.055-10.182,0.271c-2.115,0.274-4.618,0.358-6.792,4.433c0,0-1.394,8.261-8.999-0.975
	c0,0-9.742-11.15-10.015-20.929l-3.803-32.323l1.36,23.348l3.529,25.366c0,0,2.471,7.33,10.327,17.611
	c7.541,9.869,14.524,13.783,14.662,13.848c0,0,2.962,3.687,12.359,2.912c9.4,0.774,14.136-3.095,14.136-3.095
	s9.904-8.184,15.782-17.475c5.045-7.975,7.187-14.971,7.187-14.971l7.274-45.101L116.08,62.816z M90.374,129.057
	c0,0-3.896,3.183-5.433,3.802c-7.826,3.15-5.074-5.704-5.074-5.704l-4.571,0.994l-4.567-0.994c0,0,3.032,8.307-5.075,5.704
	c-1.579-0.507-5.434-3.802-5.434-3.802s-5.039-7.766,2.81-11.105c2.023-0.861,6.154-1.694,8.328-1.358
	c1.013,0.155,3.805,1.522,3.805,1.522v0.107l0.134-0.055l0.136,0.055v-0.107c0,0,2.793-1.367,3.805-1.522
	c2.174-0.336,6.669,0.497,8.692,1.358C95.777,121.291,90.374,129.057,90.374,129.057z"/>
<polygon fill="#37152C" points="37.868,78.456 33.328,74.997 33.328,76.664 37.868,81.279 "/>
<polygon fill="#37152C" points="37.868,81.002 33.328,76.449 33.328,79.21 37.868,83.825 "/>
<polygon fill="#37152C" points="112.81,80.273 117.351,77.542 117.351,79.21 112.81,83.825 "/>
<polygon fill="#37152C" points="112.977,78.456 117.517,74.997 117.517,76.664 112.977,81.279 "/>
<rect x="37.777" y="82.099" fill="#37152C" width="3.217" height="1.7"/>
<rect x="109.774" y="82.099" fill="#37152C" width="3.218" height="1.7"/>
<rect x="105.982" y="78.365" fill="#37152C" width="7.01" height="5.434"/>
<rect x="37.868" y="78.365" fill="#37152C" width="7.009" height="5.434"/>
<polygon fill="#37152C" points="117.351,79.21 112.992,83.799 112.992,78.365 117.517,74.997 "/>
<polygon fill="#37152C" points="33.441,79.21 38.164,83.799 38.164,78.365 33.274,74.997 "/>
<linearGradient id="SVGID_3_" gradientUnits="userSpaceOnUse" x1="73.6006" y1="-59.917" x2="74.2686" y2="96.2439">
	<stop  offset="0" style="stop-color:#AD7081"/>
	<stop  offset="1" style="stop-color:#3C3087"/>
</linearGradient>
<path fill="url(#SVGID_3_)" stroke="#37152C" stroke-width="0.9208" stroke-miterlimit="10" d="M77.697,5.23
	c0,0-19.557-1.901-35.041,8.691c0,0,7.878-2.716,9.508-2.444c0,0-16.378,6.52-24.255,23.089c0,0,5.427-7.334,6.784-7.062
	c0,0-9.772,9.507-9.772,19.828c0,0,4.075-7.876,5.433-7.876c0,0-7.193,10.05-4.205,26.348c0,0,1.761-5.704,3.118-7.334
	c0,0-2.987,10.322,0.815,18.743c0,0,0.271-5.162,1.358-6.52c0,0-0.735,16.298,2.524,24.446v-6.79l2.173,5.433
	c0,0-1.358-16.095-0.271-18.777c0,0,1.901-5.671,1.358-10.56c0,0-0.815-4.889,3.259-6.247c0,0,4.347-3.26,9.915-2.173
	c0,0,9.643,0.271,18.607-7.877c0,0-2.988,4.889-4.89,6.247c0,0,10.322-3.531,17.112-1.358c0,0,7.334,0.544,12.224-5.433
	c0,0-3.26,7.606-9.78,8.692c0,0-10.15-0.544-10.824,1.901c0,0,1.318-1.901,10.01,0.271c0,0,7.335,1.087,10.595-5.433
	c0,0,4.346-4.889,7.062-4.618c0,0-1.357,8.149,4.618,16.569c0,0-1.359-4.074,0-8.148c0,0,5.617,6.247,8.062,8.421
	c0,0,2.202,12.28,0.572,26.134l3.23-7.392l0.672,8.926c0,0,2.073-23.255,3.392-26.582c4.905-12.4,2.183-39.071-15.656-50.523
	c0,0-17.385-12.863-35.855-12.863L77.697,5.23z"/>
<linearGradient id="SVGID_4_" gradientUnits="userSpaceOnUse" x1="45.6553" y1="47.4561" x2="59.8227" y2="101.7641">
	<stop  offset="0" style="stop-color:#AD7081"/>
	<stop  offset="1" style="stop-color:#3C3087"/>
</linearGradient>
<path fill="url(#SVGID_4_)" d="M68.205,79.667l-1.688-3.991c0,0-1.688-1.994-6.6-2.148c0,0-12.739-1.995-15.347,1.842h1.534
	c0,0-2.016,0.852-5.832,5.679C40.272,81.048,49.021,73.221,68.205,79.667z"/>
<linearGradient id="SVGID_5_" gradientUnits="userSpaceOnUse" x1="89.2344" y1="55.3262" x2="96.3178" y2="86.5466">
	<stop  offset="0" style="stop-color:#AD7081"/>
	<stop  offset="1" style="stop-color:#3C3087"/>
</linearGradient>
<path fill="url(#SVGID_5_)" d="M80.864,79.303l1.688-3.99c0,0,1.688-1.995,6.6-2.148c0,0,12.738-1.995,15.349,1.841h-1.537
	c0,0,2.016,0.852,5.834,5.679C108.797,80.684,100.049,72.856,80.864,79.303z"/>
<linearGradient id="SVGID_6_" gradientUnits="userSpaceOnUse" x1="72.7168" y1="128.0918" x2="30.6698" y2="31.3838">
	<stop  offset="0" style="stop-color:#DE926B"/>
	<stop  offset="0.208" style="stop-color:#DCA956"/>
	<stop  offset="0.5253" style="stop-color:#D9C63C"/>
	<stop  offset="0.8003" style="stop-color:#D7D82C"/>
	<stop  offset="1" style="stop-color:#D6DE26"/>
</linearGradient>
<path fill="url(#SVGID_6_)" stroke="#36162C" stroke-width="1.0358" stroke-miterlimit="10" d="M47.778,76.934
	c0,0,8.977-3.186,20.267,1.447c0,0,6.562,3.475,1.93,11.292c0,0-5.211,10.325-13.896,13.703c0,0-9.169,4.438-15.345-6.272
	C40.733,97.104,34.074,80.408,47.778,76.934z"/>
<linearGradient id="SVGID_7_" gradientUnits="userSpaceOnUse" x1="-2745.0269" y1="131.04" x2="-2697.5159" y2="36.888" gradientTransform="matrix(-1 0 0 1 -2627.0195 0)">
	<stop  offset="0" style="stop-color:#DE926B"/>
	<stop  offset="0.156" style="stop-color:#DCA35C"/>
	<stop  offset="0.5065" style="stop-color:#D9C33E"/>
	<stop  offset="0.8004" style="stop-color:#D7D72C"/>
	<stop  offset="1" style="stop-color:#D6DE26"/>
</linearGradient>
<path fill="url(#SVGID_7_)" stroke="#36162C" stroke-width="1.0358" stroke-miterlimit="10" d="M102.721,76.906
	c0,0-8.975-3.185-20.267,1.447c0,0-6.562,3.475-1.93,11.291c0,0,5.212,10.326,13.897,13.704c0,0,9.168,4.439,15.344-6.272
	C109.766,97.076,116.424,80.38,102.721,76.906z"/>
<line fill="none" stroke="#37152C" stroke-width="0.9208" stroke-miterlimit="10" x1="63.456" y1="76.3" x2="87.315" y2="76.3"/>
<polygon fill="#37152C" stroke="#37152C" stroke-width="0.4644" stroke-miterlimit="10" points="106.984,78.73 112.812,78.73 
	112.812,80.916 109.826,80.916 "/>
<polygon fill="#37152C" stroke="#37152C" stroke-width="0.4566" stroke-miterlimit="10" points="43.059,78.73 37.777,78.73 
	37.777,80.916 41.063,80.916 "/>
<linearGradient id="SVGID_8_" gradientUnits="userSpaceOnUse" x1="109.4863" y1="79.8584" x2="112.5078" y2="79.8584">
	<stop  offset="0" style="stop-color:#DE926B"/>
	<stop  offset="0" style="stop-color:#DCA956"/>
	<stop  offset="0" style="stop-color:#D9C63C"/>
	<stop  offset="0" style="stop-color:#D7D82C"/>
	<stop  offset="0" style="stop-color:#D6DE26"/>
</linearGradient>
<rect x="109.486" y="79.336" fill="url(#SVGID_8_)" width="3.021" height="1.045"/>
<linearGradient id="SVGID_9_" gradientUnits="userSpaceOnUse" x1="38.3975" y1="79.8584" x2="41.418" y2="79.8584">
	<stop  offset="0" style="stop-color:#DE926B"/>
	<stop  offset="0" style="stop-color:#DCA956"/>
	<stop  offset="0" style="stop-color:#D9C63C"/>
	<stop  offset="0" style="stop-color:#D7D82C"/>
	<stop  offset="0" style="stop-color:#D6DE26"/>
</linearGradient>
<rect x="38.397" y="79.336" fill="url(#SVGID_9_)" width="3.021" height="1.045"/>
</svg>
