<?xml version="1.0" encoding="utf-8"?>
<!-- Generator: Adobe Illustrator 16.0.0, SVG Export Plug-In . SVG Version: 6.00 Build 0)  -->
<!DOCTYPE svg PUBLIC "-//W3C//DTD SVG 1.1//EN" "http://www.w3.org/Graphics/SVG/1.1/DTD/svg11.dtd">
<svg version="1.1" id="Layer_1" xmlns="http://www.w3.org/2000/svg" xmlns:xlink="http://www.w3.org/1999/xlink" x="0px" y="0px"
	 width="150px" height="150px" viewBox="0 0 150 150" enable-background="new 0 0 150 150" xml:space="preserve">
<linearGradient id="SVGID_1_" gradientUnits="userSpaceOnUse" x1="72.5957" y1="18.8154" x2="72.5957" y2="180.3892">
	<stop  offset="0" style="stop-color:#F6D6AE"/>
	<stop  offset="0.9316" style="stop-color:#E6C186"/>
</linearGradient>
<path fill="url(#SVGID_1_)" stroke="#37152C" stroke-width="0.9507" stroke-miterlimit="10" d="M73.322,147.723
	c7.074-0.483,10.274-1.665,13.395-3.106c3.501-1.619,8.591-6.562,11.199-9.401c3.172-3.458,7.59-10.778,9.4-15.107
	c1.576-3.771,4.647-16.163,4.647-16.163c2.642,5.705,6.708,2.535,6.55-0.105c-0.267-4.435-0.338-6.422,0.253-8.451
	c1.624-5.586,2.752-8.969,3.104-12.096c1.323-11.722-6.972-4.489-6.972-4.489l0.423-17.536l-3.675-26.621l-9.719-13.732
	l-28.776-3.479v-0.113v0.07l-0.175,0.021l-0.177-0.021v-0.07L72.8,17.435l-28.775,3.479l-9.718,13.732l-5.071,26.621l1.057,17.536
	c0,0-8.296-7.232-6.973,4.489c0.353,3.127,1.861,6.51,3.485,12.096c0.591,2.029,0.9,4.017,0.634,8.451
	c-0.158,2.641,3.91,5.811,6.55,0.105c0,0,3.071,11.76,4.649,15.529c1.81,4.329,6.229,11.967,9.401,15.423
	c2.607,2.842,7.697,8.101,11.197,9.72c3.12,1.441,6.319,2.623,13.396,3.106H73.322z"/>
<linearGradient id="SVGID_2_" gradientUnits="userSpaceOnUse" x1="52.3174" y1="51.2412" x2="52.3174" y2="82.5394">
	<stop  offset="0" style="stop-color:#B99043"/>
	<stop  offset="0.244" style="stop-color:#AE8A40"/>
	<stop  offset="0.6674" style="stop-color:#927B38"/>
	<stop  offset="1" style="stop-color:#776C31"/>
</linearGradient>
<path fill="url(#SVGID_2_)" d="M62.369,68.209l3.479,2.14c0.049-0.722,0.061-1.579-0.112-1.956c-0.253-0.552-1.29-1.33-1.841-1.585
	c-3.827-1.767-12.461-2.268-16.663-2.593c-0.749-0.057-2.278-0.19-3.004,0c-1.131,0.298-3.183,1.542-4.07,2.306
	c-0.353,0.304-0.896,0.974-1.401,1.642L62.369,68.209z"/>
<linearGradient id="SVGID_3_" gradientUnits="userSpaceOnUse" x1="-3075.7163" y1="51.2402" x2="-3075.7163" y2="82.5384" gradientTransform="matrix(-1 0 0 1 -2983.6582 0)">
	<stop  offset="0" style="stop-color:#B99043"/>
	<stop  offset="0.244" style="stop-color:#AE8A40"/>
	<stop  offset="0.6674" style="stop-color:#927B38"/>
	<stop  offset="1" style="stop-color:#776C31"/>
</linearGradient>
<path fill="url(#SVGID_3_)" d="M82.006,68.209l-3.479,2.14c-0.048-0.722-0.061-1.579,0.113-1.956c0.253-0.552,1.289-1.33,1.84-1.585
	c3.828-1.767,12.46-2.268,16.664-2.593c0.749-0.057,2.278-0.19,3.005,0c1.13,0.298,3.182,1.542,4.068,2.306
	c0.354,0.304,0.896,0.974,1.403,1.642L82.006,68.209z"/>
<linearGradient id="SVGID_4_" gradientUnits="userSpaceOnUse" x1="73.0176" y1="-8.6689" x2="73.0176" y2="107.5152">
	<stop  offset="0" style="stop-color:#B99043"/>
	<stop  offset="0.244" style="stop-color:#AE8A40"/>
	<stop  offset="0.6674" style="stop-color:#927B38"/>
	<stop  offset="1" style="stop-color:#776C31"/>
</linearGradient>
<path fill="url(#SVGID_4_)" stroke="#37152C" stroke-width="0.9507" stroke-miterlimit="10" d="M31.771,70.379
	c0.252,5.422,1.016,21.522,1.016,21.522h-1.163l-1.331-9.19c-3.487-11.408-4.121-24.296-4.121-24.296
	c-0.633,1.373-0.739,3.591-0.739,3.591C23.319,51.336,24.5,44.047,24.5,44.047c-0.673,0.671-2.325,3.275-2.325,3.275
	c3.697-20.071,16.164-28.839,16.164-28.839c-1.163-0.106-3.804,1.585-3.804,1.585C44.254,9.188,60.821,6.775,60.821,6.775
	c-0.845-0.527-4.648-0.104-4.648-0.104c11.831-4.015,23.77-1.796,23.77-1.796c-1.058-1.057-5.07-2.113-5.07-2.113
	c31.267,0.889,34.647,22.377,34.647,22.377c19.65,2.957,13.395,25.036,13.395,25.036c-0.106-4.119-1.586-7.184-1.586-7.184
	c1.268,8.135-1.056,17.431-2.534,22.078c-1.479,4.648-3.804,26.938-3.804,26.938l-1.162-0.106
	c2.747-33.592-4.836-29.896-5.574-56.094c-0.213,1.162-2.115,4.542-2.115,4.542c0.529-3.273-1.267-6.443-1.267-6.443
	c-1.585,1.161-5.81,1.796-5.81,1.796c2.535-1.161,4.964-3.592,4.964-3.592c-6.653,1.69-13.837,2.535-13.837,2.535
	c1.545-0.614,5.281-3.381,5.281-3.381c-9.719,3.803-20.389,4.12-20.389,4.12c4.121-1.057,8.028-5.281,8.028-5.281
	c-10.986,5.599-25.775,6.866-25.775,6.866c5.282-2.324,10.247-6.338,10.247-6.338c-7.5,4.436-21.867,7.5-21.867,7.5l-7.127,1.556
	C38.588,55.929,30.918,52.051,31.771,70.379z"/>
<linearGradient id="SVGID_5_" gradientUnits="userSpaceOnUse" x1="62.6172" y1="126.293" x2="81.082" y2="126.293">
	<stop  offset="0" style="stop-color:#B99043"/>
	<stop  offset="0.244" style="stop-color:#AE8A40"/>
	<stop  offset="0.6674" style="stop-color:#927B38"/>
	<stop  offset="1" style="stop-color:#776C31"/>
</linearGradient>
<path opacity="0.3" fill="url(#SVGID_5_)" d="M62.617,124.918c0,0,5.981,1.378,9.563,0c0,0,4.217,1.735,8.901,0.296
	C81.082,125.214,74.08,130.928,62.617,124.918z"/>
<linearGradient id="SVGID_6_" gradientUnits="userSpaceOnUse" x1="60.5576" y1="72.4512" x2="60.5576" y2="148.2464">
	<stop  offset="0" style="stop-color:#B99043"/>
	<stop  offset="0.244" style="stop-color:#AE8A40"/>
	<stop  offset="0.6674" style="stop-color:#927B38"/>
	<stop  offset="1" style="stop-color:#776C31"/>
</linearGradient>
<path fill="url(#SVGID_6_)" d="M70.541,107.125c0,0-3.84-1.141-5.175-1.057c-2.532,0.158-6.775,2.76-9.088,3.804
	c-1.29,0.583-5.386,2.534-5.386,2.534l-0.635,3.276c0,0,4.468-1.561,6.128-2.113c2.405-0.803,7.512-3.241,10.035-3.486
	c1.045-0.102,4.437,0.792,4.437,0.792L70.541,107.125z"/>
<linearGradient id="SVGID_7_" gradientUnits="userSpaceOnUse" x1="-3171.2461" y1="72.4502" x2="-3171.2461" y2="148.2455" gradientTransform="matrix(-1 0 0 1 -3087.6582 0)">
	<stop  offset="0" style="stop-color:#B99043"/>
	<stop  offset="0.244" style="stop-color:#AE8A40"/>
	<stop  offset="0.6674" style="stop-color:#927B38"/>
	<stop  offset="1" style="stop-color:#776C31"/>
</linearGradient>
<path fill="url(#SVGID_7_)" d="M73.604,107.125c0,0,3.84-1.141,5.178-1.057c2.53,0.158,6.773,2.76,9.084,3.804
	c1.292,0.583,5.388,2.534,5.388,2.534l0.634,3.276c0,0-4.468-1.561-6.126-2.113c-2.406-0.803-7.513-3.241-10.036-3.486
	c-1.044-0.102-4.437,0.792-4.437,0.792L73.604,107.125z"/>
<path opacity="0.5" fill="#F7F8F9" d="M65.88,80.441c0,2.527-2.047,4.575-4.574,4.575H41.646c-2.527,0-5.338-2.048-5.338-4.575
	l-1.144-6.944c0-2.527,0.905-4.575,3.432-4.575h23.09c2.526,0,4.956,2.048,4.956,4.575L65.88,80.441z"/>
<path opacity="0.5" fill="#F7F8F9" d="M78.481,80.441c0,2.527,2.049,4.575,4.575,4.575h19.66c2.525,0,5.337-2.048,5.337-4.575
	l1.143-6.944c0-2.527-0.903-4.575-3.431-4.575h-23.09c-2.526,0-4.956,2.048-4.956,4.575L78.481,80.441z"/>
<path fill="none" stroke="#36162C" stroke-width="1.1436" stroke-miterlimit="10" d="M34.784,72.733
	c0-2.526,1.286-4.573,3.812-4.573h23.09c2.526,0,4.956,2.047,4.956,4.573l-0.479,5.13"/>
<path fill="none" stroke="#36162C" stroke-width="1.1436" stroke-miterlimit="10" d="M109.316,72.733
	c0-2.526-1.286-4.573-3.812-4.573h-23.09c-2.527,0-4.957,2.047-4.957,4.573l0.741,5.13"/>
<line fill="none" stroke="#36162C" stroke-width="1.5248" stroke-miterlimit="10" x1="66.687" y1="71.669" x2="77.458" y2="71.669"/>
<polygon fill="#444445" stroke="#36162C" stroke-width="0.8735" stroke-miterlimit="10" points="109.209,71.669 117.688,71.669 
	117.291,74.28 109.552,74.28 "/>
<polygon fill="#444445" stroke="#36162C" stroke-width="0.7571" stroke-miterlimit="10" points="27.65,71.669 34.592,71.669 
	34.295,74.28 27.907,74.28 "/>
</svg>
