<?xml version="1.0" encoding="utf-8"?>
<!-- Generator: Adobe Illustrator 16.0.0, SVG Export Plug-In . SVG Version: 6.00 Build 0)  -->
<!DOCTYPE svg PUBLIC "-//W3C//DTD SVG 1.1//EN" "http://www.w3.org/Graphics/SVG/1.1/DTD/svg11.dtd">
<svg version="1.1" id="Layer_1" xmlns="http://www.w3.org/2000/svg" xmlns:xlink="http://www.w3.org/1999/xlink" x="0px" y="0px"
	 width="150px" height="150px" viewBox="0 0 150 150" enable-background="new 0 0 150 150" xml:space="preserve">
<linearGradient id="SVGID_1_" gradientUnits="userSpaceOnUse" x1="72.5332" y1="-31.5244" x2="72.5332" y2="166.4274">
	<stop  offset="0" style="stop-color:#F6D6AE"/>
	<stop  offset="1" style="stop-color:#E6C186"/>
</linearGradient>
<path fill="url(#SVGID_1_)" stroke="#37152C" stroke-width="1.0607" stroke-miterlimit="10" d="M119.036,75.895
	c-0.225-0.287-1.048-0.107-1.378,0c-1.143,0.373-3.195,1.87-4.865,3.188l1.378-8.922V45.213L110.186,26H58.282l-17.671,1.721
	l-9.2,31.257l2.445,21.688c-1.463-1.281-4.938-4.227-6.543-4.771c-0.319-0.107-1.11-0.287-1.325,0
	c-3.002,3.981,0.9,15.963,2.797,20.745c0.465,1.173,1.098,3.914,2.062,4.586c0.409,0.283,1.459,0.167,1.915,0
	c0.771-0.284,1.304-1.024,2.126-1.814l0.886,6.497l1.972,9.116c0,0,5.246,12.759,7.638,16.616
	c2.359,3.803,8.146,10.482,11.993,12.453c7.138,3.655,20.334,2.922,27.232,1.187c5.031-1.265,12.168-9.918,15.183-14.137
	c2.988-4.179,6.308-14.114,7.656-19.07c0.847-3.112,2.26-12.758,2.26-12.758c0.868,0.767,1.657,1.687,2.285,1.91
	c0.475,0.167,1.567,0.283,1.992,0c1.004-0.672,1.658-3.413,2.144-4.586C118.099,91.857,122.155,79.876,119.036,75.895z"/>
<g opacity="0.3">
	<linearGradient id="SVGID_2_" gradientUnits="userSpaceOnUse" x1="42.0293" y1="25.8438" x2="112.4432" y2="205.9583">
		<stop  offset="0" style="stop-color:#A38540"/>
		<stop  offset="0.3225" style="stop-color:#9C7238"/>
		<stop  offset="1" style="stop-color:#8E4D29"/>
	</linearGradient>
	<path fill="url(#SVGID_2_)" d="M108.669,98.298l-1.007,6.182c0,0-4.361,7.573-7.717,9.587c0,0-0.5,9.113-4.95,16.333
		c-2.449-2.472-2.835-7.163-2.835-7.163c-0.557-5.256-2.097-6.262-2.097-6.262c0.587-0.081,0.892,0.187,1.017,0.342
		c-1.285-1.819-4.623-2.466-4.623-2.466c1.118-0.338,1.007-0.561,1.007-0.561c-5.145,0-12.303-2.795-12.303-2.795l-3.231,2.795
		l-3.23-2.795c0,0-7.156,2.795-12.302,2.795c0,0-0.111,0.223,1.009,0.561c0,0-3.338,0.646-4.625,2.466
		c0.125-0.155,0.432-0.423,1.018-0.342c0,0-1.541,1.006-2.099,6.262c0,0-0.314,3.857-2.2,6.421
		c-4.042-7.087-4.51-15.591-4.51-15.591c-3.354-2.014-7.716-9.587-7.716-9.587l-1.006-6.517l-1.343,1.961
		c1.532,13.578,6.264,24.942,10.035,31.526c5.312,9.277,9.76,10.8,9.76,10.8c5.286,5.089,15.322,5.037,17.747,4.946
		c2.426,0.091,12.463,0.143,17.747-4.946c0,0,3.726-2.238,8.673-10.189c4.148-6.666,9.472-17.557,11.122-32.473L108.669,98.298z
		 M88.631,136.657c0,0-1.435,2.46-5.014,1.118c0,0-6.335-2.492-11.149-2.072c-4.812-0.42-11.148,2.072-11.148,2.072
		c-3.579,1.342-5.368-1.118-5.368-1.118c-1.628-1.014-2.429-6.547-2.429-6.547c1.017-1.295,2.652-7.377,2.652-7.377
		s0.895-3.746,7.492-5.647l-1.118,1.007c0,0,5.68-2.46,9.381-0.895c3.704-1.565,9.384,0.895,9.384,0.895l-1.118-1.007
		c6.598,1.901,7.492,5.647,7.492,5.647s1.947,6.404,2.843,7.287C90.53,130.021,90.021,135.793,88.631,136.657z"/>
	<linearGradient id="SVGID_3_" gradientUnits="userSpaceOnUse" x1="19.9277" y1="33.4238" x2="91.1197" y2="215.5287">
		<stop  offset="0" style="stop-color:#A38540"/>
		<stop  offset="0.3225" style="stop-color:#9C7238"/>
		<stop  offset="1" style="stop-color:#8E4D29"/>
	</linearGradient>
	<path fill="url(#SVGID_3_)" d="M52.781,117.316c-0.049,0.062-0.072,0.105-0.072,0.105
		C52.731,117.387,52.756,117.354,52.781,117.316z"/>
	<linearGradient id="SVGID_4_" gradientUnits="userSpaceOnUse" x1="53.3613" y1="20.793" x2="124.1685" y2="201.9135">
		<stop  offset="0" style="stop-color:#A38540"/>
		<stop  offset="0.3225" style="stop-color:#9C7238"/>
		<stop  offset="1" style="stop-color:#8E4D29"/>
	</linearGradient>
	<path fill="url(#SVGID_4_)" d="M91.08,117.316c0.025,0.037,0.052,0.07,0.074,0.105C91.154,117.422,91.131,117.378,91.08,117.316z"
		/>
</g>
<linearGradient id="SVGID_5_" gradientUnits="userSpaceOnUse" x1="67.918" y1="129.3887" x2="76.9756" y2="129.3887">
	<stop  offset="0" style="stop-color:#A38540"/>
	<stop  offset="0.3225" style="stop-color:#9C7238"/>
	<stop  offset="1" style="stop-color:#8E4D29"/>
</linearGradient>
<path opacity="0.3" fill="url(#SVGID_5_)" d="M67.918,126.368c0,0,5.48,1.454,9.058-0.223c0,0-0.447,2.906-1.676,3.914l-0.856-1.566
	l-1.438,4.139l-1.845-4.474c0,0-1.343,1.678-1.007,2.459C70.154,130.617,68.03,128.381,67.918,126.368z"/>
<linearGradient id="SVGID_6_" gradientUnits="userSpaceOnUse" x1="25.9639" y1="-30.2275" x2="116.7091" y2="138.7163">
	<stop  offset="0" style="stop-color:#A38540"/>
	<stop  offset="0.3225" style="stop-color:#9C7238"/>
	<stop  offset="1" style="stop-color:#8E4D29"/>
</linearGradient>
<path fill="url(#SVGID_6_)" stroke="#37152C" stroke-width="1.0607" stroke-miterlimit="10" d="M79.659,6.034
	c0,0-10.735-2.907-14.762-2.237c0,0,4.697,1.12,6.039,2.237c0,0-21.249-4.585-36.682,11.967c0,0,5.032-3.02,6.599-2.571
	c0,0-10.064,3.131-15.656,19.682c0,0,2.795-4.249,5.256-5.592c0,0-7.828,14.427-3.803,32.991c0,0,5.892,16.378,5.74,30.42
	l3.207,3.242c0,0-0.654-32.879,1.808-37.8c0,0-2.255,7.381-4.493,10.289c0,0,9.691-6.624,12.599-19.099c0,0-0.635,3.665-2.871,5.229
	c0,0,16.299-1.341,31.804-13.419c0,0-2.165,4.473-9.322,10.289c0,0,10.513,0.223,27.736-9.618c0,0-4.699,6.162-11.408,8.225
	c0,0,8.724,0.052,20.801-6.212c0,0-4.697,5.817-8.5,7.605c0,0,7.382-1.565,12.079-6.263c0,0,0.224,11.407-2.461,16.999l2.465-2.237
	c-3.136,7.382,4.692,5.257,4.021,15.937l-0.636,18.956l3.21-4.139c0,0,2.229-21.011,5.479-31.426
	c3.114-9.973,9.394-41.377-30.643-55.794c0,0,4.025,2.114,4.025,3.681c0,0-12.302-4.026-14.985-4.026
	C76.305,3.351,79.659,4.245,79.659,6.034z"/>
<linearGradient id="SVGID_7_" gradientUnits="userSpaceOnUse" x1="43.1904" y1="47.875" x2="56.9425" y2="100.5909">
	<stop  offset="0" style="stop-color:#A38540"/>
	<stop  offset="0.3225" style="stop-color:#9C7238"/>
	<stop  offset="1" style="stop-color:#8E4D29"/>
</linearGradient>
<path fill="url(#SVGID_7_)" d="M65.079,79.142l-1.638-3.872c0,0-1.641-1.938-6.407-2.088c0,0-12.364-1.936-14.897,1.789h1.49
	c0,0-1.957,0.827-5.662,5.512C37.965,80.482,46.457,72.884,65.079,79.142z"/>
<linearGradient id="SVGID_8_" gradientUnits="userSpaceOnUse" x1="-2747.5371" y1="48.2266" x2="-2733.7837" y2="100.9473" gradientTransform="matrix(-1 0 0 1 -2645.3906 0)">
	<stop  offset="0" style="stop-color:#A38540"/>
	<stop  offset="0.3225" style="stop-color:#9C7238"/>
	<stop  offset="1" style="stop-color:#8E4D29"/>
</linearGradient>
<path fill="url(#SVGID_8_)" d="M80.258,79.496l1.64-3.874c0,0,1.638-1.938,6.406-2.087c0,0,12.364-1.936,14.897,1.789h-1.49
	c0,0,1.956,0.827,5.66,5.512C107.371,80.836,98.88,73.238,80.258,79.496z"/>
<linearGradient id="SVGID_9_" gradientUnits="userSpaceOnUse" x1="87.54" y1="76.6475" x2="102.6063" y2="100.9377">
	<stop  offset="0" style="stop-color:#7CCFDD"/>
	<stop  offset="0.3515" style="stop-color:#89CFBB"/>
	<stop  offset="0.7351" style="stop-color:#96CF99"/>
</linearGradient>
<path fill="url(#SVGID_9_)" stroke="#24111D" stroke-width="1.0607" stroke-miterlimit="10" d="M86.335,76.001
	c0,0-15.852-0.058-5.657,19.329c3.719,7.072,17.325,4.832,17.325,4.832c9.193-1.061,10.726-14.614,10.726-14.614
	c2.828-13.79-21.688-9.899-21.688-9.899"/>
<linearGradient id="SVGID_10_" gradientUnits="userSpaceOnUse" x1="41.7725" y1="77.3799" x2="62.9879" y2="96.7503">
	<stop  offset="0" style="stop-color:#7CCFDD"/>
	<stop  offset="0.7351" style="stop-color:#96CF99"/>
</linearGradient>
<path fill="url(#SVGID_10_)" stroke="#24111D" stroke-width="1.0607" stroke-miterlimit="10" d="M58.505,75.648
	c0,0,15.852,0.295,5.656,19.682c-3.718,7.072-17.324,4.832-17.324,4.832c-9.192-1.061-10.726-14.614-10.726-14.614
	C33.283,71.758,58.505,75.648,58.505,75.648"/>
<path fill="#35162C" d="M36.029,85.017h-1.81c0,0-0.268-2.651-1.917-3.358v-4.95c0,0,12.14-5.007,31.468-1.089
	c0,0,5.775,1.561,4.715,5.922c0,0-0.473,0.943-1.532,1.296c0,0,0.354-5.185-7.661-6.363c0,0-12.022-2.123-18.622,0.825
	C40.67,77.299,35.217,79.57,36.029,85.017z"/>
<path fill="#35162C" d="M108.729,85.017h2.166c0,0,0.268-2.651,1.918-3.358v-4.95c0,0-12.14-5.007-31.469-1.089
	c0,0-5.775,1.561-4.716,5.922c0,0,0.119,0.943,1.179,1.296c0,0,0-5.185,8.016-6.363c0,0,12.022-2.123,18.622,0.825
	C104.445,77.299,109.732,79.715,108.729,85.017z"/>
<polygon fill="#35162C" points="66.717,78.594 77.915,78.594 77.915,80.833 67.396,80.833 "/>
<polygon fill="#35162C" points="114.413,78.594 112.355,78.594 112.355,76.523 114.766,77.23 "/>
<polygon fill="#35162C" points="32.799,78.594 30.744,78.594 30.391,77.23 32.799,76.523 "/>
<polygon opacity="0.6" fill="#DEB070" points="33.757,77.398 33.757,78.261 32.188,78.261 32.188,78.889 33.757,78.889 
	33.757,79.791 34.424,79.791 34.424,77.398 "/>
<polygon opacity="0.6" fill="#DEB070" points="111.167,77.421 111.167,78.261 112.697,78.261 112.697,78.873 111.167,78.873 
	111.167,79.752 110.518,79.752 110.518,77.421 "/>
<linearGradient id="SVGID_11_" gradientUnits="userSpaceOnUse" x1="33.5664" y1="57.2969" x2="38.7839" y2="67.0105">
	<stop  offset="0" style="stop-color:#A38540"/>
	<stop  offset="0.3225" style="stop-color:#9C7238"/>
	<stop  offset="1" style="stop-color:#8E4D29"/>
</linearGradient>
<path fill="url(#SVGID_11_)" d="M38.195,57.703c0,0-1.941,7.071-3.976,9.018c0,0,3.71-2.3,5.035-5.834L38.195,57.703z"/>
<g>
	<path fill="#37152C" d="M61.005,121.938c0,0,1.48-0.143,3.7-0.356c2.221-0.22,5.184-0.435,8.146-0.676
		c1.481-0.11,2.96-0.301,4.351-0.365c1.391-0.045,2.692,0,3.809,0.081c2.233,0.144,3.73,0.489,3.73,0.489l0.006,0.176
		c0,0-1.47,0.449-3.687,0.748c-1.108,0.158-2.403,0.294-3.794,0.346c-1.392,0.032-2.88-0.054-4.365-0.062
		c-2.972-0.034-5.942-0.042-8.173-0.107c-2.229-0.059-3.717-0.098-3.717-0.098L61.005,121.938z"/>
</g>
<g>
	<defs>
		<path id="XMLID_24_" d="M81.53,121.437l18.119,20.472c1.151,1.324,0.738,2.162-0.063,2.86l-0.428,0.372
			c-0.802,0.697-1.691,0.988-2.842-0.336L76.04,121.409"/>
	</defs>
	<use xlink:href="#XMLID_24_"  overflow="visible" fill="#FFFFFF"/>
	<clipPath id="XMLID_30_">
		<use xlink:href="#XMLID_24_"  overflow="visible"/>
	</clipPath>
	<g clip-path="url(#XMLID_30_)">
		<defs>
			<polygon id="XMLID_26_" points="74.719,122.095 79.679,117.783 85.807,125.299 80.848,129.609 			"/>
		</defs>
		<use xlink:href="#XMLID_26_"  overflow="visible" fill="#F3C480"/>
		<clipPath id="XMLID_31_">
			<use xlink:href="#XMLID_26_"  overflow="visible"/>
		</clipPath>
		
			<rect x="75.942" y="114.798" transform="matrix(0.7546 -0.6562 0.6562 0.7546 -62.9028 82.3679)" clip-path="url(#XMLID_31_)" fill="#DBA972" width="5.442" height="20.956"/>
	</g>
	<g clip-path="url(#XMLID_30_)">
		<defs>
			
				<rect id="XMLID_25_" x="79.442" y="127.921" transform="matrix(-0.7546 0.6561 -0.6561 -0.7546 233.9615 169.5208)" width="11.687" height="1.166"/>
		</defs>
		<use xlink:href="#XMLID_25_"  overflow="visible" fill="#F3C480"/>
		<clipPath id="XMLID_32_">
			<use xlink:href="#XMLID_25_"  overflow="visible"/>
		</clipPath>
		
			<rect x="85.736" y="132.092" transform="matrix(0.7549 -0.6558 0.6558 0.7549 -66.8114 90.556)" clip-path="url(#XMLID_32_)" fill="#DBA972" width="4.04" height="5.156"/>
	</g>
	<use xlink:href="#XMLID_24_"  overflow="visible" fill="none" stroke="#6D2C1B" stroke-width="0.6205" stroke-miterlimit="10"/>
</g>
<ellipse transform="matrix(-0.7547 0.656 -0.656 -0.7547 268.129 188.3326)" fill="#EB5C62" stroke="#6D2C1B" stroke-width="0.553" stroke-miterlimit="10" cx="98.86" cy="144.287" rx="1.993" ry="1.12"/>
<polygon fill="#37152C" points="74.636,121.629 76.846,121.105 78.988,121.105 81.973,121.281 82.725,121.5 82.503,121.657 "/>
<linearGradient id="SVGID_12_" gradientUnits="userSpaceOnUse" x1="99.2617" y1="62.5107" x2="99.2617" y2="175.6657">
	<stop  offset="0" style="stop-color:#FFFFFF"/>
	<stop  offset="0.3704" style="stop-color:#FAFAFA"/>
	<stop  offset="0.8095" style="stop-color:#ECECED"/>
	<stop  offset="1" style="stop-color:#E3E4E5"/>
</linearGradient>
<path opacity="0.3" fill="url(#SVGID_12_)" d="M95.7,133.082c-5.748-12.429,4.141-20.207,2.343-32.197c0,0,1.655,7.994,0.153,13.527
	c0,0,3.891-10.146,2.543-23.059c0,0,0.226-7.072,2.922-9.84c0,0-1.798,7.637,0,12.273c0,0,2.557,5.48-0.591,27.22
	c0,0-5.268,11.774-4.138,19.963C98.933,140.97,96.864,135.599,95.7,133.082z"/>
</svg>
