<?xml version="1.0" encoding="utf-8"?>
<!-- Generator: Adobe Illustrator 16.0.0, SVG Export Plug-In . SVG Version: 6.00 Build 0)  -->
<!DOCTYPE svg PUBLIC "-//W3C//DTD SVG 1.1//EN" "http://www.w3.org/Graphics/SVG/1.1/DTD/svg11.dtd">
<svg version="1.1" id="Layer_1" xmlns="http://www.w3.org/2000/svg" xmlns:xlink="http://www.w3.org/1999/xlink" x="0px" y="0px"
	 width="1000px" height="100px" viewBox="0 0 1000 100" enable-background="new 0 0 1000 100" xml:space="preserve">
<g>
	<g>
		<g>
			<path fill="#E6FF81" d="M67.271,53.835l-2.344,4.556c-1.221-0.996-2.52-1.494-3.896-1.494c-0.625,0-1.196,0.171-1.714,0.513
				c-0.537,0.322-0.806,0.781-0.806,1.377c0,0.576,0.239,1.016,0.718,1.318c0.449,0.293,1.079,0.571,1.89,0.835l1.494,0.454
				c1.709,0.498,3.081,1.226,4.116,2.183c0.977,0.967,1.465,2.3,1.465,3.999c0,2.734-0.781,4.766-2.344,6.094
				c-1.68,1.416-3.818,2.124-6.416,2.124c-2.832,0-5.483-0.859-7.954-2.578L54,68.469c1.768,1.562,3.511,2.344,5.229,2.344
				c0.742,0,1.401-0.2,1.978-0.601s0.864-0.962,0.864-1.685c0-0.732-0.317-1.26-0.952-1.582c-0.596-0.303-1.465-0.635-2.607-0.996
				c-1.348-0.361-2.48-0.771-3.398-1.23c-0.869-0.439-1.541-1.06-2.015-1.86s-0.71-1.899-0.71-3.296
				c0-1.504,0.327-2.832,0.981-3.984c0.693-1.172,1.626-2.065,2.798-2.681c1.143-0.615,2.48-0.923,4.014-0.923
				c1.133,0,2.354,0.171,3.662,0.513C65.113,52.81,66.256,53.259,67.271,53.835z"/>
			<path fill="#E6FF81" d="M79.005,59.299c1.66,0,3.198,0.317,4.614,0.952c0.684,0.303,1.313,0.698,1.89,1.187
				s1.079,1.045,1.509,1.67c0.84,1.27,1.26,2.739,1.26,4.409c0,1.68-0.42,3.14-1.26,4.38c-0.859,1.24-1.992,2.188-3.398,2.842
				c-1.436,0.645-2.974,0.967-4.614,0.967c-1.631,0-3.174-0.322-4.629-0.967c-0.703-0.342-1.336-0.744-1.896-1.208
				c-0.562-0.464-1.058-1.009-1.487-1.634c-0.84-1.24-1.26-2.7-1.26-4.38c0-1.67,0.42-3.14,1.26-4.409
				c0.84-1.24,1.968-2.192,3.384-2.856C75.812,59.616,77.354,59.299,79.005,59.299z M79.005,64.03c-0.723,0-1.343,0.161-1.86,0.483
				c-0.557,0.303-0.967,0.723-1.23,1.26c-0.283,0.547-0.425,1.128-0.425,1.743c0,0.996,0.322,1.816,0.967,2.461
				c0.625,0.654,1.475,0.981,2.549,0.981c1.094,0,1.953-0.327,2.578-0.981c0.625-0.625,0.938-1.445,0.938-2.461
				c0-0.615-0.142-1.196-0.425-1.743s-0.693-0.967-1.23-1.26C80.348,64.191,79.728,64.03,79.005,64.03z"/>
			<path fill="#E6FF81" d="M106.207,73.098l-7.441-13.301h6.299l4.116,7.896l4.014-7.896h6.211l-12.319,23.071h-6.123
				L106.207,73.098z"/>
			<path fill="#E6FF81" d="M128.766,59.299c1.66,0,3.198,0.317,4.614,0.952c0.684,0.303,1.313,0.698,1.89,1.187
				s1.079,1.045,1.509,1.67c0.84,1.27,1.26,2.739,1.26,4.409c0,1.68-0.42,3.14-1.26,4.38c-0.859,1.24-1.992,2.188-3.398,2.842
				c-1.436,0.645-2.974,0.967-4.614,0.967c-1.631,0-3.174-0.322-4.629-0.967c-0.703-0.342-1.336-0.744-1.896-1.208
				c-0.562-0.464-1.058-1.009-1.487-1.634c-0.84-1.24-1.26-2.7-1.26-4.38c0-1.67,0.42-3.14,1.26-4.409
				c0.84-1.24,1.968-2.192,3.384-2.856C125.572,59.616,127.115,59.299,128.766,59.299z M128.766,64.03
				c-0.723,0-1.343,0.161-1.86,0.483c-0.557,0.303-0.967,0.723-1.23,1.26c-0.283,0.547-0.425,1.128-0.425,1.743
				c0,0.996,0.322,1.816,0.967,2.461c0.625,0.654,1.475,0.981,2.549,0.981c1.094,0,1.953-0.327,2.578-0.981
				c0.625-0.625,0.938-1.445,0.938-2.461c0-0.615-0.142-1.196-0.425-1.743s-0.693-0.967-1.23-1.26
				C130.108,64.191,129.488,64.03,128.766,64.03z"/>
			<path fill="#E6FF81" d="M140.411,59.797h5.449v8.232c0,1.084,0.19,1.914,0.571,2.49c0.391,0.557,1.113,0.835,2.168,0.835
				s1.772-0.275,2.153-0.828c0.381-0.551,0.571-1.384,0.571-2.497v-8.232h5.464v9.272c0,4.424-2.729,6.636-8.188,6.636
				s-8.188-2.212-8.188-6.636V59.797z"/>
			<path fill="#E6FF81" d="M170.382,75.192V50.29h5.449v11.016c0.596-0.654,1.299-1.157,2.109-1.509
				c0.889-0.332,1.777-0.498,2.666-0.498c1.123,0,2.163,0.21,3.12,0.63c0.967,0.459,1.787,1.058,2.461,1.795
				s1.201,1.608,1.582,2.614c0.361,0.967,0.542,2.017,0.542,3.149c0,1.465-0.327,2.822-0.981,4.072
				c-0.645,1.25-1.567,2.261-2.769,3.032c-1.191,0.742-2.529,1.113-4.014,1.113c-0.977,0-1.865-0.19-2.666-0.571
				c-0.85-0.371-1.514-0.923-1.992-1.655h-0.059v1.714H170.382z M179.171,64.03c-0.723,0-1.343,0.161-1.86,0.483
				c-0.557,0.303-0.967,0.723-1.23,1.26c-0.283,0.518-0.425,1.099-0.425,1.743c0,1.016,0.312,1.836,0.938,2.461
				c0.625,0.654,1.484,0.981,2.578,0.981s1.953-0.327,2.578-0.981c0.615-0.615,0.923-1.436,0.923-2.461
				c0-0.635-0.137-1.216-0.41-1.743c-0.273-0.537-0.684-0.957-1.23-1.26C180.514,64.191,179.894,64.03,179.171,64.03z"/>
			<path fill="#E6FF81" d="M206.827,67.839v0.571h-11.484c0,2.285,1.138,3.428,3.413,3.428c1.172,0,2.041-0.474,2.607-1.421h5.259
				c-0.273,1.162-0.806,2.144-1.597,2.944c-0.752,0.781-1.68,1.372-2.783,1.772c-1.074,0.381-2.227,0.571-3.457,0.571
				c-1.68,0-3.211-0.322-4.593-0.967s-2.438-1.572-3.171-2.783c-0.762-1.25-1.143-2.729-1.143-4.438c0-1.65,0.361-3.11,1.084-4.38
				c0.732-1.26,1.733-2.212,3.003-2.856c1.279-0.654,2.759-0.981,4.438-0.981c1.318,0,2.505,0.2,3.56,0.601
				c1.045,0.381,1.929,0.938,2.651,1.67c0.703,0.732,1.25,1.636,1.641,2.71C206.637,65.285,206.827,66.472,206.827,67.839z
				 M195.431,65.261h6.328c-0.117-0.723-0.479-1.313-1.084-1.772c-0.566-0.439-1.235-0.659-2.007-0.659
				c-0.811,0-1.509,0.21-2.095,0.63C195.958,63.898,195.577,64.499,195.431,65.261z"/>
			<path fill="#E6FF81" d="M215.279,64.309v10.884h-5.449V64.309h-1.772v-4.512h1.772v-4.614h5.449v4.614h3.091v4.512H215.279z"/>
			<path fill="#E6FF81" d="M234.205,59.797l3.838,8.35l3.867-8.35h3.237l3.882,8.35l3.867-8.35h6.035l-8.042,15.396h-3.545
				l-3.809-8.423l-3.809,8.423h-3.545l-8.042-15.396H234.205z"/>
			<path fill="#E6FF81" d="M276.085,67.839v0.571h-11.484c0,2.285,1.138,3.428,3.413,3.428c1.172,0,2.041-0.474,2.607-1.421h5.259
				c-0.273,1.162-0.806,2.144-1.597,2.944c-0.752,0.781-1.68,1.372-2.783,1.772c-1.074,0.381-2.227,0.571-3.457,0.571
				c-1.68,0-3.211-0.322-4.593-0.967s-2.438-1.572-3.171-2.783c-0.762-1.25-1.143-2.729-1.143-4.438c0-1.65,0.361-3.11,1.084-4.38
				c0.732-1.26,1.733-2.212,3.003-2.856c1.279-0.654,2.759-0.981,4.438-0.981c1.318,0,2.505,0.2,3.56,0.601
				c1.045,0.381,1.929,0.938,2.651,1.67c0.703,0.732,1.25,1.636,1.641,2.71C275.895,65.285,276.085,66.472,276.085,67.839z
				 M264.688,65.261h6.328c-0.117-0.723-0.479-1.313-1.084-1.772c-0.566-0.439-1.235-0.659-2.007-0.659
				c-0.811,0-1.509,0.21-2.095,0.63C265.216,63.898,264.835,64.499,264.688,65.261z"/>
			<path fill="#E6FF81" d="M305.689,59.797v15.396h-5.464v-1.714h-0.059c-0.439,0.693-1.089,1.245-1.948,1.655
				c-0.85,0.381-1.748,0.571-2.695,0.571c-1.475,0-2.808-0.381-3.999-1.143c-1.201-0.742-2.129-1.743-2.783-3.003
				c-0.664-1.27-0.996-2.627-0.996-4.072c0-1.133,0.19-2.173,0.571-3.12c0.371-1.025,0.903-1.909,1.597-2.651
				c0.703-0.762,1.519-1.355,2.446-1.779c0.928-0.426,1.958-0.638,3.091-0.638c0.908,0,1.802,0.166,2.681,0.498
				c0.84,0.352,1.538,0.854,2.095,1.509v-1.509H305.689z M296.9,64.03c-0.752,0-1.372,0.161-1.86,0.483
				c-0.557,0.303-0.967,0.723-1.23,1.26c-0.283,0.518-0.425,1.099-0.425,1.743c0,1.016,0.312,1.836,0.938,2.461
				c0.625,0.654,1.484,0.981,2.578,0.981s1.953-0.327,2.578-0.981c0.615-0.615,0.923-1.436,0.923-2.461
				c0-0.635-0.137-1.216-0.41-1.743c-0.283-0.547-0.693-0.967-1.23-1.26C298.272,64.191,297.652,64.03,296.9,64.03z"/>
			<path fill="#E6FF81" d="M314.786,59.797v2.52h0.059c1.006-1.816,2.666-2.725,4.98-2.725h1.04v5.244
				c-0.645-0.332-1.411-0.498-2.3-0.498c-1.387,0-2.368,0.41-2.944,1.23c-0.557,0.781-0.835,1.919-0.835,3.413v6.211h-5.464V59.797
				H314.786z"/>
			<path fill="#E6FF81" d="M338.722,67.839v0.571h-11.484c0,2.285,1.138,3.428,3.413,3.428c1.172,0,2.041-0.474,2.607-1.421h5.259
				c-0.273,1.162-0.806,2.144-1.597,2.944c-0.752,0.781-1.68,1.372-2.783,1.772c-1.074,0.381-2.227,0.571-3.457,0.571
				c-1.68,0-3.211-0.322-4.593-0.967s-2.438-1.572-3.171-2.783c-0.762-1.25-1.143-2.729-1.143-4.438c0-1.65,0.361-3.11,1.084-4.38
				c0.732-1.26,1.733-2.212,3.003-2.856c1.279-0.654,2.759-0.981,4.438-0.981c1.318,0,2.505,0.2,3.56,0.601
				c1.045,0.381,1.929,0.938,2.651,1.67c0.703,0.732,1.25,1.636,1.641,2.71C338.531,65.285,338.722,66.472,338.722,67.839z
				 M327.325,65.261h6.328c-0.117-0.723-0.479-1.313-1.084-1.772c-0.566-0.439-1.235-0.659-2.007-0.659
				c-0.811,0-1.509,0.21-2.095,0.63C327.853,63.898,327.472,64.499,327.325,65.261z"/>
			<path fill="#E6FF81" d="M363.492,60.28l-1.831,3.486c-0.898-0.498-1.88-0.747-2.944-0.747c-0.391,0-0.776,0.088-1.157,0.264
				c-0.361,0.146-0.542,0.405-0.542,0.776c0,0.254,0.088,0.454,0.264,0.601c0.186,0.186,0.396,0.317,0.63,0.396
				c0.391,0.127,0.649,0.195,0.776,0.205c0.146,0.02,0.41,0.068,0.791,0.146c2.979,0.605,4.468,2.129,4.468,4.57
				c0,1.27-0.342,2.339-1.025,3.208c-0.684,0.85-1.582,1.489-2.695,1.919c-1.172,0.4-2.354,0.601-3.545,0.601
				c-2.207,0-4.277-0.591-6.211-1.772l1.978-3.809c0.547,0.391,1.26,0.752,2.139,1.084c0.781,0.312,1.509,0.469,2.183,0.469
				c0.449,0,0.84-0.098,1.172-0.293c0.361-0.205,0.542-0.493,0.542-0.864c0-0.391-0.151-0.674-0.454-0.85
				c-0.273-0.166-0.664-0.317-1.172-0.454c-0.664-0.166-1.26-0.303-1.787-0.41c-1.006-0.264-1.836-0.693-2.49-1.289
				c-0.625-0.596-0.938-1.519-0.938-2.769c0-1.182,0.322-2.192,0.967-3.032c0.654-0.84,1.484-1.445,2.49-1.816
				c1.055-0.4,2.163-0.601,3.325-0.601C360.348,59.299,362.037,59.626,363.492,60.28z"/>
			<path fill="#E6FF81" d="M382.696,67.839v0.571h-11.484c0,2.285,1.138,3.428,3.413,3.428c1.172,0,2.041-0.474,2.607-1.421h5.259
				c-0.273,1.162-0.806,2.144-1.597,2.944c-0.752,0.781-1.68,1.372-2.783,1.772c-1.074,0.381-2.227,0.571-3.457,0.571
				c-1.68,0-3.211-0.322-4.593-0.967s-2.438-1.572-3.171-2.783c-0.762-1.25-1.143-2.729-1.143-4.438c0-1.65,0.361-3.11,1.084-4.38
				c0.732-1.26,1.733-2.212,3.003-2.856c1.279-0.654,2.759-0.981,4.438-0.981c1.318,0,2.505,0.2,3.56,0.601
				c1.045,0.381,1.929,0.938,2.651,1.67c0.703,0.732,1.25,1.636,1.641,2.71C382.506,65.285,382.696,66.472,382.696,67.839z
				 M371.3,65.261h6.328c-0.117-0.723-0.479-1.313-1.084-1.772c-0.566-0.439-1.235-0.659-2.007-0.659
				c-0.811,0-1.509,0.21-2.095,0.63C371.827,63.898,371.446,64.499,371.3,65.261z"/>
			<path fill="#E6FF81" d="M390.65,59.797v2.52h0.059c1.006-1.816,2.666-2.725,4.98-2.725h1.04v5.244
				c-0.645-0.332-1.411-0.498-2.3-0.498c-1.387,0-2.368,0.41-2.944,1.23c-0.557,0.781-0.835,1.919-0.835,3.413v6.211h-5.464V59.797
				H390.65z"/>
			<path fill="#E6FF81" d="M401.505,50.832c0.537,0,1.05,0.142,1.538,0.425c0.469,0.264,0.835,0.63,1.099,1.099
				c0.283,0.488,0.425,1.001,0.425,1.538s-0.142,1.047-0.425,1.531c-0.283,0.482-0.649,0.852-1.099,1.105
				c-0.488,0.283-1.001,0.425-1.538,0.425c-0.527,0-1.035-0.142-1.523-0.425c-0.459-0.244-0.83-0.615-1.113-1.113
				c-0.283-0.508-0.425-1.016-0.425-1.523s0.142-1.021,0.425-1.538c0.264-0.469,0.635-0.835,1.113-1.099
				C400.47,50.974,400.978,50.832,401.505,50.832z M404.244,59.797v15.396h-5.464V59.797H404.244z"/>
			<path fill="#E6FF81" d="M415.963,59.299c1.66,0,3.198,0.317,4.614,0.952c0.684,0.303,1.313,0.698,1.89,1.187
				s1.079,1.045,1.509,1.67c0.84,1.27,1.26,2.739,1.26,4.409c0,1.68-0.42,3.14-1.26,4.38c-0.859,1.24-1.992,2.188-3.398,2.842
				c-1.436,0.645-2.974,0.967-4.614,0.967c-1.631,0-3.174-0.322-4.629-0.967c-0.703-0.342-1.336-0.744-1.896-1.208
				c-0.562-0.464-1.058-1.009-1.487-1.634c-0.84-1.24-1.26-2.7-1.26-4.38c0-1.67,0.42-3.14,1.26-4.409
				c0.84-1.24,1.968-2.192,3.384-2.856C412.77,59.616,414.312,59.299,415.963,59.299z M415.963,64.03
				c-0.723,0-1.343,0.161-1.86,0.483c-0.557,0.303-0.967,0.723-1.23,1.26c-0.283,0.547-0.425,1.128-0.425,1.743
				c0,0.996,0.322,1.816,0.967,2.461c0.625,0.654,1.475,0.981,2.549,0.981c1.094,0,1.953-0.327,2.578-0.981
				c0.625-0.625,0.938-1.445,0.938-2.461c0-0.615-0.142-1.196-0.425-1.743s-0.693-0.967-1.23-1.26
				C417.306,64.191,416.686,64.03,415.963,64.03z"/>
			<path fill="#E6FF81" d="M427.608,59.797h5.449v8.232c0,1.084,0.19,1.914,0.571,2.49c0.391,0.557,1.113,0.835,2.168,0.835
				s1.772-0.275,2.153-0.828c0.381-0.551,0.571-1.384,0.571-2.497v-8.232h5.464v9.272c0,4.424-2.729,6.636-8.188,6.636
				s-8.188-2.212-8.188-6.636V59.797z"/>
			<path fill="#E6FF81" d="M459.469,60.28l-1.831,3.486c-0.898-0.498-1.88-0.747-2.944-0.747c-0.391,0-0.776,0.088-1.157,0.264
				c-0.361,0.146-0.542,0.405-0.542,0.776c0,0.254,0.088,0.454,0.264,0.601c0.186,0.186,0.396,0.317,0.63,0.396
				c0.391,0.127,0.649,0.195,0.776,0.205c0.146,0.02,0.41,0.068,0.791,0.146c2.979,0.605,4.468,2.129,4.468,4.57
				c0,1.27-0.342,2.339-1.025,3.208c-0.684,0.85-1.582,1.489-2.695,1.919c-1.172,0.4-2.354,0.601-3.545,0.601
				c-2.207,0-4.277-0.591-6.211-1.772l1.978-3.809c0.547,0.391,1.26,0.752,2.139,1.084c0.781,0.312,1.509,0.469,2.183,0.469
				c0.449,0,0.84-0.098,1.172-0.293c0.361-0.205,0.542-0.493,0.542-0.864c0-0.391-0.151-0.674-0.454-0.85
				c-0.273-0.166-0.664-0.317-1.172-0.454c-0.664-0.166-1.26-0.303-1.787-0.41c-1.006-0.264-1.836-0.693-2.49-1.289
				c-0.625-0.596-0.938-1.519-0.938-2.769c0-1.182,0.322-2.192,0.967-3.032c0.654-0.84,1.484-1.445,2.49-1.816
				c1.055-0.4,2.163-0.601,3.325-0.601C456.324,59.299,458.014,59.626,459.469,60.28z"/>
			<path fill="#E6FF81" d="M476.959,59.797l3.838,8.35l3.867-8.35h3.237l3.882,8.35l3.867-8.35h6.035l-8.042,15.396h-3.545
				l-3.809-8.423l-3.809,8.423h-3.545l-8.042-15.396H476.959z"/>
			<path fill="#E6FF81" d="M503.033,50.29h5.464v11.455h0.059c0.645-0.85,1.353-1.465,2.124-1.846c0.82-0.4,1.753-0.601,2.798-0.601
				c1.904,0,3.34,0.576,4.307,1.729c0.986,1.133,1.479,2.715,1.479,4.746v9.419H513.8v-7.896c0-1.143-0.161-2.031-0.483-2.666
				c-0.322-0.654-0.981-0.981-1.978-0.981c-1.016,0-1.743,0.347-2.183,1.04s-0.659,1.562-0.659,2.607v7.896h-5.464V50.29z"/>
			<path fill="#E6FF81" d="M538.673,67.839v0.571h-11.484c0,2.285,1.138,3.428,3.413,3.428c1.172,0,2.041-0.474,2.607-1.421h5.259
				c-0.273,1.162-0.806,2.144-1.597,2.944c-0.752,0.781-1.68,1.372-2.783,1.772c-1.074,0.381-2.227,0.571-3.457,0.571
				c-1.68,0-3.211-0.322-4.593-0.967s-2.438-1.572-3.171-2.783c-0.762-1.25-1.143-2.729-1.143-4.438c0-1.65,0.361-3.11,1.084-4.38
				c0.732-1.26,1.733-2.212,3.003-2.856c1.279-0.654,2.759-0.981,4.438-0.981c1.318,0,2.505,0.2,3.56,0.601
				c1.045,0.381,1.929,0.938,2.651,1.67c0.703,0.732,1.25,1.636,1.641,2.71C538.482,65.285,538.673,66.472,538.673,67.839z
				 M527.276,65.261h6.328c-0.117-0.723-0.479-1.313-1.084-1.772c-0.566-0.439-1.235-0.659-2.007-0.659
				c-0.811,0-1.509,0.21-2.095,0.63C527.804,63.898,527.423,64.499,527.276,65.261z"/>
			<path fill="#E6FF81" d="M546.627,59.797v1.992h0.059c0.586-0.889,1.274-1.533,2.065-1.934c0.781-0.371,1.733-0.557,2.856-0.557
				c1.309,0,2.407,0.259,3.296,0.776c0.859,0.537,1.489,1.274,1.89,2.212c0.4,0.977,0.601,2.109,0.601,3.398v9.507h-5.464v-7.5
				v-0.718c0-0.996-0.161-1.797-0.483-2.402c-0.283-0.615-0.942-0.923-1.978-0.923c-1.895,0-2.842,1.187-2.842,3.56v7.983h-5.464
				V59.797H546.627z"/>
			<path fill="#E6FF81" d="M575.089,59.797l3.838,8.35l3.867-8.35h3.237l3.882,8.35l3.867-8.35h6.035l-8.042,15.396h-3.545
				l-3.809-8.423l-3.809,8.423h-3.545l-8.042-15.396H575.089z"/>
			<path fill="#E6FF81" d="M616.969,67.839v0.571h-11.484c0,2.285,1.138,3.428,3.413,3.428c1.172,0,2.041-0.474,2.607-1.421h5.259
				c-0.273,1.162-0.806,2.144-1.597,2.944c-0.752,0.781-1.68,1.372-2.783,1.772c-1.074,0.381-2.227,0.571-3.457,0.571
				c-1.68,0-3.211-0.322-4.593-0.967s-2.438-1.572-3.171-2.783c-0.762-1.25-1.143-2.729-1.143-4.438c0-1.65,0.361-3.11,1.084-4.38
				c0.732-1.26,1.733-2.212,3.003-2.856c1.279-0.654,2.759-0.981,4.438-0.981c1.318,0,2.505,0.2,3.56,0.601
				c1.045,0.381,1.929,0.938,2.651,1.67c0.703,0.732,1.25,1.636,1.641,2.71C616.778,65.285,616.969,66.472,616.969,67.839z
				 M605.572,65.261h6.328c-0.117-0.723-0.479-1.313-1.084-1.772c-0.566-0.439-1.235-0.659-2.007-0.659
				c-0.811,0-1.509,0.21-2.095,0.63C606.1,63.898,605.719,64.499,605.572,65.261z"/>
			<path fill="#E6FF81" d="M641.739,60.28l-1.831,3.486c-0.898-0.498-1.88-0.747-2.944-0.747c-0.391,0-0.776,0.088-1.157,0.264
				c-0.361,0.146-0.542,0.405-0.542,0.776c0,0.254,0.088,0.454,0.264,0.601c0.186,0.186,0.396,0.317,0.63,0.396
				c0.391,0.127,0.649,0.195,0.776,0.205c0.146,0.02,0.41,0.068,0.791,0.146c2.979,0.605,4.468,2.129,4.468,4.57
				c0,1.27-0.342,2.339-1.025,3.208c-0.684,0.85-1.582,1.489-2.695,1.919c-1.172,0.4-2.354,0.601-3.545,0.601
				c-2.207,0-4.277-0.591-6.211-1.772l1.978-3.809c0.547,0.391,1.26,0.752,2.139,1.084c0.781,0.312,1.509,0.469,2.183,0.469
				c0.449,0,0.84-0.098,1.172-0.293c0.361-0.205,0.542-0.493,0.542-0.864c0-0.391-0.151-0.674-0.454-0.85
				c-0.273-0.166-0.664-0.317-1.172-0.454c-0.664-0.166-1.26-0.303-1.787-0.41c-1.006-0.264-1.836-0.693-2.49-1.289
				c-0.625-0.596-0.938-1.519-0.938-2.769c0-1.182,0.322-2.192,0.967-3.032c0.654-0.84,1.484-1.445,2.49-1.816
				c1.055-0.4,2.163-0.601,3.325-0.601C638.595,59.299,640.284,59.626,641.739,60.28z"/>
			<path fill="#E6FF81" d="M661.969,59.797v15.396h-5.464v-1.714h-0.059c-0.439,0.693-1.089,1.245-1.948,1.655
				c-0.85,0.381-1.748,0.571-2.695,0.571c-1.475,0-2.808-0.381-3.999-1.143c-1.201-0.742-2.129-1.743-2.783-3.003
				c-0.664-1.27-0.996-2.627-0.996-4.072c0-1.133,0.19-2.173,0.571-3.12c0.371-1.025,0.903-1.909,1.597-2.651
				c0.703-0.762,1.519-1.355,2.446-1.779c0.928-0.426,1.958-0.638,3.091-0.638c0.908,0,1.802,0.166,2.681,0.498
				c0.84,0.352,1.538,0.854,2.095,1.509v-1.509H661.969z M653.18,64.03c-0.752,0-1.372,0.161-1.86,0.483
				c-0.557,0.303-0.967,0.723-1.23,1.26c-0.283,0.518-0.425,1.099-0.425,1.743c0,1.016,0.312,1.836,0.938,2.461
				c0.625,0.654,1.484,0.981,2.578,0.981s1.953-0.327,2.578-0.981c0.615-0.615,0.923-1.436,0.923-2.461
				c0-0.635-0.137-1.216-0.41-1.743c-0.283-0.547-0.693-0.967-1.23-1.26C654.552,64.191,653.932,64.03,653.18,64.03z"/>
			<path fill="#E6FF81" d="M670.787,73.098l-7.441-13.301h6.299l4.116,7.896l4.014-7.896h6.211l-12.319,23.071h-6.123
				L670.787,73.098z"/>
			<path fill="#E6FF81" d="M701.461,64.309v10.884h-5.449V64.309h-1.772v-4.512h1.772v-4.614h5.449v4.614h3.091v4.512H701.461z"/>
			<path fill="#E6FF81" d="M706.295,50.29h5.464v11.455h0.059c0.645-0.85,1.353-1.465,2.124-1.846c0.82-0.4,1.753-0.601,2.798-0.601
				c1.904,0,3.34,0.576,4.307,1.729c0.986,1.133,1.479,2.715,1.479,4.746v9.419h-5.464v-7.896c0-1.143-0.161-2.031-0.483-2.666
				c-0.322-0.654-0.981-0.981-1.978-0.981c-1.016,0-1.743,0.347-2.183,1.04s-0.659,1.562-0.659,2.607v7.896h-5.464V50.29z"/>
			<path fill="#E6FF81" d="M742.96,59.797v15.396h-5.464v-1.714h-0.059c-0.439,0.693-1.089,1.245-1.948,1.655
				c-0.85,0.381-1.748,0.571-2.695,0.571c-1.475,0-2.808-0.381-3.999-1.143c-1.201-0.742-2.129-1.743-2.783-3.003
				c-0.664-1.27-0.996-2.627-0.996-4.072c0-1.133,0.19-2.173,0.571-3.12c0.371-1.025,0.903-1.909,1.597-2.651
				c0.703-0.762,1.519-1.355,2.446-1.779c0.928-0.426,1.958-0.638,3.091-0.638c0.908,0,1.802,0.166,2.681,0.498
				c0.84,0.352,1.538,0.854,2.095,1.509v-1.509H742.96z M734.171,64.03c-0.752,0-1.372,0.161-1.86,0.483
				c-0.557,0.303-0.967,0.723-1.23,1.26c-0.283,0.518-0.425,1.099-0.425,1.743c0,1.016,0.312,1.836,0.938,2.461
				c0.625,0.654,1.484,0.981,2.578,0.981s1.953-0.327,2.578-0.981c0.615-0.615,0.923-1.436,0.923-2.461
				c0-0.635-0.137-1.216-0.41-1.743c-0.283-0.547-0.693-0.967-1.23-1.26C735.543,64.191,734.923,64.03,734.171,64.03z"/>
			<path fill="#E6FF81" d="M752.555,64.309v10.884h-5.449V64.309h-1.772v-4.512h1.772v-4.614h5.449v4.614h3.091v4.512H752.555z"/>
			<path fill="#E6FF81" d="M804.806,59.797v15.396h-5.464v-1.714h-0.059c-0.439,0.693-1.089,1.245-1.948,1.655
				c-0.85,0.381-1.748,0.571-2.695,0.571c-1.475,0-2.808-0.381-3.999-1.143c-1.201-0.742-2.129-1.743-2.783-3.003
				c-0.664-1.27-0.996-2.627-0.996-4.072c0-1.133,0.19-2.173,0.571-3.12c0.371-1.025,0.903-1.909,1.597-2.651
				c0.703-0.762,1.519-1.355,2.446-1.779c0.928-0.426,1.958-0.638,3.091-0.638c0.908,0,1.802,0.166,2.681,0.498
				c0.84,0.352,1.538,0.854,2.095,1.509v-1.509H804.806z M796.017,64.03c-0.752,0-1.372,0.161-1.86,0.483
				c-0.557,0.303-0.967,0.723-1.23,1.26c-0.283,0.518-0.425,1.099-0.425,1.743c0,1.016,0.312,1.836,0.938,2.461
				c0.625,0.654,1.484,0.981,2.578,0.981s1.953-0.327,2.578-0.981c0.615-0.615,0.923-1.436,0.923-2.461
				c0-0.635-0.137-1.216-0.41-1.743c-0.283-0.547-0.693-0.967-1.23-1.26C797.389,64.191,796.769,64.03,796.017,64.03z"/>
			<path fill="#E6FF81" d="M824.244,67.839v0.571H812.76c0,2.285,1.138,3.428,3.413,3.428c1.172,0,2.041-0.474,2.607-1.421h5.259
				c-0.273,1.162-0.806,2.144-1.597,2.944c-0.752,0.781-1.68,1.372-2.783,1.772c-1.074,0.381-2.227,0.571-3.457,0.571
				c-1.68,0-3.211-0.322-4.593-0.967s-2.438-1.572-3.171-2.783c-0.762-1.25-1.143-2.729-1.143-4.438c0-1.65,0.361-3.11,1.084-4.38
				c0.732-1.26,1.733-2.212,3.003-2.856c1.279-0.654,2.759-0.981,4.438-0.981c1.318,0,2.505,0.2,3.56,0.601
				c1.045,0.381,1.929,0.938,2.651,1.67c0.703,0.732,1.25,1.636,1.641,2.71C824.054,65.285,824.244,66.472,824.244,67.839z
				 M812.848,65.261h6.328c-0.117-0.723-0.479-1.313-1.084-1.772c-0.566-0.439-1.235-0.659-2.007-0.659
				c-0.811,0-1.509,0.21-2.095,0.63C813.375,63.898,812.994,64.499,812.848,65.261z"/>
			<path fill="#E6FF81" d="M853.849,59.797v15.396h-5.464v-1.714h-0.059c-0.439,0.693-1.089,1.245-1.948,1.655
				c-0.85,0.381-1.748,0.571-2.695,0.571c-1.475,0-2.808-0.381-3.999-1.143c-1.201-0.742-2.129-1.743-2.783-3.003
				c-0.664-1.27-0.996-2.627-0.996-4.072c0-1.133,0.19-2.173,0.571-3.12c0.371-1.025,0.903-1.909,1.597-2.651
				c0.703-0.762,1.519-1.355,2.446-1.779c0.928-0.426,1.958-0.638,3.091-0.638c0.908,0,1.802,0.166,2.681,0.498
				c0.84,0.352,1.538,0.854,2.095,1.509v-1.509H853.849z M845.06,64.03c-0.752,0-1.372,0.161-1.86,0.483
				c-0.557,0.303-0.967,0.723-1.23,1.26c-0.283,0.518-0.425,1.099-0.425,1.743c0,1.016,0.312,1.836,0.938,2.461
				c0.625,0.654,1.484,0.981,2.578,0.981s1.953-0.327,2.578-0.981c0.615-0.615,0.923-1.436,0.923-2.461
				c0-0.635-0.137-1.216-0.41-1.743c-0.283-0.547-0.693-0.967-1.23-1.26C846.432,64.191,845.812,64.03,845.06,64.03z"/>
			<path fill="#E6FF81" d="M862.945,59.797v2.52h0.059c1.006-1.816,2.666-2.725,4.98-2.725h1.04v5.244
				c-0.645-0.332-1.411-0.498-2.3-0.498c-1.387,0-2.368,0.41-2.944,1.23c-0.557,0.781-0.835,1.919-0.835,3.413v6.211h-5.464V59.797
				H862.945z"/>
			<path fill="#E6FF81" d="M886.881,67.839v0.571h-11.484c0,2.285,1.138,3.428,3.413,3.428c1.172,0,2.041-0.474,2.607-1.421h5.259
				c-0.273,1.162-0.806,2.144-1.597,2.944c-0.752,0.781-1.68,1.372-2.783,1.772c-1.074,0.381-2.227,0.571-3.457,0.571
				c-1.68,0-3.211-0.322-4.593-0.967s-2.438-1.572-3.171-2.783c-0.762-1.25-1.143-2.729-1.143-4.438c0-1.65,0.361-3.11,1.084-4.38
				c0.732-1.26,1.733-2.212,3.003-2.856c1.279-0.654,2.759-0.981,4.438-0.981c1.318,0,2.505,0.2,3.56,0.601
				c1.045,0.381,1.929,0.938,2.651,1.67c0.703,0.732,1.25,1.636,1.641,2.71C886.69,65.285,886.881,66.472,886.881,67.839z
				 M875.484,65.261h6.328c-0.117-0.723-0.479-1.313-1.084-1.772c-0.566-0.439-1.235-0.659-2.007-0.659
				c-0.811,0-1.509,0.21-2.095,0.63C876.012,63.898,875.631,64.499,875.484,65.261z"/>
		</g>
		<g>
			<path fill="#E6FF81" d="M767.535,75.192V50.29h5.449v11.016c0.596-0.654,1.299-1.157,2.109-1.509
				c0.889-0.332,1.777-0.498,2.666-0.498c1.123,0,2.163,0.21,3.12,0.63c0.967,0.459,1.787,1.058,2.461,1.795
				s1.201,1.608,1.582,2.614c0.361,0.967,0.542,2.017,0.542,3.149c0,1.465-0.327,2.822-0.981,4.072
				c-0.645,1.25-1.567,2.261-2.769,3.032c-1.191,0.742-2.529,1.113-4.014,1.113c-0.977,0-1.865-0.19-2.666-0.571
				c-0.85-0.371-1.514-0.923-1.992-1.655h-0.059v1.714H767.535z M776.324,64.03c-0.723,0-1.343,0.161-1.86,0.483
				c-0.557,0.303-0.967,0.723-1.23,1.26c-0.283,0.518-0.425,1.099-0.425,1.743c0,1.016,0.312,1.836,0.938,2.461
				c0.625,0.654,1.484,0.981,2.578,0.981s1.953-0.327,2.578-0.981c0.615-0.615,0.923-1.436,0.923-2.461
				c0-0.635-0.137-1.216-0.41-1.743c-0.273-0.537-0.684-0.957-1.23-1.26C777.667,64.191,777.047,64.03,776.324,64.03z"/>
		</g>
		<g>
			<g>
				<g>
					<g>
						<g>
							<path fill="#FF20B0" d="M825.037,63.231c0.005-0.175-0.074-0.558-0.149-0.468l0.04,0.664L825.037,63.231z"/>
							<path fill="#FF20B0" d="M824.257,62.113c-0.054,0.333-0.085,0.909,0.077,1.499c0.003-0.645,0.068-0.386,0.061-1.151
								c0.076-0.09,0.187,0.186,0.209,0.429c0.005-0.173,0.159,0.122,0.142-0.296c-0.193-0.488-0.341-0.486-0.427-0.044
								C824.264,62.41,824.269,62.235,824.257,62.113z"/>
							<path fill="#FF20B0" d="M815.528,62.44l0.067,0.069C815.574,62.469,815.552,62.448,815.528,62.44z"/>
							<path fill="#FF20B0" d="M810.164,62.917c0.037-0.022,0.044-0.09,0.037-0.149C810.17,62.816,810.146,62.861,810.164,62.917z"
								/>
							<path fill="#FF20B0" d="M809.144,62.339c0.022,0.018,0.041,0.023,0.061,0.035C809.174,62.317,809.148,62.287,809.144,62.339z
								"/>
							<path fill="#FF20B0" d="M815.528,62.44l-0.174-0.183C815.378,62.473,815.452,62.404,815.528,62.44z"/>
							<path fill="#FF20B0" d="M823.323,63.876c0.024-0.036,0.04-0.101,0.05-0.184c-0.02,0.032-0.039,0.06-0.062,0.08
								C823.315,63.809,823.319,63.839,823.323,63.876z"/>
							<path fill="#FF20B0" d="M817.785,61.543l0.043-0.008c-0.002-0.078-0.004-0.169-0.006-0.271L817.785,61.543z"/>
							<path fill="#FF20B0" d="M819.565,61.16c-0.044-0.018,0.028,0.539,0.052,0.784c-0.014-0.231,0-0.346,0.028-0.395
								C819.63,61.444,819.604,61.318,819.565,61.16z"/>
							<path fill="#FF20B0" d="M822.566,61.688l0.039-0.084C822.596,61.631,822.577,61.656,822.566,61.688z"/>
							<path fill="#FF20B0" d="M816.48,61.625c-0.016-0.082-0.033-0.154-0.047-0.196C816.444,61.498,816.461,61.563,816.48,61.625z"
								/>
							<path fill="#FF20B0" d="M766.904,73.696c-0.006-0.039-0.01-0.064-0.016-0.099C766.888,73.655,766.891,73.695,766.904,73.696z
								"/>
							<polygon fill="#FF20B0" points="764.391,71.273 764.415,71.239 764.372,70.927 							"/>
							<path fill="#FF20B0" d="M807.373,61.888l0.01,0.01C807.416,61.827,807.393,61.842,807.373,61.888z"/>
							<path fill="#FF20B0" d="M792.21,64.691c0.251,0.47-0.181,0.682,0.166,1.192C792.317,65.67,792.476,64.98,792.21,64.691z"/>
							<path fill="#FF20B0" d="M823.266,63.811c-0.023,0.01-0.048,0.019-0.073,0.018C823.229,63.841,823.251,63.836,823.266,63.811z
								"/>
							<path fill="#FF20B0" d="M792.376,65.884l0.001,0.005l0.035,0.048C792.397,65.915,792.389,65.902,792.376,65.884z"/>
							<path fill="#FF20B0" d="M803.604,62.822c0.023,0.097,0.051,0.169,0.077,0.237C803.671,63.003,803.65,62.935,803.604,62.822z"
								/>
							<path fill="#FF20B0" d="M806.575,63.165l-0.082-0.063C806.529,63.148,806.555,63.162,806.575,63.165z"/>
							<path fill="#FF20B0" d="M802.249,63.839c-0.046-0.036-0.07-0.111-0.11-0.028c0.01,0.026,0.018,0.045,0.025,0.065
								C802.172,63.797,802.191,63.758,802.249,63.839z"/>
							<path fill="#FF20B0" d="M800.711,64.084c0.016,0.039,0.03,0.071,0.045,0.107l0.045-0.037L800.711,64.084z"/>
							<path fill="#FF20B0" d="M771.539,72.694c-0.059-0.151-0.106-0.32-0.149-0.488C771.476,72.598,771.271,72.773,771.539,72.694z
								"/>
							<path fill="#FF20B0" d="M823.273,63.564c0.013,0.141,0.011,0.213-0.008,0.246c0.017-0.009,0.031-0.022,0.046-0.038
								C823.303,63.689,823.292,63.611,823.273,63.564z"/>
							<path fill="#FF20B0" d="M802.875,68.229l-0.258-0.043C802.694,68.229,802.788,68.243,802.875,68.229z"/>
							<path fill="#FF20B0" d="M782.565,70.879l-0.046,0.075C782.544,70.964,782.561,70.944,782.565,70.879z"/>
							<path fill="#FF20B0" d="M801.905,68.383c-0.075-0.189-0.139-0.296-0.198-0.362c-0.003,0.045-0.01,0.082-0.006,0.147
								L801.905,68.383z"/>
							<path fill="#FF20B0" d="M771.389,72.201c0,0.002,0.001,0.005,0.001,0.005S771.389,72.203,771.389,72.201z"/>
							<path fill="#FF20B0" d="M769.985,73.772c0.235-0.021-0.003-0.731-0.02-1.158c0.245-0.251,0.213,0.517,0.366,0.876
								c0.144-0.221,0.172-0.912,0.306-0.903c0.028,0.118,0.061,0.158,0.055,0.313c0.092-0.609,0.54-0.114,0.64-0.877
								c0.025,0.062,0.043,0.122,0.057,0.178c-0.093-0.36-0.156-0.731-0.191-0.997c0.104-0.029,0.122-0.491,0.236-0.021
								c-0.066-0.004-0.041,0.189-0.048,0.343l0.077-0.224c0.206,0.67-0.112,0.26-0.033,0.768c0.179-0.257,0.338-0.863,0.532-0.695
								c0.14,0.666-0.347,0.286-0.035,0.849l-0.293-0.217c0.36,1.028-0.165-0.05,0.19,1.055c0.363,0.142,0.318-0.4,0.682-0.257
								c0.016-0.385-0.111-0.548-0.096-0.933c0.367-0.744,0.637,1.629,0.844,0.681c0.02-0.462-0.079-1.316,0.238-0.906l0.035,0.772
								c0.334,0.024,0.013-1.119,0.43-0.662c-0.013,0.308-0.213,0.291-0.15,0.373c0.312,0.565,0.087-0.454,0.256-0.48l0.14,0.666
								c0.327-0.159,0.628-0.704,0.989-0.886c0.011,0.202-0.021,0.423,0.1,0.614c0.427-0.411,1.036-0.079,1.561,0.247l0.086-0.607
								c0.042,0,0.117,0.25,0.091,0.369c0.215,0.191-0.049-0.369,0.002-0.61c0.097-0.057,0.188,0.312,0.15,0.496
								c0.241-0.542,0.739-1.202,1.172-0.633l-0.038,0.183c0.298,0.193,0.107-1.235,0.435-0.732l-0.03,0.109
								c0.605,0.163,1.148-0.467,1.718,0.341c-0.05-0.849,0.619,0.284,0.472-0.887c0.414,0.526,0.354,0.75,0.871,1.066
								c0.13,0.034,0.066-0.756,0.198-0.901l0.099,0.608l0.104-0.671l0.223,0.711l0.116-0.179c-0.062-0.027-0.162-0.254-0.181-0.431
								c0.177-0.311,0.604,0.34,0.658,0.65l0.439-0.597c0.027,0.247-0.047,0.345-0.091,0.512c0.18-0.665,0.151,0.634,0.316,0.023
								c-0.056-0.133-0.039-0.365-0.053-0.489c0.186,0.348,0.476,0.306,0.665,0.117l0.024,0.426c0.404,0.046,0.783-0.329,1.219-0.39
								c-0.187-0.171-0.266-0.904-0.148-0.994l0.151,0.636c0.02-0.411-0.171-0.223-0.079-0.736c0.174,0.049,0.225,0.715,0.164,0.939
								l0.162-0.254c0.042,0.189,0.012,0.298,0.038,0.545c0.018-0.412,0.441,0.593,0.449-0.12l0.041,0.19
								c0.435-0.063,0.597-0.315,0.944-0.403c-0.08-0.557,0.077-0.455,0.112-0.921c0.287,0.137,0.644,0.528,0.949,0.432
								c0.177-0.311-0.01-0.48,0.037-0.826c0.096,0.503,0.401,0.407,0.296,0.796c0.362-0.142,0.464-0.177,0.874-0.662
								c-0.084-0.199-0.156-0.28-0.153-0.457c0.073-0.097,0.229,0.181,0.255,0.426l-0.015,0.057c0.414-0.843,1.463,1.281,1.721,0.16
								l-0.016,0.056l0.354-0.619c0.217,0.056-0.062,0.399,0.138,0.689c0.343-0.919,0.77,0.004,1.072-0.62
								c0.537,1.445,1.058-0.273,1.615,0.615l-0.079-0.348c0.052-0.361,0.16,0.181,0.25,0.249c-0.054-0.271-0.164-0.298-0.129-0.499
								c0.828-0.564,1.927,0.224,2.894,0.396c0.351,0.041-0.096-1.849,0.46-1.076l-0.018,0.672c0.553-0.889,1.388-0.19,1.945-0.959
								c-0.016,0.156,0.014,0.353-0.051,0.36c0.215,0.452,0.521-0.059,0.463-0.445c0.109,0.027,0.078,0.346,0.173,0.532
								c0.185,0.258,0.257-0.66,0.406-0.2c0.024,0.074-0.016,0.16-0.035,0.2c0.056-0.243,0.435-0.008,0.262-0.541
								c0.29,0.222,0.438-0.318,0.687-0.025c0.033-0.633,0.472,0.227,0.377-0.645c0.123,0.896,0.549,0.652,0.641,0.207
								c-0.011,0.278,0.181,0.259,0.178,0.643c0.178-0.041,0.315-0.232,0.212-0.687c0.499,1.018,0.529-0.965,0.931,0.376
								c0.458-0.564,0.9-0.967,1.347-1.251c0.122,0.894-0.517,0.172-0.349,1.104c0.396-0.438,0.539-1.244,1.023-1.101
								c0.137,0.104-0.005,0.397-0.021,0.556c0.396-0.438,0.892-0.057,1.22-0.605c0.012,0.083-0.018,0.181-0.049,0.255
								c0.075-0.042,0.206,0.102,0.134-0.303l-0.061,0.122c-0.22-0.567,0.123-1.277,0.089-1.59c0.047,1.182,0.445,0.229,0.461,1.729
								c0.04-0.085,0.076-0.287,0.021-0.556c0.09,0.066,0.14,0.221,0.109,0.541c0.25-0.265,0.082-0.68,0.342-0.711
								c0.029,0.196-0.011,0.28-0.001,0.515c0.07-0.402,0.142-0.806,0.387-0.675c0.005,0.12,0.055,0.271-0.011,0.277
								c0.366-0.118,0.479-1.118,0.949-0.814c0.013,0.872,0.185,0.259,0.322,0.993l0.187-0.255L810,65.803
								c0.196-0.019,0.283-0.582,0.488-0.367l-0.097,0.327l0.341-0.197l-0.249-0.247c0.137-0.411-0.168-0.931,0.122-0.766
								c-0.04,0.084,0.196-0.021,0.365,0.397v0.002c0.059-0.25,0.119-0.513,0.291-0.353c0.074,0.23,0.098,0.82,0.146,0.974
								c-0.002-0.632,0.428-0.242,0.444-0.918c-0.016,0.161,0.043,0.548,0.069,0.625v-0.514c0.115,0.146,0.141,0.222,0.174,0.533
								c0.285,0.049-0.232-0.923,0.151-0.569c-0.019,0.044,0.005,0.117-0.035,0.201c0.355,0.16,0.572-0.415,0.907-0.216
								c0.204,0.729-0.23,0.223-0.031,0.833c0.405-0.201,0.743-1.028,1.184-0.919l-0.09-0.069c-0.107-1.057,0.389,0.47,0.521-0.058
								c-0.039,0.086,0.024,0.592,0.02,0.474c0.31,0.123,0.538-0.349,0.915-0.746l-0.012,0.278c0.205,0.214,0.461,0.069,0.66,0.163
								c0.012-0.277,0.121-0.249-0.003-0.631c0.796,1.445,0.93-0.988,1.623,0.211c-0.059,0.013-0.104,0.258-0.056,0.252l0.38-0.314
								c-0.104-0.452-0.099-0.268-0.242-0.609c0.011-0.279,0.096-0.508,0.2-0.523c-0.142,0.332,0.116,0.732,0.238,0.975
								c-0.036-0.138-0.032-0.297-0.062-0.438c0.347,0.777-0.107-0.925,0.277-0.425l0.022,0.242c0.092-0.14,0.146-0.473,0.277-0.424
								c0.133,0.521-0.08,0.266-0.02,0.701c0.164-0.057,0.177-1.053,0.413-0.551c-0.049,0.158-0.152,0.177-0.201,0.335
								c0.265,0.594,0.259,0.433,0.399,0.512l-0.015-0.012l0.331,0.235l-0.1-0.157c-0.004-1.41,0.393-0.319,0.537-1.266
								c-0.144,0.897,0.031,0.501,0.104,1.103c0.099,0.154,0.239,0.323,0.234,0.497c0.059-0.504,0.285,0.345,0.365-0.392
								c0.038,0.191,0.147-0.004,0.192,0.485c0.152-0.18-0.094-0.329-0.117-0.573c0.168-0.7,0.762,0.698,1.01-0.266
								c0.277-0.425,0.237-1.085,0.498-1.457c0.154,0.292,0.024,0.715,0.024,0.715c0.214,0.257,0.334,0.186,0.459-0.061
								c-0.006,0.173,0.05,0.31,0.133,0.519c0.12-0.07-0.024-0.715,0.189-0.457c0.005,0.22,0.021,0.568-0.007,0.794
								c0.123-0.201,0.217-0.585,0.346-0.783c0.094,0.329-0.015,0.524-0.035,0.753c0.152-0.18,0.408-0.377,0.379-0.916l-0.143-0.172
								c0.061-0.036,0.104,0.451,0.072,0.556c-0.085,0.44-0.246-0.15-0.285-0.343l0.092-0.141c-0.292-1.112-0.419,0.252-0.654,0.222
								l-0.035-0.837l-0.123,0.718c-0.083-0.206-0.188-0.659-0.097-0.8c-0.225-0.381-0.097,0.314-0.306-0.116
								c-0.027-0.068-0.026-0.109-0.018-0.145l-0.118,0.271c0.004-0.178-0.117-0.576-0.002-0.473
								c-0.357-0.43-0.358,0.688-0.562,0.082l0.016-0.055c-0.349,0.34,0.057,0.609-0.126,1.363l-0.432-1.457l0.057,0.609
								c-0.044-0.016-0.131-0.048-0.154-0.292c-0.085,0.437,0.067,0.259,0.041,0.662c-0.28-0.519-0.496,0.342-0.69-0.612
								c0.002,0.469,0.241,0.324,0.084,0.676c-0.222-1.024-0.212,0.215-0.464-0.231c-0.029-0.542,0.184-0.286-0.069-0.734
								c0.034,0.919-0.377-0.144-0.5,0.053c0.106,0.719-0.278,0.352-0.492,0.63c-0.022-0.244-0.535-0.32-0.811-0.543l-0.012-0.121
								c0.069,0.732-0.194,0.633-0.347,0.811c-0.061-0.436-0.057-0.611,0.009-0.82l-0.165,0.029
								c-0.002,0.238-0.034,0.369-0.129,0.469l-0.043-0.549c-0.216,0.064-0.343,0.708-0.683,0.391
								c0.063,0.509,0.446,1.374,0.2,1.758c-0.054-0.271-0.139-0.737-0.078-0.861c-0.02,0.04-0.055,0.241-0.125,0.133l0.047-0.479
								c-0.16-0.182-0.007,0.396-0.116,0.368c-0.06-0.39-0.12-0.266-0.154-0.578c0.021-0.041,0.115,0.147,0.131-0.012
								c-0.128-0.052-0.304-0.261-0.397-0.549c0.045,0.22,0.083,0.525,0.006,0.589c-0.215,0.063-0.148-0.457-0.309-0.638
								c-0.011,0.279-0.195,0.021-0.107,0.604c-0.064,0.007-0.119-0.263-0.169-0.417c-0.073,0.275-0.52,0.157-0.294,0.757
								l0.035,0.036c-0.003,0.014-0.01,0.015-0.014,0.029l0,0l0,0c-0.282,0.638-0.827-0.209-1.157,0.099l-0.03-0.195
								c-0.186,0.258-0.471,0.209-0.562,0.653c-0.065,0.01-0.211-0.331-0.219-0.568c-0.146,0.174-0.131,0.396-0.425,0.112
								c0.116-0.367-0.106-0.293,0.135-0.277c-0.246-0.134-0.345-0.438-0.497,0.132c0.002-0.512-0.264-0.604-0.344-0.438
								l0.209,0.334c-0.105,0.091-0.215,0.062-0.326,0.036l-0.047-0.666c-0.574-0.729-0.596,1.488-1.147,0.203
								c-0.047,0.479,0.295,0.285,0.272,0.84c-0.22-0.056-0.584-0.966-0.648-0.958c-0.34-0.319-0.113,1.002-0.448,0.8
								c0.075,0.229,0.209,0.849,0.022,1.104c-0.221-0.055-0.408-0.943-0.308-1.152c0.046-0.027,0.082,0.043,0.093,0.123
								c0.053-0.096,0.125-0.21,0.003-0.451l0.011,0.238c-0.141-0.223-0.421-0.153-0.415-0.548
								c-0.121,0.247-0.006,0.395,0.129,0.498c-0.318-0.298-0.416,0.055-0.725-0.131c0.063,0.123,0.147,0.392,0.104,0.396
								c-0.446-0.228-0.106,0.473-0.361,0.618c-0.21-0.334-0.079-0.862-0.305-0.52c-0.205-0.217-0.133-0.617-0.097-0.818
								c-0.178,0.491-0.512-0.225-0.666-0.285l0.101-0.209c-0.061,0.124-0.125,0.131-0.19,0.141l0.148,0.457
								c-0.09-0.07-0.155-0.062-0.185-0.257c-0.031,0.319,0.183,0.771,0.092,1.215c-0.14-0.222-0.271,0.305-0.405-0.312
								c0.355,0.16-0.134-0.62,0.123-0.763c-0.041,0.082-0.105,0.09-0.195,0.02c-0.022-0.068-0.01-0.131,0.006-0.17
								c-0.396-0.508-0.031,0.727-0.354,0.762c-0.014-0.356-0.178-0.653-0.219-0.57c0.13-0.013,0.154,0.575,0.078,0.862
								c-0.248-0.24-0.191,0.238-0.304,0.224l0.143,0.108c0.014,0.357-0.096,0.328-0.222,0.461c-0.055-0.271,0.101-0.209,0.03-0.32
								c-0.062,0.641-0.459-0.582-0.614-0.132c-0.141-0.222-0.114-0.657-0.229-0.805c-0.177,0.494-0.344-0.438-0.546-0.021
								c0.149,0.46,0.145,0.343,0.033,0.831l0.377-0.399l-0.168,0.729c0.131-0.014,0.227-0.339,0.316-0.271
								c-0.07,0.404-0.075,0.285,0.048,0.667c-0.288-0.68-0.286,0.467-0.565,0.021L805,62.866c-0.389-0.472-0.452,0.685-0.897,0.454
								l0.16,0.183c0.02,0.472-0.236,0.104-0.336,0.312c-0.05-0.392-0.152-0.521-0.246-0.755c0.053,0.288-0.296,0.02-0.21,0.804
								l-0.259-0.485c-0.355-0.159-0.193,1.169-0.524,1.085c0.026-0.438-0.158-0.692,0.002-1.028
								c-0.104,0.012-0.208-0.045-0.167,0.226c-0.099-0.234-0.204,0.571-0.358,0.216c-0.016,0.178,0.033,0.589-0.088,0.574
								c-0.024-0.077-0.029-0.192-0.029-0.192c0.029,0.192-0.141,0.291,0.028,0.707c-0.51-1.167-0.877,0.229-1.319-0.773
								c-0.205,0.166-0.457,0.335-0.658,0.396c-0.005-0.119-0.029-0.194,0.016-0.16c-0.34-0.318,0.002,1.147-0.383,0.793
								c-0.264-0.604,0.117-0.368-0.023-0.591c-0.246-1.276-0.36,0.236-0.695-0.479l0.041-0.084c-0.234-0.41-0.328,0.55-0.612,0.5
								c0,0-0.005-0.115-0.029-0.194c-0.082,0.685-0.398,0.956-0.63,1.179c0.002-0.515,0.076-0.284-0.053-0.787
								c-0.105,0.091,0.162,0.814-0.048,0.993c-0.119-0.263-0.324-0.477-0.433-1.018l0.215-0.063
								c-0.223-0.688-0.28,0.068-0.415-0.036l-0.034-0.31c-0.32,0.152-0.203,0.93-0.573,0.931l0.073,0.228
								c-0.076,0.8-0.233-0.406-0.341,0.196l-0.183-0.771c-0.101,0.208-0.338,0.825-0.549,1.009c0.042-0.599,0.27-0.938,0.385-1.308
								c-0.131,0.015-0.431,0.126-0.438,0.521c0.04-0.083,0.076-0.284,0.146-0.173c-0.062,0.639-0.225,0.973-0.484,1
								c-0.191-1.52-0.73-0.275-1.103-1.421c-0.368,0.631-0.941-0.096-1.459,0.077c0.374,1.146-0.149,0.058,0.073,1.261
								c-0.111,0.097-0.162,0.084-0.186,0.008l-0.488-0.663c-0.145-0.338,0.076-0.285,0.021-0.554
								c-0.285-0.051-0.193-0.495-0.424-0.787c0.105,0.426,0.004,0.634-0.177,0.493l0.306,0.522
								c-0.277,0.702-0.487-0.963-0.769-0.266l0.062-0.399c-0.161,0.255-0.724,0.106-0.764,1.106
								c-0.057-0.134-0.154-0.457-0.081-0.558c-0.491-0.072-0.88,1.196-1.337,0.656l-0.011-0.301
								c-0.074,0.099-0.065,0.579-0.221,0.298c-0.014-0.122-0.012-0.3-0.055-0.311c-0.03,0.108-0.15,0.554-0.293,0.399l0.046-0.348
								c-0.517-0.315-0.572,0.92-0.924,1.183c-0.135-0.87-0.539-1.097-0.74-1.209l-0.013-0.124c-0.549-0.024-0.79,0.862-1.228,1.281
								c-0.454-0.896-1.098-0.232-1.672-0.685c0.101,0.146,0.095,0.68,0.021,0.781c-0.143-0.158-0.224,0.653-0.331-0.147
								l0.044,0.009c-0.21-0.769-0.414-0.523-0.603-0.516l0.134,1.048c-0.723-1.441-1.18,0.757-1.657-0.561
								c-0.075,0.279-0.221,0.298-0.295,0.577l-0.082-0.561c-0.346-0.092-0.519-0.136-0.896,0.06l0.019-0.412
								c-0.231-0.001-0.031,1.657-0.234,1.723l-0.193-0.825c-0.392,0.075-0.904-0.596-1.174,0.223
								c-0.014-0.123-0.039-0.366,0.019-0.41c-0.188,0.008-0.805-0.452-0.558,0.683c-0.121-0.745-0.417-0.009-0.577,0.354
								l-0.054-0.556c-0.068,0.731-0.044,0.925-0.264,1.159c-0.07-0.062-0.121-0.433-0.021-0.304
								c-0.243-0.258-0.072,0.545-0.358,0.29l0.035-0.366c-0.211-0.011-0.165,0.176-0.213,0.604
								c-0.093,0.241-0.407-0.078-0.516-0.571c0.021,0.308-0.027,0.731-0.17,0.606c-0.045-0.186-0.02-0.31-0.007-0.37
								c-0.399-0.321-0.405,0.72-0.724,0.216c-0.034-0.182-0.063-0.271-0.092-0.322c0.272-0.028,0.494-0.033,0.48,0.01
								c-0.08-0.507-0.312-0.562-0.248-1.29c-0.115,0.41-0.284,1.289-0.535,1.083c-0.018-0.047-0.035-0.094-0.055-0.171l0.013-0.061
								c-0.058-0.043-0.094,0.012-0.122,0.104c-0.08-0.073-0.133-0.128-0.199-0.125c-0.092-0.416-0.286-0.188-0.398-0.19
								c0.097,0.554-0.061,0.487,0.146,0.925c-0.023-0.037,0.01-0.069,0.079-0.104c0.014-0.019,0.031-0.03,0.037-0.064v0.05
								c0.069-0.027,0.16-0.055,0.265-0.08c-0.042,0.296-0.094,0.548-0.263,0.258c-0.004,0.364-0.009,0.74-0.011,0.921
								c-0.271-0.752-0.624-1.125-0.739-1.597c-0.283,0.364-0.75,0.329-0.795,1.405c-0.073,0.148-0.156-0.282-0.217-0.44
								c0.038-0.113,0.105-0.107,0.111-0.263c-0.146,0.298-0.543,0.192-0.474,0.929c-0.29-0.292,0.028-0.692-0.28-0.521l0.01-0.23
								c-0.827-1.063-0.754,2.025-1.703,0.643c0.064,0.083,0.096,0.122,0.125,0.242c-0.917-0.531-1.579,0.883-2.547-0.037
								c-0.261-0.175-0.212,0.295-0.296,0.671l-0.144-0.589l-0.129,0.726c-0.259,0.557-0.815-1.372-1.093-0.352l0.118,0.393
								c-0.165-0.051-0.449,0.313-0.496-0.152c-0.004,0.076,0.016,0.426-0.077,0.226l-0.054-0.312l-0.293,0.595
								c-0.328-0.18-0.149-1.247-0.586-1.24c-0.139,0.145-0.309,0.979-0.216,1.179c0.066,0.006,0.194,0.17,0.248,0.481l-0.119,0.186
								c0.118,0.924,0.154,1.884,0.611,2.47l0.16-0.602l0.149,0.434l-0.204,0.062c0.185,0.4,0.201,0.018,0.245-0.251
								c0.058,0.234,0.118,0.396,0.182,0.476l0.105-0.917c0.086,0.355,0.003,0.731,0.197,0.904c0.05-0.426-0.236-0.79-0.09-1.087
								c0.185,0.399,0.204,0.745,0.287,0.366c0.057,0.233,0.051,0.39,0.012,0.502c0.08-0.304,0.31-0.172,0.297-0.671
								c0.205,0.497,0.397-0.2,0.521,0.673c0.007-0.215,0.111-0.718,0.22-0.771c-0.044,1.074,0.436-0.006,0.557,1.12
								c0.007-0.962,0.491-0.504,0.682-1.066c-0.004,0.076-0.01,0.232-0.042,0.188c0.166,0.053,0.256,0.329,0.382,0.49
								c-0.103-0.777,0.109-0.992,0.163-1.489c0.306,0.717,0.028,0.927,0.2,1.635c-0.108-0.626,0.229-0.678,0.083-1.19
								c0.216,0.439,0.159,0.205,0.334,0.835c-0.127-0.972,0.107-0.186,0.134-0.798c0.283,0.444,0.196,0.898,0.379,0.568
								C770.135,73.397,769.985,73.772,769.985,73.772z M775.163,71.243c0.001,0.006,0.001,0.01,0.001,0.012
								c-0.044,0.021-0.082,0.037-0.106,0.049C775.079,71.291,775.109,71.273,775.163,71.243z M775.619,71.163
								c-0.06-0.014-0.129-0.006-0.202,0.009c-0.046-0.188-0.06-0.389-0.013-0.386C775.4,70.918,775.525,71.012,775.619,71.163z
								 M774.047,67.466c0.06-0.09,0.102,0.016,0.129,0.128c-0.033,0.015-0.07,0.04-0.116,0.086
								c0.001,0.021,0.001,0.046,0.002,0.069C774.052,67.643,774.044,67.542,774.047,67.466z"/>
							<path fill="#FF20B0" d="M774.031,68.215c-0.009,0.015-0.011,0.038-0.023,0.045c0.023,0.045,0.044,0.084,0.062,0.118
								l-0.002-0.178L774.031,68.215z"/>
							<path fill="#FF20B0" d="M815.607,62.521l-0.012-0.011c0.012,0.021,0.022,0.041,0.033,0.076
								C815.619,62.558,815.615,62.543,815.607,62.521z"/>
							<polygon fill="#FF20B0" points="782.1,71.233 782.076,71.093 782.057,71.222 							"/>
							<path fill="#FF20B0" d="M818.426,64.031c0.012,0.048,0.029,0.097,0.055,0.137C818.474,64.132,818.451,64.084,818.426,64.031z
								"/>
							<path fill="#FF20B0" d="M819.533,63.984l0.185,0.174C819.634,64.056,819.576,64.01,819.533,63.984z"/>
							<path fill="#FF20B0" d="M820.412,64.128c-0.008-0.1-0.015-0.173-0.021-0.24l-0.003-0.003L820.412,64.128z"/>
							<path fill="#FF20B0" d="M807.217,66.872c-0.011,0.005-0.021,0.014-0.027,0.03C807.13,67.021,807.175,66.971,807.217,66.872z"
								/>
							<path fill="#FF20B0" d="M810.971,64.952c-0.026,0.107-0.053,0.213-0.086,0.282C810.962,65.266,811.018,65.269,810.971,64.952
								z"/>
							<path fill="#FF20B0" d="M802.903,68.235c0-0.004-0.001-0.005-0.001-0.01c-0.01,0.003-0.018,0.003-0.027,0.004L802.903,68.235
								z"/>
							<path fill="#FF20B0" d="M810.699,65.254c0.088,0.1,0.143,0.066,0.186-0.02C810.821,65.206,810.744,65.16,810.699,65.254z"/>
							<path fill="#FF20B0" d="M824.077,63.811l0.044,0.017c-0.007-0.037-0.009-0.067-0.01-0.09L824.077,63.811z"/>
							<path fill="#FF20B0" d="M824.111,63.737l0.035-0.073C824.126,63.668,824.108,63.675,824.111,63.737z"/>
							<path fill="#FF20B0" d="M824.219,63.51l-0.072,0.154C824.179,63.66,824.222,63.672,824.219,63.51z"/>
							<path fill="#FF20B0" d="M822.93,63.728l0.019,0.204C822.949,63.889,822.943,63.822,822.93,63.728z"/>
							<path fill="#FF20B0" d="M822.603,63.839c0.087,0.033,0.269,0.398,0.36,0.254l-0.015-0.161
								C822.943,64.239,822.625,63.487,822.603,63.839z"/>
							<path fill="#FF20B0" d="M820.807,61.57l0.307,0.117c-0.082-0.207-0.193-0.485-0.072-0.558
								C820.584,60.546,821.189,61.599,820.807,61.57z"/>
							<path fill="#FF20B0" d="M819.883,61.396c0.137-0.123-0.051-0.312-0.062-0.434C819.756,61.174,819.74,61.227,819.883,61.396z"
								/>
							<path fill="#FF20B0" d="M813.565,62.388l-0.064-0.508C813.396,61.972,813.531,62.076,813.565,62.388z"/>
							<polygon fill="#FF20B0" points="812.769,65.189 812.932,65.486 812.913,65.015 							"/>
							<polygon fill="#FF20B0" points="811.489,61.702 811.528,61.622 811.363,61.836 							"/>
							<path fill="#FF20B0" d="M800.907,63.55l0.133,0.617C801.102,64.043,801.008,63.341,800.907,63.55z"/>
							<path fill="#FF20B0" d="M796.426,64.904c-0.099-0.304-0.259-0.483-0.29-0.165C796.245,64.766,796.387,64.992,796.426,64.904z
								"/>
							<polygon fill="#FF20B0" points="782.529,66.05 782.589,65.827 782.442,66.028 							"/>
						</g>
					</g>
				</g>
			</g>
		</g>
	</g>
	<g>
		<path fill="#7B04FF" d="M764.691,19.938v13.901c0,3.184-0.752,5.513-2.256,6.987c-1.514,1.455-3.73,2.183-6.65,2.183
			c-1.289,0-2.559-0.22-3.809-0.659c-1.279-0.4-2.393-1.06-3.34-1.978c-0.928-0.869-1.465-1.948-1.611-3.237h6.108
			c0.166,0.518,0.508,0.908,1.025,1.172c0.508,0.234,1.03,0.352,1.567,0.352c1.338,0,2.266-0.376,2.783-1.128
			c0.479-0.752,0.718-1.846,0.718-3.281v-0.718c-0.732,0.732-1.479,1.265-2.241,1.597c-0.781,0.332-1.665,0.498-2.651,0.498
			c-1.475,0-2.786-0.337-3.933-1.011c-1.148-0.674-2.044-1.626-2.688-2.856s-0.967-2.559-0.967-3.984
			c0-1.172,0.19-2.231,0.571-3.179c0.391-1.006,0.933-1.909,1.626-2.71c0.713-0.771,1.553-1.377,2.52-1.816
			c0.967-0.42,2.026-0.63,3.179-0.63c2.012,0,3.521,0.708,4.526,2.124h0.059v-1.626H764.691z M755.902,24.054
			c-0.723,0-1.343,0.161-1.86,0.483c-0.557,0.303-0.967,0.723-1.23,1.26c-0.283,0.518-0.425,1.099-0.425,1.743
			c0,0.967,0.322,1.797,0.967,2.49c0.635,0.635,1.484,0.952,2.549,0.952c0.723,0,1.353-0.151,1.89-0.454
			c0.518-0.293,0.915-0.7,1.194-1.223c0.277-0.522,0.417-1.111,0.417-1.766c0-0.635-0.137-1.216-0.41-1.743
			c-0.283-0.547-0.693-0.967-1.23-1.26C757.245,24.215,756.625,24.054,755.902,24.054z"/>
		<path fill="#7B04FF" d="M784.936,19.938v15.396h-5.464v-1.714h-0.059c-0.439,0.693-1.089,1.245-1.948,1.655
			c-0.85,0.381-1.748,0.571-2.695,0.571c-1.475,0-2.808-0.381-3.999-1.143c-1.201-0.742-2.129-1.743-2.783-3.003
			c-0.664-1.27-0.996-2.627-0.996-4.072c0-1.133,0.19-2.173,0.571-3.12c0.371-1.025,0.903-1.909,1.597-2.651
			c0.703-0.762,1.519-1.355,2.446-1.779c0.928-0.426,1.958-0.638,3.091-0.638c0.908,0,1.802,0.166,2.681,0.498
			c0.84,0.352,1.538,0.854,2.095,1.509v-1.509H784.936z M776.146,24.171c-0.752,0-1.372,0.161-1.86,0.483
			c-0.557,0.303-0.967,0.723-1.23,1.26c-0.283,0.518-0.425,1.099-0.425,1.743c0,1.016,0.312,1.836,0.938,2.461
			c0.625,0.654,1.484,0.981,2.578,0.981s1.953-0.327,2.578-0.981c0.615-0.615,0.923-1.436,0.923-2.461
			c0-0.635-0.137-1.216-0.41-1.743c-0.283-0.547-0.693-0.967-1.23-1.26C777.519,24.332,776.898,24.171,776.146,24.171z"/>
		<path fill="#7B04FF" d="M794.032,19.938v1.919h0.059c1.23-1.611,2.847-2.417,4.849-2.417c2.451,0,4.204,0.977,5.259,2.93
			c0.508-0.908,1.235-1.623,2.183-2.146s1.958-0.784,3.032-0.784c3.506,0,5.259,2.026,5.259,6.079v9.814h-5.464v-7.354
			c0-1.27-0.132-2.28-0.396-3.032c-0.264-0.771-0.884-1.157-1.86-1.157c-1.094,0-1.802,0.376-2.124,1.128
			c-0.322,0.732-0.483,1.753-0.483,3.062v7.354h-5.464v-7.354c0-1.279-0.137-2.319-0.41-3.12s-0.942-1.201-2.007-1.201
			c-1.074,0-1.748,0.4-2.021,1.201s-0.41,1.841-0.41,3.12v7.354h-5.464V19.938H794.032z"/>
		<path fill="#7B04FF" d="M834.037,27.979v0.571h-11.484c0,2.285,1.138,3.428,3.413,3.428c1.172,0,2.041-0.474,2.607-1.421h5.259
			c-0.273,1.162-0.806,2.144-1.597,2.944c-0.752,0.781-1.68,1.372-2.783,1.772c-1.074,0.381-2.227,0.571-3.457,0.571
			c-1.68,0-3.211-0.322-4.593-0.967s-2.438-1.572-3.171-2.783c-0.762-1.25-1.143-2.729-1.143-4.438c0-1.65,0.361-3.11,1.084-4.38
			c0.732-1.26,1.733-2.212,3.003-2.856c1.279-0.654,2.759-0.981,4.438-0.981c1.318,0,2.505,0.2,3.56,0.601
			c1.045,0.381,1.929,0.938,2.651,1.67c0.703,0.732,1.25,1.636,1.641,2.71C833.847,25.426,834.037,26.612,834.037,27.979z
			 M822.641,25.401h6.328c-0.117-0.723-0.479-1.313-1.084-1.772c-0.566-0.439-1.235-0.659-2.007-0.659
			c-0.811,0-1.509,0.21-2.095,0.63C823.168,24.039,822.787,24.64,822.641,25.401z"/>
		<path fill="#7B04FF" d="M848.524,20.421l-1.831,3.486c-0.898-0.498-1.88-0.747-2.944-0.747c-0.391,0-0.776,0.088-1.157,0.264
			c-0.361,0.146-0.542,0.405-0.542,0.776c0,0.254,0.088,0.454,0.264,0.601c0.186,0.186,0.396,0.317,0.63,0.396
			c0.391,0.127,0.649,0.195,0.776,0.205c0.146,0.02,0.41,0.068,0.791,0.146c2.979,0.605,4.468,2.129,4.468,4.57
			c0,1.27-0.342,2.339-1.025,3.208c-0.684,0.85-1.582,1.489-2.695,1.919c-1.172,0.4-2.354,0.601-3.545,0.601
			c-2.207,0-4.277-0.591-6.211-1.772l1.978-3.809c0.547,0.391,1.26,0.752,2.139,1.084c0.781,0.312,1.509,0.469,2.183,0.469
			c0.449,0,0.84-0.098,1.172-0.293c0.361-0.205,0.542-0.493,0.542-0.864c0-0.391-0.151-0.674-0.454-0.85
			c-0.273-0.166-0.664-0.317-1.172-0.454c-0.664-0.166-1.26-0.303-1.787-0.41c-1.006-0.264-1.836-0.693-2.49-1.289
			c-0.625-0.596-0.938-1.519-0.938-2.769c0-1.182,0.322-2.192,0.967-3.032c0.654-0.84,1.484-1.445,2.49-1.816
			c1.055-0.4,2.163-0.601,3.325-0.601C845.38,19.439,847.069,19.767,848.524,20.421z"/>
	</g>
	<g>
		<path fill="#F51484" d="M762.691,17.938v13.901c0,3.184-0.752,5.513-2.256,6.987c-1.514,1.455-3.73,2.183-6.65,2.183
			c-1.289,0-2.559-0.22-3.809-0.659c-1.279-0.4-2.393-1.06-3.34-1.978c-0.928-0.869-1.465-1.948-1.611-3.237h6.108
			c0.166,0.518,0.508,0.908,1.025,1.172c0.508,0.234,1.03,0.352,1.567,0.352c1.338,0,2.266-0.376,2.783-1.128
			c0.479-0.752,0.718-1.846,0.718-3.281v-0.718c-0.732,0.732-1.479,1.265-2.241,1.597c-0.781,0.332-1.665,0.498-2.651,0.498
			c-1.475,0-2.786-0.337-3.933-1.011c-1.148-0.674-2.044-1.626-2.688-2.856s-0.967-2.559-0.967-3.984
			c0-1.172,0.19-2.231,0.571-3.179c0.391-1.006,0.933-1.909,1.626-2.71c0.713-0.771,1.553-1.377,2.52-1.816
			c0.967-0.42,2.026-0.63,3.179-0.63c2.012,0,3.521,0.708,4.526,2.124h0.059v-1.626H762.691z M753.902,22.054
			c-0.723,0-1.343,0.161-1.86,0.483c-0.557,0.303-0.967,0.723-1.23,1.26c-0.283,0.518-0.425,1.099-0.425,1.743
			c0,0.967,0.322,1.797,0.967,2.49c0.635,0.635,1.484,0.952,2.549,0.952c0.723,0,1.353-0.151,1.89-0.454
			c0.518-0.293,0.915-0.7,1.194-1.223c0.277-0.522,0.417-1.111,0.417-1.766c0-0.635-0.137-1.216-0.41-1.743
			c-0.283-0.547-0.693-0.967-1.23-1.26C755.245,22.215,754.625,22.054,753.902,22.054z"/>
		<path fill="#F51484" d="M782.936,17.938v15.396h-5.464v-1.714h-0.059c-0.439,0.693-1.089,1.245-1.948,1.655
			c-0.85,0.381-1.748,0.571-2.695,0.571c-1.475,0-2.808-0.381-3.999-1.143c-1.201-0.742-2.129-1.743-2.783-3.003
			c-0.664-1.27-0.996-2.627-0.996-4.072c0-1.133,0.19-2.173,0.571-3.12c0.371-1.025,0.903-1.909,1.597-2.651
			c0.703-0.762,1.519-1.355,2.446-1.779c0.928-0.426,1.958-0.638,3.091-0.638c0.908,0,1.802,0.166,2.681,0.498
			c0.84,0.352,1.538,0.854,2.095,1.509v-1.509H782.936z M774.146,22.171c-0.752,0-1.372,0.161-1.86,0.483
			c-0.557,0.303-0.967,0.723-1.23,1.26c-0.283,0.518-0.425,1.099-0.425,1.743c0,1.016,0.312,1.836,0.938,2.461
			c0.625,0.654,1.484,0.981,2.578,0.981s1.953-0.327,2.578-0.981c0.615-0.615,0.923-1.436,0.923-2.461
			c0-0.635-0.137-1.216-0.41-1.743c-0.283-0.547-0.693-0.967-1.23-1.26C775.519,22.332,774.898,22.171,774.146,22.171z"/>
		<path fill="#F51484" d="M792.032,17.938v1.919h0.059c1.23-1.611,2.847-2.417,4.849-2.417c2.451,0,4.204,0.977,5.259,2.93
			c0.508-0.908,1.235-1.623,2.183-2.146s1.958-0.784,3.032-0.784c3.506,0,5.259,2.026,5.259,6.079v9.814h-5.464v-7.354
			c0-1.27-0.132-2.28-0.396-3.032c-0.264-0.771-0.884-1.157-1.86-1.157c-1.094,0-1.802,0.376-2.124,1.128
			c-0.322,0.732-0.483,1.753-0.483,3.062v7.354h-5.464v-7.354c0-1.279-0.137-2.319-0.41-3.12s-0.942-1.201-2.007-1.201
			c-1.074,0-1.748,0.4-2.021,1.201s-0.41,1.841-0.41,3.12v7.354h-5.464V17.938H792.032z"/>
		<path fill="#F51484" d="M832.037,25.979v0.571h-11.484c0,2.285,1.138,3.428,3.413,3.428c1.172,0,2.041-0.474,2.607-1.421h5.259
			c-0.273,1.162-0.806,2.144-1.597,2.944c-0.752,0.781-1.68,1.372-2.783,1.772c-1.074,0.381-2.227,0.571-3.457,0.571
			c-1.68,0-3.211-0.322-4.593-0.967s-2.438-1.572-3.171-2.783c-0.762-1.25-1.143-2.729-1.143-4.438c0-1.65,0.361-3.11,1.084-4.38
			c0.732-1.26,1.733-2.212,3.003-2.856c1.279-0.654,2.759-0.981,4.438-0.981c1.318,0,2.505,0.2,3.56,0.601
			c1.045,0.381,1.929,0.938,2.651,1.67c0.703,0.732,1.25,1.636,1.641,2.71C831.847,23.426,832.037,24.612,832.037,25.979z
			 M820.641,23.401h6.328c-0.117-0.723-0.479-1.313-1.084-1.772c-0.566-0.439-1.235-0.659-2.007-0.659
			c-0.811,0-1.509,0.21-2.095,0.63C821.168,22.039,820.787,22.64,820.641,23.401z"/>
		<path fill="#F51484" d="M846.524,18.421l-1.831,3.486c-0.898-0.498-1.88-0.747-2.944-0.747c-0.391,0-0.776,0.088-1.157,0.264
			c-0.361,0.146-0.542,0.405-0.542,0.776c0,0.254,0.088,0.454,0.264,0.601c0.186,0.186,0.396,0.317,0.63,0.396
			c0.391,0.127,0.649,0.195,0.776,0.205c0.146,0.02,0.41,0.068,0.791,0.146c2.979,0.605,4.468,2.129,4.468,4.57
			c0,1.27-0.342,2.339-1.025,3.208c-0.684,0.85-1.582,1.489-2.695,1.919c-1.172,0.4-2.354,0.601-3.545,0.601
			c-2.207,0-4.277-0.591-6.211-1.772l1.978-3.809c0.547,0.391,1.26,0.752,2.139,1.084c0.781,0.312,1.509,0.469,2.183,0.469
			c0.449,0,0.84-0.098,1.172-0.293c0.361-0.205,0.542-0.493,0.542-0.864c0-0.391-0.151-0.674-0.454-0.85
			c-0.273-0.166-0.664-0.317-1.172-0.454c-0.664-0.166-1.26-0.303-1.787-0.41c-1.006-0.264-1.836-0.693-2.49-1.289
			c-0.625-0.596-0.938-1.519-0.938-2.769c0-1.182,0.322-2.192,0.967-3.032c0.654-0.84,1.484-1.445,2.49-1.816
			c1.055-0.4,2.163-0.601,3.325-0.601C843.38,17.439,845.069,17.767,846.524,18.421z"/>
	</g>
	<g>
		<path fill="#E6FF81" d="M903.553,52.383v23.242h-5.1V52.383H903.553z"/>
		<path fill="#E6FF81" d="M909.445,52.889c0.501,0,0.979,0.132,1.436,0.396c0.438,0.246,0.779,0.588,1.025,1.025
			c0.265,0.456,0.396,0.935,0.396,1.436s-0.132,0.978-0.396,1.429s-0.606,0.795-1.025,1.032c-0.456,0.265-0.935,0.396-1.436,0.396
			c-0.492,0-0.966-0.132-1.422-0.396c-0.429-0.228-0.774-0.574-1.039-1.039c-0.265-0.474-0.396-0.948-0.396-1.422
			s0.132-0.952,0.396-1.436c0.246-0.438,0.593-0.779,1.039-1.025C908.479,53.021,908.953,52.889,909.445,52.889z M912.002,61.256
			v14.369h-5.1V61.256H912.002z"/>
		<path fill="#E6FF81" d="M920.943,65.467v10.158h-5.086V65.467h-1.791v-4.211h1.791v-1.818c0-1.185,0.082-2.146,0.246-2.885
			c0.173-0.72,0.574-1.436,1.203-2.146c0.629-0.747,1.386-1.317,2.27-1.709c0.866-0.392,1.782-0.588,2.748-0.588
			c0.812,0,1.54,0.169,2.188,0.506v4.389c-0.784-0.319-1.381-0.479-1.791-0.479c-0.656,0-1.116,0.196-1.381,0.588
			s-0.396,0.998-0.396,1.818v2.324h3.568v4.211H920.943z"/>
		<path fill="#E6FF81" d="M940.973,68.762v0.533h-10.719c0,2.133,1.062,3.199,3.186,3.199c1.094,0,1.905-0.442,2.434-1.326h4.908
			c-0.255,1.085-0.752,2.001-1.49,2.748c-0.702,0.729-1.567,1.28-2.598,1.654c-1.003,0.355-2.078,0.533-3.227,0.533
			c-1.567,0-2.996-0.301-4.286-0.902s-2.276-1.468-2.96-2.598c-0.711-1.167-1.066-2.548-1.066-4.143c0-1.54,0.337-2.903,1.012-4.088
			c0.684-1.176,1.618-2.064,2.803-2.666c1.194-0.61,2.575-0.916,4.143-0.916c1.23,0,2.338,0.187,3.322,0.561
			c0.976,0.355,1.8,0.875,2.475,1.559c0.656,0.684,1.167,1.526,1.531,2.529C940.795,66.378,940.973,67.485,940.973,68.762z
			 M930.336,66.355h5.906c-0.109-0.675-0.446-1.226-1.012-1.654c-0.528-0.41-1.153-0.615-1.873-0.615
			c-0.757,0-1.408,0.196-1.955,0.588C930.828,65.084,930.473,65.645,930.336,66.355z"/>
		<path fill="#E6FF81" d="M946.428,69.637c0.61,0,1.162,0.146,1.654,0.438c0.511,0.292,0.902,0.688,1.176,1.189
			c0.301,0.474,0.451,1.021,0.451,1.641s-0.15,1.171-0.451,1.654c-0.273,0.511-0.665,0.902-1.176,1.176
			c-0.483,0.301-1.034,0.451-1.654,0.451c-0.602,0-1.144-0.15-1.627-0.451c-0.511-0.265-0.911-0.656-1.203-1.176
			c-0.292-0.492-0.438-1.044-0.438-1.654c0-0.921,0.314-1.695,0.943-2.324S945.507,69.637,946.428,69.637z"/>
	</g>
</g>
</svg>
