<?xml version="1.0" encoding="utf-8"?>
<!-- Generator: Adobe Illustrator 16.0.0, SVG Export Plug-In . SVG Version: 6.00 Build 0)  -->
<!DOCTYPE svg PUBLIC "-//W3C//DTD SVG 1.1//EN" "http://www.w3.org/Graphics/SVG/1.1/DTD/svg11.dtd">
<svg version="1.1" id="Layer_1" xmlns="http://www.w3.org/2000/svg" xmlns:xlink="http://www.w3.org/1999/xlink" x="0px" y="0px"
	 width="700px" height="150px" viewBox="0 0 700 150" enable-background="new 0 0 700 150" xml:space="preserve">
<g>
	<linearGradient id="SVGID_1_" gradientUnits="userSpaceOnUse" x1="45.4121" y1="23.1641" x2="45.4121" y2="127.1719">
		<stop  offset="0" style="stop-color:#8EDA3D"/>
		<stop  offset="1" style="stop-color:#8EDA3D;stop-opacity:0"/>
	</linearGradient>
	<path fill="url(#SVGID_1_)" d="M68.508,125.682c-1.192,1.341-1.937,1.49-2.831,1.49H25.744c-0.596,0-2.085-0.149-3.428-1.49
		l-8.492-8.493c-1.342-1.341-1.49-2.831-1.49-3.427V36.876c0-1.341,0.446-2.83,1.49-3.874l8.492-8.344
		c1.193-1.192,1.938-1.49,3.875-1.49h38.442c1.043,0,2.235-0.148,3.874,1.49l8.344,8.344c1.192,1.192,1.64,1.938,1.64,3.874V52.82
		c0,1.191-0.894,2.085-2.086,2.085H62.696c-1.191,0-2.085-0.894-2.085-2.085v-7.897c0-0.447,0-0.746-0.447-1.044l-2.533-2.384
		c-0.298-0.298-0.596-0.446-1.192-0.446H34.387c-0.447,0-0.745,0-1.191,0.446l-2.533,2.384c-0.299,0.298-0.448,0.597-0.448,1.044
		v61.239c0,0.299,0.149,0.745,0.448,1.043l2.085,2.086h25.33l2.087-2.086c0.297-0.298,0.447-0.446,0.447-1.043V89.027H46.754
		c-1.192,0-2.087-0.895-2.087-2.087V73.233c0-1.192,0.895-2.087,2.087-2.087h29.651c1.192,0,2.086,0.895,2.086,2.087v41.272
		c0,0.745-0.745,1.64-1.64,2.683L68.508,125.682z"/>
	<linearGradient id="SVGID_2_" gradientUnits="userSpaceOnUse" x1="129" y1="23.0195" x2="129" y2="127.1719">
		<stop  offset="0" style="stop-color:#8EDA3D"/>
		<stop  offset="1" style="stop-color:#8EDA3D;stop-opacity:0"/>
	</linearGradient>
	<path fill="url(#SVGID_2_)" d="M154.328,127.172c-1.191,0-2.532-1.044-2.83-2.235l-5.812-19.967h-33.228l-5.812,19.967
		c-0.446,1.191-1.639,2.235-2.83,2.235H90.854c-1.191,0-2.532-1.044-2.235-2.235l29.503-99.682c0.298-0.895,0.895-2.235,2.087-2.235
		h17.581c1.192,0,1.789,0.744,2.235,2.085l29.354,99.832c0.298,1.191-0.895,2.235-2.086,2.235H154.328z M128.998,48.796
		l-11.175,37.996h22.5L128.998,48.796z"/>
	<linearGradient id="SVGID_3_" gradientUnits="userSpaceOnUse" x1="220.5566" y1="23.168" x2="220.5566" y2="127.1719">
		<stop  offset="0" style="stop-color:#8EDA3D"/>
		<stop  offset="1" style="stop-color:#8EDA3D;stop-opacity:0"/>
	</linearGradient>
	<path fill="url(#SVGID_3_)" d="M247.451,127.172c-1.192,0-2.086-0.895-2.086-2.087l-0.894-50.66l-15.198,50.66
		c-0.298,1.043-1.639,2.087-2.832,2.087h-11.92c-1.341,0-2.533-1.192-2.831-2.385l-15.198-50.362l-0.744,50.66
		c0,1.192-0.895,2.087-2.086,2.087h-13.708c-1.193,0-2.087-0.895-2.087-2.087l4.023-99.83c0-1.043,0.745-2.087,1.788-2.087h14.751
		c1.192,0,1.787,0.596,2.235,2.087l19.817,73.011l19.966-73.011c0.447-1.491,1.043-2.087,2.235-2.087h14.602
		c0.895,0,1.938,1.044,1.938,2.087l4.022,99.83c0,1.192-1.043,2.087-2.085,2.087H247.451z"/>
	<linearGradient id="SVGID_4_" gradientUnits="userSpaceOnUse" x1="307.5693" y1="23.168" x2="307.5693" y2="127.1719">
		<stop  offset="0" style="stop-color:#8EDA3D"/>
		<stop  offset="1" style="stop-color:#8EDA3D;stop-opacity:0"/>
	</linearGradient>
	<path fill="url(#SVGID_4_)" d="M280.524,127.172c-1.19,0-2.085-0.895-2.085-2.087v-99.83c0-1.193,0.895-2.087,2.085-2.087h54.089
		c1.191,0,2.086,0.894,2.086,2.087v13.707c0,1.044-0.895,2.087-2.086,2.087h-38.294v25.181h30.247c1.043,0,2.086,0.895,2.086,2.087
		v13.707c0,1.192-1.043,2.087-2.086,2.087h-30.247v25.181h38.294c1.191,0,2.086,0.895,2.086,2.087v13.707
		c0,1.192-0.895,2.087-2.086,2.087H280.524z"/>
	<linearGradient id="SVGID_5_" gradientUnits="userSpaceOnUse" x1="419.835" y1="23.168" x2="419.835" y2="127.1719">
		<stop  offset="0" style="stop-color:#8EDA3D"/>
		<stop  offset="1" style="stop-color:#8EDA3D;stop-opacity:0"/>
	</linearGradient>
	<path fill="url(#SVGID_5_)" d="M442.93,125.682c-1.192,1.192-2.83,1.49-5.065,1.49h-37.697c-0.597,0-2.086-0.149-3.427-1.49
		l-8.493-8.493c-1.342-1.341-1.491-2.831-1.491-3.427V36.578c0-0.745,0.149-2.235,1.491-3.576l8.493-8.344
		c1.191-1.192,2.085-1.49,3.873-1.49h38.442c1.192,0,2.682,0.298,3.874,1.49l8.344,8.344c0.895,0.895,1.641,2.235,1.641,3.874
		v76.438c0,1.938-0.597,2.832-1.641,3.875L442.93,125.682z M434.586,107.205c0.299-0.298,0.447-0.596,0.447-1.043V44.923
		c0-0.149,0-0.746-0.447-1.044l-2.533-2.384c-0.148-0.148-0.596-0.446-0.894-0.446H408.66c-0.299,0-0.745,0.148-1.043,0.446
		l-2.533,2.384c-0.447,0.448-0.447,0.746-0.447,1.044v61.239c0,0.447,0.148,0.745,0.447,1.043l2.085,2.086H432.5L434.586,107.205z"
		/>
	<linearGradient id="SVGID_6_" gradientUnits="userSpaceOnUse" x1="499.7676" y1="23.168" x2="499.7676" y2="127.1719">
		<stop  offset="0" style="stop-color:#8EDA3D"/>
		<stop  offset="1" style="stop-color:#8EDA3D;stop-opacity:0"/>
	</linearGradient>
	<path fill="url(#SVGID_6_)" d="M491.798,127.172c-1.192,0-2.532-1.341-2.831-2.385l-25.777-98.937
		c-0.298-1.192,0.597-2.683,1.789-2.683h14.602c1.191,0,1.938,0.745,2.235,2.087l17.88,76.735l17.881-76.735
		c0.297-1.342,1.043-2.087,2.234-2.087h14.603c1.192,0,2.235,1.639,1.938,2.683l-25.778,98.64c-0.446,1.787-1.788,2.682-2.83,2.682
		H491.798z"/>
	<linearGradient id="SVGID_7_" gradientUnits="userSpaceOnUse" x1="576.5029" y1="23.168" x2="576.5029" y2="127.1719">
		<stop  offset="0" style="stop-color:#8EDA3D"/>
		<stop  offset="1" style="stop-color:#8EDA3D;stop-opacity:0"/>
	</linearGradient>
	<path fill="url(#SVGID_7_)" d="M549.459,127.172c-1.193,0-2.086-0.895-2.086-2.087v-99.83c0-1.193,0.893-2.087,2.086-2.087h54.088
		c1.191,0,2.086,0.894,2.086,2.087v13.707c0,1.044-0.895,2.087-2.086,2.087h-38.294v25.181H595.5c1.043,0,2.086,0.895,2.086,2.087
		v13.707c0,1.192-1.043,2.087-2.086,2.087h-30.247v25.181h38.294c1.191,0,2.086,0.895,2.086,2.087v13.707
		c0,1.192-0.895,2.087-2.086,2.087H549.459z"/>
	<linearGradient id="SVGID_8_" gradientUnits="userSpaceOnUse" x1="653.0918" y1="23.1494" x2="653.0918" y2="127.1719">
		<stop  offset="0" style="stop-color:#8EDA3D"/>
		<stop  offset="1" style="stop-color:#8EDA3D;stop-opacity:0"/>
	</linearGradient>
	<path fill="url(#SVGID_8_)" d="M671.041,127.172c-1.192,0-2.234-1.044-2.683-2.087l-14.751-36.207H636.92v36.207
		c0,1.192-0.895,2.087-2.087,2.087h-13.707c-1.193,0-2.087-0.895-2.087-2.087v-99.83c0-1.193,0.894-2.087,2.087-2.087h47.382
		c0,0,2.086-0.297,3.873,1.49l8.346,8.344c1.787,1.789,1.639,3.874,1.639,3.874v37.847c0,1.639-0.447,3.13-1.639,4.321l-8.792,8.791
		l15.05,37.102c0.446,1.043,0,2.235-1.789,2.235H671.041z M663.889,68.167c0.447-0.447,0.447-0.745,0.447-1.043V44.625
		c0-0.298-0.148-0.597-0.298-0.746l-2.534-2.384c-0.446-0.298-0.595-0.446-1.043-0.446H636.92v29.949h23.541
		c0.299,0,0.597,0,1.043-0.446L663.889,68.167z"/>
</g>
</svg>
