<?xml version="1.0" encoding="utf-8"?>
<!-- Generator: Adobe Illustrator 16.0.0, SVG Export Plug-In . SVG Version: 6.00 Build 0)  -->
<!DOCTYPE svg PUBLIC "-//W3C//DTD SVG 1.1//EN" "http://www.w3.org/Graphics/SVG/1.1/DTD/svg11.dtd">
<svg version="1.1" id="Layer_1" xmlns="http://www.w3.org/2000/svg" xmlns:xlink="http://www.w3.org/1999/xlink" x="0px" y="0px"
	 width="800px" height="120px" viewBox="0 0 800 120" enable-background="new 0 0 800 120" xml:space="preserve">
<g>
	<linearGradient id="SVGID_1_" gradientUnits="userSpaceOnUse" x1="16.9385" y1="11.583" x2="16.9385" y2="109.3027">
		<stop  offset="0" style="stop-color:#08FCD8"/>
		<stop  offset="0.1224" style="stop-color:#10FACF;stop-opacity:0.8776"/>
		<stop  offset="0.3222" style="stop-color:#25F5B7;stop-opacity:0.6778"/>
		<stop  offset="0.5743" style="stop-color:#47EC8F;stop-opacity:0.4257"/>
		<stop  offset="0.8661" style="stop-color:#76E058;stop-opacity:0.1339"/>
		<stop  offset="1" style="stop-color:#8EDA3D;stop-opacity:0"/>
	</linearGradient>
	<path fill="url(#SVGID_1_)" d="M10.498,109.303c-1.119,0-1.96-0.84-1.96-1.96v-93.8c0-1.12,0.841-1.96,1.96-1.96h12.88
		c1.12,0,1.961,0.84,1.961,1.96v93.8c0,1.12-0.841,1.96-1.961,1.96H10.498z"/>
	<linearGradient id="SVGID_2_" gradientUnits="userSpaceOnUse" x1="70.6982" y1="11.583" x2="70.6982" y2="109.3027">
		<stop  offset="0" style="stop-color:#08FCD8"/>
		<stop  offset="0.1224" style="stop-color:#10FACF;stop-opacity:0.8776"/>
		<stop  offset="0.3222" style="stop-color:#25F5B7;stop-opacity:0.6778"/>
		<stop  offset="0.5743" style="stop-color:#47EC8F;stop-opacity:0.4257"/>
		<stop  offset="0.8661" style="stop-color:#76E058;stop-opacity:0.1339"/>
		<stop  offset="1" style="stop-color:#8EDA3D;stop-opacity:0"/>
	</linearGradient>
	<path fill="url(#SVGID_2_)" d="M84.418,109.303c-1.12,0-2.239-0.98-2.66-1.96L57.259,46.863v60.479c0,1.12-0.841,1.96-1.961,1.96
		h-12.88c-1.119,0-1.96-0.84-1.96-1.96v-93.8c0-1.12,0.841-1.96,1.96-1.96h17.08c1.12,0,1.681,0.7,2.101,1.96l21.699,56.14
		l0.841,3.92v-60.06c0-1.12,0.84-1.96,1.96-1.96h12.88c1.12,0,1.96,0.84,1.96,1.96v93.8c0,1.12-0.84,1.96-1.96,1.96H84.418z"/>
	<linearGradient id="SVGID_3_" gradientUnits="userSpaceOnUse" x1="145.8086" y1="11.583" x2="145.8086" y2="109.3027">
		<stop  offset="0" style="stop-color:#08FCD8"/>
		<stop  offset="0.1224" style="stop-color:#10FACF;stop-opacity:0.8776"/>
		<stop  offset="0.3222" style="stop-color:#25F5B7;stop-opacity:0.6778"/>
		<stop  offset="0.5743" style="stop-color:#47EC8F;stop-opacity:0.4257"/>
		<stop  offset="0.8661" style="stop-color:#76E058;stop-opacity:0.1339"/>
		<stop  offset="1" style="stop-color:#8EDA3D;stop-opacity:0"/>
	</linearGradient>
	<path fill="url(#SVGID_3_)" d="M166.177,107.902c-1.26,1.261-2.38,1.4-4.34,1.4h-43.82c-1.119,0-1.96-0.84-1.96-1.96v-93.8
		c0-1.12,0.841-1.96,1.96-1.96h44.521c1.12,0,2.239,0,3.64,1.4l7.84,7.84c1.68,1.68,1.54,2.52,1.54,3.64v71.96
		c0,1.4-0.84,2.66-1.54,3.5L166.177,107.902z M158.197,90.543c0.42-0.28,0.42-0.7,0.42-0.98V32.023c0-0.28,0-0.561-0.42-0.98
		l-2.24-2.24c-0.42-0.42-0.7-0.42-0.98-0.42h-22.119v64.12h23.38L158.197,90.543z"/>
	<linearGradient id="SVGID_4_" gradientUnits="userSpaceOnUse" x1="198.377" y1="11.583" x2="198.377" y2="109.3027">
		<stop  offset="0" style="stop-color:#08FCD8"/>
		<stop  offset="0.1224" style="stop-color:#10FACF;stop-opacity:0.8776"/>
		<stop  offset="0.3222" style="stop-color:#25F5B7;stop-opacity:0.6778"/>
		<stop  offset="0.5743" style="stop-color:#47EC8F;stop-opacity:0.4257"/>
		<stop  offset="0.8661" style="stop-color:#76E058;stop-opacity:0.1339"/>
		<stop  offset="1" style="stop-color:#8EDA3D;stop-opacity:0"/>
	</linearGradient>
	<path fill="url(#SVGID_4_)" d="M191.937,109.303c-1.119,0-1.96-0.84-1.96-1.96v-93.8c0-1.12,0.841-1.96,1.96-1.96h12.881
		c1.119,0,1.96,0.84,1.96,1.96v93.8c0,1.12-0.841,1.96-1.96,1.96H191.937z"/>
	<linearGradient id="SVGID_5_" gradientUnits="userSpaceOnUse" x1="249.2666" y1="11.583" x2="249.2666" y2="109.3027">
		<stop  offset="0" style="stop-color:#08FCD8"/>
		<stop  offset="0.1224" style="stop-color:#10FACF;stop-opacity:0.8776"/>
		<stop  offset="0.3222" style="stop-color:#25F5B7;stop-opacity:0.6778"/>
		<stop  offset="0.5743" style="stop-color:#47EC8F;stop-opacity:0.4257"/>
		<stop  offset="0.8661" style="stop-color:#76E058;stop-opacity:0.1339"/>
		<stop  offset="1" style="stop-color:#8EDA3D;stop-opacity:0"/>
	</linearGradient>
	<path fill="url(#SVGID_5_)" d="M223.856,109.303c-1.119,0-1.96-0.84-1.96-1.96v-93.8c0-1.12,0.841-1.96,1.96-1.96h50.82
		c1.12,0,1.96,0.84,1.96,1.96v12.88c0,0.98-0.84,1.96-1.96,1.96h-35.979v23.66h28.419c0.98,0,1.961,0.84,1.961,1.96v12.88
		c0,1.12-0.98,1.96-1.961,1.96h-28.419v23.66h35.979c1.12,0,1.96,0.84,1.96,1.96v12.88c0,1.12-0.84,1.96-1.96,1.96H223.856z"/>
	<linearGradient id="SVGID_6_" gradientUnits="userSpaceOnUse" x1="348.8037" y1="11.583" x2="348.8037" y2="109.3027">
		<stop  offset="0" style="stop-color:#08FCD8"/>
		<stop  offset="0.1224" style="stop-color:#10FACF;stop-opacity:0.8776"/>
		<stop  offset="0.3222" style="stop-color:#25F5B7;stop-opacity:0.6778"/>
		<stop  offset="0.5743" style="stop-color:#47EC8F;stop-opacity:0.4257"/>
		<stop  offset="0.8661" style="stop-color:#76E058;stop-opacity:0.1339"/>
		<stop  offset="1" style="stop-color:#8EDA3D;stop-opacity:0"/>
	</linearGradient>
	<path fill="url(#SVGID_6_)" d="M323.394,109.303c-1.119,0-1.96-0.84-1.96-1.96v-93.8c0-1.12,0.841-1.96,1.96-1.96h50.82
		c1.12,0,1.96,0.84,1.96,1.96v12.88c0,0.7-0.561,1.96-1.54,1.96h-36.399v23.66h28.56c1.12,0,1.96,0.84,1.96,1.96v12.88
		c0,1.12-0.84,1.96-1.96,1.96h-28.56v38.5c0,1.12-0.841,1.96-1.96,1.96H323.394z"/>
	<linearGradient id="SVGID_7_" gradientUnits="userSpaceOnUse" x1="416.4941" y1="11.583" x2="416.4941" y2="109.3027">
		<stop  offset="0" style="stop-color:#08FCD8"/>
		<stop  offset="0.1224" style="stop-color:#10FACF;stop-opacity:0.8776"/>
		<stop  offset="0.3222" style="stop-color:#25F5B7;stop-opacity:0.6778"/>
		<stop  offset="0.5743" style="stop-color:#47EC8F;stop-opacity:0.4257"/>
		<stop  offset="0.8661" style="stop-color:#76E058;stop-opacity:0.1339"/>
		<stop  offset="1" style="stop-color:#8EDA3D;stop-opacity:0"/>
	</linearGradient>
	<path fill="url(#SVGID_7_)" d="M438.193,107.902c-1.119,1.12-2.659,1.4-4.76,1.4h-35.42c-0.56,0-1.96-0.14-3.22-1.4l-7.979-7.979
		c-1.261-1.26-1.4-2.66-1.4-3.22V24.183c0-0.699,0.14-2.1,1.4-3.359l7.979-7.84c1.12-1.12,1.96-1.4,3.64-1.4h36.12
		c1.12,0,2.521,0.28,3.64,1.4l7.841,7.84c0.84,0.84,1.54,2.1,1.54,3.64v71.82c0,1.819-0.561,2.659-1.54,3.64L438.193,107.902z
		 M430.354,90.543c0.28-0.28,0.42-0.561,0.42-0.98V32.023c0-0.141,0-0.7-0.42-0.98l-2.38-2.24c-0.14-0.14-0.56-0.42-0.84-0.42
		h-21.14c-0.28,0-0.7,0.141-0.98,0.42l-2.38,2.24c-0.42,0.42-0.42,0.7-0.42,0.98v57.539c0,0.42,0.14,0.7,0.42,0.98l1.96,1.96h23.8
		L430.354,90.543z"/>
	<linearGradient id="SVGID_8_" gradientUnits="userSpaceOnUse" x1="494.1289" y1="11.5654" x2="494.1289" y2="109.3027">
		<stop  offset="0" style="stop-color:#08FCD8"/>
		<stop  offset="0.1224" style="stop-color:#10FACF;stop-opacity:0.8776"/>
		<stop  offset="0.3222" style="stop-color:#25F5B7;stop-opacity:0.6778"/>
		<stop  offset="0.5743" style="stop-color:#47EC8F;stop-opacity:0.4257"/>
		<stop  offset="0.8661" style="stop-color:#76E058;stop-opacity:0.1339"/>
		<stop  offset="1" style="stop-color:#8EDA3D;stop-opacity:0"/>
	</linearGradient>
	<path fill="url(#SVGID_8_)" d="M510.993,109.303c-1.12,0-2.101-0.98-2.521-1.96l-13.859-34.02h-15.68v34.02
		c0,1.12-0.841,1.96-1.96,1.96h-12.881c-1.119,0-1.96-0.84-1.96-1.96v-93.8c0-1.12,0.841-1.96,1.96-1.96h44.521
		c0,0,1.96-0.28,3.64,1.4l7.84,7.84c1.68,1.68,1.54,3.64,1.54,3.64v35.56c0,1.54-0.42,2.94-1.54,4.061l-8.26,8.26l14.14,34.86
		c0.42,0.979,0,2.1-1.68,2.1H510.993z M504.273,53.863c0.42-0.42,0.42-0.7,0.42-0.98v-21.14c0-0.28-0.141-0.561-0.28-0.7l-2.38-2.24
		c-0.42-0.279-0.561-0.42-0.98-0.42h-22.119v28.141h22.119c0.28,0,0.561,0,0.98-0.421L504.273,53.863z"/>
	<linearGradient id="SVGID_9_" gradientUnits="userSpaceOnUse" x1="599.2607" y1="11.583" x2="599.2607" y2="109.3027">
		<stop  offset="0" style="stop-color:#08FCD8"/>
		<stop  offset="0.1224" style="stop-color:#10FACF;stop-opacity:0.8776"/>
		<stop  offset="0.3222" style="stop-color:#25F5B7;stop-opacity:0.6778"/>
		<stop  offset="0.5743" style="stop-color:#47EC8F;stop-opacity:0.4257"/>
		<stop  offset="0.8661" style="stop-color:#76E058;stop-opacity:0.1339"/>
		<stop  offset="1" style="stop-color:#8EDA3D;stop-opacity:0"/>
	</linearGradient>
	<path fill="url(#SVGID_9_)" d="M571.19,109.303c-1.119,0-1.96-0.84-1.96-1.96v-94.08c0-0.979,0.98-1.68,1.96-1.68h12.881
		c0.979,0,1.96,0.7,1.96,1.68v79.24h41.3c1.119,0,1.96,0.84,1.96,1.96v12.88c0,1.12-0.841,1.96-1.96,1.96H571.19z"/>
	<linearGradient id="SVGID_10_" gradientUnits="userSpaceOnUse" x1="648.0488" y1="11.583" x2="648.0488" y2="109.3027">
		<stop  offset="0" style="stop-color:#08FCD8"/>
		<stop  offset="0.1224" style="stop-color:#10FACF;stop-opacity:0.8776"/>
		<stop  offset="0.3222" style="stop-color:#25F5B7;stop-opacity:0.6778"/>
		<stop  offset="0.5743" style="stop-color:#47EC8F;stop-opacity:0.4257"/>
		<stop  offset="0.8661" style="stop-color:#76E058;stop-opacity:0.1339"/>
		<stop  offset="1" style="stop-color:#8EDA3D;stop-opacity:0"/>
	</linearGradient>
	<path fill="url(#SVGID_10_)" d="M641.608,109.303c-1.119,0-1.96-0.84-1.96-1.96v-93.8c0-1.12,0.841-1.96,1.96-1.96h12.881
		c1.119,0,1.96,0.84,1.96,1.96v93.8c0,1.12-0.841,1.96-1.96,1.96H641.608z"/>
	<linearGradient id="SVGID_11_" gradientUnits="userSpaceOnUse" x1="698.9385" y1="11.583" x2="698.9385" y2="109.3027">
		<stop  offset="0" style="stop-color:#08FCD8"/>
		<stop  offset="0.1224" style="stop-color:#10FACF;stop-opacity:0.8776"/>
		<stop  offset="0.3222" style="stop-color:#25F5B7;stop-opacity:0.6778"/>
		<stop  offset="0.5743" style="stop-color:#47EC8F;stop-opacity:0.4257"/>
		<stop  offset="0.8661" style="stop-color:#76E058;stop-opacity:0.1339"/>
		<stop  offset="1" style="stop-color:#8EDA3D;stop-opacity:0"/>
	</linearGradient>
	<path fill="url(#SVGID_11_)" d="M673.528,109.303c-1.119,0-1.96-0.84-1.96-1.96v-93.8c0-1.12,0.841-1.96,1.96-1.96h50.82
		c1.12,0,1.96,0.84,1.96,1.96v12.88c0,0.7-0.561,1.96-1.54,1.96h-36.399v23.66h28.56c1.12,0,1.96,0.84,1.96,1.96v12.88
		c0,1.12-0.84,1.96-1.96,1.96h-28.56v38.5c0,1.12-0.841,1.96-1.96,1.96H673.528z"/>
	<linearGradient id="SVGID_12_" gradientUnits="userSpaceOnUse" x1="764.8779" y1="11.583" x2="764.8779" y2="109.3027">
		<stop  offset="0" style="stop-color:#08FCD8"/>
		<stop  offset="0.1224" style="stop-color:#10FACF;stop-opacity:0.8776"/>
		<stop  offset="0.3222" style="stop-color:#25F5B7;stop-opacity:0.6778"/>
		<stop  offset="0.5743" style="stop-color:#47EC8F;stop-opacity:0.4257"/>
		<stop  offset="0.8661" style="stop-color:#76E058;stop-opacity:0.1339"/>
		<stop  offset="1" style="stop-color:#8EDA3D;stop-opacity:0"/>
	</linearGradient>
	<path fill="url(#SVGID_12_)" d="M739.468,109.303c-1.119,0-1.96-0.84-1.96-1.96v-93.8c0-1.12,0.841-1.96,1.96-1.96h50.82
		c1.12,0,1.96,0.84,1.96,1.96v12.88c0,0.98-0.84,1.96-1.96,1.96h-35.979v23.66h28.419c0.98,0,1.961,0.84,1.961,1.96v12.88
		c0,1.12-0.98,1.96-1.961,1.96h-28.419v23.66h35.979c1.12,0,1.96,0.84,1.96,1.96v12.88c0,1.12-0.84,1.96-1.96,1.96H739.468z"/>
</g>
</svg>
