<?xml version="1.0" encoding="utf-8"?>
<!-- Generator: Adobe Illustrator 16.0.0, SVG Export Plug-In . SVG Version: 6.00 Build 0)  -->
<!DOCTYPE svg PUBLIC "-//W3C//DTD SVG 1.1//EN" "http://www.w3.org/Graphics/SVG/1.1/DTD/svg11.dtd">
<svg version="1.1" id="Layer_1" xmlns="http://www.w3.org/2000/svg" xmlns:xlink="http://www.w3.org/1999/xlink" x="0px" y="0px"
	 width="700px" height="150px" viewBox="0 0 700 150" enable-background="new 0 0 700 150" xml:space="preserve">
<g>
	<linearGradient id="SVGID_1_" gradientUnits="userSpaceOnUse" x1="58.2026" y1="137.9316" x2="58.2026" y2="12.2969">
		<stop  offset="0" style="stop-color:#8B4FF8;stop-opacity:0"/>
		<stop  offset="0.0585" style="stop-color:#884EF9;stop-opacity:0.0585"/>
		<stop  offset="0.6415" style="stop-color:#7042FD;stop-opacity:0.6415"/>
		<stop  offset="1" style="stop-color:#673EFF"/>
	</linearGradient>
	<path fill="url(#SVGID_1_)" d="M22.114,137.932c-1.44,0-2.52-1.08-2.52-2.52V14.457c0-1.261,1.26-2.16,2.52-2.16h16.559
		c1.26,0,2.52,0.899,2.52,2.16v101.875h53.098c1.44,0,2.52,1.08,2.52,2.521v16.56c0,1.439-1.08,2.52-2.52,2.52H22.114z"/>
	<linearGradient id="SVGID_2_" gradientUnits="userSpaceOnUse" x1="145.3213" y1="137.9316" x2="145.3213" y2="12.2969">
		<stop  offset="0" style="stop-color:#8B4FF8;stop-opacity:0"/>
		<stop  offset="0.0585" style="stop-color:#884EF9;stop-opacity:0.0585"/>
		<stop  offset="0.6415" style="stop-color:#7042FD;stop-opacity:0.6415"/>
		<stop  offset="1" style="stop-color:#673EFF"/>
	</linearGradient>
	<path fill="url(#SVGID_2_)" d="M112.652,137.932c-1.439,0-2.52-1.08-2.52-2.52V14.816c0-1.439,1.08-2.52,2.52-2.52h65.337
		c1.44,0,2.52,1.08,2.52,2.52v16.56c0,1.26-1.08,2.52-2.52,2.52h-46.258v30.419h36.539c1.26,0,2.52,1.08,2.52,2.521v16.559
		c0,1.44-1.26,2.521-2.52,2.521h-36.539v30.418h46.258c1.44,0,2.52,1.08,2.52,2.521v16.56c0,1.439-1.08,2.52-2.52,2.52H112.652z"/>
	<linearGradient id="SVGID_3_" gradientUnits="userSpaceOnUse" x1="230.9956" y1="137.9316" x2="230.9956" y2="12.2969">
		<stop  offset="0" style="stop-color:#8B4FF8;stop-opacity:0"/>
		<stop  offset="0.0585" style="stop-color:#884EF9;stop-opacity:0.0585"/>
		<stop  offset="0.6415" style="stop-color:#7042FD;stop-opacity:0.6415"/>
		<stop  offset="1" style="stop-color:#673EFF"/>
	</linearGradient>
	<path fill="url(#SVGID_3_)" d="M221.37,137.932c-1.44,0-3.06-1.62-3.42-2.88L186.812,15.537c-0.36-1.44,0.72-3.24,2.16-3.24h17.639
		c1.44,0,2.34,0.899,2.7,2.52l21.599,92.696l21.599-92.696c0.36-1.62,1.26-2.52,2.7-2.52h17.639c1.44,0,2.7,1.979,2.34,3.24
		l-31.139,119.154c-0.54,2.16-2.16,3.24-3.42,3.24H221.37z"/>
	<linearGradient id="SVGID_4_" gradientUnits="userSpaceOnUse" x1="321.8989" y1="137.9316" x2="321.8989" y2="12.2969">
		<stop  offset="0" style="stop-color:#8B4FF8;stop-opacity:0"/>
		<stop  offset="0.0585" style="stop-color:#884EF9;stop-opacity:0.0585"/>
		<stop  offset="0.6415" style="stop-color:#7042FD;stop-opacity:0.6415"/>
		<stop  offset="1" style="stop-color:#673EFF"/>
	</linearGradient>
	<path fill="url(#SVGID_4_)" d="M289.23,137.932c-1.44,0-2.52-1.08-2.52-2.52V14.816c0-1.439,1.08-2.52,2.52-2.52h65.337
		c1.44,0,2.52,1.08,2.52,2.52v16.56c0,1.26-1.08,2.52-2.52,2.52H308.31v30.419h36.539c1.26,0,2.52,1.08,2.52,2.521v16.559
		c0,1.44-1.26,2.521-2.52,2.521H308.31v30.418h46.258c1.44,0,2.52,1.08,2.52,2.521v16.56c0,1.439-1.08,2.52-2.52,2.52H289.23z"/>
	<linearGradient id="SVGID_5_" gradientUnits="userSpaceOnUse" x1="410.0977" y1="137.9316" x2="410.0977" y2="12.2969">
		<stop  offset="0" style="stop-color:#8B4FF8;stop-opacity:0"/>
		<stop  offset="0.0585" style="stop-color:#884EF9;stop-opacity:0.0585"/>
		<stop  offset="0.6415" style="stop-color:#7042FD;stop-opacity:0.6415"/>
		<stop  offset="1" style="stop-color:#673EFF"/>
	</linearGradient>
	<path fill="url(#SVGID_5_)" d="M374.009,137.932c-1.439,0-2.52-1.08-2.52-2.52V14.457c0-1.261,1.26-2.16,2.52-2.16h16.56
		c1.26,0,2.52,0.899,2.52,2.16v101.875h53.098c1.44,0,2.52,1.08,2.52,2.521v16.56c0,1.439-1.08,2.52-2.52,2.52H374.009z"/>
	<linearGradient id="SVGID_6_" gradientUnits="userSpaceOnUse" x1="544.4639" y1="137.9316" x2="544.4639" y2="12.2969">
		<stop  offset="0" style="stop-color:#8B4FF8;stop-opacity:0"/>
		<stop  offset="0.0585" style="stop-color:#884EF9;stop-opacity:0.0585"/>
		<stop  offset="0.6415" style="stop-color:#7042FD;stop-opacity:0.6415"/>
		<stop  offset="1" style="stop-color:#673EFF"/>
	</linearGradient>
	<path fill="url(#SVGID_6_)" d="M572.363,136.132c-1.08,1.26-3.06,1.8-4.68,1.8h-46.438c-1.44,0-3.6-0.72-4.68-1.8l-10.259-10.26
		c-1.8-1.8-1.8-3.24-1.8-4.68V14.816c0-1.439,1.08-2.52,2.52-2.52h16.56c1.439,0,2.52,1.08,2.52,2.52v97.736
		c0,0.36,0.18,0.9,0.54,1.26l2.52,2.52h30.599l2.52-2.52c0.36-0.359,0.54-0.899,0.54-1.26V14.816c0-1.439,1.08-2.52,2.52-2.52h16.56
		c1.26,0,2.52,1.08,2.52,2.52v106.376c0,1.08-0.54,3.24-1.98,4.68L572.363,136.132z"/>
	<linearGradient id="SVGID_7_" gradientUnits="userSpaceOnUse" x1="641.5737" y1="137.9316" x2="641.5737" y2="12.2969">
		<stop  offset="0" style="stop-color:#8B4FF8;stop-opacity:0"/>
		<stop  offset="0.0585" style="stop-color:#884EF9;stop-opacity:0.0585"/>
		<stop  offset="0.6415" style="stop-color:#7042FD;stop-opacity:0.6415"/>
		<stop  offset="1" style="stop-color:#673EFF"/>
	</linearGradient>
	<path fill="url(#SVGID_7_)" d="M605.845,137.932c-1.439,0-2.52-1.08-2.52-2.52V14.816c0-1.439,1.08-2.52,2.52-2.52h57.238
		c1.62,0,3.06,0.18,4.68,1.8l10.079,10.079c1.98,2.16,1.98,3.78,1.98,4.681v46.258c0,1.979-0.54,3.24-1.98,4.68l-10.079,10.08
		c-1.08,1.079-2.52,1.979-4.68,1.979h-38.158v43.559c0,1.439-1.08,2.52-2.52,2.52H605.845z M657.683,66.654
		c0.18-0.18,0.36-0.359,0.36-0.72V38.216c0-0.36,0-0.54-0.36-0.9l-3.24-3.06c-0.18-0.18-0.54-0.36-0.9-0.36h-28.619v36.179h28.619
		c0.54,0,0.9-0.18,1.08-0.359L657.683,66.654z"/>
</g>
</svg>
