<?xml version="1.0" encoding="utf-8"?>
<!-- Generator: Adobe Illustrator 16.0.0, SVG Export Plug-In . SVG Version: 6.00 Build 0)  -->
<!DOCTYPE svg PUBLIC "-//W3C//DTD SVG 1.1//EN" "http://www.w3.org/Graphics/SVG/1.1/DTD/svg11.dtd">
<svg version="1.1" id="Layer_1" xmlns="http://www.w3.org/2000/svg" xmlns:xlink="http://www.w3.org/1999/xlink" x="0px" y="0px"
	 width="140px" height="100px" viewBox="0 0 140 100" enable-background="new 0 0 140 100" xml:space="preserve">
<g>
	<g>
		<path fill="#FF1070" d="M8.334,72.745v-1.57h1.57v1.57H8.334z M8.334,74.276v-1.531h1.57v1.531H8.334z M8.334,75.847v-1.57h1.57
			v1.57H8.334z M8.334,77.417v-1.57h1.57v1.57H8.334z M8.334,78.979v-1.562h1.57v1.562H8.334z M8.334,80.55v-1.57h1.57v1.57H8.334z
			 M8.334,82.112V80.55h1.57v1.562H8.334z M8.334,83.683v-1.57h1.57v1.57H8.334z M8.334,85.214v-1.531h1.57v1.531H8.334z
			 M9.904,72.745v-1.57h1.562v1.57H9.904z M9.904,85.214v-1.531h1.562v1.531H9.904z M11.467,85.214v1.547H9.904v-1.547H11.467z
			 M11.467,72.745v-1.57h1.57v1.57H11.467z M11.467,85.214v-1.531h1.57v1.531H11.467z M13.037,85.214v1.547h-1.57v-1.547H13.037z
			 M13.037,72.745v-1.57h1.531v1.57H13.037z M13.037,75.847v-1.57h1.531v1.57H13.037z M13.037,77.417v-1.57h1.531v1.57H13.037z
			 M13.037,78.979v-1.562h1.531v1.562H13.037z M13.037,82.112V80.55h1.531v1.562H13.037z M13.037,83.683v-1.57h1.531v1.57H13.037z
			 M13.037,85.214v-1.531h1.531v1.531H13.037z M14.568,85.214v1.547h-1.531v-1.547H14.568z M14.568,72.745v-1.57h1.57v1.57H14.568z
			 M14.568,75.847v-1.57h1.57v1.57H14.568z M14.568,77.417v-1.57h1.57v1.57H14.568z M14.568,78.979v-1.562h1.57v1.562H14.568z
			 M14.568,82.112V80.55h1.57v1.562H14.568z M14.568,83.683v-1.57h1.57v1.57H14.568z M14.568,85.214v-1.531h1.57v1.531H14.568z
			 M16.139,85.214v1.547h-1.57v-1.547H16.139z M16.139,72.745v-1.57h1.57v1.57H16.139z M16.139,75.847v-1.57h1.57v1.57H16.139z
			 M16.139,77.417v-1.57h1.57v1.57H16.139z M16.139,78.979v-1.562h1.57v1.562H16.139z M16.139,82.112V80.55h1.57v1.562H16.139z
			 M16.139,83.683v-1.57h1.57v1.57H16.139z M17.709,72.745v-1.57h1.562v1.57H17.709z M17.709,82.112V80.55h1.562v1.562H17.709z
			 M17.709,83.683v-1.57h1.562v1.57H17.709z M19.271,72.745v-1.57h1.57v1.57H19.271z M19.271,74.276v-1.531h1.57v1.531H19.271z
			 M19.271,80.55v-1.57h1.57v1.57H19.271z M19.271,82.112V80.55h1.57v1.562H19.271z M19.271,83.683v-1.57h1.57v1.57H19.271z
			 M20.842,74.276v-1.531h1.562v1.531H20.842z M20.842,75.847v-1.57h1.562v1.57H20.842z M20.842,77.417v-1.57h1.562v1.57H20.842z
			 M20.842,78.979v-1.562h1.562v1.562H20.842z M20.842,80.55v-1.57h1.562v1.57H20.842z M20.842,82.112V80.55h1.562v1.562H20.842z
			 M20.842,83.683v-1.57h1.562v1.57H20.842z M22.404,75.847v-1.57h1.539v1.57H22.404z M22.404,77.417v-1.57h1.539v1.57H22.404z
			 M22.404,78.979v-1.562h1.539v1.562H22.404z M22.404,80.55v-1.57h1.539v1.57H22.404z M22.404,82.112V80.55h1.539v1.562H22.404z"/>
		<path fill="#FF1070" d="M22.404,72.745v-1.57h1.57v1.57H22.404z M22.404,74.276v-1.531h1.57v1.531H22.404z M22.404,75.847v-1.57
			h1.57v1.57H22.404z M22.404,77.417v-1.57h1.57v1.57H22.404z M22.404,78.979v-1.562h1.57v1.562H22.404z M22.404,80.55v-1.57h1.57
			v1.57H22.404z M22.404,82.112V80.55h1.57v1.562H22.404z M22.404,83.683v-1.57h1.57v1.57H22.404z M22.404,85.214v-1.531h1.57v1.531
			H22.404z M23.975,72.745v-1.57h1.562v1.57H23.975z M23.975,85.214v-1.531h1.562v1.531H23.975z M25.537,85.214v1.547h-1.562v-1.547
			H25.537z M25.537,72.745v-1.57h1.57v1.57H25.537z M25.537,85.214v-1.531h1.57v1.531H25.537z M27.107,85.214v1.547h-1.57v-1.547
			H27.107z M27.107,72.745v-1.57h1.531v1.57H27.107z M27.107,75.847v-1.57h1.531v1.57H27.107z M27.107,77.417v-1.57h1.531v1.57
			H27.107z M27.107,80.55v-1.57h1.531v1.57H27.107z M27.107,82.112V80.55h1.531v1.562H27.107z M27.107,83.683v-1.57h1.531v1.57
			H27.107z M27.107,85.214v-1.531h1.531v1.531H27.107z M28.639,85.214v1.547h-1.531v-1.547H28.639z M28.639,72.745v-1.57h1.57v1.57
			H28.639z M28.639,75.847v-1.57h1.57v1.57H28.639z M28.639,77.417v-1.57h1.57v1.57H28.639z M28.639,80.55v-1.57h1.57v1.57H28.639z
			 M28.639,82.112V80.55h1.57v1.562H28.639z M28.639,83.683v-1.57h1.57v1.57H28.639z M28.639,85.214v-1.531h1.57v1.531H28.639z
			 M30.209,85.214v1.547h-1.57v-1.547H30.209z M30.209,72.745v-1.57h1.57v1.57H30.209z M30.209,75.847v-1.57h1.57v1.57H30.209z
			 M30.209,77.417v-1.57h1.57v1.57H30.209z M30.209,80.55v-1.57h1.57v1.57H30.209z M30.209,82.112V80.55h1.57v1.562H30.209z
			 M30.209,83.683v-1.57h1.57v1.57H30.209z M30.209,85.214v-1.531h1.57v1.531H30.209z M31.779,72.745v-1.57h1.562v1.57H31.779z
			 M31.779,85.214v-1.531h1.562v1.531H31.779z M33.342,85.214v1.547h-1.562v-1.547H33.342z M33.342,72.745v-1.57h1.57v1.57H33.342z
			 M33.342,74.276v-1.531h1.57v1.531H33.342z M33.342,78.979v-1.562h1.57v1.562H33.342z M33.342,85.214v-1.531h1.57v1.531H33.342z
			 M34.912,85.214v1.547h-1.57v-1.547H34.912z M34.912,74.276v-1.531h1.562v1.531H34.912z M34.912,75.847v-1.57h1.562v1.57H34.912z
			 M34.912,77.417v-1.57h1.562v1.57H34.912z M34.912,78.979v-1.562h1.562v1.562H34.912z M34.912,80.55v-1.57h1.562v1.57H34.912z
			 M34.912,82.112V80.55h1.562v1.562H34.912z M34.912,83.683v-1.57h1.562v1.57H34.912z M34.912,85.214v-1.531h1.562v1.531H34.912z
			 M36.475,85.214v1.547h-1.562v-1.547H36.475z M36.475,75.847v-1.57h1.539v1.57H36.475z M36.475,77.417v-1.57h1.539v1.57H36.475z
			 M36.475,78.979v-1.562h1.539v1.562H36.475z M36.475,80.55v-1.57h1.539v1.57H36.475z M36.475,82.112V80.55h1.539v1.562H36.475z
			 M36.475,83.683v-1.57h1.539v1.57H36.475z M36.475,85.214v-1.531h1.539v1.531H36.475z M38.014,85.214v1.547h-1.539v-1.547H38.014z
			"/>
		<path fill="#FF1070" d="M36.475,72.745v-1.57h1.57v1.57H36.475z M36.475,74.276v-1.531h1.57v1.531H36.475z M36.475,75.847v-1.57
			h1.57v1.57H36.475z M36.475,77.417v-1.57h1.57v1.57H36.475z M36.475,78.979v-1.562h1.57v1.562H36.475z M36.475,80.55v-1.57h1.57
			v1.57H36.475z M36.475,82.112V80.55h1.57v1.562H36.475z M36.475,83.683v-1.57h1.57v1.57H36.475z M36.475,85.214v-1.531h1.57v1.531
			H36.475z M38.045,72.745v-1.57h1.562v1.57H38.045z M38.045,85.214v-1.531h1.562v1.531H38.045z M39.607,85.214v1.547h-1.562v-1.547
			H39.607z M39.607,72.745v-1.57h1.57v1.57H39.607z M39.607,85.214v-1.531h1.57v1.531H39.607z M41.178,85.214v1.547h-1.57v-1.547
			H41.178z M41.178,72.745v-1.57h1.531v1.57H41.178z M41.178,75.847v-1.57h1.531v1.57H41.178z M41.178,77.417v-1.57h1.531v1.57
			H41.178z M41.178,80.55v-1.57h1.531v1.57H41.178z M41.178,82.112V80.55h1.531v1.562H41.178z M41.178,85.214v-1.531h1.531v1.531
			H41.178z M42.709,85.214v1.547h-1.531v-1.547H42.709z M42.709,72.745v-1.57h1.57v1.57H42.709z M42.709,75.847v-1.57h1.57v1.57
			H42.709z M42.709,77.417v-1.57h1.57v1.57H42.709z M42.709,80.55v-1.57h1.57v1.57H42.709z M42.709,82.112V80.55h1.57v1.562H42.709z
			 M42.709,85.214v-1.531h1.57v1.531H42.709z M44.279,85.214v1.547h-1.57v-1.547H44.279z M44.279,72.745v-1.57h1.57v1.57H44.279z
			 M44.279,75.847v-1.57h1.57v1.57H44.279z M44.279,77.417v-1.57h1.57v1.57H44.279z M44.279,80.55v-1.57h1.57v1.57H44.279z
			 M44.279,82.112V80.55h1.57v1.562H44.279z M44.279,85.214v-1.531h1.57v1.531H44.279z M45.85,85.214v1.547h-1.57v-1.547H45.85z
			 M45.85,72.745v-1.57h1.562v1.57H45.85z M45.85,75.847v-1.57h1.562v1.57H45.85z M45.85,77.417v-1.57h1.562v1.57H45.85z
			 M45.85,80.55v-1.57h1.562v1.57H45.85z M45.85,82.112V80.55h1.562v1.562H45.85z M45.85,85.214v-1.531h1.562v1.531H45.85z
			 M47.412,85.214v1.547H45.85v-1.547H47.412z M47.412,72.745v-1.57h1.57v1.57H47.412z M47.412,75.847v-1.57h1.57v1.57H47.412z
			 M47.412,77.417v-1.57h1.57v1.57H47.412z M47.412,78.979v-1.562h1.57v1.562H47.412z M47.412,80.55v-1.57h1.57v1.57H47.412z
			 M47.412,82.112V80.55h1.57v1.562H47.412z M47.412,85.214v-1.531h1.57v1.531H47.412z M48.982,85.214v1.547h-1.57v-1.547H48.982z
			 M48.982,72.745v-1.57h1.562v1.57H48.982z M48.982,74.276v-1.531h1.562v1.531H48.982z M48.982,75.847v-1.57h1.562v1.57H48.982z
			 M48.982,77.417v-1.57h1.562v1.57H48.982z M48.982,78.979v-1.562h1.562v1.562H48.982z M48.982,80.55v-1.57h1.562v1.57H48.982z
			 M48.982,82.112V80.55h1.562v1.562H48.982z M48.982,83.683v-1.57h1.562v1.57H48.982z M48.982,85.214v-1.531h1.562v1.531H48.982z
			 M50.545,85.214v1.547h-1.562v-1.547H50.545z M50.545,74.276v-1.531h1.539v1.531H50.545z M50.545,75.847v-1.57h1.539v1.57H50.545z
			 M50.545,77.417v-1.57h1.539v1.57H50.545z M50.545,83.683v-1.57h1.539v1.57H50.545z M50.545,85.214v-1.531h1.539v1.531H50.545z
			 M52.084,85.214v1.547h-1.539v-1.547H52.084z"/>
		<path fill="#FF1070" d="M50.545,74.276v-1.531h1.57v1.531H50.545z M50.545,75.847v-1.57h1.57v1.57H50.545z M50.545,77.417v-1.57
			h1.57v1.57H50.545z M50.545,78.979v-1.562h1.57v1.562H50.545z M50.545,80.55v-1.57h1.57v1.57H50.545z M50.545,82.112V80.55h1.57
			v1.562H50.545z M50.545,83.683v-1.57h1.57v1.57H50.545z M52.115,72.745v-1.57h1.562v1.57H52.115z M52.115,74.276v-1.531h1.562
			v1.531H52.115z M52.115,78.979v-1.562h1.562v1.562H52.115z M52.115,80.55v-1.57h1.562v1.57H52.115z M52.115,83.683v-1.57h1.562
			v1.57H52.115z M52.115,85.214v-1.531h1.562v1.531H52.115z M53.678,72.745v-1.57h1.57v1.57H53.678z M53.678,80.55v-1.57h1.57v1.57
			H53.678z M53.678,85.214v-1.531h1.57v1.531H53.678z M55.248,85.214v1.547h-1.57v-1.547H55.248z M55.248,72.745v-1.57h1.531v1.57
			H55.248z M55.248,75.847v-1.57h1.531v1.57H55.248z M55.248,77.417v-1.57h1.531v1.57H55.248z M55.248,80.55v-1.57h1.531v1.57
			H55.248z M55.248,82.112V80.55h1.531v1.562H55.248z M55.248,85.214v-1.531h1.531v1.531H55.248z M56.779,85.214v1.547h-1.531
			v-1.547H56.779z M56.779,72.745v-1.57h1.57v1.57H56.779z M56.779,75.847v-1.57h1.57v1.57H56.779z M56.779,77.417v-1.57h1.57v1.57
			H56.779z M56.779,80.55v-1.57h1.57v1.57H56.779z M56.779,82.112V80.55h1.57v1.562H56.779z M56.779,85.214v-1.531h1.57v1.531
			H56.779z M58.35,85.214v1.547h-1.57v-1.547H58.35z M58.35,72.745v-1.57h1.57v1.57H58.35z M58.35,75.847v-1.57h1.57v1.57H58.35z
			 M58.35,77.417v-1.57h1.57v1.57H58.35z M58.35,80.55v-1.57h1.57v1.57H58.35z M58.35,82.112V80.55h1.57v1.562H58.35z M58.35,85.214
			v-1.531h1.57v1.531H58.35z M59.92,85.214v1.547h-1.57v-1.547H59.92z M59.92,72.745v-1.57h1.562v1.57H59.92z M59.92,77.417v-1.57
			h1.562v1.57H59.92z M59.92,85.214v-1.531h1.562v1.531H59.92z M61.482,85.214v1.547H59.92v-1.547H61.482z M61.482,72.745v-1.57
			h1.57v1.57H61.482z M61.482,74.276v-1.531h1.57v1.531H61.482z M61.482,77.417v-1.57h1.57v1.57H61.482z M61.482,78.979v-1.562h1.57
			v1.562H61.482z M61.482,83.683v-1.57h1.57v1.57H61.482z M61.482,85.214v-1.531h1.57v1.531H61.482z M63.053,85.214v1.547h-1.57
			v-1.547H63.053z M63.053,74.276v-1.531h1.562v1.531H63.053z M63.053,75.847v-1.57h1.562v1.57H63.053z M63.053,77.417v-1.57h1.562
			v1.57H63.053z M63.053,78.979v-1.562h1.562v1.562H63.053z M63.053,80.55v-1.57h1.562v1.57H63.053z M63.053,82.112V80.55h1.562
			v1.562H63.053z M63.053,83.683v-1.57h1.562v1.57H63.053z M63.053,85.214v-1.531h1.562v1.531H63.053z M64.615,85.214v1.547h-1.562
			v-1.547H64.615z M64.615,75.847v-1.57h1.539v1.57H64.615z M64.615,77.417v-1.57h1.539v1.57H64.615z M64.615,78.979v-1.562h1.539
			v1.562H64.615z M64.615,80.55v-1.57h1.539v1.57H64.615z M64.615,82.112V80.55h1.539v1.562H64.615z M64.615,83.683v-1.57h1.539
			v1.57H64.615z M64.615,85.214v-1.531h1.539v1.531H64.615z"/>
		<path fill="#FF1070" d="M64.615,74.276v-1.531h1.57v1.531H64.615z M64.615,75.847v-1.57h1.57v1.57H64.615z M64.615,77.417v-1.57
			h1.57v1.57H64.615z M64.615,78.979v-1.562h1.57v1.562H64.615z M64.615,80.55v-1.57h1.57v1.57H64.615z M64.615,82.112V80.55h1.57
			v1.562H64.615z M64.615,83.683v-1.57h1.57v1.57H64.615z M66.186,72.745v-1.57h1.562v1.57H66.186z M66.186,74.276v-1.531h1.562
			v1.531H66.186z M66.186,78.979v-1.562h1.562v1.562H66.186z M66.186,80.55v-1.57h1.562v1.57H66.186z M66.186,83.683v-1.57h1.562
			v1.57H66.186z M66.186,85.214v-1.531h1.562v1.531H66.186z M67.748,72.745v-1.57h1.57v1.57H67.748z M67.748,80.55v-1.57h1.57v1.57
			H67.748z M67.748,85.214v-1.531h1.57v1.531H67.748z M69.318,85.214v1.547h-1.57v-1.547H69.318z M69.318,72.745v-1.57h1.531v1.57
			H69.318z M69.318,75.847v-1.57h1.531v1.57H69.318z M69.318,77.417v-1.57h1.531v1.57H69.318z M69.318,80.55v-1.57h1.531v1.57
			H69.318z M69.318,82.112V80.55h1.531v1.562H69.318z M69.318,85.214v-1.531h1.531v1.531H69.318z M70.85,85.214v1.547h-1.531v-1.547
			H70.85z M70.85,72.745v-1.57h1.57v1.57H70.85z M70.85,75.847v-1.57h1.57v1.57H70.85z M70.85,77.417v-1.57h1.57v1.57H70.85z
			 M70.85,80.55v-1.57h1.57v1.57H70.85z M70.85,82.112V80.55h1.57v1.562H70.85z M70.85,85.214v-1.531h1.57v1.531H70.85z
			 M72.42,85.214v1.547h-1.57v-1.547H72.42z M72.42,72.745v-1.57h1.57v1.57H72.42z M72.42,75.847v-1.57h1.57v1.57H72.42z
			 M72.42,77.417v-1.57h1.57v1.57H72.42z M72.42,80.55v-1.57h1.57v1.57H72.42z M72.42,82.112V80.55h1.57v1.562H72.42z M72.42,85.214
			v-1.531h1.57v1.531H72.42z M73.99,85.214v1.547h-1.57v-1.547H73.99z M73.99,72.745v-1.57h1.562v1.57H73.99z M73.99,77.417v-1.57
			h1.562v1.57H73.99z M73.99,85.214v-1.531h1.562v1.531H73.99z M75.553,85.214v1.547H73.99v-1.547H75.553z M75.553,72.745v-1.57
			h1.57v1.57H75.553z M75.553,74.276v-1.531h1.57v1.531H75.553z M75.553,77.417v-1.57h1.57v1.57H75.553z M75.553,78.979v-1.562h1.57
			v1.562H75.553z M75.553,83.683v-1.57h1.57v1.57H75.553z M75.553,85.214v-1.531h1.57v1.531H75.553z M77.123,85.214v1.547h-1.57
			v-1.547H77.123z M77.123,74.276v-1.531h1.562v1.531H77.123z M77.123,75.847v-1.57h1.562v1.57H77.123z M77.123,77.417v-1.57h1.562
			v1.57H77.123z M77.123,78.979v-1.562h1.562v1.562H77.123z M77.123,80.55v-1.57h1.562v1.57H77.123z M77.123,82.112V80.55h1.562
			v1.562H77.123z M77.123,83.683v-1.57h1.562v1.57H77.123z M77.123,85.214v-1.531h1.562v1.531H77.123z M78.686,85.214v1.547h-1.562
			v-1.547H78.686z M78.686,75.847v-1.57h1.539v1.57H78.686z M78.686,77.417v-1.57h1.539v1.57H78.686z M78.686,78.979v-1.562h1.539
			v1.562H78.686z M78.686,80.55v-1.57h1.539v1.57H78.686z M78.686,82.112V80.55h1.539v1.562H78.686z M78.686,83.683v-1.57h1.539
			v1.57H78.686z M78.686,85.214v-1.531h1.539v1.531H78.686z"/>
		<path fill="#FF1070" d="M83.131,72.745v-1.57h1.57v1.57H83.131z M83.131,74.276v-1.531h1.57v1.531H83.131z M83.131,75.847v-1.57
			h1.57v1.57H83.131z M84.701,72.745v-1.57h1.562v1.57H84.701z M84.701,75.847v-1.57h1.562v1.57H84.701z M86.264,72.745v-1.57h1.57
			v1.57H86.264z M86.264,75.847v-1.57h1.57v1.57H86.264z M86.264,77.417v-1.57h1.57v1.57H86.264z M86.264,78.979v-1.562h1.57v1.562
			H86.264z M86.264,80.55v-1.57h1.57v1.57H86.264z M86.264,82.112V80.55h1.57v1.562H86.264z M86.264,83.683v-1.57h1.57v1.57H86.264z
			 M86.264,85.214v-1.531h1.57v1.531H86.264z M87.834,72.745v-1.57h1.531v1.57H87.834z M87.834,85.214v-1.531h1.531v1.531H87.834z
			 M89.365,85.214v1.547h-1.531v-1.547H89.365z M89.365,72.745v-1.57h1.57v1.57H89.365z M89.365,85.214v-1.531h1.57v1.531H89.365z
			 M90.936,85.214v1.547h-1.57v-1.547H90.936z M90.936,72.745v-1.57h1.57v1.57H90.936z M90.936,75.847v-1.57h1.57v1.57H90.936z
			 M90.936,77.417v-1.57h1.57v1.57H90.936z M90.936,78.979v-1.562h1.57v1.562H90.936z M90.936,80.55v-1.57h1.57v1.57H90.936z
			 M90.936,82.112V80.55h1.57v1.562H90.936z M90.936,83.683v-1.57h1.57v1.57H90.936z M90.936,85.214v-1.531h1.57v1.531H90.936z
			 M92.506,85.214v1.547h-1.57v-1.547H92.506z M92.506,72.745v-1.57h1.562v1.57H92.506z M92.506,75.847v-1.57h1.562v1.57H92.506z
			 M92.506,77.417v-1.57h1.562v1.57H92.506z M92.506,78.979v-1.562h1.562v1.562H92.506z M92.506,80.55v-1.57h1.562v1.57H92.506z
			 M92.506,82.112V80.55h1.562v1.562H92.506z M92.506,83.683v-1.57h1.562v1.57H92.506z M92.506,85.214v-1.531h1.562v1.531H92.506z
			 M94.068,85.214v1.547h-1.562v-1.547H94.068z M94.068,72.745v-1.57h1.57v1.57H94.068z M94.068,74.276v-1.531h1.57v1.531H94.068z
			 M94.068,75.847v-1.57h1.57v1.57H94.068z M94.068,77.417v-1.57h1.57v1.57H94.068z M95.639,74.276v-1.531h1.562v1.531H95.639z
			 M95.639,75.847v-1.57h1.562v1.57H95.639z M95.639,77.417v-1.57h1.562v1.57H95.639z"/>
		<path fill="#FF1070" d="M95.639,72.745v-1.57h1.57v1.57H95.639z M95.639,74.276v-1.531h1.57v1.531H95.639z M95.639,75.847v-1.57
			h1.57v1.57H95.639z M95.639,77.417v-1.57h1.57v1.57H95.639z M95.639,78.979v-1.562h1.57v1.562H95.639z M95.639,80.55v-1.57h1.57
			v1.57H95.639z M95.639,82.112V80.55h1.57v1.562H95.639z M95.639,83.683v-1.57h1.57v1.57H95.639z M95.639,85.214v-1.531h1.57v1.531
			H95.639z M97.209,72.745v-1.57h1.562v1.57H97.209z M97.209,85.214v-1.531h1.562v1.531H97.209z M98.771,85.214v1.547h-1.562v-1.547
			H98.771z M98.771,72.745v-1.57h1.57v1.57H98.771z M98.771,85.214v-1.531h1.57v1.531H98.771z M100.342,85.214v1.547h-1.57v-1.547
			H100.342z M100.342,72.745v-1.57h1.531v1.57H100.342z M100.342,74.276v-1.531h1.531v1.531H100.342z M100.342,75.847v-1.57h1.531
			v1.57H100.342z M100.342,77.417v-1.57h1.531v1.57H100.342z M100.342,80.55v-1.57h1.531v1.57H100.342z M100.342,82.112V80.55h1.531
			v1.562H100.342z M100.342,83.683v-1.57h1.531v1.57H100.342z M100.342,85.214v-1.531h1.531v1.531H100.342z M101.873,85.214v1.547
			h-1.531v-1.547H101.873z M101.873,74.276v-1.531h1.57v1.531H101.873z M101.873,75.847v-1.57h1.57v1.57H101.873z M101.873,77.417
			v-1.57h1.57v1.57H101.873z M101.873,80.55v-1.57h1.57v1.57H101.873z M101.873,82.112V80.55h1.57v1.562H101.873z M101.873,83.683
			v-1.57h1.57v1.57H101.873z M101.873,85.214v-1.531h1.57v1.531H101.873z M103.443,85.214v1.547h-1.57v-1.547H103.443z
			 M103.443,72.745v-1.57h1.57v1.57H103.443z M103.443,74.276v-1.531h1.57v1.531H103.443z M103.443,75.847v-1.57h1.57v1.57H103.443z
			 M103.443,77.417v-1.57h1.57v1.57H103.443z M103.443,80.55v-1.57h1.57v1.57H103.443z M103.443,82.112V80.55h1.57v1.562H103.443z
			 M103.443,83.683v-1.57h1.57v1.57H103.443z M103.443,85.214v-1.531h1.57v1.531H103.443z M105.014,72.745v-1.57h1.562v1.57H105.014
			z M105.014,85.214v-1.531h1.562v1.531H105.014z M106.576,85.214v1.547h-1.562v-1.547H106.576z M106.576,72.745v-1.57h1.57v1.57
			H106.576z M106.576,85.214v-1.531h1.57v1.531H106.576z M108.146,85.214v1.547h-1.57v-1.547H108.146z M108.146,72.745v-1.57h1.562
			v1.57H108.146z M108.146,74.276v-1.531h1.562v1.531H108.146z M108.146,75.847v-1.57h1.562v1.57H108.146z M108.146,77.417v-1.57
			h1.562v1.57H108.146z M108.146,78.979v-1.562h1.562v1.562H108.146z M108.146,80.55v-1.57h1.562v1.57H108.146z M108.146,82.112
			V80.55h1.562v1.562H108.146z M108.146,83.683v-1.57h1.562v1.57H108.146z M108.146,85.214v-1.531h1.562v1.531H108.146z
			 M109.709,85.214v1.547h-1.562v-1.547H109.709z M109.709,74.276v-1.531h1.539v1.531H109.709z M109.709,75.847v-1.57h1.539v1.57
			H109.709z M109.709,77.417v-1.57h1.539v1.57H109.709z M109.709,78.979v-1.562h1.539v1.562H109.709z M109.709,80.55v-1.57h1.539
			v1.57H109.709z M109.709,82.112V80.55h1.539v1.562H109.709z M109.709,83.683v-1.57h1.539v1.57H109.709z M109.709,85.214v-1.531
			h1.539v1.531H109.709z M111.248,85.214v1.547h-1.539v-1.547H111.248z"/>
		<path fill="#FF1070" d="M109.709,72.745v-1.57h1.57v1.57H109.709z M109.709,74.276v-1.531h1.57v1.531H109.709z M109.709,75.847
			v-1.57h1.57v1.57H109.709z M109.709,77.417v-1.57h1.57v1.57H109.709z M109.709,78.979v-1.562h1.57v1.562H109.709z M109.709,80.55
			v-1.57h1.57v1.57H109.709z M109.709,82.112V80.55h1.57v1.562H109.709z M109.709,83.683v-1.57h1.57v1.57H109.709z M109.709,85.214
			v-1.531h1.57v1.531H109.709z M111.279,72.745v-1.57h1.562v1.57H111.279z M111.279,85.214v-1.531h1.562v1.531H111.279z
			 M112.842,85.214v1.547h-1.562v-1.547H112.842z M112.842,72.745v-1.57h1.57v1.57H112.842z M112.842,85.214v-1.531h1.57v1.531
			H112.842z M114.412,85.214v1.547h-1.57v-1.547H114.412z M114.412,72.745v-1.57h1.531v1.57H114.412z M114.412,74.276v-1.531h1.531
			v1.531H114.412z M114.412,75.847v-1.57h1.531v1.57H114.412z M114.412,77.417v-1.57h1.531v1.57H114.412z M114.412,78.979v-1.562
			h1.531v1.562H114.412z M114.412,80.55v-1.57h1.531v1.57H114.412z M114.412,82.112V80.55h1.531v1.562H114.412z M114.412,83.683
			v-1.57h1.531v1.57H114.412z M114.412,85.214v-1.531h1.531v1.531H114.412z M115.943,85.214v1.547h-1.531v-1.547H115.943z
			 M115.943,74.276v-1.531h1.57v1.531H115.943z M115.943,75.847v-1.57h1.57v1.57H115.943z M115.943,77.417v-1.57h1.57v1.57H115.943z
			 M115.943,78.979v-1.562h1.57v1.562H115.943z M115.943,80.55v-1.57h1.57v1.57H115.943z M115.943,82.112V80.55h1.57v1.562H115.943z
			 M115.943,83.683v-1.57h1.57v1.57H115.943z M115.943,85.214v-1.531h1.57v1.531H115.943z M117.514,85.214v1.547h-1.57v-1.547
			H117.514z"/>
		<path fill="#FF1070" d="M115.943,74.276v-1.531h1.57v1.531H115.943z M115.943,75.847v-1.57h1.57v1.57H115.943z M115.943,77.417
			v-1.57h1.57v1.57H115.943z M115.943,78.979v-1.562h1.57v1.562H115.943z M115.943,80.55v-1.57h1.57v1.57H115.943z M115.943,82.112
			V80.55h1.57v1.562H115.943z M115.943,83.683v-1.57h1.57v1.57H115.943z M117.514,72.745v-1.57h1.562v1.57H117.514z M117.514,74.276
			v-1.531h1.562v1.531H117.514z M117.514,78.979v-1.562h1.562v1.562H117.514z M117.514,80.55v-1.57h1.562v1.57H117.514z
			 M117.514,83.683v-1.57h1.562v1.57H117.514z M117.514,85.214v-1.531h1.562v1.531H117.514z M119.076,72.745v-1.57h1.57v1.57
			H119.076z M119.076,80.55v-1.57h1.57v1.57H119.076z M119.076,85.214v-1.531h1.57v1.531H119.076z M120.646,85.214v1.547h-1.57
			v-1.547H120.646z M120.646,72.745v-1.57h1.531v1.57H120.646z M120.646,75.847v-1.57h1.531v1.57H120.646z M120.646,77.417v-1.57
			h1.531v1.57H120.646z M120.646,80.55v-1.57h1.531v1.57H120.646z M120.646,82.112V80.55h1.531v1.562H120.646z M120.646,85.214
			v-1.531h1.531v1.531H120.646z M122.178,85.214v1.547h-1.531v-1.547H122.178z M122.178,72.745v-1.57h1.57v1.57H122.178z
			 M122.178,75.847v-1.57h1.57v1.57H122.178z M122.178,77.417v-1.57h1.57v1.57H122.178z M122.178,80.55v-1.57h1.57v1.57H122.178z
			 M122.178,82.112V80.55h1.57v1.562H122.178z M122.178,85.214v-1.531h1.57v1.531H122.178z M123.748,85.214v1.547h-1.57v-1.547
			H123.748z M123.748,72.745v-1.57h1.57v1.57H123.748z M123.748,75.847v-1.57h1.57v1.57H123.748z M123.748,77.417v-1.57h1.57v1.57
			H123.748z M123.748,80.55v-1.57h1.57v1.57H123.748z M123.748,82.112V80.55h1.57v1.562H123.748z M123.748,85.214v-1.531h1.57v1.531
			H123.748z M125.318,85.214v1.547h-1.57v-1.547H125.318z M125.318,72.745v-1.57h1.562v1.57H125.318z M125.318,77.417v-1.57h1.562
			v1.57H125.318z M125.318,85.214v-1.531h1.562v1.531H125.318z M126.881,85.214v1.547h-1.562v-1.547H126.881z M126.881,72.745v-1.57
			h1.57v1.57H126.881z M126.881,74.276v-1.531h1.57v1.531H126.881z M126.881,77.417v-1.57h1.57v1.57H126.881z M126.881,78.979
			v-1.562h1.57v1.562H126.881z M126.881,83.683v-1.57h1.57v1.57H126.881z M126.881,85.214v-1.531h1.57v1.531H126.881z
			 M128.451,85.214v1.547h-1.57v-1.547H128.451z M128.451,74.276v-1.531h1.562v1.531H128.451z M128.451,75.847v-1.57h1.562v1.57
			H128.451z M128.451,77.417v-1.57h1.562v1.57H128.451z M128.451,78.979v-1.562h1.562v1.562H128.451z M128.451,80.55v-1.57h1.562
			v1.57H128.451z M128.451,82.112V80.55h1.562v1.562H128.451z M128.451,83.683v-1.57h1.562v1.57H128.451z M128.451,85.214v-1.531
			h1.562v1.531H128.451z M130.014,85.214v1.547h-1.562v-1.547H130.014z M130.014,75.847v-1.57h1.539v1.57H130.014z M130.014,77.417
			v-1.57h1.539v1.57H130.014z M130.014,78.979v-1.562h1.539v1.562H130.014z M130.014,80.55v-1.57h1.539v1.57H130.014z
			 M130.014,82.112V80.55h1.539v1.562H130.014z M130.014,83.683v-1.57h1.539v1.57H130.014z M130.014,85.214v-1.531h1.539v1.531
			H130.014z"/>
	</g>
	<g>
		<path fill="#6E1F75" d="M61.474,23.941c0,3.944,2.689,6.301,5.728,8.335c-6.099,0-12.196,0-18.295,0
			c-2.653,0-6.062-0.775-8.549,0.426c-2.522,1.218-3.021,4.621-1.42,6.774c1.864,2.507,5.871,2.026,8.61,1.973
			c3.372-0.065,6.739-0.224,10.112-0.224c-2.52,2.223-0.395,7.281,2.759,7.601c-3.078,2.729,0.14,6.521,3.182,6.925
			c-1.042,0.93,0.376,3.516,1.092,4.221c1.391,1.368,3.485,1.799,5.354,1.968c3.752,0.341,7.623-0.449,11.358-0.846
			c3.769-0.399,7.716-0.942,11.238-2.408c3.498-1.456,4.616-4.47,5.04-8.078c0.509-4.332,0.215-8.616-0.866-12.836
			c-1.281-5.007-5.271-6.556-9.854-7.996c-4.982-1.566-9.909-3.294-14.609-5.589C69.473,22.78,61.474,16.982,61.474,23.941"/>
		<path fill="#FF1070" d="M64.474,21.124c0,3.944,2.689,6.301,5.728,8.335c-6.099,0-12.196,0-18.295,0
			c-2.653,0-6.062-0.775-8.549,0.426c-2.522,1.218-3.021,4.621-1.42,6.774c1.864,2.507,5.871,2.026,8.61,1.973
			c3.372-0.065,6.739-0.224,10.112-0.224c-2.52,2.223-0.395,7.281,2.759,7.601c-3.078,2.729,0.14,6.521,3.182,6.925
			c-1.042,0.93,0.376,3.516,1.092,4.221c1.391,1.368,3.485,1.799,5.354,1.968c3.752,0.341,7.623-0.449,11.358-0.846
			c3.769-0.399,7.716-0.942,11.238-2.408c3.498-1.456,4.616-4.47,5.04-8.078c0.509-4.332,0.215-8.616-0.866-12.836
			c-1.281-5.007-5.271-6.556-9.854-7.996c-4.982-1.566-9.909-3.294-14.609-5.589C72.473,19.963,64.474,14.165,64.474,21.124"/>
	</g>
</g>
</svg>
