<?xml version="1.0" encoding="utf-8"?>
<!-- Generator: Adobe Illustrator 16.0.0, SVG Export Plug-In . SVG Version: 6.00 Build 0)  -->
<!DOCTYPE svg PUBLIC "-//W3C//DTD SVG 1.1//EN" "http://www.w3.org/Graphics/SVG/1.1/DTD/svg11.dtd">
<svg version="1.1" id="Layer_1" xmlns="http://www.w3.org/2000/svg" xmlns:xlink="http://www.w3.org/1999/xlink" x="0px" y="0px"
	 width="150px" height="150px" viewBox="0 0 150 150" enable-background="new 0 0 150 150" xml:space="preserve">
<circle fill="#7B04FF" cx="76.141" cy="75.949" r="70.491"/>
<g>
	<circle fill="#FF00A4" cx="74.141" cy="73.949" r="70.491"/>
	<g>
		<path fill="#F9F9F9" d="M55.149,93.694l-6.337,2.793l-2.899-2.007c-1.639,1.718-4.011,2.994-7.115,3.826
			c-2.197,0.589-4.325,0.769-6.383,0.539c-2.086-0.234-3.995-0.862-5.728-1.883c-0.859-0.487-1.655-1.05-2.383-1.694
			c-0.73-0.643-1.446-1.421-2.152-2.333c-1.242-1.676-2.157-3.606-2.743-5.792c-0.266-0.991-0.423-1.994-0.468-3.005
			c-0.049-1.011,0.02-2.014,0.2-3.011c0.398-2.052,1.114-3.869,2.148-5.452c1.079-1.659,2.468-3.094,4.166-4.303
			c1.598-1.158,3.41-2.009,5.44-2.553c2.198-0.589,4.296-0.786,6.294-0.592c1.997,0.195,3.896,0.761,5.695,1.7
			c1.774,0.982,3.278,2.26,4.512,3.831c1.233,1.569,2.156,3.495,2.768,5.776c0.957,3.57,0.645,7.13-0.94,10.677L55.149,93.694z
			 M40.013,84.502l2.491,1.483c0.524-1.433,0.586-2.902,0.183-4.406C42.314,80.192,41.631,79,40.633,78
			c-1.03-1.029-2.239-1.752-3.625-2.169c-1.385-0.414-2.786-0.433-4.207-0.052c-1.41,0.378-2.614,1.065-3.614,2.062
			c-1.088,1.1-1.813,2.267-2.174,3.502c-0.39,1.359-0.425,2.635-0.104,3.83c0.304,1.134,0.805,2.171,1.505,3.109
			c0.658,0.887,1.455,1.613,2.389,2.183c0.919,0.561,1.901,0.911,2.951,1.053c1.091,0.155,2.162,0.093,3.214-0.188
			c0.799-0.215,1.503-0.531,2.106-0.95l-5.622-3.216L40.013,84.502z"/>
		<path fill="#F9F9F9" d="M63.445,60.099c2.019-0.541,4.033-0.716,6.042-0.523c2.056,0.216,3.957,0.77,5.706,1.657
			c1.719,0.871,3.254,2.086,4.605,3.643c1.274,1.463,2.194,3.246,2.757,5.349c0.593,2.209,0.772,4.336,0.54,6.382
			c-0.26,2.093-0.898,4.011-1.915,5.756c-0.542,0.938-1.138,1.771-1.789,2.496c-0.65,0.723-1.387,1.389-2.211,1.994
			c-1.655,1.224-3.601,2.135-5.834,2.733c-2.197,0.589-4.324,0.769-6.383,0.54c-2.086-0.235-3.994-0.863-5.728-1.884
			c-0.859-0.486-1.654-1.05-2.383-1.694c-0.73-0.643-1.446-1.421-2.152-2.333c-1.242-1.676-2.157-3.606-2.742-5.792
			c-0.266-0.991-0.422-1.994-0.468-3.005c-0.05-1.011,0.02-2.014,0.199-3.011c0.398-2.052,1.114-3.869,2.15-5.452
			c1.078-1.659,2.466-3.093,4.165-4.303C59.603,61.493,61.416,60.643,63.445,60.099z M65.312,67.068
			c-1.408,0.377-2.611,1.064-3.613,2.061c-1.05,1.051-1.765,2.202-2.145,3.456c-0.393,1.359-0.424,2.648-0.098,3.866
			c0.406,1.517,1.136,2.832,2.19,3.944c1.064,1.109,2.273,1.848,3.625,2.215c1.42,0.375,2.822,0.378,4.207,0.007
			c1.41-0.378,2.623-1.081,3.64-2.108c0.992-0.982,1.67-2.228,2.034-3.732c0.365-1.454,0.341-2.958-0.075-4.511
			c-0.336-1.254-1.009-2.354-2.018-3.3c-0.973-0.903-2.167-1.544-3.586-1.92C68.122,66.681,66.734,66.687,65.312,67.068z"/>
		<path fill="#F9F9F9" d="M94.97,59.159l5.779,21.567l-7.183,1.925l-5.778-21.568l-5.948,1.594l-1.632-6.091l19.077-5.111
			l1.632,6.091L94.97,59.159z"/>
		<path fill="#F9F9F9" d="M109.312,78.433l-7.411-27.659l10.193-2.731c1.875-0.502,3.784-0.636,5.729-0.401
			c1.906,0.232,3.667,0.81,5.284,1.733c1.667,0.923,3.063,2.123,4.189,3.6c0.595,0.737,1.104,1.532,1.532,2.384
			c0.426,0.853,0.771,1.768,1.033,2.746c0.679,2.533,0.662,5.026-0.049,7.482c-0.703,2.492-1.961,4.628-3.774,6.407
			c-0.948,0.906-1.961,1.666-3.037,2.282c-1.076,0.614-2.242,1.09-3.496,1.426L109.312,78.433z M110.717,54.939l4.147,15.479
			l1.63-0.438c1.457-0.39,2.726-1.031,3.806-1.922c1.076-0.903,1.803-2.013,2.18-3.329c0.384-1.384,0.35-2.923-0.105-4.619
			c-0.648-2.424-1.881-4.129-3.693-5.115c-0.596-0.314-1.227-0.545-1.895-0.693c-0.667-0.146-1.36-0.207-2.084-0.181
			c-0.723,0.026-1.483,0.147-2.284,0.362L110.717,54.939z"/>
	</g>
</g>
</svg>
