<?xml version="1.0" encoding="utf-8"?>
<!-- Generator: Adobe Illustrator 16.0.0, SVG Export Plug-In . SVG Version: 6.00 Build 0)  -->
<!DOCTYPE svg PUBLIC "-//W3C//DTD SVG 1.1//EN" "http://www.w3.org/Graphics/SVG/1.1/DTD/svg11.dtd">
<svg version="1.1" id="Layer_1" xmlns="http://www.w3.org/2000/svg" xmlns:xlink="http://www.w3.org/1999/xlink" x="0px" y="0px"
	 width="300px" height="100px" viewBox="0 0 300 100" enable-background="new 0 0 300 100" xml:space="preserve">
<g>
	<linearGradient id="SVGID_1_" gradientUnits="userSpaceOnUse" x1="21.396" y1="6.4678" x2="21.396" y2="45.4326">
		<stop  offset="0" style="stop-color:#B5F048"/>
		<stop  offset="0.018" style="stop-color:#B6F048"/>
		<stop  offset="0.6261" style="stop-color:#CEE244"/>
		<stop  offset="1" style="stop-color:#D7DD43"/>
	</linearGradient>
	<path fill="url(#SVGID_1_)" d="M1.884,14.222v-3.828H5.81v3.828H1.884z M1.884,18.147v-3.926H5.81v3.926H1.884z M1.884,22.073
		v-3.926H5.81v3.926H1.884z M1.884,25.979v-3.906H5.81v3.906H1.884z M1.884,29.905v-3.926H5.81v3.926H1.884z M1.884,33.812v-3.906
		H5.81v3.906H1.884z M1.884,37.737v-3.926H5.81v3.926H1.884z M5.81,10.394V6.468h3.906v3.926H5.81z M5.81,14.222v-3.828h3.906v3.828
		H5.81z M5.81,25.979v-3.906h3.906v3.906H5.81z M5.81,29.905v-3.926h3.906v3.926H5.81z M5.81,37.737v-3.926h3.906v3.926H5.81z
		 M5.81,41.565v-3.828h3.906v3.828H5.81z M9.716,10.394V6.468h3.926v3.926H9.716z M9.716,29.905v-3.926h3.926v3.926H9.716z
		 M9.716,41.565v-3.828h3.926v3.828H9.716z M13.642,41.565v3.867H9.716v-3.867H13.642z M13.642,10.394V6.468h3.828v3.926H13.642z
		 M13.642,18.147v-3.926h3.828v3.926H13.642z M13.642,22.073v-3.926h3.828v3.926H13.642z M13.642,29.905v-3.926h3.828v3.926H13.642z
		 M13.642,33.812v-3.906h3.828v3.906H13.642z M13.642,41.565v-3.828h3.828v3.828H13.642z M17.47,41.565v3.867h-3.828v-3.867H17.47z
		 M17.47,10.394V6.468h3.926v3.926H17.47z M17.47,18.147v-3.926h3.926v3.926H17.47z M17.47,22.073v-3.926h3.926v3.926H17.47z
		 M17.47,29.905v-3.926h3.926v3.926H17.47z M17.47,33.812v-3.906h3.926v3.906H17.47z M17.47,41.565v-3.828h3.926v3.828H17.47z
		 M21.396,41.565v3.867H17.47v-3.867H21.396z M21.396,10.394V6.468h3.926v3.926H21.396z M21.396,18.147v-3.926h3.926v3.926H21.396z
		 M21.396,22.073v-3.926h3.926v3.926H21.396z M21.396,29.905v-3.926h3.926v3.926H21.396z M21.396,33.812v-3.906h3.926v3.906H21.396z
		 M21.396,41.565v-3.828h3.926v3.828H21.396z M25.322,41.565v3.867h-3.926v-3.867H25.322z M25.322,10.394V6.468h3.906v3.926H25.322z
		 M25.322,22.073v-3.926h3.906v3.926H25.322z M25.322,41.565v-3.828h3.906v3.828H25.322z M29.228,41.565v3.867h-3.906v-3.867H29.228
		z M29.228,10.394V6.468h3.926v3.926H29.228z M29.228,14.222v-3.828h3.926v3.828H29.228z M29.228,22.073v-3.926h3.926v3.926H29.228z
		 M29.228,25.979v-3.906h3.926v3.906H29.228z M29.228,37.737v-3.926h3.926v3.926H29.228z M29.228,41.565v-3.828h3.926v3.828H29.228z
		 M33.154,41.565v3.867h-3.926v-3.867H33.154z M33.154,14.222v-3.828h3.906v3.828H33.154z M33.154,18.147v-3.926h3.906v3.926H33.154
		z M33.154,22.073v-3.926h3.906v3.926H33.154z M33.154,25.979v-3.906h3.906v3.906H33.154z M33.154,29.905v-3.926h3.906v3.926H33.154
		z M33.154,33.812v-3.906h3.906v3.906H33.154z M33.154,37.737v-3.926h3.906v3.926H33.154z M33.154,41.565v-3.828h3.906v3.828H33.154
		z M37.06,41.565v3.867h-3.906v-3.867H37.06z M37.06,18.147v-3.926h3.848v3.926H37.06z M37.06,22.073v-3.926h3.848v3.926H37.06z
		 M37.06,25.979v-3.906h3.848v3.906H37.06z M37.06,29.905v-3.926h3.848v3.926H37.06z M37.06,33.812v-3.906h3.848v3.906H37.06z
		 M37.06,37.737v-3.926h3.848v3.926H37.06z M37.06,41.565v-3.828h3.848v3.828H37.06z"/>
	<linearGradient id="SVGID_2_" gradientUnits="userSpaceOnUse" x1="56.9717" y1="6.4678" x2="56.9717" y2="45.4326">
		<stop  offset="0" style="stop-color:#B5F048"/>
		<stop  offset="0.018" style="stop-color:#B6F048"/>
		<stop  offset="0.6261" style="stop-color:#CEE244"/>
		<stop  offset="1" style="stop-color:#D7DD43"/>
	</linearGradient>
	<path fill="url(#SVGID_2_)" d="M37.46,10.394V6.468h3.926v3.926H37.46z M37.46,14.222v-3.828h3.926v3.828H37.46z M37.46,18.147
		v-3.926h3.926v3.926H37.46z M37.46,22.073v-3.926h3.926v3.926H37.46z M37.46,25.979v-3.906h3.926v3.906H37.46z M37.46,29.905
		v-3.926h3.926v3.926H37.46z M37.46,33.812v-3.906h3.926v3.906H37.46z M37.46,37.737v-3.926h3.926v3.926H37.46z M41.386,10.394
		V6.468h3.906v3.926H41.386z M41.386,37.737v-3.926h3.906v3.926H41.386z M41.386,41.565v-3.828h3.906v3.828H41.386z M45.292,10.394
		V6.468h3.926v3.926H45.292z M45.292,41.565v-3.828h3.926v3.828H45.292z M49.218,41.565v3.867h-3.926v-3.867H49.218z M49.218,10.394
		V6.468h3.828v3.926H49.218z M49.218,14.222v-3.828h3.828v3.828H49.218z M49.218,18.147v-3.926h3.828v3.926H49.218z M49.218,22.073
		v-3.926h3.828v3.926H49.218z M49.218,25.979v-3.906h3.828v3.906H49.218z M49.218,29.905v-3.926h3.828v3.926H49.218z M49.218,33.812
		v-3.906h3.828v3.906H49.218z M49.218,41.565v-3.828h3.828v3.828H49.218z M53.046,41.565v3.867h-3.828v-3.867H53.046z
		 M53.046,14.222v-3.828h3.926v3.828H53.046z M53.046,18.147v-3.926h3.926v3.926H53.046z M53.046,22.073v-3.926h3.926v3.926H53.046z
		 M53.046,25.979v-3.906h3.926v3.906H53.046z M53.046,29.905v-3.926h3.926v3.926H53.046z M53.046,33.812v-3.906h3.926v3.906H53.046z
		 M53.046,41.565v-3.828h3.926v3.828H53.046z M56.972,41.565v3.867h-3.926v-3.867H56.972z M56.972,10.394V6.468h3.926v3.926H56.972z
		 M56.972,14.222v-3.828h3.926v3.828H56.972z M56.972,18.147v-3.926h3.926v3.926H56.972z M56.972,22.073v-3.926h3.926v3.926H56.972z
		 M56.972,25.979v-3.906h3.926v3.906H56.972z M56.972,29.905v-3.926h3.926v3.926H56.972z M56.972,33.812v-3.906h3.926v3.906H56.972z
		 M56.972,41.565v-3.828h3.926v3.828H56.972z M60.897,41.565v3.867h-3.926v-3.867H60.897z M60.897,10.394V6.468h3.906v3.926H60.897z
		 M60.897,41.565v-3.828h3.906v3.828H60.897z M64.804,41.565v3.867h-3.906v-3.867H64.804z M64.804,10.394V6.468h3.926v3.926H64.804z
		 M64.804,37.737v-3.926h3.926v3.926H64.804z M64.804,41.565v-3.828h3.926v3.828H64.804z M68.729,41.565v3.867h-3.926v-3.867H68.729
		z M68.729,10.394V6.468h3.906v3.926H68.729z M68.729,14.222v-3.828h3.906v3.828H68.729z M68.729,18.147v-3.926h3.906v3.926H68.729z
		 M68.729,22.073v-3.926h3.906v3.926H68.729z M68.729,25.979v-3.906h3.906v3.906H68.729z M68.729,29.905v-3.926h3.906v3.926H68.729z
		 M68.729,33.812v-3.906h3.906v3.906H68.729z M68.729,37.737v-3.926h3.906v3.926H68.729z M68.729,41.565v-3.828h3.906v3.828H68.729z
		 M72.636,41.565v3.867h-3.906v-3.867H72.636z M72.636,14.222v-3.828h3.848v3.828H72.636z M72.636,18.147v-3.926h3.848v3.926H72.636
		z M72.636,22.073v-3.926h3.848v3.926H72.636z M72.636,25.979v-3.906h3.848v3.906H72.636z M72.636,29.905v-3.926h3.848v3.926H72.636
		z M72.636,33.812v-3.906h3.848v3.906H72.636z M72.636,37.737v-3.926h3.848v3.926H72.636z M72.636,41.565v-3.828h3.848v3.828H72.636
		z"/>
	<linearGradient id="SVGID_3_" gradientUnits="userSpaceOnUse" x1="92.5474" y1="6.4678" x2="92.5474" y2="45.4326">
		<stop  offset="0" style="stop-color:#B5F048"/>
		<stop  offset="0.018" style="stop-color:#B6F048"/>
		<stop  offset="0.6261" style="stop-color:#CEE244"/>
		<stop  offset="1" style="stop-color:#D7DD43"/>
	</linearGradient>
	<path fill="url(#SVGID_3_)" d="M73.036,14.222v-3.828h3.926v3.828H73.036z M73.036,18.147v-3.926h3.926v3.926H73.036z
		 M73.036,22.073v-3.926h3.926v3.926H73.036z M73.036,25.979v-3.906h3.926v3.906H73.036z M73.036,29.905v-3.926h3.926v3.926H73.036z
		 M73.036,33.812v-3.906h3.926v3.906H73.036z M73.036,37.737v-3.926h3.926v3.926H73.036z M76.961,10.394V6.468h3.906v3.926H76.961z
		 M76.961,14.222v-3.828h3.906v3.828H76.961z M76.961,37.737v-3.926h3.906v3.926H76.961z M76.961,41.565v-3.828h3.906v3.828H76.961z
		 M80.868,10.394V6.468h3.926v3.926H80.868z M80.868,41.565v-3.828h3.926v3.828H80.868z M84.793,41.565v3.867h-3.926v-3.867H84.793z
		 M84.793,10.394V6.468h3.828v3.926H84.793z M84.793,18.147v-3.926h3.828v3.926H84.793z M84.793,22.073v-3.926h3.828v3.926H84.793z
		 M84.793,25.979v-3.906h3.828v3.906H84.793z M84.793,29.905v-3.926h3.828v3.926H84.793z M84.793,33.812v-3.906h3.828v3.906H84.793z
		 M84.793,41.565v-3.828h3.828v3.828H84.793z M88.622,41.565v3.867h-3.828v-3.867H88.622z M88.622,10.394V6.468h3.926v3.926H88.622z
		 M88.622,18.147v-3.926h3.926v3.926H88.622z M88.622,22.073v-3.926h3.926v3.926H88.622z M88.622,25.979v-3.906h3.926v3.906H88.622z
		 M88.622,29.905v-3.926h3.926v3.926H88.622z M88.622,33.812v-3.906h3.926v3.906H88.622z M88.622,41.565v-3.828h3.926v3.828H88.622z
		 M92.547,41.565v3.867h-3.926v-3.867H92.547z M92.547,10.394V6.468h3.926v3.926H92.547z M92.547,18.147v-3.926h3.926v3.926H92.547z
		 M92.547,22.073v-3.926h3.926v3.926H92.547z M92.547,25.979v-3.906h3.926v3.906H92.547z M92.547,29.905v-3.926h3.926v3.926H92.547z
		 M92.547,33.812v-3.906h3.926v3.906H92.547z M92.547,41.565v-3.828h3.926v3.828H92.547z M96.473,41.565v3.867h-3.926v-3.867H96.473
		z M96.473,10.394V6.468h3.906v3.926H96.473z M96.473,22.073v-3.926h3.906v3.926H96.473z M96.473,25.979v-3.906h3.906v3.906H96.473z
		 M96.473,29.905v-3.926h3.906v3.926H96.473z M96.473,41.565v-3.828h3.906v3.828H96.473z M100.379,41.565v3.867h-3.906v-3.867
		H100.379z M100.379,10.394V6.468h3.926v3.926H100.379z M100.379,14.222v-3.828h3.926v3.828H100.379z M100.379,22.073v-3.926h3.926
		v3.926H100.379z M100.379,25.979v-3.906h3.926v3.906H100.379z M100.379,29.905v-3.926h3.926v3.926H100.379z M100.379,37.737v-3.926
		h3.926v3.926H100.379z M100.379,41.565v-3.828h3.926v3.828H100.379z M104.305,41.565v3.867h-3.926v-3.867H104.305z M104.305,14.222
		v-3.828h3.906v3.828H104.305z M104.305,18.147v-3.926h3.906v3.926H104.305z M104.305,22.073v-3.926h3.906v3.926H104.305z
		 M104.305,25.979v-3.906h3.906v3.906H104.305z M104.305,29.905v-3.926h3.906v3.926H104.305z M104.305,33.812v-3.906h3.906v3.906
		H104.305z M104.305,37.737v-3.926h3.906v3.926H104.305z M104.305,41.565v-3.828h3.906v3.828H104.305z M108.211,41.565v3.867h-3.906
		v-3.867H108.211z M108.211,18.147v-3.926h3.848v3.926H108.211z M108.211,22.073v-3.926h3.848v3.926H108.211z M108.211,25.979
		v-3.906h3.848v3.906H108.211z M108.211,33.812v-3.906h3.848v3.906H108.211z M108.211,37.737v-3.926h3.848v3.926H108.211z
		 M108.211,41.565v-3.828h3.848v3.828H108.211z"/>
	<linearGradient id="SVGID_4_" gradientUnits="userSpaceOnUse" x1="128.1235" y1="6.4678" x2="128.1235" y2="45.4326">
		<stop  offset="0" style="stop-color:#B5F048"/>
		<stop  offset="0.018" style="stop-color:#B6F048"/>
		<stop  offset="0.6261" style="stop-color:#CEE244"/>
		<stop  offset="1" style="stop-color:#D7DD43"/>
	</linearGradient>
	<path fill="url(#SVGID_4_)" d="M108.612,10.394V6.468h3.926v3.926H108.612z M108.612,14.222v-3.828h3.926v3.828H108.612z
		 M108.612,18.147v-3.926h3.926v3.926H108.612z M108.612,22.073v-3.926h3.926v3.926H108.612z M108.612,25.979v-3.906h3.926v3.906
		H108.612z M108.612,29.905v-3.926h3.926v3.926H108.612z M108.612,33.812v-3.906h3.926v3.906H108.612z M108.612,37.737v-3.926h3.926
		v3.926H108.612z M108.612,41.565v-3.828h3.926v3.828H108.612z M112.538,10.394V6.468h3.906v3.926H112.538z M112.538,41.565v-3.828
		h3.906v3.828H112.538z M116.444,41.565v3.867h-3.906v-3.867H116.444z M116.444,10.394V6.468h3.926v3.926H116.444z M116.444,41.565
		v-3.828h3.926v3.828H116.444z M120.37,41.565v3.867h-3.926v-3.867H120.37z M120.37,10.394V6.468h3.828v3.926H120.37z
		 M120.37,14.222v-3.828h3.828v3.828H120.37z M120.37,18.147v-3.926h3.828v3.926H120.37z M120.37,22.073v-3.926h3.828v3.926H120.37z
		 M120.37,29.905v-3.926h3.828v3.926H120.37z M120.37,33.812v-3.906h3.828v3.906H120.37z M120.37,37.737v-3.926h3.828v3.926H120.37z
		 M120.37,41.565v-3.828h3.828v3.828H120.37z M124.198,41.565v3.867h-3.828v-3.867H124.198z M124.198,14.222v-3.828h3.926v3.828
		H124.198z M124.198,18.147v-3.926h3.926v3.926H124.198z M124.198,22.073v-3.926h3.926v3.926H124.198z M124.198,29.905v-3.926h3.926
		v3.926H124.198z M124.198,33.812v-3.906h3.926v3.906H124.198z M124.198,37.737v-3.926h3.926v3.926H124.198z M124.198,41.565v-3.828
		h3.926v3.828H124.198z M128.124,41.565v3.867h-3.926v-3.867H128.124z M128.124,10.394V6.468h3.926v3.926H128.124z M128.124,14.222
		v-3.828h3.926v3.828H128.124z M128.124,18.147v-3.926h3.926v3.926H128.124z M128.124,22.073v-3.926h3.926v3.926H128.124z
		 M128.124,29.905v-3.926h3.926v3.926H128.124z M128.124,33.812v-3.906h3.926v3.906H128.124z M128.124,37.737v-3.926h3.926v3.926
		H128.124z M128.124,41.565v-3.828h3.926v3.828H128.124z M132.049,10.394V6.468h3.906v3.926H132.049z M132.049,41.565v-3.828h3.906
		v3.828H132.049z M135.956,41.565v3.867h-3.906v-3.867H135.956z M135.956,10.394V6.468h3.926v3.926H135.956z M135.956,41.565v-3.828
		h3.926v3.828H135.956z M139.881,41.565v3.867h-3.926v-3.867H139.881z M139.881,10.394V6.468h3.906v3.926H139.881z M139.881,14.222
		v-3.828h3.906v3.828H139.881z M139.881,18.147v-3.926h3.906v3.926H139.881z M139.881,22.073v-3.926h3.906v3.926H139.881z
		 M139.881,25.979v-3.906h3.906v3.906H139.881z M139.881,29.905v-3.926h3.906v3.926H139.881z M139.881,33.812v-3.906h3.906v3.906
		H139.881z M139.881,37.737v-3.926h3.906v3.926H139.881z M139.881,41.565v-3.828h3.906v3.828H139.881z M143.788,41.565v3.867h-3.906
		v-3.867H143.788z M143.788,14.222v-3.828h3.848v3.828H143.788z M143.788,18.147v-3.926h3.848v3.926H143.788z M143.788,22.073
		v-3.926h3.848v3.926H143.788z M143.788,25.979v-3.906h3.848v3.906H143.788z M143.788,29.905v-3.926h3.848v3.926H143.788z
		 M143.788,33.812v-3.906h3.848v3.906H143.788z M143.788,37.737v-3.926h3.848v3.926H143.788z M143.788,41.565v-3.828h3.848v3.828
		H143.788z M147.635,41.565v3.867h-3.848v-3.867H147.635z"/>
	<linearGradient id="SVGID_5_" gradientUnits="userSpaceOnUse" x1="165.4565" y1="6.4678" x2="165.4565" y2="45.4326">
		<stop  offset="0" style="stop-color:#B5F048"/>
		<stop  offset="0.018" style="stop-color:#B6F048"/>
		<stop  offset="0.6261" style="stop-color:#CEE244"/>
		<stop  offset="1" style="stop-color:#D7DD43"/>
	</linearGradient>
	<path fill="url(#SVGID_5_)" d="M155.701,10.394V6.468h3.926v3.926H155.701z M155.701,14.222v-3.828h3.926v3.828H155.701z
		 M155.701,18.147v-3.926h3.926v3.926H155.701z M155.701,22.073v-3.926h3.926v3.926H155.701z M155.701,25.979v-3.906h3.926v3.906
		H155.701z M155.701,29.905v-3.926h3.926v3.926H155.701z M155.701,33.812v-3.906h3.926v3.906H155.701z M155.701,37.737v-3.926h3.926
		v3.926H155.701z M155.701,41.565v-3.828h3.926v3.828H155.701z M159.626,10.394V6.468h3.906v3.926H159.626z M159.626,41.565v-3.828
		h3.906v3.828H159.626z M163.533,41.565v3.867h-3.906v-3.867H163.533z M163.533,10.394V6.468h3.926v3.926H163.533z M163.533,41.565
		v-3.828h3.926v3.828H163.533z M167.458,41.565v3.867h-3.926v-3.867H167.458z M167.458,10.394V6.468h3.828v3.926H167.458z
		 M167.458,14.222v-3.828h3.828v3.828H167.458z M167.458,18.147v-3.926h3.828v3.926H167.458z M167.458,22.073v-3.926h3.828v3.926
		H167.458z M167.458,25.979v-3.906h3.828v3.906H167.458z M167.458,29.905v-3.926h3.828v3.926H167.458z M167.458,33.812v-3.906h3.828
		v3.906H167.458z M167.458,37.737v-3.926h3.828v3.926H167.458z M167.458,41.565v-3.828h3.828v3.828H167.458z M171.287,41.565v3.867
		h-3.828v-3.867H171.287z M171.287,14.222v-3.828h3.926v3.828H171.287z M171.287,18.147v-3.926h3.926v3.926H171.287z
		 M171.287,22.073v-3.926h3.926v3.926H171.287z M171.287,25.979v-3.906h3.926v3.906H171.287z M171.287,29.905v-3.926h3.926v3.926
		H171.287z M171.287,33.812v-3.906h3.926v3.906H171.287z M171.287,37.737v-3.926h3.926v3.926H171.287z M171.287,41.565v-3.828h3.926
		v3.828H171.287z M175.212,41.565v3.867h-3.926v-3.867H175.212z"/>
	<linearGradient id="SVGID_6_" gradientUnits="userSpaceOnUse" x1="191.1982" y1="6.4678" x2="191.1982" y2="45.4326">
		<stop  offset="0" style="stop-color:#B5F048"/>
		<stop  offset="0.018" style="stop-color:#B6F048"/>
		<stop  offset="0.6261" style="stop-color:#CEE244"/>
		<stop  offset="1" style="stop-color:#D7DD43"/>
	</linearGradient>
	<path fill="url(#SVGID_6_)" d="M171.687,10.394V6.468h3.926v3.926H171.687z M171.687,14.222v-3.828h3.926v3.828H171.687z
		 M171.687,18.147v-3.926h3.926v3.926H171.687z M171.687,22.073v-3.926h3.926v3.926H171.687z M171.687,25.979v-3.906h3.926v3.906
		H171.687z M171.687,29.905v-3.926h3.926v3.926H171.687z M171.687,33.812v-3.906h3.926v3.906H171.687z M171.687,37.737v-3.926h3.926
		v3.926H171.687z M171.687,41.565v-3.828h3.926v3.828H171.687z M175.612,10.394V6.468h3.906v3.926H175.612z M175.612,41.565v-3.828
		h3.906v3.828H175.612z M179.519,41.565v3.867h-3.906v-3.867H179.519z M179.519,10.394V6.468h3.926v3.926H179.519z M179.519,41.565
		v-3.828h3.926v3.828H179.519z M183.444,41.565v3.867h-3.926v-3.867H183.444z M183.444,10.394V6.468h3.828v3.926H183.444z
		 M183.444,14.222v-3.828h3.828v3.828H183.444z M183.444,25.979v-3.906h3.828v3.906H183.444z M183.444,29.905v-3.926h3.828v3.926
		H183.444z M183.444,33.812v-3.906h3.828v3.906H183.444z M183.444,37.737v-3.926h3.828v3.926H183.444z M183.444,41.565v-3.828h3.828
		v3.828H183.444z M187.272,41.565v3.867h-3.828v-3.867H187.272z M187.272,14.222v-3.828h3.926v3.828H187.272z M187.272,18.147
		v-3.926h3.926v3.926H187.272z M187.272,29.905v-3.926h3.926v3.926H187.272z M187.272,33.812v-3.906h3.926v3.906H187.272z
		 M187.272,37.737v-3.926h3.926v3.926H187.272z M187.272,41.565v-3.828h3.926v3.828H187.272z M191.198,41.565v3.867h-3.926v-3.867
		H191.198z M191.198,10.394V6.468h3.926v3.926H191.198z M191.198,14.222v-3.828h3.926v3.828H191.198z M191.198,18.147v-3.926h3.926
		v3.926H191.198z M191.198,22.073v-3.926h3.926v3.926H191.198z M191.198,33.812v-3.906h3.926v3.906H191.198z M191.198,37.737v-3.926
		h3.926v3.926H191.198z M191.198,41.565v-3.828h3.926v3.828H191.198z M195.124,10.394V6.468h3.906v3.926H195.124z M195.124,41.565
		v-3.828h3.906v3.828H195.124z M199.03,41.565v3.867h-3.906v-3.867H199.03z M199.03,10.394V6.468h3.926v3.926H199.03z
		 M199.03,41.565v-3.828h3.926v3.828H199.03z M202.956,41.565v3.867h-3.926v-3.867H202.956z M202.956,10.394V6.468h3.906v3.926
		H202.956z M202.956,14.222v-3.828h3.906v3.828H202.956z M202.956,18.147v-3.926h3.906v3.926H202.956z M202.956,22.073v-3.926h3.906
		v3.926H202.956z M202.956,25.979v-3.906h3.906v3.906H202.956z M202.956,29.905v-3.926h3.906v3.926H202.956z M202.956,33.812v-3.906
		h3.906v3.906H202.956z M202.956,37.737v-3.926h3.906v3.926H202.956z M202.956,41.565v-3.828h3.906v3.828H202.956z M206.862,41.565
		v3.867h-3.906v-3.867H206.862z M206.862,14.222v-3.828h3.848v3.828H206.862z M206.862,18.147v-3.926h3.848v3.926H206.862z
		 M206.862,22.073v-3.926h3.848v3.926H206.862z M206.862,25.979v-3.906h3.848v3.906H206.862z M206.862,29.905v-3.926h3.848v3.926
		H206.862z M206.862,33.812v-3.906h3.848v3.906H206.862z M206.862,37.737v-3.926h3.848v3.926H206.862z M206.862,41.565v-3.828h3.848
		v3.828H206.862z M210.71,41.565v3.867h-3.848v-3.867H210.71z"/>
	<linearGradient id="SVGID_7_" gradientUnits="userSpaceOnUse" x1="226.7734" y1="6.4678" x2="226.7734" y2="45.4326">
		<stop  offset="0" style="stop-color:#B5F048"/>
		<stop  offset="0.018" style="stop-color:#B6F048"/>
		<stop  offset="0.6261" style="stop-color:#CEE244"/>
		<stop  offset="1" style="stop-color:#D7DD43"/>
	</linearGradient>
	<path fill="url(#SVGID_7_)" d="M207.262,10.394V6.468h3.926v3.926H207.262z M207.262,14.222v-3.828h3.926v3.828H207.262z
		 M207.262,18.147v-3.926h3.926v3.926H207.262z M207.262,22.073v-3.926h3.926v3.926H207.262z M207.262,25.979v-3.906h3.926v3.906
		H207.262z M207.262,29.905v-3.926h3.926v3.926H207.262z M207.262,33.812v-3.906h3.926v3.906H207.262z M207.262,37.737v-3.926h3.926
		v3.926H207.262z M207.262,41.565v-3.828h3.926v3.828H207.262z M211.188,10.394V6.468h3.906v3.926H211.188z M211.188,41.565v-3.828
		h3.906v3.828H211.188z M215.094,41.565v3.867h-3.906v-3.867H215.094z M215.094,10.394V6.468h3.926v3.926H215.094z M215.094,41.565
		v-3.828h3.926v3.828H215.094z M219.02,41.565v3.867h-3.926v-3.867H219.02z M219.02,10.394V6.468h3.828v3.926H219.02z
		 M219.02,18.147v-3.926h3.828v3.926H219.02z M219.02,22.073v-3.926h3.828v3.926H219.02z M219.02,25.979v-3.906h3.828v3.906H219.02z
		 M219.02,29.905v-3.926h3.828v3.926H219.02z M219.02,33.812v-3.906h3.828v3.906H219.02z M219.02,41.565v-3.828h3.828v3.828H219.02z
		 M222.848,41.565v3.867h-3.828v-3.867H222.848z M222.848,10.394V6.468h3.926v3.926H222.848z M222.848,18.147v-3.926h3.926v3.926
		H222.848z M222.848,22.073v-3.926h3.926v3.926H222.848z M222.848,25.979v-3.906h3.926v3.906H222.848z M222.848,29.905v-3.926h3.926
		v3.926H222.848z M222.848,33.812v-3.906h3.926v3.906H222.848z M222.848,41.565v-3.828h3.926v3.828H222.848z M226.774,41.565v3.867
		h-3.926v-3.867H226.774z M226.774,10.394V6.468h3.926v3.926H226.774z M226.774,22.073v-3.926h3.926v3.926H226.774z M226.774,25.979
		v-3.906h3.926v3.906H226.774z M226.774,29.905v-3.926h3.926v3.926H226.774z M226.774,41.565v-3.828h3.926v3.828H226.774z
		 M230.7,41.565v3.867h-3.926v-3.867H230.7z M230.7,10.394V6.468h3.906v3.926H230.7z M230.7,14.222v-3.828h3.906v3.828H230.7z
		 M230.7,37.737v-3.926h3.906v3.926H230.7z M230.7,41.565v-3.828h3.906v3.828H230.7z M234.606,41.565v3.867H230.7v-3.867H234.606z
		 M234.606,14.222v-3.828h3.926v3.828H234.606z M234.606,18.147v-3.926h3.926v3.926H234.606z M234.606,33.812v-3.906h3.926v3.906
		H234.606z M234.606,37.737v-3.926h3.926v3.926H234.606z M234.606,41.565v-3.828h3.926v3.828H234.606z M238.532,41.565v3.867h-3.926
		v-3.867H238.532z M238.532,18.147v-3.926h3.906v3.926H238.532z M238.532,22.073v-3.926h3.906v3.926H238.532z M238.532,25.979
		v-3.906h3.906v3.906H238.532z M238.532,29.905v-3.926h3.906v3.926H238.532z M238.532,33.812v-3.906h3.906v3.906H238.532z
		 M238.532,37.737v-3.926h3.906v3.926H238.532z M238.532,41.565v-3.828h3.906v3.828H238.532z M242.438,22.073v-3.926h3.848v3.926
		H242.438z M242.438,25.979v-3.906h3.848v3.906H242.438z M242.438,29.905v-3.926h3.848v3.926H242.438z M242.438,33.812v-3.906h3.848
		v3.906H242.438z M242.438,37.737v-3.926h3.848v3.926H242.438z"/>
	<linearGradient id="SVGID_8_" gradientUnits="userSpaceOnUse" x1="252.5938" y1="6.4678" x2="252.5938" y2="45.4326">
		<stop  offset="0" style="stop-color:#B5F048"/>
		<stop  offset="0.018" style="stop-color:#B6F048"/>
		<stop  offset="0.6261" style="stop-color:#CEE244"/>
		<stop  offset="1" style="stop-color:#D7DD43"/>
	</linearGradient>
	<path fill="url(#SVGID_8_)" d="M242.838,10.394V6.468h3.926v3.926H242.838z M242.838,14.222v-3.828h3.926v3.828H242.838z
		 M242.838,18.147v-3.926h3.926v3.926H242.838z M242.838,22.073v-3.926h3.926v3.926H242.838z M242.838,25.979v-3.906h3.926v3.906
		H242.838z M242.838,29.905v-3.926h3.926v3.926H242.838z M242.838,33.812v-3.906h3.926v3.906H242.838z M242.838,37.737v-3.926h3.926
		v3.926H242.838z M242.838,41.565v-3.828h3.926v3.828H242.838z M246.764,10.394V6.468h3.906v3.926H246.764z M246.764,41.565v-3.828
		h3.906v3.828H246.764z M250.67,41.565v3.867h-3.906v-3.867H250.67z M250.67,10.394V6.468h3.926v3.926H250.67z M250.67,41.565
		v-3.828h3.926v3.828H250.67z M254.596,41.565v3.867h-3.926v-3.867H254.596z M254.596,10.394V6.468h3.828v3.926H254.596z
		 M254.596,14.222v-3.828h3.828v3.828H254.596z M254.596,18.147v-3.926h3.828v3.926H254.596z M254.596,22.073v-3.926h3.828v3.926
		H254.596z M254.596,25.979v-3.906h3.828v3.906H254.596z M254.596,29.905v-3.926h3.828v3.926H254.596z M254.596,33.812v-3.906h3.828
		v3.906H254.596z M254.596,37.737v-3.926h3.828v3.926H254.596z M254.596,41.565v-3.828h3.828v3.828H254.596z M258.424,41.565v3.867
		h-3.828v-3.867H258.424z M258.424,14.222v-3.828h3.926v3.828H258.424z M258.424,18.147v-3.926h3.926v3.926H258.424z
		 M258.424,22.073v-3.926h3.926v3.926H258.424z M258.424,25.979v-3.906h3.926v3.906H258.424z M258.424,29.905v-3.926h3.926v3.926
		H258.424z M258.424,33.812v-3.906h3.926v3.906H258.424z M258.424,37.737v-3.926h3.926v3.926H258.424z M258.424,41.565v-3.828h3.926
		v3.828H258.424z M262.35,41.565v3.867h-3.926v-3.867H262.35z"/>
	<linearGradient id="SVGID_9_" gradientUnits="userSpaceOnUse" x1="278.3359" y1="6.4678" x2="278.3359" y2="45.4326">
		<stop  offset="0" style="stop-color:#B5F048"/>
		<stop  offset="0.018" style="stop-color:#B6F048"/>
		<stop  offset="0.6261" style="stop-color:#CEE244"/>
		<stop  offset="1" style="stop-color:#D7DD43"/>
	</linearGradient>
	<path fill="url(#SVGID_9_)" d="M258.824,10.394V6.468h3.926v3.926H258.824z M258.824,14.222v-3.828h3.926v3.828H258.824z
		 M258.824,18.147v-3.926h3.926v3.926H258.824z M258.824,22.073v-3.926h3.926v3.926H258.824z M258.824,25.979v-3.906h3.926v3.906
		H258.824z M258.824,29.905v-3.926h3.926v3.926H258.824z M258.824,33.812v-3.906h3.926v3.906H258.824z M258.824,37.737v-3.926h3.926
		v3.926H258.824z M258.824,41.565v-3.828h3.926v3.828H258.824z M262.75,10.394V6.468h3.906v3.926H262.75z M262.75,41.565v-3.828
		h3.906v3.828H262.75z M266.656,41.565v3.867h-3.906v-3.867H266.656z M266.656,10.394V6.468h3.926v3.926H266.656z M266.656,41.565
		v-3.828h3.926v3.828H266.656z M270.582,41.565v3.867h-3.926v-3.867H270.582z M270.582,10.394V6.468h3.828v3.926H270.582z
		 M270.582,18.147v-3.926h3.828v3.926H270.582z M270.582,22.073v-3.926h3.828v3.926H270.582z M270.582,29.905v-3.926h3.828v3.926
		H270.582z M270.582,33.812v-3.906h3.828v3.906H270.582z M270.582,41.565v-3.828h3.828v3.828H270.582z M274.41,41.565v3.867h-3.828
		v-3.867H274.41z M274.41,10.394V6.468h3.926v3.926H274.41z M274.41,18.147v-3.926h3.926v3.926H274.41z M274.41,22.073v-3.926h3.926
		v3.926H274.41z M274.41,29.905v-3.926h3.926v3.926H274.41z M274.41,33.812v-3.906h3.926v3.906H274.41z M274.41,41.565v-3.828h3.926
		v3.828H274.41z M278.336,41.565v3.867h-3.926v-3.867H278.336z M278.336,10.394V6.468h3.926v3.926H278.336z M278.336,18.147v-3.926
		h3.926v3.926H278.336z M278.336,22.073v-3.926h3.926v3.926H278.336z M278.336,29.905v-3.926h3.926v3.926H278.336z M278.336,33.812
		v-3.906h3.926v3.906H278.336z M278.336,41.565v-3.828h3.926v3.828H278.336z M282.262,41.565v3.867h-3.926v-3.867H282.262z
		 M282.262,10.394V6.468h3.906v3.926H282.262z M282.262,18.147v-3.926h3.906v3.926H282.262z M282.262,22.073v-3.926h3.906v3.926
		H282.262z M282.262,29.905v-3.926h3.906v3.926H282.262z M282.262,33.812v-3.906h3.906v3.906H282.262z M282.262,41.565v-3.828h3.906
		v3.828H282.262z M286.168,41.565v3.867h-3.906v-3.867H286.168z M286.168,10.394V6.468h3.926v3.926H286.168z M286.168,18.147v-3.926
		h3.926v3.926H286.168z M286.168,22.073v-3.926h3.926v3.926H286.168z M286.168,25.979v-3.906h3.926v3.906H286.168z M286.168,29.905
		v-3.926h3.926v3.926H286.168z M286.168,33.812v-3.906h3.926v3.906H286.168z M286.168,41.565v-3.828h3.926v3.828H286.168z
		 M290.094,41.565v3.867h-3.926v-3.867H290.094z M290.094,10.394V6.468H294v3.926H290.094z M290.094,14.222v-3.828H294v3.828
		H290.094z M290.094,18.147v-3.926H294v3.926H290.094z M290.094,22.073v-3.926H294v3.926H290.094z M290.094,25.979v-3.906H294v3.906
		H290.094z M290.094,29.905v-3.926H294v3.926H290.094z M290.094,33.812v-3.906H294v3.906H290.094z M290.094,37.737v-3.926H294v3.926
		H290.094z M290.094,41.565v-3.828H294v3.828H290.094z M294,41.565v3.867h-3.906v-3.867H294z M294,14.222v-3.828h3.848v3.828H294z
		 M294,18.147v-3.926h3.848v3.926H294z M294,22.073v-3.926h3.848v3.926H294z M294,37.737v-3.926h3.848v3.926H294z M294,41.565
		v-3.828h3.848v3.828H294z M297.848,41.565v3.867H294v-3.867H297.848z"/>
	<linearGradient id="SVGID_10_" gradientUnits="userSpaceOnUse" x1="21.396" y1="54.4678" x2="21.396" y2="93.4326">
		<stop  offset="0" style="stop-color:#B5F048"/>
		<stop  offset="0.018" style="stop-color:#B6F048"/>
		<stop  offset="0.6261" style="stop-color:#CEE244"/>
		<stop  offset="1" style="stop-color:#D7DD43"/>
	</linearGradient>
	<path fill="url(#SVGID_10_)" d="M1.884,58.394v-3.926H5.81v3.926H1.884z M1.884,62.222v-3.828H5.81v3.828H1.884z M1.884,66.147
		v-3.926H5.81v3.926H1.884z M1.884,70.073v-3.926H5.81v3.926H1.884z M1.884,73.979v-3.906H5.81v3.906H1.884z M1.884,77.905v-3.926
		H5.81v3.926H1.884z M1.884,81.812v-3.906H5.81v3.906H1.884z M1.884,85.737v-3.926H5.81v3.926H1.884z M1.884,89.565v-3.828H5.81
		v3.828H1.884z M5.81,58.394v-3.926h3.906v3.926H5.81z M5.81,89.565v-3.828h3.906v3.828H5.81z M9.716,89.565v3.867H5.81v-3.867
		H9.716z M9.716,58.394v-3.926h3.926v3.926H9.716z M9.716,89.565v-3.828h3.926v3.828H9.716z M13.642,89.565v3.867H9.716v-3.867
		H13.642z M13.642,58.394v-3.926h3.828v3.926H13.642z M13.642,62.222v-3.828h3.828v3.828H13.642z M13.642,73.979v-3.906h3.828v3.906
		H13.642z M13.642,77.905v-3.926h3.828v3.926H13.642z M13.642,81.812v-3.906h3.828v3.906H13.642z M13.642,85.737v-3.926h3.828v3.926
		H13.642z M13.642,89.565v-3.828h3.828v3.828H13.642z M17.47,89.565v3.867h-3.828v-3.867H17.47z M17.47,62.222v-3.828h3.926v3.828
		H17.47z M17.47,66.147v-3.926h3.926v3.926H17.47z M17.47,77.905v-3.926h3.926v3.926H17.47z M17.47,81.812v-3.906h3.926v3.906H17.47
		z M17.47,85.737v-3.926h3.926v3.926H17.47z M17.47,89.565v-3.828h3.926v3.828H17.47z M21.396,89.565v3.867H17.47v-3.867H21.396z
		 M21.396,58.394v-3.926h3.926v3.926H21.396z M21.396,62.222v-3.828h3.926v3.828H21.396z M21.396,73.979v-3.906h3.926v3.906H21.396z
		 M21.396,77.905v-3.926h3.926v3.926H21.396z M21.396,81.812v-3.906h3.926v3.906H21.396z M21.396,85.737v-3.926h3.926v3.926H21.396z
		 M21.396,89.565v-3.828h3.926v3.828H21.396z M25.322,58.394v-3.926h3.906v3.926H25.322z M25.322,89.565v-3.828h3.906v3.828H25.322z
		 M29.228,89.565v3.867h-3.906v-3.867H29.228z M29.228,58.394v-3.926h3.926v3.926H29.228z M29.228,89.565v-3.828h3.926v3.828H29.228
		z M33.154,89.565v3.867h-3.926v-3.867H33.154z M33.154,58.394v-3.926h3.906v3.926H33.154z M33.154,62.222v-3.828h3.906v3.828
		H33.154z M33.154,66.147v-3.926h3.906v3.926H33.154z M33.154,70.073v-3.926h3.906v3.926H33.154z M33.154,73.979v-3.906h3.906v3.906
		H33.154z M33.154,77.905v-3.926h3.906v3.926H33.154z M33.154,81.812v-3.906h3.906v3.906H33.154z M33.154,85.737v-3.926h3.906v3.926
		H33.154z M33.154,89.565v-3.828h3.906v3.828H33.154z M37.06,89.565v3.867h-3.906v-3.867H37.06z M37.06,62.222v-3.828h3.848v3.828
		H37.06z M37.06,66.147v-3.926h3.848v3.926H37.06z M37.06,70.073v-3.926h3.848v3.926H37.06z M37.06,73.979v-3.906h3.848v3.906H37.06
		z M37.06,77.905v-3.926h3.848v3.926H37.06z M37.06,81.812v-3.906h3.848v3.906H37.06z M37.06,85.737v-3.926h3.848v3.926H37.06z
		 M37.06,89.565v-3.828h3.848v3.828H37.06z M40.908,89.565v3.867H37.06v-3.867H40.908z"/>
	<linearGradient id="SVGID_11_" gradientUnits="userSpaceOnUse" x1="56.9717" y1="54.4678" x2="56.9717" y2="93.4326">
		<stop  offset="0" style="stop-color:#B5F048"/>
		<stop  offset="0.018" style="stop-color:#B6F048"/>
		<stop  offset="0.6261" style="stop-color:#CEE244"/>
		<stop  offset="1" style="stop-color:#D7DD43"/>
	</linearGradient>
	<path fill="url(#SVGID_11_)" d="M37.46,58.394v-3.926h3.926v3.926H37.46z M37.46,62.222v-3.828h3.926v3.828H37.46z M37.46,66.147
		v-3.926h3.926v3.926H37.46z M37.46,70.073v-3.926h3.926v3.926H37.46z M37.46,73.979v-3.906h3.926v3.906H37.46z M37.46,77.905
		v-3.926h3.926v3.926H37.46z M37.46,81.812v-3.906h3.926v3.906H37.46z M37.46,85.737v-3.926h3.926v3.926H37.46z M41.386,58.394
		v-3.926h3.906v3.926H41.386z M41.386,85.737v-3.926h3.906v3.926H41.386z M41.386,89.565v-3.828h3.906v3.828H41.386z M45.292,58.394
		v-3.926h3.926v3.926H45.292z M45.292,89.565v-3.828h3.926v3.828H45.292z M49.218,89.565v3.867h-3.926v-3.867H49.218z
		 M49.218,58.394v-3.926h3.828v3.926H49.218z M49.218,62.222v-3.828h3.828v3.828H49.218z M49.218,66.147v-3.926h3.828v3.926H49.218z
		 M49.218,70.073v-3.926h3.828v3.926H49.218z M49.218,73.979v-3.906h3.828v3.906H49.218z M49.218,77.905v-3.926h3.828v3.926H49.218z
		 M49.218,81.812v-3.906h3.828v3.906H49.218z M49.218,89.565v-3.828h3.828v3.828H49.218z M53.046,89.565v3.867h-3.828v-3.867H53.046
		z M53.046,62.222v-3.828h3.926v3.828H53.046z M53.046,66.147v-3.926h3.926v3.926H53.046z M53.046,70.073v-3.926h3.926v3.926H53.046
		z M53.046,73.979v-3.906h3.926v3.906H53.046z M53.046,77.905v-3.926h3.926v3.926H53.046z M53.046,81.812v-3.906h3.926v3.906H53.046
		z M53.046,89.565v-3.828h3.926v3.828H53.046z M56.972,89.565v3.867h-3.926v-3.867H56.972z M56.972,58.394v-3.926h3.926v3.926
		H56.972z M56.972,62.222v-3.828h3.926v3.828H56.972z M56.972,66.147v-3.926h3.926v3.926H56.972z M56.972,70.073v-3.926h3.926v3.926
		H56.972z M56.972,73.979v-3.906h3.926v3.906H56.972z M56.972,77.905v-3.926h3.926v3.926H56.972z M56.972,81.812v-3.906h3.926v3.906
		H56.972z M56.972,89.565v-3.828h3.926v3.828H56.972z M60.897,89.565v3.867h-3.926v-3.867H60.897z M60.897,58.394v-3.926h3.906
		v3.926H60.897z M60.897,89.565v-3.828h3.906v3.828H60.897z M64.804,89.565v3.867h-3.906v-3.867H64.804z M64.804,58.394v-3.926
		h3.926v3.926H64.804z M64.804,85.737v-3.926h3.926v3.926H64.804z M64.804,89.565v-3.828h3.926v3.828H64.804z M68.729,89.565v3.867
		h-3.926v-3.867H68.729z M68.729,58.394v-3.926h3.906v3.926H68.729z M68.729,62.222v-3.828h3.906v3.828H68.729z M68.729,66.147
		v-3.926h3.906v3.926H68.729z M68.729,70.073v-3.926h3.906v3.926H68.729z M68.729,73.979v-3.906h3.906v3.906H68.729z M68.729,77.905
		v-3.926h3.906v3.926H68.729z M68.729,81.812v-3.906h3.906v3.906H68.729z M68.729,85.737v-3.926h3.906v3.926H68.729z M68.729,89.565
		v-3.828h3.906v3.828H68.729z M72.636,89.565v3.867h-3.906v-3.867H72.636z M72.636,62.222v-3.828h3.848v3.828H72.636z
		 M72.636,66.147v-3.926h3.848v3.926H72.636z M72.636,70.073v-3.926h3.848v3.926H72.636z M72.636,73.979v-3.906h3.848v3.906H72.636z
		 M72.636,77.905v-3.926h3.848v3.926H72.636z M72.636,81.812v-3.906h3.848v3.906H72.636z M72.636,85.737v-3.926h3.848v3.926H72.636z
		 M72.636,89.565v-3.828h3.848v3.828H72.636z"/>
	<linearGradient id="SVGID_12_" gradientUnits="userSpaceOnUse" x1="92.5474" y1="54.4678" x2="92.5474" y2="93.4326">
		<stop  offset="0" style="stop-color:#B5F048"/>
		<stop  offset="0.018" style="stop-color:#B6F048"/>
		<stop  offset="0.6261" style="stop-color:#CEE244"/>
		<stop  offset="1" style="stop-color:#D7DD43"/>
	</linearGradient>
	<path fill="url(#SVGID_12_)" d="M73.036,62.222v-3.828h3.926v3.828H73.036z M73.036,66.147v-3.926h3.926v3.926H73.036z
		 M73.036,70.073v-3.926h3.926v3.926H73.036z M73.036,73.979v-3.906h3.926v3.906H73.036z M73.036,77.905v-3.926h3.926v3.926H73.036z
		 M73.036,81.812v-3.906h3.926v3.906H73.036z M73.036,85.737v-3.926h3.926v3.926H73.036z M76.961,58.394v-3.926h3.906v3.926H76.961z
		 M76.961,62.222v-3.828h3.906v3.828H76.961z M76.961,85.737v-3.926h3.906v3.926H76.961z M76.961,89.565v-3.828h3.906v3.828H76.961z
		 M80.868,58.394v-3.926h3.926v3.926H80.868z M80.868,89.565v-3.828h3.926v3.828H80.868z M84.793,89.565v3.867h-3.926v-3.867H84.793
		z M84.793,58.394v-3.926h3.828v3.926H84.793z M84.793,66.147v-3.926h3.828v3.926H84.793z M84.793,70.073v-3.926h3.828v3.926H84.793
		z M84.793,73.979v-3.906h3.828v3.906H84.793z M84.793,77.905v-3.926h3.828v3.926H84.793z M84.793,81.812v-3.906h3.828v3.906H84.793
		z M84.793,89.565v-3.828h3.828v3.828H84.793z M88.622,89.565v3.867h-3.828v-3.867H88.622z M88.622,58.394v-3.926h3.926v3.926
		H88.622z M88.622,66.147v-3.926h3.926v3.926H88.622z M88.622,70.073v-3.926h3.926v3.926H88.622z M88.622,73.979v-3.906h3.926v3.906
		H88.622z M88.622,77.905v-3.926h3.926v3.926H88.622z M88.622,81.812v-3.906h3.926v3.906H88.622z M88.622,89.565v-3.828h3.926v3.828
		H88.622z M92.547,89.565v3.867h-3.926v-3.867H92.547z M92.547,58.394v-3.926h3.926v3.926H92.547z M92.547,66.147v-3.926h3.926
		v3.926H92.547z M92.547,70.073v-3.926h3.926v3.926H92.547z M92.547,73.979v-3.906h3.926v3.906H92.547z M92.547,77.905v-3.926h3.926
		v3.926H92.547z M92.547,81.812v-3.906h3.926v3.906H92.547z M92.547,89.565v-3.828h3.926v3.828H92.547z M96.473,89.565v3.867h-3.926
		v-3.867H96.473z M96.473,58.394v-3.926h3.906v3.926H96.473z M96.473,70.073v-3.926h3.906v3.926H96.473z M96.473,73.979v-3.906
		h3.906v3.906H96.473z M96.473,77.905v-3.926h3.906v3.926H96.473z M96.473,89.565v-3.828h3.906v3.828H96.473z M100.379,89.565v3.867
		h-3.906v-3.867H100.379z M100.379,58.394v-3.926h3.926v3.926H100.379z M100.379,62.222v-3.828h3.926v3.828H100.379z
		 M100.379,70.073v-3.926h3.926v3.926H100.379z M100.379,73.979v-3.906h3.926v3.906H100.379z M100.379,77.905v-3.926h3.926v3.926
		H100.379z M100.379,85.737v-3.926h3.926v3.926H100.379z M100.379,89.565v-3.828h3.926v3.828H100.379z M104.305,89.565v3.867h-3.926
		v-3.867H104.305z M104.305,62.222v-3.828h3.906v3.828H104.305z M104.305,66.147v-3.926h3.906v3.926H104.305z M104.305,70.073
		v-3.926h3.906v3.926H104.305z M104.305,73.979v-3.906h3.906v3.906H104.305z M104.305,77.905v-3.926h3.906v3.926H104.305z
		 M104.305,81.812v-3.906h3.906v3.906H104.305z M104.305,85.737v-3.926h3.906v3.926H104.305z M104.305,89.565v-3.828h3.906v3.828
		H104.305z M108.211,89.565v3.867h-3.906v-3.867H108.211z M108.211,66.147v-3.926h3.848v3.926H108.211z M108.211,70.073v-3.926
		h3.848v3.926H108.211z M108.211,73.979v-3.906h3.848v3.906H108.211z M108.211,81.812v-3.906h3.848v3.906H108.211z M108.211,85.737
		v-3.926h3.848v3.926H108.211z M108.211,89.565v-3.828h3.848v3.828H108.211z"/>
	<linearGradient id="SVGID_13_" gradientUnits="userSpaceOnUse" x1="128.1235" y1="54.4678" x2="128.1235" y2="93.4326">
		<stop  offset="0" style="stop-color:#B5F048"/>
		<stop  offset="0.018" style="stop-color:#B6F048"/>
		<stop  offset="0.6261" style="stop-color:#CEE244"/>
		<stop  offset="1" style="stop-color:#D7DD43"/>
	</linearGradient>
	<path fill="url(#SVGID_13_)" d="M108.612,58.394v-3.926h3.926v3.926H108.612z M108.612,62.222v-3.828h3.926v3.828H108.612z
		 M108.612,66.147v-3.926h3.926v3.926H108.612z M108.612,70.073v-3.926h3.926v3.926H108.612z M108.612,73.979v-3.906h3.926v3.906
		H108.612z M108.612,77.905v-3.926h3.926v3.926H108.612z M108.612,81.812v-3.906h3.926v3.906H108.612z M108.612,85.737v-3.926h3.926
		v3.926H108.612z M108.612,89.565v-3.828h3.926v3.828H108.612z M112.538,58.394v-3.926h3.906v3.926H112.538z M112.538,89.565v-3.828
		h3.906v3.828H112.538z M116.444,89.565v3.867h-3.906v-3.867H116.444z M116.444,58.394v-3.926h3.926v3.926H116.444z M116.444,89.565
		v-3.828h3.926v3.828H116.444z M120.37,89.565v3.867h-3.926v-3.867H120.37z M120.37,58.394v-3.926h3.828v3.926H120.37z
		 M120.37,62.222v-3.828h3.828v3.828H120.37z M120.37,66.147v-3.926h3.828v3.926H120.37z M120.37,70.073v-3.926h3.828v3.926H120.37z
		 M120.37,77.905v-3.926h3.828v3.926H120.37z M120.37,81.812v-3.906h3.828v3.906H120.37z M120.37,85.737v-3.926h3.828v3.926H120.37z
		 M120.37,89.565v-3.828h3.828v3.828H120.37z M124.198,89.565v3.867h-3.828v-3.867H124.198z M124.198,62.222v-3.828h3.926v3.828
		H124.198z M124.198,66.147v-3.926h3.926v3.926H124.198z M124.198,70.073v-3.926h3.926v3.926H124.198z M124.198,77.905v-3.926h3.926
		v3.926H124.198z M124.198,81.812v-3.906h3.926v3.906H124.198z M124.198,85.737v-3.926h3.926v3.926H124.198z M124.198,89.565v-3.828
		h3.926v3.828H124.198z M128.124,89.565v3.867h-3.926v-3.867H128.124z M128.124,58.394v-3.926h3.926v3.926H128.124z M128.124,62.222
		v-3.828h3.926v3.828H128.124z M128.124,66.147v-3.926h3.926v3.926H128.124z M128.124,70.073v-3.926h3.926v3.926H128.124z
		 M128.124,77.905v-3.926h3.926v3.926H128.124z M128.124,81.812v-3.906h3.926v3.906H128.124z M128.124,85.737v-3.926h3.926v3.926
		H128.124z M128.124,89.565v-3.828h3.926v3.828H128.124z M132.049,58.394v-3.926h3.906v3.926H132.049z M132.049,89.565v-3.828h3.906
		v3.828H132.049z M135.956,89.565v3.867h-3.906v-3.867H135.956z M135.956,58.394v-3.926h3.926v3.926H135.956z M135.956,89.565
		v-3.828h3.926v3.828H135.956z M139.881,89.565v3.867h-3.926v-3.867H139.881z M139.881,58.394v-3.926h3.906v3.926H139.881z
		 M139.881,62.222v-3.828h3.906v3.828H139.881z M139.881,66.147v-3.926h3.906v3.926H139.881z M139.881,70.073v-3.926h3.906v3.926
		H139.881z M139.881,73.979v-3.906h3.906v3.906H139.881z M139.881,77.905v-3.926h3.906v3.926H139.881z M139.881,81.812v-3.906h3.906
		v3.906H139.881z M139.881,85.737v-3.926h3.906v3.926H139.881z M139.881,89.565v-3.828h3.906v3.828H139.881z M143.788,89.565v3.867
		h-3.906v-3.867H143.788z M143.788,62.222v-3.828h3.848v3.828H143.788z M143.788,66.147v-3.926h3.848v3.926H143.788z
		 M143.788,70.073v-3.926h3.848v3.926H143.788z M143.788,73.979v-3.906h3.848v3.906H143.788z M143.788,77.905v-3.926h3.848v3.926
		H143.788z M143.788,81.812v-3.906h3.848v3.906H143.788z M143.788,85.737v-3.926h3.848v3.926H143.788z M143.788,89.565v-3.828h3.848
		v3.828H143.788z M147.635,89.565v3.867h-3.848v-3.867H147.635z"/>
	<linearGradient id="SVGID_14_" gradientUnits="userSpaceOnUse" x1="175.2124" y1="54.4678" x2="175.2124" y2="93.4326">
		<stop  offset="0" style="stop-color:#B5F048"/>
		<stop  offset="0.018" style="stop-color:#B6F048"/>
		<stop  offset="0.6261" style="stop-color:#CEE244"/>
		<stop  offset="1" style="stop-color:#D7DD43"/>
	</linearGradient>
	<path fill="url(#SVGID_14_)" d="M155.701,58.394v-3.926h3.926v3.926H155.701z M155.701,62.222v-3.828h3.926v3.828H155.701z
		 M155.701,66.147v-3.926h3.926v3.926H155.701z M155.701,70.073v-3.926h3.926v3.926H155.701z M155.701,73.979v-3.906h3.926v3.906
		H155.701z M155.701,77.905v-3.926h3.926v3.926H155.701z M155.701,81.812v-3.906h3.926v3.906H155.701z M155.701,85.737v-3.926h3.926
		v3.926H155.701z M155.701,89.565v-3.828h3.926v3.828H155.701z M159.626,58.394v-3.926h3.906v3.926H159.626z M159.626,89.565v-3.828
		h3.906v3.828H159.626z M163.533,89.565v3.867h-3.906v-3.867H163.533z M163.533,58.394v-3.926h3.926v3.926H163.533z M163.533,89.565
		v-3.828h3.926v3.828H163.533z M167.458,89.565v3.867h-3.926v-3.867H167.458z M167.458,58.394v-3.926h3.828v3.926H167.458z
		 M167.458,62.222v-3.828h3.828v3.828H167.458z M167.458,66.147v-3.926h3.828v3.926H167.458z M167.458,70.073v-3.926h3.828v3.926
		H167.458z M167.458,73.979v-3.906h3.828v3.906H167.458z M167.458,85.737v-3.926h3.828v3.926H167.458z M167.458,89.565v-3.828h3.828
		v3.828H167.458z M171.287,89.565v3.867h-3.828v-3.867H171.287z M171.287,62.222v-3.828h3.926v3.828H171.287z M171.287,66.147
		v-3.926h3.926v3.926H171.287z M171.287,70.073v-3.926h3.926v3.926H171.287z M171.287,81.812v-3.906h3.926v3.906H171.287z
		 M171.287,85.737v-3.926h3.926v3.926H171.287z M171.287,89.565v-3.828h3.926v3.828H171.287z M175.212,89.565v3.867h-3.926v-3.867
		H175.212z M175.212,58.394v-3.926h3.926v3.926H175.212z M175.212,62.222v-3.828h3.926v3.828H175.212z M175.212,66.147v-3.926h3.926
		v3.926H175.212z M175.212,70.073v-3.926h3.926v3.926H175.212z M175.212,73.979v-3.906h3.926v3.906H175.212z M175.212,85.737v-3.926
		h3.926v3.926H175.212z M175.212,89.565v-3.828h3.926v3.828H175.212z M179.138,58.394v-3.926h3.906v3.926H179.138z M179.138,89.565
		v-3.828h3.906v3.828H179.138z M183.044,89.565v3.867h-3.906v-3.867H183.044z M183.044,58.394v-3.926h3.926v3.926H183.044z
		 M183.044,89.565v-3.828h3.926v3.828H183.044z M186.97,89.565v3.867h-3.926v-3.867H186.97z M186.97,58.394v-3.926h3.906v3.926
		H186.97z M186.97,62.222v-3.828h3.906v3.828H186.97z M186.97,66.147v-3.926h3.906v3.926H186.97z M186.97,70.073v-3.926h3.906v3.926
		H186.97z M186.97,73.979v-3.906h3.906v3.906H186.97z M186.97,77.905v-3.926h3.906v3.926H186.97z M186.97,81.812v-3.906h3.906v3.906
		H186.97z M186.97,85.737v-3.926h3.906v3.926H186.97z M186.97,89.565v-3.828h3.906v3.828H186.97z M190.876,89.565v3.867h-3.906
		v-3.867H190.876z M190.876,62.222v-3.828h3.848v3.828H190.876z M190.876,66.147v-3.926h3.848v3.926H190.876z M190.876,70.073
		v-3.926h3.848v3.926H190.876z M190.876,73.979v-3.906h3.848v3.906H190.876z M190.876,77.905v-3.926h3.848v3.926H190.876z
		 M190.876,81.812v-3.906h3.848v3.906H190.876z M190.876,85.737v-3.926h3.848v3.926H190.876z M190.876,89.565v-3.828h3.848v3.828
		H190.876z M194.724,89.565v3.867h-3.848v-3.867H194.724z"/>
	<linearGradient id="SVGID_15_" gradientUnits="userSpaceOnUse" x1="210.7881" y1="54.4678" x2="210.7881" y2="93.4326">
		<stop  offset="0" style="stop-color:#B5F048"/>
		<stop  offset="0.018" style="stop-color:#B6F048"/>
		<stop  offset="0.6261" style="stop-color:#CEE244"/>
		<stop  offset="1" style="stop-color:#D7DD43"/>
	</linearGradient>
	<path fill="url(#SVGID_15_)" d="M191.276,62.222v-3.828h3.926v3.828H191.276z M191.276,66.147v-3.926h3.926v3.926H191.276z
		 M191.276,70.073v-3.926h3.926v3.926H191.276z M191.276,73.979v-3.906h3.926v3.906H191.276z M191.276,77.905v-3.926h3.926v3.926
		H191.276z M191.276,81.812v-3.906h3.926v3.906H191.276z M191.276,85.737v-3.926h3.926v3.926H191.276z M195.202,58.394v-3.926h3.906
		v3.926H195.202z M195.202,62.222v-3.828h3.906v3.828H195.202z M195.202,85.737v-3.926h3.906v3.926H195.202z M195.202,89.565v-3.828
		h3.906v3.828H195.202z M199.108,58.394v-3.926h3.926v3.926H199.108z M199.108,89.565v-3.828h3.926v3.828H199.108z M203.034,89.565
		v3.867h-3.926v-3.867H203.034z M203.034,58.394v-3.926h3.828v3.926H203.034z M203.034,66.147v-3.926h3.828v3.926H203.034z
		 M203.034,70.073v-3.926h3.828v3.926H203.034z M203.034,73.979v-3.906h3.828v3.906H203.034z M203.034,77.905v-3.926h3.828v3.926
		H203.034z M203.034,81.812v-3.906h3.828v3.906H203.034z M203.034,89.565v-3.828h3.828v3.828H203.034z M206.862,89.565v3.867h-3.828
		v-3.867H206.862z M206.862,58.394v-3.926h3.926v3.926H206.862z M206.862,66.147v-3.926h3.926v3.926H206.862z M206.862,70.073
		v-3.926h3.926v3.926H206.862z M206.862,73.979v-3.906h3.926v3.906H206.862z M206.862,77.905v-3.926h3.926v3.926H206.862z
		 M206.862,81.812v-3.906h3.926v3.906H206.862z M206.862,89.565v-3.828h3.926v3.828H206.862z M210.788,89.565v3.867h-3.926v-3.867
		H210.788z M210.788,58.394v-3.926h3.926v3.926H210.788z M210.788,66.147v-3.926h3.926v3.926H210.788z M210.788,70.073v-3.926h3.926
		v3.926H210.788z M210.788,73.979v-3.906h3.926v3.906H210.788z M210.788,77.905v-3.926h3.926v3.926H210.788z M210.788,81.812v-3.906
		h3.926v3.906H210.788z M210.788,89.565v-3.828h3.926v3.828H210.788z M214.714,89.565v3.867h-3.926v-3.867H214.714z M214.714,58.394
		v-3.926h3.906v3.926H214.714z M214.714,89.565v-3.828h3.906v3.828H214.714z M218.62,89.565v3.867h-3.906v-3.867H218.62z
		 M218.62,58.394v-3.926h3.926v3.926H218.62z M218.62,62.222v-3.828h3.926v3.828H218.62z M218.62,85.737v-3.926h3.926v3.926H218.62z
		 M218.62,89.565v-3.828h3.926v3.828H218.62z M222.546,89.565v3.867h-3.926v-3.867H222.546z M222.546,62.222v-3.828h3.906v3.828
		H222.546z M222.546,66.147v-3.926h3.906v3.926H222.546z M222.546,70.073v-3.926h3.906v3.926H222.546z M222.546,73.979v-3.906h3.906
		v3.906H222.546z M222.546,77.905v-3.926h3.906v3.926H222.546z M222.546,81.812v-3.906h3.906v3.906H222.546z M222.546,85.737v-3.926
		h3.906v3.926H222.546z M222.546,89.565v-3.828h3.906v3.828H222.546z M226.452,89.565v3.867h-3.906v-3.867H226.452z M226.452,66.147
		v-3.926h3.848v3.926H226.452z M226.452,70.073v-3.926h3.848v3.926H226.452z M226.452,73.979v-3.906h3.848v3.906H226.452z
		 M226.452,77.905v-3.926h3.848v3.926H226.452z M226.452,81.812v-3.906h3.848v3.906H226.452z M226.452,85.737v-3.926h3.848v3.926
		H226.452z M226.452,89.565v-3.828h3.848v3.828H226.452z"/>
	<linearGradient id="SVGID_16_" gradientUnits="userSpaceOnUse" x1="246.3633" y1="54.4678" x2="246.3633" y2="93.4326">
		<stop  offset="0" style="stop-color:#B5F048"/>
		<stop  offset="0.018" style="stop-color:#B6F048"/>
		<stop  offset="0.6261" style="stop-color:#CEE244"/>
		<stop  offset="1" style="stop-color:#D7DD43"/>
	</linearGradient>
	<path fill="url(#SVGID_16_)" d="M226.852,58.394v-3.926h3.926v3.926H226.852z M226.852,62.222v-3.828h3.926v3.828H226.852z
		 M226.852,66.147v-3.926h3.926v3.926H226.852z M226.852,70.073v-3.926h3.926v3.926H226.852z M226.852,73.979v-3.906h3.926v3.906
		H226.852z M226.852,77.905v-3.926h3.926v3.926H226.852z M226.852,81.812v-3.906h3.926v3.906H226.852z M226.852,85.737v-3.926h3.926
		v3.926H226.852z M226.852,89.565v-3.828h3.926v3.828H226.852z M230.778,58.394v-3.926h3.906v3.926H230.778z M230.778,89.565v-3.828
		h3.906v3.828H230.778z M234.684,89.565v3.867h-3.906v-3.867H234.684z M234.684,58.394v-3.926h3.926v3.926H234.684z M234.684,89.565
		v-3.828h3.926v3.828H234.684z M238.61,89.565v3.867h-3.926v-3.867H238.61z M238.61,58.394v-3.926h3.828v3.926H238.61z
		 M238.61,62.222v-3.828h3.828v3.828H238.61z M238.61,66.147v-3.926h3.828v3.926H238.61z M238.61,70.073v-3.926h3.828v3.926H238.61z
		 M238.61,73.979v-3.906h3.828v3.906H238.61z M238.61,85.737v-3.926h3.828v3.926H238.61z M238.61,89.565v-3.828h3.828v3.828H238.61z
		 M242.438,89.565v3.867h-3.828v-3.867H242.438z M242.438,62.222v-3.828h3.926v3.828H242.438z M242.438,66.147v-3.926h3.926v3.926
		H242.438z M242.438,70.073v-3.926h3.926v3.926H242.438z M242.438,81.812v-3.906h3.926v3.906H242.438z M242.438,85.737v-3.926h3.926
		v3.926H242.438z M242.438,89.565v-3.828h3.926v3.828H242.438z M246.363,89.565v3.867h-3.926v-3.867H246.363z M246.363,58.394
		v-3.926h3.926v3.926H246.363z M246.363,62.222v-3.828h3.926v3.828H246.363z M246.363,66.147v-3.926h3.926v3.926H246.363z
		 M246.363,70.073v-3.926h3.926v3.926H246.363z M246.363,73.979v-3.906h3.926v3.906H246.363z M246.363,85.737v-3.926h3.926v3.926
		H246.363z M246.363,89.565v-3.828h3.926v3.828H246.363z M250.289,58.394v-3.926h3.906v3.926H250.289z M250.289,89.565v-3.828h3.906
		v3.828H250.289z M254.195,89.565v3.867h-3.906v-3.867H254.195z M254.195,58.394v-3.926h3.926v3.926H254.195z M254.195,89.565
		v-3.828h3.926v3.828H254.195z M258.121,89.565v3.867h-3.926v-3.867H258.121z M258.121,58.394v-3.926h3.906v3.926H258.121z
		 M258.121,62.222v-3.828h3.906v3.828H258.121z M258.121,66.147v-3.926h3.906v3.926H258.121z M258.121,70.073v-3.926h3.906v3.926
		H258.121z M258.121,73.979v-3.906h3.906v3.906H258.121z M258.121,77.905v-3.926h3.906v3.926H258.121z M258.121,81.812v-3.906h3.906
		v3.906H258.121z M258.121,85.737v-3.926h3.906v3.926H258.121z M258.121,89.565v-3.828h3.906v3.828H258.121z M262.027,89.565v3.867
		h-3.906v-3.867H262.027z M262.027,62.222v-3.828h3.848v3.828H262.027z M262.027,66.147v-3.926h3.848v3.926H262.027z
		 M262.027,70.073v-3.926h3.848v3.926H262.027z M262.027,73.979v-3.906h3.848v3.906H262.027z M262.027,77.905v-3.926h3.848v3.926
		H262.027z M262.027,81.812v-3.906h3.848v3.906H262.027z M262.027,85.737v-3.926h3.848v3.926H262.027z M262.027,89.565v-3.828h3.848
		v3.828H262.027z M265.875,89.565v3.867h-3.848v-3.867H265.875z"/>
	<linearGradient id="SVGID_17_" gradientUnits="userSpaceOnUse" x1="272.1836" y1="54.4678" x2="272.1836" y2="93.4326">
		<stop  offset="0" style="stop-color:#B5F048"/>
		<stop  offset="0.018" style="stop-color:#B6F048"/>
		<stop  offset="0.6261" style="stop-color:#CEE244"/>
		<stop  offset="1" style="stop-color:#D7DD43"/>
	</linearGradient>
	<path fill="url(#SVGID_17_)" d="M262.428,58.394v-3.926h3.926v3.926H262.428z M262.428,62.222v-3.828h3.926v3.828H262.428z
		 M262.428,66.147v-3.926h3.926v3.926H262.428z M262.428,70.073v-3.926h3.926v3.926H262.428z M262.428,73.979v-3.906h3.926v3.906
		H262.428z M262.428,77.905v-3.926h3.926v3.926H262.428z M262.428,81.812v-3.906h3.926v3.906H262.428z M262.428,85.737v-3.926h3.926
		v3.926H262.428z M262.428,89.565v-3.828h3.926v3.828H262.428z M266.354,58.394v-3.926h3.906v3.926H266.354z M266.354,81.812v-3.906
		h3.906v3.906H266.354z M266.354,89.565v-3.828h3.906v3.828H266.354z M270.26,89.565v3.867h-3.906v-3.867H270.26z M270.26,58.394
		v-3.926h3.926v3.926H270.26z M270.26,73.979v-3.906h3.926v3.906H270.26z M270.26,77.905v-3.926h3.926v3.926H270.26z M270.26,81.812
		v-3.906h3.926v3.906H270.26z M270.26,85.737v-3.926h3.926v3.926H270.26z M270.26,89.565v-3.828h3.926v3.828H270.26z
		 M274.186,89.565v3.867h-3.926v-3.867H274.186z M274.186,58.394v-3.926h3.828v3.926H274.186z M274.186,62.222v-3.828h3.828v3.828
		H274.186z M274.186,66.147v-3.926h3.828v3.926H274.186z M274.186,70.073v-3.926h3.828v3.926H274.186z M274.186,73.979v-3.906h3.828
		v3.906H274.186z M274.186,77.905v-3.926h3.828v3.926H274.186z M274.186,81.812v-3.906h3.828v3.906H274.186z M274.186,85.737v-3.926
		h3.828v3.926H274.186z M274.186,89.565v-3.828h3.828v3.828H274.186z M278.014,89.565v3.867h-3.828v-3.867H278.014z M278.014,62.222
		v-3.828h3.926v3.828H278.014z M278.014,66.147v-3.926h3.926v3.926H278.014z M278.014,70.073v-3.926h3.926v3.926H278.014z
		 M278.014,73.979v-3.906h3.926v3.906H278.014z M278.014,77.905v-3.926h3.926v3.926H278.014z"/>
	<linearGradient id="SVGID_18_" gradientUnits="userSpaceOnUse" x1="288.1699" y1="54.4678" x2="288.1699" y2="93.4326">
		<stop  offset="0" style="stop-color:#B5F048"/>
		<stop  offset="0.018" style="stop-color:#B6F048"/>
		<stop  offset="0.6261" style="stop-color:#CEE244"/>
		<stop  offset="1" style="stop-color:#D7DD43"/>
	</linearGradient>
	<path fill="url(#SVGID_18_)" d="M278.414,58.394v-3.926h3.926v3.926H278.414z M278.414,62.222v-3.828h3.926v3.828H278.414z
		 M278.414,66.147v-3.926h3.926v3.926H278.414z M278.414,70.073v-3.926h3.926v3.926H278.414z M278.414,73.979v-3.906h3.926v3.906
		H278.414z M278.414,77.905v-3.926h3.926v3.926H278.414z M278.414,81.812v-3.906h3.926v3.906H278.414z M278.414,85.737v-3.926h3.926
		v3.926H278.414z M278.414,89.565v-3.828h3.926v3.828H278.414z M282.34,58.394v-3.926h3.906v3.926H282.34z M282.34,81.812v-3.906
		h3.906v3.906H282.34z M282.34,89.565v-3.828h3.906v3.828H282.34z M286.246,89.565v3.867h-3.906v-3.867H286.246z M286.246,58.394
		v-3.926h3.926v3.926H286.246z M286.246,73.979v-3.906h3.926v3.906H286.246z M286.246,77.905v-3.926h3.926v3.926H286.246z
		 M286.246,81.812v-3.906h3.926v3.906H286.246z M286.246,85.737v-3.926h3.926v3.926H286.246z M286.246,89.565v-3.828h3.926v3.828
		H286.246z M290.172,89.565v3.867h-3.926v-3.867H290.172z M290.172,58.394v-3.926H294v3.926H290.172z M290.172,62.222v-3.828H294
		v3.828H290.172z M290.172,66.147v-3.926H294v3.926H290.172z M290.172,70.073v-3.926H294v3.926H290.172z M290.172,73.979v-3.906H294
		v3.906H290.172z M290.172,77.905v-3.926H294v3.926H290.172z M290.172,81.812v-3.906H294v3.906H290.172z M290.172,85.737v-3.926H294
		v3.926H290.172z M290.172,89.565v-3.828H294v3.828H290.172z M294,89.565v3.867h-3.828v-3.867H294z M294,62.222v-3.828h3.926v3.828
		H294z M294,66.147v-3.926h3.926v3.926H294z M294,70.073v-3.926h3.926v3.926H294z M294,73.979v-3.906h3.926v3.906H294z M294,77.905
		v-3.926h3.926v3.926H294z"/>
</g>
</svg>
