<?xml version="1.0" encoding="utf-8"?>
<!-- Generator: Adobe Illustrator 16.0.0, SVG Export Plug-In . SVG Version: 6.00 Build 0)  -->
<!DOCTYPE svg PUBLIC "-//W3C//DTD SVG 1.1//EN" "http://www.w3.org/Graphics/SVG/1.1/DTD/svg11.dtd">
<svg version="1.1" id="Layer_1" xmlns="http://www.w3.org/2000/svg" xmlns:xlink="http://www.w3.org/1999/xlink" x="0px" y="0px"
	 width="300px" height="300px" viewBox="0 0 300 300" enable-background="new 0 0 300 300" xml:space="preserve">
<g>
	<path fill="#8EDA3D" d="M63.314,96.315l29.648,27.646c0.673,0.627,81.854,76.123,82.479,75.454l5.475-5.871
		c0.627-0.67-79.537-77.26-80.209-77.885l-29.35-27.369l-0.004-0.004c8.512-12.396,6.911-29.531-4.411-40.09
		C54.476,36.574,34.88,37.256,23.254,49.723c-0.121,0.133-0.604,0.667-0.606,0.674C11.658,62.886,12.536,81.993,24.779,93.41
		C35.547,103.455,51.642,104.309,63.314,96.315z"/>
	<path fill="#B1F148" d="M64.675,50.628c3.727,3.475,6.271,7.743,7.618,12.306c-0.949-2.325-2.165-4.396-3.699-6.309
		c-0.005-0.01-0.012-0.017-0.018-0.021c-2.225-2.682-4.164-4.449-6.491-5.907c-0.018-0.008-0.029-0.019-0.048-0.025
		c-4.239-2.47-7.886-3.676-11.818-3.92c-2.962-0.196-5.52,0.029-8.029,0.702c-3.776,1-7.044,2.802-9.98,5.504
		c-0.012,0.011-0.02,0.017-0.031,0.026c-2.598,2.503-4.538,5.557-5.763,9.069c-1.095,3.111-1.306,6.403-0.651,10.065
		c0.624,3.381,1.915,6.195,3.941,8.626c2.546,3.051,5.857,5.073,9.835,6.011c0.022,0.004,0.044,0.007,0.061,0.013
		c4.628,0.909,8.871-0.001,12.281-2.644c3.2-2.48,5.046-5.747,5.344-9.449c0.002-0.02,0.002-0.041,0.005-0.059
		c0.179-4.042-1.497-7.528-4.599-9.563c-0.031-0.02-0.062-0.039-0.09-0.059c-2.458-1.395-4.971-1.677-7.066-0.797
		c-2.368,1.005-4.312,3.5-3.456,6.321c0.011,0.027,0.022,0.062,0.033,0.094c0.354,0.962,1.053,1.692,1.959,2.071
		c0.771,0.357,1.488,0.253,1.92,0.189c0.011-0.002,0.025-0.002,0.037-0.005c0.087,0.172,0.115,0.52-0.005,0.847
		c-0.757,1.93-3.3,1.634-3.842,1.548c-2.866-0.528-4.064-3.053-4.528-4.531c-0.552-1.981-0.402-3.896,0.442-5.696
		c1.202-2.426,2.784-4.1,4.844-5.12c2.104-0.95,3.927-1.333,5.906-1.243c2.281,0.085,4.321,0.712,6.43,1.975
		c3.72,2.17,6.11,5.689,6.936,10.19c0.473,3.06,0.304,5.75-0.532,8.457c-0.892,2.891-2.448,5.339-4.902,7.702
		c-2.47,2.274-5.275,3.822-8.586,4.728c-2.285,0.613-4.406,0.818-6.869,0.659c-5.082-0.415-9.545-2.389-13.275-5.866
		c-0.01-0.014-0.029-0.024-0.038-0.036c-1.887-1.646-3.479-3.633-4.874-6.068c-1.368-2.462-2.225-4.897-2.682-7.646
		c-0.675-4.248-0.527-8.197,0.828-12.49c0.924-2.533,1.515-5.199,4.03-7.807c0.143-0.159,0.288-0.319,0.435-0.479
		C36.062,40.866,53.55,40.254,64.675,50.628z"/>
	<path fill="#B1F148" d="M27.048,90.979c-1.724-1.609-3.193-3.386-4.407-5.285c0.949,1.202,1.98,2.288,3.098,3.272
		c4.292,3.992,9.43,6.256,15.272,6.732c0.004-0.001,0.014,0,0.025,0.002c2.807,0.18,5.335-0.063,7.966-0.767
		c3.851-1.053,7.109-2.852,9.983-5.51c0.011-0.006,0.021-0.014,0.028-0.021c2.88-2.776,4.72-5.677,5.779-9.13
		c0.982-3.17,1.19-6.434,0.643-9.971c-0.004-0.015-0.006-0.03-0.008-0.042c-1.005-5.497-3.95-9.81-8.52-12.475
		c-2.591-1.55-5.132-2.329-7.984-2.435c-2.486-0.116-4.858,0.373-7.439,1.545c-0.018,0.007-0.035,0.016-0.05,0.023
		c-2.717,1.34-4.863,3.577-6.388,6.655c-0.002,0.012-0.007,0.022-0.012,0.028c-1.188,2.519-1.409,5.302-0.637,8.052
		c0.004,0.014,0.011,0.025,0.015,0.042c1.163,3.736,3.758,6.229,7.128,6.84c0.011,0.002,0.022,0.005,0.031,0.002
		c3.476,0.571,6.415-0.856,7.497-3.635c0.004-0.008,0.006-0.014,0.01-0.021c0.698-1.885,0.158-4.345-1.953-5.198
		c-0.052-0.02-0.1-0.036-0.147-0.051c-0.615-0.187-1.168-0.102-1.529-0.051c-0.051,0.007-0.117,0.018-0.173,0.022
		c-0.035-0.017-0.062-0.056-0.089-0.116c-0.272-1.023,0.788-1.894,1.581-2.229c1.413-0.596,2.992-0.01,4.083,0.6
		c2.062,1.377,3.176,3.77,3.056,6.579c-0.229,2.771-1.594,5.145-4.062,7.054c-2.621,2.032-5.929,2.728-9.57,2.02
		c-3.294-0.784-5.915-2.388-8.019-4.9c-1.675-2.007-2.698-4.256-3.22-7.085c-0.553-3.074-0.381-5.816,0.519-8.376
		c1.05-3.015,2.705-5.628,4.916-7.759c2.53-2.321,5.332-3.866,8.576-4.726c2.184-0.586,4.327-0.771,6.964-0.6
		c3.385,0.21,6.573,1.275,10.333,3.462c2.022,1.27,3.664,2.774,5.661,5.185c2.43,3.031,3.908,6.403,4.795,10.927
		c0.716,4.518,0.409,8.536-0.96,12.64c-0.94,2.782-1.744,4.665-4.07,7.612C55.369,100.749,38.077,101.265,27.048,90.979z"/>
</g>
<g>
	<path fill="#8EDA3D" d="M190.696,49.577c4.896-16.009-3.898-32.996-19.658-38.318c-0.005-0.003-0.692-0.227-0.864-0.28
		c-16.301-4.981-33.611,4.227-38.597,20.522c-4.526,14.806,2.656,30.447,16.224,36.926v0.005l-11.733,38.377
		c-0.271,0.878-35.125,107.352-34.248,107.619l7.68,2.346c0.873,0.268,37.157-105.768,37.426-106.646l11.853-38.768
		C172.883,72.445,186.395,63.658,190.696,49.577z"/>
	<path fill="#B1F148" d="M169.202,14.159c0.205,0.064,0.413,0.13,0.616,0.197c3.482,0.999,5.328,3.013,7.393,4.743
		c3.32,3.042,5.423,6.388,6.962,10.405c0.979,2.608,1.458,5.146,1.502,7.963c0.009,2.807-0.376,5.323-1.186,7.692
		c-0.003,0.014-0.014,0.031-0.017,0.049c-1.49,4.877-4.37,8.819-8.561,11.72c-2.056,1.369-3.996,2.252-6.281,2.863
		c-3.319,0.87-6.523,0.935-9.801,0.199c-3.305-0.821-5.876-2.164-8.096-4.221c-2.078-1.925-3.569-4.171-4.689-7.058
		c-1.535-4.312-1.223-8.555,0.911-12.292c1.195-2.147,2.649-3.712,4.583-4.926c1.668-1.066,3.437-1.646,5.734-1.877
		c2.294-0.146,4.501,0.512,6.757,2.015c1.632,1.133,2.717,2.718,3.23,4.711c0.337,1.512,0.562,4.298-1.656,6.188
		c-0.427,0.346-2.48,1.872-4.102,0.579c-0.268-0.223-0.417-0.538-0.428-0.73c0.012-0.004,0.023-0.012,0.035-0.014
		c0.406-0.161,1.079-0.43,1.569-1.126c0.595-0.78,0.832-1.762,0.66-2.771c-0.007-0.033-0.013-0.069-0.02-0.1
		c-0.668-2.87-3.6-4.059-6.152-3.746c-2.256,0.286-4.29,1.785-5.722,4.225c-0.015,0.031-0.03,0.062-0.05,0.097
		c-1.668,3.311-1.375,7.168,0.801,10.579c0.012,0.015,0.021,0.033,0.032,0.05c2.108,3.056,5.342,4.963,9.354,5.512
		c4.274,0.582,8.403-0.752,11.959-3.854c0.011-0.013,0.025-0.025,0.044-0.04c2.976-2.8,4.834-6.208,5.513-10.123
		c0.54-3.118,0.251-6.201-0.9-9.44c-1.264-3.499-3.093-6.244-5.597-8.392c-2.816-2.429-6.024-4.104-9.523-4.973
		c-0.017-0.004-0.026-0.005-0.042-0.009c-3.893-0.87-7.623-0.798-11.395,0.225c-2.511,0.673-4.838,1.756-7.305,3.407
		c-3.285,2.176-5.841,5.046-8.275,9.305c-0.013,0.015-0.019,0.029-0.028,0.047c-1.285,2.424-2.085,4.924-2.669,8.358
		c-0.002,0.008-0.003,0.019-0.005,0.028c-0.371,2.423-0.388,4.823-0.048,7.312c-1.113-4.624-1.046-9.594,0.444-14.467
		C139.204,17.927,154.656,9.713,169.202,14.159z"/>
	<path fill="#B1F148" d="M153.439,67.025c-3.488-1.39-5.124-2.618-7.329-4.557c-3.238-2.87-5.513-6.197-7.153-10.468
		c-1.494-4.359-1.898-8.021-1.311-11.859c0.525-3.086,1.193-5.21,2.311-7.32c2.163-3.773,4.392-6.29,7.218-8.166
		c2.198-1.465,4.147-2.377,6.331-2.962c3.239-0.878,6.437-0.94,9.789-0.196c2.982,0.741,5.721,2.176,8.137,4.264
		c2.06,1.765,3.579,4.055,4.638,6.992c0.961,2.711,1.202,5.171,0.755,7.746c-0.566,3.228-2.034,5.927-4.496,8.252
		c-2.8,2.436-6.01,3.487-9.295,3.038c-3.093-0.42-5.462-1.793-7.046-4.078c-1.51-2.373-1.74-5.002-0.644-7.226
		c0.639-1.072,1.713-2.37,3.235-2.561c0.854-0.104,2.208,0.117,2.484,1.141c0.007,0.064,0.003,0.113-0.021,0.146
		c-0.048,0.022-0.112,0.047-0.159,0.068c-0.339,0.135-0.86,0.338-1.3,0.807c-0.034,0.038-0.066,0.074-0.101,0.119
		c-1.403,1.794-0.642,4.194,0.906,5.476c0.006,0.006,0.013,0.01,0.019,0.016c2.327,1.863,5.587,1.632,8.312-0.603
		c0.009-0.003,0.018-0.01,0.024-0.017c2.614-2.214,3.613-5.672,2.753-9.487c-0.003-0.017-0.004-0.03-0.009-0.044
		c-0.705-2.767-2.289-5.068-4.575-6.655c-0.009-0.002-0.018-0.01-0.024-0.018c-2.859-1.905-5.838-2.768-8.86-2.569
		c-0.017-0.001-0.035,0.001-0.054,0.005c-2.821,0.275-5.122,1.037-7.217,2.381c-2.418,1.518-4.228,3.462-5.697,6.102
		c-2.624,4.593-3.018,9.8-1.142,15.062c0.005,0.011,0.012,0.027,0.016,0.04c1.293,3.337,3.104,6.06,5.541,8.313
		c2.645,2.462,5.69,4.053,9.57,5.018c0.011,0.001,0.022,0.003,0.035,0.005c3.817,0.862,7.54,0.791,11.4-0.221
		c2.629-0.708,4.942-1.761,7.283-3.318c0.007-0.009,0.015-0.015,0.02-0.017c4.822-3.333,8.142-7.862,9.861-13.466
		c0.474-1.41,0.823-2.866,1.047-4.384c-0.104,2.251-0.488,4.525-1.174,6.782C183.109,63.027,167.875,71.229,153.439,67.025z"/>
</g>
<g>
	
		<linearGradient id="SVGID_1_" gradientUnits="userSpaceOnUse" x1="77.5605" y1="127.1045" x2="203.8105" y2="127.1045" gradientTransform="matrix(0.9659 -0.2588 0.2588 0.9659 -43.2004 54.188)">
		<stop  offset="0" style="stop-color:#ADE43D"/>
		<stop  offset="1" style="stop-color:#8EDA3D"/>
	</linearGradient>
	<path fill="url(#SVGID_1_)" d="M109.243,79.578c-33.619,9.009-53.641,43.688-44.632,77.308
		c9.009,33.622,43.688,53.644,77.307,44.636s53.646-43.688,44.637-77.31C177.546,90.592,142.863,70.569,109.243,79.578z"/>
	<path fill="#B1F148" d="M126.043,88.698c-3.57,0.956-5.73,4.509-4.817,7.922l22.548,84.148c0.916,3.414,4.565,5.411,8.135,4.456
		l0,0c0.743-0.2,1.451-0.525,2.103-0.963c19.175-12.92,28.208-35.971,22.479-57.353c-5.731-21.384-25.078-36.83-48.145-38.431
		C127.562,88.424,126.786,88.499,126.043,88.698z"/>
	<path fill="#8EDA3D" d="M144.293,134.864c1.555,1.47,5.174,4.172,9.738,2.949c7.261-1.945,6.785-13.38,6.188-18.48L144.293,134.864
		z"/>
	<g>
		<path fill="#B1F148" d="M99.617,95.777c-0.751,0.202-1.465,0.526-2.123,0.969c-19.38,12.973-28.551,36.061-22.82,57.443
			c5.729,21.385,25.216,36.792,48.484,38.34c2.561,0.168,5.087-1.12,6.421-3.222c0.955-1.509,1.233-3.261,0.783-4.944
			l-22.547-84.147C106.899,96.801,103.224,94.812,99.617,95.777z"/>
		<path fill="#8EDA3D" d="M84.975,139.494c2.036,4.716,7.339,14.855,14.603,12.91c4.563-1.223,6.348-5.371,6.959-7.424
			L84.975,139.494z"/>
	</g>
</g>
<g>
	<linearGradient id="SVGID_2_" gradientUnits="userSpaceOnUse" x1="17.5693" y1="261.1943" x2="40.774" y2="284.399">
		<stop  offset="0" style="stop-color:#8EDA3D"/>
		<stop  offset="0.1982" style="stop-color:#9DDB3E;stop-opacity:0.8018"/>
		<stop  offset="1" style="stop-color:#D7DD43;stop-opacity:0"/>
	</linearGradient>
	<path fill="url(#SVGID_2_)" d="M38.066,279.807l-0.332,7.298c-0.051,0.36-0.335,0.784-0.66,0.872l-4.729,1.266
		c-0.371,0.102-0.816-0.078-0.79-0.532l0.438-7.274l-6.539,1.751l-0.377,7.311c-0.053,0.359-0.291,0.771-0.661,0.871l-4.729,1.267
		c-0.558,0.15-0.855-0.218-0.806-0.778l0.499-7.043l-2.921,0.783c-0.338,0.042-0.646-0.173-0.731-0.499l-1.144-4.268
		c-0.087-0.323,0.059-0.71,0.384-0.797l4.729-1.266l0.407-7.018l-6.865,1.838c-0.336,0.04-0.644-0.176-0.729-0.501l-1.144-4.265
		c-0.087-0.326,0.058-0.713,0.383-0.8l8.718-2.335l0.412-7.366c0.04-0.409,0.149-0.736,0.522-0.837l4.543-1.217
		c0.37-0.099,0.817,0.079,0.824,0.476l-0.367,7.353l6.679-1.789l0.458-7.378c0.04-0.408,0.15-0.736,0.521-0.835l4.546-1.219
		c0.418-0.111,0.828,0.127,0.779,0.687l-0.369,7.155l2.366-0.633c0.324-0.088,0.736,0.15,0.822,0.477l1.144,4.264
		c0.1,0.372-0.149,0.738-0.475,0.826l-4.127,1.104l-0.359,7.006l6.214-1.665c0.324-0.088,0.722,0.104,0.821,0.474l1.144,4.268
		c0.1,0.371-0.15,0.734-0.474,0.822L38.066,279.807z M32.762,268.357l-6.678,1.789l-0.358,7.006l6.63-1.777L32.762,268.357z"/>
	<linearGradient id="SVGID_3_" gradientUnits="userSpaceOnUse" x1="46.1904" y1="252.1455" x2="71.4805" y2="277.4356">
		<stop  offset="0" style="stop-color:#8EDA3D"/>
		<stop  offset="0.1982" style="stop-color:#9DDB3E;stop-opacity:0.8018"/>
		<stop  offset="1" style="stop-color:#D7DD43;stop-opacity:0"/>
	</linearGradient>
	<path fill="url(#SVGID_3_)" d="M70.25,278.589c-0.271,0.472-0.711,0.688-1.081,0.788l-11.964,3.205
		c-0.695,0.187-0.872,0.084-1.341-0.186l-3.341-1.89c-0.528-0.306-0.663-0.619-0.75-0.942l-1.267-4.731
		c-0.087-0.323,0.105-0.722,0.476-0.82l4.268-1.144c0.367-0.099,0.733,0.149,0.821,0.473l0.895,3.342l8.301-2.226
		c0.093-0.024,0.128-0.084,0.194-0.201l0.59-0.952c0.115-0.131,0.077-0.27,0.052-0.363l-1.454-5.426
		c-0.024-0.094-0.107-0.219-0.226-0.285l-0.941-0.544c-0.115-0.068-0.222-0.09-0.36-0.052l-9.646,2.584
		c-0.186,0.05-0.676,0.082-1.203-0.226l-3.341-1.888c-0.468-0.271-0.675-0.665-0.774-1.036l-2.794-10.433
		c-0.087-0.323-0.117-0.813,0.186-1.342l1.903-3.293c0.202-0.352,0.337-0.589,1.08-0.787l11.964-3.206
		c0.371-0.099,0.917-0.096,1.33,0.141l3.291,1.901c0.66,0.42,0.735,0.699,0.835,1.069l1.304,4.869
		c0.1,0.371-0.104,0.725-0.475,0.823l-4.266,1.143c-0.372,0.1-0.725-0.104-0.823-0.475l-0.957-3.57l-8.161,2.186
		c-0.141,0.037-0.22,0.109-0.335,0.238l-0.589,0.953c-0.114,0.13-0.077,0.269-0.053,0.362l1.441,5.378
		c0.025,0.094,0.109,0.221,0.228,0.289l0.998,0.576c0.117,0.068,0.27,0.078,0.409,0.04l9.413-2.522
		c0.51-0.136,0.977-0.062,1.329,0.141l3.292,1.901c0.484,0.318,0.724,0.651,0.835,1.069l2.783,10.386
		c0.111,0.42,0.05,0.932-0.188,1.344L70.25,278.589z"/>
	<linearGradient id="SVGID_4_" gradientUnits="userSpaceOnUse" x1="72.3057" y1="241.6533" x2="101.297" y2="270.6447">
		<stop  offset="0" style="stop-color:#8EDA3D"/>
		<stop  offset="0.1982" style="stop-color:#9DDB3E;stop-opacity:0.8018"/>
		<stop  offset="1" style="stop-color:#D7DD43;stop-opacity:0"/>
	</linearGradient>
	<path fill="url(#SVGID_4_)" d="M96.438,272.069c-0.37,0.099-0.605-0.036-0.868-0.462l-8.814-13.046l-1.11,15.704
		c-0.014,0.501-0.149,0.736-0.475,0.823l-4.592,1.229c-0.276,0.074-0.642-0.176-0.775-0.486l-10.782-30.41
		c-0.1-0.373,0.103-0.725,0.476-0.824l4.265-1.143c0.37-0.1,0.725,0.103,0.824,0.476l6.542,19.22l1.124-10.639
		c0.04-0.41,0.29-0.773,0.661-0.872l3.709-0.994c0.372-0.099,0.817,0.077,1.056,0.412l6.295,8.651l-3.946-19.916
		c-0.1-0.372,0.104-0.725,0.478-0.823l4.265-1.145c0.323-0.087,0.725,0.104,0.824,0.477l5.819,31.739
		c0.074,0.279-0.057,0.711-0.429,0.811L96.438,272.069z"/>
	<linearGradient id="SVGID_5_" gradientUnits="userSpaceOnUse" x1="99.7754" y1="236.8301" x2="126.5916" y2="263.6463">
		<stop  offset="0" style="stop-color:#8EDA3D"/>
		<stop  offset="0.1982" style="stop-color:#9DDB3E;stop-opacity:0.8018"/>
		<stop  offset="1" style="stop-color:#D7DD43;stop-opacity:0"/>
	</linearGradient>
	<path fill="url(#SVGID_5_)" d="M109.104,268.676c-0.371,0.1-0.726-0.104-0.824-0.475l-8.325-31.069
		c-0.1-0.371,0.105-0.724,0.477-0.823l16.833-4.511c0.37-0.099,0.724,0.104,0.823,0.476l1.143,4.268
		c0.087,0.323-0.104,0.722-0.475,0.822l-11.917,3.193l2.1,7.836l9.413-2.521c0.324-0.088,0.723,0.104,0.822,0.477l1.144,4.265
		c0.1,0.37-0.15,0.736-0.475,0.824l-9.413,2.521l2.099,7.838l11.918-3.193c0.37-0.101,0.724,0.103,0.822,0.474l1.145,4.267
		c0.099,0.37-0.105,0.723-0.477,0.823L109.104,268.676z"/>
	<linearGradient id="SVGID_6_" gradientUnits="userSpaceOnUse" x1="122.082" y1="230.8516" x2="148.8982" y2="257.6678">
		<stop  offset="0" style="stop-color:#8EDA3D"/>
		<stop  offset="0.1982" style="stop-color:#9DDB3E;stop-opacity:0.8018"/>
		<stop  offset="1" style="stop-color:#D7DD43;stop-opacity:0"/>
	</linearGradient>
	<path fill="url(#SVGID_6_)" d="M131.411,262.698c-0.371,0.1-0.726-0.104-0.824-0.474l-8.325-31.069
		c-0.1-0.372,0.105-0.725,0.477-0.824l16.833-4.509c0.37-0.102,0.724,0.103,0.823,0.475l1.143,4.267
		c0.087,0.323-0.104,0.724-0.475,0.821l-11.917,3.193l2.1,7.838l9.412-2.522c0.325-0.087,0.725,0.105,0.824,0.476l1.143,4.265
		c0.1,0.373-0.15,0.738-0.476,0.825l-9.412,2.522l2.1,7.836l11.917-3.193c0.37-0.099,0.724,0.104,0.822,0.475l1.145,4.267
		c0.099,0.371-0.105,0.724-0.476,0.822L131.411,262.698z"/>
	<linearGradient id="SVGID_7_" gradientUnits="userSpaceOnUse" x1="145.625" y1="222.4883" x2="170.4863" y2="247.3496">
		<stop  offset="0" style="stop-color:#8EDA3D"/>
		<stop  offset="0.1982" style="stop-color:#9DDB3E;stop-opacity:0.8018"/>
		<stop  offset="1" style="stop-color:#D7DD43;stop-opacity:0"/>
	</linearGradient>
	<path fill="url(#SVGID_7_)" d="M159.191,255.255c-0.278,0.074-0.619-0.083-0.706-0.406l-7.032-26.246l-6.492,1.739
		c-0.37,0.099-0.724-0.105-0.823-0.476l-1.144-4.268c-0.1-0.37,0.105-0.723,0.477-0.822l18.594-4.982
		c0.323-0.087,0.725,0.104,0.824,0.476l1.143,4.268c0.1,0.368-0.152,0.733-0.476,0.82l-6.539,1.754l7.033,26.246
		c0.087,0.324-0.083,0.617-0.36,0.692L159.191,255.255z"/>
	<linearGradient id="SVGID_8_" gradientUnits="userSpaceOnUse" x1="166.502" y1="219.0254" x2="192.6787" y2="245.2021">
		<stop  offset="0" style="stop-color:#8EDA3D"/>
		<stop  offset="0.1982" style="stop-color:#9DDB3E;stop-opacity:0.8018"/>
		<stop  offset="1" style="stop-color:#D7DD43;stop-opacity:0"/>
	</linearGradient>
	<path fill="url(#SVGID_8_)" d="M191.762,246.029c-0.307,0.532-0.665,0.677-1.313,0.851l-14.514,3.889
		c-0.372,0.1-0.726-0.104-0.825-0.475l-8.324-31.069c-0.1-0.371,0.104-0.724,0.477-0.823l14.745-3.95
		c0.373-0.101,0.743-0.199,1.331,0.139l3.292,1.903c0.706,0.406,0.734,0.696,0.832,1.066l6.388,23.837
		c0.125,0.464-0.042,0.954-0.199,1.296L191.762,246.029z M187.577,240.988c0.114-0.129,0.077-0.268,0.052-0.361l-5.106-19.059
		c-0.024-0.094-0.049-0.185-0.227-0.288l-0.939-0.541c-0.178-0.104-0.269-0.078-0.362-0.053l-7.327,1.963l5.691,21.239l7.744-2.075
		L187.577,240.988z"/>
	<linearGradient id="SVGID_9_" gradientUnits="userSpaceOnUse" x1="191.5576" y1="212.2354" x2="218.3745" y2="239.0522">
		<stop  offset="0" style="stop-color:#8EDA3D"/>
		<stop  offset="0.1982" style="stop-color:#9DDB3E;stop-opacity:0.8018"/>
		<stop  offset="1" style="stop-color:#D7DD43;stop-opacity:0"/>
	</linearGradient>
	<path fill="url(#SVGID_9_)" d="M200.887,244.083c-0.371,0.099-0.726-0.104-0.825-0.475l-8.324-31.069
		c-0.1-0.371,0.104-0.724,0.478-0.824l16.831-4.511c0.37-0.099,0.725,0.105,0.824,0.476l1.143,4.268
		c0.087,0.323-0.105,0.725-0.476,0.822l-11.917,3.193l2.101,7.837l9.413-2.521c0.324-0.088,0.725,0.103,0.822,0.476l1.144,4.265
		c0.1,0.37-0.15,0.737-0.475,0.825l-9.413,2.521l2.099,7.837l11.917-3.193c0.371-0.099,0.724,0.103,0.824,0.474l1.142,4.267
		c0.101,0.371-0.104,0.725-0.475,0.823L200.887,244.083z"/>
	<linearGradient id="SVGID_10_" gradientUnits="userSpaceOnUse" x1="214.4434" y1="210.8613" x2="240.4689" y2="236.8869">
		<stop  offset="0" style="stop-color:#8EDA3D"/>
		<stop  offset="0.1982" style="stop-color:#9DDB3E;stop-opacity:0.8018"/>
		<stop  offset="1" style="stop-color:#D7DD43;stop-opacity:0"/>
	</linearGradient>
	<path fill="url(#SVGID_10_)" d="M240.907,233.359c-0.37,0.099-0.874-0.115-1.066-0.46l-3.475-5.729l-10.34,2.771l-0.144,6.698
		c-0.04,0.407-0.325,0.832-0.694,0.931l-4.035,1.08c-0.371,0.102-0.874-0.112-0.881-0.508l0.868-33.482
		c0.018-0.304,0.092-0.769,0.463-0.869l5.472-1.466c0.371-0.099,0.62,0.082,0.868,0.462l17.462,28.621
		c0.192,0.345-0.093,0.77-0.463,0.87L240.907,233.359z M226.49,211.08l-0.311,12.758l7.003-1.876L226.49,211.08z"/>
	<linearGradient id="SVGID_11_" gradientUnits="userSpaceOnUse" x1="238.2891" y1="197.6582" x2="263.1504" y2="222.5195">
		<stop  offset="0" style="stop-color:#8EDA3D"/>
		<stop  offset="0.1982" style="stop-color:#9DDB3E;stop-opacity:0.8018"/>
		<stop  offset="1" style="stop-color:#D7DD43;stop-opacity:0"/>
	</linearGradient>
	<path fill="url(#SVGID_11_)" d="M251.855,230.425c-0.277,0.074-0.617-0.083-0.704-0.406l-7.032-26.247l-6.494,1.74
		c-0.37,0.099-0.722-0.105-0.822-0.474l-1.143-4.268c-0.1-0.372,0.104-0.724,0.474-0.823l18.597-4.983
		c0.323-0.087,0.723,0.105,0.822,0.476l1.144,4.268c0.1,0.37-0.151,0.735-0.475,0.822l-6.539,1.752l7.032,26.246
		c0.087,0.323-0.083,0.619-0.359,0.691L251.855,230.425z"/>
	<linearGradient id="SVGID_12_" gradientUnits="userSpaceOnUse" x1="260.0498" y1="193.3135" x2="287.7664" y2="221.0301">
		<stop  offset="0" style="stop-color:#8EDA3D"/>
		<stop  offset="0.1982" style="stop-color:#9DDB3E;stop-opacity:0.8018"/>
		<stop  offset="1" style="stop-color:#D7DD43;stop-opacity:0"/>
	</linearGradient>
	<path fill="url(#SVGID_12_)" d="M283.624,221.913c-0.372,0.099-0.725-0.104-0.823-0.475l-3.417-12.751l-9.46,2.535l3.417,12.752
		c0.099,0.37-0.104,0.722-0.476,0.82l-4.266,1.145c-0.372,0.098-0.725-0.104-0.824-0.474l-8.324-31.069
		c-0.1-0.373,0.104-0.725,0.475-0.825l4.267-1.142c0.371-0.1,0.724,0.103,0.823,0.476l3.417,12.752l9.46-2.536l-3.417-12.752
		c-0.1-0.371,0.104-0.723,0.476-0.823l4.265-1.143c0.373-0.101,0.725,0.104,0.824,0.476l8.324,31.068
		c0.1,0.371-0.103,0.724-0.475,0.822L283.624,221.913z"/>
</g>
</svg>
