<?xml version="1.0" encoding="utf-8"?>
<!-- Generator: Adobe Illustrator 21.0.2, SVG Export Plug-In . SVG Version: 6.00 Build 0)  -->
<svg version="1.0" id="Layer_1" xmlns="http://www.w3.org/2000/svg" xmlns:xlink="http://www.w3.org/1999/xlink" x="0px" y="0px"
	 viewBox="0 0 145.9 246.5" style="enable-background:new 0 0 145.9 246.5;" xml:space="preserve">
<style type="text/css">
	.st0{clip-path:url(#SVGID_2_);}
	.st1{enable-background:new    ;}
	.st2{fill:#5D1C1C;}
	.st3{fill:#990000;}
	.st4{fill:#CC3333;}
	.st5{fill:#A45F59;}
	.st6{fill:#660000;}
	.st7{fill:#84372E;}
</style>
<g id="Layer_27">
	<g>
		<g>
			<defs>
				<rect id="SVGID_1_" width="145.9" height="246.5"/>
			</defs>
			<clipPath id="SVGID_2_">
				<use xlink:href="#SVGID_1_"  style="overflow:visible;"/>
			</clipPath>
			<g class="st0">
				<g>
					<g class="st1">
						<g>
							<polygon class="st2" points="228.1,109.2 240.7,131.3 151.2,131.3 138.6,109.2 							"/>
						</g>
						<g>
							<polygon class="st3" points="138.6,109.2 151.2,131.3 106.9,208.5 94.2,186.4 							"/>
						</g>
						<g>
							<path class="st4" d="M126.1,87.8H265l-68.8,119.9H57.3L126.1,87.8z M183.7,186.4l44.3-77.3h-89.5l-44.3,77.3H183.7"/>
						</g>
						<g>
							<polygon class="st5" points="265,87.8 277.7,109.9 208.9,229.8 196.2,207.8 							"/>
						</g>
						<g>
							<polygon class="st6" points="196.2,207.8 208.9,229.8 70,229.8 57.3,207.8 							"/>
						</g>
					</g>
				</g>
				<g>
					<g class="st1">
						<g>
							<polygon class="st2" points="187.8,68.9 198,86.7 125.6,86.7 115.3,68.9 							"/>
						</g>
						<g>
							<polygon class="st3" points="115.3,68.9 125.6,86.7 89.7,149.3 79.5,131.4 							"/>
						</g>
						<g>
							<path class="st4" d="M105.2,51.6h112.4l-55.7,97H49.5L105.2,51.6z M151.9,131.4l35.9-62.5h-72.4l-35.9,62.5H151.9"/>
						</g>
						<g>
							<polygon class="st5" points="217.6,51.6 227.9,69.5 172.2,166.5 162,148.6 							"/>
						</g>
						<g>
							<polygon class="st6" points="162,148.6 172.2,166.5 59.8,166.5 49.6,148.6 							"/>
						</g>
					</g>
				</g>
				<g>
					<g class="st1">
						<g>
							<polygon class="st2" points="141.5,28.4 148.5,40.6 99,40.6 92,28.4 							"/>
						</g>
						<g>
							<polygon class="st7" points="92,28.4 99,40.6 74.5,83.3 67.5,71.1 							"/>
						</g>
						<g>
							<path class="st4" d="M85.1,16.6h76.8l-38,66.3H47.1L85.1,16.6z M117,71.1l24.5-42.7H92L67.5,71.1H117"/>
						</g>
						<g>
							<polygon class="st3" points="162,16.6 169,28.8 130.9,95.1 123.9,82.9 							"/>
						</g>
						<g>
							<polygon class="st6" points="123.9,82.9 130.9,95.1 54.1,95.1 47.1,82.9 							"/>
						</g>
					</g>
				</g>
			</g>
		</g>
	</g>
</g>
<g id="Layer_2">
</g>
</svg>
