<?xml version="1.0" encoding="utf-8"?>
<!-- Generator: Adobe Illustrator 21.0.2, SVG Export Plug-In . SVG Version: 6.00 Build 0)  -->
<svg version="1.0" id="Isolation_Mode" xmlns="http://www.w3.org/2000/svg" xmlns:xlink="http://www.w3.org/1999/xlink" x="0px"
	 y="0px" viewBox="0 0 151 138.3" style="enable-background:new 0 0 151 138.3;" xml:space="preserve">
<style type="text/css">
	.st0{enable-background:new    ;}
	.st1{fill:#8C8E8F;}
	.st2{fill:#852B2B;}
	.st3{fill:#7B2626;}
	.st4{fill:#282928;}
	.st5{fill:#818384;}
	.st6{fill:#7C2726;}
	.st7{fill:#9B9D9E;}
	.st8{fill:#8F9193;}
	.st9{fill:#FFFFFF;}
	.st10{fill:#822A29;}
	.st11{fill:#D9312F;}
	.st12{fill:#7C7E7F;}
	.st13{fill:#999A9C;}
	.st14{fill:#8E8F91;}
	.st15{fill:#812A29;}
	.st16{fill:#87898A;}
	.st17{fill:#812929;}
	.st18{fill:#792525;}
	.st19{fill:#898B8C;}
	.st20{fill:#7D7F80;}
	.st21{fill:#812928;}
	.st22{fill:#969799;}
	.st23{fill:#7D2827;}
	.st24{fill:#151515;}
	.st25{fill:#939597;}
	.st26{fill:#949698;}
	.st27{fill:#848687;}
	.st28{fill:#C72C2C;}
	.st29{fill:#ECEDEC;}
	.st30{fill:#1B1C1B;}
	.st31{fill:#80848B;}
	.st32{fill:#4F5554;}
</style>
<g>
	<g class="st0">
		<g>
			<polygon class="st1" points="133.5,64.2 81.1,91.1 78.6,60.3 129.6,28.1 			"/>
		</g>
		<g>
			<polygon class="st2" points="130,41.8 78.6,72 77.7,61.3 128.6,29.3 			"/>
		</g>
		<g>
			<polygon class="st3" points="130,41.8 78.6,72 77.6,72 128.8,41.7 			"/>
		</g>
		<g>
			<polygon class="st4" points="138.9,11.3 87.4,45.5 64.1,59.3 113.1,26.5 			"/>
		</g>
		<g>
			<polygon class="st5" points="129.6,28.1 78.6,60.3 64.1,59.3 113.1,26.5 			"/>
		</g>
		<g>
			<polygon class="st4" points="113.1,26.5 64.1,59.3 62.4,60.3 111.3,27.6 			"/>
		</g>
		<g>
			<polygon class="st6" points="128.6,29.3 77.7,61.3 62.4,60.3 111.3,27.6 			"/>
		</g>
		<g>
			<polygon class="st2" points="131,61.4 78.9,88.8 77.6,72 128.8,41.7 			"/>
		</g>
		<g>
			<polygon class="st3" points="128.8,41.7 77.6,72 52.5,70.7 100.4,39.3 			"/>
		</g>
		<g>
			<polygon class="st7" points="118.4,50.2 68.1,79.5 67.8,75 117.9,44.9 			"/>
		</g>
		<g>
			<polygon class="st8" points="117.9,44.9 67.8,75 63.6,74.8 113.1,44.5 			"/>
		</g>
		<g>
			<polygon class="st4" points="113.6,49.8 63.9,79.3 63.6,74.8 113.1,44.5 			"/>
		</g>
		<g>
			<polygon class="st4" points="118.4,50.2 68.1,79.5 63.9,79.3 113.6,49.8 			"/>
		</g>
		<g>
			<path class="st9" d="M100.4,39.3l28.4,2.4l2.1,19.7l-28.6-1.9L100.4,39.3z M118.4,50.2l-0.5-5.3l-4.8-0.4l0.5,5.3L118.4,50.2"/>
		</g>
		<g>
			<polygon class="st4" points="117.9,44.9 118.4,50.2 113.6,49.8 113.1,44.5 			"/>
		</g>
		<g>
			<polygon class="st1" points="134.9,94.7 81.6,117.1 81.3,113.5 134.5,90.4 			"/>
		</g>
		<g>
			<polygon class="st4" points="111.3,27.6 62.4,60.3 51.2,67 98.8,35 			"/>
		</g>
		<g>
			<polygon class="st4" points="98.8,35 51.2,67 50.2,67.6 97.7,35.6 			"/>
		</g>
		<g>
			<polygon class="st10" points="99.2,39.2 51.5,70.6 51.2,67 98.8,35 			"/>
		</g>
		<g>
			<polygon class="st3" points="100.4,39.3 52.5,70.7 51.5,70.6 99.2,39.2 			"/>
		</g>
		<g>
			<polygon class="st11" points="128.6,29.3 130,41.8 128.8,41.7 100.4,39.3 99.2,39.2 98.8,35 111.3,27.6 			"/>
		</g>
		<g>
			<polygon class="st4" points="97.7,35.6 50.2,67.6 47.2,69.4 94.3,37.7 			"/>
		</g>
		<g>
			<polygon class="st12" points="134.5,90.4 81.3,113.5 71.9,113.3 123.8,90 			"/>
		</g>
		<g>
			<polygon class="st4" points="94.3,37.7 47.2,69.4 44.2,67.4 90.8,35.3 			"/>
		</g>
		<g>
			<polygon class="st4" points="90.8,35.3 44.2,67.4 43,66.7 89.5,34.4 			"/>
		</g>
		<g>
			<polygon class="st13" points="102.3,59.6 53.7,87.9 52.5,70.7 100.4,39.3 			"/>
		</g>
		<g>
			<polygon class="st14" points="131,61.4 78.9,88.8 53.7,87.9 102.3,59.6 			"/>
		</g>
		<g>
			<polygon class="st15" points="100.2,62.1 51.8,90.1 50.2,67.6 97.7,35.6 			"/>
		</g>
		<g>
			<polygon class="st16" points="93.1,61.6 45.6,89.9 44.2,67.4 90.8,35.3 			"/>
		</g>
		<g>
			<polygon class="st17" points="89.9,38.4 43.3,70.2 43,66.7 89.5,34.4 			"/>
		</g>
		<g>
			<polygon class="st4" points="134.9,94.7 81.6,117.1 70.5,117 122.4,94.2 			"/>
		</g>
		<g>
			<polygon class="st4" points="122.4,94.2 70.5,117 71.9,113.3 123.8,90 			"/>
		</g>
		<g>
			<polygon class="st3" points="89.9,38.4 43.3,70.2 42.2,70.1 88.6,38.3 			"/>
		</g>
		<g>
			<polygon class="st18" points="133.5,64.2 81.1,91.1 51.8,90.1 100.2,62.1 			"/>
		</g>
		<g>
			<polygon class="st19" points="109.8,79 59.8,104.3 59.3,97.2 108.9,70.7 			"/>
		</g>
		<g>
			<polygon class="st12" points="123.8,90 71.9,113.3 63.7,113.2 114.5,89.6 			"/>
		</g>
		<g>
			<polygon class="st13" points="116.8,94.1 65.6,116.9 63.7,113.2 114.5,89.6 			"/>
		</g>
		<g>
			<polygon class="st19" points="120.3,100.7 68.5,122.5 70.5,117 122.4,94.2 			"/>
		</g>
		<g>
			<polygon class="st13" points="120.3,100.7 68.5,122.5 65.6,116.9 116.8,94.1 			"/>
		</g>
		<g>
			<polygon class="st9" points="123.8,90 122.4,94.2 120.3,100.7 116.8,94.1 114.5,89.6 			"/>
		</g>
		<g>
			<polygon class="st4" points="89.5,34.4 43,66.7 30.1,58.3 74.5,24.1 			"/>
		</g>
		<g>
			<polygon class="st20" points="108.9,70.7 59.3,97.2 52.7,97 101.4,70.3 			"/>
		</g>
		<g>
			<polygon class="st4" points="74.5,24.1 30.1,58.3 28.2,57.1 72.3,22.6 			"/>
		</g>
		<g>
			<polygon class="st21" points="90.4,58.8 43.3,87.5 42.2,70.1 88.6,38.3 			"/>
		</g>
		<g>
			<polygon class="st4" points="108.9,70.7 109.8,79 102.2,78.7 101.4,70.3 			"/>
		</g>
		<g>
			<polygon class="st4" points="102.2,78.7 53.2,104.2 52.7,97 101.4,70.3 			"/>
		</g>
		<g>
			<polygon class="st4" points="109.8,79 59.8,104.3 53.2,104.2 102.2,78.7 			"/>
		</g>
		<g>
			<polygon class="st4" points="72.3,22.6 28.2,57.1 0,38.8 39.3,0 			"/>
		</g>
		<g>
			<polygon class="st5" points="72.3,22.6 28.2,57.1 12.6,56.1 54.3,20.8 			"/>
		</g>
		<g>
			<polygon class="st6" points="74.5,24.1 30.1,58.3 13.8,57.3 55.7,22.3 			"/>
		</g>
		<g>
			<polygon class="st3" points="88.6,38.3 42.2,70.1 15.5,68.7 58,35.8 			"/>
		</g>
		<g>
			<polygon class="st22" points="77.2,47.1 32,77.9 31.7,73.2 76.7,41.6 			"/>
		</g>
		<g>
			<polygon class="st16" points="95.2,78.3 47.1,104 46.6,96.9 94.5,69.9 			"/>
		</g>
		<g>
			<polygon class="st8" points="76.7,41.6 31.7,73.2 27.2,73 71.5,41.2 			"/>
		</g>
		<g>
			<polygon class="st20" points="94.5,69.9 46.6,96.9 39.9,96.7 86.7,69.5 			"/>
		</g>
		<g>
			<polygon class="st4" points="77.2,47.1 32,77.9 27.4,77.7 72,46.7 			"/>
		</g>
		<g>
			<polygon class="st4" points="72,46.7 27.4,77.7 27.2,73 71.5,41.2 			"/>
		</g>
		<g>
			<polygon class="st4" points="94.5,69.9 95.2,78.3 87.5,78 86.7,69.5 			"/>
		</g>
		<g>
			<polygon class="st4" points="95.2,78.3 47.1,104 40.3,103.9 87.5,78 			"/>
		</g>
		<g>
			<polygon class="st4" points="87.5,78 40.3,103.9 39.9,96.7 86.7,69.5 			"/>
		</g>
		<g>
			<polygon class="st3" points="58,35.8 15.5,68.7 14.4,68.7 56.7,35.7 			"/>
		</g>
		<g>
			<polygon class="st23" points="56.7,35.7 14.4,68.7 13.8,57.3 55.7,22.3 			"/>
		</g>
		<g>
			<polygon class="st12" points="114.5,89.6 63.7,113.2 38.3,112.9 85.5,88.6 			"/>
		</g>
		<g>
			<polygon class="st4" points="83.9,93 36.8,116.6 38.3,112.9 85.5,88.6 			"/>
		</g>
		<g>
			<polygon class="st4" points="116.8,94.1 65.6,116.9 36.8,116.6 83.9,93 			"/>
		</g>
		<g>
			<polygon class="st24" points="85.5,88.6 114.5,89.6 116.8,94.1 83.9,93 			"/>
		</g>
		<g>
			<polygon class="st25" points="59.5,56.8 16.4,86.5 15.5,68.7 58,35.8 			"/>
		</g>
		<g>
			<polygon class="st14" points="90.4,58.8 43.3,87.5 16.4,86.5 59.5,56.8 			"/>
		</g>
		<g>
			<polygon class="st12" points="85.5,88.6 38.3,112.9 29.7,112.7 75.6,88.2 			"/>
		</g>
		<g>
			<polygon class="st26" points="77.9,92.8 31.7,116.6 29.7,112.7 75.6,88.2 			"/>
		</g>
		<g>
			<polygon class="st27" points="81.5,99.6 34.6,122.3 36.8,116.6 83.9,93 			"/>
		</g>
		<g>
			<polygon class="st9" points="85.5,88.6 83.9,93 81.5,99.6 77.9,92.8 75.6,88.2 			"/>
		</g>
		<g>
			<polygon class="st26" points="81.5,99.6 34.6,122.3 31.7,116.6 77.9,92.8 			"/>
		</g>
		<g>
			<polygon class="st28" points="72.3,22.6 74.5,24.1 55.7,22.3 56.7,35.7 58,35.8 59.5,56.8 90.4,58.8 88.6,38.3 89.9,38.4 
				89.5,34.4 90.8,35.3 93.1,61.6 57.1,59.4 54.3,20.8 			"/>
		</g>
		<g>
			<polygon class="st23" points="57.1,59.4 14.3,88.8 12.6,56.1 54.3,20.8 			"/>
		</g>
		<g>
			<polygon class="st18" points="93.1,61.6 45.6,89.9 14.3,88.8 57.1,59.4 			"/>
		</g>
		<g>
			<polygon class="st12" points="75.6,88.2 29.7,112.7 19.3,112.6 63.5,87.7 			"/>
		</g>
		<g>
			<polygon class="st4" points="77.9,92.8 31.7,116.6 19.5,116.4 63.9,92.3 			"/>
		</g>
		<g>
			<polygon class="st4" points="63.9,92.3 19.5,116.4 19.3,112.6 63.5,87.7 			"/>
		</g>
		<g>
			<path class="st29" d="M113.1,26.5l25.8-15.2L151,117.6l-104.2-1.2L39.3,0l33,22.6l-18-1.7l2.8,38.5l36.1,2.3l-2.4-26.4l3.5,2.4
				l3.4-2l2.4,26.4l33.4,2.1l-3.9-36L113.1,26.5z M134.9,94.7l-0.5-4.3L123.8,90l-9.2-0.3l-29-1.1l-9.9-0.4l-12-0.4l0.3,4.6l14,0.5
				l3.5,6.9l2.4-6.7l32.9,1.1l3.4,6.6l2.1-6.4L134.9,94.7 M101.4,70.3l0.8,8.4l7.5,0.4l-0.8-8.3L101.4,70.3 M86.7,69.5l0.7,8.5
				l7.8,0.4l-0.8-8.4L86.7,69.5"/>
		</g>
		<g>
			<polygon class="st4" points="123.8,90 134.5,90.4 134.9,94.7 122.4,94.2 			"/>
		</g>
		<g>
			<polygon class="st28" points="129.6,28.1 133.5,64.2 100.2,62.1 97.7,35.6 98.8,35 99.2,39.2 100.4,39.3 102.3,59.6 131,61.4 
				128.8,41.7 130,41.8 128.6,29.3 111.3,27.6 113.1,26.5 			"/>
		</g>
		<g>
			<polygon class="st4" points="76.7,41.6 77.2,47.1 72,46.7 71.5,41.2 			"/>
		</g>
		<g>
			<polygon class="st30" points="138.9,11.3 113.1,26.5 111.3,27.6 98.8,35 97.7,35.6 94.3,37.7 90.8,35.3 89.5,34.4 74.5,24.1 
				72.3,22.6 39.3,0 			"/>
		</g>
		<g>
			<polygon class="st11" points="74.5,24.1 89.5,34.4 89.9,38.4 88.6,38.3 58,35.8 56.7,35.7 55.7,22.3 			"/>
		</g>
		<g>
			<path class="st9" d="M58,35.8l30.7,2.6l1.8,20.4l-30.9-2L58,35.8z M77.2,47.1l-0.5-5.5l-5.2-0.4l0.4,5.5L77.2,47.1"/>
		</g>
		<g>
			<polygon class="st4" points="63.5,87.7 75.6,88.2 77.9,92.8 63.9,92.3 			"/>
		</g>
		<g>
			<polygon class="st31" points="46.9,116.4 4.4,137 0,38.8 39.3,0 			"/>
		</g>
		<g>
			<polygon class="st32" points="151,117.6 95.3,136.4 4.4,137 46.9,116.4 			"/>
		</g>
	</g>
</g>
</svg>
