<?xml version="1.0" encoding="utf-8"?>
<!-- Generator: Adobe Illustrator 21.0.2, SVG Export Plug-In . SVG Version: 6.00 Build 0)  -->
<svg version="1.0" id="Isolation_Mode" xmlns="http://www.w3.org/2000/svg" xmlns:xlink="http://www.w3.org/1999/xlink" x="0px"
	 y="0px" viewBox="0 0 132.9 133.7" style="enable-background:new 0 0 132.9 133.7;" xml:space="preserve">
<style type="text/css">
	.st0{enable-background:new    ;}
	.st1{fill:#9C3535;}
	.st2{fill:#9D3636;}
	.st3{fill:#8E2F2F;}
	.st4{fill:#732424;}
	.st5{fill:#6F2222;}
	.st6{fill:#731A1A;}
	.st7{fill:#832A2A;}
	.st8{fill:#CECECF;}
	.st9{fill:#FBFDFE;}
	.st10{fill:#BABBBC;}
	.st11{fill:#AFB0B1;}
	.st12{fill:#424242;}
	.st13{fill:#9E9FA1;}
	.st14{fill:#983434;}
	.st15{fill:#2E2E2E;}
	.st16{fill:#434343;}
	.st17{fill:#8B2E2D;}
	.st18{fill:#762526;}
	.st19{fill:#722323;}
	.st20{fill:#882D2C;}
	.st21{fill:#B6B7B8;}
	.st22{fill:#963333;}
	.st23{fill:#963332;}
	.st24{fill:#6E2121;}
	.st25{fill:#7F2827;}
	.st26{fill:#C6C6C7;}
	.st27{fill:#782423;}
	.st28{fill:#B1B2B3;}
	.st29{fill:#642020;}
	.st30{fill:#742425;}
	.st31{fill:#ABADAE;}
	.st32{fill:#D45251;}
	.st33{fill:#631617;}
	.st34{fill:#8E2927;}
</style>
<g>
	<g class="st0">
		<g>
			<polygon class="st1" points="20.3,92.2 65.5,80.7 65.2,83.2 19.9,95.5 			"/>
		</g>
		<g>
			<polygon class="st2" points="19.4,43.4 65,44.2 63.1,60.9 17.1,65.7 			"/>
		</g>
		<g>
			<polygon class="st3" points="19.9,95.5 65.2,83.2 108.2,91.1 75.3,107.2 			"/>
		</g>
		<g>
			<polygon class="st4" points="20.3,92.2 65.5,80.7 71.1,81.8 27.4,93.7 			"/>
		</g>
		<g>
			<polygon class="st5" points="27.4,93.7 71.1,81.8 69.7,83.9 25.7,96.5 			"/>
		</g>
		<g>
			<polygon class="st6" points="19.3,4.5 65.2,15.3 64.3,23.1 18.2,15 			"/>
		</g>
		<g>
			<polygon class="st7" points="30.9,87.8 73.9,77.3 71.1,81.8 27.4,93.7 			"/>
		</g>
		<g>
			<polygon class="st4" points="25.7,96.5 69.7,83.9 76.3,85.1 34,98.3 			"/>
		</g>
		<g>
			<polygon class="st8" points="30.9,87.8 73.9,77.3 75.5,82.5 33,94.9 			"/>
		</g>
		<g>
			<polygon class="st9" points="30.9,87.8 33,94.9 34,98.3 25.7,96.5 27.4,93.7 			"/>
		</g>
		<g>
			<polygon class="st8" points="33,94.9 75.5,82.5 76.3,85.1 34,98.3 			"/>
		</g>
		<g>
			<polygon class="st10" points="29.4,48.1 72.9,47.8 72.3,53 28.7,55.2 			"/>
		</g>
		<g>
			<polygon class="st11" points="19.4,43.4 65,44.2 72.9,47.8 29.4,48.1 			"/>
		</g>
		<g>
			<polygon class="st12" points="29.4,48.1 72.9,47.8 77.9,50 35.8,51.2 			"/>
		</g>
		<g>
			<polygon class="st13" points="28.7,55.2 72.3,53 78.7,54 36.8,56.5 			"/>
		</g>
		<g>
			<polygon class="st14" points="39.9,79.2 81,70.8 80.4,75.4 39.2,85.4 			"/>
		</g>
		<g>
			<polygon class="st15" points="28.7,55.2 29.4,48.1 35.8,51.2 37.3,51.9 36.8,56.5 			"/>
		</g>
		<g>
			<polygon class="st12" points="35.8,51.2 77.9,50 79.1,50.6 37.3,51.9 			"/>
		</g>
		<g>
			<polygon class="st16" points="37.3,51.9 79.1,50.6 78.7,54 36.8,56.5 			"/>
		</g>
		<g>
			<polygon class="st17" points="39.2,85.4 80.4,75.4 84.8,76.2 44.8,86.5 			"/>
		</g>
		<g>
			<polygon class="st18" points="45.5,80.2 85.3,71.5 84.8,76.2 44.8,86.5 			"/>
		</g>
		<g>
			<polygon class="st19" points="39.9,79.2 81,70.8 85.3,71.5 45.5,80.2 			"/>
		</g>
		<g>
			<polygon class="st20" points="17.1,65.7 63.1,60.9 84.7,64.3 44.6,70.5 			"/>
		</g>
		<g>
			<polygon class="st9" points="19.4,43.4 29.4,48.1 28.7,55.2 36.8,56.5 37.3,51.9 46.2,56.1 44.6,70.5 17.1,65.7 			"/>
		</g>
		<g>
			<polygon class="st11" points="37.3,51.9 79.1,50.6 86,53.7 46.2,56.1 			"/>
		</g>
		<g>
			<polygon class="st21" points="46.2,56.1 86,53.7 84.7,64.3 44.6,70.5 			"/>
		</g>
		<g>
			<polygon class="st22" points="50.3,81.1 89,72.2 88.5,76.8 49.6,87.4 			"/>
		</g>
		<g>
			<polygon class="st4" points="33,94.9 75.5,82.5 98,86.6 61.9,100.8 			"/>
		</g>
		<g>
			<polygon class="st17" points="49.6,87.4 88.5,76.8 92.9,77.6 55.3,88.5 			"/>
		</g>
		<g>
			<polygon class="st19" points="50.3,81.1 89,72.2 93.5,72.9 56.1,82.2 			"/>
		</g>
		<g>
			<polygon class="st18" points="56.1,82.2 93.5,72.9 92.9,77.6 55.3,88.5 			"/>
		</g>
		<g>
			<polygon class="st23" points="54.9,57.5 92.7,54.7 91.4,65.4 53.3,72 			"/>
		</g>
		<g>
			<polygon class="st24" points="61.9,100.8 98,86.6 96.5,88.8 60.1,103.8 			"/>
		</g>
		<g>
			<polygon class="st25" points="65.8,94.7 100.9,82.1 98,86.6 61.9,100.8 			"/>
		</g>
		<g>
			<polygon class="st4" points="60.1,103.8 96.5,88.8 103.5,90.1 69.1,105.7 			"/>
		</g>
		<g>
			<polygon class="st26" points="65.8,94.7 100.9,82.1 102.6,87.5 68,102.1 			"/>
		</g>
		<g>
			<polygon class="st26" points="68,102.1 102.6,87.5 103.5,90.1 69.1,105.7 			"/>
		</g>
		<g>
			<polygon class="st9" points="65.8,94.7 68,102.1 69.1,105.7 60.1,103.8 61.9,100.8 			"/>
		</g>
		<g>
			<polygon class="st27" points="64.9,56.1 100.4,53.6 92.7,54.7 54.9,57.5 			"/>
		</g>
		<g>
			<polygon class="st28" points="64.9,56.1 100.4,53.6 100,57.1 64.3,60.8 			"/>
		</g>
		<g>
			<polygon class="st29" points="75.8,103.7 75.3,107.2 19.9,95.5 20.3,92.2 27.4,93.7 25.7,96.5 34,98.3 33,94.9 61.9,100.8 
				60.1,103.8 69.1,105.7 68,102.1 			"/>
		</g>
		<g>
			<polygon class="st30" points="75.8,103.7 108.6,88.5 108.2,91.1 75.3,107.2 			"/>
		</g>
		<g>
			<polygon class="st4" points="68,102.1 102.6,87.5 108.6,88.5 75.8,103.7 			"/>
		</g>
		<g>
			<polygon class="st13" points="64.3,60.8 100,57.1 106.8,58.1 73.3,62.2 			"/>
		</g>
		<g>
			<polygon class="st27" points="74.2,54.8 107.5,52.6 100.4,53.6 64.9,56.1 			"/>
		</g>
		<g>
			<polygon class="st15" points="67.5,55.7 74.2,54.8 73.3,62.2 64.3,60.8 64.9,56.1 			"/>
		</g>
		<g>
			<polygon class="st12" points="74.2,54.8 107.5,52.6 106.8,58.1 73.3,62.2 			"/>
		</g>
		<g>
			<polygon class="st20" points="53.3,72 91.4,65.4 114.6,69 83.6,77.2 			"/>
		</g>
		<g>
			<polygon class="st27" points="86.6,53 117,51.3 107.5,52.6 74.2,54.8 			"/>
		</g>
		<g>
			<polygon class="st31" points="86.6,53 117,51.3 114.6,69 83.6,77.2 			"/>
		</g>
		<g>
			<path class="st32" d="M96.9,11.7l10.6,1l-1.5,11.6l-0.6,4.3L92,133.7L0,111.8l9.3-93.9L9.7,14l1-10.4l8.6,0.8L18.2,15l77.3,8.3
				L96.9,11.7z M19.4,43.4l-2.3,22.3l27.6,4.8l1.6-14.3l-8.9-4.2l-7.9-3.8L19.4,43.4 M83.6,77.2l3-24.2l-12.4,1.8l-9.3,1.3l-10,1.4
				L53.3,72L83.6,77.2 M75.3,107.2l0.4-3.5l-7.7-1.6l-2.3-7.4l-3.8,6.1l-28.9-6l-2.1-7.1l-3.5,5.9l-7.1-1.5l-0.3,3.3L75.3,107.2
				 M50.3,81.1l-0.7,6.3l5.8,1.1l0.7-6.3L50.3,81.1 M45.5,80.2l-5.6-1l-0.7,6.2l5.6,1.1L45.5,80.2"/>
		</g>
		<g>
			<polygon class="st29" points="45.5,80.2 44.8,86.5 39.2,85.4 39.9,79.2 			"/>
		</g>
		<g>
			<polygon class="st33" points="56.1,82.2 55.3,88.5 49.6,87.4 50.3,81.1 			"/>
		</g>
		<g>
			<polygon class="st9" points="86.6,53 83.6,77.2 53.3,72 54.9,57.5 64.9,56.1 64.3,60.8 73.3,62.2 74.2,54.8 			"/>
		</g>
		<polygon class="st34" points="107.6,12.7 106.1,24.3 105.5,28.6 92,133.7 120.8,110.3 131.3,33.6 131.7,30.5 132.9,22.1 		"/>
	</g>
</g>
</svg>
