<?xml version="1.0" encoding="utf-8"?>
<!-- Generator: Adobe Illustrator 21.0.2, SVG Export Plug-In . SVG Version: 6.00 Build 0)  -->
<svg version="1.0" id="Isolation_Mode" xmlns="http://www.w3.org/2000/svg" xmlns:xlink="http://www.w3.org/1999/xlink" x="0px"
	 y="0px" viewBox="0 0 160 141.9" style="enable-background:new 0 0 160 141.9;" xml:space="preserve">
<style type="text/css">
	.st0{enable-background:new    ;}
	.st1{clip-path:url(#SVGID_2_);enable-background:new    ;}
	.st2{fill:#3A7829;}
	.st3{fill:#387528;}
	.st4{clip-path:url(#SVGID_4_);enable-background:new    ;}
	.st5{fill:#83A271;}
	.st6{fill:#809F6F;}
	.st7{fill:#7D9B6C;}
	.st8{fill:#7A986A;}
	.st9{fill:#779467;}
	.st10{fill:#749165;}
	.st11{fill:#718D63;}
	.st12{fill:#6E8A60;}
	.st13{fill:#6B865E;}
	.st14{fill:#68835B;}
	.st15{clip-path:url(#SVGID_6_);enable-background:new    ;}
	.st16{fill:#86A674;}
	.st17{fill:#89A976;}
	.st18{fill:#8DAD79;}
	.st19{fill:#8FB07B;}
	.st20{fill:#92B47D;}
	.st21{fill:#BFDB87;}
	.st22{fill:#5FAC40;}
	.st23{fill:#5FAB40;}
	.st24{fill:#49813A;}
	.st25{fill:#549B39;}
	.st26{fill:#E8E8E8;}
	.st27{fill:#C9C9C9;}
	.st28{clip-path:url(#SVGID_8_);enable-background:new    ;}
	.st29{fill:#4A8D33;}
	.st30{fill:#4C9034;}
	.st31{fill:#4E9336;}
	.st32{fill:#509637;}
	.st33{fill:#529838;}
	.st34{fill:#478A32;}
	.st35{fill:#458630;}
	.st36{fill:#43832F;}
	.st37{fill:#41802D;}
	.st38{fill:#3F7E2C;}
	.st39{clip-path:url(#SVGID_10_);enable-background:new    ;}
	.st40{fill:#367226;}
	.st41{fill:#3D7B2B;}
	.st42{fill:#5FAB3F;}
	.st43{fill:#DADADB;}
	.st44{fill:#A9AAAC;}
	.st45{fill:#559D3A;}
	.st46{fill:#ABACAE;}
	.st47{clip-path:url(#SVGID_12_);enable-background:new    ;}
	.st48{fill:#828631;}
	.st49{fill:#676C24;}
	.st50{fill:#E7E7E7;}
	.st51{fill:#4F9536;}
	.st52{fill:#4B8E34;}
	.st53{fill:#3A6D2F;}
	.st54{fill:#2F5226;}
	.st55{fill:#335729;}
	.st56{fill:#D9D9DA;}
	.st57{fill:#5EAA3F;}
	.st58{fill:#48803A;}
	.st59{fill:#34662B;}
	.st60{clip-path:url(#SVGID_14_);enable-background:new    ;}
	.st61{clip-path:url(#SVGID_16_);enable-background:new    ;}
	.st62{clip-path:url(#SVGID_18_);enable-background:new    ;}
	.st63{fill:#5DA93E;}
	.st64{fill:#549C39;}
	.st65{fill:#E2E2E2;}
	.st66{fill:#539A38;}
	.st67{fill:#305427;}
	.st68{fill:#D7D7D8;}
	.st69{fill:#ADAEAF;}
	.st70{fill:#315527;}
	.st71{fill:#325628;}
	.st72{fill:#676C25;}
	.st73{fill:#808430;}
	.st74{fill:#3A6E30;}
	.st75{clip-path:url(#SVGID_20_);enable-background:new    ;}
	.st76{clip-path:url(#SVGID_22_);enable-background:new    ;}
	.st77{clip-path:url(#SVGID_24_);enable-background:new    ;}
	.st78{clip-path:url(#SVGID_26_);enable-background:new    ;}
	.st79{fill:#A1A2A4;}
	.st80{fill:#D4D4D5;}
	.st81{fill:#477E38;}
	.st82{fill:#32642A;}
	.st83{fill:#8CC74E;}
	.st84{fill:#FDFEFF;}
	.st85{fill:#3A7438;}
	.st86{fill:#9AA138;}
	.st87{fill:#5CA73E;}
	.st88{fill:#965556;}
	.st89{fill:#CC7676;}
	.st90{fill:#975757;}
	.st91{fill:#824344;}
	.st92{fill:#A65859;}
	.st93{fill:#AE5D5E;}
	.st94{fill:#AE5D5D;}
	.st95{fill:#814343;}
	.st96{fill:#5AA43D;}
	.st97{fill:#D17979;}
	.st98{fill:#F59B9D;}
</style>
<g>
	<g class="st0">
		<g class="st0">
			<defs>
				<path id="SVGID_1_" class="st0" d="M60,68.1c0,0,0.1,0,0.1,0c0,0,0.1,0,0.1,0c0,0,0.1,0,0.1,0c0,0,0.1,0,0.1,0l-55.3,7
					c0,0-0.1,0-0.1,0c0,0-0.1,0-0.1,0c0,0-0.1,0-0.1,0c0,0-0.1,0-0.1,0C21.2,73,43.4,70.2,60,68.1z"/>
			</defs>
			<clipPath id="SVGID_2_">
				<use xlink:href="#SVGID_1_"  style="overflow:visible;"/>
			</clipPath>
			<g class="st1">
				<path class="st2" d="M4.6,75.1l55.4-7c0,0,0.1,0,0.1,0c0,0,0.1,0,0.1,0c0,0,0.1,0,0.1,0c0,0,0.1,0,0.1,0l-55.3,7
					c0,0-0.1,0-0.1,0c0,0-0.1,0-0.1,0c0,0-0.1,0-0.1,0C4.7,75.1,4.6,75.1,4.6,75.1"/>
				<polyline class="st3" points="5.1,75.1 60.4,68.1 60.4,68.1 60.4,68.1 60.4,68.1 60.4,68.1 5.1,75.1 5.1,75.1 5.1,75.1 
					5.1,75.1 5.1,75.1 				"/>
			</g>
		</g>
		<g class="st0">
			<defs>
				<path id="SVGID_3_" class="st0" d="M60.4,68.1c-18.4,2.3-36.9,4.6-55.3,7C5.8,75,6.4,74.8,7,74.4c0.6-0.3,1.1-0.8,1.6-1.3
					c0.5-0.5,0.9-1.1,1.2-1.8c0.3-0.7,0.5-1.5,0.6-2.3l54.5-5.9c-0.1,0.7-0.3,1.3-0.5,1.8c-0.3,0.6-0.6,1.1-1,1.5
					C63,67,62.5,67.3,62,67.6C61.5,67.8,61,68,60.4,68.1z"/>
			</defs>
			<clipPath id="SVGID_4_">
				<use xlink:href="#SVGID_3_"  style="overflow:visible;"/>
			</clipPath>
			<g class="st4">
				<path class="st5" d="M10.4,69.1l54.5-5.9c0,0,0,0,0,0.1c0,0,0,0,0,0.1c0,0,0,0,0,0.1c0,0,0,0,0,0.1l-54.5,5.9c0,0,0-0.1,0-0.1
					c0,0,0-0.1,0-0.1C10.4,69.2,10.4,69.2,10.4,69.1C10.4,69.1,10.4,69.1,10.4,69.1"/>
				<path class="st6" d="M10.3,69.4l54.5-5.9c0,0,0,0.1,0,0.1c0,0,0,0.1,0,0.1c0,0,0,0.1,0,0.1c0,0,0,0.1,0,0.1l-54.5,6
					c0,0,0-0.1,0-0.1c0,0,0-0.1,0-0.1c0,0,0-0.1,0-0.1C10.3,69.5,10.3,69.4,10.3,69.4"/>
				<path class="st7" d="M10.2,69.9l54.5-6c0,0,0,0.1,0,0.1c0,0,0,0.1,0,0.1c0,0,0,0.1,0,0.1c0,0,0,0.1,0,0.1l-54.6,6.1
					c0,0,0-0.1,0-0.1c0,0,0-0.1,0-0.1c0,0,0-0.1,0-0.1C10.2,69.9,10.2,69.9,10.2,69.9"/>
				<path class="st8" d="M10.1,70.3l54.6-6.1c0,0,0,0.1,0,0.1c0,0,0,0.1,0,0.1c0,0,0,0.1,0,0.1c0,0,0,0.1,0,0.1L10,70.8
					c0,0,0-0.1,0-0.1c0,0,0-0.1,0-0.1c0,0,0-0.1,0-0.1C10.1,70.4,10.1,70.4,10.1,70.3"/>
				<path class="st9" d="M10,70.8l54.6-6.2c0,0,0,0.1,0,0.1c0,0,0,0.1,0,0.1c0,0,0,0.1,0,0.1c0,0,0,0.1,0,0.1L9.8,71.2
					c0,0,0-0.1,0-0.1c0,0,0-0.1,0-0.1c0,0,0-0.1,0-0.1C10,70.9,10,70.8,10,70.8"/>
				<path class="st10" d="M9.8,71.2L64.4,65c0,0,0,0.1,0,0.1c0,0,0,0.1,0,0.1c0,0,0,0.1,0,0.1c0,0,0,0.1,0,0.1L9.6,71.7
					c0,0,0-0.1,0.1-0.1c0,0,0-0.1,0.1-0.1c0,0,0-0.1,0.1-0.1C9.8,71.3,9.8,71.3,9.8,71.2"/>
				<path class="st11" d="M9.6,71.7l54.6-6.4c0,0,0,0.1-0.1,0.1c0,0,0,0.1-0.1,0.1c0,0,0,0.1-0.1,0.1c0,0,0,0.1-0.1,0.1L9.4,72.2
					c0,0,0-0.1,0.1-0.1c0,0,0-0.1,0.1-0.1c0,0,0-0.1,0.1-0.1C9.6,71.8,9.6,71.7,9.6,71.7"/>
				<path class="st12" d="M9.4,72.2L64,65.7c0,0,0,0.1-0.1,0.1c0,0,0,0.1-0.1,0.1c0,0,0,0.1-0.1,0.1c0,0,0,0.1-0.1,0.1L9,72.7
					c0,0,0.1-0.1,0.1-0.1c0,0,0.1-0.1,0.1-0.1c0,0,0.1-0.1,0.1-0.1C9.3,72.2,9.3,72.2,9.4,72.2"/>
				<path class="st13" d="M9,72.7l54.7-6.5c0,0-0.1,0.1-0.1,0.1c0,0-0.1,0.1-0.1,0.1c0,0-0.1,0.1-0.1,0.1c0,0-0.1,0.1-0.1,0.1
					L8.5,73.2c0,0,0.1-0.1,0.1-0.1c0,0,0.1-0.1,0.1-0.1c0,0,0.1-0.1,0.1-0.1C8.9,72.8,9,72.7,9,72.7"/>
				<path class="st14" d="M8.5,73.2l54.8-6.6c-0.2,0.2-0.4,0.4-0.6,0.6c-0.2,0.2-0.5,0.3-0.7,0.4c-0.2,0.1-0.5,0.2-0.8,0.3
					c-0.3,0.1-0.5,0.1-0.8,0.2l-55.3,7c0.3,0,0.7-0.1,1-0.2c0.3-0.1,0.6-0.2,0.9-0.4c0.3-0.2,0.6-0.3,0.8-0.5
					C8.1,73.7,8.3,73.5,8.5,73.2"/>
			</g>
		</g>
		<g class="st0">
			<defs>
				<path id="SVGID_5_" class="st0" d="M6.1,61.3l55.2-4.4c0.6,0.2,1.1,0.5,1.6,1c0.5,0.4,0.9,0.9,1.2,1.5c0.3,0.6,0.6,1.2,0.7,1.8
					c0.1,0.7,0.2,1.3,0.1,2.1l-54.5,5.9c0.1-0.9,0-1.7-0.1-2.5c-0.2-0.8-0.5-1.6-0.8-2.3C9,63.6,8.5,63,8,62.5
					C7.4,62,6.8,61.6,6.1,61.3z"/>
			</defs>
			<clipPath id="SVGID_6_">
				<use xlink:href="#SVGID_5_"  style="overflow:visible;"/>
			</clipPath>
			<g class="st15">
				<polyline class="st7" points="6.1,61.3 61.3,56.9 61.3,56.9 61.3,56.9 61.3,56.9 61.3,56.9 6.1,61.3 6.1,61.3 6.1,61.3 
					6.1,61.3 6.1,61.3 				"/>
				<path class="st6" d="M6.1,61.3l55.2-4.4c0,0,0.1,0,0.1,0c0,0,0.1,0,0.1,0c0,0,0.1,0,0.1,0c0,0,0.1,0,0.1,0L6.5,61.5
					c0,0-0.1,0-0.1,0c0,0-0.1,0-0.1,0C6.2,61.4,6.2,61.4,6.1,61.3C6.2,61.3,6.1,61.3,6.1,61.3"/>
				<path class="st5" d="M6.5,61.5L61.6,57c0,0,0.1,0,0.1,0c0,0,0.1,0,0.1,0c0,0,0.1,0,0.1,0c0,0,0.1,0,0.1,0L6.9,61.7
					c0,0-0.1,0-0.1-0.1c0,0-0.1,0-0.1-0.1C6.6,61.6,6.6,61.5,6.5,61.5C6.5,61.5,6.5,61.5,6.5,61.5"/>
				<path class="st16" d="M6.9,61.7L62,57.2c0,0,0.1,0,0.1,0c0,0,0.1,0,0.1,0c0,0,0.1,0,0.1,0.1c0,0,0.1,0,0.1,0.1l-55,4.5
					c0,0-0.1,0-0.1-0.1c0,0-0.1,0-0.1-0.1c0,0-0.1,0-0.1-0.1C6.9,61.7,6.9,61.7,6.9,61.7"/>
				<path class="st17" d="M7.3,61.9l55-4.5c0,0,0.1,0,0.1,0.1c0,0,0.1,0,0.1,0.1c0,0,0.1,0,0.1,0.1c0,0,0.1,0,0.1,0.1l-55,4.6
					c0,0-0.1-0.1-0.1-0.1c0,0-0.1-0.1-0.1-0.1c0,0-0.1-0.1-0.1-0.1C7.3,62,7.3,61.9,7.3,61.9"/>
				<path class="st18" d="M7.7,62.2l55-4.6c0,0,0.1,0.1,0.1,0.1c0,0,0.1,0.1,0.1,0.1c0,0,0.1,0.1,0.1,0.1c0,0,0.1,0.1,0.1,0.1
					L8.1,62.6c0,0-0.1-0.1-0.1-0.1c0,0-0.1-0.1-0.1-0.1c0,0-0.1-0.1-0.1-0.1C7.8,62.3,7.7,62.3,7.7,62.2"/>
				<path class="st19" d="M8.1,62.6L63,58c0,0,0.1,0.1,0.1,0.1c0,0,0.1,0.1,0.1,0.1c0,0,0.1,0.1,0.1,0.1c0,0,0.1,0.1,0.1,0.1
					L8.7,63.2c0-0.1-0.1-0.1-0.1-0.1c0,0-0.1-0.1-0.1-0.1c0,0-0.1-0.1-0.1-0.1C8.2,62.7,8.2,62.7,8.1,62.6"/>
				<path class="st20" d="M8.7,63.2l54.8-4.8c0.2,0.2,0.3,0.4,0.4,0.6c0.1,0.2,0.2,0.4,0.4,0.6c0.1,0.2,0.2,0.4,0.3,0.7
					c0.1,0.2,0.2,0.5,0.2,0.7l-54.6,5.4c-0.1-0.3-0.2-0.6-0.3-0.9c-0.1-0.3-0.2-0.5-0.3-0.8c-0.1-0.3-0.3-0.5-0.4-0.8
					C9,63.7,8.8,63.4,8.7,63.2"/>
				<path class="st19" d="M10.2,66.3l54.6-5.4c0,0.1,0,0.1,0,0.2c0,0.1,0,0.1,0,0.2c0,0.1,0,0.1,0,0.2c0,0.1,0,0.1,0,0.2l-54.5,5.5
					c0-0.1,0-0.1,0-0.2c0-0.1,0-0.1,0-0.2c0-0.1,0-0.1,0-0.2C10.2,66.4,10.2,66.4,10.2,66.3"/>
				<path class="st18" d="M10.3,67.1l54.5-5.5c0,0,0,0.1,0,0.1c0,0,0,0.1,0,0.1c0,0,0,0.1,0,0.1c0,0,0,0.1,0,0.1l-54.5,5.6
					c0-0.1,0-0.1,0-0.2c0-0.1,0-0.1,0-0.2c0-0.1,0-0.1,0-0.2C10.4,67.2,10.4,67.2,10.3,67.1"/>
				<path class="st17" d="M10.4,67.8l54.5-5.6c0,0,0,0.1,0,0.1c0,0,0,0.1,0,0.1c0,0,0,0.1,0,0.1c0,0,0,0.1,0,0.1l-54.5,5.7
					c0,0,0-0.1,0-0.1c0,0,0-0.1,0-0.1c0,0,0-0.1,0-0.1C10.4,67.9,10.4,67.8,10.4,67.8"/>
				<path class="st16" d="M10.4,68.3l54.5-5.7c0,0,0,0.1,0,0.1c0,0,0,0.1,0,0.1c0,0,0,0.1,0,0.1c0,0,0,0.1,0,0.1l-54.5,5.8
					c0,0,0-0.1,0-0.1c0,0,0-0.1,0-0.1c0,0,0-0.1,0-0.1C10.4,68.4,10.4,68.4,10.4,68.3"/>
				<path class="st5" d="M10.4,68.9L64.9,63c0,0,0,0,0,0s0,0,0,0c0,0,0,0,0,0c0,0,0,0,0,0l-54.5,5.9c0,0,0,0,0,0
					C10.4,69,10.4,69,10.4,68.9C10.4,69,10.4,68.9,10.4,68.9C10.4,68.9,10.4,68.9,10.4,68.9"/>
			</g>
		</g>
		<g>
			<path class="st21" d="M10.4,69.1c-0.1,0.9-0.3,1.7-0.6,2.4c-0.3,0.7-0.8,1.4-1.3,1.9c-0.5,0.5-1.1,1-1.8,1.3
				c-0.6,0.3-1.3,0.5-2.1,0.5l1.5-13.8C6.8,61.6,7.4,62,8,62.5C8.5,63,9,63.6,9.4,64.3c0.4,0.7,0.7,1.5,0.8,2.3
				C10.4,67.4,10.5,68.2,10.4,69.1z"/>
		</g>
		<g>
			<polygon class="st22" points="21.8,93.8 74.5,83.2 74.2,85.9 21.4,97.1 			"/>
		</g>
		<g>
			<polygon class="st23" points="28.2,98.4 79.8,86.9 79.3,91.8 27.5,104.4 			"/>
		</g>
		<g>
			<polygon class="st22" points="25.1,30.6 77.5,32 74.5,57.6 21.6,62.3 			"/>
		</g>
		<g>
			<polygon class="st24" points="26.1,43.1 78.3,42.1 76.7,55.9 24.3,60.1 			"/>
		</g>
		<g>
			<polygon class="st25" points="27.5,104.4 79.3,91.8 85.1,92.9 34.5,105.7 			"/>
		</g>
		<g>
			<polygon class="st26" points="35.1,99.7 85.7,88 85.1,92.9 34.5,105.7 			"/>
		</g>
		<g>
			<polygon class="st27" points="28.2,98.4 79.8,86.9 85.7,88 35.1,99.7 			"/>
		</g>
		<g class="st0">
			<defs>
				<path id="SVGID_7_" class="st0" d="M80.6,24.3c-17.3-1-34.6-2.1-51.9-3.1c0,0-0.1,0-0.1,0c0,0-0.1,0-0.1,0c0,0-0.1,0-0.1,0
					c0,0-0.1,0-0.1,0c-0.9-0.1-1.7-0.4-2.4-0.9c-0.7-0.5-1.3-1.1-1.8-1.8c-0.5-0.7-0.9-1.6-1.1-2.5c-0.2-0.9-0.3-1.9-0.2-2.9
					l52.9,4.6c-0.1,0.8,0,1.6,0.2,2.3c0.2,0.7,0.5,1.4,0.9,2c0.4,0.6,0.9,1.1,1.5,1.5c0.6,0.4,1.3,0.6,2,0.7c0,0,0.1,0,0.1,0
					c0,0,0.1,0,0.1,0C80.5,24.3,80.5,24.3,80.6,24.3C80.6,24.3,80.6,24.3,80.6,24.3z"/>
			</defs>
			<clipPath id="SVGID_8_">
				<use xlink:href="#SVGID_7_"  style="overflow:visible;"/>
			</clipPath>
			<g class="st28">
				<path class="st29" d="M22.8,13.1l52.9,4.6c0,0,0,0,0,0c0,0,0,0,0,0c0,0,0,0,0,0c0,0,0,0,0,0l-52.9-4.6c0,0,0,0,0,0
					C22.8,13.2,22.8,13.2,22.8,13.1C22.8,13.2,22.8,13.2,22.8,13.1C22.8,13.2,22.8,13.1,22.8,13.1"/>
				<path class="st30" d="M22.8,13.3l52.9,4.6c0,0,0,0.1,0,0.1c0,0,0,0.1,0,0.1c0,0,0,0.1,0,0.1c0,0,0,0.1,0,0.1l-52.9-4.5
					c0,0,0-0.1,0-0.1c0,0,0-0.1,0-0.1c0,0,0-0.1,0-0.1C22.7,13.4,22.7,13.4,22.8,13.3"/>
				<path class="st31" d="M22.7,13.9l52.9,4.5c0,0,0,0.1,0,0.1c0,0,0,0.1,0,0.1c0,0,0,0.1,0,0.1c0,0,0,0.1,0,0.1l-52.9-4.4
					c0,0,0-0.1,0-0.1c0,0,0-0.1,0-0.1c0,0,0-0.1,0-0.1C22.7,14,22.7,13.9,22.7,13.9"/>
				<path class="st32" d="M22.7,14.4l52.9,4.4c0,0,0,0.1,0,0.1c0,0,0,0.1,0,0.1c0,0,0,0.1,0,0.1c0,0,0,0.1,0,0.1l-52.8-4.3
					c0-0.1,0-0.1,0-0.2c0-0.1,0-0.1,0-0.2c0-0.1,0-0.1,0-0.2C22.7,14.6,22.7,14.5,22.7,14.4"/>
				<path class="st33" d="M22.8,15.1l52.8,4.3c0,0.1,0,0.1,0,0.2c0,0.1,0,0.1,0,0.2c0,0.1,0,0.1,0,0.2c0,0.1,0,0.1,0,0.2l-52.8-4.1
					c0-0.1,0-0.1,0-0.2c0-0.1,0-0.1,0-0.2c0-0.1,0-0.1,0-0.2C22.8,15.2,22.8,15.2,22.8,15.1"/>
				<path class="st25" d="M22.9,15.9L75.8,20c0.1,0.2,0.1,0.5,0.2,0.7c0.1,0.2,0.2,0.4,0.3,0.7c0.1,0.2,0.2,0.4,0.4,0.6
					c0.1,0.2,0.3,0.4,0.4,0.6L24.5,19c-0.2-0.2-0.4-0.4-0.5-0.7c-0.2-0.2-0.3-0.5-0.4-0.8c-0.1-0.3-0.2-0.5-0.4-0.8
					C23.1,16.5,23,16.2,22.9,15.9"/>
				<path class="st33" d="M24.5,19l52.6,3.5c0,0,0.1,0.1,0.1,0.1c0,0,0.1,0.1,0.1,0.1c0,0,0.1,0.1,0.1,0.1c0,0,0.1,0.1,0.1,0.1
					l-52.5-3.4c0,0-0.1-0.1-0.1-0.1c0,0-0.1-0.1-0.1-0.1c0,0-0.1-0.1-0.1-0.1C24.6,19.1,24.5,19.1,24.5,19"/>
				<path class="st32" d="M25.1,19.6L77.5,23c0,0,0.1,0.1,0.1,0.1c0,0,0.1,0.1,0.1,0.1c0,0,0.1,0.1,0.1,0.1c0,0,0.1,0.1,0.1,0.1
					L25.5,20c0,0-0.1-0.1-0.1-0.1c0,0-0.1-0.1-0.1-0.1c0,0-0.1-0.1-0.1-0.1C25.1,19.7,25.1,19.6,25.1,19.6"/>
				<path class="st31" d="M25.5,20l52.4,3.3c0,0,0.1,0,0.1,0.1c0,0,0.1,0,0.1,0.1c0,0,0.1,0,0.1,0.1c0,0,0.1,0,0.1,0.1L26,20.3
					c0,0-0.1,0-0.1-0.1c0,0-0.1,0-0.1-0.1c0,0-0.1-0.1-0.1-0.1C25.6,20,25.6,20,25.5,20"/>
				<path class="st30" d="M26,20.3l52.3,3.3c0,0,0.1,0,0.1,0.1c0,0,0.1,0,0.1,0.1c0,0,0.1,0,0.1,0c0,0,0.1,0,0.1,0l-52.3-3.2
					c0,0-0.1,0-0.1-0.1c0,0-0.1,0-0.1-0.1c0,0-0.1,0-0.1-0.1C26,20.3,26,20.3,26,20.3"/>
				<path class="st29" d="M26.4,20.5l52.3,3.2c0,0,0.1,0,0.1,0c0,0,0.1,0,0.1,0c0,0,0.1,0,0.1,0c0,0,0.1,0,0.1,0l-52.2-3.2
					c0,0-0.1,0-0.1,0c0,0-0.1,0-0.1,0C26.5,20.6,26.5,20.6,26.4,20.5C26.4,20.6,26.4,20.6,26.4,20.5"/>
				<path class="st34" d="M26.8,20.7L79,23.9c0,0,0.1,0,0.1,0c0,0,0.1,0,0.1,0c0,0,0.1,0,0.1,0c0,0,0.1,0,0.1,0l-52.1-3.2
					c0,0-0.1,0-0.1,0c0,0-0.1,0-0.1,0C26.9,20.8,26.9,20.8,26.8,20.7C26.8,20.8,26.8,20.7,26.8,20.7"/>
				<path class="st35" d="M27.2,20.9l52.1,3.2c0,0,0.1,0,0.1,0c0,0,0.1,0,0.1,0c0,0,0.1,0,0.1,0c0,0,0.1,0,0.1,0L27.6,21
					c0,0-0.1,0-0.1,0c0,0-0.1,0-0.1,0c0,0-0.1,0-0.1,0C27.2,20.9,27.2,20.9,27.2,20.9"/>
				<path class="st36" d="M27.6,21l52.1,3.2c0,0,0.1,0,0.1,0c0,0,0.1,0,0.1,0c0,0,0.1,0,0.1,0c0,0,0.1,0,0.1,0l-52-3.1
					c0,0-0.1,0-0.1,0c0,0-0.1,0-0.1,0c0,0-0.1,0-0.1,0C27.7,21,27.6,21,27.6,21"/>
				<path class="st37" d="M28,21.1l52,3.1c0,0,0,0,0.1,0c0,0,0,0,0.1,0c0,0,0,0,0.1,0c0,0,0,0,0.1,0c0,0,0,0,0,0c0,0,0,0,0,0
					c0,0,0,0,0,0c0,0,0,0,0,0l-51.9-3.1c0,0,0,0,0,0c0,0,0,0,0,0c0,0,0,0,0,0c0,0,0,0,0,0c0,0-0.1,0-0.1,0c0,0-0.1,0-0.1,0
					C28.1,21.1,28.1,21.1,28,21.1C28.1,21.1,28,21.1,28,21.1"/>
				<path class="st38" d="M28.5,21.2l51.9,3.1c0,0,0,0,0.1,0c0,0,0,0,0.1,0c0,0,0,0,0.1,0c0,0,0,0,0.1,0l-51.9-3.1c0,0,0,0-0.1,0
					c0,0,0,0-0.1,0C28.6,21.2,28.6,21.2,28.5,21.2C28.5,21.2,28.5,21.2,28.5,21.2"/>
			</g>
		</g>
		<g class="st0">
			<defs>
				<path id="SVGID_9_" class="st0" d="M29.9,6.7l51.8,5.9c-0.7-0.1-1.5,0-2.1,0.2c-0.7,0.2-1.3,0.6-1.8,1.1c-0.5,0.5-1,1.1-1.4,1.7
					c-0.4,0.7-0.6,1.4-0.7,2.2l-52.9-4.6c0.1-1,0.4-1.9,0.8-2.8c0.4-0.8,1-1.5,1.6-2.1c0.6-0.6,1.4-1,2.2-1.3
					C28.2,6.7,29,6.6,29.9,6.7z"/>
			</defs>
			<clipPath id="SVGID_10_">
				<use xlink:href="#SVGID_9_"  style="overflow:visible;"/>
			</clipPath>
			<g class="st39">
				<path class="st40" d="M29.9,6.7l51.8,5.9c-0.4-0.1-0.8,0-1.2,0c-0.4,0.1-0.8,0.2-1.2,0.3c-0.4,0.1-0.7,0.3-1.1,0.6
					c-0.3,0.2-0.6,0.5-0.9,0.8L24.7,8.8c0.3-0.4,0.7-0.7,1.1-1c0.4-0.3,0.8-0.5,1.3-0.7c0.4-0.2,0.9-0.3,1.4-0.4
					C28.9,6.6,29.4,6.6,29.9,6.7"/>
				<path class="st3" d="M24.7,8.8l52.6,5.5c0,0-0.1,0.1-0.1,0.1c0,0-0.1,0.1-0.1,0.1c0,0-0.1,0.1-0.1,0.1c0,0-0.1,0.1-0.1,0.1
					L24.2,9.4c0-0.1,0.1-0.1,0.1-0.2c0-0.1,0.1-0.1,0.1-0.2c0-0.1,0.1-0.1,0.1-0.2C24.6,8.9,24.6,8.8,24.7,8.8"/>
				<path class="st2" d="M24.2,9.4l52.6,5.4c0,0-0.1,0.1-0.1,0.1c0,0-0.1,0.1-0.1,0.1c0,0,0,0.1-0.1,0.1c0,0,0,0.1-0.1,0.1L23.8,9.9
					c0,0,0.1-0.1,0.1-0.1c0,0,0.1-0.1,0.1-0.1c0,0,0.1-0.1,0.1-0.1C24.1,9.5,24.1,9.4,24.2,9.4"/>
				<path class="st41" d="M23.8,9.9l52.7,5.2c0,0,0,0.1-0.1,0.1s0,0.1-0.1,0.1c0,0,0,0.1-0.1,0.1c0,0,0,0.1-0.1,0.1l-52.7-5.2
					c0,0,0-0.1,0.1-0.1c0,0,0-0.1,0.1-0.1c0,0,0-0.1,0.1-0.1C23.8,10,23.8,10,23.8,9.9"/>
				<path class="st38" d="M23.5,10.4l52.7,5.2c0,0,0,0.1,0,0.1c0,0,0,0.1,0,0.1c0,0,0,0.1,0,0.1c0,0,0,0.1,0,0.1l-52.8-5.1
					c0,0,0-0.1,0.1-0.1c0,0,0-0.1,0.1-0.1c0,0,0-0.1,0.1-0.1C23.5,10.5,23.5,10.5,23.5,10.4"/>
				<path class="st37" d="M23.3,10.9L76.1,16c0,0,0,0.1,0,0.1c0,0,0,0.1,0,0.1c0,0,0,0.1,0,0.1c0,0,0,0.1,0,0.1l-52.8-5
					c0,0,0-0.1,0-0.1c0,0,0-0.1,0-0.1c0,0,0-0.1,0-0.1C23.3,11,23.3,10.9,23.3,10.9"/>
				<path class="st36" d="M23.2,11.4l52.8,5c0,0,0,0.1,0,0.1c0,0,0,0.1,0,0.1c0,0,0,0.1,0,0.1c0,0,0,0.1,0,0.1L23,11.8
					c0,0,0-0.1,0-0.1c0,0,0-0.1,0-0.1c0,0,0-0.1,0-0.1C23.1,11.4,23.1,11.4,23.2,11.4"/>
				<path class="st35" d="M23,11.8l52.8,4.9c0,0,0,0.1,0,0.1c0,0,0,0.1,0,0.1c0,0,0,0.1,0,0.1c0,0,0,0.1,0,0.1l-52.8-4.8
					c0,0,0-0.1,0-0.1c0,0,0-0.1,0-0.1c0,0,0-0.1,0-0.1C23,11.9,23,11.9,23,11.8"/>
				<path class="st34" d="M22.9,12.3l52.8,4.8c0,0,0,0.1,0,0.1c0,0,0,0.1,0,0.1c0,0,0,0.1,0,0.1c0,0,0,0.1,0,0.1l-52.8-4.7
					c0,0,0-0.1,0-0.1c0,0,0-0.1,0-0.1c0,0,0-0.1,0-0.1C22.9,12.4,22.9,12.3,22.9,12.3"/>
				<path class="st29" d="M22.8,12.8l52.8,4.7c0,0,0,0,0,0.1c0,0,0,0,0,0.1c0,0,0,0,0,0.1c0,0,0,0,0,0.1l-52.9-4.6c0,0,0-0.1,0-0.1
					c0,0,0-0.1,0-0.1C22.8,12.9,22.8,12.9,22.8,12.8C22.8,12.8,22.8,12.8,22.8,12.8"/>
			</g>
		</g>
		<g>
			<polygon class="st42" points="42.5,101.1 91.9,89 90.8,98.5 41.2,112.7 			"/>
		</g>
		<g>
			<polygon class="st43" points="35.7,44.6 86.4,43.3 86,46.3 35.3,48.3 			"/>
		</g>
		<g>
			<polygon class="st44" points="26.1,43.1 78.3,42.1 86.4,43.3 35.7,44.6 			"/>
		</g>
		<g>
			<polygon class="st45" points="41.2,112.7 90.8,98.5 96.7,99.5 48.3,114.1 			"/>
		</g>
		<g>
			<polygon class="st46" points="35.3,48.3 86,46.3 90.1,46.9 40.2,49.1 			"/>
		</g>
		<g class="st0">
			<defs>
				<path id="SVGID_11_" class="st0" d="M80.6,24.3c-17.3-1-34.6-2.1-51.9-3.1c0.8,0.1,1.7-0.1,2.4-0.4c0.8-0.3,1.5-0.7,2.1-1.3
					c0.6-0.6,1.1-1.3,1.5-2.1c0.4-0.8,0.7-1.7,0.8-2.7c0.1-1,0-2-0.2-2.9c-0.2-0.9-0.6-1.8-1.1-2.5c-0.5-0.7-1.1-1.3-1.9-1.8
					c-0.7-0.5-1.5-0.8-2.4-0.9l51.8,5.9c0.7,0.1,1.4,0.3,2,0.7c0.6,0.4,1.1,0.9,1.6,1.5c0.4,0.6,0.7,1.3,0.9,2
					c0.2,0.7,0.2,1.5,0.2,2.3c-0.1,0.8-0.3,1.5-0.7,2.2c-0.3,0.6-0.8,1.2-1.3,1.7c-0.5,0.5-1.1,0.8-1.8,1.1
					C82,24.3,81.3,24.4,80.6,24.3z"/>
			</defs>
			<clipPath id="SVGID_12_">
				<use xlink:href="#SVGID_11_"  style="overflow:visible;"/>
			</clipPath>
			<g class="st47">
				<path class="st9" d="M29.9,6.7l51.8,5.9c0,0,0,0,0.1,0c0,0,0,0,0.1,0c0,0,0,0,0.1,0c0,0,0,0,0.1,0L30.2,6.7c0,0-0.1,0-0.1,0
					c0,0-0.1,0-0.1,0C30,6.7,30,6.7,29.9,6.7C30,6.7,29.9,6.7,29.9,6.7"/>
				<path class="st8" d="M30.2,6.7l51.7,5.9c0,0,0.1,0,0.1,0c0,0,0.1,0,0.1,0c0,0,0.1,0,0.1,0c0,0,0.1,0,0.1,0L30.7,6.8
					c0,0-0.1,0-0.1,0c0,0-0.1,0-0.1,0c0,0-0.1,0-0.1,0C30.3,6.7,30.3,6.7,30.2,6.7"/>
				<path class="st7" d="M30.7,6.8l51.6,5.9c0,0,0.1,0,0.1,0c0,0,0.1,0,0.1,0c0,0,0.1,0,0.1,0c0,0,0.1,0,0.1,0L31.1,6.9
					c0,0-0.1,0-0.1,0c0,0-0.1,0-0.1,0c0,0-0.1,0-0.1,0C30.7,6.8,30.7,6.8,30.7,6.8"/>
				<path class="st6" d="M31.1,6.9l51.6,5.8c0,0,0.1,0,0.1,0c0,0,0.1,0,0.1,0c0,0,0.1,0,0.1,0c0,0,0.1,0,0.1,0L31.5,7.1
					c0,0-0.1,0-0.1,0c0,0-0.1,0-0.1,0c0,0-0.1,0-0.1,0C31.1,6.9,31.1,6.9,31.1,6.9"/>
				<path class="st5" d="M31.5,7.1L83,12.9c0,0,0.1,0,0.1,0c0,0,0.1,0,0.1,0c0,0,0.1,0,0.1,0c0,0,0.1,0,0.1,0L31.9,7.3
					c0,0-0.1,0-0.1-0.1c0,0-0.1,0-0.1,0c0,0-0.1,0-0.1,0C31.5,7.1,31.5,7.1,31.5,7.1"/>
				<path class="st16" d="M31.9,7.3l51.4,5.8c0,0,0.1,0,0.1,0c0,0,0.1,0,0.1,0c0,0,0.1,0,0.1,0c0,0,0.1,0,0.1,0.1L32.3,7.5
					c0,0-0.1,0-0.1-0.1c0,0-0.1,0-0.1-0.1c0,0-0.1,0-0.1-0.1C32,7.3,31.9,7.3,31.9,7.3"/>
				<path class="st17" d="M32.3,7.5l51.4,5.7c0,0,0.1,0,0.1,0.1c0,0,0.1,0,0.1,0.1c0,0,0.1,0,0.1,0.1c0,0,0.1,0,0.1,0.1L32.7,7.8
					c0,0-0.1-0.1-0.1-0.1c0,0-0.1-0.1-0.1-0.1c0,0-0.1,0-0.1-0.1C32.4,7.6,32.3,7.5,32.3,7.5"/>
				<path class="st18" d="M32.7,7.8L84,13.5c0,0,0.1,0.1,0.1,0.1c0,0,0.1,0.1,0.1,0.1c0,0,0.1,0.1,0.1,0.1c0,0,0.1,0.1,0.1,0.1
					L33.2,8.2c0,0-0.1-0.1-0.1-0.1C33.1,8.1,33,8,33,8c0,0-0.1-0.1-0.1-0.1C32.8,7.9,32.8,7.8,32.7,7.8"/>
				<path class="st19" d="M33.2,8.2l51.2,5.6c0,0,0.1,0.1,0.1,0.1c0,0,0.1,0.1,0.1,0.1c0,0,0.1,0.1,0.1,0.1c0,0,0.1,0.1,0.1,0.1
					L33.8,8.8c0-0.1-0.1-0.1-0.1-0.2c0,0-0.1-0.1-0.1-0.1c0,0-0.1-0.1-0.1-0.1C33.3,8.3,33.3,8.2,33.2,8.2"/>
				<path class="st20" d="M33.8,8.8l51.1,5.5c0.2,0.2,0.3,0.4,0.4,0.6c0.1,0.2,0.3,0.4,0.4,0.6c0.1,0.2,0.2,0.4,0.3,0.7
					c0.1,0.2,0.2,0.5,0.2,0.7l-50.9-4.9c-0.1-0.3-0.2-0.6-0.3-0.9c-0.1-0.3-0.2-0.6-0.4-0.8c-0.1-0.3-0.3-0.5-0.4-0.8
					C34.1,9.2,34,9,33.8,8.8"/>
				<path class="st19" d="M35.4,11.9l50.9,4.9c0,0.1,0,0.1,0,0.2c0,0.1,0,0.1,0,0.2c0,0.1,0,0.1,0,0.2c0,0.1,0,0.1,0,0.2l-50.8-4.7
					c0-0.1,0-0.1,0-0.2c0-0.1,0-0.1,0-0.2c0-0.1,0-0.1,0-0.2C35.4,12,35.4,12,35.4,11.9"/>
				<path class="st18" d="M35.5,12.7l50.8,4.7c0,0,0,0.1,0,0.1c0,0,0,0.1,0,0.1c0,0,0,0.1,0,0.1c0,0,0,0.1,0,0.1l-50.8-4.6
					c0-0.1,0-0.1,0-0.2c0-0.1,0-0.1,0-0.2c0-0.1,0-0.1,0-0.2C35.5,12.8,35.5,12.8,35.5,12.7"/>
				<path class="st17" d="M35.6,13.4L86.4,18c0,0,0,0.1,0,0.1c0,0,0,0.1,0,0.1c0,0,0,0.1,0,0.1c0,0,0,0.1,0,0.1L35.6,14
					c0,0,0-0.1,0-0.1c0,0,0-0.1,0-0.1c0,0,0-0.1,0-0.1C35.6,13.5,35.6,13.5,35.6,13.4"/>
				<path class="st16" d="M35.6,14l50.8,4.5c0,0,0,0.1,0,0.1c0,0,0,0.1,0,0.1c0,0,0,0.1,0,0.1c0,0,0,0.1,0,0.1l-50.8-4.4
					c0,0,0-0.1,0-0.1c0,0,0-0.1,0-0.1c0,0,0-0.1,0-0.1C35.6,14.1,35.6,14,35.6,14"/>
				<path class="st5" d="M35.5,14.5l50.8,4.4c0,0,0,0,0,0c0,0,0,0,0,0c0,0,0,0,0,0c0,0,0,0,0,0c0,0,0,0,0,0.1c0,0,0,0,0,0.1
					c0,0,0,0,0,0.1c0,0,0,0,0,0.1l-50.8-4.3c0,0,0-0.1,0-0.1c0,0,0-0.1,0-0.1c0,0,0-0.1,0-0.1c0,0,0-0.1,0-0.1c0,0,0,0,0,0
					C35.5,14.7,35.5,14.7,35.5,14.5C35.5,14.6,35.5,14.6,35.5,14.5C35.5,14.6,35.5,14.6,35.5,14.5"/>
				<path class="st6" d="M35.5,15.1l50.8,4.3c0,0,0,0.1,0,0.1c0,0,0,0.1,0,0.1c0,0,0,0.1,0,0.1c0,0,0,0.1,0,0.1l-50.8-4.2
					c0,0,0-0.1,0-0.1c0,0,0-0.1,0-0.1c0,0,0-0.1,0-0.1C35.5,15.2,35.5,15.1,35.5,15.1"/>
				<path class="st7" d="M35.4,15.6l50.8,4.2c0,0,0,0.1,0,0.1c0,0,0,0.1,0,0.1c0,0,0,0.1,0,0.1c0,0,0,0.1,0,0.1L35.3,16
					c0,0,0-0.1,0-0.1c0,0,0-0.1,0-0.1c0,0,0-0.1,0-0.1C35.4,15.6,35.4,15.6,35.4,15.6"/>
				<path class="st8" d="M35.3,16l50.9,4.1c0,0,0,0.1,0,0.1c0,0,0,0.1,0,0.1c0,0,0,0.1,0,0.1c0,0,0,0.1,0,0.1l-50.9-4
					c0,0,0-0.1,0-0.1c0,0,0-0.1,0-0.1c0,0,0-0.1,0-0.1C35.3,16.1,35.3,16.1,35.3,16"/>
				<path class="st9" d="M35.1,16.5l50.9,4c0,0,0,0.1,0,0.1c0,0,0,0.1,0,0.1c0,0,0,0.1,0,0.1c0,0,0,0.1,0,0.1L35,17c0,0,0-0.1,0-0.1
					c0,0,0-0.1,0-0.1c0,0,0-0.1,0-0.1C35.1,16.6,35.1,16.6,35.1,16.5"/>
				<path class="st10" d="M35,17l50.9,3.9c0,0,0,0.1,0,0.1c0,0,0,0.1,0,0.1c0,0,0,0.1,0,0.1c0,0,0,0.1,0,0.1l-50.9-3.8
					c0,0,0-0.1,0.1-0.1c0,0,0-0.1,0.1-0.1c0,0,0-0.1,0.1-0.1C34.9,17.1,34.9,17,35,17"/>
				<path class="st11" d="M34.7,17.5l50.9,3.8c0,0,0,0.1-0.1,0.1c0,0,0,0.1-0.1,0.1c0,0,0,0.1-0.1,0.1c0,0,0,0.1-0.1,0.1l-51-3.7
					c0,0,0-0.1,0.1-0.1c0,0,0-0.1,0.1-0.1c0,0,0-0.1,0.1-0.1C34.7,17.5,34.7,17.5,34.7,17.5"/>
				<path class="st12" d="M34.5,18l51,3.7c0,0,0,0.1-0.1,0.1c0,0,0,0.1-0.1,0.1c0,0-0.1,0.1-0.1,0.1c0,0-0.1,0.1-0.1,0.1l-51-3.6
					c0,0,0.1-0.1,0.1-0.1c0,0,0.1-0.1,0.1-0.1c0,0,0.1-0.1,0.1-0.1C34.4,18.1,34.4,18,34.5,18"/>
				<path class="st13" d="M34.1,18.5l51,3.6c0,0-0.1,0.1-0.1,0.1c0,0-0.1,0.1-0.1,0.1c0,0-0.1,0.1-0.1,0.1c0,0-0.1,0.1-0.1,0.1
					l-51.1-3.5c0,0,0.1-0.1,0.1-0.1c0-0.1,0.1-0.1,0.1-0.2c0-0.1,0.1-0.1,0.1-0.2C34,18.6,34.1,18.6,34.1,18.5"/>
				<path class="st14" d="M33.6,19.1l51.1,3.5c-0.3,0.3-0.6,0.5-0.9,0.8c-0.3,0.2-0.6,0.4-1,0.5c-0.3,0.1-0.7,0.3-1.1,0.3
					c-0.4,0.1-0.8,0.1-1.1,0.1l-51.9-3.1c0.5,0,0.9,0,1.4-0.1c0.4-0.1,0.9-0.2,1.3-0.4c0.4-0.2,0.8-0.4,1.2-0.7
					C32.9,19.8,33.3,19.5,33.6,19.1"/>
			</g>
		</g>
		<g>
			<polygon class="st42" points="44.5,77.1 93.7,69.6 93,75.4 43.7,84.3 			"/>
		</g>
		<g>
			<polygon class="st48" points="40.6,45.3 90.5,43.8 90.1,46.9 40.2,49.1 			"/>
		</g>
		<g>
			<polygon class="st49" points="35.7,44.6 86.4,43.3 90.5,43.8 40.6,45.3 			"/>
		</g>
		<g>
			<polygon class="st27" points="42.5,101.1 91.9,89 97.9,90.1 49.6,102.5 			"/>
		</g>
		<g>
			<polygon class="st50" points="49.6,102.5 97.9,90.1 96.7,99.5 48.3,114.1 			"/>
		</g>
		<g>
			<polygon class="st51" points="43.7,84.3 93,75.4 98.5,76.3 50.3,85.5 			"/>
		</g>
		<g>
			<polygon class="st52" points="21.6,62.3 74.5,57.6 98.5,61.3 50.2,67 			"/>
		</g>
		<g>
			<polygon class="st53" points="24.3,60.1 76.7,55.9 96.8,59 48.2,64 			"/>
		</g>
		<g>
			<polygon class="st54" points="44.5,77.1 93.7,69.6 99.2,70.5 51.1,78.3 			"/>
		</g>
		<g>
			<polygon class="st55" points="51.1,78.3 99.2,70.5 98.5,76.3 50.3,85.5 			"/>
		</g>
		<g>
			<polygon class="st44" points="40.6,45.3 90.5,43.8 98.5,45 50.1,46.7 			"/>
		</g>
		<g>
			<polygon class="st56" points="50.1,46.7 98.5,45 96.8,59 48.2,64 			"/>
		</g>
		<g>
			<polygon class="st57" points="57.8,79.4 104.8,71.4 104.1,77.3 57,86.7 			"/>
		</g>
		<g>
			<polygon class="st58" points="53.9,34.7 101.7,35.2 98.5,61.3 50.2,67 			"/>
		</g>
		<g>
			<polygon class="st59" points="25.1,30.6 77.5,32 101.7,35.2 53.9,34.7 			"/>
		</g>
		<g class="st0">
			<defs>
				<path id="SVGID_13_" class="st0" d="M65.5,114.9c15.2-5,30.4-9.9,45.6-14.9c-0.5,0.2-0.9,0.4-1.4,0.7c-0.4,0.3-0.8,0.6-1.1,1
					c-0.3,0.4-0.6,0.9-0.8,1.4c-0.2,0.5-0.4,1-0.4,1.6c-0.1,0.8,0,1.6,0.2,2.4c0.2,0.8,0.5,1.5,1,2.1c0.4,0.6,1,1.2,1.6,1.6
					c0.6,0.4,1.3,0.7,2.1,0.9l-45.3,17.6c-0.9-0.2-1.8-0.6-2.5-1.1c-0.8-0.5-1.4-1.2-1.9-2c-0.5-0.8-0.9-1.7-1.2-2.6
					c-0.2-0.9-0.3-1.9-0.2-2.9c0.1-0.7,0.3-1.4,0.5-2c0.2-0.6,0.6-1.2,1-1.7c0.4-0.5,0.8-0.9,1.3-1.3
					C64.4,115.4,64.9,115.1,65.5,114.9z"/>
			</defs>
			<clipPath id="SVGID_14_">
				<use xlink:href="#SVGID_13_"  style="overflow:visible;"/>
			</clipPath>
			<g class="st60">
				<path class="st40" d="M65.5,114.9l45.6-14.9c-0.2,0.1-0.4,0.1-0.6,0.2c-0.2,0.1-0.4,0.2-0.5,0.3c-0.2,0.1-0.3,0.2-0.5,0.3
					c-0.2,0.1-0.3,0.3-0.5,0.4l-46,15.1c0.2-0.2,0.4-0.3,0.5-0.5c0.2-0.1,0.4-0.3,0.6-0.4c0.2-0.1,0.4-0.2,0.6-0.3
					C65,115.1,65.3,115,65.5,114.9"/>
				<path class="st3" d="M63.1,116.4l46-15.1c0,0-0.1,0.1-0.1,0.1c0,0-0.1,0.1-0.1,0.1c0,0-0.1,0.1-0.1,0.1c0,0-0.1,0.1-0.1,0.1
					L62.5,117c0-0.1,0.1-0.1,0.1-0.2c0-0.1,0.1-0.1,0.1-0.1c0,0,0.1-0.1,0.1-0.1C63,116.5,63,116.4,63.1,116.4"/>
				<path class="st2" d="M62.5,117l46.1-15.3c0,0-0.1,0.1-0.1,0.1c0,0-0.1,0.1-0.1,0.1c0,0-0.1,0.1-0.1,0.1c0,0,0,0.1-0.1,0.1
					l-46.1,15.3c0,0,0.1-0.1,0.1-0.1c0,0,0.1-0.1,0.1-0.1c0,0,0.1-0.1,0.1-0.1C62.5,117.1,62.5,117,62.5,117"/>
				<path class="st41" d="M62.2,117.5l46.1-15.3c0,0,0,0.1-0.1,0.1c0,0,0,0.1-0.1,0.1c0,0,0,0.1-0.1,0.1c0,0,0,0.1-0.1,0.1L61.9,118
					c0,0,0-0.1,0.1-0.1c0,0,0-0.1,0.1-0.1c0,0,0-0.1,0.1-0.1C62.1,117.6,62.1,117.5,62.2,117.5"/>
				<path class="st38" d="M61.9,118l46.2-15.4c0,0,0,0.1-0.1,0.1c0,0,0,0.1,0,0.1c0,0,0,0.1,0,0.1c0,0,0,0.1,0,0.1l-46.2,15.5
					c0,0,0-0.1,0.1-0.1c0,0,0-0.1,0.1-0.1c0,0,0-0.1,0.1-0.1C61.8,118.1,61.9,118,61.9,118"/>
				<path class="st37" d="M61.7,118.4l46.2-15.5c0,0,0,0.1,0,0.1c0,0,0,0.1,0,0.1c0,0,0,0.1,0,0.1c0,0,0,0.1,0,0.1l-46.2,15.6
					c0,0,0-0.1,0-0.1c0,0,0-0.1,0-0.1c0,0,0-0.1,0-0.1C61.6,118.5,61.6,118.5,61.7,118.4"/>
				<path class="st36" d="M61.5,118.9l46.2-15.6c0,0,0,0.1,0,0.1c0,0,0,0.1,0,0.1c0,0,0,0.1,0,0.1c0,0,0,0.1,0,0.1l-46.3,15.7
					c0,0,0-0.1,0-0.1c0,0,0-0.1,0-0.1c0,0,0-0.1,0-0.1C61.4,119,61.5,118.9,61.5,118.9"/>
				<path class="st35" d="M61.3,119.4l46.3-15.7c0,0,0,0.1,0,0.1s0,0.1,0,0.1c0,0,0,0.1,0,0.1c0,0,0,0.1,0,0.1l-46.3,15.8
					c0,0,0-0.1,0-0.1c0,0,0-0.1,0-0.1c0,0,0-0.1,0-0.1C61.3,119.4,61.3,119.4,61.3,119.4"/>
				<path class="st34" d="M61.2,119.8l46.3-15.8c0,0,0,0.1,0,0.1c0,0,0,0.1,0,0.1c0,0,0,0.1,0,0.1c0,0,0,0.1,0,0.1l-46.3,15.9
					c0,0,0-0.1,0-0.1c0,0,0-0.1,0-0.1c0,0,0-0.1,0-0.1C61.2,119.9,61.2,119.9,61.2,119.8"/>
				<path class="st29" d="M61.1,120.3l46.3-15.9c0,0,0,0,0,0.1c0,0,0,0,0,0.1c0,0,0,0,0,0.1c0,0,0,0,0,0.1c0,0,0,0,0,0c0,0,0,0,0,0
					c0,0,0,0,0,0c0,0,0,0,0,0l-46.3,16c0,0,0,0,0,0c0,0,0,0,0,0c0,0,0,0,0,0c0,0,0,0,0,0c0,0,0-0.1,0-0.1c0,0,0-0.1,0-0.1
					C61.1,120.4,61.1,120.4,61.1,120.3C61.1,120.4,61.1,120.3,61.1,120.3"/>
				<path class="st30" d="M61,120.8l46.3-16c0,0,0,0.1,0,0.1c0,0,0,0.1,0,0.1c0,0,0,0.1,0,0.1c0,0,0,0.1,0,0.1L61,121.4
					c0,0,0-0.1,0-0.1c0,0,0-0.1,0-0.1c0,0,0-0.1,0-0.1C61,120.9,61,120.9,61,120.8"/>
				<path class="st31" d="M61,121.4l46.3-16.1c0,0,0,0.1,0,0.1c0,0,0,0.1,0,0.1c0,0,0,0.1,0,0.1c0,0,0,0.1,0,0.1L61,122
					c0,0,0-0.1,0-0.1c0,0,0-0.1,0-0.1c0,0,0-0.1,0-0.1C61,121.5,61,121.4,61,121.4"/>
				<path class="st32" d="M61,122l46.3-16.2c0,0,0,0.1,0,0.1c0,0,0,0.1,0,0.1c0,0,0,0.1,0,0.1c0,0,0,0.1,0,0.1l-46.3,16.3
					c0-0.1,0-0.1,0-0.2c0-0.1,0-0.1,0-0.2c0-0.1,0-0.1,0-0.2C61,122.1,61,122,61,122"/>
				<path class="st33" d="M61.1,122.6l46.3-16.3c0,0.1,0,0.1,0,0.2c0,0.1,0,0.1,0,0.2c0,0.1,0,0.1,0,0.2c0,0.1,0,0.1,0,0.2
					l-46.3,16.5c0-0.1,0-0.1,0-0.2c0-0.1,0-0.1,0-0.2c0-0.1,0-0.1,0-0.2C61.1,122.8,61.1,122.7,61.1,122.6"/>
				<path class="st25" d="M61.2,123.5l46.3-16.5c0.1,0.2,0.1,0.5,0.2,0.7c0.1,0.2,0.2,0.5,0.3,0.7c0.1,0.2,0.2,0.4,0.4,0.6
					c0.1,0.2,0.3,0.4,0.4,0.6l-46,17.1c-0.2-0.2-0.4-0.5-0.5-0.7c-0.2-0.3-0.3-0.5-0.5-0.8c-0.1-0.3-0.3-0.6-0.4-0.8
					C61.4,124.1,61.3,123.8,61.2,123.5"/>
				<path class="st33" d="M62.9,126.7l46-17.1c0,0,0.1,0.1,0.1,0.1c0,0,0.1,0.1,0.1,0.1c0,0,0.1,0.1,0.1,0.1c0,0,0.1,0.1,0.1,0.1
					l-45.9,17.2c-0.1,0-0.1-0.1-0.2-0.2c0-0.1-0.1-0.1-0.1-0.2c0-0.1-0.1-0.1-0.1-0.2C62.9,126.8,62.9,126.8,62.9,126.7"/>
				<path class="st32" d="M63.4,127.4l45.9-17.2c0,0,0.1,0.1,0.1,0.1c0,0,0.1,0.1,0.1,0.1c0,0,0.1,0.1,0.1,0.1c0,0,0.1,0.1,0.1,0.1
					l-45.8,17.3c0,0-0.1-0.1-0.1-0.1c0,0-0.1-0.1-0.1-0.1c0,0-0.1-0.1-0.1-0.1C63.5,127.4,63.5,127.4,63.4,127.4"/>
				<path class="st31" d="M63.9,127.8l45.8-17.3c0,0,0.1,0,0.1,0.1c0,0,0.1,0,0.1,0.1c0,0,0.1,0,0.1,0.1c0,0,0.1,0,0.1,0.1
					l-45.7,17.4c0,0-0.1-0.1-0.1-0.1c0,0-0.1-0.1-0.1-0.1c0,0-0.1-0.1-0.1-0.1C64,127.9,64,127.8,63.9,127.8"/>
				<path class="st30" d="M64.4,128.1l45.7-17.4c0,0,0.1,0,0.1,0.1c0,0,0.1,0,0.1,0.1c0,0,0.1,0,0.1,0.1c0,0,0.1,0,0.1,0.1
					l-45.6,17.5c0,0-0.1,0-0.1-0.1c0,0-0.1,0-0.1-0.1c0,0-0.1,0-0.1-0.1C64.4,128.2,64.4,128.2,64.4,128.1"/>
				<path class="st29" d="M64.8,128.4l45.6-17.5c0,0,0.1,0,0.1,0c0,0,0.1,0,0.1,0c0,0,0.1,0,0.1,0c0,0,0.1,0,0.1,0l-45.6,17.5
					c0,0-0.1,0-0.1-0.1c0,0-0.1,0-0.1-0.1c0,0-0.1,0-0.1-0.1C64.9,128.5,64.8,128.4,64.8,128.4"/>
				<path class="st34" d="M65.2,128.6l45.6-17.5c0,0,0.1,0,0.1,0c0,0,0.1,0,0.1,0c0,0,0.1,0,0.1,0c0,0,0.1,0,0.1,0l-45.5,17.5
					c0,0-0.1,0-0.1,0c0,0-0.1,0-0.1,0c0,0-0.1,0-0.1,0C65.3,128.7,65.3,128.7,65.2,128.6"/>
				<path class="st35" d="M65.6,128.8l45.5-17.5c0,0,0.1,0,0.1,0c0,0,0.1,0,0.1,0c0,0,0.1,0,0.1,0c0,0,0.1,0,0.1,0L66.1,129
					c0,0-0.1,0-0.1,0c0,0-0.1,0-0.1,0c0,0-0.1,0-0.1,0C65.7,128.9,65.7,128.9,65.6,128.8"/>
				<path class="st36" d="M66.1,129l45.4-17.6c0,0,0.1,0,0.1,0c0,0,0.1,0,0.1,0c0,0,0.1,0,0.1,0c0,0,0.1,0,0.1,0l-45.4,17.6
					c0,0-0.1,0-0.1,0c0,0-0.1,0-0.1,0c0,0-0.1,0-0.1,0C66.1,129,66.1,129,66.1,129"/>
				<path class="st37" d="M66.5,129.1l45.4-17.6c0,0,0,0,0.1,0c0,0,0,0,0.1,0c0,0,0,0,0.1,0c0,0,0,0,0.1,0l-45.3,17.6
					c0,0-0.1,0-0.1,0c0,0-0.1,0-0.1,0C66.7,129.2,66.6,129.2,66.5,129.1C66.6,129.2,66.5,129.1,66.5,129.1"/>
			</g>
		</g>
		<g class="st0">
			<defs>
				<path id="SVGID_15_" class="st0" d="M115.1,111.3c-14.9,5.9-29.8,11.7-44.7,17.6c-0.3,0.1-0.5,0.2-0.8,0.3
					c-0.3,0.1-0.6,0.1-0.9,0.1c-0.3,0-0.6,0-0.9,0c-0.3,0-0.6-0.1-0.9-0.1l45.3-17.6c0.3,0,0.5,0.1,0.8,0.1c0.3,0,0.5,0,0.7,0
					c0.2,0,0.5-0.1,0.7-0.1C114.6,111.5,114.8,111.4,115.1,111.3z"/>
			</defs>
			<clipPath id="SVGID_16_">
				<use xlink:href="#SVGID_15_"  style="overflow:visible;"/>
			</clipPath>
			<g class="st61">
				<path class="st37" d="M66.9,129.2l45.3-17.6c0,0,0,0,0,0c0,0,0,0,0,0c0,0,0,0,0,0c0,0,0,0,0,0L67,129.2
					C67,129.2,67,129.2,66.9,129.2C66.9,129.2,66.9,129.2,66.9,129.2C66.9,129.2,66.9,129.2,66.9,129.2
					C66.9,129.2,66.9,129.2,66.9,129.2"/>
				<path class="st38" d="M67,129.2l45.3-17.6c0,0,0.1,0,0.1,0c0,0,0.1,0,0.1,0c0,0,0.1,0,0.1,0c0,0,0.1,0,0.1,0l-45.2,17.7
					c0,0-0.1,0-0.1,0c0,0-0.1,0-0.1,0c0,0-0.1,0-0.1,0C67.1,129.3,67,129.3,67,129.2"/>
				<path class="st41" d="M67.5,129.3l45.2-17.7c0,0,0.1,0,0.1,0c0,0,0.1,0,0.1,0c0,0,0.1,0,0.1,0c0,0,0.1,0,0.1,0L68,129.3
					c0,0-0.1,0-0.1,0c0,0-0.1,0-0.1,0c0,0-0.1,0-0.1,0C67.6,129.3,67.5,129.3,67.5,129.3"/>
				<path class="st2" d="M68,129.3l45.1-17.7c0,0,0.1,0,0.1,0c0,0,0.1,0,0.1,0c0,0,0.1,0,0.1,0c0,0,0.1,0,0.1,0l-45,17.7
					c0,0-0.1,0-0.1,0c0,0-0.1,0-0.2,0c-0.1,0-0.1,0-0.2,0C68.1,129.3,68.1,129.3,68,129.3"/>
				<path class="st3" d="M68.6,129.3l45-17.7c0.1,0,0.1,0,0.2,0c0.1,0,0.1,0,0.2,0c0.1,0,0.1,0,0.2,0c0.1,0,0.1,0,0.2,0l-44.9,17.7
					c-0.1,0-0.1,0-0.2,0c-0.1,0-0.1,0-0.2,0c-0.1,0-0.1,0-0.2,0C68.7,129.3,68.7,129.3,68.6,129.3"/>
				<path class="st40" d="M69.4,129.2l44.9-17.7c0.1,0,0.1,0,0.2,0c0.1,0,0.1,0,0.2-0.1c0.1,0,0.1,0,0.2-0.1c0.1,0,0.1,0,0.2-0.1
					l-44.7,17.6c-0.1,0-0.2,0.1-0.2,0.1c-0.1,0-0.2,0.1-0.2,0.1c-0.1,0-0.2,0-0.2,0.1C69.5,129.2,69.4,129.2,69.4,129.2"/>
			</g>
		</g>
		<g class="st0">
			<defs>
				<path id="SVGID_17_" class="st0" d="M65.5,114.9c15.2-5,30.4-9.9,45.6-14.9c0.2-0.1,0.4-0.1,0.6-0.2c0.2,0,0.4-0.1,0.6-0.1
					c0.2,0,0.4,0,0.7,0c0.2,0,0.4,0,0.7,0.1c0.8,0.1,1.5,0.4,2.1,0.9c0.6,0.4,1.2,1,1.6,1.6c0.4,0.6,0.8,1.3,1,2.1
					c0.2,0.8,0.3,1.6,0.2,2.4c-0.1,0.5-0.2,1.1-0.4,1.5c-0.2,0.5-0.4,0.9-0.7,1.3c-0.3,0.4-0.6,0.7-1,1c-0.4,0.3-0.8,0.5-1.3,0.7
					c-14.9,5.9-29.8,11.7-44.7,17.6c0.5-0.2,1-0.5,1.5-0.9c0.5-0.4,0.9-0.8,1.2-1.3c0.4-0.5,0.7-1,0.9-1.6c0.2-0.6,0.4-1.2,0.5-1.9
					c0.1-1,0-2-0.2-2.9c-0.2-0.9-0.6-1.8-1.2-2.6c-0.5-0.8-1.2-1.5-2-2c-0.8-0.5-1.6-0.9-2.5-1.1c-0.3-0.1-0.5-0.1-0.8-0.1
					c-0.3,0-0.5,0-0.8,0c-0.3,0-0.5,0-0.8,0.1C66,114.8,65.7,114.8,65.5,114.9z"/>
			</defs>
			<clipPath id="SVGID_18_">
				<use xlink:href="#SVGID_17_"  style="overflow:visible;"/>
			</clipPath>
			<g class="st62">
				<path class="st14" d="M65.5,114.9l45.6-14.9c0,0,0.1,0,0.1,0c0,0,0.1,0,0.1,0c0,0,0.1,0,0.1,0c0,0,0.1,0,0.1,0l-45.5,14.9
					c0,0-0.1,0-0.1,0c0,0-0.1,0-0.1,0c0,0-0.1,0-0.1,0C65.6,114.9,65.5,114.9,65.5,114.9"/>
				<path class="st13" d="M66.1,114.7l45.5-14.9c0.1,0,0.1,0,0.2,0c0.1,0,0.1,0,0.2,0c0.1,0,0.1,0,0.2,0c0.1,0,0.1,0,0.2,0
					l-45.4,14.8c-0.1,0-0.1,0-0.2,0c-0.1,0-0.1,0-0.2,0c-0.1,0-0.1,0-0.2,0C66.2,114.7,66.1,114.7,66.1,114.7"/>
				<path class="st12" d="M66.8,114.6l45.4-14.8c0,0,0.1,0,0.1,0c0,0,0.1,0,0.1,0c0,0,0.1,0,0.1,0c0,0,0.1,0,0.1,0l-45.3,14.8
					c-0.1,0-0.1,0-0.2,0c-0.1,0-0.1,0-0.2,0c-0.1,0-0.1,0-0.2,0C66.9,114.6,66.9,114.6,66.8,114.6"/>
				<path class="st11" d="M67.4,114.6l45.3-14.8c0,0,0.1,0,0.1,0c0,0,0.1,0,0.1,0c0,0,0.1,0,0.1,0c0,0,0.1,0,0.1,0l-45.2,14.8
					c0,0-0.1,0-0.1,0c0,0-0.1,0-0.1,0c0,0-0.1,0-0.1,0C67.5,114.6,67.5,114.6,67.4,114.6"/>
				<path class="st10" d="M67.9,114.6l45.2-14.8c0,0,0.1,0,0.1,0c0,0,0.1,0,0.1,0c0,0,0.1,0,0.1,0c0,0,0.1,0,0.1,0l-45.1,14.9
					c0,0-0.1,0-0.1,0c0,0-0.1,0-0.1,0c0,0-0.1,0-0.1,0C68,114.6,68,114.6,67.9,114.6"/>
				<path class="st9" d="M68.4,114.7l45.1-14.9c0,0,0,0,0,0c0,0,0,0,0,0c0,0,0,0,0,0c0,0,0,0,0,0c0,0,0,0,0.1,0c0,0,0,0,0.1,0
					c0,0,0,0,0.1,0c0,0,0,0,0.1,0l-45,14.9c0,0-0.1,0-0.1,0c0,0-0.1,0-0.1,0c0,0-0.1,0-0.1,0c0,0-0.1,0-0.1,0
					C68.6,114.7,68.5,114.7,68.4,114.7C68.5,114.7,68.5,114.7,68.4,114.7C68.5,114.7,68.5,114.7,68.4,114.7
					C68.5,114.7,68.4,114.7,68.4,114.7"/>
				<path class="st8" d="M68.9,114.8l45-14.9c0,0,0.1,0,0.1,0c0,0,0.1,0,0.1,0c0,0,0.1,0,0.1,0c0,0,0.1,0,0.1,0l-44.9,14.9
					c0,0-0.1,0-0.1,0c0,0-0.1,0-0.1,0c0,0-0.1,0-0.1,0C69,114.8,68.9,114.8,68.9,114.8"/>
				<path class="st7" d="M69.4,114.9l44.9-14.9c0,0,0.1,0,0.1,0c0,0,0.1,0,0.1,0c0,0,0.1,0,0.1,0c0,0,0.1,0,0.1,0l-44.9,15
					c0,0-0.1,0-0.1,0c0,0-0.1,0-0.1,0c0,0-0.1,0-0.1,0C69.4,115,69.4,114.9,69.4,114.9"/>
				<path class="st6" d="M69.8,115.1l44.9-15c0,0,0.1,0,0.1,0c0,0,0.1,0,0.1,0c0,0,0.1,0,0.1,0c0,0,0.1,0,0.1,0l-44.8,15
					c0,0-0.1,0-0.1-0.1c0,0-0.1,0-0.1,0c0,0-0.1,0-0.1,0C69.9,115.1,69.8,115.1,69.8,115.1"/>
				<path class="st5" d="M70.2,115.3l44.8-15c0,0,0.1,0,0.1,0c0,0,0.1,0,0.1,0c0,0,0.1,0,0.1,0c0,0,0.1,0,0.1,0l-44.7,15
					c0,0-0.1,0-0.1-0.1c0,0-0.1,0-0.1-0.1c0,0-0.1,0-0.1-0.1C70.3,115.3,70.2,115.3,70.2,115.3"/>
				<path class="st16" d="M70.6,115.5l44.7-15c0,0,0.1,0,0.1,0.1c0,0,0.1,0,0.1,0.1c0,0,0.1,0,0.1,0.1c0,0,0.1,0,0.1,0.1l-44.7,15.1
					c0,0-0.1,0-0.1-0.1c0,0-0.1,0-0.1-0.1c0,0-0.1,0-0.1-0.1C70.7,115.6,70.7,115.5,70.6,115.5"/>
				<path class="st17" d="M71.1,115.8l44.7-15.1c0,0,0.1,0,0.1,0.1c0,0,0.1,0,0.1,0.1c0,0,0.1,0,0.1,0.1c0,0,0.1,0,0.1,0.1
					l-44.6,15.2c0,0-0.1-0.1-0.1-0.1c0,0-0.1-0.1-0.1-0.1c0,0-0.1-0.1-0.1-0.1C71.1,115.8,71.1,115.8,71.1,115.8"/>
				<path class="st18" d="M71.5,116.1l44.6-15.2c0,0,0.1,0.1,0.1,0.1c0,0,0.1,0.1,0.1,0.1c0,0,0.1,0.1,0.1,0.1c0,0,0.1,0.1,0.1,0.1
					L72,116.6c0,0-0.1-0.1-0.1-0.1c0,0-0.1-0.1-0.1-0.1c0,0-0.1-0.1-0.1-0.1C71.6,116.2,71.6,116.2,71.5,116.1"/>
				<path class="st19" d="M72,116.6l44.5-15.3c0,0,0.1,0.1,0.1,0.1c0,0,0.1,0.1,0.1,0.1c0,0,0.1,0.1,0.1,0.1c0,0,0.1,0.1,0.1,0.1
					l-44.4,15.4c0-0.1-0.1-0.1-0.1-0.2c0-0.1-0.1-0.1-0.1-0.2c0-0.1-0.1-0.1-0.1-0.2C72.1,116.7,72.1,116.6,72,116.6"/>
				<path class="st20" d="M72.6,117.2l44.4-15.4c0.2,0.2,0.3,0.4,0.4,0.6c0.1,0.2,0.3,0.4,0.4,0.6c0.1,0.2,0.2,0.4,0.3,0.7
					c0.1,0.2,0.2,0.5,0.2,0.7l-44.1,16c-0.1-0.3-0.2-0.6-0.3-0.9c-0.1-0.3-0.2-0.6-0.4-0.9c-0.1-0.3-0.3-0.5-0.5-0.8
					C73,117.7,72.8,117.4,72.6,117.2"/>
				<path class="st19" d="M74.3,120.5l44.1-16c0,0.1,0,0.1,0,0.2c0,0.1,0,0.1,0,0.2c0,0.1,0,0.1,0,0.2c0,0.1,0,0.1,0,0.2l-44.1,16.2
					c0-0.1,0-0.1,0-0.2c0-0.1,0-0.1,0-0.2c0-0.1,0-0.1,0-0.2C74.3,120.6,74.3,120.5,74.3,120.5"/>
				<path class="st18" d="M74.4,121.3l44.1-16.2c0,0,0,0.1,0,0.1c0,0,0,0.1,0,0.1c0,0,0,0.1,0,0.1c0,0,0,0.1,0,0.1L74.5,122
					c0-0.1,0-0.1,0-0.2c0-0.1,0-0.1,0-0.2c0-0.1,0-0.1,0-0.2C74.4,121.4,74.4,121.4,74.4,121.3"/>
				<path class="st17" d="M74.5,122l44.1-16.3c0,0,0,0.1,0,0.1c0,0,0,0.1,0,0.1c0,0,0,0.1,0,0.1c0,0,0,0.1,0,0.1l-44.1,16.4
					c0,0,0-0.1,0-0.2c0,0,0-0.1,0-0.1c0,0,0-0.1,0-0.1C74.5,122.1,74.5,122,74.5,122"/>
				<path class="st16" d="M74.5,122.6l44.1-16.4c0,0,0,0.1,0,0.1c0,0,0,0.1,0,0.1c0,0,0,0.1,0,0.1c0,0,0,0.1,0,0.1l-44.1,16.5
					c0,0,0-0.1,0-0.1c0,0,0-0.1,0-0.1c0,0,0-0.1,0-0.1C74.5,122.7,74.5,122.6,74.5,122.6"/>
				<path class="st5" d="M74.4,123.1l44.1-16.5c0,0,0,0,0,0c0,0,0,0,0,0c0,0,0,0,0,0c0,0,0,0,0,0c0,0,0,0,0,0.1c0,0,0,0,0,0.1
					c0,0,0,0,0,0.1c0,0,0,0,0,0.1l-44.1,16.6c0,0,0-0.1,0-0.1c0,0,0-0.1,0-0.1c0,0,0-0.1,0-0.1c0,0,0-0.1,0-0.1c0,0,0,0,0,0
					C74.4,123.3,74.4,123.3,74.4,123.1C74.4,123.2,74.4,123.2,74.4,123.1C74.4,123.2,74.4,123.2,74.4,123.1"/>
				<path class="st6" d="M74.4,123.7l44.1-16.6c0,0,0,0.1,0,0.1c0,0,0,0.1,0,0.1c0,0,0,0.1,0,0.1c0,0,0,0.1,0,0.1l-44.1,16.7
					c0,0,0-0.1,0-0.1c0,0,0-0.1,0-0.1c0,0,0-0.1,0-0.1C74.4,123.7,74.4,123.7,74.4,123.7"/>
				<path class="st7" d="M74.3,124.2l44.1-16.7c0,0,0,0.1,0,0.1c0,0,0,0.1,0,0.1c0,0,0,0.1,0,0.1c0,0,0,0.1,0,0.1l-44.1,16.8
					c0,0,0-0.1,0-0.1c0,0,0-0.1,0-0.1c0,0,0-0.1,0-0.1C74.3,124.2,74.3,124.2,74.3,124.2"/>
				<path class="st8" d="M74.2,124.6l44.1-16.8c0,0,0,0.1,0,0.1c0,0,0,0.1,0,0.1c0,0,0,0.1,0,0.1c0,0,0,0.1,0,0.1L74,125.1
					c0,0,0-0.1,0-0.1c0,0,0-0.1,0-0.1c0,0,0-0.1,0-0.1C74.1,124.7,74.1,124.7,74.2,124.6"/>
				<path class="st9" d="M74,125.1l44.1-16.9c0,0,0,0.1,0,0.1c0,0,0,0.1,0,0.1c0,0,0,0.1,0,0.1c0,0,0,0.1,0,0.1l-44.2,17
					c0,0,0-0.1,0-0.1c0,0,0-0.1,0-0.1c0,0,0-0.1,0-0.1C74,125.2,74,125.1,74,125.1"/>
				<path class="st10" d="M73.8,125.5l44.2-17c0,0,0,0.1,0,0.1c0,0,0,0.1,0,0.1c0,0,0,0.1,0,0.1c0,0,0,0.1-0.1,0.1L73.6,126
					c0,0,0-0.1,0.1-0.1c0,0,0-0.1,0.1-0.1c0,0,0-0.1,0.1-0.1C73.8,125.6,73.8,125.6,73.8,125.5"/>
				<path class="st11" d="M73.6,126l44.2-17.1c0,0,0,0.1-0.1,0.1c0,0,0,0.1-0.1,0.1c0,0,0,0.1-0.1,0.1c0,0,0,0.1-0.1,0.1l-44.2,17.2
					c0,0,0.1-0.1,0.1-0.1c0,0,0-0.1,0.1-0.1c0,0,0-0.1,0.1-0.1C73.5,126.1,73.6,126.1,73.6,126"/>
				<path class="st12" d="M73.3,126.5l44.2-17.2c0,0,0,0.1-0.1,0.1c0,0-0.1,0.1-0.1,0.1c0,0-0.1,0.1-0.1,0.1c0,0-0.1,0.1-0.1,0.1
					L72.9,127c0,0,0.1-0.1,0.1-0.1c0,0,0.1-0.1,0.1-0.1c0,0,0.1-0.1,0.1-0.1C73.2,126.6,73.3,126.5,73.3,126.5"/>
				<path class="st13" d="M72.9,127l44.3-17.3c0,0-0.1,0.1-0.1,0.1c0,0-0.1,0.1-0.1,0.1c0,0-0.1,0.1-0.1,0.1c0,0-0.1,0.1-0.1,0.1
					l-44.4,17.4c0,0,0.1-0.1,0.1-0.1c0,0,0.1-0.1,0.1-0.1c0,0,0.1-0.1,0.1-0.1C72.8,127.1,72.9,127.1,72.9,127"/>
				<path class="st14" d="M72.4,127.6l44.4-17.4c-0.1,0.1-0.3,0.2-0.4,0.3c-0.1,0.1-0.3,0.2-0.4,0.3c-0.1,0.1-0.3,0.2-0.4,0.3
					c-0.2,0.1-0.3,0.1-0.5,0.2l-44.7,17.6c0.2-0.1,0.4-0.2,0.6-0.3c0.2-0.1,0.4-0.2,0.5-0.3c0.2-0.1,0.3-0.2,0.5-0.4
					C72.1,127.9,72.2,127.7,72.4,127.6"/>
			</g>
		</g>
		<g>
			<polygon class="st63" points="75.4,107.3 119.4,93.8 118.6,100 74.5,115 			"/>
		</g>
		<g>
			<polygon class="st27" points="75.4,107.3 119.4,93.8 125.6,94.9 82.9,108.8 			"/>
		</g>
		<g>
			<polygon class="st64" points="74.5,115 118.6,100 124.8,101.1 81.9,116.5 			"/>
		</g>
		<g>
			<polygon class="st65" points="82.9,108.8 125.6,94.9 124.8,101.1 81.9,116.5 			"/>
		</g>
		<g>
			<polygon class="st66" points="21.4,97.1 74.2,85.9 131.3,95.9 89.8,110.1 			"/>
		</g>
		<g>
			<polygon class="st67" points="21.8,93.8 74.5,83.2 131.7,93.1 90.2,106.6 			"/>
		</g>
		<g>
			<polygon class="st51" points="57,86.7 104.1,77.3 109.6,78.2 63.7,87.9 			"/>
		</g>
		<g>
			<polygon class="st54" points="57.8,79.4 104.8,71.4 110.4,72.3 64.5,80.6 			"/>
		</g>
		<g>
			<polygon class="st55" points="64.5,80.6 110.4,72.3 109.6,78.2 63.7,87.9 			"/>
		</g>
		<g>
			<polygon class="st57" points="62.7,27.5 109,29.4 104.5,66 57.5,72.8 			"/>
		</g>
		<g>
			<polygon class="st58" points="65.1,30.9 111,32.2 107.1,64 60.5,70.3 			"/>
		</g>
		<g>
			<polygon class="st68" points="78.6,52 122.2,49.2 121.7,53.7 78,57.6 			"/>
		</g>
		<g>
			<polygon class="st69" points="78,57.6 121.7,53.7 126,54.3 83.2,58.4 			"/>
		</g>
		<g>
			<polygon class="st70" points="90.2,106.6 89.8,110.1 21.4,97.1 21.8,93.8 			"/>
		</g>
		<g>
			<polygon class="st71" points="90.2,106.6 131.7,93.1 131.3,95.9 89.8,110.1 			"/>
		</g>
		<g>
			<polygon class="st72" points="78.6,52 122.2,49.2 126.6,49.8 83.9,52.8 			"/>
		</g>
		<g>
			<polygon class="st73" points="83.9,52.8 126.6,49.8 126,54.3 83.2,58.4 			"/>
		</g>
		<g>
			<polygon class="st30" points="57.5,72.8 104.5,66 139.8,71.6 99.9,79.9 			"/>
		</g>
		<g>
			<polygon class="st74" points="60.5,70.3 107.1,64 137.7,68.7 97.4,76.4 			"/>
		</g>
		<g class="st0">
			<defs>
				<path id="SVGID_19_" class="st0" d="M135.5,83.4c-0.1,0.8,0,1.6,0.2,2.4c0.2,0.8,0.5,1.5,1,2.1c0.5,0.6,1,1.2,1.7,1.6
					c0.7,0.4,1.4,0.7,2.2,0.9l-39.6,12.9c-1-0.2-1.9-0.6-2.7-1.1c-0.8-0.5-1.5-1.2-2-2c-0.5-0.8-1-1.7-1.2-2.6c-0.2-1-0.3-2-0.2-3
					c0.1-0.8,0.3-1.5,0.6-2.2c0.3-0.7,0.7-1.3,1.1-1.8c0.5-0.5,1-1,1.6-1.4c0.6-0.4,1.2-0.6,1.9-0.8l39.8-10
					c-0.6,0.1-1.1,0.4-1.6,0.7c-0.5,0.3-0.9,0.7-1.3,1.1c-0.4,0.4-0.7,0.9-0.9,1.5C135.8,82.2,135.6,82.8,135.5,83.4z"/>
			</defs>
			<clipPath id="SVGID_20_">
				<use xlink:href="#SVGID_19_"  style="overflow:visible;"/>
			</clipPath>
			<g class="st75">
				<path class="st40" d="M100,88.4l39.8-10c-0.2,0.1-0.5,0.1-0.7,0.2c-0.2,0.1-0.4,0.2-0.7,0.3c-0.2,0.1-0.4,0.3-0.6,0.4
					c-0.2,0.1-0.4,0.3-0.6,0.5L97,90.2c0.2-0.2,0.4-0.4,0.7-0.6c0.2-0.2,0.5-0.3,0.7-0.5c0.3-0.1,0.5-0.3,0.8-0.4
					C99.5,88.6,99.7,88.5,100,88.4"/>
				<path class="st3" d="M97,90.2l40.3-10.3c0,0-0.1,0.1-0.1,0.1c0,0-0.1,0.1-0.1,0.1c0,0-0.1,0.1-0.1,0.1c0,0-0.1,0.1-0.1,0.1
					L96.4,90.8c0-0.1,0.1-0.1,0.1-0.2c0-0.1,0.1-0.1,0.1-0.2c0-0.1,0.1-0.1,0.1-0.2C96.9,90.3,96.9,90.2,97,90.2"/>
				<path class="st2" d="M96.4,90.8l40.4-10.4c0,0-0.1,0.1-0.1,0.1c0,0-0.1,0.1-0.1,0.1c0,0-0.1,0.1-0.1,0.1c0,0-0.1,0.1-0.1,0.1
					L96,91.3c0,0,0.1-0.1,0.1-0.1c0,0,0.1-0.1,0.1-0.1c0,0,0.1-0.1,0.1-0.1C96.3,90.9,96.4,90.8,96.4,90.8"/>
				<path class="st41" d="M96,91.3l40.5-10.5c0,0,0,0.1-0.1,0.1c0,0,0,0.1-0.1,0.1c0,0,0,0.1-0.1,0.1c0,0,0,0.1-0.1,0.1L95.7,91.8
					c0,0,0-0.1,0.1-0.1c0,0,0-0.1,0.1-0.1c0,0,0.1-0.1,0.1-0.1C96,91.4,96,91.3,96,91.3"/>
				<path class="st38" d="M95.7,91.8l40.5-10.6c0,0,0,0.1-0.1,0.1c0,0,0,0.1-0.1,0.1c0,0,0,0.1,0,0.1c0,0,0,0.1,0,0.1L95.5,92.3
					c0,0,0-0.1,0.1-0.1c0,0,0-0.1,0.1-0.1c0,0,0-0.1,0.1-0.1C95.7,91.9,95.7,91.8,95.7,91.8"/>
				<path class="st37" d="M95.5,92.3l40.6-10.7c0,0,0,0.1,0,0.1c0,0,0,0.1,0,0.1c0,0,0,0.1,0,0.1c0,0,0,0.1,0,0.1L95.3,92.8
					c0,0,0-0.1,0-0.1c0,0,0-0.1,0-0.1c0,0,0-0.1,0.1-0.1C95.4,92.4,95.5,92.3,95.5,92.3"/>
				<path class="st36" d="M95.3,92.8l40.6-10.8c0,0,0,0.1,0,0.1c0,0,0,0.1,0,0.1c0,0,0,0.1,0,0.1c0,0,0,0.1,0,0.1L95.1,93.2
					c0,0,0-0.1,0-0.1c0,0,0-0.1,0-0.1c0,0,0-0.1,0-0.1C95.3,92.8,95.3,92.8,95.3,92.8"/>
				<path class="st35" d="M95.1,93.2l40.6-10.9c0,0,0,0.1,0,0.1c0,0,0,0.1,0,0.1c0,0,0,0.1,0,0.1c0,0,0,0.1,0,0.1L95,93.7
					c0,0,0-0.1,0-0.1c0,0,0-0.1,0-0.1c0,0,0-0.1,0-0.1C95.1,93.3,95.1,93.3,95.1,93.2"/>
				<path class="st34" d="M95,93.7l40.7-11c0,0,0,0.1,0,0.1c0,0,0,0.1,0,0.1c0,0,0,0.1,0,0.1c0,0,0,0.1,0,0.1L94.9,94.2
					c0,0,0-0.1,0-0.1c0,0,0-0.1,0-0.1c0,0,0-0.1,0-0.1C95,93.8,95,93.8,95,93.7"/>
				<path class="st29" d="M94.9,94.2l40.7-11.1c0,0,0,0,0,0.1c0,0,0,0,0,0.1c0,0,0,0,0,0.1c0,0,0,0,0,0.1c0,0,0,0,0,0c0,0,0,0,0,0
					c0,0,0,0,0,0c0,0,0,0,0,0L94.8,94.8c0,0,0,0,0,0c0,0,0,0,0,0c0,0,0,0,0,0c0,0,0,0,0,0c0,0,0-0.1,0-0.1c0,0,0-0.1,0-0.1
					C94.9,94.4,94.9,94.3,94.9,94.2C94.9,94.3,94.9,94.3,94.9,94.2"/>
				<path class="st30" d="M94.8,94.8l40.7-11.2c0,0,0,0.1,0,0.1c0,0,0,0.1,0,0.1c0,0,0,0.1,0,0.1c0,0,0,0.1,0,0.1L94.8,95.3
					c0,0,0-0.1,0-0.1c0,0,0-0.1,0-0.1c0,0,0-0.1,0-0.1C94.8,94.9,94.8,94.8,94.8,94.8"/>
				<path class="st31" d="M94.8,95.3L135.5,84c0,0,0,0.1,0,0.1c0,0,0,0.1,0,0.1c0,0,0,0.1,0,0.1c0,0,0,0.1,0,0.1L94.8,95.9
					c0-0.1,0-0.1,0-0.2c0-0.1,0-0.1,0-0.2c0-0.1,0-0.1,0-0.2C94.8,95.4,94.8,95.4,94.8,95.3"/>
				<path class="st32" d="M94.8,95.9l40.7-11.4c0,0,0,0.1,0,0.1c0,0,0,0.1,0,0.1c0,0,0,0.1,0,0.1c0,0,0,0.1,0,0.1L94.9,96.6
					c0-0.1,0-0.1,0-0.2c0-0.1,0-0.1,0-0.2c0-0.1,0-0.1,0-0.2C94.8,96,94.8,96,94.8,95.9"/>
				<path class="st33" d="M94.9,96.6l40.7-11.6c0,0.1,0,0.1,0,0.2c0,0.1,0,0.1,0,0.2c0,0.1,0,0.1,0,0.2c0,0.1,0,0.1,0,0.2L95,97.5
					c0-0.1,0-0.1,0-0.2c0-0.1,0-0.1,0-0.2c0-0.1,0-0.1,0-0.2C94.9,96.8,94.9,96.7,94.9,96.6"/>
				<path class="st25" d="M95,97.5l40.7-11.7c0.1,0.2,0.1,0.5,0.2,0.7c0.1,0.2,0.2,0.5,0.3,0.7c0.1,0.2,0.2,0.4,0.4,0.6
					c0.1,0.2,0.3,0.4,0.5,0.6l-40.3,12.4c-0.2-0.2-0.4-0.5-0.6-0.7c-0.2-0.3-0.3-0.5-0.5-0.8c-0.1-0.3-0.3-0.6-0.4-0.9
					C95.2,98.1,95.1,97.8,95,97.5"/>
				<path class="st33" d="M96.7,100.8l40.3-12.4c0,0,0.1,0.1,0.1,0.1c0,0,0.1,0.1,0.1,0.1c0,0,0.1,0.1,0.1,0.1c0,0,0.1,0.1,0.1,0.1
					l-40.2,12.5c-0.1,0-0.1-0.1-0.2-0.2c-0.1-0.1-0.1-0.1-0.2-0.2c-0.1-0.1-0.1-0.1-0.1-0.2C96.8,100.9,96.8,100.9,96.7,100.8"/>
				<path class="st32" d="M97.3,101.4l40.2-12.5c0,0,0.1,0.1,0.1,0.1c0,0,0.1,0.1,0.1,0.1c0,0,0.1,0.1,0.1,0.1c0,0,0.1,0.1,0.1,0.1
					l-40.2,12.6c0,0-0.1-0.1-0.1-0.1c0,0-0.1-0.1-0.1-0.1c0,0-0.1-0.1-0.1-0.1C97.4,101.5,97.4,101.5,97.3,101.4"/>
				<path class="st31" d="M97.8,101.9L138,89.3c0,0,0.1,0,0.1,0.1c0,0,0.1,0,0.1,0.1c0,0,0.1,0,0.1,0.1c0,0,0.1,0,0.1,0.1
					l-40.1,12.7c0,0-0.1-0.1-0.1-0.1c0,0-0.1-0.1-0.1-0.1c0,0-0.1-0.1-0.1-0.1C97.9,101.9,97.9,101.9,97.8,101.9"/>
				<path class="st30" d="M98.3,102.2l40.1-12.7c0,0,0.1,0,0.1,0.1c0,0,0.1,0,0.1,0.1c0,0,0.1,0,0.1,0.1c0,0,0.1,0,0.1,0.1l-40,12.8
					c0,0-0.1,0-0.1-0.1c0,0-0.1,0-0.1-0.1c0,0-0.1,0-0.1-0.1C98.4,102.3,98.3,102.2,98.3,102.2"/>
				<path class="st29" d="M98.8,102.5l40-12.8c0,0,0.1,0,0.1,0c0,0,0.1,0,0.1,0c0,0,0.1,0,0.1,0c0,0,0.1,0,0.1,0l-39.9,12.8
					c0,0-0.1,0-0.1-0.1c0,0-0.1,0-0.1-0.1c0,0-0.1,0-0.1-0.1C98.8,102.5,98.8,102.5,98.8,102.5"/>
				<path class="st34" d="M99.2,102.7l39.9-12.8c0,0,0.1,0,0.1,0c0,0,0.1,0,0.1,0c0,0,0.1,0,0.1,0s0.1,0,0.1,0l-39.8,12.8
					c0,0-0.1,0-0.1,0c0,0-0.1,0-0.1,0c0,0-0.1,0-0.1,0C99.3,102.8,99.2,102.7,99.2,102.7"/>
				<path class="st35" d="M99.7,102.9l39.8-12.8c0,0,0.1,0,0.1,0c0,0,0.1,0,0.1,0c0,0,0.1,0,0.1,0c0,0,0.1,0,0.1,0l-39.8,12.9
					c0,0-0.1,0-0.1,0c0,0-0.1,0-0.1,0c0,0-0.1,0-0.1,0C99.7,102.9,99.7,102.9,99.7,102.9"/>
				<path class="st36" d="M100.1,103.1l39.8-12.9c0,0,0.1,0,0.1,0c0,0,0.1,0,0.1,0c0,0,0.1,0,0.1,0c0,0,0.1,0,0.1,0l-39.7,12.9
					c0,0-0.1,0-0.1,0c0,0-0.1,0-0.1,0c0,0-0.1,0-0.1,0C100.2,103.1,100.1,103.1,100.1,103.1"/>
				<path class="st37" d="M100.6,103.2l39.7-12.9c0,0,0,0,0.1,0c0,0,0,0,0.1,0c0,0,0,0,0.1,0c0,0,0,0,0.1,0l-39.6,12.9
					c0,0-0.1,0-0.1,0c0,0-0.1,0-0.1,0C100.7,103.2,100.7,103.2,100.6,103.2C100.6,103.2,100.6,103.2,100.6,103.2"/>
			</g>
		</g>
		<g class="st0">
			<defs>
				<path id="SVGID_21_" class="st0" d="M140.5,90.4c0.2,0,0.5,0.1,0.7,0.1c0.2,0,0.5,0,0.7,0c0.2,0,0.4,0,0.7-0.1
					c0.2,0,0.4-0.1,0.6-0.2l-39,12.9c-0.3,0.1-0.5,0.2-0.8,0.2c-0.3,0.1-0.5,0.1-0.8,0.1c-0.3,0-0.6,0-0.8,0c-0.3,0-0.6,0-0.8-0.1
					C112.8,99.4,128.7,94.2,140.5,90.4z"/>
			</defs>
			<clipPath id="SVGID_22_">
				<use xlink:href="#SVGID_21_"  style="overflow:visible;"/>
			</clipPath>
			<g class="st76">
				<path class="st37" d="M100.9,103.3l39.6-12.9c0,0,0,0,0,0c0,0,0,0,0,0c0,0,0,0,0,0c0,0,0,0,0,0l-39.6,12.9c0,0,0,0,0,0
					C101,103.3,101,103.3,100.9,103.3C101,103.3,101,103.3,100.9,103.3C101,103.3,100.9,103.3,100.9,103.3"/>
				<path class="st38" d="M101.1,103.3l39.6-12.9c0,0,0.1,0,0.1,0c0,0,0.1,0,0.1,0c0,0,0.1,0,0.1,0c0,0,0.1,0,0.1,0l-39.5,12.9
					c0,0-0.1,0-0.1,0c0,0-0.1,0-0.1,0c0,0-0.1,0-0.1,0C101.2,103.3,101.1,103.3,101.1,103.3"/>
				<path class="st41" d="M101.6,103.4l39.5-12.9c0,0,0.1,0,0.1,0c0,0,0.1,0,0.1,0c0,0,0.1,0,0.1,0c0,0,0.1,0,0.1,0l-39.4,13
					c0,0-0.1,0-0.1,0c0,0-0.1,0-0.1,0c0,0-0.1,0-0.1,0C101.7,103.4,101.6,103.4,101.6,103.4"/>
				<path class="st2" d="M102.1,103.4l39.4-13c0,0,0.1,0,0.1,0c0,0,0.1,0,0.1,0c0,0,0.1,0,0.1,0c0,0,0.1,0,0.1,0l-39.3,12.9
					c-0.1,0-0.1,0-0.2,0c-0.1,0-0.1,0-0.2,0c-0.1,0-0.1,0-0.2,0C102.3,103.4,102.2,103.4,102.1,103.4"/>
				<path class="st3" d="M102.8,103.4l39.3-12.9c0.1,0,0.1,0,0.2,0c0.1,0,0.1,0,0.2,0c0.1,0,0.1,0,0.2,0c0.1,0,0.1,0,0.2,0
					l-39.2,12.9c-0.1,0-0.1,0-0.2,0c-0.1,0-0.1,0-0.2,0c-0.1,0-0.1,0-0.2,0C102.9,103.4,102.8,103.4,102.8,103.4"/>
				<path class="st40" d="M103.6,103.2l39.2-12.9c0,0,0.1,0,0.1,0c0,0,0.1,0,0.1,0c0,0,0.1,0,0.1,0c0,0,0.1,0,0.1,0l-39,12.9
					c-0.1,0-0.1,0-0.2,0c-0.1,0-0.1,0-0.2,0c-0.1,0-0.1,0-0.2,0C103.7,103.2,103.6,103.2,103.6,103.2"/>
			</g>
		</g>
		<g class="st0">
			<defs>
				<path id="SVGID_23_" class="st0" d="M100,88.4c13.3-3.3,26.5-6.7,39.8-10c0.2,0,0.4-0.1,0.5-0.1c0.2,0,0.4,0,0.6-0.1
					c0.2,0,0.4,0,0.6,0c0.2,0,0.4,0,0.6,0.1l-39.3,10c-0.2,0-0.5-0.1-0.7-0.1c-0.2,0-0.5,0-0.7,0c-0.2,0-0.5,0-0.7,0.1
					C100.5,88.3,100.3,88.4,100,88.4z"/>
			</defs>
			<clipPath id="SVGID_24_">
				<use xlink:href="#SVGID_23_"  style="overflow:visible;"/>
			</clipPath>
			<g class="st77">
				<path class="st14" d="M100,88.4l39.8-10c0,0,0,0,0,0c0,0,0,0,0,0c0,0,0,0,0,0c0,0,0,0,0,0l-39.8,10
					C100.1,88.4,100.1,88.4,100,88.4C100.1,88.4,100.1,88.4,100,88.4C100.1,88.4,100.1,88.4,100,88.4C100.1,88.4,100,88.4,100,88.4"
					/>
				<path class="st13" d="M100.1,88.4l39.8-10c0.1,0,0.1,0,0.2,0c0.1,0,0.1,0,0.2,0c0.1,0,0.1,0,0.2,0c0.1,0,0.1,0,0.2,0l-39.7,10
					c-0.1,0-0.1,0-0.2,0c-0.1,0-0.1,0-0.2,0c-0.1,0-0.1,0-0.2,0C100.3,88.4,100.2,88.4,100.1,88.4"/>
				<path class="st12" d="M100.9,88.3l39.7-10c0,0,0.1,0,0.1,0c0,0,0.1,0,0.1,0c0,0,0.1,0,0.1,0c0,0,0.1,0,0.1,0l-39.5,10
					c-0.1,0-0.1,0-0.2,0c-0.1,0-0.1,0-0.2,0c-0.1,0-0.1,0-0.2,0C101,88.2,101,88.3,100.9,88.3"/>
				<path class="st11" d="M101.6,88.2l39.5-10c0,0,0.1,0,0.1,0c0,0,0.1,0,0.1,0c0,0,0.1,0,0.1,0c0,0,0.1,0,0.1,0l-39.4,10
					c0,0-0.1,0-0.1,0c0,0-0.1,0-0.1,0c0,0-0.1,0-0.1,0C101.7,88.2,101.6,88.2,101.6,88.2"/>
				<path class="st10" d="M102.1,88.2l39.4-10c0,0,0.1,0,0.1,0c0,0,0.1,0,0.1,0c0,0,0.1,0,0.1,0c0,0,0.1,0,0.1,0l-39.4,10
					c0,0-0.1,0-0.1,0c0,0-0.1,0-0.1,0c0,0-0.1,0-0.1,0C102.2,88.2,102.2,88.2,102.1,88.2"/>
				<path class="st9" d="M102.6,88.3l39.4-10c0,0,0,0,0,0c0,0,0,0,0,0c0,0,0,0,0,0c0,0,0,0,0,0l-39.3,10c0,0,0,0,0,0
					C102.7,88.3,102.7,88.3,102.6,88.3C102.7,88.3,102.7,88.3,102.6,88.3C102.7,88.3,102.7,88.3,102.6,88.3"/>
			</g>
		</g>
		<g class="st0">
			<defs>
				<path id="SVGID_25_" class="st0" d="M143.2,90.2l-39,12.9c0.6-0.2,1.2-0.5,1.7-0.9c0.5-0.4,1-0.8,1.4-1.3c0.4-0.5,0.8-1.1,1-1.7
					c0.3-0.6,0.5-1.3,0.5-2.1c0.1-1,0.1-2.1-0.2-3c-0.2-1-0.7-1.9-1.2-2.7c-0.6-0.8-1.3-1.5-2.1-2c-0.8-0.5-1.7-0.9-2.7-1.1l39.3-10
					c0.8,0.1,1.5,0.4,2.2,0.8c0.7,0.4,1.2,1,1.7,1.6c0.5,0.6,0.8,1.4,1,2.1c0.2,0.8,0.3,1.6,0.2,2.4c-0.1,0.6-0.2,1.1-0.5,1.7
					c-0.2,0.5-0.5,1-0.9,1.4c-0.3,0.4-0.7,0.8-1.2,1.1C144.2,89.8,143.7,90,143.2,90.2z"/>
			</defs>
			<clipPath id="SVGID_26_">
				<use xlink:href="#SVGID_25_"  style="overflow:visible;"/>
			</clipPath>
			<g class="st78">
				<path class="st9" d="M102.8,88.3l39.3-10c0,0,0,0,0.1,0c0,0,0,0,0.1,0c0,0,0,0,0.1,0c0,0,0,0,0.1,0l-39.3,10c0,0-0.1,0-0.1,0
					c0,0-0.1,0-0.1,0C102.9,88.3,102.9,88.3,102.8,88.3C102.8,88.3,102.8,88.3,102.8,88.3"/>
				<path class="st8" d="M103.1,88.4l39.3-10c0,0,0.1,0,0.1,0c0,0,0.1,0,0.1,0c0,0,0.1,0,0.1,0c0,0,0.1,0,0.1,0l-39.2,10
					c0,0-0.1,0-0.1,0c0,0-0.1,0-0.1,0c0,0-0.1,0-0.1,0C103.2,88.4,103.2,88.4,103.1,88.4"/>
				<path class="st7" d="M103.6,88.5l39.2-10c0,0,0.1,0,0.1,0c0,0,0.1,0,0.1,0c0,0,0.1,0,0.1,0c0,0,0.1,0,0.1,0l-39.1,10.1
					c0,0-0.1,0-0.1,0c0,0-0.1,0-0.1,0c0,0-0.1,0-0.1,0C103.7,88.5,103.6,88.5,103.6,88.5"/>
				<path class="st6" d="M104.1,88.7l39.1-10.1c0,0,0.1,0,0.1,0c0,0,0.1,0,0.1,0c0,0,0.1,0,0.1,0c0,0,0.1,0,0.1,0l-39,10.1
					c0,0-0.1,0-0.1,0c0,0-0.1,0-0.1,0c0,0-0.1,0-0.1,0C104.1,88.7,104.1,88.7,104.1,88.7"/>
				<path class="st5" d="M104.5,88.9l39-10.1c0,0,0.1,0,0.1,0c0,0,0.1,0,0.1,0c0,0,0.1,0,0.1,0c0,0,0.1,0,0.1,0l-39,10.2
					c0,0-0.1,0-0.1-0.1c0,0-0.1,0-0.1-0.1c0,0-0.1,0-0.1-0.1C104.6,88.9,104.5,88.9,104.5,88.9"/>
				<path class="st16" d="M105,89.1l39-10.2c0,0,0.1,0,0.1,0.1c0,0,0.1,0,0.1,0.1c0,0,0.1,0,0.1,0.1c0,0,0.1,0,0.1,0.1l-38.9,10.2
					c0,0-0.1,0-0.1-0.1c0,0-0.1,0-0.1-0.1c0,0-0.1,0-0.1-0.1C105,89.1,105,89.1,105,89.1"/>
				<path class="st17" d="M105.4,89.4l38.9-10.2c0,0,0.1,0,0.1,0.1c0,0,0.1,0,0.1,0.1c0,0,0.1,0,0.1,0.1c0,0,0.1,0,0.1,0.1
					l-38.8,10.3c0,0-0.1-0.1-0.1-0.1c0,0-0.1-0.1-0.1-0.1c0,0-0.1-0.1-0.1-0.1C105.5,89.4,105.5,89.4,105.4,89.4"/>
				<path class="st18" d="M105.9,89.7l38.8-10.3c0,0,0.1,0.1,0.1,0.1c0,0,0.1,0.1,0.1,0.1c0,0,0.1,0.1,0.1,0.1c0,0,0.1,0.1,0.1,0.1
					l-38.7,10.4c0,0-0.1-0.1-0.1-0.1c0,0-0.1-0.1-0.1-0.1c0,0-0.1-0.1-0.1-0.1C106,89.8,105.9,89.7,105.9,89.7"/>
				<path class="st19" d="M106.4,90.1l38.7-10.4c0,0,0.1,0.1,0.1,0.1c0,0,0.1,0.1,0.1,0.1c0,0,0.1,0.1,0.1,0.1c0,0,0.1,0.1,0.1,0.1
					L107,90.8c0-0.1-0.1-0.1-0.1-0.2c0-0.1-0.1-0.1-0.2-0.2c-0.1-0.1-0.1-0.1-0.2-0.2C106.5,90.2,106.5,90.2,106.4,90.1"/>
				<path class="st20" d="M107,90.8l38.6-10.5c0.2,0.2,0.3,0.4,0.5,0.6c0.1,0.2,0.3,0.4,0.4,0.7c0.1,0.2,0.2,0.5,0.3,0.7
					c0.1,0.2,0.2,0.5,0.2,0.7l-38.3,11.2c-0.1-0.3-0.2-0.6-0.3-0.9c-0.1-0.3-0.2-0.6-0.4-0.9c-0.1-0.3-0.3-0.6-0.5-0.8
					C107.4,91.3,107.2,91,107,90.8"/>
				<path class="st19" d="M108.8,94.1L147,82.9c0,0.1,0,0.1,0,0.2c0,0.1,0,0.1,0,0.2c0,0.1,0,0.1,0,0.2c0,0.1,0,0.1,0,0.2L108.9,95
					c0-0.1,0-0.1,0-0.2c0-0.1,0-0.1,0-0.2c0-0.1,0-0.1,0-0.2C108.8,94.3,108.8,94.2,108.8,94.1"/>
				<path class="st18" d="M108.9,95l38.2-11.3c0,0,0,0.1,0,0.1c0,0,0,0.1,0,0.1c0,0,0,0.1,0,0.1c0,0,0,0.1,0,0.1L109,95.7
					c0-0.1,0-0.1,0-0.2c0-0.1,0-0.1,0-0.2c0-0.1,0-0.1,0-0.2C108.9,95.1,108.9,95,108.9,95"/>
				<path class="st17" d="M109,95.7l38.2-11.5c0,0,0,0.1,0,0.1c0,0,0,0.1,0,0.1c0,0,0,0.1,0,0.1c0,0,0,0.1,0,0.1L109,96.3
					c0-0.1,0-0.1,0-0.2c0-0.1,0-0.1,0-0.2c0-0.1,0-0.1,0-0.2C109,95.8,109,95.7,109,95.7"/>
				<path class="st16" d="M109,96.3l38.2-11.6c0,0,0,0.1,0,0.1c0,0,0,0.1,0,0.1c0,0,0,0.1,0,0.1c0,0,0,0.1,0,0.1L109,96.9
					c0,0,0-0.1,0-0.1c0,0,0-0.1,0-0.1c0,0,0-0.1,0-0.1C109,96.4,109,96.4,109,96.3"/>
				<path class="st5" d="M109,96.9l38.2-11.7c0,0,0,0,0,0c0,0,0,0,0,0c0,0,0,0,0,0c0,0,0,0,0,0c0,0,0,0,0,0.1c0,0,0,0,0,0.1
					c0,0,0,0,0,0.1c0,0,0,0,0,0.1l-38.2,11.8c0,0,0-0.1,0-0.1c0,0,0-0.1,0-0.1c0,0,0-0.1,0-0.1c0,0,0-0.1,0-0.1c0,0,0,0,0,0
					C108.9,97,108.9,97,109,96.9C108.9,97,108.9,96.9,109,96.9C108.9,96.9,109,96.9,109,96.9"/>
				<path class="st6" d="M108.9,97.4l38.2-11.8c0,0,0,0.1,0,0.1c0,0,0,0.1,0,0.1c0,0,0,0.1,0,0.1c0,0,0,0.1,0,0.1l-38.3,11.9
					c0,0,0-0.1,0-0.1c0,0,0-0.1,0-0.1c0,0,0-0.1,0-0.1C108.9,97.5,108.9,97.5,108.9,97.4"/>
				<path class="st7" d="M108.8,97.9L147,86c0,0,0,0.1,0,0.1c0,0,0,0.1,0,0.1c0,0,0,0.1,0,0.1c0,0,0,0.1,0,0.1l-38.3,12
					c0,0,0-0.1,0-0.1c0,0,0-0.1,0-0.1c0,0,0-0.1,0-0.1C108.8,98,108.8,98,108.8,97.9"/>
				<path class="st8" d="M108.6,98.4l38.3-12c0,0,0,0.1,0,0.1c0,0,0,0.1,0,0.1c0,0,0,0.1,0,0.1c0,0,0,0.1,0,0.1l-38.3,12.1
					c0,0,0-0.1,0-0.1c0,0,0-0.1,0-0.1c0,0,0-0.1,0-0.1C108.6,98.5,108.6,98.5,108.6,98.4"/>
				<path class="st9" d="M108.5,98.9l38.3-12.1c0,0,0,0.1,0,0.1c0,0,0,0.1,0,0.1c0,0,0,0.1,0,0.1c0,0,0,0.1,0,0.1l-38.3,12.2
					c0,0,0-0.1,0.1-0.1c0,0,0-0.1,0.1-0.1c0,0,0-0.1,0-0.1C108.4,99,108.5,98.9,108.5,98.9"/>
				<path class="st10" d="M108.3,99.4l38.3-12.2c0,0,0,0.1,0,0.1c0,0,0,0.1-0.1,0.1c0,0,0,0.1-0.1,0.1c0,0,0,0.1-0.1,0.1L108,99.8
					c0,0,0-0.1,0.1-0.1c0,0,0-0.1,0.1-0.1c0,0,0-0.1,0.1-0.1C108.2,99.4,108.3,99.4,108.3,99.4"/>
				<path class="st11" d="M108,99.8l38.4-12.3c0,0,0,0.1-0.1,0.1c0,0,0,0.1-0.1,0.1c0,0,0,0.1-0.1,0.1c0,0,0,0.1-0.1,0.1l-38.4,12.4
					c0,0,0.1-0.1,0.1-0.1c0,0,0.1-0.1,0.1-0.1c0,0,0.1-0.1,0.1-0.1C108,99.9,108,99.9,108,99.8"/>
				<path class="st12" d="M107.7,100.3L146.2,88c0,0-0.1,0.1-0.1,0.1c0,0-0.1,0.1-0.1,0.1c0,0-0.1,0.1-0.1,0.1c0,0-0.1,0.1-0.1,0.1
					l-38.5,12.5c0,0,0.1-0.1,0.1-0.1c0,0,0.1-0.1,0.1-0.1c0,0,0.1-0.1,0.1-0.1C107.7,100.4,107.7,100.4,107.7,100.3"/>
				<path class="st13" d="M107.3,100.9l38.5-12.5c0,0-0.1,0.1-0.1,0.1c0,0-0.1,0.1-0.1,0.1c0,0-0.1,0.1-0.1,0.1c0,0-0.1,0.1-0.1,0.1
					l-38.6,12.6c0,0,0.1-0.1,0.1-0.1c0,0,0.1-0.1,0.1-0.2c0-0.1,0.1-0.1,0.1-0.2C107.2,101,107.3,100.9,107.3,100.9"/>
				<path class="st14" d="M106.8,101.5l38.6-12.6c-0.2,0.1-0.3,0.3-0.5,0.4c-0.2,0.1-0.3,0.2-0.5,0.4c-0.2,0.1-0.4,0.2-0.6,0.3
					c-0.2,0.1-0.4,0.2-0.6,0.2l-39,12.9c0.2-0.1,0.5-0.2,0.7-0.3c0.2-0.1,0.5-0.2,0.7-0.4c0.2-0.1,0.4-0.3,0.6-0.4
					C106.4,101.8,106.6,101.7,106.8,101.5"/>
			</g>
		</g>
		<g>
			<polygon class="st79" points="65.1,30.9 111,32.2 141.9,36.3 102.4,35.9 			"/>
		</g>
		<g>
			<polygon class="st80" points="102.4,35.9 141.9,36.3 137.7,68.7 97.4,76.4 			"/>
		</g>
		<g>
			<polygon class="st81" points="105.7,33.2 144.6,34.1 139.8,71.6 99.9,79.9 			"/>
		</g>
		<g>
			<polygon class="st82" points="62.7,27.5 109,29.4 144.6,34.1 105.7,33.2 			"/>
		</g>
		<g>
			<path class="st83" d="M120.3,31.8l4,0.5l-13.8,109.6L0,118.8l4.6-43.7c0.7,0,1.4-0.2,2.1-0.5c0.6-0.3,1.2-0.7,1.8-1.3
				c0.5-0.5,1-1.2,1.3-1.9c0.3-0.7,0.6-1.5,0.6-2.4c0.1-0.9,0-1.7-0.1-2.5c-0.2-0.8-0.5-1.6-0.8-2.3C9,63.6,8.5,63,8,62.5
				c-0.6-0.5-1.2-0.9-1.9-1.2L12.5,0L99,10.2L98.7,13l-0.5,4.1l-0.3,2.3l-1.1,9.2L120.3,31.8z M62.7,27.5l-5.2,45.3l42.4,7.1
				l5.7-46.7L62.7,27.5 M25.1,30.6l-3.4,31.7L50.2,67l3.7-32.3L25.1,30.6 M89.8,110.1l0.4-3.5L21.8,93.8l-0.4,3.3L89.8,110.1
				 M100.9,103.3c1,0.2,1.9,0.1,2.8-0.1c0.9-0.2,1.7-0.6,2.4-1.2c0.7-0.6,1.3-1.3,1.8-2.1c0.5-0.8,0.8-1.8,0.9-2.8
				c0.1-1,0.1-2.1-0.2-3c-0.2-1-0.7-1.9-1.2-2.7c-0.6-0.8-1.3-1.5-2.1-2c-0.8-0.5-1.7-0.9-2.7-1.1c-1-0.2-1.9-0.1-2.8,0.1
				c-0.9,0.2-1.7,0.6-2.4,1.2c-0.7,0.6-1.3,1.3-1.8,2.1c-0.5,0.8-0.8,1.8-0.9,2.8c-0.1,1-0.1,2,0.2,3c0.2,1,0.7,1.8,1.2,2.6
				c0.5,0.8,1.2,1.5,2,2C99.1,102.7,100,103.1,100.9,103.3 M66.9,129.2c0.9,0.2,1.8,0.2,2.7,0c0.8-0.2,1.6-0.6,2.3-1.1
				c0.7-0.5,1.3-1.2,1.7-2c0.4-0.8,0.7-1.7,0.9-2.7c0.1-1,0-2-0.2-2.9c-0.2-0.9-0.6-1.8-1.2-2.6c-0.5-0.8-1.2-1.5-2-2
				c-0.8-0.5-1.6-0.9-2.5-1.1c-0.9-0.2-1.8-0.2-2.7,0.1c-0.8,0.2-1.6,0.6-2.3,1.1c-0.7,0.5-1.3,1.2-1.7,2c-0.4,0.8-0.7,1.7-0.8,2.7
				c-0.1,1,0,2,0.2,2.9c0.2,0.9,0.6,1.8,1.2,2.6c0.5,0.8,1.2,1.5,1.9,2C65.1,128.6,65.9,129,66.9,129.2 M22.8,13.1
				c-0.1,1,0,2,0.2,2.9c0.2,0.9,0.6,1.7,1.1,2.5c0.5,0.7,1.1,1.3,1.8,1.8c0.7,0.5,1.5,0.8,2.4,0.9c0.9,0.1,1.7,0,2.5-0.2
				c0.8-0.3,1.6-0.7,2.2-1.3c0.7-0.6,1.2-1.3,1.6-2.1c0.4-0.8,0.7-1.8,0.8-2.8c0.1-1,0-2-0.2-2.9c-0.2-0.9-0.6-1.8-1.1-2.5
				c-0.5-0.7-1.1-1.3-1.9-1.8c-0.7-0.5-1.5-0.8-2.4-0.9c-0.9-0.1-1.7,0-2.5,0.3c-0.8,0.3-1.5,0.7-2.2,1.3c-0.6,0.6-1.2,1.3-1.6,2.1
				C23.2,11.2,22.9,12.1,22.8,13.1 M48.3,114.1l1.3-11.7l-7.1-1.3l-1.3,11.6L48.3,114.1 M81.9,116.5l0.9-7.7l-7.4-1.4l-0.9,7.7
				L81.9,116.5 M64.5,80.6l-6.7-1.2L57,86.7l6.7,1.2L64.5,80.6 M51.1,78.3l-6.6-1.1l-0.8,7.2l6.6,1.2L51.1,78.3 M34.5,105.7l0.7-6
				l-6.9-1.3l-0.7,6L34.5,105.7"/>
		</g>
		<g>
			<polygon class="st84" points="35.1,99.7 34.5,105.7 27.5,104.4 28.2,98.4 			"/>
		</g>
		<g>
			<path class="st21" d="M28.3,21.2c-0.9-0.1-1.7-0.4-2.4-0.9c-0.7-0.5-1.3-1.1-1.8-1.8c-0.5-0.7-0.9-1.6-1.1-2.5
				c-0.2-0.9-0.3-1.9-0.2-2.9c0.1-1,0.4-1.9,0.8-2.8c0.4-0.8,1-1.5,1.6-2.1c0.6-0.6,1.4-1,2.2-1.3c0.8-0.3,1.7-0.4,2.5-0.3
				c0.9,0.1,1.7,0.4,2.4,0.9c0.7,0.5,1.4,1.1,1.9,1.8c0.5,0.7,0.9,1.6,1.1,2.5c0.2,0.9,0.3,1.9,0.2,2.9c-0.1,1-0.4,1.9-0.8,2.8
				c-0.4,0.8-1,1.6-1.6,2.1c-0.7,0.6-1.4,1-2.2,1.3C30.1,21.2,29.2,21.3,28.3,21.2z"/>
		</g>
		<g>
			<path class="st85" d="M25.1,30.6l28.8,4L50.2,67l-28.6-4.7L25.1,30.6z M48.2,64l2-17.3l-9.5-1.4l-4.9-0.7l-9.6-1.4l-1.8,17
				L48.2,64"/>
		</g>
		<g>
			<polygon class="st86" points="40.6,45.3 40.2,49.1 35.3,48.3 35.7,44.6 			"/>
		</g>
		<g>
			<polygon class="st84" points="49.6,102.5 48.3,114.1 41.2,112.7 42.5,101.1 			"/>
		</g>
		<g>
			<polygon class="st70" points="51.1,78.3 50.3,85.5 43.7,84.3 44.5,77.1 			"/>
		</g>
		<g>
			<polygon class="st84" points="50.1,46.7 48.2,64 24.3,60.1 26.1,43.1 35.7,44.6 35.3,48.3 40.2,49.1 40.6,45.3 			"/>
		</g>
		<g>
			<polygon class="st70" points="64.5,80.6 63.7,87.9 57,86.7 57.8,79.4 			"/>
		</g>
		<g>
			<path class="st21" d="M66.9,129.2c-0.9-0.2-1.8-0.6-2.5-1.1c-0.8-0.5-1.4-1.2-1.9-2c-0.5-0.8-0.9-1.7-1.2-2.6
				c-0.2-0.9-0.3-1.9-0.2-2.9c0.1-1,0.4-1.9,0.8-2.7c0.4-0.8,1-1.5,1.7-2c0.7-0.5,1.5-0.9,2.3-1.1c0.8-0.2,1.7-0.2,2.7-0.1
				c0.9,0.2,1.8,0.6,2.5,1.1c0.8,0.5,1.4,1.2,2,2c0.5,0.8,0.9,1.7,1.2,2.6c0.2,0.9,0.3,1.9,0.2,2.9c-0.1,1-0.4,1.9-0.9,2.7
				c-0.4,0.8-1,1.5-1.7,2c-0.7,0.5-1.5,0.9-2.3,1.1C68.7,129.4,67.8,129.4,66.9,129.2z"/>
		</g>
		<g>
			<polygon class="st84" points="82.9,108.8 81.9,116.5 74.5,115 75.4,107.3 			"/>
		</g>
		<g>
			<polygon class="st86" points="83.9,52.8 83.2,58.4 78,57.6 78.6,52 			"/>
		</g>
		<g>
			<polygon class="st87" points="97.9,19.5 138.3,23.1 137.3,30.5 96.8,28.7 			"/>
		</g>
		<g>
			<polygon class="st87" points="98.2,17.1 138.5,21.2 138.3,23.1 97.9,19.5 			"/>
		</g>
		<g>
			<path class="st21" d="M102.8,88.3c1,0.2,1.9,0.5,2.7,1.1c0.8,0.5,1.5,1.2,2.1,2c0.6,0.8,1,1.7,1.2,2.7c0.2,1,0.3,2,0.2,3
				c-0.1,1-0.5,2-0.9,2.8c-0.5,0.8-1.1,1.5-1.8,2.1c-0.7,0.6-1.6,1-2.4,1.2c-0.9,0.2-1.8,0.3-2.8,0.1c-1-0.2-1.9-0.6-2.7-1.1
				c-0.8-0.5-1.5-1.2-2-2c-0.5-0.8-1-1.7-1.2-2.6c-0.2-1-0.3-2-0.2-3c0.1-1,0.4-2,0.9-2.8c0.5-0.8,1.1-1.5,1.8-2.1
				c0.7-0.6,1.5-1,2.4-1.2C100.9,88.2,101.8,88.1,102.8,88.3z"/>
		</g>
		<g>
			<polygon class="st87" points="98.7,13 138.9,17.9 138.5,21.2 98.2,17.1 			"/>
		</g>
		<g>
			<polygon class="st87" points="99,10.2 139.2,15.6 138.9,17.9 98.7,13 			"/>
		</g>
		<g>
			<path class="st84" d="M65.1,30.9l37.3,5.1l-4.9,40.4l-36.9-6.1L65.1,30.9z M83.2,58.4l0.7-5.6L78.6,52L78,57.6L83.2,58.4"/>
		</g>
		<g>
			<path class="st85" d="M62.7,27.5l43,5.7l-5.7,46.7l-42.4-7.1L62.7,27.5z M97.4,76.4l4.9-40.4l-37.3-5.1l-4.6,39.4L97.4,76.4"/>
		</g>
		<g>
			<polygon class="st88" points="97.9,19.5 138.3,23.1 145.1,23.9 106.2,20.5 			"/>
		</g>
		<g>
			<polygon class="st89" points="106.2,20.5 145.1,23.9 144.7,27.4 105.7,24.9 			"/>
		</g>
		<g>
			<polygon class="st90" points="105.7,24.9 144.7,27.4 146.1,27.6 107.4,25.1 			"/>
		</g>
		<g>
			<polygon class="st91" points="106.2,20.5 145.1,23.9 146.6,24.1 107.9,20.7 			"/>
		</g>
		<g>
			<polygon class="st92" points="105.7,24.9 106.2,20.5 107.9,20.7 107.4,25.1 			"/>
		</g>
		<g>
			<polygon class="st93" points="107.9,20.7 146.6,24.1 146.1,27.6 107.4,25.1 			"/>
		</g>
		<g>
			<polygon class="st88" points="107.9,20.7 146.6,24.1 150.4,24.6 112.6,21.3 			"/>
		</g>
		<g>
			<polygon class="st94" points="112.9,18.9 150.6,22.7 150.4,24.6 112.6,21.3 			"/>
		</g>
		<g>
			<polygon class="st95" points="98.2,17.1 138.5,21.2 150.6,22.7 112.9,18.9 			"/>
		</g>
		<g>
			<polygon class="st92" points="97.9,19.5 98.2,17.1 112.9,18.9 112.6,21.3 107.9,20.7 106.2,20.5 			"/>
		</g>
		<g>
			<polygon class="st38" points="96.8,28.7 137.3,30.5 156.7,33 120.3,31.8 			"/>
		</g>
		<g>
			<polygon class="st96" points="124.3,32.3 160,33.4 148.3,121.3 110.5,141.9 			"/>
		</g>
		<g>
			<polygon class="st97" points="122.3,15.8 158.4,20.2 156.7,33 120.3,31.8 			"/>
		</g>
		<g>
			<polygon class="st38" points="120.3,31.8 156.7,33 160,33.4 124.3,32.3 			"/>
		</g>
		<g>
			<polygon class="st98" points="122.3,15.8 120.3,31.8 96.8,28.7 97.9,19.5 106.2,20.5 105.7,24.9 107.4,25.1 107.9,20.7 
				112.6,21.3 112.9,18.9 98.2,17.1 98.7,13 			"/>
		</g>
	</g>
</g>
</svg>
