<?xml version="1.0" encoding="utf-8"?>
<!-- Generator: Adobe Illustrator 21.0.2, SVG Export Plug-In . SVG Version: 6.00 Build 0)  -->
<svg version="1.0" id="Isolation_Mode" xmlns="http://www.w3.org/2000/svg" xmlns:xlink="http://www.w3.org/1999/xlink" x="0px"
	 y="0px" viewBox="0 0 165.5 151.5" style="enable-background:new 0 0 165.5 151.5;" xml:space="preserve">
<style type="text/css">
	.st0{enable-background:new    ;}
	.st1{fill:#939596;}
	.st2{fill:#808080;}
	.st3{fill:#959698;}
	.st4{fill:#858688;}
	.st5{fill:#842B2A;}
	.st6{fill:#949697;}
	.st7{fill:#010101;}
	.st8{fill:#848587;}
	.st9{fill:#939597;}
	.st10{fill:#7E0D0F;}
	.st11{fill:#832A29;}
	.st12{fill:#782423;}
	.st13{fill:#832A2A;}
	.st14{fill:#750809;}
	.st15{fill:#939496;}
	.st16{fill:#7D0D0F;}
	.st17{fill:#E52C39;}
	.st18{fill:#D42C2C;}
	.st19{fill:#909090;}
	.st20{fill:#FCFCFC;}
	.st21{fill:#929395;}
	.st22{fill:#822A29;}
	.st23{fill:#8E8F91;}
	.st24{fill:#919395;}
	.st25{fill:#BE2928;}
	.st26{fill:#7A0B0D;}
	.st27{fill:#790B0D;}
	.st28{fill:#888888;}
	.st29{fill:#DEDEDE;}
	.st30{fill:#8C8E8F;}
	.st31{fill:#8B8B8B;}
	.st32{fill:#8A8C8E;}
	.st33{fill:#7E2727;}
	.st34{fill:#8B8C8E;}
	.st35{fill:#7D2726;}
	.st36{fill:#7C2726;}
	.st37{fill:#898B8D;}
	.st38{fill:#7C2626;}
	.st39{fill:#898A8C;}
	.st40{fill:#7B2625;}
	.st41{fill:#F2F3F3;}
	.st42{fill:#E02F2E;}
	.st43{fill:#80848B;}
	.st44{fill:#404545;}
</style>
<g>
	<g>
		<g class="st0">
			<g>
				<polygon class="st1" points="136.1,48.9 78.5,74.8 78,68.2 135.2,41 				"/>
			</g>
			<g>
				<polygon class="st2" points="136.1,48.9 78.5,74.8 78.1,74.7 135.6,48.9 				"/>
			</g>
			<g>
				<polygon class="st3" points="151.2,99.6 90.2,116.1 88.8,98.5 148.7,78.3 				"/>
			</g>
			<g>
				<polygon class="st4" points="135.2,41 78,68.2 56.6,66.2 111.3,37.2 				"/>
			</g>
			<g>
				<polygon class="st2" points="135.6,48.9 78.1,74.7 57.6,73 112.7,45.6 				"/>
			</g>
			<g>
				<polygon class="st1" points="137.8,68.9 79.3,91.2 78.1,74.7 135.6,48.9 				"/>
			</g>
			<g>
				<polygon class="st5" points="148.9,96.8 88.2,113.8 87.2,100.6 147,80.7 				"/>
			</g>
			<g>
				<polygon class="st6" points="147.1,93.6 86.8,111.2 86.1,102.4 145.9,82.8 				"/>
			</g>
			<g>
				<polygon class="st5" points="144.8,90.8 84.7,109 84.4,104.5 144.2,85.4 				"/>
			</g>
			<g>
				<polygon class="st7" points="129.5,61 72.1,85 71.6,77.6 128.6,51.9 				"/>
			</g>
			<g>
				<polygon class="st8" points="144.8,90.8 84.7,109 81.6,108.9 141.3,90.5 				"/>
			</g>
			<g>
				<polygon class="st9" points="141.3,90.5 81.6,108.9 81.5,107 141.1,88.3 				"/>
			</g>
			<g>
				<polygon class="st10" points="128.3,59.5 71.1,83.8 70.7,78.6 127.6,53.1 				"/>
			</g>
			<g>
				<polygon class="st8" points="148.7,78.3 88.8,98.5 76.7,98 135.3,77.1 				"/>
			</g>
			<g>
				<polygon class="st11" points="135.6,79.8 76.9,100.2 76.7,98 135.3,77.1 				"/>
			</g>
			<g>
				<polygon class="st12" points="147,80.7 87.2,100.6 76.9,100.2 135.6,79.8 				"/>
			</g>
			<g>
				<polygon class="st8" points="141.1,88.3 81.5,107 79.6,107 139,88.1 				"/>
			</g>
			<g>
				<polygon class="st8" points="145.9,82.8 86.1,102.4 76.1,102 134.8,82 				"/>
			</g>
			<g>
				<polygon class="st12" points="144.2,85.4 84.4,104.5 78.1,104.3 137.2,84.8 				"/>
			</g>
			<g>
				<polygon class="st13" points="139.5,93.1 79.9,111.1 79.6,107 139,88.1 				"/>
			</g>
			<g>
				<polygon class="st12" points="147.1,93.6 86.8,111.2 79.9,111.1 139.5,93.1 				"/>
			</g>
			<g>
				<polygon class="st7" points="128.6,51.9 71.6,77.6 65,77 121.2,50.9 				"/>
			</g>
			<g>
				<polygon class="st14" points="127.6,53.1 70.7,78.6 66,78.2 122.4,52.4 				"/>
			</g>
			<g>
				<polygon class="st8" points="148.9,96.8 88.2,113.8 78.8,113.7 138.4,96.3 				"/>
			</g>
			<g>
				<polygon class="st15" points="138.4,96.3 78.8,113.7 78.1,104.3 137.2,84.8 				"/>
			</g>
			<g>
				<polygon class="st7" points="123.1,58.9 66.4,83.5 66,78.2 122.4,52.4 				"/>
			</g>
			<g>
				<polygon class="st7" points="128.3,59.5 71.1,83.8 66.4,83.5 123.1,58.9 				"/>
			</g>
			<g>
				<polygon class="st7" points="127.6,53.1 128.3,59.5 123.1,58.9 122.4,52.4 				"/>
			</g>
			<g>
				<polygon class="st16" points="122.1,60.1 65.5,84.6 65,77 121.2,50.9 				"/>
			</g>
			<g>
				<polygon class="st14" points="129.5,61 72.1,85 65.5,84.6 122.1,60.1 				"/>
			</g>
			<g>
				<path class="st17" d="M122.1,60.1l-0.9-9.2l7.4,1l1,9.1L122.1,60.1z M122.4,52.4l0.7,6.5l5.2,0.6l-0.7-6.4L122.4,52.4"/>
			</g>
			<g>
				<polygon class="st12" points="151.2,99.6 90.2,116.1 77.1,115.9 136.6,98.9 				"/>
			</g>
			<g>
				<polygon class="st11" points="136.6,98.9 77.1,115.9 76.1,102 134.8,82 				"/>
			</g>
			<g>
				<polygon class="st18" points="148.7,78.3 151.2,99.6 136.6,98.9 134.8,82 145.9,82.8 147.1,93.6 139.5,93.1 139,88.1 
					141.1,88.3 141.3,90.5 144.8,90.8 144.2,85.4 137.2,84.8 138.4,96.3 148.9,96.8 147,80.7 135.6,79.8 135.3,77.1 				"/>
			</g>
			<g>
				<polygon class="st19" points="112.1,45.5 57.1,73 56.6,66.2 111.3,37.2 				"/>
			</g>
			<g>
				<polygon class="st20" points="135.2,41 136.1,48.9 135.6,48.9 112.7,45.6 112.1,45.5 111.3,37.2 				"/>
			</g>
			<g>
				<polygon class="st7" points="114.7,66.5 58.7,90.1 57.6,73 112.7,45.6 				"/>
			</g>
			<g>
				<polygon class="st2" points="112.7,45.6 57.6,73 57.1,73 112.1,45.5 				"/>
			</g>
			<g>
				<polygon class="st21" points="133,103.4 73.7,119.6 73.1,112 132,94.1 				"/>
			</g>
			<g>
				<polygon class="st12" points="133,103.4 73.7,119.6 73.1,119.6 132.3,103.4 				"/>
			</g>
			<g>
				<polygon class="st12" points="132.3,103.4 73.1,119.6 71.1,119.6 130.1,103.3 				"/>
			</g>
			<g>
				<polygon class="st22" points="128.1,98.5 69.5,115.8 69.4,115.4 128.1,98.1 				"/>
			</g>
			<g>
				<polygon class="st7" points="137.8,68.9 79.3,91.2 58.7,90.1 114.7,66.5 				"/>
			</g>
			<g>
				<path class="st7" d="M112.7,45.6l22.9,3.3l2.2,20.1l-23.1-2.4L112.7,45.6z M129.5,61l-1-9.1l-7.4-1l0.9,9.2L129.5,61"/>
			</g>
			<g>
				<polygon class="st12" points="130.1,103.3 71.1,119.6 69.7,119.6 128.6,103.3 				"/>
			</g>
			<g>
				<polygon class="st22" points="128.6,103.3 69.7,119.6 69.5,115.8 128.1,98.5 				"/>
			</g>
			<g>
				<polygon class="st23" points="102.2,44.1 48.4,72.2 48,65.3 101.5,35.6 				"/>
			</g>
			<g>
				<polygon class="st2" points="102.2,44.1 48.4,72.2 47.9,72.2 101.7,44 				"/>
			</g>
			<g>
				<polygon class="st24" points="135.4,133.1 74.7,143.6 73.1,119.6 132.3,103.4 				"/>
			</g>
			<g>
				<polygon class="st25" points="132.3,103.4 135.4,133.1 133.2,133.1 130.1,103.3 				"/>
			</g>
			<g>
				<polygon class="st23" points="103.6,65.3 48.9,89.5 47.9,72.2 101.7,44 				"/>
			</g>
			<g>
				<polygon class="st4" points="101.5,35.6 48,65.3 24.3,63.1 74.3,31.4 				"/>
			</g>
			<g>
				<polygon class="st2" points="101.7,44 47.9,72.2 25.2,70.3 75.7,40.3 				"/>
			</g>
			<g>
				<polygon class="st7" points="94.4,56.9 41,83 40.6,75.1 93.6,47.2 				"/>
			</g>
			<g>
				<polygon class="st26" points="93,55.3 39.9,81.7 39.6,76.2 92.5,48.4 				"/>
			</g>
			<g>
				<polygon class="st7" points="93.6,47.2 40.6,75.1 33.3,74.5 85.2,46.1 				"/>
			</g>
			<g>
				<polygon class="st14" points="92.5,48.4 39.6,76.2 34.5,75.8 86.5,47.7 				"/>
			</g>
			<g>
				<polygon class="st7" points="93,55.3 39.9,81.7 34.8,81.4 87.1,54.6 				"/>
			</g>
			<g>
				<polygon class="st7" points="87.1,54.6 34.8,81.4 34.5,75.8 86.5,47.7 				"/>
			</g>
			<g>
				<path class="st17" d="M86,55.9l-0.8-9.8l8.4,1.1l0.8,9.7L86,55.9z M86.5,47.7l0.6,6.9l5.9,0.7l-0.6-6.8L86.5,47.7"/>
			</g>
			<g>
				<polygon class="st7" points="92.5,48.4 93,55.3 87.1,54.6 86.5,47.7 				"/>
			</g>
			<g>
				<polygon class="st14" points="94.4,56.9 41,83 33.7,82.5 86,55.9 				"/>
			</g>
			<g>
				<polygon class="st27" points="86,55.9 33.7,82.5 33.3,74.5 85.2,46.1 				"/>
			</g>
			<g>
				<polygon class="st2" points="75.7,40.3 25.2,70.3 24.6,70.2 75,40.2 				"/>
			</g>
			<g>
				<polygon class="st20" points="101.5,35.6 102.2,44.1 101.7,44 75.7,40.3 75,40.2 74.3,31.4 				"/>
			</g>
			<g>
				<polygon class="st28" points="75,40.2 24.6,70.2 24.3,63.1 74.3,31.4 				"/>
			</g>
			<g>
				<polygon class="st8" points="132,94.1 73.1,112 35.9,111.3 89.8,91.7 				"/>
			</g>
			<g>
				<polygon class="st12" points="128.1,98.1 69.4,115.4 40.5,115 95.2,96.5 				"/>
			</g>
			<g>
				<polygon class="st29" points="95.2,96.5 128.1,98.1 128.1,98.5 95.2,97 				"/>
			</g>
			<g>
				<polygon class="st30" points="95.2,97 40.5,115.4 40.5,115 95.2,96.5 				"/>
			</g>
			<g>
				<polygon class="st8" points="128.1,98.5 69.5,115.8 40.5,115.4 95.2,97 				"/>
			</g>
			<g>
				<polygon class="st31" points="95.6,102 40.7,119.4 40.5,115.4 95.2,97 				"/>
			</g>
			<g>
				<polygon class="st12" points="95.6,102 40.7,119.4 39.6,119.4 94.4,101.9 				"/>
			</g>
			<g>
				<path class="st7" d="M75.7,40.3l26,3.7l1.9,21.3l-26.3-2.8L75.7,40.3z M94.4,56.9l-0.8-9.7l-8.4-1.1l0.8,9.8L94.4,56.9"/>
			</g>
			<g>
				<polygon class="st7" points="77.3,62.6 26,88.2 25.2,70.3 75.7,40.3 				"/>
			</g>
			<g>
				<polygon class="st7" points="103.6,65.3 48.9,89.5 26,88.2 77.3,62.6 				"/>
			</g>
			<g>
				<polygon class="st32" points="81.9,75.2 29.6,98.3 29.4,95.9 81.6,72.3 				"/>
			</g>
			<g>
				<polygon class="st12" points="94.4,101.9 39.6,119.4 37.4,119.4 91.8,101.8 				"/>
			</g>
			<g>
				<polygon class="st33" points="90.6,101.8 36.3,119.4 35.9,111.3 89.8,91.7 				"/>
			</g>
			<g>
				<polygon class="st12" points="91.8,101.8 37.4,119.4 36.3,119.4 90.6,101.8 				"/>
			</g>
			<g>
				<polygon class="st34" points="84.8,96.5 31.4,115.2 30.8,100.3 83.3,77.8 				"/>
			</g>
			<g>
				<polygon class="st35" points="81.9,93.3 29.1,112.8 28.6,102.7 81,80.6 				"/>
			</g>
			<g>
				<polygon class="st32" points="79.9,89.6 27.5,109.9 27.3,105.4 79.5,84 				"/>
			</g>
			<g>
				<polygon class="st8" points="79.5,84 27.3,105.4 25,105.4 76.9,83.9 				"/>
			</g>
			<g>
				<polygon class="st31" points="97,133.8 40.9,144.8 39.6,119.4 94.4,101.9 				"/>
			</g>
			<g>
				<polygon class="st36" points="77.1,86.4 25.1,107.4 25,105.4 76.9,83.9 				"/>
			</g>
			<g>
				<polygon class="st25" points="94.4,101.9 97,133.8 96.5,133.8 94.4,133.8 91.8,101.8 				"/>
			</g>
			<g>
				<polygon class="st33" points="94.4,133.8 38.7,144.8 37.4,119.4 91.8,101.8 				"/>
			</g>
			<g>
				<polygon class="st8" points="81.6,72.3 29.4,95.9 14.7,95.2 64.4,70.7 				"/>
			</g>
			<g>
				<polygon class="st12" points="81.9,75.2 29.6,98.3 17.1,97.8 67.3,74 				"/>
			</g>
			<g>
				<polygon class="st8" points="83.3,77.8 30.8,100.3 18.7,99.9 69.3,76.7 				"/>
			</g>
			<g>
				<polygon class="st12" points="81,80.6 28.6,102.7 21.1,102.4 72.2,80 				"/>
			</g>
			<g>
				<polygon class="st8" points="77.1,86.4 25.1,107.4 21.3,107.3 72.6,86.1 				"/>
			</g>
			<g>
				<polygon class="st37" points="72.6,86.1 21.3,107.3 21.1,102.4 72.2,80 				"/>
			</g>
			<g>
				<polygon class="st38" points="70.2,89 19.1,109.7 18.7,99.9 69.3,76.7 				"/>
			</g>
			<g>
				<polygon class="st12" points="79.9,89.6 27.5,109.9 19.1,109.7 70.2,89 				"/>
			</g>
			<g>
				<polygon class="st39" points="68.6,92.6 17.7,112.6 17.1,97.8 67.3,74 				"/>
			</g>
			<g>
				<polygon class="st8" points="81.9,93.3 29.1,112.8 17.7,112.6 68.6,92.6 				"/>
			</g>
			<g>
				<polygon class="st40" points="66.1,95.6 15.4,115 14.7,95.2 64.4,70.7 				"/>
			</g>
			<g>
				<polygon class="st25" points="81.6,72.3 81.9,75.2 67.3,74 68.6,92.6 81.9,93.3 81,80.6 72.2,80 72.6,86.1 77.1,86.4 76.9,83.9 
					79.5,84 79.9,89.6 70.2,89 69.3,76.7 83.3,77.8 84.8,96.5 66.1,95.6 64.4,70.7 				"/>
			</g>
			<g>
				<polygon class="st12" points="84.8,96.5 31.4,115.2 15.4,115 66.1,95.6 				"/>
			</g>
			<g>
				<path class="st41" d="M53.1,6l94.8,18.4l12.9,108.3l-25.4,0.4l-3.1-29.7l0.7,0l-1-9.4l-42.3-2.4l0.8,10.1l1.3,0l2.6,32
					l-33.3,0.6L53.1,6z M114.7,66.5l23.1,2.4l-2.2-20.1l0.5,0.1l-0.9-8l-23.9-3.8l0.8,8.3l0.6,0.1L114.7,66.5 M102.2,44.1l-0.8-8.5
					l-27.2-4.3l0.7,8.8l0.7,0.1l1.7,22.3l26.3,2.8L101.7,44L102.2,44.1 M84.8,96.5l-1.4-18.6l-14-1.1L70.2,89l9.8,0.6L79.5,84
					l-2.6-0.2l0.2,2.5l-4.4-0.3L72.2,80l8.8,0.7l1,12.6l-13.3-0.7L67.3,74l14.5,1.2l-0.2-3l-17.2-1.5l1.7,24.8L84.8,96.5
					 M151.2,99.6l-2.5-21.4l-13.4-1.2l0.3,2.7l11.4,1l1.8,16.1l-10.4-0.6l-1.2-11.4l7,0.5l0.6,5.4l-3.5-0.2l-0.3-2.3l-2.1-0.1l0.5,5
					l7.6,0.5l-1.2-10.8L134.8,82l1.8,17L151.2,99.6"/>
			</g>
			<g>
				<polygon class="st42" points="132,94.1 133,103.4 132.3,103.4 130.1,103.3 128.6,103.3 128.1,98.5 128.1,98.1 95.2,96.5 
					95.2,97 95.6,102 94.4,101.9 91.8,101.8 90.6,101.8 89.8,91.7 				"/>
			</g>
			<g>
				<polygon class="st20" points="128.1,98.5 128.6,103.3 130.1,103.3 133.2,133.1 96.5,133.8 97,133.8 94.4,101.9 95.6,102 
					95.2,97 				"/>
			</g>
			<g>
				<polygon class="st43" points="61.1,134.4 10.1,145.8 6.8,43.5 53.1,6 				"/>
			</g>
			<g>
				<polygon class="st8" points="135.4,133.1 74.7,143.6 97.6,142.9 160.8,132.7 				"/>
				<polygon class="st8" points="61.1,134.4 10.1,145.8 38.7,144.8 94.4,133.8 				"/>
			</g>
		</g>
	</g>
	<polygon class="st44" points="61.1,134.4 160.8,132.7 97.6,142.9 10.1,145.8 	"/>
</g>
</svg>
