<?xml version="1.0" encoding="utf-8"?>
<!-- Generator: Adobe Illustrator 16.0.0, SVG Export Plug-In . SVG Version: 6.00 Build 0)  -->
<!DOCTYPE svg PUBLIC "-//W3C//DTD SVG 1.1//EN" "http://www.w3.org/Graphics/SVG/1.1/DTD/svg11.dtd">
<svg version="1.1" id="Layer_1" xmlns="http://www.w3.org/2000/svg" xmlns:xlink="http://www.w3.org/1999/xlink" x="0px" y="0px"
	 width="1000px" height="150px" viewBox="0 0 1000 150" enable-background="new 0 0 1000 150" xml:space="preserve">
<g>
	<rect x="528.5" y="19.5" fill="#6E1F75" width="450" height="120"/>
	<rect x="524.5" y="15.5" fill="#F51484" width="450" height="120"/>
	<rect x="520.5" y="11.5" fill="#F9F9F9" width="450" height="120"/>
	<g>
		<path fill="#3AB4FF" d="M564.789,91.02l6.396-37.695h9.643l7.666,20.142l8.082-20.142h9.766l5.688,37.695h-9.789l-2.76-21.704
			h-0.098l-9.057,21.704h-3.883l-8.666-21.704h-0.098l-3.15,21.704H564.789z"/>
		<path fill="#3AB4FF" d="M635.125,52.079c2.751,0,5.371,0.464,7.861,1.392c2.539,0.977,4.77,2.328,6.689,4.053
			c1.889,1.693,3.426,3.76,4.615,6.201c1.123,2.295,1.684,4.875,1.684,7.739c0,3.012-0.496,5.778-1.488,8.301
			c-1.043,2.572-2.508,4.794-4.395,6.665c-1.01,1.01-2.051,1.864-3.125,2.563c-1.074,0.7-2.239,1.294-3.492,1.782
			c-2.522,0.992-5.306,1.489-8.35,1.489c-2.994,0-5.762-0.497-8.301-1.489c-2.571-1.009-4.785-2.457-6.641-4.346
			c-0.928-0.911-1.745-1.9-2.453-2.967c-0.708-1.065-1.355-2.298-1.941-3.698c-1.009-2.555-1.514-5.322-1.514-8.301
			c0-1.351,0.143-2.677,0.428-3.979c0.285-1.302,0.712-2.555,1.281-3.76c1.205-2.474,2.734-4.541,4.59-6.201
			c1.938-1.741,4.191-3.092,6.764-4.053C629.762,52.543,632.358,52.079,635.125,52.079z M635.125,61.576
			c-1.92,0-3.686,0.464-5.297,1.392c-1.693,0.977-2.996,2.197-3.906,3.662c-0.961,1.596-1.441,3.223-1.441,4.883
			c0,2.067,0.48,3.988,1.441,5.762c0.977,1.774,2.262,3.125,3.857,4.053c1.676,0.961,3.458,1.44,5.346,1.44
			c1.921,0,3.703-0.479,5.348-1.44c1.594-0.911,2.88-2.262,3.857-4.053c0.959-1.725,1.439-3.646,1.439-5.762
			c0-1.709-0.48-3.336-1.439-4.883c-0.928-1.48-2.23-2.701-3.906-3.662C638.828,62.04,637.062,61.576,635.125,61.576z"/>
		<path fill="#3AB4FF" d="M680.047,75.565l11.842,15.454h-12.207l-9.229-14.502h-0.123V91.02h-9.789V53.324h14.648
			c2.604,0,4.874,0.415,6.811,1.245c2.002,0.879,3.532,2.165,4.59,3.857c1.14,1.726,1.709,3.891,1.709,6.494
			c0,1.758-0.316,3.394-0.951,4.907c-0.684,1.53-1.62,2.775-2.809,3.735C683.318,74.557,681.821,75.224,680.047,75.565z
			 M670.33,60.819v9.399h0.953c1.35,0,2.49-0.113,3.418-0.342c1.008-0.293,1.822-0.765,2.441-1.416
			c0.635-0.65,0.951-1.627,0.951-2.93c0-1.318-0.316-2.303-0.951-2.954c-0.619-0.65-1.434-1.123-2.441-1.416
			c-0.896-0.228-2.035-0.342-3.418-0.342H670.33z"/>
		<path fill="#3AB4FF" d="M716.01,61.625h-11.67v6.299h11.059v8.301H704.34v6.494h11.67v8.301h-21.461V53.324h21.461V61.625z"/>
		<path fill="#3AB4FF" d="M739.178,91.02V53.324h13.893c2.555,0,5.029,0.48,7.422,1.44c2.344,0.944,4.386,2.279,6.127,4.004
			c1.807,1.742,3.174,3.744,4.102,6.006c0.505,1.14,0.883,2.323,1.136,3.552c0.252,1.229,0.378,2.512,0.378,3.846
			c0,3.451-0.871,6.616-2.611,9.497c-1.742,2.93-4.07,5.217-6.982,6.86c-1.514,0.83-3.061,1.453-4.639,1.867
			c-1.58,0.416-3.223,0.623-4.932,0.623H739.178z M748.969,61.625v21.094h2.221c1.986,0,3.816-0.382,5.494-1.147
			c1.676-0.781,2.979-1.944,3.906-3.491c0.959-1.627,1.439-3.597,1.439-5.908c0-3.304-0.984-5.892-2.953-7.764
			c-0.652-0.602-1.376-1.111-2.174-1.525c-0.797-0.416-1.66-0.729-2.588-0.94c-0.928-0.211-1.937-0.317-3.027-0.317H748.969z"/>
		<path fill="#3AB4FF" d="M798.236,61.625h-11.67v6.299h11.059v8.301h-11.059v6.494h11.67v8.301h-21.461V53.324h21.461V61.625z"/>
		<path fill="#3AB4FF" d="M819.256,61.625V91.02h-9.789V61.625h-8.105v-8.301h26v8.301H819.256z"/>
		<path fill="#3AB4FF" d="M854.021,84.477h-13.501l-2.587,6.543h-10.4l14.502-37.695h10.692l14.209,37.695h-10.448L854.021,84.477z
			 M851.385,76.981l-4.004-12.012h-0.098l-4.053,12.012H851.385z"/>
		<path fill="#3AB4FF" d="M879.754,53.324V91.02h-9.789V53.324H879.754z"/>
		<path fill="#3AB4FF" d="M895.965,53.324v29.395h11.768v8.301h-21.557V53.324H895.965z"/>
		<path fill="#3AB4FF" d="M935.541,55.424l-3.906,7.593c-2.035-1.66-4.199-2.49-6.494-2.49c-1.043,0-1.994,0.285-2.857,0.854
			c-0.895,0.537-1.342,1.303-1.342,2.295c0,0.961,0.398,1.693,1.195,2.197c0.749,0.488,1.799,0.952,3.15,1.392l2.49,0.757
			c2.848,0.83,5.135,2.043,6.859,3.638c1.628,1.611,2.441,3.833,2.441,6.665c0,4.558-1.302,7.943-3.906,10.156
			c-2.799,2.36-6.363,3.54-10.693,3.54c-4.72,0-9.139-1.432-13.256-4.297l4.199-7.91c2.945,2.604,5.851,3.906,8.715,3.906
			c1.237,0,2.336-0.333,3.297-1.001c0.959-0.667,1.439-1.603,1.439-2.808c0-1.221-0.529-2.1-1.586-2.637
			c-0.994-0.504-2.441-1.058-4.346-1.66c-2.246-0.602-4.135-1.285-5.664-2.051c-1.449-0.732-2.568-1.766-3.357-3.101
			c-0.789-1.334-1.184-3.165-1.184-5.493c0-2.506,0.545-4.72,1.635-6.641c1.156-1.953,2.711-3.442,4.664-4.468
			c1.904-1.025,4.133-1.538,6.689-1.538c1.887,0,3.922,0.285,6.104,0.854C931.943,53.715,933.848,54.464,935.541,55.424z"/>
	</g>
	<g>
		<path fill="#F51484" d="M561.789,88.02l6.396-37.695h9.643l7.666,20.142l8.082-20.142h9.766l5.688,37.695h-9.789l-2.76-21.704
			h-0.098l-9.057,21.704h-3.883l-8.666-21.704h-0.098l-3.15,21.704H561.789z"/>
		<path fill="#F51484" d="M632.125,49.079c2.751,0,5.371,0.464,7.861,1.392c2.539,0.977,4.77,2.328,6.689,4.053
			c1.889,1.693,3.426,3.76,4.615,6.201c1.123,2.295,1.684,4.875,1.684,7.739c0,3.012-0.496,5.778-1.488,8.301
			c-1.043,2.572-2.508,4.794-4.395,6.665c-1.01,1.01-2.051,1.864-3.125,2.563c-1.074,0.7-2.239,1.294-3.492,1.782
			c-2.522,0.992-5.306,1.489-8.35,1.489c-2.994,0-5.762-0.497-8.301-1.489c-2.571-1.009-4.785-2.457-6.641-4.346
			c-0.928-0.911-1.745-1.9-2.453-2.967c-0.708-1.065-1.355-2.298-1.941-3.698c-1.009-2.555-1.514-5.322-1.514-8.301
			c0-1.351,0.143-2.677,0.428-3.979c0.285-1.302,0.712-2.555,1.281-3.76c1.205-2.474,2.734-4.541,4.59-6.201
			c1.938-1.741,4.191-3.092,6.764-4.053C626.762,49.543,629.358,49.079,632.125,49.079z M632.125,58.576
			c-1.92,0-3.686,0.464-5.297,1.392c-1.693,0.977-2.996,2.197-3.906,3.662c-0.961,1.596-1.441,3.223-1.441,4.883
			c0,2.067,0.48,3.988,1.441,5.762c0.977,1.774,2.262,3.125,3.857,4.053c1.676,0.961,3.458,1.44,5.346,1.44
			c1.921,0,3.703-0.479,5.348-1.44c1.594-0.911,2.88-2.262,3.857-4.053c0.959-1.725,1.439-3.646,1.439-5.762
			c0-1.709-0.48-3.336-1.439-4.883c-0.928-1.48-2.23-2.701-3.906-3.662C635.828,59.04,634.062,58.576,632.125,58.576z"/>
		<path fill="#F51484" d="M677.047,72.565l11.842,15.454h-12.207l-9.229-14.502h-0.123V88.02h-9.789V50.324h14.648
			c2.604,0,4.874,0.415,6.811,1.245c2.002,0.879,3.532,2.165,4.59,3.857c1.14,1.726,1.709,3.891,1.709,6.494
			c0,1.758-0.316,3.394-0.951,4.907c-0.684,1.53-1.62,2.775-2.809,3.735C680.318,71.557,678.821,72.224,677.047,72.565z
			 M667.33,57.819v9.399h0.953c1.35,0,2.49-0.113,3.418-0.342c1.008-0.293,1.822-0.765,2.441-1.416
			c0.635-0.65,0.951-1.627,0.951-2.93c0-1.318-0.316-2.303-0.951-2.954c-0.619-0.65-1.434-1.123-2.441-1.416
			c-0.896-0.228-2.035-0.342-3.418-0.342H667.33z"/>
		<path fill="#F51484" d="M713.01,58.625h-11.67v6.299h11.059v8.301H701.34v6.494h11.67v8.301h-21.461V50.324h21.461V58.625z"/>
		<path fill="#F51484" d="M736.178,88.02V50.324h13.893c2.555,0,5.029,0.48,7.422,1.44c2.344,0.944,4.386,2.279,6.127,4.004
			c1.807,1.742,3.174,3.744,4.102,6.006c0.505,1.14,0.883,2.323,1.136,3.552c0.252,1.229,0.378,2.512,0.378,3.846
			c0,3.451-0.871,6.616-2.611,9.497c-1.742,2.93-4.07,5.217-6.982,6.86c-1.514,0.83-3.061,1.453-4.639,1.867
			c-1.58,0.416-3.223,0.623-4.932,0.623H736.178z M745.969,58.625v21.094h2.221c1.986,0,3.816-0.382,5.494-1.147
			c1.676-0.781,2.979-1.944,3.906-3.491c0.959-1.627,1.439-3.597,1.439-5.908c0-3.304-0.984-5.892-2.953-7.764
			c-0.652-0.602-1.376-1.111-2.174-1.525c-0.797-0.416-1.66-0.729-2.588-0.94c-0.928-0.211-1.937-0.317-3.027-0.317H745.969z"/>
		<path fill="#F51484" d="M795.236,58.625h-11.67v6.299h11.059v8.301h-11.059v6.494h11.67v8.301h-21.461V50.324h21.461V58.625z"/>
		<path fill="#F51484" d="M816.256,58.625V88.02h-9.789V58.625h-8.105v-8.301h26v8.301H816.256z"/>
		<path fill="#F51484" d="M851.021,81.477h-13.501l-2.587,6.543h-10.4l14.502-37.695h10.692l14.209,37.695h-10.448L851.021,81.477z
			 M848.385,73.981l-4.004-12.012h-0.098l-4.053,12.012H848.385z"/>
		<path fill="#F51484" d="M876.754,50.324V88.02h-9.789V50.324H876.754z"/>
		<path fill="#F51484" d="M892.965,50.324v29.395h11.768v8.301h-21.557V50.324H892.965z"/>
		<path fill="#F51484" d="M932.541,52.424l-3.906,7.593c-2.035-1.66-4.199-2.49-6.494-2.49c-1.043,0-1.994,0.285-2.857,0.854
			c-0.895,0.537-1.342,1.303-1.342,2.295c0,0.961,0.398,1.693,1.195,2.197c0.749,0.488,1.799,0.952,3.15,1.392l2.49,0.757
			c2.848,0.83,5.135,2.043,6.859,3.638c1.628,1.611,2.441,3.833,2.441,6.665c0,4.558-1.302,7.943-3.906,10.156
			c-2.799,2.36-6.363,3.54-10.693,3.54c-4.72,0-9.139-1.432-13.256-4.297l4.199-7.91c2.945,2.604,5.851,3.906,8.715,3.906
			c1.237,0,2.336-0.333,3.297-1.001c0.959-0.667,1.439-1.603,1.439-2.808c0-1.221-0.529-2.1-1.586-2.637
			c-0.994-0.504-2.441-1.058-4.346-1.66c-2.246-0.602-4.135-1.285-5.664-2.051c-1.449-0.732-2.568-1.766-3.357-3.101
			c-0.789-1.334-1.184-3.165-1.184-5.493c0-2.506,0.545-4.72,1.635-6.641c1.156-1.953,2.711-3.442,4.664-4.468
			c1.904-1.025,4.133-1.538,6.689-1.538c1.887,0,3.922,0.285,6.104,0.854C928.943,50.715,930.848,51.464,932.541,52.424z"/>
	</g>
</g>
<g>
	<rect x="28.5" y="19.5" fill="#F9F9F9" width="450" height="120"/>
	<rect x="24.5" y="15.5" fill="#F51484" width="450" height="120"/>
	<rect x="20.5" y="11.5" fill="#6E1F75" width="450" height="120"/>
	<g>
		<path fill="#F51484" d="M64.789,91.02l6.396-37.695h9.644l7.666,20.142l8.081-20.142h9.766l5.688,37.695h-9.79l-2.759-21.704
			h-0.098L90.326,91.02h-3.882l-8.667-21.704h-0.098L74.53,91.02H64.789z"/>
		<path fill="#F51484" d="M135.125,52.079c2.75,0,5.371,0.464,7.861,1.392c2.539,0.977,4.769,2.328,6.689,4.053
			c1.887,1.693,3.426,3.76,4.614,6.201c1.123,2.295,1.685,4.875,1.685,7.739c0,3.012-0.497,5.778-1.489,8.301
			c-1.042,2.572-2.507,4.794-4.395,6.665c-1.009,1.01-2.051,1.864-3.125,2.563c-1.074,0.7-2.239,1.294-3.491,1.782
			c-2.523,0.992-5.306,1.489-8.35,1.489c-2.995,0-5.762-0.497-8.301-1.489c-2.572-1.009-4.785-2.457-6.641-4.346
			c-0.928-0.911-1.746-1.9-2.454-2.967c-0.708-1.065-1.355-2.298-1.941-3.698c-1.009-2.555-1.514-5.322-1.514-8.301
			c0-1.351,0.142-2.677,0.427-3.979c0.285-1.302,0.712-2.555,1.282-3.76c1.204-2.474,2.734-4.541,4.59-6.201
			c1.937-1.741,4.191-3.092,6.763-4.053C129.762,52.543,132.358,52.079,135.125,52.079z M135.125,61.576
			c-1.921,0-3.687,0.464-5.298,1.392c-1.693,0.977-2.995,2.197-3.906,3.662c-0.96,1.596-1.44,3.223-1.44,4.883
			c0,2.067,0.48,3.988,1.44,5.762c0.977,1.774,2.262,3.125,3.857,4.053c1.676,0.961,3.458,1.44,5.347,1.44
			c1.92,0,3.703-0.479,5.347-1.44c1.595-0.911,2.88-2.262,3.857-4.053c0.96-1.725,1.44-3.646,1.44-5.762
			c0-1.709-0.48-3.336-1.44-4.883c-0.928-1.48-2.23-2.701-3.906-3.662C138.828,62.04,137.062,61.576,135.125,61.576z"/>
		<path fill="#F51484" d="M180.047,75.565l11.841,15.454h-12.207l-9.229-14.502h-0.122V91.02h-9.79V53.324h14.648
			c2.604,0,4.875,0.415,6.812,1.245c2.002,0.879,3.532,2.165,4.59,3.857c1.139,1.726,1.709,3.891,1.709,6.494
			c0,1.758-0.317,3.394-0.952,4.907c-0.684,1.53-1.62,2.775-2.808,3.735C183.319,74.557,181.821,75.224,180.047,75.565z
			 M170.331,60.819v9.399h0.952c1.351,0,2.49-0.113,3.418-0.342c1.009-0.293,1.823-0.765,2.441-1.416
			c0.635-0.65,0.952-1.627,0.952-2.93c0-1.318-0.317-2.303-0.952-2.954c-0.619-0.65-1.433-1.123-2.441-1.416
			c-0.896-0.228-2.035-0.342-3.418-0.342H170.331z"/>
		<path fill="#F51484" d="M216.009,61.625h-11.67v6.299h11.06v8.301h-11.06v6.494h11.67v8.301h-21.46V53.324h21.46V61.625z"/>
		<path fill="#F51484" d="M239.178,91.02V53.324h13.892c2.555,0,5.029,0.48,7.422,1.44c2.344,0.944,4.386,2.279,6.127,4.004
			c1.807,1.742,3.174,3.744,4.102,6.006c0.505,1.14,0.883,2.323,1.136,3.552c0.252,1.229,0.378,2.512,0.378,3.846
			c0,3.451-0.871,6.616-2.611,9.497c-1.742,2.93-4.07,5.217-6.982,6.86c-1.514,0.83-3.061,1.453-4.639,1.867
			c-1.58,0.416-3.223,0.623-4.932,0.623H239.178z M248.968,61.625v21.094h2.221c1.986,0,3.816-0.382,5.494-1.147
			c1.676-0.781,2.979-1.944,3.906-3.491c0.959-1.627,1.439-3.597,1.439-5.908c0-3.304-0.984-5.892-2.953-7.764
			c-0.652-0.602-1.376-1.111-2.174-1.525c-0.798-0.416-1.66-0.729-2.588-0.94c-0.928-0.211-1.937-0.317-3.027-0.317H248.968z"/>
		<path fill="#F51484" d="M298.236,61.625h-11.67v6.299h11.059v8.301h-11.059v6.494h11.67v8.301h-21.461V53.324h21.461V61.625z"/>
		<path fill="#F51484" d="M319.256,61.625V91.02h-9.789V61.625h-8.105v-8.301h26v8.301H319.256z"/>
		<path fill="#F51484" d="M354.021,84.477h-13.501l-2.587,6.543h-10.4l14.502-37.695h10.692l14.209,37.695h-10.448L354.021,84.477z
			 M351.385,76.981l-4.004-12.012h-0.098l-4.053,12.012H351.385z"/>
		<path fill="#F51484" d="M379.754,53.324V91.02h-9.789V53.324H379.754z"/>
		<path fill="#F51484" d="M395.965,53.324v29.395h11.768v8.301h-21.557V53.324H395.965z"/>
		<path fill="#F51484" d="M435.541,55.424l-3.906,7.593c-2.035-1.66-4.199-2.49-6.494-2.49c-1.043,0-1.995,0.285-2.857,0.854
			c-0.895,0.537-1.342,1.303-1.342,2.295c0,0.961,0.398,1.693,1.195,2.197c0.749,0.488,1.799,0.952,3.15,1.392l2.49,0.757
			c2.848,0.83,5.135,2.043,6.859,3.638c1.628,1.611,2.441,3.833,2.441,6.665c0,4.558-1.302,7.943-3.906,10.156
			c-2.799,2.36-6.363,3.54-10.693,3.54c-4.72,0-9.139-1.432-13.256-4.297l4.199-7.91c2.945,2.604,5.851,3.906,8.715,3.906
			c1.237,0,2.336-0.333,3.297-1.001c0.959-0.667,1.439-1.603,1.439-2.808c0-1.221-0.529-2.1-1.586-2.637
			c-0.994-0.504-2.441-1.058-4.346-1.66c-2.246-0.602-4.135-1.285-5.664-2.051c-1.449-0.732-2.568-1.766-3.357-3.101
			c-0.789-1.334-1.184-3.165-1.184-5.493c0-2.506,0.545-4.72,1.635-6.641c1.156-1.953,2.711-3.442,4.664-4.468
			c1.904-1.025,4.133-1.538,6.689-1.538c1.887,0,3.922,0.285,6.104,0.854C431.943,53.715,433.848,54.464,435.541,55.424z"/>
	</g>
	<g>
		<path fill="#3AB4FF" d="M61.789,88.02l6.396-37.695h9.644l7.666,20.142l8.081-20.142h9.766l5.688,37.695h-9.79l-2.759-21.704
			h-0.098L87.326,88.02h-3.882l-8.667-21.704h-0.098L71.53,88.02H61.789z"/>
		<path fill="#3AB4FF" d="M132.125,49.079c2.75,0,5.371,0.464,7.861,1.392c2.539,0.977,4.769,2.328,6.689,4.053
			c1.887,1.693,3.426,3.76,4.614,6.201c1.123,2.295,1.685,4.875,1.685,7.739c0,3.012-0.497,5.778-1.489,8.301
			c-1.042,2.572-2.507,4.794-4.395,6.665c-1.009,1.01-2.051,1.864-3.125,2.563c-1.074,0.7-2.239,1.294-3.491,1.782
			c-2.523,0.992-5.306,1.489-8.35,1.489c-2.995,0-5.762-0.497-8.301-1.489c-2.572-1.009-4.785-2.457-6.641-4.346
			c-0.928-0.911-1.746-1.9-2.454-2.967c-0.708-1.065-1.355-2.298-1.941-3.698c-1.009-2.555-1.514-5.322-1.514-8.301
			c0-1.351,0.142-2.677,0.427-3.979c0.285-1.302,0.712-2.555,1.282-3.76c1.204-2.474,2.734-4.541,4.59-6.201
			c1.937-1.741,4.191-3.092,6.763-4.053C126.762,49.543,129.358,49.079,132.125,49.079z M132.125,58.576
			c-1.921,0-3.687,0.464-5.298,1.392c-1.693,0.977-2.995,2.197-3.906,3.662c-0.96,1.596-1.44,3.223-1.44,4.883
			c0,2.067,0.48,3.988,1.44,5.762c0.977,1.774,2.262,3.125,3.857,4.053c1.676,0.961,3.458,1.44,5.347,1.44
			c1.92,0,3.703-0.479,5.347-1.44c1.595-0.911,2.88-2.262,3.857-4.053c0.96-1.725,1.44-3.646,1.44-5.762
			c0-1.709-0.48-3.336-1.44-4.883c-0.928-1.48-2.23-2.701-3.906-3.662C135.828,59.04,134.062,58.576,132.125,58.576z"/>
		<path fill="#3AB4FF" d="M177.047,72.565l11.841,15.454h-12.207l-9.229-14.502h-0.122V88.02h-9.79V50.324h14.648
			c2.604,0,4.875,0.415,6.812,1.245c2.002,0.879,3.532,2.165,4.59,3.857c1.139,1.726,1.709,3.891,1.709,6.494
			c0,1.758-0.317,3.394-0.952,4.907c-0.684,1.53-1.62,2.775-2.808,3.735C180.319,71.557,178.821,72.224,177.047,72.565z
			 M167.331,57.819v9.399h0.952c1.351,0,2.49-0.113,3.418-0.342c1.009-0.293,1.823-0.765,2.441-1.416
			c0.635-0.65,0.952-1.627,0.952-2.93c0-1.318-0.317-2.303-0.952-2.954c-0.619-0.65-1.433-1.123-2.441-1.416
			c-0.896-0.228-2.035-0.342-3.418-0.342H167.331z"/>
		<path fill="#3AB4FF" d="M213.009,58.625h-11.67v6.299h11.06v8.301h-11.06v6.494h11.67v8.301h-21.46V50.324h21.46V58.625z"/>
		<path fill="#3AB4FF" d="M236.178,88.02V50.324h13.892c2.555,0,5.03,0.48,7.422,1.44c2.344,0.944,4.386,2.279,6.127,4.004
			c1.807,1.742,3.174,3.744,4.102,6.006c0.505,1.14,0.883,2.323,1.136,3.552c0.252,1.229,0.378,2.512,0.378,3.846
			c0,3.451-0.871,6.616-2.611,9.497c-1.742,2.93-4.07,5.217-6.982,6.86c-1.514,0.83-3.061,1.453-4.639,1.867
			c-1.58,0.416-3.223,0.623-4.932,0.623H236.178z M245.968,58.625v21.094h2.222c1.985,0,3.816-0.382,5.494-1.147
			c1.676-0.781,2.979-1.944,3.906-3.491c0.959-1.627,1.439-3.597,1.439-5.908c0-3.304-0.984-5.892-2.953-7.764
			c-0.652-0.602-1.376-1.111-2.174-1.525c-0.798-0.416-1.66-0.729-2.588-0.94c-0.927-0.211-1.937-0.317-3.027-0.317H245.968z"/>
		<path fill="#3AB4FF" d="M295.236,58.625h-11.67v6.299h11.059v8.301h-11.059v6.494h11.67v8.301h-21.461V50.324h21.461V58.625z"/>
		<path fill="#3AB4FF" d="M316.256,58.625V88.02h-9.789V58.625h-8.105v-8.301h26v8.301H316.256z"/>
		<path fill="#3AB4FF" d="M351.021,81.477h-13.501l-2.587,6.543h-10.4l14.502-37.695h10.692l14.209,37.695h-10.448L351.021,81.477z
			 M348.385,73.981l-4.004-12.012h-0.098l-4.053,12.012H348.385z"/>
		<path fill="#3AB4FF" d="M376.754,50.324V88.02h-9.789V50.324H376.754z"/>
		<path fill="#3AB4FF" d="M392.965,50.324v29.395h11.768v8.301h-21.557V50.324H392.965z"/>
		<path fill="#3AB4FF" d="M432.541,52.424l-3.906,7.593c-2.035-1.66-4.199-2.49-6.494-2.49c-1.043,0-1.995,0.285-2.857,0.854
			c-0.895,0.537-1.342,1.303-1.342,2.295c0,0.961,0.398,1.693,1.195,2.197c0.749,0.488,1.799,0.952,3.15,1.392l2.49,0.757
			c2.848,0.83,5.135,2.043,6.859,3.638c1.628,1.611,2.441,3.833,2.441,6.665c0,4.558-1.302,7.943-3.906,10.156
			c-2.799,2.36-6.363,3.54-10.693,3.54c-4.72,0-9.139-1.432-13.256-4.297l4.199-7.91c2.945,2.604,5.851,3.906,8.715,3.906
			c1.237,0,2.336-0.333,3.297-1.001c0.959-0.667,1.439-1.603,1.439-2.808c0-1.221-0.529-2.1-1.586-2.637
			c-0.994-0.504-2.441-1.058-4.346-1.66c-2.246-0.602-4.135-1.285-5.664-2.051c-1.449-0.732-2.568-1.766-3.357-3.101
			c-0.789-1.334-1.184-3.165-1.184-5.493c0-2.506,0.545-4.72,1.635-6.641c1.156-1.953,2.711-3.442,4.664-4.468
			c1.904-1.025,4.133-1.538,6.689-1.538c1.887,0,3.922,0.285,6.104,0.854C428.943,50.715,430.848,51.464,432.541,52.424z"/>
	</g>
</g>
</svg>
