<?xml version="1.0" encoding="utf-8"?>
<!-- Generator: Adobe Illustrator 16.0.0, SVG Export Plug-In . SVG Version: 6.00 Build 0)  -->
<!DOCTYPE svg PUBLIC "-//W3C//DTD SVG 1.1//EN" "http://www.w3.org/Graphics/SVG/1.1/DTD/svg11.dtd">
<svg version="1.1" id="Layer_1" xmlns="http://www.w3.org/2000/svg" xmlns:xlink="http://www.w3.org/1999/xlink" x="0px" y="0px"
	 width="320px" height="50px" viewBox="0 0 320 50" enable-background="new 0 0 320 50" xml:space="preserve">
<g>
	<path fill="#F51484" d="M17.103,29.374l-1.445,2.811c-0.752-0.615-1.553-0.923-2.403-0.923c-0.384,0-0.737,0.106-1.056,0.316
		c-0.332,0.198-0.498,0.482-0.498,0.85c0,0.355,0.148,0.627,0.442,0.813c0.277,0.181,0.665,0.352,1.166,0.514l0.922,0.28
		c1.053,0.308,1.899,0.756,2.538,1.347c0.603,0.597,0.903,1.419,0.903,2.466c0,1.688-0.482,2.939-1.445,3.76
		c-1.035,0.872-2.354,1.31-3.957,1.31c-1.746,0-3.382-0.531-4.905-1.59l1.554-2.928c1.091,0.964,2.166,1.445,3.225,1.445
		c0.458,0,0.865-0.123,1.22-0.37c0.355-0.247,0.533-0.594,0.533-1.039c0-0.451-0.195-0.777-0.587-0.977
		c-0.368-0.186-0.903-0.39-1.608-0.613c-0.832-0.224-1.528-0.476-2.097-0.759c-0.534-0.271-0.95-0.654-1.242-1.148
		c-0.291-0.492-0.438-1.171-0.438-2.032c0-0.928,0.202-1.746,0.605-2.457c0.429-0.723,1.004-1.273,1.727-1.653
		c0.703-0.379,1.529-0.569,2.475-0.569c0.699,0,1.452,0.106,2.259,0.316C15.772,28.741,16.476,29.019,17.103,29.374z"/>
	<path fill="#F51484" d="M23.021,28.598v13.947h-3.622V28.598H23.021z"/>
	<path fill="#F51484" d="M32.109,34.758h7.199c-0.019,0.868-0.061,1.558-0.126,2.068c-0.048,0.513-0.185,1.094-0.407,1.744
		c-0.216,0.609-0.514,1.176-0.894,1.699c-1.301,1.825-3.217,2.737-5.746,2.737c-1.421,0-2.71-0.308-3.867-0.921
		c-1.155-0.633-2.032-1.503-2.628-2.611c-0.633-1.126-0.949-2.403-0.949-3.83c0-1.072,0.182-2.096,0.542-3.072
		c0.356-0.928,0.875-1.723,1.554-2.385c0.662-0.65,1.465-1.157,2.403-1.519c0.928-0.354,1.951-0.532,3.071-0.532
		c0.946,0,1.828,0.141,2.647,0.424c0.795,0.29,1.504,0.726,2.122,1.31c0.633,0.615,1.139,1.338,1.52,2.169l-3.442,1.438
		c-0.235-0.675-0.624-1.217-1.165-1.627c-0.519-0.392-1.137-0.588-1.854-0.588c-0.758,0-1.411,0.208-1.96,0.624
		c-0.554,0.445-0.966,0.997-1.237,1.653c-0.283,0.687-0.425,1.395-0.425,2.123c0,0.734,0.142,1.439,0.425,2.114
		c0.295,0.675,0.72,1.217,1.273,1.625c0.567,0.416,1.229,0.624,1.988,0.624c0.519,0,0.991-0.09,1.418-0.271
		c0.434-0.193,0.78-0.464,1.04-0.813c0.252-0.337,0.405-0.782,0.459-1.336h-2.962V34.758z"/>
	<path fill="#F51484" d="M40.972,42.545V28.598h3.623l6.648,8.528h0.036v-8.528h3.623v13.947h-3.623l-6.64-8.546h-0.045v8.546
		H40.972z"/>
	<path fill="#F51484" d="M72.085,28.598h3.623v7.841c0,0.362-0.006,0.681-0.019,0.959c-0.012,0.276-0.036,0.593-0.072,0.948
		c-0.06,0.566-0.194,1.102-0.406,1.608c-0.187,0.486-0.506,0.957-0.957,1.409c-0.387,0.367-0.832,0.668-1.338,0.902
		c-0.506,0.229-1.035,0.392-1.59,0.488c-0.566,0.108-1.132,0.163-1.698,0.163c-0.873,0-1.732-0.123-2.574-0.372
		c-0.417-0.125-0.789-0.286-1.121-0.478c-0.331-0.192-0.641-0.427-0.931-0.704c-0.451-0.452-0.773-0.923-0.967-1.409
		c-0.217-0.513-0.352-1.042-0.405-1.591c-0.062-0.614-0.091-1.256-0.091-1.925v-7.841h3.623v7.345c0,0.746,0.051,1.394,0.153,1.941
		c0.084,0.495,0.31,0.931,0.678,1.311c0.361,0.361,0.905,0.542,1.635,0.542c0.722,0,1.265-0.181,1.626-0.542s0.59-0.798,0.688-1.311
		c0.096-0.565,0.144-1.214,0.144-1.941V28.598z"/>
	<path fill="#F51484" d="M78.002,42.545V28.598h5.548c1.023,0,1.918,0.159,2.684,0.478c0.745,0.326,1.333,0.837,1.761,1.537
		c0.423,0.68,0.633,1.538,0.633,2.574c0,0.771-0.105,1.479-0.315,2.123c-0.225,0.59-0.546,1.078-0.967,1.464
		c-0.41,0.373-0.929,0.663-1.556,0.867c-0.596,0.187-1.297,0.279-2.104,0.279h-2.06v4.625H78.002z M81.626,31.516v3.478h0.613
		c0.536,0,0.999-0.029,1.392-0.09c0.338-0.055,0.625-0.201,0.863-0.438c0.237-0.238,0.356-0.628,0.356-1.17
		c0-0.561-0.111-0.961-0.335-1.201c-0.228-0.265-0.512-0.424-0.849-0.479c-0.367-0.065-0.844-0.099-1.428-0.099H81.626z"/>
	<path fill="#F51484" d="M104.591,31.67H100.2v2.329h3.983v3.072H100.2v5.474h-3.623V28.598h8.014V31.67z"/>
	<path fill="#F51484" d="M113.615,28.137c1.018,0,1.988,0.171,2.909,0.515c0.94,0.362,1.764,0.862,2.475,1.499
		c0.7,0.627,1.269,1.393,1.709,2.295c0.415,0.85,0.623,1.805,0.623,2.864c0,1.114-0.185,2.138-0.552,3.072
		c-0.386,0.952-0.927,1.773-1.626,2.467c-0.373,0.373-0.759,0.688-1.157,0.948c-0.396,0.258-0.827,0.479-1.291,0.658
		c-0.934,0.367-1.964,0.552-3.09,0.552c-1.108,0-2.132-0.185-3.072-0.552c-0.951-0.372-1.77-0.909-2.457-1.606
		c-0.343-0.339-0.646-0.704-0.907-1.099c-0.263-0.395-0.501-0.851-0.718-1.368c-0.374-0.945-0.561-1.97-0.561-3.072
		c0-0.499,0.053-0.991,0.158-1.473c0.104-0.481,0.263-0.944,0.473-1.392c0.447-0.915,1.014-1.68,1.699-2.295
		c0.717-0.645,1.551-1.143,2.503-1.499C111.631,28.308,112.591,28.137,113.615,28.137z M113.615,31.65
		c-0.711,0-1.364,0.172-1.961,0.516c-0.625,0.36-1.107,0.813-1.445,1.354c-0.355,0.591-0.533,1.192-0.533,1.808
		c0,0.765,0.178,1.476,0.533,2.131c0.361,0.657,0.838,1.158,1.428,1.5c0.621,0.355,1.28,0.535,1.979,0.535
		c0.711,0,1.37-0.18,1.978-0.535c0.591-0.336,1.067-0.837,1.428-1.5c0.356-0.638,0.534-1.35,0.534-2.131
		c0-0.633-0.178-1.234-0.534-1.808c-0.343-0.548-0.824-1-1.444-1.354C114.985,31.822,114.332,31.65,113.615,31.65z"/>
	<path fill="#F51484" d="M130.238,36.826l4.381,5.719h-4.516l-3.415-5.365h-0.046v5.365h-3.623V28.598h5.421
		c0.964,0,1.804,0.153,2.521,0.461c0.741,0.325,1.308,0.8,1.698,1.427c0.421,0.639,0.633,1.439,0.633,2.402
		c0,0.651-0.117,1.257-0.353,1.817c-0.254,0.565-0.6,1.026-1.039,1.382C131.449,36.454,130.895,36.7,130.238,36.826z
		 M126.643,31.371v3.478h0.353c0.5,0,0.921-0.042,1.265-0.126c0.374-0.108,0.675-0.283,0.903-0.524
		c0.235-0.241,0.354-0.603,0.354-1.084c0-0.487-0.118-0.852-0.354-1.093c-0.229-0.24-0.529-0.416-0.903-0.524
		c-0.331-0.084-0.753-0.126-1.265-0.126H126.643z"/>
	<path fill="#F51484" d="M148.957,28.137c1.019,0,1.987,0.171,2.908,0.515c0.94,0.362,1.766,0.862,2.477,1.499
		c0.699,0.627,1.268,1.393,1.707,2.295c0.416,0.85,0.624,1.805,0.624,2.864c0,1.114-0.185,2.138-0.553,3.072
		c-0.384,0.952-0.926,1.773-1.625,2.467c-0.373,0.373-0.759,0.688-1.157,0.948c-0.396,0.258-0.827,0.479-1.291,0.658
		c-0.934,0.367-1.964,0.552-3.09,0.552c-1.108,0-2.132-0.185-3.071-0.552c-0.951-0.372-1.771-0.909-2.457-1.606
		c-0.344-0.339-0.646-0.704-0.909-1.099c-0.262-0.395-0.5-0.851-0.718-1.368c-0.372-0.945-0.56-1.97-0.56-3.072
		c0-0.499,0.053-0.991,0.158-1.473s0.264-0.944,0.474-1.392c0.446-0.915,1.012-1.68,1.698-2.295
		c0.717-0.645,1.551-1.143,2.504-1.499C146.973,28.308,147.933,28.137,148.957,28.137z M148.957,31.65
		c-0.711,0-1.364,0.172-1.96,0.516c-0.627,0.36-1.108,0.813-1.446,1.354c-0.355,0.591-0.532,1.192-0.532,1.808
		c0,0.765,0.177,1.476,0.532,2.131c0.361,0.657,0.837,1.158,1.428,1.5c0.621,0.355,1.28,0.535,1.979,0.535
		c0.711,0,1.371-0.18,1.979-0.535c0.59-0.336,1.066-0.837,1.428-1.5c0.355-0.638,0.532-1.35,0.532-2.131
		c0-0.633-0.177-1.234-0.532-1.808c-0.344-0.548-0.824-1-1.445-1.354C150.328,31.822,149.674,31.65,148.957,31.65z"/>
	<path fill="#F51484" d="M166.836,28.598h3.623v7.841c0,0.362-0.006,0.681-0.019,0.959c-0.013,0.276-0.035,0.593-0.071,0.948
		c-0.062,0.566-0.196,1.102-0.408,1.608c-0.187,0.486-0.505,0.957-0.958,1.409c-0.384,0.367-0.831,0.668-1.336,0.902
		c-0.506,0.229-1.035,0.392-1.59,0.488c-0.565,0.108-1.133,0.163-1.699,0.163c-0.873,0-1.731-0.123-2.575-0.372
		c-0.414-0.125-0.788-0.286-1.119-0.478c-0.331-0.192-0.642-0.427-0.931-0.704c-0.452-0.452-0.773-0.923-0.966-1.409
		c-0.218-0.513-0.354-1.042-0.407-1.591c-0.061-0.614-0.09-1.256-0.09-1.925v-7.841h3.623v7.345c0,0.746,0.05,1.394,0.152,1.941
		c0.084,0.495,0.312,0.931,0.679,1.311c0.36,0.361,0.906,0.542,1.634,0.542c0.723,0,1.266-0.181,1.627-0.542
		s0.591-0.798,0.686-1.311c0.098-0.565,0.146-1.214,0.146-1.941V28.598z"/>
	<path fill="#F51484" d="M179.972,36.826l4.382,5.719h-4.518l-3.415-5.365h-0.045v5.365h-3.623V28.598h5.421
		c0.965,0,1.805,0.153,2.521,0.461c0.739,0.325,1.307,0.8,1.696,1.427c0.423,0.639,0.633,1.439,0.633,2.402
		c0,0.651-0.117,1.257-0.352,1.817c-0.253,0.565-0.601,1.026-1.04,1.382C181.182,36.454,180.628,36.7,179.972,36.826z
		 M176.376,31.371v3.478h0.353c0.499,0,0.921-0.042,1.266-0.126c0.372-0.108,0.674-0.283,0.901-0.524
		c0.235-0.241,0.354-0.603,0.354-1.084c0-0.487-0.118-0.852-0.354-1.093c-0.228-0.24-0.529-0.416-0.901-0.524
		c-0.332-0.084-0.753-0.126-1.266-0.126H176.376z"/>
	<path fill="#F51484" d="M191.68,42.545V28.598h3.622l6.649,8.528h0.036v-8.528h3.624v13.947h-3.624l-6.64-8.546h-0.046v8.546
		H191.68z"/>
	<path fill="#F51484" d="M215.918,31.67H211.6v2.329h4.094v3.072H211.6v2.403h4.318v3.07h-7.941V28.598h7.941V31.67z"/>
	<path fill="#F51484" d="M220.463,28.598l2.421,9.008h0.036l2.928-9.008h2.892l2.737,9.008h0.035l2.629-9.008h3.768l-4.454,13.947
		h-3.704l-2.439-8.084h-0.035l-2.737,8.084h-3.687l-4.165-13.947H220.463z"/>
	<path fill="#F51484" d="M247.927,29.374l-1.445,2.811c-0.753-0.615-1.554-0.923-2.402-0.923c-0.387,0-0.738,0.106-1.059,0.316
		c-0.33,0.198-0.495,0.482-0.495,0.85c0,0.355,0.146,0.627,0.442,0.813c0.276,0.181,0.664,0.352,1.165,0.514l0.921,0.28
		c1.055,0.308,1.9,0.756,2.539,1.347c0.603,0.597,0.903,1.419,0.903,2.466c0,1.688-0.481,2.939-1.446,3.76
		c-1.036,0.872-2.354,1.31-3.956,1.31c-1.746,0-3.382-0.531-4.906-1.59l1.555-2.928c1.09,0.964,2.165,1.445,3.226,1.445
		c0.457,0,0.863-0.123,1.219-0.37c0.354-0.247,0.533-0.594,0.533-1.039c0-0.451-0.195-0.777-0.587-0.977
		c-0.367-0.186-0.904-0.39-1.607-0.613c-0.832-0.224-1.531-0.476-2.097-0.759c-0.537-0.271-0.95-0.654-1.243-1.148
		c-0.291-0.492-0.438-1.171-0.438-2.032c0-0.928,0.203-1.746,0.605-2.457c0.427-0.723,1.003-1.273,1.726-1.653
		c0.705-0.379,1.53-0.569,2.476-0.569c0.698,0,1.451,0.106,2.258,0.316C246.596,28.741,247.301,29.019,247.927,29.374z"/>
	<path fill="#F51484" d="M253.844,28.598v10.877h4.355v3.07h-7.978V28.598H253.844z"/>
	<path fill="#F51484" d="M267.324,31.67h-4.319v2.329h4.093v3.072h-4.093v2.403h4.319v3.07h-7.941V28.598h7.941V31.67z"/>
	<path fill="#F51484" d="M275.102,31.67v10.875h-3.622V31.67h-2.999v-3.072h9.621v3.072H275.102z"/>
	<path fill="#F51484" d="M284.967,31.67v10.875h-3.623V31.67h-2.998v-3.072h9.62v3.072H284.967z"/>
	<path fill="#F51484" d="M297.227,31.67h-4.319v2.329h4.094v3.072h-4.094v2.403h4.319v3.07h-7.941V28.598h7.941V31.67z"/>
	<path fill="#F51484" d="M306.676,36.826l4.382,5.719h-4.518l-3.414-5.365h-0.046v5.365h-3.622V28.598h5.421
		c0.964,0,1.804,0.153,2.521,0.461c0.741,0.325,1.307,0.8,1.698,1.427c0.421,0.639,0.633,1.439,0.633,2.402
		c0,0.651-0.118,1.257-0.353,1.817c-0.254,0.565-0.6,1.026-1.039,1.382C307.887,36.454,307.332,36.7,306.676,36.826z M303.08,31.371
		v3.478h0.353c0.5,0,0.922-0.042,1.265-0.126c0.373-0.108,0.675-0.283,0.904-0.524c0.235-0.241,0.353-0.603,0.353-1.084
		c0-0.487-0.117-0.852-0.353-1.093c-0.229-0.24-0.531-0.416-0.904-0.524c-0.33-0.084-0.753-0.126-1.265-0.126H303.08z"/>
</g>
<g>
	<g>
		<path fill="#6E1F75" d="M202.567,8.72v10.606h4.246v2.996h-7.779V8.72H202.567z"/>
		<path fill="#6E1F75" d="M216.232,8.72h3.532v7.647c0,0.353-0.006,0.663-0.018,0.934c-0.012,0.27-0.035,0.578-0.07,0.925
			c-0.06,0.553-0.191,1.075-0.396,1.568c-0.182,0.476-0.493,0.934-0.935,1.374c-0.375,0.358-0.81,0.652-1.304,0.881
			c-0.493,0.224-1.01,0.382-1.55,0.476c-0.552,0.106-1.104,0.159-1.657,0.159c-0.851,0-1.688-0.12-2.511-0.361
			c-0.405-0.123-0.769-0.279-1.092-0.467c-0.323-0.188-0.626-0.417-0.908-0.688c-0.439-0.44-0.754-0.898-0.941-1.374
			c-0.212-0.499-0.344-1.016-0.396-1.551c-0.059-0.599-0.089-1.224-0.089-1.876V8.72h3.533v7.163c0,0.728,0.05,1.359,0.149,1.894
			c0.082,0.481,0.303,0.907,0.66,1.277c0.353,0.353,0.885,0.529,1.595,0.529c0.705,0,1.233-0.177,1.587-0.529
			c0.352-0.353,0.574-0.778,0.669-1.277c0.094-0.552,0.142-1.184,0.142-1.894V8.72z"/>
		<path fill="#6E1F75" d="M225.535,8.72v10.606h4.247v2.996h-7.779V8.72H225.535z"/>
		<path fill="#6E1F75" d="M235.931,19.326h5.709v2.996h-11.655l6.439-10.607h-5.347V8.72h11.259L235.931,19.326z"/>
	</g>
	<g>
		<path fill="#F51484" d="M201.442,7.595v10.606h4.246v2.996h-7.779V7.595H201.442z"/>
		<path fill="#F51484" d="M215.107,7.595h3.532v7.647c0,0.353-0.006,0.663-0.018,0.934c-0.012,0.27-0.035,0.578-0.07,0.925
			c-0.06,0.553-0.191,1.075-0.396,1.568c-0.182,0.476-0.493,0.934-0.935,1.374c-0.375,0.358-0.81,0.652-1.304,0.881
			c-0.493,0.224-1.01,0.382-1.55,0.476c-0.552,0.106-1.104,0.159-1.657,0.159c-0.851,0-1.688-0.12-2.511-0.361
			c-0.405-0.123-0.769-0.279-1.092-0.467c-0.323-0.188-0.626-0.417-0.908-0.688c-0.439-0.44-0.754-0.898-0.941-1.374
			c-0.212-0.499-0.344-1.016-0.396-1.551c-0.059-0.599-0.089-1.224-0.089-1.876V7.595h3.533v7.163c0,0.728,0.05,1.359,0.149,1.894
			c0.082,0.481,0.303,0.907,0.66,1.277c0.353,0.353,0.885,0.529,1.595,0.529c0.705,0,1.233-0.177,1.587-0.529
			c0.352-0.353,0.574-0.778,0.669-1.277c0.094-0.552,0.142-1.184,0.142-1.894V7.595z"/>
		<path fill="#F51484" d="M224.41,7.595v10.606h4.247v2.996h-7.779V7.595H224.41z"/>
		<path fill="#F51484" d="M234.806,18.201h5.709v2.996h-11.655l6.439-10.607h-5.347V7.595h11.259L234.806,18.201z"/>
	</g>
</g>
<g>
	<g>
		<g>
			<g>
				<g>
					<path fill="#803B86" d="M250.037,31.231c0.005-0.175-0.074-0.558-0.149-0.468l0.04,0.664L250.037,31.231z"/>
					<path fill="#803B86" d="M249.257,30.113c-0.054,0.333-0.085,0.909,0.077,1.499c0.003-0.645,0.068-0.386,0.061-1.151
						c0.076-0.09,0.187,0.186,0.209,0.429c0.005-0.173,0.159,0.122,0.142-0.296c-0.193-0.488-0.341-0.486-0.427-0.044
						C249.264,30.41,249.269,30.234,249.257,30.113z"/>
					<path fill="#803B86" d="M240.528,30.44l0.067,0.069C240.574,30.469,240.552,30.448,240.528,30.44z"/>
					<path fill="#803B86" d="M235.163,30.916c0.038-0.021,0.045-0.089,0.038-0.148C235.17,30.816,235.146,30.861,235.163,30.916z"/>
					<path fill="#803B86" d="M234.144,30.338c0.022,0.019,0.041,0.024,0.061,0.036C234.175,30.317,234.148,30.287,234.144,30.338z"
						/>
					<path fill="#803B86" d="M240.528,30.44l-0.174-0.183C240.378,30.473,240.452,30.404,240.528,30.44z"/>
					<path fill="#803B86" d="M248.323,31.876c0.024-0.036,0.04-0.101,0.05-0.185c-0.02,0.033-0.04,0.061-0.062,0.081
						C248.315,31.809,248.319,31.839,248.323,31.876z"/>
					<path fill="#803B86" d="M242.785,29.543l0.043-0.008c-0.002-0.078-0.004-0.17-0.006-0.271L242.785,29.543z"/>
					<path fill="#803B86" d="M244.565,29.16c-0.044-0.018,0.028,0.539,0.052,0.784c-0.014-0.231,0-0.346,0.028-0.395
						C244.63,29.444,244.604,29.318,244.565,29.16z"/>
					<path fill="#803B86" d="M247.566,29.688l0.039-0.084C247.596,29.631,247.577,29.656,247.566,29.688z"/>
					<path fill="#803B86" d="M241.48,29.625c-0.016-0.082-0.033-0.154-0.047-0.196C241.444,29.498,241.461,29.563,241.48,29.625z"/>
					<path fill="#803B86" d="M191.904,41.696c-0.006-0.039-0.01-0.064-0.016-0.099C191.888,41.655,191.891,41.695,191.904,41.696z"
						/>
					<polygon fill="#803B86" points="189.391,39.273 189.415,39.239 189.372,38.927 					"/>
					<path fill="#803B86" d="M232.373,29.888l0.009,0.01C232.416,29.827,232.393,29.842,232.373,29.888z"/>
					<path fill="#803B86" d="M217.21,32.691c0.251,0.47-0.181,0.682,0.166,1.192C217.317,33.67,217.476,32.98,217.21,32.691z"/>
					<path fill="#803B86" d="M248.266,31.811c-0.023,0.01-0.048,0.019-0.073,0.018C248.229,31.841,248.251,31.836,248.266,31.811z"
						/>
					<path fill="#803B86" d="M217.376,33.884l0.001,0.005l0.035,0.048C217.397,33.915,217.389,33.902,217.376,33.884z"/>
					<path fill="#803B86" d="M228.604,30.822c0.023,0.097,0.051,0.169,0.077,0.237C228.671,31.003,228.651,30.935,228.604,30.822z"
						/>
					<path fill="#803B86" d="M231.575,31.165l-0.082-0.063C231.529,31.148,231.555,31.162,231.575,31.165z"/>
					<path fill="#803B86" d="M227.249,31.839c-0.046-0.036-0.07-0.111-0.111-0.028c0.011,0.026,0.019,0.045,0.026,0.065
						C227.172,31.797,227.191,31.758,227.249,31.839z"/>
					<path fill="#803B86" d="M225.711,32.084c0.017,0.039,0.03,0.071,0.046,0.107l0.044-0.037L225.711,32.084z"/>
					<path fill="#803B86" d="M196.539,40.694c-0.059-0.151-0.106-0.32-0.149-0.488C196.476,40.598,196.271,40.773,196.539,40.694z"
						/>
					<path fill="#803B86" d="M248.273,31.564c0.013,0.141,0.011,0.213-0.008,0.246c0.017-0.009,0.031-0.022,0.046-0.038
						C248.304,31.689,248.292,31.611,248.273,31.564z"/>
					<path fill="#803B86" d="M227.875,36.229l-0.258-0.043C227.694,36.229,227.788,36.243,227.875,36.229z"/>
					<path fill="#803B86" d="M207.565,38.879l-0.046,0.075C207.544,38.964,207.561,38.944,207.565,38.879z"/>
					<path fill="#803B86" d="M226.905,36.383c-0.075-0.189-0.139-0.296-0.198-0.362c-0.003,0.045-0.01,0.082-0.006,0.147
						L226.905,36.383z"/>
					<path fill="#803B86" d="M196.389,40.201c0,0.002,0.001,0.005,0.001,0.005S196.389,40.203,196.389,40.201z"/>
					<path fill="#803B86" d="M194.985,41.772c0.235-0.021-0.003-0.731-0.02-1.158c0.245-0.251,0.213,0.517,0.366,0.876
						c0.144-0.221,0.172-0.912,0.306-0.903c0.028,0.118,0.061,0.158,0.055,0.313c0.092-0.609,0.54-0.114,0.64-0.877
						c0.025,0.062,0.043,0.122,0.057,0.178c-0.093-0.36-0.156-0.731-0.19-0.997c0.103-0.029,0.121-0.491,0.235-0.021
						c-0.066-0.004-0.041,0.189-0.048,0.343l0.077-0.224c0.206,0.67-0.112,0.26-0.033,0.768c0.179-0.257,0.338-0.863,0.532-0.695
						c0.14,0.666-0.347,0.286-0.035,0.849l-0.293-0.217c0.359,1.028-0.165-0.05,0.19,1.055c0.363,0.142,0.318-0.4,0.682-0.257
						c0.016-0.385-0.111-0.548-0.096-0.933c0.367-0.744,0.637,1.629,0.844,0.681c0.02-0.462-0.079-1.316,0.238-0.906l0.035,0.772
						c0.334,0.024,0.013-1.119,0.431-0.662c-0.014,0.308-0.214,0.291-0.151,0.374c0.312,0.564,0.087-0.455,0.255-0.481l0.141,0.666
						c0.327-0.159,0.629-0.704,0.989-0.886c0.011,0.202-0.021,0.423,0.1,0.614c0.427-0.411,1.036-0.079,1.562,0.247l0.085-0.607
						c0.042,0,0.117,0.25,0.091,0.369c0.215,0.191-0.049-0.369,0.002-0.61c0.097-0.057,0.188,0.312,0.15,0.496
						c0.241-0.542,0.739-1.202,1.172-0.633l-0.038,0.183c0.298,0.193,0.107-1.235,0.435-0.732l-0.03,0.109
						c0.605,0.163,1.148-0.467,1.718,0.341c-0.05-0.849,0.619,0.284,0.472-0.887c0.414,0.526,0.354,0.75,0.871,1.066
						c0.13,0.034,0.066-0.756,0.198-0.901l0.1,0.608l0.104-0.671l0.223,0.711l0.116-0.179c-0.062-0.027-0.162-0.254-0.181-0.431
						c0.177-0.311,0.604,0.34,0.658,0.65l0.439-0.597c0.027,0.247-0.047,0.345-0.091,0.512c0.18-0.665,0.151,0.634,0.316,0.023
						c-0.056-0.133-0.039-0.365-0.052-0.489c0.185,0.348,0.475,0.306,0.664,0.117l0.024,0.426c0.403,0.047,0.783-0.329,1.219-0.39
						c-0.187-0.171-0.266-0.904-0.148-0.994l0.151,0.636c0.02-0.411-0.171-0.223-0.079-0.736c0.174,0.049,0.225,0.715,0.164,0.939
						l0.162-0.254c0.042,0.189,0.012,0.298,0.038,0.545c0.018-0.412,0.441,0.593,0.449-0.12l0.041,0.19
						c0.435-0.063,0.597-0.315,0.944-0.403c-0.08-0.557,0.077-0.455,0.112-0.921c0.287,0.137,0.644,0.528,0.949,0.432
						c0.177-0.311-0.01-0.48,0.037-0.826c0.096,0.503,0.401,0.407,0.296,0.796c0.362-0.142,0.464-0.177,0.874-0.662
						c-0.084-0.199-0.156-0.28-0.153-0.457c0.073-0.097,0.229,0.181,0.255,0.426l-0.015,0.057c0.414-0.843,1.463,1.281,1.721,0.16
						l-0.016,0.056l0.354-0.619c0.217,0.056-0.062,0.399,0.138,0.689c0.342-0.919,0.77,0.004,1.072-0.62
						c0.537,1.445,1.057-0.273,1.615,0.615l-0.079-0.348c0.052-0.361,0.16,0.181,0.25,0.249c-0.054-0.271-0.164-0.298-0.129-0.499
						c0.828-0.564,1.927,0.224,2.894,0.396c0.351,0.042-0.096-1.849,0.459-1.076l-0.017,0.672c0.554-0.889,1.388-0.19,1.945-0.959
						c-0.016,0.156,0.014,0.353-0.051,0.36c0.215,0.452,0.521-0.059,0.463-0.445c0.109,0.027,0.078,0.346,0.173,0.532
						c0.185,0.258,0.257-0.66,0.406-0.2c0.024,0.074-0.016,0.16-0.035,0.201c0.056-0.244,0.436-0.009,0.262-0.542
						c0.29,0.222,0.438-0.318,0.687-0.025c0.033-0.632,0.472,0.227,0.377-0.645c0.123,0.896,0.549,0.652,0.641,0.207
						c-0.011,0.278,0.181,0.259,0.178,0.643c0.178-0.041,0.315-0.232,0.212-0.687c0.499,1.018,0.529-0.965,0.931,0.376
						c0.458-0.564,0.899-0.967,1.347-1.251c0.122,0.894-0.517,0.172-0.349,1.104c0.397-0.438,0.539-1.244,1.023-1.101
						c0.137,0.104-0.005,0.397-0.021,0.556c0.396-0.438,0.892-0.057,1.22-0.605c0.012,0.083-0.018,0.18-0.049,0.255
						c0.075-0.042,0.206,0.102,0.134-0.303l-0.061,0.122c-0.22-0.567,0.123-1.277,0.089-1.59c0.047,1.182,0.445,0.229,0.461,1.729
						c0.04-0.085,0.076-0.287,0.021-0.556c0.09,0.066,0.14,0.221,0.109,0.541c0.251-0.265,0.081-0.68,0.342-0.711
						c0.029,0.196-0.011,0.28-0.001,0.515c0.07-0.402,0.142-0.806,0.387-0.675c0.005,0.12,0.055,0.271-0.011,0.277
						c0.366-0.118,0.479-1.118,0.949-0.814c0.013,0.872,0.185,0.259,0.322,0.993l0.187-0.255L235,33.803
						c0.196-0.018,0.283-0.582,0.488-0.367l-0.097,0.327l0.342-0.197l-0.25-0.247c0.137-0.411-0.168-0.931,0.123-0.766
						c-0.041,0.084,0.195-0.021,0.364,0.397v0.002c0.059-0.25,0.119-0.513,0.291-0.353c0.074,0.23,0.098,0.82,0.146,0.974
						c-0.002-0.632,0.428-0.242,0.444-0.918c-0.016,0.161,0.043,0.548,0.068,0.625l0.001-0.514c0.115,0.146,0.141,0.222,0.174,0.533
						c0.285,0.049-0.232-0.923,0.151-0.569c-0.019,0.044,0.005,0.117-0.035,0.201c0.355,0.16,0.572-0.415,0.907-0.216
						c0.204,0.729-0.23,0.223-0.031,0.833c0.405-0.201,0.743-1.028,1.184-0.919l-0.09-0.069c-0.107-1.057,0.389,0.47,0.521-0.058
						c-0.039,0.086,0.024,0.592,0.02,0.474c0.31,0.123,0.538-0.349,0.915-0.746l-0.012,0.277c0.205,0.215,0.461,0.07,0.66,0.164
						c0.012-0.277,0.121-0.249-0.003-0.631c0.796,1.445,0.93-0.988,1.623,0.211c-0.059,0.013-0.104,0.258-0.056,0.252l0.38-0.314
						c-0.104-0.451-0.099-0.268-0.242-0.609c0.011-0.279,0.096-0.508,0.2-0.523c-0.142,0.332,0.116,0.732,0.238,0.975
						c-0.036-0.138-0.032-0.297-0.062-0.438c0.347,0.777-0.107-0.925,0.277-0.425l0.022,0.242c0.092-0.14,0.146-0.474,0.277-0.424
						c0.133,0.521-0.081,0.266-0.02,0.701c0.164-0.057,0.177-1.053,0.413-0.551c-0.049,0.158-0.152,0.177-0.201,0.335
						c0.265,0.594,0.26,0.433,0.399,0.512l-0.015-0.012l0.331,0.235l-0.1-0.157c-0.004-1.41,0.393-0.319,0.537-1.266
						c-0.144,0.897,0.031,0.501,0.104,1.103c0.099,0.154,0.239,0.323,0.234,0.497c0.059-0.504,0.285,0.345,0.365-0.392
						c0.038,0.191,0.147-0.004,0.192,0.485c0.152-0.18-0.094-0.329-0.117-0.573c0.168-0.7,0.762,0.698,1.01-0.266
						c0.277-0.425,0.237-1.085,0.498-1.457c0.154,0.292,0.024,0.715,0.024,0.715c0.214,0.257,0.334,0.186,0.459-0.061
						c-0.006,0.173,0.05,0.31,0.133,0.519c0.12-0.07-0.024-0.715,0.189-0.457c0.005,0.22,0.021,0.568-0.007,0.793
						c0.124-0.2,0.217-0.584,0.346-0.782c0.095,0.329-0.015,0.524-0.035,0.753c0.152-0.18,0.408-0.377,0.379-0.916l-0.143-0.172
						c0.061-0.036,0.104,0.451,0.072,0.555c-0.085,0.441-0.246-0.149-0.285-0.342l0.092-0.141c-0.292-1.112-0.419,0.252-0.654,0.222
						l-0.035-0.837l-0.123,0.718c-0.083-0.206-0.188-0.659-0.097-0.8c-0.225-0.381-0.097,0.314-0.306-0.117
						c-0.026-0.067-0.026-0.108-0.018-0.144l-0.118,0.271c0.004-0.178-0.117-0.576-0.002-0.473c-0.357-0.43-0.358,0.688-0.562,0.082
						l0.016-0.055c-0.349,0.34,0.057,0.609-0.126,1.363l-0.432-1.457l0.057,0.609c-0.044-0.016-0.131-0.048-0.154-0.292
						c-0.085,0.437,0.067,0.259,0.041,0.662c-0.28-0.519-0.495,0.342-0.69-0.612c0.002,0.469,0.241,0.324,0.084,0.676
						c-0.222-1.024-0.212,0.215-0.464-0.231c-0.029-0.542,0.184-0.286-0.069-0.734c0.034,0.919-0.377-0.144-0.5,0.053
						c0.105,0.72-0.278,0.351-0.492,0.63c-0.022-0.244-0.535-0.32-0.811-0.543l-0.012-0.121c0.069,0.732-0.194,0.633-0.346,0.811
						c-0.062-0.436-0.057-0.611,0.008-0.82l-0.165,0.029c-0.002,0.238-0.034,0.369-0.129,0.469l-0.043-0.549
						c-0.216,0.064-0.343,0.708-0.683,0.391c0.063,0.509,0.446,1.373,0.2,1.758c-0.054-0.271-0.139-0.737-0.077-0.861
						c-0.021,0.04-0.056,0.241-0.126,0.133l0.047-0.479c-0.16-0.182-0.007,0.396-0.116,0.368c-0.06-0.391-0.12-0.266-0.154-0.578
						c0.021-0.041,0.115,0.147,0.131-0.012c-0.127-0.052-0.304-0.261-0.397-0.549c0.046,0.22,0.083,0.525,0.006,0.589
						c-0.215,0.063-0.148-0.457-0.309-0.638c-0.011,0.279-0.195,0.021-0.107,0.604c-0.064,0.007-0.119-0.263-0.169-0.417
						c-0.073,0.275-0.52,0.157-0.294,0.757l0.036,0.036c-0.004,0.014-0.011,0.015-0.015,0.029h0.001h-0.001
						c-0.282,0.638-0.827-0.209-1.157,0.1l-0.03-0.196c-0.186,0.258-0.471,0.209-0.562,0.653c-0.065,0.01-0.211-0.331-0.219-0.568
						c-0.146,0.174-0.131,0.396-0.425,0.112c0.116-0.368-0.106-0.293,0.135-0.277c-0.246-0.134-0.345-0.438-0.497,0.132
						c0.002-0.512-0.264-0.604-0.345-0.438l0.21,0.334c-0.105,0.091-0.215,0.062-0.326,0.036l-0.047-0.666
						c-0.574-0.729-0.596,1.488-1.147,0.203c-0.047,0.479,0.295,0.285,0.272,0.84c-0.22-0.056-0.584-0.966-0.648-0.958
						c-0.34-0.319-0.113,1.002-0.448,0.8c0.075,0.229,0.209,0.849,0.022,1.104c-0.221-0.055-0.408-0.943-0.308-1.152
						c0.046-0.027,0.082,0.043,0.093,0.123c0.053-0.096,0.125-0.21,0.003-0.451l0.01,0.238c-0.14-0.223-0.42-0.153-0.414-0.549
						c-0.121,0.248-0.006,0.396,0.129,0.499c-0.318-0.298-0.416,0.055-0.725-0.131c0.063,0.123,0.147,0.392,0.104,0.396
						c-0.446-0.228-0.106,0.473-0.361,0.618c-0.21-0.334-0.079-0.862-0.305-0.52c-0.205-0.217-0.133-0.617-0.097-0.818
						c-0.178,0.491-0.512-0.225-0.667-0.285l0.102-0.209c-0.061,0.124-0.125,0.131-0.19,0.141l0.148,0.457
						c-0.09-0.07-0.155-0.062-0.185-0.257c-0.031,0.319,0.184,0.771,0.092,1.215c-0.14-0.222-0.271,0.305-0.405-0.312
						c0.355,0.16-0.134-0.619,0.123-0.763c-0.041,0.082-0.105,0.09-0.195,0.02c-0.022-0.068-0.01-0.131,0.006-0.17
						c-0.396-0.508-0.031,0.726-0.354,0.762c-0.014-0.356-0.178-0.653-0.219-0.57c0.13-0.013,0.153,0.575,0.078,0.862
						c-0.248-0.24-0.191,0.238-0.304,0.224l0.143,0.108c0.014,0.357-0.096,0.328-0.222,0.461c-0.055-0.271,0.101-0.209,0.03-0.32
						c-0.062,0.641-0.459-0.582-0.614-0.132c-0.141-0.222-0.114-0.657-0.229-0.805c-0.177,0.494-0.344-0.438-0.546-0.021
						c0.149,0.46,0.145,0.343,0.033,0.831l0.377-0.399l-0.168,0.729c0.131-0.014,0.227-0.339,0.316-0.271
						c-0.07,0.404-0.075,0.285,0.048,0.667c-0.288-0.68-0.286,0.467-0.565,0.021L230,30.866c-0.389-0.472-0.452,0.685-0.897,0.454
						l0.16,0.183c0.02,0.472-0.236,0.104-0.336,0.312c-0.05-0.392-0.152-0.521-0.246-0.755c0.053,0.288-0.296,0.02-0.21,0.804
						l-0.259-0.485c-0.355-0.159-0.193,1.169-0.524,1.085c0.026-0.438-0.157-0.692,0.002-1.028
						c-0.104,0.013-0.208-0.045-0.167,0.226c-0.099-0.234-0.204,0.571-0.358,0.216c-0.017,0.178,0.033,0.589-0.088,0.574
						c-0.024-0.077-0.029-0.192-0.029-0.192c0.029,0.192-0.141,0.291,0.028,0.707c-0.51-1.167-0.877,0.229-1.318-0.773
						c-0.206,0.166-0.458,0.335-0.659,0.396c-0.005-0.119-0.029-0.194,0.016-0.16c-0.34-0.318,0.002,1.147-0.383,0.793
						c-0.264-0.604,0.117-0.368-0.023-0.591c-0.246-1.276-0.36,0.236-0.695-0.479l0.041-0.084c-0.234-0.41-0.328,0.55-0.612,0.5
						c0,0-0.005-0.115-0.029-0.193c-0.082,0.684-0.398,0.955-0.63,1.178c0.002-0.516,0.076-0.284-0.053-0.787
						c-0.105,0.091,0.162,0.814-0.048,0.993c-0.119-0.263-0.324-0.477-0.433-1.018l0.215-0.063c-0.223-0.688-0.28,0.068-0.415-0.036
						l-0.034-0.31c-0.32,0.152-0.203,0.93-0.573,0.931l0.073,0.228c-0.076,0.8-0.233-0.406-0.341,0.196l-0.183-0.771
						c-0.101,0.208-0.338,0.825-0.549,1.009c0.042-0.599,0.269-0.938,0.385-1.308c-0.131,0.015-0.431,0.126-0.438,0.521
						c0.04-0.083,0.076-0.284,0.146-0.173c-0.062,0.639-0.224,0.973-0.483,1c-0.192-1.52-0.731-0.275-1.104-1.421
						c-0.368,0.631-0.941-0.096-1.459,0.077c0.374,1.146-0.149,0.058,0.073,1.261c-0.111,0.097-0.162,0.084-0.186,0.008
						l-0.488-0.663c-0.144-0.338,0.076-0.285,0.021-0.554c-0.285-0.051-0.193-0.495-0.424-0.787
						c0.105,0.426,0.004,0.634-0.177,0.493l0.305,0.522c-0.277,0.702-0.486-0.963-0.768-0.266l0.061-0.399
						c-0.16,0.255-0.723,0.106-0.763,1.106c-0.057-0.134-0.154-0.457-0.081-0.558c-0.491-0.072-0.88,1.196-1.337,0.656l-0.011-0.301
						c-0.074,0.099-0.064,0.579-0.221,0.298c-0.014-0.122-0.012-0.3-0.055-0.311c-0.03,0.108-0.15,0.554-0.293,0.399l0.047-0.348
						c-0.518-0.315-0.573,0.92-0.924,1.183c-0.136-0.87-0.54-1.097-0.741-1.209l-0.013-0.124c-0.549-0.024-0.79,0.862-1.228,1.281
						c-0.454-0.896-1.098-0.232-1.672-0.685c0.101,0.146,0.095,0.68,0.021,0.781c-0.143-0.158-0.224,0.653-0.331-0.147l0.044,0.009
						c-0.21-0.769-0.414-0.523-0.603-0.516l0.134,1.048c-0.723-1.441-1.18,0.757-1.657-0.561c-0.075,0.279-0.221,0.298-0.295,0.577
						l-0.082-0.561c-0.346-0.092-0.519-0.136-0.896,0.06l0.019-0.412c-0.231-0.001-0.031,1.657-0.234,1.723l-0.193-0.825
						c-0.392,0.075-0.904-0.596-1.174,0.223c-0.013-0.123-0.039-0.366,0.019-0.41c-0.188,0.008-0.805-0.452-0.558,0.683
						c-0.121-0.745-0.417-0.009-0.577,0.354l-0.054-0.556c-0.068,0.731-0.044,0.925-0.264,1.159
						c-0.071-0.062-0.121-0.433-0.021-0.304c-0.243-0.258-0.072,0.545-0.358,0.29l0.034-0.366c-0.21-0.01-0.164,0.176-0.212,0.604
						c-0.093,0.241-0.407-0.078-0.516-0.571c0.021,0.308-0.027,0.731-0.17,0.606c-0.045-0.186-0.02-0.31-0.007-0.37
						c-0.399-0.321-0.405,0.72-0.725,0.216c-0.033-0.182-0.062-0.271-0.091-0.322c0.272-0.028,0.494-0.033,0.48,0.01
						c-0.08-0.507-0.312-0.562-0.248-1.29c-0.115,0.41-0.284,1.289-0.534,1.083c-0.019-0.047-0.036-0.094-0.056-0.171l0.013-0.061
						c-0.058-0.043-0.094,0.012-0.122,0.104c-0.08-0.073-0.134-0.128-0.2-0.125c-0.091-0.416-0.285-0.188-0.397-0.19
						c0.097,0.554-0.061,0.487,0.146,0.925c-0.023-0.037,0.01-0.069,0.079-0.104c0.014-0.019,0.031-0.03,0.037-0.064v0.05
						c0.069-0.027,0.16-0.055,0.265-0.08c-0.042,0.296-0.094,0.548-0.263,0.258c-0.004,0.364-0.009,0.74-0.011,0.921
						c-0.271-0.752-0.624-1.125-0.739-1.597c-0.283,0.364-0.75,0.329-0.795,1.405c-0.073,0.148-0.156-0.282-0.217-0.44
						c0.038-0.113,0.105-0.107,0.111-0.263c-0.146,0.298-0.543,0.192-0.474,0.929c-0.29-0.292,0.028-0.692-0.28-0.521l0.009-0.23
						c-0.826-1.063-0.753,2.025-1.702,0.643c0.064,0.083,0.096,0.122,0.125,0.242c-0.917-0.531-1.579,0.883-2.546-0.037
						c-0.262-0.175-0.213,0.295-0.297,0.671l-0.144-0.589l-0.129,0.726c-0.259,0.557-0.815-1.372-1.093-0.352l0.118,0.393
						c-0.165-0.051-0.449,0.313-0.496-0.152c-0.004,0.076,0.016,0.426-0.077,0.226l-0.054-0.312l-0.293,0.595
						c-0.328-0.18-0.149-1.247-0.586-1.24c-0.14,0.145-0.309,0.979-0.216,1.179c0.066,0.006,0.194,0.17,0.248,0.481l-0.119,0.186
						c0.118,0.924,0.154,1.884,0.611,2.47l0.16-0.602l0.149,0.434l-0.204,0.061c0.185,0.401,0.201,0.019,0.245-0.25
						c0.058,0.234,0.118,0.396,0.182,0.476l0.105-0.917c0.086,0.355,0.003,0.731,0.197,0.904c0.05-0.426-0.236-0.79-0.09-1.087
						c0.185,0.399,0.204,0.745,0.287,0.366c0.057,0.233,0.051,0.39,0.012,0.502c0.08-0.304,0.31-0.172,0.297-0.671
						c0.205,0.497,0.397-0.2,0.521,0.673c0.007-0.215,0.111-0.718,0.22-0.771c-0.044,1.074,0.436-0.006,0.557,1.12
						c0.007-0.962,0.49-0.504,0.682-1.066c-0.004,0.076-0.01,0.232-0.042,0.188c0.166,0.053,0.256,0.329,0.382,0.49
						c-0.102-0.777,0.109-0.992,0.163-1.489c0.306,0.717,0.028,0.927,0.2,1.635c-0.108-0.626,0.229-0.678,0.083-1.19
						c0.216,0.439,0.159,0.205,0.334,0.835c-0.127-0.972,0.108-0.186,0.134-0.798c0.283,0.444,0.196,0.898,0.379,0.568
						C195.135,41.397,194.985,41.772,194.985,41.772z M200.163,39.243c0.001,0.006,0.001,0.01,0.002,0.012
						c-0.045,0.021-0.083,0.037-0.107,0.049C200.079,39.291,200.109,39.273,200.163,39.243z M200.619,39.163
						c-0.06-0.013-0.129-0.006-0.202,0.009c-0.046-0.188-0.06-0.389-0.013-0.386C200.4,38.918,200.525,39.012,200.619,39.163z
						 M199.047,35.466c0.06-0.09,0.101,0.016,0.129,0.128c-0.033,0.015-0.069,0.04-0.116,0.086c0.001,0.021,0.001,0.046,0.002,0.07
						C199.052,35.643,199.044,35.542,199.047,35.466z"/>
					<path fill="#803B86" d="M199.031,36.215c-0.009,0.015-0.011,0.038-0.023,0.045c0.023,0.045,0.044,0.084,0.062,0.118
						l-0.002-0.178L199.031,36.215z"/>
					<path fill="#803B86" d="M240.607,30.521l-0.012-0.011c0.012,0.021,0.022,0.041,0.033,0.076
						C240.619,30.558,240.614,30.543,240.607,30.521z"/>
					<polygon fill="#803B86" points="207.1,39.233 207.077,39.093 207.057,39.222 					"/>
					<path fill="#803B86" d="M243.426,32.031c0.012,0.048,0.029,0.097,0.055,0.137C243.474,32.132,243.451,32.084,243.426,32.031z"
						/>
					<path fill="#803B86" d="M244.533,31.984l0.185,0.174C244.634,32.056,244.576,32.01,244.533,31.984z"/>
					<path fill="#803B86" d="M245.412,32.128c-0.008-0.1-0.015-0.173-0.021-0.24l-0.002-0.003L245.412,32.128z"/>
					<path fill="#803B86" d="M232.217,34.872c-0.011,0.005-0.021,0.014-0.028,0.03C232.13,35.021,232.175,34.971,232.217,34.872z"/>
					<path fill="#803B86" d="M235.971,32.952c-0.026,0.107-0.053,0.213-0.086,0.282C235.962,33.266,236.018,33.269,235.971,32.952z"
						/>
					<path fill="#803B86" d="M227.903,36.235c0-0.004-0.001-0.005-0.001-0.01c-0.009,0.003-0.018,0.003-0.027,0.004L227.903,36.235z
						"/>
					<path fill="#803B86" d="M235.699,33.254c0.088,0.1,0.143,0.066,0.186-0.02C235.821,33.206,235.744,33.16,235.699,33.254z"/>
					<path fill="#803B86" d="M249.077,31.811l0.044,0.017c-0.007-0.037-0.009-0.067-0.01-0.09L249.077,31.811z"/>
					<path fill="#803B86" d="M249.111,31.737l0.035-0.073C249.126,31.668,249.108,31.675,249.111,31.737z"/>
					<path fill="#803B86" d="M249.219,31.51l-0.072,0.154C249.179,31.66,249.222,31.672,249.219,31.51z"/>
					<path fill="#803B86" d="M247.93,31.728l0.019,0.204C247.949,31.889,247.943,31.822,247.93,31.728z"/>
					<path fill="#803B86" d="M247.603,31.839c0.087,0.033,0.269,0.398,0.36,0.254l-0.015-0.161
						C247.943,32.239,247.625,31.487,247.603,31.839z"/>
					<path fill="#803B86" d="M245.807,29.57l0.307,0.117c-0.083-0.207-0.192-0.485-0.072-0.558
						C245.585,28.546,246.189,29.599,245.807,29.57z"/>
					<path fill="#803B86" d="M244.883,29.396c0.137-0.123-0.051-0.312-0.062-0.434C244.756,29.174,244.74,29.227,244.883,29.396z"/>
					<path fill="#803B86" d="M238.565,30.388l-0.064-0.508C238.396,29.972,238.531,30.076,238.565,30.388z"/>
					<polygon fill="#803B86" points="237.769,33.189 237.932,33.486 237.913,33.015 					"/>
					<polygon fill="#803B86" points="236.489,29.702 236.528,29.622 236.362,29.836 					"/>
					<path fill="#803B86" d="M225.907,31.55l0.133,0.617C226.102,32.043,226.008,31.341,225.907,31.55z"/>
					<path fill="#803B86" d="M221.426,32.904c-0.099-0.304-0.259-0.483-0.29-0.165C221.245,32.766,221.387,32.992,221.426,32.904z"
						/>
					<polygon fill="#803B86" points="207.529,34.051 207.589,33.827 207.442,34.028 					"/>
				</g>
			</g>
		</g>
	</g>
</g>
</svg>
