<?xml version="1.0" encoding="utf-8"?>
<!-- Generator: Adobe Illustrator 16.0.0, SVG Export Plug-In . SVG Version: 6.00 Build 0)  -->
<!DOCTYPE svg PUBLIC "-//W3C//DTD SVG 1.1//EN" "http://www.w3.org/Graphics/SVG/1.1/DTD/svg11.dtd">
<svg version="1.1" id="Layer_1" xmlns="http://www.w3.org/2000/svg" xmlns:xlink="http://www.w3.org/1999/xlink" x="0px" y="0px"
	 width="1600px" height="150px" viewBox="0 0 1600 150" enable-background="new 0 0 1600 150" xml:space="preserve">
<g>
	<rect x="33" y="19" fill="#F9F9F9" width="748" height="120"/>
	<rect x="25" y="15" fill="#F51484" width="750" height="120"/>
	<rect x="19" y="11" fill="#6E1F75" width="750" height="120"/>
	<g>
		<g>
			<path fill="#F51484" d="M109.415,61.606l-3.858,7.5c-2.01-1.64-4.148-2.46-6.415-2.46c-1.028,0-1.969,0.281-2.821,0.844
				c-0.884,0.531-1.326,1.287-1.326,2.268c0,0.948,0.395,1.672,1.182,2.17c0.739,0.482,1.776,0.94,3.111,1.375l2.459,0.747
				c2.813,0.82,5.073,2.018,6.776,3.593c1.607,1.592,2.412,3.786,2.412,6.584c0,4.501-1.287,7.846-3.858,10.031
				c-2.765,2.331-6.286,3.497-10.562,3.497c-4.663,0-9.027-1.414-13.094-4.244l4.147-7.813c2.91,2.572,5.779,3.858,8.609,3.858
				c1.222,0,2.307-0.329,3.255-0.988c0.949-0.66,1.422-1.583,1.422-2.773c0-1.206-0.521-2.074-1.567-2.604
				c-0.98-0.498-2.412-1.045-4.292-1.64c-2.219-0.595-4.084-1.27-5.595-2.025c-1.432-0.724-2.536-1.745-3.316-3.063
				c-0.78-1.317-1.169-3.126-1.169-5.426c0-2.475,0.539-4.662,1.616-6.559c1.142-1.93,2.677-3.4,4.606-4.413
				c1.881-1.013,4.084-1.52,6.607-1.52c1.865,0,3.874,0.281,6.029,0.844C105.861,59.918,107.742,60.657,109.415,61.606z"/>
			<path fill="#F51484" d="M125.21,73.905h13.987V59.532h9.67v37.234h-9.67V81.502H125.21v15.265h-9.67V59.532h9.67V73.905z"/>
			<path fill="#F51484" d="M178.022,90.304h-13.335l-2.556,6.463h-10.273l14.324-37.234h10.562l14.035,37.234h-10.321
				L178.022,90.304z M175.418,82.9l-3.955-11.865h-0.097L167.363,82.9H175.418z"/>
			<path fill="#F51484" d="M213.037,81.502l11.696,15.265h-12.058l-9.116-14.325h-0.12v14.325h-9.67V59.532h14.469
				c2.572,0,4.814,0.41,6.728,1.23c1.978,0.868,3.488,2.138,4.534,3.81c1.125,1.704,1.688,3.843,1.688,6.415
				c0,1.736-0.313,3.352-0.94,4.847c-0.675,1.512-1.6,2.741-2.773,3.69C216.269,80.504,214.789,81.164,213.037,81.502z
				 M203.439,66.936v9.285h0.94c1.335,0,2.46-0.112,3.376-0.338c0.997-0.289,1.8-0.756,2.412-1.398
				c0.627-0.643,0.94-1.607,0.94-2.895c0-1.302-0.313-2.275-0.94-2.918c-0.611-0.643-1.415-1.109-2.412-1.398
				c-0.884-0.226-2.01-0.338-3.376-0.338H203.439z"/>
			<path fill="#F51484" d="M248.559,67.731h-11.527v6.222h10.924v8.199h-10.924v6.415h11.527v8.199h-21.197V59.532h21.197V67.731z"
				/>
			<path fill="#F51484" d="M281.065,78.896l-13.721-19.364h11.599l6.969,10.129l6.969-10.129h11.6L290.76,78.896v17.87h-9.694
				V78.896z"/>
			<path fill="#F51484" d="M325.413,58.303c2.717,0,5.305,0.458,7.765,1.375c2.507,0.964,4.711,2.299,6.607,4.003
				c1.865,1.672,3.384,3.714,4.558,6.125c1.109,2.267,1.664,4.814,1.664,7.645c0,2.975-0.491,5.707-1.471,8.199
				c-1.028,2.54-2.476,4.734-4.341,6.583c-0.997,0.997-2.025,1.842-3.086,2.532s-2.21,1.278-3.449,1.761
				c-2.492,0.98-5.241,1.471-8.247,1.471c-2.958,0-5.691-0.49-8.199-1.471c-2.54-0.997-4.727-2.428-6.559-4.293
				c-0.917-0.9-1.724-1.877-2.423-2.93c-0.7-1.053-1.339-2.271-1.917-3.653c-0.997-2.523-1.495-5.257-1.495-8.199
				c0-1.335,0.141-2.645,0.422-3.931c0.28-1.287,0.703-2.523,1.266-3.714c1.19-2.444,2.701-4.485,4.534-6.125
				c1.914-1.721,4.139-3.055,6.68-4.003C320.116,58.761,322.68,58.303,325.413,58.303z M325.413,67.684
				c-1.896,0-3.642,0.458-5.233,1.375c-1.672,0.964-2.958,2.17-3.858,3.617c-0.949,1.575-1.423,3.183-1.423,4.822
				c0,2.042,0.474,3.939,1.423,5.691c0.964,1.752,2.234,3.087,3.81,4.003c1.655,0.949,3.416,1.423,5.281,1.423
				c1.896,0,3.657-0.474,5.281-1.423c1.576-0.9,2.846-2.234,3.81-4.003c0.949-1.704,1.423-3.602,1.423-5.691
				c0-1.688-0.474-3.295-1.423-4.822c-0.917-1.463-2.203-2.669-3.858-3.617C329.07,68.142,327.327,67.684,325.413,67.684z"/>
			<path fill="#F51484" d="M373.137,59.532h9.67v20.933c0,0.964-0.016,1.816-0.048,2.556c-0.033,0.739-0.097,1.583-0.193,2.532
				c-0.16,1.511-0.522,2.942-1.085,4.293c-0.498,1.302-1.351,2.556-2.556,3.762c-1.028,0.98-2.218,1.784-3.569,2.411
				c-1.351,0.611-2.765,1.046-4.244,1.303c-1.511,0.289-3.023,0.434-4.534,0.434c-2.331,0-4.621-0.329-6.873-0.988
				c-1.109-0.338-2.106-0.764-2.99-1.278s-1.712-1.142-2.484-1.881c-1.206-1.206-2.065-2.46-2.58-3.762
				c-0.579-1.366-0.94-2.782-1.085-4.245c-0.16-1.64-0.241-3.352-0.241-5.136V59.532h9.67v19.606c0,1.992,0.136,3.722,0.41,5.185
				c0.225,1.317,0.828,2.483,1.809,3.496c0.964,0.965,2.42,1.447,4.364,1.447c1.93,0,3.376-0.482,4.341-1.447
				c0.965-0.964,1.576-2.13,1.833-3.496c0.257-1.511,0.386-3.24,0.386-5.185V59.532z"/>
			<path fill="#F51484" d="M408.2,81.502l11.695,15.265h-12.058l-9.115-14.325h-0.121v14.325h-9.67V59.532h14.469
				c2.571,0,4.814,0.41,6.728,1.23c1.978,0.868,3.488,2.138,4.534,3.81c1.124,1.704,1.688,3.843,1.688,6.415
				c0,1.736-0.313,3.352-0.94,4.847c-0.675,1.512-1.6,2.741-2.773,3.69C411.432,80.504,409.952,81.164,408.2,81.502z
				 M398.602,66.936v9.285h0.941c1.334,0,2.459-0.112,3.376-0.338c0.997-0.289,1.8-0.756,2.411-1.398
				c0.627-0.643,0.94-1.607,0.94-2.895c0-1.302-0.313-2.275-0.94-2.918c-0.611-0.643-1.414-1.109-2.411-1.398
				c-0.884-0.226-2.01-0.338-3.376-0.338H398.602z"/>
			<path fill="#F51484" d="M445.627,59.532l6.463,24.043h0.096l7.813-24.043h7.717l7.307,24.043h0.097l7.018-24.043h10.056
				l-11.889,37.234h-9.887l-6.511-21.583h-0.098l-7.307,21.583h-9.838l-11.117-37.234H445.627z"/>
			<path fill="#F51484" d="M513.342,58.303c2.717,0,5.305,0.458,7.765,1.375c2.508,0.964,4.711,2.299,6.607,4.003
				c1.865,1.672,3.385,3.714,4.558,6.125c1.109,2.267,1.664,4.814,1.664,7.645c0,2.975-0.49,5.707-1.471,8.199
				c-1.029,2.54-2.476,4.734-4.341,6.583c-0.997,0.997-2.025,1.842-3.087,2.532c-1.061,0.69-2.21,1.278-3.448,1.761
				c-2.492,0.98-5.241,1.471-8.247,1.471c-2.958,0-5.691-0.49-8.199-1.471c-2.541-0.997-4.727-2.428-6.56-4.293
				c-0.916-0.9-1.724-1.877-2.423-2.93c-0.7-1.053-1.339-2.271-1.918-3.653c-0.997-2.523-1.495-5.257-1.495-8.199
				c0-1.335,0.142-2.645,0.423-3.931c0.28-1.287,0.702-2.523,1.266-3.714c1.189-2.444,2.701-4.485,4.533-6.125
				c1.914-1.721,4.14-3.055,6.68-4.003C508.045,58.761,510.607,58.303,513.342,58.303z M513.342,67.684
				c-1.896,0-3.642,0.458-5.233,1.375c-1.673,0.964-2.958,2.17-3.858,3.617c-0.949,1.575-1.423,3.183-1.423,4.822
				c0,2.042,0.474,3.939,1.423,5.691c0.965,1.752,2.234,3.087,3.811,4.003c1.655,0.949,3.416,1.423,5.281,1.423
				c1.896,0,3.656-0.474,5.281-1.423c1.576-0.9,2.846-2.234,3.81-4.003c0.949-1.704,1.423-3.602,1.423-5.691
				c0-1.688-0.474-3.295-1.423-4.822c-0.916-1.463-2.202-2.669-3.858-3.617C516.998,68.142,515.255,67.684,513.342,67.684z"/>
			<path fill="#F51484" d="M557.713,81.502l11.696,15.265h-12.058l-9.115-14.325h-0.121v14.325h-9.67V59.532h14.469
				c2.572,0,4.814,0.41,6.729,1.23c1.977,0.868,3.488,2.138,4.533,3.81c1.125,1.704,1.688,3.843,1.688,6.415
				c0,1.736-0.313,3.352-0.94,4.847c-0.676,1.512-1.601,2.741-2.773,3.69C560.944,80.504,559.465,81.164,557.713,81.502z
				 M548.115,66.936v9.285h0.94c1.335,0,2.46-0.112,3.376-0.338c0.998-0.289,1.801-0.756,2.412-1.398
				c0.627-0.643,0.94-1.607,0.94-2.895c0-1.302-0.313-2.275-0.94-2.918c-0.611-0.643-1.414-1.109-2.412-1.398
				c-0.884-0.226-2.01-0.338-3.376-0.338H548.115z"/>
			<path fill="#F51484" d="M581.828,74.894l11.695-15.361h12.01l-14.83,17.629l16.156,19.605H594.32l-12.492-16.157h-0.121v16.157
				h-9.67V59.532h9.67v15.361H581.828z"/>
			<path fill="#F51484" d="M647.59,67.731h-11.527v6.222h10.924v8.199h-10.924v6.415h11.527v8.199h-21.197V59.532h21.197V67.731z"/>
			<path fill="#F51484" d="M664.566,76.871l-11.912-17.339h11.912l5.668,9.622l5.69-9.622h11.889l-11.889,17.339l13.771,19.896
				h-11.648l-7.812-12.154l-8.537,12.154h-11.695L664.566,76.871z"/>
			<path fill="#F51484" d="M692.516,96.767V59.532h14.807c2.734,0,5.121,0.426,7.162,1.278c1.993,0.868,3.561,2.234,4.703,4.1
				c1.125,1.817,1.688,4.108,1.688,6.873c0,2.059-0.28,3.946-0.844,5.667c-0.594,1.576-1.455,2.878-2.58,3.906
				c-1.094,0.997-2.476,1.77-4.148,2.315c-1.591,0.498-3.464,0.747-5.618,0.747h-5.498v12.348H692.516z M702.187,67.322v9.284h1.64
				c1.432,0,2.668-0.081,3.714-0.241c0.9-0.145,1.667-0.534,2.303-1.17c0.635-0.636,0.952-1.676,0.952-3.123
				c0-1.495-0.297-2.564-0.892-3.207c-0.611-0.708-1.366-1.134-2.267-1.278c-0.98-0.177-2.252-0.265-3.811-0.265H702.187z"/>
		</g>
	</g>
	<g>
		<g>
			<path fill="#3AB4FF" d="M107.415,58.606l-3.858,7.5c-2.01-1.64-4.148-2.46-6.415-2.46c-1.028,0-1.969,0.281-2.821,0.844
				c-0.884,0.531-1.326,1.287-1.326,2.268c0,0.948,0.395,1.672,1.182,2.17c0.739,0.482,1.776,0.94,3.111,1.375l2.459,0.747
				c2.813,0.82,5.073,2.018,6.776,3.593c1.607,1.592,2.412,3.786,2.412,6.584c0,4.501-1.287,7.846-3.858,10.031
				c-2.765,2.331-6.286,3.497-10.562,3.497c-4.663,0-9.027-1.414-13.094-4.244l4.147-7.813c2.91,2.572,5.779,3.858,8.609,3.858
				c1.222,0,2.307-0.329,3.255-0.988c0.949-0.66,1.422-1.583,1.422-2.773c0-1.206-0.521-2.074-1.567-2.604
				c-0.98-0.498-2.412-1.045-4.292-1.64c-2.219-0.595-4.084-1.27-5.595-2.025c-1.432-0.724-2.536-1.745-3.316-3.063
				c-0.78-1.317-1.169-3.126-1.169-5.426c0-2.475,0.539-4.662,1.616-6.559c1.142-1.93,2.677-3.4,4.606-4.413
				c1.881-1.013,4.084-1.52,6.607-1.52c1.865,0,3.874,0.281,6.029,0.844C103.861,56.918,105.742,57.657,107.415,58.606z"/>
			<path fill="#3AB4FF" d="M123.21,70.905h13.987V56.532h9.67v37.234h-9.67V78.502H123.21v15.265h-9.67V56.532h9.67V70.905z"/>
			<path fill="#3AB4FF" d="M176.022,87.304h-13.335l-2.556,6.463h-10.273l14.324-37.234h10.562l14.035,37.234h-10.321
				L176.022,87.304z M173.418,79.9l-3.955-11.865h-0.097L165.363,79.9H173.418z"/>
			<path fill="#3AB4FF" d="M211.037,78.502l11.696,15.265h-12.058l-9.116-14.325h-0.12v14.325h-9.67V56.532h14.469
				c2.572,0,4.814,0.41,6.728,1.23c1.978,0.868,3.488,2.138,4.534,3.81c1.125,1.704,1.688,3.843,1.688,6.415
				c0,1.736-0.313,3.352-0.94,4.847c-0.675,1.512-1.6,2.741-2.773,3.69C214.269,77.504,212.789,78.164,211.037,78.502z
				 M201.439,63.936v9.285h0.94c1.335,0,2.46-0.112,3.376-0.338c0.997-0.289,1.8-0.756,2.412-1.398
				c0.627-0.643,0.94-1.607,0.94-2.895c0-1.302-0.313-2.275-0.94-2.918c-0.611-0.643-1.415-1.109-2.412-1.398
				c-0.884-0.226-2.01-0.338-3.376-0.338H201.439z"/>
			<path fill="#3AB4FF" d="M246.559,64.731h-11.527v6.222h10.924v8.199h-10.924v6.415h11.527v8.199h-21.197V56.532h21.197V64.731z"
				/>
			<path fill="#3AB4FF" d="M279.065,75.896l-13.721-19.364h11.599l6.969,10.129l6.969-10.129h11.6L288.76,75.896v17.87h-9.694
				V75.896z"/>
			<path fill="#3AB4FF" d="M323.413,55.303c2.717,0,5.305,0.458,7.765,1.375c2.507,0.964,4.711,2.299,6.607,4.003
				c1.865,1.672,3.384,3.714,4.558,6.125c1.109,2.267,1.664,4.814,1.664,7.645c0,2.975-0.491,5.707-1.471,8.199
				c-1.028,2.54-2.476,4.734-4.341,6.583c-0.997,0.997-2.025,1.842-3.086,2.532s-2.21,1.278-3.449,1.761
				c-2.492,0.98-5.241,1.471-8.247,1.471c-2.958,0-5.691-0.49-8.199-1.471c-2.54-0.997-4.727-2.428-6.559-4.293
				c-0.917-0.9-1.724-1.877-2.423-2.93c-0.7-1.053-1.339-2.271-1.917-3.653c-0.997-2.523-1.495-5.257-1.495-8.199
				c0-1.335,0.141-2.645,0.422-3.931c0.28-1.287,0.703-2.523,1.266-3.714c1.19-2.444,2.701-4.485,4.534-6.125
				c1.914-1.721,4.139-3.055,6.68-4.003C318.116,55.761,320.68,55.303,323.413,55.303z M323.413,64.684
				c-1.896,0-3.642,0.458-5.233,1.375c-1.672,0.964-2.958,2.17-3.858,3.617c-0.949,1.575-1.423,3.183-1.423,4.822
				c0,2.042,0.474,3.939,1.423,5.691c0.964,1.752,2.234,3.087,3.81,4.003c1.655,0.949,3.416,1.423,5.281,1.423
				c1.896,0,3.657-0.474,5.281-1.423c1.576-0.9,2.846-2.234,3.81-4.003c0.949-1.704,1.423-3.602,1.423-5.691
				c0-1.688-0.474-3.295-1.423-4.822c-0.917-1.463-2.203-2.669-3.858-3.617C327.07,65.142,325.327,64.684,323.413,64.684z"/>
			<path fill="#3AB4FF" d="M371.137,56.532h9.67v20.933c0,0.964-0.016,1.816-0.048,2.556c-0.033,0.739-0.097,1.583-0.193,2.532
				c-0.16,1.511-0.522,2.942-1.085,4.293c-0.498,1.302-1.351,2.556-2.556,3.762c-1.028,0.98-2.218,1.784-3.569,2.411
				c-1.351,0.611-2.765,1.046-4.244,1.303c-1.511,0.289-3.023,0.434-4.534,0.434c-2.331,0-4.621-0.329-6.873-0.988
				c-1.109-0.338-2.106-0.764-2.99-1.278s-1.712-1.142-2.484-1.881c-1.206-1.206-2.065-2.46-2.58-3.762
				c-0.579-1.366-0.94-2.782-1.085-4.245c-0.16-1.64-0.241-3.352-0.241-5.136V56.532h9.67v19.606c0,1.992,0.136,3.722,0.41,5.185
				c0.225,1.317,0.828,2.483,1.809,3.496c0.964,0.965,2.42,1.447,4.364,1.447c1.93,0,3.376-0.482,4.341-1.447
				c0.965-0.964,1.576-2.13,1.833-3.496c0.257-1.511,0.386-3.24,0.386-5.185V56.532z"/>
			<path fill="#3AB4FF" d="M406.2,78.502l11.695,15.265h-12.058l-9.115-14.325h-0.121v14.325h-9.67V56.532h14.469
				c2.571,0,4.814,0.41,6.728,1.23c1.978,0.868,3.488,2.138,4.534,3.81c1.124,1.704,1.688,3.843,1.688,6.415
				c0,1.736-0.313,3.352-0.94,4.847c-0.675,1.512-1.6,2.741-2.773,3.69C409.432,77.504,407.952,78.164,406.2,78.502z
				 M396.602,63.936v9.285h0.941c1.334,0,2.459-0.112,3.376-0.338c0.997-0.289,1.8-0.756,2.411-1.398
				c0.627-0.643,0.94-1.607,0.94-2.895c0-1.302-0.313-2.275-0.94-2.918c-0.611-0.643-1.414-1.109-2.411-1.398
				c-0.884-0.226-2.01-0.338-3.376-0.338H396.602z"/>
			<path fill="#3AB4FF" d="M443.627,56.532l6.463,24.043h0.096l7.813-24.043h7.717l7.307,24.043h0.097l7.018-24.043h10.056
				l-11.889,37.234h-9.887l-6.511-21.583h-0.098l-7.307,21.583h-9.838l-11.117-37.234H443.627z"/>
			<path fill="#3AB4FF" d="M511.342,55.303c2.717,0,5.305,0.458,7.765,1.375c2.508,0.964,4.711,2.299,6.607,4.003
				c1.865,1.672,3.385,3.714,4.558,6.125c1.109,2.267,1.664,4.814,1.664,7.645c0,2.975-0.49,5.707-1.471,8.199
				c-1.029,2.54-2.476,4.734-4.341,6.583c-0.997,0.997-2.025,1.842-3.087,2.532c-1.061,0.69-2.21,1.278-3.448,1.761
				c-2.492,0.98-5.241,1.471-8.247,1.471c-2.958,0-5.691-0.49-8.199-1.471c-2.541-0.997-4.727-2.428-6.56-4.293
				c-0.916-0.9-1.724-1.877-2.423-2.93c-0.7-1.053-1.339-2.271-1.918-3.653c-0.997-2.523-1.495-5.257-1.495-8.199
				c0-1.335,0.142-2.645,0.423-3.931c0.28-1.287,0.702-2.523,1.266-3.714c1.189-2.444,2.701-4.485,4.533-6.125
				c1.914-1.721,4.14-3.055,6.68-4.003C506.045,55.761,508.607,55.303,511.342,55.303z M511.342,64.684
				c-1.896,0-3.642,0.458-5.233,1.375c-1.673,0.964-2.958,2.17-3.858,3.617c-0.949,1.575-1.423,3.183-1.423,4.822
				c0,2.042,0.474,3.939,1.423,5.691c0.965,1.752,2.234,3.087,3.811,4.003c1.655,0.949,3.416,1.423,5.281,1.423
				c1.896,0,3.656-0.474,5.281-1.423c1.576-0.9,2.846-2.234,3.81-4.003c0.949-1.704,1.423-3.602,1.423-5.691
				c0-1.688-0.474-3.295-1.423-4.822c-0.916-1.463-2.202-2.669-3.858-3.617C514.998,65.142,513.255,64.684,511.342,64.684z"/>
			<path fill="#3AB4FF" d="M555.713,78.502l11.696,15.265h-12.058l-9.115-14.325h-0.121v14.325h-9.67V56.532h14.469
				c2.572,0,4.814,0.41,6.729,1.23c1.977,0.868,3.488,2.138,4.533,3.81c1.125,1.704,1.688,3.843,1.688,6.415
				c0,1.736-0.313,3.352-0.94,4.847c-0.676,1.512-1.601,2.741-2.773,3.69C558.944,77.504,557.465,78.164,555.713,78.502z
				 M546.115,63.936v9.285h0.94c1.335,0,2.46-0.112,3.376-0.338c0.998-0.289,1.801-0.756,2.412-1.398
				c0.627-0.643,0.94-1.607,0.94-2.895c0-1.302-0.313-2.275-0.94-2.918c-0.611-0.643-1.414-1.109-2.412-1.398
				c-0.884-0.226-2.01-0.338-3.376-0.338H546.115z"/>
			<path fill="#3AB4FF" d="M579.828,71.894l11.695-15.361h12.01l-14.83,17.629l16.156,19.605H592.32l-12.492-16.157h-0.121v16.157
				h-9.67V56.532h9.67v15.361H579.828z"/>
			<path fill="#3AB4FF" d="M645.59,64.731h-11.527v6.222h10.924v8.199h-10.924v6.415h11.527v8.199h-21.197V56.532h21.197V64.731z"/>
			<path fill="#3AB4FF" d="M662.566,73.871l-11.912-17.339h11.912l5.668,9.622l5.69-9.622h11.889l-11.889,17.339l13.771,19.896
				h-11.648l-7.812-12.154l-8.537,12.154h-11.695L662.566,73.871z"/>
			<path fill="#3AB4FF" d="M690.516,93.767V56.532h14.807c2.734,0,5.121,0.426,7.162,1.278c1.993,0.868,3.561,2.234,4.703,4.1
				c1.125,1.817,1.688,4.108,1.688,6.873c0,2.059-0.28,3.946-0.844,5.667c-0.594,1.576-1.455,2.878-2.58,3.906
				c-1.094,0.997-2.476,1.77-4.148,2.315c-1.591,0.498-3.464,0.747-5.618,0.747h-5.498v12.348H690.516z M700.187,64.322v9.284h1.64
				c1.432,0,2.668-0.081,3.714-0.241c0.9-0.145,1.667-0.534,2.303-1.17c0.635-0.636,0.952-1.676,0.952-3.123
				c0-1.495-0.297-2.564-0.892-3.207c-0.611-0.708-1.366-1.134-2.267-1.278c-0.98-0.177-2.252-0.265-3.811-0.265H700.187z"/>
		</g>
	</g>
</g>
<g>
	<rect x="834" y="19" fill="#6E1F75" width="748" height="120"/>
	<rect x="826" y="15" fill="#F51484" width="750" height="120"/>
	<rect x="820" y="11" fill="#F9F9F9" width="750" height="120"/>
	<g>
		<g>
			<path fill="#3AB4FF" d="M910.415,61.606l-3.858,7.5c-2.01-1.64-4.148-2.46-6.415-2.46c-1.028,0-1.969,0.281-2.821,0.844
				c-0.884,0.531-1.326,1.287-1.326,2.268c0,0.948,0.395,1.672,1.182,2.17c0.739,0.482,1.775,0.94,3.111,1.375l2.459,0.747
				c2.813,0.82,5.072,2.018,6.776,3.593c1.607,1.592,2.411,3.786,2.411,6.584c0,4.501-1.286,7.846-3.857,10.031
				c-2.766,2.331-6.286,3.497-10.562,3.497c-4.663,0-9.027-1.414-13.095-4.244l4.147-7.813c2.91,2.572,5.779,3.858,8.609,3.858
				c1.222,0,2.307-0.329,3.256-0.988c0.948-0.66,1.422-1.583,1.422-2.773c0-1.206-0.521-2.074-1.566-2.604
				c-0.98-0.498-2.412-1.045-4.293-1.64c-2.219-0.595-4.084-1.27-5.595-2.025c-1.432-0.724-2.536-1.745-3.315-3.063
				c-0.78-1.317-1.17-3.126-1.17-5.426c0-2.475,0.539-4.662,1.615-6.559c1.143-1.93,2.678-3.4,4.606-4.413
				c1.881-1.013,4.084-1.52,6.607-1.52c1.865,0,3.874,0.281,6.028,0.844C906.861,59.918,908.742,60.657,910.415,61.606z"/>
			<path fill="#3AB4FF" d="M926.21,73.905h13.987V59.532h9.67v37.234h-9.67V81.502H926.21v15.265h-9.67V59.532h9.67V73.905z"/>
			<path fill="#3AB4FF" d="M979.021,90.304h-13.335l-2.556,6.463h-10.273l14.324-37.234h10.562l14.035,37.234h-10.321
				L979.021,90.304z M976.418,82.9l-3.955-11.865h-0.097L968.363,82.9H976.418z"/>
			<path fill="#3AB4FF" d="M1014.037,81.502l11.695,15.265h-12.057l-9.116-14.325h-0.12v14.325h-9.67V59.532h14.469
				c2.572,0,4.814,0.41,6.729,1.23c1.977,0.868,3.488,2.138,4.533,3.81c1.125,1.704,1.688,3.843,1.688,6.415
				c0,1.736-0.312,3.352-0.939,4.847c-0.676,1.512-1.601,2.741-2.773,3.69C1017.269,80.504,1015.789,81.164,1014.037,81.502z
				 M1004.439,66.936v9.285h0.94c1.335,0,2.46-0.112,3.376-0.338c0.997-0.289,1.801-0.756,2.412-1.398
				c0.627-0.643,0.939-1.607,0.939-2.895c0-1.302-0.312-2.275-0.939-2.918c-0.611-0.643-1.415-1.109-2.412-1.398
				c-0.884-0.226-2.01-0.338-3.376-0.338H1004.439z"/>
			<path fill="#3AB4FF" d="M1049.559,67.731h-11.527v6.222h10.924v8.199h-10.924v6.415h11.527v8.199h-21.197V59.532h21.197V67.731z"
				/>
			<path fill="#3AB4FF" d="M1082.065,78.896l-13.722-19.364h11.6l6.969,10.129l6.97-10.129h11.6l-13.722,19.364v17.87h-9.694V78.896
				z"/>
			<path fill="#3AB4FF" d="M1126.413,58.303c2.717,0,5.306,0.458,7.765,1.375c2.508,0.964,4.711,2.299,6.607,4.003
				c1.865,1.672,3.385,3.714,4.559,6.125c1.109,2.267,1.664,4.814,1.664,7.645c0,2.975-0.491,5.707-1.472,8.199
				c-1.028,2.54-2.476,4.734-4.341,6.583c-0.997,0.997-2.025,1.842-3.086,2.532c-1.062,0.69-2.211,1.278-3.449,1.761
				c-2.492,0.98-5.241,1.471-8.247,1.471c-2.958,0-5.691-0.49-8.199-1.471c-2.54-0.997-4.727-2.428-6.56-4.293
				c-0.916-0.9-1.724-1.877-2.423-2.93c-0.7-1.053-1.339-2.271-1.917-3.653c-0.998-2.523-1.496-5.257-1.496-8.199
				c0-1.335,0.142-2.645,0.423-3.931c0.28-1.287,0.702-2.523,1.266-3.714c1.19-2.444,2.701-4.485,4.534-6.125
				c1.913-1.721,4.139-3.055,6.68-4.003C1121.116,58.761,1123.68,58.303,1126.413,58.303z M1126.413,67.684
				c-1.896,0-3.642,0.458-5.233,1.375c-1.672,0.964-2.957,2.17-3.857,3.617c-0.949,1.575-1.424,3.183-1.424,4.822
				c0,2.042,0.475,3.939,1.424,5.691c0.964,1.752,2.233,3.087,3.81,4.003c1.655,0.949,3.416,1.423,5.281,1.423
				c1.896,0,3.657-0.474,5.281-1.423c1.576-0.9,2.846-2.234,3.81-4.003c0.949-1.704,1.424-3.602,1.424-5.691
				c0-1.688-0.475-3.295-1.424-4.822c-0.916-1.463-2.202-2.669-3.857-3.617C1130.07,68.142,1128.326,67.684,1126.413,67.684z"/>
			<path fill="#3AB4FF" d="M1174.137,59.532h9.67v20.933c0,0.964-0.016,1.816-0.048,2.556s-0.097,1.583-0.193,2.532
				c-0.16,1.511-0.522,2.942-1.085,4.293c-0.498,1.302-1.351,2.556-2.557,3.762c-1.027,0.98-2.218,1.784-3.568,2.411
				c-1.351,0.611-2.765,1.046-4.244,1.303c-1.512,0.289-3.023,0.434-4.534,0.434c-2.331,0-4.621-0.329-6.872-0.988
				c-1.109-0.338-2.107-0.764-2.99-1.278c-0.885-0.515-1.713-1.142-2.484-1.881c-1.205-1.206-2.065-2.46-2.58-3.762
				c-0.579-1.366-0.94-2.782-1.086-4.245c-0.16-1.64-0.24-3.352-0.24-5.136V59.532h9.67v19.606c0,1.992,0.137,3.722,0.41,5.185
				c0.225,1.317,0.828,2.483,1.809,3.496c0.965,0.965,2.42,1.447,4.364,1.447c1.93,0,3.376-0.482,4.341-1.447
				c0.965-0.964,1.576-2.13,1.833-3.496c0.257-1.511,0.386-3.24,0.386-5.185V59.532z"/>
			<path fill="#3AB4FF" d="M1209.2,81.502l11.695,15.265h-12.058l-9.115-14.325h-0.121v14.325h-9.67V59.532h14.47
				c2.571,0,4.814,0.41,6.728,1.23c1.978,0.868,3.488,2.138,4.534,3.81c1.124,1.704,1.688,3.843,1.688,6.415
				c0,1.736-0.313,3.352-0.94,4.847c-0.675,1.512-1.6,2.741-2.773,3.69C1212.432,80.504,1210.952,81.164,1209.2,81.502z
				 M1199.602,66.936v9.285h0.941c1.334,0,2.459-0.112,3.376-0.338c0.997-0.289,1.8-0.756,2.411-1.398
				c0.627-0.643,0.94-1.607,0.94-2.895c0-1.302-0.313-2.275-0.94-2.918c-0.611-0.643-1.414-1.109-2.411-1.398
				c-0.884-0.226-2.011-0.338-3.376-0.338H1199.602z"/>
			<path fill="#3AB4FF" d="M1246.627,59.532l6.463,24.043h0.096l7.813-24.043h7.717l7.307,24.043h0.097l7.018-24.043h10.056
				l-11.889,37.234h-9.887l-6.511-21.583h-0.098l-7.307,21.583h-9.838l-11.117-37.234H1246.627z"/>
			<path fill="#3AB4FF" d="M1314.342,58.303c2.717,0,5.305,0.458,7.765,1.375c2.508,0.964,4.711,2.299,6.607,4.003
				c1.865,1.672,3.385,3.714,4.558,6.125c1.109,2.267,1.664,4.814,1.664,7.645c0,2.975-0.49,5.707-1.471,8.199
				c-1.029,2.54-2.476,4.734-4.341,6.583c-0.997,0.997-2.025,1.842-3.087,2.532c-1.061,0.69-2.21,1.278-3.448,1.761
				c-2.492,0.98-5.241,1.471-8.247,1.471c-2.958,0-5.691-0.49-8.199-1.471c-2.541-0.997-4.727-2.428-6.56-4.293
				c-0.916-0.9-1.724-1.877-2.423-2.93c-0.7-1.053-1.339-2.271-1.918-3.653c-0.997-2.523-1.495-5.257-1.495-8.199
				c0-1.335,0.142-2.645,0.423-3.931c0.28-1.287,0.702-2.523,1.266-3.714c1.189-2.444,2.701-4.485,4.533-6.125
				c1.914-1.721,4.14-3.055,6.68-4.003C1309.045,58.761,1311.607,58.303,1314.342,58.303z M1314.342,67.684
				c-1.896,0-3.642,0.458-5.233,1.375c-1.673,0.964-2.958,2.17-3.858,3.617c-0.949,1.575-1.423,3.183-1.423,4.822
				c0,2.042,0.474,3.939,1.423,5.691c0.965,1.752,2.234,3.087,3.811,4.003c1.655,0.949,3.416,1.423,5.281,1.423
				c1.896,0,3.656-0.474,5.281-1.423c1.576-0.9,2.846-2.234,3.81-4.003c0.949-1.704,1.423-3.602,1.423-5.691
				c0-1.688-0.474-3.295-1.423-4.822c-0.916-1.463-2.202-2.669-3.858-3.617C1317.998,68.142,1316.255,67.684,1314.342,67.684z"/>
			<path fill="#3AB4FF" d="M1358.713,81.502l11.696,15.265h-12.058l-9.115-14.325h-0.121v14.325h-9.67V59.532h14.469
				c2.572,0,4.814,0.41,6.729,1.23c1.977,0.868,3.488,2.138,4.533,3.81c1.125,1.704,1.688,3.843,1.688,6.415
				c0,1.736-0.313,3.352-0.94,4.847c-0.676,1.512-1.601,2.741-2.773,3.69C1361.944,80.504,1360.465,81.164,1358.713,81.502z
				 M1349.115,66.936v9.285h0.94c1.335,0,2.46-0.112,3.376-0.338c0.998-0.289,1.801-0.756,2.412-1.398
				c0.627-0.643,0.94-1.607,0.94-2.895c0-1.302-0.313-2.275-0.94-2.918c-0.611-0.643-1.414-1.109-2.412-1.398
				c-0.884-0.226-2.01-0.338-3.376-0.338H1349.115z"/>
			<path fill="#3AB4FF" d="M1382.828,74.894l11.695-15.361h12.01l-14.83,17.629l16.156,19.605h-12.539l-12.492-16.157h-0.121v16.157
				h-9.67V59.532h9.67v15.361H1382.828z"/>
			<path fill="#3AB4FF" d="M1448.59,67.731h-11.527v6.222h10.924v8.199h-10.924v6.415h11.527v8.199h-21.197V59.532h21.197V67.731z"
				/>
			<path fill="#3AB4FF" d="M1465.566,76.871l-11.912-17.339h11.912l5.668,9.622l5.69-9.622h11.889l-11.889,17.339l13.771,19.896
				h-11.648l-7.812-12.154l-8.537,12.154h-11.695L1465.566,76.871z"/>
			<path fill="#3AB4FF" d="M1493.516,96.767V59.532h14.807c2.734,0,5.121,0.426,7.162,1.278c1.994,0.868,3.561,2.234,4.703,4.1
				c1.125,1.817,1.688,4.108,1.688,6.873c0,2.059-0.28,3.946-0.844,5.667c-0.594,1.576-1.455,2.878-2.58,3.906
				c-1.094,0.997-2.476,1.77-4.148,2.315c-1.591,0.498-3.464,0.747-5.618,0.747h-5.498v12.348H1493.516z M1503.187,67.322v9.284
				h1.64c1.432,0,2.668-0.081,3.714-0.241c0.9-0.145,1.667-0.534,2.303-1.17s0.952-1.676,0.952-3.123
				c0-1.495-0.297-2.564-0.892-3.207c-0.611-0.708-1.366-1.134-2.267-1.278c-0.98-0.177-2.252-0.265-3.811-0.265H1503.187z"/>
		</g>
	</g>
	<g>
		<g>
			<path fill="#F51484" d="M908.415,58.606l-3.858,7.5c-2.01-1.64-4.148-2.46-6.415-2.46c-1.028,0-1.969,0.281-2.821,0.844
				c-0.884,0.531-1.326,1.287-1.326,2.268c0,0.948,0.395,1.672,1.182,2.17c0.739,0.482,1.775,0.94,3.111,1.375l2.459,0.747
				c2.813,0.82,5.072,2.018,6.776,3.593c1.607,1.592,2.411,3.786,2.411,6.584c0,4.501-1.286,7.846-3.857,10.031
				c-2.766,2.331-6.286,3.497-10.562,3.497c-4.663,0-9.027-1.414-13.095-4.244l4.147-7.813c2.91,2.572,5.779,3.858,8.609,3.858
				c1.222,0,2.307-0.329,3.256-0.988c0.948-0.66,1.422-1.583,1.422-2.773c0-1.206-0.521-2.074-1.566-2.604
				c-0.98-0.498-2.412-1.045-4.293-1.64c-2.219-0.595-4.084-1.27-5.595-2.025c-1.432-0.724-2.536-1.745-3.315-3.063
				c-0.78-1.317-1.17-3.126-1.17-5.426c0-2.475,0.539-4.662,1.615-6.559c1.143-1.93,2.678-3.4,4.606-4.413
				c1.881-1.013,4.084-1.52,6.607-1.52c1.865,0,3.874,0.281,6.028,0.844C904.861,56.918,906.742,57.657,908.415,58.606z"/>
			<path fill="#F51484" d="M924.21,70.905h13.987V56.532h9.67v37.234h-9.67V78.502H924.21v15.265h-9.67V56.532h9.67V70.905z"/>
			<path fill="#F51484" d="M977.021,87.304h-13.335l-2.556,6.463h-10.273l14.324-37.234h10.562l14.035,37.234h-10.321
				L977.021,87.304z M974.418,79.9l-3.955-11.865h-0.097L966.363,79.9H974.418z"/>
			<path fill="#F51484" d="M1012.037,78.502l11.695,15.265h-12.057l-9.116-14.325h-0.12v14.325h-9.67V56.532h14.469
				c2.572,0,4.814,0.41,6.729,1.23c1.977,0.868,3.488,2.138,4.533,3.81c1.125,1.704,1.688,3.843,1.688,6.415
				c0,1.736-0.312,3.352-0.939,4.847c-0.676,1.512-1.601,2.741-2.773,3.69C1015.269,77.504,1013.789,78.164,1012.037,78.502z
				 M1002.439,63.936v9.285h0.94c1.335,0,2.46-0.112,3.376-0.338c0.997-0.289,1.801-0.756,2.412-1.398
				c0.627-0.643,0.939-1.607,0.939-2.895c0-1.302-0.312-2.275-0.939-2.918c-0.611-0.643-1.415-1.109-2.412-1.398
				c-0.884-0.226-2.01-0.338-3.376-0.338H1002.439z"/>
			<path fill="#F51484" d="M1047.559,64.731h-11.527v6.222h10.924v8.199h-10.924v6.415h11.527v8.199h-21.197V56.532h21.197V64.731z"
				/>
			<path fill="#F51484" d="M1080.065,75.896l-13.722-19.364h11.6l6.969,10.129l6.97-10.129h11.6l-13.722,19.364v17.87h-9.694V75.896
				z"/>
			<path fill="#F51484" d="M1124.413,55.303c2.717,0,5.306,0.458,7.765,1.375c2.508,0.964,4.711,2.299,6.607,4.003
				c1.865,1.672,3.385,3.714,4.559,6.125c1.109,2.267,1.664,4.814,1.664,7.645c0,2.975-0.491,5.707-1.472,8.199
				c-1.028,2.54-2.476,4.734-4.341,6.583c-0.997,0.997-2.025,1.842-3.086,2.532c-1.062,0.69-2.211,1.278-3.449,1.761
				c-2.492,0.98-5.241,1.471-8.247,1.471c-2.958,0-5.691-0.49-8.199-1.471c-2.54-0.997-4.727-2.428-6.56-4.293
				c-0.916-0.9-1.724-1.877-2.423-2.93c-0.7-1.053-1.339-2.271-1.917-3.653c-0.998-2.523-1.496-5.257-1.496-8.199
				c0-1.335,0.142-2.645,0.423-3.931c0.28-1.287,0.702-2.523,1.266-3.714c1.19-2.444,2.701-4.485,4.534-6.125
				c1.913-1.721,4.139-3.055,6.68-4.003C1119.116,55.761,1121.68,55.303,1124.413,55.303z M1124.413,64.684
				c-1.896,0-3.642,0.458-5.233,1.375c-1.672,0.964-2.957,2.17-3.857,3.617c-0.949,1.575-1.424,3.183-1.424,4.822
				c0,2.042,0.475,3.939,1.424,5.691c0.964,1.752,2.233,3.087,3.81,4.003c1.655,0.949,3.416,1.423,5.281,1.423
				c1.896,0,3.657-0.474,5.281-1.423c1.576-0.9,2.846-2.234,3.81-4.003c0.949-1.704,1.424-3.602,1.424-5.691
				c0-1.688-0.475-3.295-1.424-4.822c-0.916-1.463-2.202-2.669-3.857-3.617C1128.07,65.142,1126.326,64.684,1124.413,64.684z"/>
			<path fill="#F51484" d="M1172.137,56.532h9.67v20.933c0,0.964-0.016,1.816-0.048,2.556s-0.097,1.583-0.193,2.532
				c-0.16,1.511-0.522,2.942-1.085,4.293c-0.498,1.302-1.351,2.556-2.557,3.762c-1.027,0.98-2.218,1.784-3.568,2.411
				c-1.351,0.611-2.765,1.046-4.244,1.303c-1.512,0.289-3.023,0.434-4.534,0.434c-2.331,0-4.621-0.329-6.872-0.988
				c-1.109-0.338-2.107-0.764-2.99-1.278c-0.885-0.515-1.713-1.142-2.484-1.881c-1.205-1.206-2.065-2.46-2.58-3.762
				c-0.579-1.366-0.94-2.782-1.086-4.245c-0.16-1.64-0.24-3.352-0.24-5.136V56.532h9.67v19.606c0,1.992,0.137,3.722,0.41,5.185
				c0.225,1.317,0.828,2.483,1.809,3.496c0.965,0.965,2.42,1.447,4.364,1.447c1.93,0,3.376-0.482,4.341-1.447
				c0.965-0.964,1.576-2.13,1.833-3.496c0.257-1.511,0.386-3.24,0.386-5.185V56.532z"/>
			<path fill="#F51484" d="M1207.2,78.502l11.695,15.265h-12.058l-9.115-14.325h-0.121v14.325h-9.67V56.532h14.47
				c2.571,0,4.814,0.41,6.728,1.23c1.978,0.868,3.488,2.138,4.534,3.81c1.124,1.704,1.688,3.843,1.688,6.415
				c0,1.736-0.313,3.352-0.94,4.847c-0.675,1.512-1.6,2.741-2.773,3.69C1210.432,77.504,1208.952,78.164,1207.2,78.502z
				 M1197.602,63.936v9.285h0.941c1.334,0,2.459-0.112,3.376-0.338c0.997-0.289,1.8-0.756,2.411-1.398
				c0.627-0.643,0.94-1.607,0.94-2.895c0-1.302-0.313-2.275-0.94-2.918c-0.611-0.643-1.414-1.109-2.411-1.398
				c-0.884-0.226-2.011-0.338-3.376-0.338H1197.602z"/>
			<path fill="#F51484" d="M1244.627,56.532l6.463,24.043h0.096l7.813-24.043h7.717l7.307,24.043h0.097l7.018-24.043h10.056
				l-11.889,37.234h-9.887l-6.511-21.583h-0.098l-7.307,21.583h-9.838l-11.117-37.234H1244.627z"/>
			<path fill="#F51484" d="M1312.342,55.303c2.717,0,5.305,0.458,7.765,1.375c2.508,0.964,4.711,2.299,6.607,4.003
				c1.865,1.672,3.385,3.714,4.558,6.125c1.109,2.267,1.664,4.814,1.664,7.645c0,2.975-0.49,5.707-1.471,8.199
				c-1.029,2.54-2.476,4.734-4.341,6.583c-0.997,0.997-2.025,1.842-3.087,2.532c-1.061,0.69-2.21,1.278-3.448,1.761
				c-2.492,0.98-5.241,1.471-8.247,1.471c-2.958,0-5.691-0.49-8.199-1.471c-2.541-0.997-4.727-2.428-6.56-4.293
				c-0.916-0.9-1.724-1.877-2.423-2.93c-0.7-1.053-1.339-2.271-1.918-3.653c-0.997-2.523-1.495-5.257-1.495-8.199
				c0-1.335,0.142-2.645,0.423-3.931c0.28-1.287,0.702-2.523,1.266-3.714c1.189-2.444,2.701-4.485,4.533-6.125
				c1.914-1.721,4.14-3.055,6.68-4.003C1307.045,55.761,1309.607,55.303,1312.342,55.303z M1312.342,64.684
				c-1.896,0-3.642,0.458-5.233,1.375c-1.673,0.964-2.958,2.17-3.858,3.617c-0.949,1.575-1.423,3.183-1.423,4.822
				c0,2.042,0.474,3.939,1.423,5.691c0.965,1.752,2.234,3.087,3.811,4.003c1.655,0.949,3.416,1.423,5.281,1.423
				c1.896,0,3.656-0.474,5.281-1.423c1.576-0.9,2.846-2.234,3.81-4.003c0.949-1.704,1.423-3.602,1.423-5.691
				c0-1.688-0.474-3.295-1.423-4.822c-0.916-1.463-2.202-2.669-3.858-3.617C1315.998,65.142,1314.255,64.684,1312.342,64.684z"/>
			<path fill="#F51484" d="M1356.713,78.502l11.696,15.265h-12.058l-9.115-14.325h-0.121v14.325h-9.67V56.532h14.469
				c2.572,0,4.814,0.41,6.729,1.23c1.977,0.868,3.488,2.138,4.533,3.81c1.125,1.704,1.688,3.843,1.688,6.415
				c0,1.736-0.313,3.352-0.94,4.847c-0.676,1.512-1.601,2.741-2.773,3.69C1359.944,77.504,1358.465,78.164,1356.713,78.502z
				 M1347.115,63.936v9.285h0.94c1.335,0,2.46-0.112,3.376-0.338c0.998-0.289,1.801-0.756,2.412-1.398
				c0.627-0.643,0.94-1.607,0.94-2.895c0-1.302-0.313-2.275-0.94-2.918c-0.611-0.643-1.414-1.109-2.412-1.398
				c-0.884-0.226-2.01-0.338-3.376-0.338H1347.115z"/>
			<path fill="#F51484" d="M1380.828,71.894l11.695-15.361h12.01l-14.83,17.629l16.156,19.605h-12.539l-12.492-16.157h-0.121v16.157
				h-9.67V56.532h9.67v15.361H1380.828z"/>
			<path fill="#F51484" d="M1446.59,64.731h-11.527v6.222h10.924v8.199h-10.924v6.415h11.527v8.199h-21.197V56.532h21.197V64.731z"
				/>
			<path fill="#F51484" d="M1463.566,73.871l-11.912-17.339h11.912l5.668,9.622l5.69-9.622h11.889l-11.889,17.339l13.771,19.896
				h-11.648l-7.812-12.154l-8.537,12.154h-11.695L1463.566,73.871z"/>
			<path fill="#F51484" d="M1491.516,93.767V56.532h14.807c2.734,0,5.121,0.426,7.162,1.278c1.994,0.868,3.561,2.234,4.703,4.1
				c1.125,1.817,1.688,4.108,1.688,6.873c0,2.059-0.28,3.946-0.844,5.667c-0.594,1.576-1.455,2.878-2.58,3.906
				c-1.094,0.997-2.476,1.77-4.148,2.315c-1.591,0.498-3.464,0.747-5.618,0.747h-5.498v12.348H1491.516z M1501.187,64.322v9.284
				h1.64c1.432,0,2.668-0.081,3.714-0.241c0.9-0.145,1.667-0.534,2.303-1.17s0.952-1.676,0.952-3.123
				c0-1.495-0.297-2.564-0.892-3.207c-0.611-0.708-1.366-1.134-2.267-1.278c-0.98-0.177-2.252-0.265-3.811-0.265H1501.187z"/>
		</g>
	</g>
</g>
</svg>
