<?xml version="1.0" encoding="utf-8"?>
<!-- Generator: Adobe Illustrator 16.0.0, SVG Export Plug-In . SVG Version: 6.00 Build 0)  -->
<!DOCTYPE svg PUBLIC "-//W3C//DTD SVG 1.1//EN" "http://www.w3.org/Graphics/SVG/1.1/DTD/svg11.dtd">
<svg version="1.1" id="Layer_1" xmlns="http://www.w3.org/2000/svg" xmlns:xlink="http://www.w3.org/1999/xlink" x="0px" y="0px"
	 width="500px" height="150px" viewBox="0 0 500 150" enable-background="new 0 0 500 150" xml:space="preserve">
<g>
	<g>
		<path fill="#7B04FF" d="M18.973,138.236c9.089,0.148,15.629-15.017,14.873-16.711c-0.391-0.921-8.32,4.208-12.013,4.859
			c-0.591,0.104-4.062-4.462-4.192-5.2c-0.391-2.216,10.729-15.6,22.104-17.605c5.318-0.938,2.705,8.433,1.229,8.693
			c-9.603,1.692-17.253,10.125-16.22,9.942c1.478-0.261,15.715-8.482,17.082-0.729c0.69,3.915-6.171,17.69-18.136,19.8
			c-4.21,0.742-8.146-0.849-8.614-3.507c-0.509-2.88,2.629-6.25,4.845-6.641c0.664-0.117,2.271,2.949,2.362,3.466
			c0.026,0.148-0.035,0.234-0.182,0.261C21.224,135.021,17.295,138.227,18.973,138.236z"/>
		<path fill="#7B04FF" d="M60.972,131.974c-3.25,0.572-4.471-2.03-4.987-3.234c-3.85,6.239-3.998,8.854-7.69,9.505
			c-2.068,0.365-4.122-3.08-4.565-5.592c-2.448-13.885,7.534-34.15,12.709-38.489c3.646-3.081,8.075,3.906,7.072,4.692
			c-7.135,5.751-16.805,26.494-15.241,35.357c0.247,1.403,2.507-3.488,5.719-10.756c2.53-11.564,11.677-21.021,12.45-21.387
			c3.692-1.945,6.477,3.047,5.891,3.607c-12.779,12.61-13.515,19.669-13.137,21.812c1.237,7.018,23.867-21.419,20.824-40.835
			c-0.421-2.819,7.338,0.153,7.794,2.738C89.979,102.565,70.057,130.371,60.972,131.974z"/>
		<path fill="#7B04FF" d="M110.686,108.129c-0.739,1.425-15.604,21.638-21.143,22.614c-3.693,0.651-6.765-3.377-7.689-8.621
			c-2.253-12.776,11.568-27.246,15.336-27.91c3.323-0.587,5.56,2.599,5.808,4.002c-0.591,0.104-1.304,0.382-1.929,0.721
			c2.063,0.474,3.419,1.682,3.471,1.977c0.912,5.171-4.642,12.547-15.568,14.93c-1.382,3.823-1.84,11.595,0.007,11.27
			c4.506-0.794,16.051-17.375,19.445-22.314C108.896,104.027,111.716,106.195,110.686,108.129z M90.939,111.458
			c6.895-2.357,7.456-6.95,7.117-10.165C95.394,103.896,92.804,107.778,90.939,111.458z"/>
		<path fill="#7B04FF" d="M134.32,103.961c-0.739,1.426-15.604,21.639-21.144,22.615c-3.692,0.65-6.764-3.377-7.688-8.621
			c-2.253-12.777,11.568-27.247,15.335-27.911c3.324-0.586,5.561,2.599,5.808,4.002c-0.59,0.104-1.303,0.382-1.928,0.721
			c2.063,0.475,3.419,1.683,3.471,1.978c0.912,5.17-4.642,12.547-15.568,14.93c-1.382,3.823-1.84,11.595,0.007,11.27
			c4.505-0.795,16.051-17.376,19.444-22.314C132.53,99.86,135.35,102.028,134.32,103.961z M114.574,107.291
			c6.895-2.358,7.456-6.95,7.117-10.165C119.027,99.728,116.438,103.611,114.574,107.291z"/>
		<path fill="#7B04FF" d="M160.521,77.638c0.13,0.738-0.018,2.06-1.052,2.241c-0.296,0.053-3.671,0.343-7.812,0.616
			c-8.257,13.641-19.063,33.976-16.785,46.899c0.079,0.443,0.399,0.539,0.474,0.525c2.438-0.43,18.654-27.657,21.231-31.615
			c0.474-0.769,3.84,0.618,2.798,2.477c-0.691,1.265-18.769,32.629-23.569,33.476c-2.586,0.456-5.908-0.252-6.885-5.792
			c-2.488-14.106,4.631-32.04,12.161-45.477c-3.341,0.057-5.882-0.105-5.986-0.695c-0.286-1.625-0.169-4.844,3.081-5.417
			c0,0,2.764,0.122,6.316,0.409c5.176-8.224,9.848-13.693,11.177-13.927c2.659-0.469,4.669,3.594,4.891,4.85
			c0.065,0.369-2.611,4.192-6.171,9.921C157.823,76.59,160.417,77.047,160.521,77.638z"/>
	</g>
	<g>
		<path fill="#7B04FF" d="M212.749,79.547c2.436,13.811-12.033,27.633-15.356,28.219c-5.022,0.886-6.087-3.42-5.561-9.071
			c-3.846,9.283-6.545,17.299-7.833,31.156c-0.165,2.086-6.355,0.665-7.02-3.103c-1.381-7.829,19.141-53.408,22.39-53.981
			c2.142-0.377,4.109,0.418,4.344,1.748c0.053,0.295-0.99,2.154-2.65,5.265c2.407-2.328,4.954-4.301,6.727-4.613
			C209.266,74.906,212.11,75.928,212.749,79.547z M205.537,80.971c-2.289,0.404-5.987,5.777-8.233,9.448
			c-1.044,3.154-2.899,9.04-1.645,8.819C199.427,98.574,207.384,80.646,205.537,80.971z"/>
		<path fill="#7B04FF" d="M229.137,83.512c0.474-0.77,3.38,1.459,2.263,3.332c-0.873,1.524-12.376,20.078-12.558,20.339
			c-0.122,0.174-0.392,0.374-1.13,0.504c-0.739,0.13-4.579-0.486-5.556-6.026c-2.006-11.374,9.753-30.202,10.713-30.371
			c2.142-0.377,5.365,2.786,5.678,4.559c0.325,1.846-12.901,17.962-11.13,28.007C217.469,104.15,222.71,93.707,229.137,83.512z
			 M235.626,60.282c0.222,1.255-4.124,8.571-5.749,8.857s-4.387-1.13-4.583-2.238c-0.416-2.363,2.908-10.717,4.46-10.991
			C231.304,55.638,235.404,59.027,235.626,60.282z"/>
		<path fill="#7B04FF" d="M247.672,79.785c2.614,7.917,4.516,14.816,6.153,21.076c-0.248,1.187-2.281,3.905-3.103,1.842
			c-1.124-2.924-5.007-11.987-7.782-18.656c-6.826,7.068-9.712,12.298-10.45,12.429c-1.772,0.312-2.867-0.714-3.05-1.747
			c-0.183-1.034,5.097-8.667,11.363-16.32c-0.569-1.5-1.111-2.852-1.59-3.833c-4.976,8.493-8.078,12.923-8.518,13.458
			c-0.573,0.634-3.414-1.226-2.589-2.589c1.191-1.886,5.189-8.149,9.17-14.944l-0.014-0.074c-0.352-1.994,3.328-5.309,5.397-5.673
			c0.959-0.169,0.521,1.66,2.935,9.307c5.146-6.238,10.563-10.925,11.228-11.042c2.216-0.391,5.218,4.106,5.348,4.845
			C262.236,68.231,257.157,69.66,247.672,79.785z"/>
		<path fill="#7B04FF" d="M284.949,77.401c-0.74,1.425-15.605,21.638-21.144,22.614c-3.693,0.651-6.765-3.376-7.689-8.621
			c-2.253-12.776,11.568-27.246,15.336-27.91c3.323-0.586,5.56,2.599,5.808,4.002c-0.591,0.104-1.303,0.382-1.929,0.721
			c2.063,0.474,3.419,1.682,3.472,1.977c0.911,5.17-4.643,12.546-15.569,14.929c-1.382,3.823-1.84,11.596,0.007,11.27
			c4.506-0.794,16.051-17.375,19.445-22.314C283.158,73.3,285.979,75.469,284.949,77.401z M265.202,80.73
			c6.895-2.357,7.457-6.95,7.118-10.165C269.656,73.168,267.066,77.052,265.202,80.73z"/>
		<path fill="#7B04FF" d="M307.255,69.584c0.547-0.782,3.318,1.547,2.263,3.333c-0.704,1.19-20.15,37.746-24.951,38.593
			c-2.586,0.455-5.908-0.254-6.807-5.349c-0.014-0.074-0.014-0.074-0.014-0.074l-0.064-0.369
			c-4.559-25.851,22.166-69.935,25.785-70.572c2.659-0.469,4.669,3.593,4.891,4.849c0.222,1.255-28.357,46.047-24.711,66.727
			c0.064,0.369,0.387,0.465,0.46,0.452C286.544,106.744,304.795,72.912,307.255,69.584z"/>
	</g>
	<g>
		<path fill="#7B04FF" d="M336.081,82.322c9.089,0.148,15.629-15.017,14.873-16.711c-0.391-0.921-8.32,4.208-12.013,4.859
			c-0.592,0.104-4.062-4.462-4.192-5.201c-0.391-2.216,10.729-15.6,22.103-17.605c5.318-0.938,2.706,8.433,1.229,8.693
			c-9.602,1.693-17.253,10.125-16.219,9.943c1.478-0.261,15.715-8.483,17.082-0.729c0.69,3.915-6.171,17.69-18.136,19.799
			c-4.211,0.743-8.146-0.848-8.615-3.506c-0.508-2.881,2.63-6.251,4.846-6.642c0.664-0.117,2.271,2.949,2.362,3.466
			c0.026,0.148-0.035,0.234-0.183,0.261C338.331,79.106,334.403,82.312,336.081,82.322z"/>
		<path fill="#7B04FF" d="M391.585,36.895c0.13,0.739-0.018,2.06-1.052,2.242c-0.296,0.052-3.671,0.342-7.812,0.616
			c-8.257,13.641-19.063,33.976-16.785,46.9c0.078,0.443,0.399,0.538,0.474,0.525c2.438-0.43,18.654-27.658,21.231-31.615
			c0.473-0.769,3.84,0.617,2.798,2.477c-0.691,1.264-18.769,32.629-23.57,33.476c-2.585,0.455-5.907-0.253-6.885-5.792
			c-2.487-14.107,4.632-32.04,12.162-45.477c-3.341,0.056-5.882-0.105-5.986-0.696c-0.286-1.625-0.169-4.844,3.081-5.417
			c0,0,2.764,0.122,6.316,0.409c5.176-8.224,9.848-13.692,11.177-13.927c2.659-0.469,4.669,3.594,4.891,4.85
			c0.065,0.369-2.611,4.192-6.171,9.922C388.887,35.848,391.48,36.304,391.585,36.895z"/>
		<path fill="#7B04FF" d="M418.562,53.842c-0.874,1.524-12.29,21.435-15.835,22.06c-0.738,0.13-4.791-0.831-5.416-4.376
			c-0.183-1.035,1.029-3.228,0.556-2.459c-3.863,6.164-7.374,9.144-9.221,9.469c-4.432,0.782-5.669-2.351-6.033-4.418
			c-1.484-8.42,10.326-28.247,11.139-28.39c2.142-0.378,5.652,1.821,5.965,3.594c0.208,1.181-13.915,20.426-13.016,25.521
			c0.078,0.443,0.317,0.935,1.056,0.805c2.216-0.391,9.485-10.126,13.145-18.311c3.368-7.676,7.991-14.279,8.509-14.37
			c2.142-0.378,4.262,2.142,4.574,3.915c0.378,2.142-12.811,19.774-11.912,24.871c0.144,0.812,13.036-19.357,14.227-21.243
			C416.771,49.741,419.678,51.97,418.562,53.842z"/>
		<path fill="#7B04FF" d="M453.878,14.869c0.222,1.255-26.046,38.862-23.168,55.184c0.026,0.148,0.039,0.221,0.127,0.282
			c1.329-0.234,13.938-21.573,16.26-25.256c0.535-0.856,3.318,1.547,2.263,3.333c-1.869,3.223-14.709,24.983-17.294,25.438
			c-1.034,0.183-6.556,0.395-7.207-3.299c-0.391-2.216-0.412-4.497-0.164-6.977c-2.772,2.85-5.893,5.457-7.96,5.821
			c-1.478,0.26-4.322-0.761-4.961-4.381c-2.436-13.811,12.034-27.633,15.357-28.219c2.881-0.508,4.23,1.539,4.752,4.493
			c5.872-16.799,14.137-30.822,16.427-31.226C450.968,9.594,453.657,13.613,453.878,14.869z M426.198,55.694
			c0.739-2.721,1.761-5.566,2.869-8.35c0.233-1.26,0.239-2.099-0.204-2.02c-3.767,0.664-11.725,18.592-9.878,18.267
			C420.98,63.239,423.987,59.13,426.198,55.694z"/>
		<path fill="#7B04FF" d="M458.249,43.112c0.475-0.769,3.381,1.46,2.264,3.333c-0.873,1.524-12.376,20.078-12.559,20.339
			c-0.122,0.173-0.391,0.373-1.13,0.503c-0.738,0.13-4.578-0.487-5.556-6.026c-2.005-11.374,9.754-30.202,10.714-30.371
			c2.142-0.377,5.364,2.786,5.677,4.558c0.326,1.847-12.9,17.963-11.13,28.007C446.582,63.751,451.822,53.308,458.249,43.112z
			 M464.739,19.883c0.222,1.255-4.124,8.571-5.75,8.857c-1.624,0.287-4.387-1.13-4.582-2.238c-0.417-2.363,2.908-10.717,4.459-10.99
			S464.518,18.628,464.739,19.883z"/>
		<path fill="#7B04FF" d="M486.819,41.882c-2.111,3.57-6.531,9.604-9.706,10.164c-1.256,0.222-1.986-0.03-2.842-0.565
			c-2.498,4.401-4.106,6.511-8.099,8.054c-3.488,1.377-8.706-0.141-9.384-3.982c-2.253-12.777,11.568-27.246,15.336-27.911
			c1.624-0.286,2.949,0.318,3.932,1.135c0.252-0.73,0.568-1.09,0.938-1.156c1.847-0.325,4.344,3.042,4.839,5.849
			c0.586,3.323-6.471,14.697-6.089,16c0.446,1.672,6.344-7.211,8.873-11.008C485.165,37.681,487.863,40.022,486.819,41.882z
			 M470.896,47.888c-0.165-0.504-0.256-1.021-0.334-1.464c-0.469-2.659,1.087-7.655,3.077-12.346
			c-7.043,6.268-15.183,24.457-10.899,23.701C464.661,57.44,468.567,51.954,470.896,47.888z"/>
	</g>
</g>
<g>
	<g>
		<path fill="#FF00A4" d="M16.973,136.236c9.089,0.148,15.629-15.017,14.873-16.711c-0.391-0.921-8.32,4.208-12.013,4.859
			c-0.591,0.104-4.062-4.462-4.192-5.2c-0.391-2.216,10.729-15.6,22.104-17.605c5.318-0.938,2.705,8.433,1.229,8.693
			c-9.603,1.692-17.253,10.125-16.22,9.942c1.478-0.261,15.715-8.482,17.082-0.729c0.69,3.915-6.171,17.69-18.136,19.8
			c-4.21,0.742-8.146-0.849-8.614-3.507c-0.509-2.88,2.629-6.25,4.845-6.641c0.664-0.117,2.271,2.949,2.362,3.466
			c0.026,0.148-0.035,0.234-0.182,0.261C19.224,133.021,15.295,136.227,16.973,136.236z"/>
		<path fill="#FF00A4" d="M58.972,129.974c-3.25,0.572-4.471-2.03-4.987-3.234c-3.85,6.239-3.998,8.854-7.69,9.505
			c-2.068,0.365-4.122-3.08-4.565-5.592c-2.448-13.885,7.534-34.15,12.709-38.489c3.646-3.081,8.075,3.906,7.072,4.692
			c-7.135,5.751-16.805,26.494-15.241,35.357c0.247,1.403,2.507-3.488,5.719-10.756c2.53-11.564,11.677-21.021,12.45-21.387
			c3.692-1.945,6.477,3.047,5.891,3.607c-12.779,12.61-13.515,19.669-13.137,21.812c1.237,7.018,23.867-21.419,20.824-40.835
			c-0.421-2.819,7.338,0.153,7.794,2.738C87.979,100.565,68.057,128.371,58.972,129.974z"/>
		<path fill="#FF00A4" d="M108.686,106.129c-0.739,1.425-15.604,21.638-21.143,22.614c-3.693,0.651-6.765-3.377-7.689-8.621
			c-2.253-12.776,11.568-27.246,15.336-27.91c3.323-0.587,5.56,2.599,5.808,4.002c-0.591,0.104-1.304,0.382-1.929,0.721
			c2.063,0.474,3.419,1.682,3.471,1.977c0.912,5.171-4.642,12.547-15.568,14.93c-1.382,3.823-1.84,11.595,0.007,11.27
			c4.506-0.794,16.051-17.375,19.445-22.314C106.896,102.027,109.716,104.195,108.686,106.129z M88.939,109.458
			c6.895-2.357,7.456-6.95,7.117-10.165C93.394,101.896,90.804,105.778,88.939,109.458z"/>
		<path fill="#FF00A4" d="M132.32,101.961c-0.739,1.426-15.604,21.639-21.144,22.615c-3.692,0.65-6.764-3.377-7.688-8.621
			c-2.253-12.777,11.568-27.247,15.335-27.911c3.324-0.586,5.561,2.599,5.808,4.002c-0.59,0.104-1.303,0.382-1.928,0.721
			c2.063,0.475,3.419,1.683,3.471,1.978c0.912,5.17-4.642,12.547-15.568,14.93c-1.382,3.823-1.84,11.595,0.007,11.27
			c4.505-0.795,16.051-17.376,19.444-22.314C130.53,97.86,133.35,100.028,132.32,101.961z M112.574,105.291
			c6.895-2.358,7.456-6.95,7.117-10.165C117.027,97.728,114.438,101.611,112.574,105.291z"/>
		<path fill="#FF00A4" d="M158.521,75.638c0.13,0.738-0.018,2.06-1.052,2.241c-0.296,0.053-3.671,0.343-7.812,0.616
			c-8.257,13.641-19.063,33.976-16.785,46.899c0.079,0.443,0.399,0.539,0.474,0.525c2.438-0.43,18.654-27.657,21.231-31.615
			c0.474-0.769,3.84,0.618,2.798,2.477c-0.691,1.265-18.769,32.629-23.569,33.476c-2.586,0.456-5.908-0.252-6.885-5.792
			c-2.488-14.106,4.631-32.04,12.161-45.477c-3.341,0.057-5.882-0.105-5.986-0.695c-0.286-1.625-0.169-4.844,3.081-5.417
			c0,0,2.764,0.122,6.316,0.409c5.176-8.224,9.848-13.692,11.177-13.927c2.659-0.469,4.669,3.594,4.891,4.85
			c0.065,0.369-2.611,4.192-6.171,9.922C155.823,74.59,158.417,75.047,158.521,75.638z"/>
	</g>
	<g>
		<path fill="#FF00A4" d="M210.749,77.547c2.436,13.811-12.033,27.633-15.356,28.219c-5.022,0.886-6.087-3.42-5.561-9.071
			c-3.846,9.283-6.545,17.299-7.833,31.156c-0.165,2.086-6.355,0.665-7.02-3.103c-1.381-7.829,19.141-53.408,22.39-53.981
			c2.142-0.377,4.109,0.418,4.344,1.748c0.053,0.295-0.99,2.154-2.65,5.265c2.407-2.328,4.954-4.3,6.727-4.613
			C207.266,72.906,210.11,73.928,210.749,77.547z M203.537,78.971c-2.289,0.404-5.987,5.777-8.233,9.448
			c-1.044,3.154-2.899,9.04-1.645,8.819C197.427,96.574,205.384,78.646,203.537,78.971z"/>
		<path fill="#FF00A4" d="M227.137,81.512c0.474-0.77,3.38,1.459,2.263,3.332c-0.873,1.524-12.376,20.078-12.558,20.339
			c-0.122,0.174-0.392,0.374-1.13,0.504c-0.739,0.13-4.579-0.486-5.556-6.026c-2.006-11.374,9.753-30.202,10.713-30.371
			c2.142-0.377,5.365,2.786,5.678,4.558c0.325,1.846-12.901,17.962-11.13,28.007C215.469,102.15,220.71,91.707,227.137,81.512z
			 M233.626,58.282c0.222,1.255-4.124,8.571-5.749,8.857s-4.387-1.13-4.583-2.238c-0.416-2.363,2.908-10.717,4.46-10.991
			C229.304,53.638,233.404,57.027,233.626,58.282z"/>
		<path fill="#FF00A4" d="M245.672,77.785c2.614,7.917,4.516,14.816,6.153,21.076c-0.248,1.187-2.281,3.905-3.103,1.842
			c-1.124-2.924-5.007-11.987-7.782-18.656c-6.826,7.068-9.712,12.298-10.45,12.429c-1.772,0.312-2.867-0.714-3.05-1.747
			c-0.183-1.034,5.097-8.667,11.363-16.32c-0.569-1.5-1.111-2.851-1.59-3.833c-4.976,8.493-8.078,12.923-8.518,13.458
			c-0.573,0.634-3.414-1.226-2.589-2.589c1.191-1.886,5.189-8.149,9.17-14.944l-0.014-0.074c-0.352-1.994,3.328-5.309,5.397-5.673
			c0.959-0.169,0.521,1.66,2.935,9.307c5.146-6.238,10.563-10.925,11.228-11.042c2.216-0.391,5.218,4.106,5.348,4.845
			C260.236,66.231,255.157,67.66,245.672,77.785z"/>
		<path fill="#FF00A4" d="M282.949,75.401c-0.74,1.425-15.605,21.638-21.144,22.614c-3.693,0.651-6.765-3.376-7.689-8.621
			c-2.253-12.776,11.568-27.246,15.336-27.91c3.323-0.586,5.56,2.599,5.808,4.002c-0.591,0.104-1.303,0.382-1.929,0.721
			c2.063,0.474,3.419,1.682,3.472,1.977c0.911,5.17-4.643,12.546-15.569,14.929c-1.382,3.823-1.84,11.596,0.007,11.27
			c4.506-0.794,16.051-17.375,19.445-22.314C281.158,71.3,283.979,73.468,282.949,75.401z M263.202,78.73
			c6.895-2.357,7.457-6.95,7.118-10.165C267.656,71.168,265.066,75.052,263.202,78.73z"/>
		<path fill="#FF00A4" d="M305.255,67.584c0.547-0.782,3.318,1.547,2.263,3.333c-0.704,1.19-20.15,37.746-24.951,38.593
			c-2.586,0.455-5.908-0.254-6.807-5.349c-0.014-0.074-0.014-0.074-0.014-0.074l-0.064-0.369
			c-4.559-25.851,22.166-69.935,25.785-70.572c2.659-0.469,4.669,3.593,4.891,4.849c0.222,1.255-28.357,46.047-24.711,66.727
			c0.064,0.369,0.387,0.465,0.46,0.452C284.544,104.744,302.795,70.912,305.255,67.584z"/>
	</g>
	<g>
		<path fill="#FF00A4" d="M334.081,80.322c9.089,0.148,15.629-15.017,14.873-16.711c-0.391-0.921-8.32,4.208-12.013,4.859
			c-0.592,0.104-4.062-4.462-4.192-5.201c-0.391-2.216,10.729-15.6,22.103-17.605c5.318-0.938,2.706,8.433,1.229,8.693
			c-9.602,1.693-17.253,10.125-16.219,9.943c1.478-0.261,15.715-8.483,17.082-0.729c0.69,3.915-6.171,17.69-18.136,19.799
			c-4.211,0.743-8.146-0.848-8.615-3.506c-0.508-2.881,2.63-6.251,4.846-6.642c0.664-0.117,2.271,2.949,2.362,3.466
			c0.026,0.148-0.035,0.234-0.183,0.261C336.331,77.106,332.403,80.312,334.081,80.322z"/>
		<path fill="#FF00A4" d="M389.585,34.895c0.13,0.739-0.018,2.06-1.052,2.242c-0.296,0.052-3.671,0.342-7.812,0.616
			c-8.257,13.641-19.063,33.976-16.785,46.9c0.078,0.443,0.399,0.538,0.474,0.525c2.438-0.43,18.654-27.658,21.231-31.615
			c0.473-0.769,3.84,0.617,2.798,2.477c-0.691,1.264-18.769,32.629-23.57,33.476c-2.585,0.455-5.907-0.253-6.885-5.792
			c-2.487-14.107,4.632-32.04,12.162-45.477c-3.341,0.056-5.882-0.105-5.986-0.696c-0.286-1.625-0.169-4.844,3.081-5.417
			c0,0,2.764,0.122,6.316,0.409c5.176-8.224,9.848-13.692,11.177-13.927c2.659-0.469,4.669,3.594,4.891,4.85
			c0.065,0.369-2.611,4.192-6.171,9.922C386.887,33.848,389.48,34.304,389.585,34.895z"/>
		<path fill="#FF00A4" d="M416.562,51.842c-0.874,1.524-12.29,21.435-15.835,22.06c-0.738,0.13-4.791-0.831-5.416-4.376
			c-0.183-1.035,1.029-3.228,0.556-2.459c-3.863,6.164-7.374,9.144-9.221,9.469c-4.432,0.782-5.669-2.351-6.033-4.418
			c-1.484-8.42,10.326-28.247,11.139-28.39c2.142-0.378,5.652,1.821,5.965,3.594c0.208,1.181-13.915,20.426-13.016,25.521
			c0.078,0.443,0.317,0.935,1.056,0.805c2.216-0.391,9.485-10.126,13.145-18.311c3.368-7.676,7.991-14.279,8.509-14.37
			c2.142-0.378,4.262,2.142,4.574,3.915c0.378,2.142-12.811,19.774-11.912,24.871c0.144,0.812,13.036-19.357,14.227-21.243
			C414.771,47.741,417.678,49.97,416.562,51.842z"/>
		<path fill="#FF00A4" d="M451.878,12.869c0.222,1.255-26.046,38.862-23.168,55.184c0.026,0.148,0.039,0.221,0.127,0.282
			c1.329-0.234,13.938-21.573,16.26-25.256c0.535-0.856,3.318,1.547,2.263,3.333c-1.869,3.223-14.709,24.983-17.294,25.438
			c-1.034,0.183-6.556,0.395-7.207-3.299c-0.391-2.216-0.412-4.497-0.164-6.977c-2.772,2.85-5.893,5.457-7.96,5.821
			c-1.478,0.26-4.322-0.761-4.961-4.381c-2.436-13.811,12.034-27.633,15.357-28.219c2.881-0.508,4.23,1.539,4.752,4.493
			c5.872-16.799,14.137-30.822,16.427-31.226C448.968,7.594,451.657,11.613,451.878,12.869z M424.198,53.694
			c0.739-2.721,1.761-5.566,2.869-8.35c0.233-1.26,0.239-2.099-0.204-2.02c-3.767,0.664-11.725,18.592-9.878,18.267
			C418.98,61.239,421.987,57.13,424.198,53.694z"/>
		<path fill="#FF00A4" d="M456.249,41.112c0.475-0.769,3.381,1.46,2.264,3.333c-0.873,1.524-12.376,20.078-12.559,20.339
			c-0.122,0.173-0.391,0.373-1.13,0.503c-0.738,0.13-4.578-0.487-5.556-6.026c-2.005-11.374,9.754-30.202,10.714-30.371
			c2.142-0.377,5.364,2.786,5.677,4.558c0.326,1.847-12.9,17.963-11.13,28.007C444.582,61.751,449.822,51.308,456.249,41.112z
			 M462.739,17.883c0.222,1.255-4.124,8.571-5.75,8.857c-1.624,0.287-4.387-1.13-4.582-2.238c-0.417-2.363,2.908-10.717,4.459-10.99
			S462.518,16.628,462.739,17.883z"/>
		<path fill="#FF00A4" d="M484.819,39.882c-2.111,3.57-6.531,9.604-9.706,10.164c-1.256,0.222-1.986-0.03-2.842-0.565
			c-2.498,4.401-4.106,6.511-8.099,8.054c-3.488,1.377-8.706-0.141-9.384-3.982c-2.253-12.777,11.568-27.246,15.336-27.911
			c1.624-0.286,2.949,0.318,3.932,1.135c0.252-0.73,0.568-1.09,0.938-1.156c1.847-0.325,4.344,3.042,4.839,5.849
			c0.586,3.323-6.471,14.697-6.089,16c0.446,1.672,6.344-7.211,8.873-11.008C483.165,35.681,485.863,38.022,484.819,39.882z
			 M468.896,45.888c-0.165-0.504-0.256-1.021-0.334-1.464c-0.469-2.659,1.087-7.655,3.077-12.346
			c-7.043,6.268-15.183,24.457-10.899,23.701C462.661,55.44,466.567,49.954,468.896,45.888z"/>
	</g>
</g>
</svg>
