<?xml version="1.0" encoding="utf-8"?>
<!-- Generator: Adobe Illustrator 16.0.0, SVG Export Plug-In . SVG Version: 6.00 Build 0)  -->
<!DOCTYPE svg PUBLIC "-//W3C//DTD SVG 1.1//EN" "http://www.w3.org/Graphics/SVG/1.1/DTD/svg11.dtd">
<svg version="1.1" id="Layer_1" xmlns="http://www.w3.org/2000/svg" xmlns:xlink="http://www.w3.org/1999/xlink" x="0px" y="0px"
	 width="500px" height="500px" viewBox="0 0 500 500" enable-background="new 0 0 500 500" xml:space="preserve">
<g>
	<g>
		<g>
			<path fill="#1CCEF4" d="M135.605,185.208c0.512-0.73,3.099,1.444,2.112,3.111c-0.656,1.11-18.81,35.235-23.29,36.025
				c-2.413,0.425-5.516-0.236-6.354-4.994c-0.013-0.069-0.013-0.069-0.013-0.069L108,218.938
				c-4.255-24.13,20.692-65.282,24.07-65.877c2.482-0.438,4.359,3.354,4.565,4.526c0.207,1.172-26.472,42.983-23.067,62.288
				c0.061,0.345,0.36,0.434,0.43,0.422C116.273,219.896,133.311,188.315,135.605,185.208z"/>
			<path fill="#1CCEF4" d="M159.112,184.689c-0.689,1.33-14.565,20.198-19.736,21.11c-3.447,0.607-6.314-3.152-7.178-8.047
				c-2.103-11.928,10.8-25.435,14.315-26.055c3.103-0.547,5.19,2.426,5.422,3.736c-0.552,0.097-1.217,0.356-1.801,0.673
				c1.926,0.442,3.191,1.57,3.24,1.846c0.851,4.826-4.333,11.711-14.533,13.937c-1.29,3.569-1.717,10.823,0.008,10.52
				c4.205-0.742,14.982-16.22,18.15-20.83C157.442,180.861,160.074,182.885,159.112,184.689z M140.68,187.797
				c6.437-2.201,6.961-6.488,6.645-9.489C144.838,180.738,142.42,184.363,140.68,187.797z"/>
			<path fill="#1CCEF4" d="M183.912,160.057c0.121,0.689-0.017,1.922-0.981,2.092c-0.276,0.049-3.427,0.32-7.292,0.575
				c-7.708,12.733-17.796,31.715-15.668,43.78c0.073,0.414,0.373,0.503,0.441,0.491c2.275-0.401,17.414-25.818,19.818-29.513
				c0.442-0.718,3.586,0.576,2.612,2.312c-0.646,1.181-17.521,30.458-22.001,31.248c-2.413,0.426-5.516-0.236-6.428-5.407
				c-2.321-13.168,4.323-29.908,11.354-42.45c-3.119,0.052-5.491-0.098-5.588-0.65c-0.268-1.517-0.158-4.521,2.875-5.057
				c0,0,2.58,0.114,5.896,0.382c4.832-7.677,9.191-12.782,10.433-13c2.482-0.438,4.359,3.354,4.566,4.527
				c0.061,0.345-2.438,3.913-5.761,9.261C181.394,159.079,183.814,159.505,183.912,160.057z"/>
			<path fill="#1CCEF4" d="M182.15,193.636c8.484,0.14,14.59-14.017,13.884-15.599c-0.364-0.86-7.767,3.929-11.214,4.537
				c-0.551,0.097-3.791-4.166-3.912-4.855c-0.365-2.068,10.015-14.562,20.632-16.434c4.964-0.875,2.525,7.872,1.146,8.115
				c-8.963,1.581-16.105,9.452-15.14,9.281c1.379-0.243,14.669-7.919,15.945-0.679c0.645,3.654-5.761,16.513-16.93,18.482
				c-3.93,0.693-7.604-0.792-8.041-3.274c-0.475-2.689,2.454-5.836,4.522-6.201c0.62-0.109,2.12,2.754,2.206,3.237
				c0.023,0.138-0.033,0.219-0.171,0.243C184.252,190.635,180.585,193.628,182.15,193.636z"/>
			<path fill="#1CCEF4" d="M285.654,162.234c-1.496,2.396-12.262,21.569-14.398,21.946c-1.242,0.219-3.99-0.86-4.574-4.17
				c-1.872-10.617,4.816-23.881,4.128-23.76c-0.689,0.121-14.221,16.512-13.602,20.028c0.062,0.345-0.198,0.888-1.232,1.07
				s-2.474-1.127-3.094-4.644c-0.571-3.24,3.339-10.896,5.075-15.965c-0.965,0.17-16.658,20.425-16.172,23.183
				c0.061,0.345-0.198,0.888-1.233,1.07c-1.034,0.182-2.474-1.128-3.094-4.644c-1.082-6.136,5.645-22.819,9.092-23.427
				c2.482-0.438,4.34,0.017,4.546,1.188c0.207,1.172-4.426,6.752-4.085,8.683c0.036,0.207,0.271,0.734,0.499,0.41
				c0.17-0.243,13.316-17.206,14.212-17.364c2-0.353,5.265,2.84,5.556,4.495c0.122,0.689-5.103,6.942-4.738,9.01
				c0.037,0.208,0.049,0.276,0.256,0.239c1.034-0.182,14.249-15.948,15.145-16.106c2-0.353,5.195,2.852,5.487,4.506
				c0.56,3.171-13.329,23.179-11.944,31.039c0.329,1.862,10.855-18.264,12.061-19.898
				C284.281,158.069,286.551,160.868,285.654,162.234z"/>
			<path fill="#1CCEF4" d="M299.632,170.575c0.414-0.073,8.449-13.361,10.06-15.92c0.43-0.787,3.155,1.363,2.112,3.11
				c-0.859,1.574-9.727,16.999-12.623,17.51c-0.827,0.146-4.415-3.273-4.671-4.721c-0.049-0.275,0.037-1.001,0.224-1.958
				c-2.754,3.329-7.021,7.352-9.503,7.789c-1.379,0.243-4.035-0.71-4.631-4.088c-2.273-12.894,11.232-25.796,14.336-26.343
				c3.516-0.62,4.574,2.961,4.646,7c0.666-1.468,1.29-2.36,1.773-2.445c1.931-0.34,5.292,2.194,5.438,3.022
				C307.072,155.117,299.353,168.99,299.632,170.575z M295.006,162.078c0.917-2.863,2.649-8.358,1.546-8.164
				c-3.516,0.62-10.943,17.356-9.22,17.052C289.469,170.59,292.909,165.504,295.006,162.078z"/>
			<path fill="#1CCEF4" d="M344.987,148.431c0.512-0.73,3.099,1.444,2.113,3.11c-0.588,1.099-15.95,27.267-20.569,28.081
				c-2.413,0.426-5.552-1.651-6.208-5.374c-0.486-2.757,2.743-13.066,2.245-15.893l-0.231-1.31
				c-4.441,6.257-8.497,11.877-9.739,12.096c-1.033,0.182-2.984-0.398-3.604-3.914c-2.747-15.582,22.288-47.364,25.734-47.972
				c2.482-0.438,4.992,3.314,5.199,4.486c0.206,1.172-23.636,30.043-22.688,35.421c0.036,0.207,0.13,0.333,0.301,0.089
				c0.239-0.255,14.569-22.189,20.224-23.186c1.999-0.353,5.193,2.852,5.485,4.507c1.216,6.894-8.871,17.417-14.18,18.353
				c4.481-0.79-5.011,19.153-2.806,18.764C328.057,175.373,343.094,151.395,344.987,148.431z M328.053,149.143
				c4.692-4.027,9.385-9.262,8.213-9.056C334.818,140.343,331.666,144.24,328.053,149.143z"/>
			<path fill="#1CCEF4" d="M368.95,147.689c-0.689,1.33-14.565,20.198-19.736,21.11c-3.447,0.608-6.313-3.152-7.177-8.046
				c-2.104-11.928,10.799-25.435,14.315-26.055c3.102-0.547,5.189,2.426,5.421,3.736c-0.552,0.097-1.217,0.356-1.801,0.673
				c1.927,0.442,3.191,1.57,3.24,1.846c0.851,4.826-4.333,11.711-14.532,13.936c-1.29,3.569-1.718,10.824,0.007,10.52
				c4.205-0.742,14.982-16.219,18.15-20.83C367.279,143.861,369.912,145.885,368.95,147.689z M350.518,150.797
				c6.437-2.201,6.961-6.488,6.645-9.489C354.676,143.737,352.258,147.363,350.518,150.797z"/>
			<path fill="#1CCEF4" d="M51.1,258.617c0.121,0.689-0.017,1.922-0.982,2.092c-0.275,0.049-3.427,0.32-7.291,0.575
				c-7.708,12.733-17.797,31.716-15.669,43.78c0.073,0.414,0.374,0.502,0.442,0.49c2.275-0.4,17.413-25.818,19.818-29.512
				c0.442-0.718,3.586,0.576,2.611,2.312c-0.645,1.181-17.52,30.458-22,31.248c-2.414,0.425-5.516-0.235-6.428-5.407
				c-2.321-13.168,4.323-29.908,11.354-42.449c-3.119,0.051-5.492-0.099-5.589-0.65c-0.268-1.517-0.157-4.521,2.876-5.057
				c0,0,2.58,0.113,5.896,0.383c4.832-7.678,9.192-12.782,10.433-13.001c2.482-0.438,4.359,3.354,4.565,4.526
				c0.061,0.346-2.438,3.913-5.76,9.262C48.581,257.64,51.002,258.065,51.1,258.617z"/>
			<path fill="#1CCEF4" d="M73.767,243.672c0.22,1.242-20.378,25.134-19.393,30.718c0.182,1.034,17.562-19.731,18.459-19.889
				c1.999-0.353,4.569,2.534,4.861,4.188c0.56,3.172-11.439,20.998-10.601,25.756c0.049,0.275,0.146,0.827,0.316,0.584
				c0.113-0.162,8.242-13.326,8.936-14.229c0.512-0.729,3.087,1.376,2.113,3.11c-0.803,1.492-12.282,19.439-12.453,19.684
				c-0.113,0.162-0.365,0.349-1.054,0.471c-0.689,0.121-4.474-0.775-5.057-4.084c-1.872-10.618,6.815-23.026,6.126-22.904
				c-0.689,0.121-16.369,16.818-15.64,20.955c0.073,0.414-0.199,0.889-1.233,1.07c-1.034,0.184-2.474-1.127-3.082-4.574
				c-2.759-15.65,19.123-44.744,22.502-45.34C71.05,238.749,73.561,242.5,73.767,243.672z"/>
			<path fill="#1CCEF4" d="M100.68,270.135c-0.689,1.33-14.565,20.197-19.736,21.109c-3.446,0.607-6.313-3.152-7.177-8.047
				c-2.104-11.928,10.799-25.434,14.315-26.055c3.103-0.547,5.19,2.426,5.421,3.736c-0.552,0.098-1.217,0.356-1.8,0.673
				c1.926,0.442,3.191,1.569,3.24,1.847c0.851,4.824-4.334,11.711-14.533,13.936c-1.29,3.568-1.717,10.824,0.007,10.52
				c4.206-0.742,14.983-16.219,18.15-20.83C99.01,266.307,101.642,268.33,100.68,270.135z M82.248,273.242
				c6.437-2.201,6.96-6.488,6.645-9.488C86.405,266.184,83.988,269.809,82.248,273.242z"/>
			<path fill="#1CCEF4" d="M154.904,253.963c-7.86,1.385-15.575,14.475-14.165,22.473c0.571,3.24,13.574-8.081,21.387-20.619
				c0.442-0.718,3.212,1.281,2.112,3.111c-0.701,1.262-14.022,20.457-23.398,22.11c-1.379,0.243-5.207-1.712-5.803-5.091
				c-2.273-12.893,12.28-30.742,17.589-31.678C159.244,243.103,156.145,253.744,154.904,253.963z"/>
			<path fill="#1CCEF4" d="M188.378,254.742c-1.972,3.334-6.097,8.965-9.062,9.488c-1.172,0.207-1.854-0.029-2.652-0.527
				c-2.332,4.107-3.833,6.078-7.56,7.518c-3.258,1.285-8.128-0.131-8.76-3.716c-2.103-11.928,10.8-25.435,14.315-26.056
				c1.517-0.267,2.754,0.299,3.67,1.061c0.235-0.682,0.531-1.018,0.876-1.078c1.724-0.305,4.056,2.838,4.517,5.458
				c0.548,3.103-6.04,13.719-5.684,14.936c0.418,1.562,5.922-6.731,8.283-10.274C186.833,250.82,189.352,253.006,188.378,254.742z
				 M173.514,260.349c-0.154-0.471-0.239-0.953-0.312-1.367c-0.438-2.481,1.015-7.146,2.873-11.524
				c-6.575,5.851-14.173,22.83-10.175,22.125C167.693,269.266,171.34,264.145,173.514,260.349z"/>
			<path fill="#1CCEF4" d="M212.782,250.438c-1.972,3.333-6.097,8.966-9.062,9.489c-1.172,0.206-1.854-0.029-2.651-0.527
				c-2.333,4.107-3.834,6.078-7.561,7.517c-3.257,1.286-8.128-0.131-8.76-3.716c-2.103-11.928,10.8-25.434,14.315-26.054
				c1.517-0.268,2.754,0.297,3.67,1.059c0.235-0.681,0.531-1.017,0.876-1.078c1.724-0.304,4.056,2.839,4.517,5.458
				c0.548,3.104-6.04,13.719-5.684,14.936c0.418,1.562,5.923-6.73,8.283-10.274C211.237,246.518,213.755,248.703,212.782,250.438z
				 M197.918,256.045c-0.154-0.471-0.239-0.953-0.312-1.367c-0.438-2.48,1.015-7.145,2.873-11.524
				c-6.575,5.851-14.173,22.831-10.175,22.126C192.098,264.963,195.744,259.841,197.918,256.045z"/>
			<path fill="#1CCEF4" d="M234.279,242.951c0.512-0.73,3.099,1.444,2.113,3.111c-0.657,1.111-18.811,35.235-23.291,36.025
				c-2.413,0.426-5.516-0.236-6.354-4.993c-0.013-0.069-0.013-0.069-0.013-0.069l-0.061-0.346
				c-4.255-24.129,20.692-65.281,24.07-65.876c2.482-0.438,4.358,3.354,4.565,4.526c0.206,1.172-26.472,42.984-23.067,62.288
				c0.061,0.345,0.36,0.435,0.43,0.423C214.947,277.639,231.984,246.059,234.279,242.951z"/>
			<path fill="#1CCEF4" d="M257.786,242.432c-0.689,1.33-14.565,20.199-19.736,21.11c-3.447,0.608-6.314-3.151-7.178-8.046
				c-2.103-11.928,10.8-25.435,14.315-26.055c3.103-0.547,5.19,2.426,5.422,3.736c-0.552,0.097-1.217,0.356-1.801,0.673
				c1.926,0.442,3.191,1.57,3.24,1.846c0.851,4.826-4.333,11.711-14.533,13.937c-1.29,3.569-1.717,10.823,0.008,10.52
				c4.205-0.741,14.982-16.22,18.15-20.829C256.116,238.604,258.748,240.627,257.786,242.432z M239.354,245.541
				c6.437-2.202,6.961-6.488,6.645-9.49C243.512,238.48,241.094,242.105,239.354,245.541z"/>
			<path fill="#1CCEF4" d="M256.63,255.645c8.483,0.14,14.589-14.018,13.884-15.599c-0.365-0.86-7.767,3.929-11.214,4.536
				c-0.552,0.098-3.791-4.166-3.913-4.855c-0.364-2.067,10.015-14.561,20.632-16.433c4.965-0.875,2.525,7.872,1.147,8.115
				c-8.963,1.58-16.105,9.451-15.141,9.281c1.379-0.242,14.67-7.918,15.946-0.679c0.645,3.653-5.761,16.513-16.931,18.481
				c-3.93,0.693-7.604-0.791-8.041-3.273c-0.474-2.689,2.454-5.836,4.523-6.2c0.62-0.109,2.12,2.754,2.205,3.237
				c0.024,0.137-0.032,0.219-0.171,0.242C258.731,252.645,255.064,255.637,256.63,255.645z"/>
			<path fill="#1CCEF4" d="M308.781,213.18c0.121,0.689-0.017,1.922-0.981,2.092c-0.276,0.049-3.427,0.32-7.292,0.575
				c-7.707,12.733-17.795,31.715-15.668,43.78c0.073,0.413,0.373,0.503,0.441,0.491c2.275-0.402,17.414-25.819,19.819-29.513
				c0.441-0.718,3.585,0.576,2.611,2.312c-0.646,1.18-17.52,30.458-22.001,31.248c-2.413,0.426-5.516-0.235-6.427-5.406
				c-2.322-13.169,4.323-29.909,11.353-42.451c-3.118,0.052-5.491-0.098-5.588-0.65c-0.268-1.517-0.158-4.521,2.875-5.056
				c0,0,2.58,0.114,5.896,0.382c4.832-7.676,9.192-12.781,10.434-13c2.481-0.438,4.358,3.354,4.565,4.526
				c0.061,0.345-2.438,3.913-5.76,9.261C306.264,212.203,308.684,212.628,308.781,213.18z"/>
			<path fill="#1CCEF4" d="M362.902,211.742c-2.962,11.824-28.162,64.04-32.298,64.768c-1.448,0.256-7.563-1.367-8.402-6.124
				c-1.787-10.135,13.878-29.745,24.357-36.427c1.777-4.436,2.958-7.417,2.958-7.417c-2.754,3.33-7.021,7.352-9.504,7.79
				c-1.378,0.243-4.034-0.71-4.63-4.088c-2.273-12.893,11.233-25.795,14.335-26.343c3.517-0.62,4.574,2.962,4.646,7.001
				c0.678-1.399,1.29-2.36,1.773-2.445C358.068,208.115,363.113,210.922,362.902,211.742z M343.42,241.551
				c-7.402,8.414-15.641,23.372-14.535,29.646C329.42,274.23,337.521,255.67,343.42,241.551z M349.802,220.094
				c0.905-2.933,2.638-8.427,1.534-8.232c-3.516,0.62-10.944,17.355-9.22,17.051C344.253,228.536,347.705,223.521,349.802,220.094z"
				/>
			<path fill="#1CCEF4" d="M379.143,231.697c0.414-0.073,8.449-13.361,10.06-15.92c0.43-0.787,3.155,1.363,2.112,3.11
				c-0.859,1.573-9.727,16.999-12.622,17.509c-0.827,0.146-4.416-3.273-4.672-4.721c-0.048-0.275,0.037-1.001,0.224-1.958
				c-2.754,3.329-7.021,7.351-9.503,7.788c-1.379,0.243-4.035-0.709-4.631-4.087c-2.273-12.893,11.233-25.795,14.335-26.342
				c3.517-0.62,4.574,2.961,4.647,7c0.665-1.468,1.29-2.36,1.772-2.445c1.931-0.341,5.292,2.194,5.438,3.022
				C386.583,216.239,378.862,230.111,379.143,231.697z M374.517,223.2c0.917-2.862,2.649-8.357,1.546-8.163
				c-3.516,0.62-10.943,17.355-9.22,17.052C368.979,231.711,372.42,226.626,374.517,223.2z"/>
			<path fill="#1CCEF4" d="M436.445,210.788c-1.496,2.396-12.262,21.569-14.398,21.946c-1.242,0.219-3.992-0.861-4.575-4.169
				c-1.872-10.617,4.818-23.882,4.128-23.761c-0.689,0.122-14.221,16.512-13.601,20.028c0.061,0.345-0.198,0.888-1.233,1.07
				c-1.034,0.182-2.474-1.128-3.094-4.644c-0.571-3.241,3.34-10.896,5.076-15.966c-0.966,0.17-16.658,20.425-16.172,23.183
				c0.061,0.345-0.199,0.888-1.233,1.07c-1.033,0.183-2.474-1.127-3.094-4.644c-1.082-6.137,5.645-22.819,9.092-23.427
				c2.482-0.438,4.34,0.017,4.546,1.188c0.207,1.172-4.425,6.752-4.084,8.682c0.036,0.207,0.271,0.734,0.498,0.41
				c0.17-0.243,13.316-17.206,14.212-17.364c2-0.353,5.265,2.84,5.556,4.495c0.122,0.689-5.103,6.941-4.738,9.01
				c0.037,0.208,0.049,0.276,0.256,0.24c1.034-0.182,14.249-15.948,15.146-16.106c1.999-0.353,5.194,2.852,5.485,4.506
				c0.56,3.171-13.329,23.179-11.943,31.039c0.328,1.862,10.855-18.264,12.061-19.898
				C435.071,206.623,437.342,209.421,436.445,210.788z"/>
			<path fill="#1CCEF4" d="M459.286,206.902c-0.69,1.33-14.566,20.198-19.736,21.11c-3.448,0.608-6.314-3.152-7.178-8.046
				c-2.104-11.928,10.799-25.435,14.315-26.055c3.103-0.547,5.19,2.426,5.421,3.736c-0.552,0.097-1.216,0.356-1.801,0.673
				c1.927,0.442,3.192,1.569,3.241,1.846c0.851,4.825-4.333,11.711-14.533,13.936c-1.29,3.569-1.717,10.824,0.006,10.52
				c4.206-0.742,14.984-16.22,18.151-20.83C457.615,203.074,460.247,205.097,459.286,206.902z M440.854,210.01
				c6.437-2.201,6.959-6.488,6.644-9.489C445.011,202.951,442.594,206.576,440.854,210.01z"/>
			<path fill="#1CCEF4" d="M458.128,220.115c8.484,0.14,14.59-14.018,13.884-15.599c-0.364-0.86-7.766,3.929-11.213,4.536
				c-0.551,0.097-3.791-4.166-3.912-4.855c-0.365-2.067,10.014-14.561,20.631-16.433c4.965-0.875,2.525,7.872,1.146,8.115
				c-8.962,1.581-16.105,9.452-15.14,9.281c1.379-0.243,14.669-7.919,15.946-0.679c0.644,3.653-5.761,16.513-16.931,18.482
				c-3.93,0.693-7.604-0.792-8.041-3.274c-0.474-2.689,2.455-5.835,4.522-6.2c0.62-0.109,2.121,2.754,2.206,3.237
				c0.024,0.138-0.033,0.219-0.171,0.243C460.229,217.114,456.563,220.107,458.128,220.115z"/>
		</g>
		<g>
			<path fill="#1CCEF4" d="M192.132,319.889c0.122,0.689-0.017,1.922-0.981,2.093c-0.276,0.049-3.427,0.32-7.292,0.575
				c-7.707,12.732-17.796,31.715-15.668,43.779c0.073,0.414,0.373,0.504,0.441,0.492c2.276-0.402,17.413-25.818,19.819-29.514
				c0.441-0.717,3.585,0.576,2.611,2.312c-0.646,1.18-17.52,30.457-22.001,31.248c-2.413,0.426-5.516-0.236-6.427-5.407
				c-2.322-13.168,4.323-29.908,11.353-42.45c-3.118,0.053-5.491-0.098-5.588-0.65c-0.268-1.516-0.157-4.521,2.876-5.056
				c0,0,2.579,0.113,5.896,0.382c4.831-7.676,9.191-12.781,10.433-13c2.481-0.438,4.358,3.354,4.565,4.526
				c0.061,0.345-2.438,3.913-5.76,9.261C189.614,318.912,192.034,319.338,192.132,319.889z"/>
			<path fill="#1CCEF4" d="M213.461,336.459c-1.972,3.334-6.097,8.967-9.061,9.489c-1.172,0.206-1.854-0.029-2.652-0.528
				c-2.333,4.108-3.833,6.078-7.561,7.518c-3.257,1.285-8.127-0.131-8.759-3.715c-2.104-11.928,10.799-25.436,14.314-26.055
				c1.518-0.268,2.754,0.297,3.67,1.059c0.235-0.682,0.532-1.018,0.877-1.078c1.724-0.304,4.055,2.839,4.517,5.459
				c0.547,3.102-6.041,13.719-5.684,14.936c0.417,1.562,5.922-6.731,8.282-10.275C211.916,332.537,214.435,334.724,213.461,336.459z
				 M198.598,342.066c-0.154-0.471-0.239-0.953-0.312-1.367c-0.438-2.482,1.015-7.146,2.873-11.525
				c-6.575,5.852-14.173,22.83-10.174,22.125C192.776,350.982,196.423,345.861,198.598,342.066z"/>
			<path fill="#1CCEF4" d="M239.842,319.581c-2.963,11.825-28.162,64.038-32.299,64.769c-1.447,0.255-7.563-1.368-8.402-6.125
				c-1.787-10.135,13.878-29.745,24.358-36.427c1.777-4.437,2.958-7.417,2.958-7.417c-2.755,3.329-7.021,7.352-9.503,7.789
				c-1.38,0.243-4.035-0.71-4.631-4.088c-2.273-12.893,11.232-25.795,14.335-26.343c3.516-0.62,4.574,2.962,4.646,7.001
				c0.678-1.399,1.29-2.36,1.772-2.445C235.008,315.954,240.053,318.762,239.842,319.581z M220.359,349.39
				c-7.402,8.413-15.642,23.373-14.535,29.647C206.359,382.07,214.46,363.51,220.359,349.39z M226.741,327.934
				c0.905-2.933,2.638-8.428,1.534-8.232c-3.516,0.62-10.944,17.355-9.221,17.051C221.192,336.375,224.645,331.359,226.741,327.934z
				"/>
			<path fill="#1CCEF4" d="M264.255,327.432c-0.69,1.33-14.565,20.198-19.736,21.109c-3.447,0.608-6.314-3.151-7.178-8.046
				c-2.103-11.928,10.8-25.435,14.315-26.055c3.103-0.547,5.19,2.426,5.422,3.735c-0.552,0.098-1.217,0.357-1.801,0.674
				c1.927,0.441,3.191,1.57,3.24,1.846c0.851,4.825-4.334,11.711-14.532,13.936c-1.291,3.569-1.718,10.824,0.007,10.52
				c4.205-0.741,14.982-16.219,18.15-20.829C262.585,323.604,265.217,325.627,264.255,327.432z M245.822,330.54
				c6.437-2.202,6.96-6.488,6.645-9.489C249.98,323.48,247.562,327.105,245.822,330.54z"/>
			<path fill="#1CCEF4" d="M289.055,302.799c0.121,0.689-0.017,1.922-0.981,2.092c-0.276,0.049-3.428,0.32-7.292,0.575
				c-7.708,12.733-17.796,31.716-15.668,43.78c0.072,0.414,0.373,0.504,0.441,0.491c2.275-0.401,17.414-25.818,19.818-29.513
				c0.442-0.718,3.586,0.576,2.612,2.312c-0.645,1.181-17.521,30.458-22.001,31.249c-2.413,0.425-5.516-0.236-6.428-5.407
				c-2.321-13.169,4.323-29.908,11.354-42.45c-3.119,0.052-5.491-0.099-5.589-0.65c-0.268-1.517-0.157-4.521,2.876-5.057
				c0,0,2.58,0.113,5.896,0.383c4.832-7.677,9.192-12.782,10.433-13.001c2.482-0.438,4.359,3.354,4.565,4.526
				c0.061,0.346-2.438,3.913-5.76,9.262C286.536,301.822,288.957,302.248,289.055,302.799z"/>
			<path fill="#1CCEF4" d="M311.722,287.854c0.22,1.241-20.378,25.133-19.393,30.717c0.182,1.034,17.562-19.73,18.459-19.889
				c1.999-0.353,4.57,2.534,4.862,4.189c0.559,3.171-11.439,20.997-10.601,25.755c0.049,0.275,0.146,0.827,0.315,0.584
				c0.114-0.162,8.243-13.324,8.937-14.229c0.511-0.729,3.086,1.376,2.112,3.11c-0.803,1.492-12.282,19.44-12.453,19.684
				c-0.113,0.162-0.364,0.35-1.054,0.471s-4.474-0.775-5.057-4.084c-1.872-10.618,6.815-23.026,6.127-22.904
				c-0.689,0.121-16.37,16.819-15.641,20.956c0.073,0.413-0.199,0.888-1.233,1.07s-2.474-1.128-3.082-4.575
				c-2.759-15.65,19.124-44.744,22.502-45.34C309.006,282.932,311.516,286.683,311.722,287.854z"/>
			<path fill="#1CCEF4" d="M338.635,314.316c-0.689,1.33-14.565,20.198-19.736,21.109c-3.446,0.608-6.313-3.152-7.177-8.047
				c-2.103-11.928,10.799-25.434,14.315-26.054c3.103-0.548,5.19,2.426,5.421,3.735c-0.551,0.098-1.216,0.357-1.8,0.674
				c1.926,0.441,3.191,1.57,3.24,1.846c0.851,4.825-4.334,11.711-14.533,13.936c-1.29,3.569-1.717,10.824,0.007,10.52
				c4.206-0.741,14.983-16.219,18.15-20.83C336.965,310.488,339.597,312.512,338.635,314.316z M320.203,317.424
				c6.437-2.201,6.96-6.487,6.645-9.488C324.36,310.365,321.943,313.99,320.203,317.424z"/>
			<path fill="#1CCEF4" d="M363.52,309.928c-1.079,1.542-11.127,19.947-13.608,20.385c-2.965,0.523-6.477-3.265-6.744-4.781
				c-0.571-3.24,8.966-24.543,8.602-26.611c-1.249,0.576-3.528,1.76-5.593,2.551c-2.032,4.197-5.46,10.56-6.855,12.725
				c-1.338,2.085-3.167-1.432-2.112-3.11c1.895-2.964,3.27-6.05,4.15-7.911c-0.54,0.166-1.022,0.251-1.437,0.324
				c-1.31,0.23-4.756-3.996-2.826-4.336c3.033-0.535,15.416-9.329,16.312-9.487c2-0.353,6.521,4.323,6.958,6.806
				s-11.861,25.053-11.12,29.258c0.483-0.085,10.368-16.188,12.092-18.908C361.837,306.031,364.574,308.25,363.52,309.928z"/>
		</g>
	</g>
	<g>
		<g>
			<path fill="#F2FF1E" d="M134.605,184.479c0.512-0.73,3.099,1.444,2.112,3.111c-0.656,1.11-18.81,35.235-23.29,36.025
				c-2.413,0.425-5.516-0.236-6.354-4.994c-0.013-0.069-0.013-0.069-0.013-0.069L107,218.208
				c-4.255-24.13,20.692-65.282,24.07-65.877c2.482-0.438,4.359,3.354,4.565,4.526c0.207,1.172-26.472,42.983-23.067,62.288
				c0.061,0.345,0.36,0.434,0.43,0.422C115.273,219.166,132.311,187.585,134.605,184.479z"/>
			<path fill="#F2FF1E" d="M158.112,183.959c-0.689,1.33-14.565,20.198-19.736,21.11c-3.447,0.607-6.314-3.152-7.178-8.047
				c-2.103-11.928,10.8-25.435,14.315-26.055c3.103-0.547,5.19,2.426,5.422,3.736c-0.552,0.097-1.217,0.356-1.801,0.673
				c1.926,0.442,3.191,1.57,3.24,1.846c0.851,4.826-4.333,11.711-14.533,13.937c-1.29,3.569-1.717,10.823,0.008,10.52
				c4.205-0.742,14.982-16.22,18.15-20.83C156.442,180.131,159.074,182.155,158.112,183.959z M139.68,187.067
				c6.437-2.201,6.961-6.488,6.645-9.489C143.838,180.008,141.42,183.633,139.68,187.067z"/>
			<path fill="#F2FF1E" d="M182.912,159.327c0.121,0.689-0.017,1.922-0.981,2.092c-0.276,0.049-3.427,0.32-7.292,0.575
				c-7.708,12.733-17.796,31.715-15.668,43.78c0.073,0.414,0.373,0.503,0.441,0.491c2.275-0.401,17.414-25.818,19.818-29.513
				c0.442-0.718,3.586,0.576,2.612,2.312c-0.646,1.181-17.521,30.458-22.001,31.248c-2.413,0.426-5.516-0.236-6.428-5.407
				c-2.321-13.168,4.323-29.908,11.354-42.45c-3.119,0.052-5.491-0.098-5.588-0.65c-0.268-1.517-0.158-4.521,2.875-5.057
				c0,0,2.58,0.114,5.896,0.382c4.832-7.677,9.191-12.782,10.433-13c2.482-0.438,4.359,3.354,4.566,4.527
				c0.061,0.345-2.438,3.913-5.761,9.261C180.394,158.349,182.814,158.775,182.912,159.327z"/>
			<path fill="#F2FF1E" d="M181.15,192.906c8.484,0.14,14.59-14.017,13.884-15.599c-0.364-0.86-7.767,3.929-11.214,4.537
				c-0.551,0.097-3.791-4.166-3.912-4.855c-0.365-2.068,10.015-14.562,20.632-16.434c4.964-0.875,2.525,7.872,1.146,8.115
				c-8.963,1.581-16.105,9.452-15.14,9.281c1.379-0.243,14.669-7.919,15.945-0.679c0.645,3.654-5.761,16.513-16.93,18.482
				c-3.93,0.693-7.604-0.792-8.041-3.274c-0.475-2.689,2.454-5.836,4.522-6.201c0.62-0.109,2.12,2.754,2.206,3.237
				c0.023,0.138-0.033,0.219-0.171,0.243C183.252,189.905,179.585,192.898,181.15,192.906z"/>
			<path fill="#F2FF1E" d="M284.654,161.504c-1.496,2.396-12.262,21.569-14.398,21.946c-1.242,0.219-3.99-0.86-4.574-4.17
				c-1.872-10.617,4.816-23.881,4.128-23.76c-0.689,0.121-14.221,16.512-13.602,20.028c0.062,0.345-0.198,0.888-1.232,1.07
				s-2.474-1.127-3.094-4.644c-0.571-3.24,3.339-10.896,5.075-15.965c-0.965,0.17-16.658,20.425-16.172,23.183
				c0.061,0.345-0.198,0.888-1.233,1.07c-1.034,0.182-2.474-1.128-3.094-4.644c-1.082-6.136,5.645-22.819,9.092-23.427
				c2.482-0.438,4.34,0.017,4.546,1.188c0.207,1.172-4.426,6.752-4.085,8.683c0.036,0.207,0.271,0.734,0.499,0.41
				c0.17-0.243,13.316-17.206,14.212-17.364c2-0.353,5.265,2.84,5.556,4.495c0.122,0.689-5.103,6.942-4.738,9.01
				c0.037,0.208,0.049,0.276,0.256,0.239c1.034-0.182,14.249-15.948,15.145-16.106c2-0.353,5.195,2.852,5.487,4.506
				c0.56,3.171-13.329,23.179-11.944,31.039c0.329,1.862,10.855-18.264,12.061-19.898
				C283.281,157.339,285.551,160.138,284.654,161.504z"/>
			<path fill="#F2FF1E" d="M298.632,169.845c0.414-0.073,8.449-13.361,10.06-15.92c0.43-0.787,3.155,1.363,2.112,3.11
				c-0.859,1.574-9.727,16.999-12.623,17.51c-0.827,0.146-4.415-3.273-4.671-4.721c-0.049-0.275,0.037-1.001,0.224-1.958
				c-2.754,3.329-7.021,7.352-9.503,7.789c-1.379,0.243-4.035-0.71-4.631-4.088c-2.273-12.894,11.232-25.796,14.336-26.343
				c3.516-0.62,4.574,2.961,4.646,7c0.666-1.468,1.29-2.36,1.773-2.445c1.931-0.34,5.292,2.194,5.438,3.022
				C306.072,154.387,298.353,168.26,298.632,169.845z M294.006,161.348c0.917-2.863,2.649-8.358,1.546-8.164
				c-3.516,0.62-10.943,17.356-9.22,17.052C288.469,169.86,291.909,164.774,294.006,161.348z"/>
			<path fill="#F2FF1E" d="M343.987,147.701c0.512-0.73,3.099,1.444,2.113,3.11c-0.588,1.099-15.95,27.267-20.569,28.081
				c-2.413,0.426-5.552-1.651-6.208-5.374c-0.486-2.757,2.743-13.066,2.245-15.893l-0.231-1.31
				c-4.441,6.257-8.497,11.877-9.739,12.096c-1.033,0.182-2.984-0.398-3.604-3.914c-2.747-15.582,22.288-47.364,25.734-47.972
				c2.482-0.438,4.992,3.314,5.199,4.486c0.206,1.172-23.636,30.043-22.688,35.421c0.036,0.207,0.13,0.333,0.301,0.089
				c0.239-0.255,14.569-22.189,20.224-23.186c1.999-0.353,5.193,2.852,5.485,4.507c1.216,6.894-8.871,17.417-14.18,18.353
				c4.481-0.79-5.011,19.153-2.806,18.764C327.057,174.643,342.094,150.665,343.987,147.701z M327.053,148.413
				c4.692-4.027,9.385-9.262,8.213-9.056C333.818,139.613,330.666,143.51,327.053,148.413z"/>
			<path fill="#F2FF1E" d="M367.95,146.959c-0.689,1.33-14.565,20.198-19.736,21.11c-3.447,0.608-6.313-3.152-7.177-8.046
				c-2.104-11.928,10.799-25.435,14.315-26.055c3.102-0.547,5.189,2.426,5.421,3.736c-0.552,0.097-1.217,0.356-1.801,0.673
				c1.927,0.442,3.191,1.57,3.24,1.846c0.851,4.826-4.333,11.711-14.532,13.936c-1.29,3.569-1.718,10.824,0.007,10.52
				c4.205-0.742,14.982-16.219,18.15-20.83C366.279,143.131,368.912,145.155,367.95,146.959z M349.518,150.067
				c6.437-2.201,6.961-6.488,6.645-9.489C353.676,143.007,351.258,146.633,349.518,150.067z"/>
			<path fill="#F2FF1E" d="M50.1,257.887c0.121,0.689-0.017,1.922-0.982,2.093c-0.275,0.049-3.427,0.32-7.291,0.575
				c-7.708,12.732-17.797,31.715-15.669,43.779c0.073,0.414,0.374,0.503,0.442,0.491c2.275-0.401,17.413-25.818,19.818-29.513
				c0.442-0.717,3.586,0.576,2.611,2.312c-0.645,1.18-17.52,30.457-22,31.248c-2.414,0.425-5.516-0.236-6.428-5.407
				c-2.321-13.169,4.323-29.908,11.354-42.45c-3.119,0.052-5.492-0.098-5.589-0.65c-0.268-1.516-0.157-4.521,2.876-5.057
				c0,0,2.58,0.114,5.896,0.383c4.832-7.677,9.192-12.781,10.433-13c2.482-0.438,4.359,3.354,4.565,4.526
				c0.061,0.345-2.438,3.913-5.76,9.261C47.581,256.91,50.002,257.336,50.1,257.887z"/>
			<path fill="#F2FF1E" d="M72.767,242.942c0.22,1.241-20.378,25.134-19.393,30.718c0.182,1.033,17.562-19.731,18.459-19.889
				c1.999-0.354,4.569,2.534,4.861,4.188c0.56,3.172-11.439,20.998-10.601,25.755c0.049,0.276,0.146,0.828,0.316,0.584
				c0.113-0.162,8.242-13.325,8.936-14.229c0.512-0.73,3.087,1.375,2.113,3.11c-0.803,1.491-12.282,19.439-12.453,19.683
				c-0.113,0.163-0.365,0.35-1.054,0.471c-0.689,0.121-4.474-0.775-5.057-4.084c-1.872-10.617,6.815-23.025,6.126-22.904
				s-16.369,16.819-15.64,20.956c0.073,0.414-0.199,0.888-1.233,1.07s-2.474-1.128-3.082-4.575
				c-2.759-15.65,19.123-44.744,22.502-45.34C70.05,238.02,72.561,241.771,72.767,242.942z"/>
			<path fill="#F2FF1E" d="M99.68,269.404c-0.689,1.33-14.565,20.198-19.736,21.109c-3.446,0.608-6.313-3.151-7.177-8.046
				c-2.104-11.928,10.799-25.435,14.315-26.055c3.103-0.547,5.19,2.426,5.421,3.735c-0.552,0.098-1.217,0.357-1.8,0.674
				c1.926,0.441,3.191,1.569,3.24,1.846c0.851,4.825-4.334,11.711-14.533,13.936c-1.29,3.569-1.717,10.824,0.007,10.52
				c4.206-0.741,14.983-16.219,18.15-20.829C98.01,265.576,100.642,267.6,99.68,269.404z M81.248,272.513
				c6.437-2.201,6.96-6.488,6.645-9.489C85.405,265.453,82.988,269.078,81.248,272.513z"/>
			<path fill="#F2FF1E" d="M153.904,253.232c-7.86,1.386-15.575,14.476-14.165,22.473c0.571,3.24,13.574-8.08,21.387-20.618
				c0.442-0.718,3.212,1.281,2.112,3.11c-0.701,1.262-14.022,20.457-23.398,22.111c-1.379,0.242-5.207-1.713-5.803-5.091
				c-2.273-12.893,12.28-30.742,17.589-31.679C158.244,242.373,155.145,253.014,153.904,253.232z"/>
			<path fill="#F2FF1E" d="M187.378,254.012c-1.972,3.334-6.097,8.966-9.062,9.488c-1.172,0.207-1.854-0.028-2.652-0.527
				c-2.332,4.108-3.833,6.078-7.56,7.518c-3.258,1.285-8.128-0.131-8.76-3.715c-2.103-11.928,10.8-25.436,14.315-26.056
				c1.517-0.267,2.754,0.298,3.67,1.06c0.235-0.682,0.531-1.018,0.876-1.078c1.724-0.304,4.056,2.839,4.517,5.459
				c0.548,3.102-6.04,13.719-5.684,14.936c0.418,1.562,5.922-6.731,8.283-10.275C185.833,250.09,188.352,252.276,187.378,254.012z
				 M172.514,259.619c-0.154-0.471-0.239-0.953-0.312-1.367c-0.438-2.482,1.015-7.146,2.873-11.525
				c-6.575,5.852-14.173,22.83-10.175,22.125C166.693,268.536,170.34,263.414,172.514,259.619z"/>
			<path fill="#F2FF1E" d="M211.782,249.709c-1.972,3.333-6.097,8.965-9.062,9.488c-1.172,0.207-1.854-0.029-2.651-0.527
				c-2.333,4.107-3.834,6.078-7.561,7.518c-3.257,1.285-8.128-0.131-8.76-3.716c-2.103-11.928,10.8-25.435,14.315-26.055
				c1.517-0.268,2.754,0.297,3.67,1.059c0.235-0.681,0.531-1.017,0.876-1.078c1.724-0.304,4.056,2.839,4.517,5.458
				c0.548,3.103-6.04,13.719-5.684,14.936c0.418,1.562,5.923-6.731,8.283-10.274C210.237,245.787,212.755,247.973,211.782,249.709z
				 M196.918,255.315c-0.154-0.471-0.239-0.953-0.312-1.367c-0.438-2.481,1.015-7.145,2.873-11.524
				c-6.575,5.851-14.173,22.83-10.175,22.125C191.098,264.232,194.744,259.111,196.918,255.315z"/>
			<path fill="#F2FF1E" d="M233.279,242.222c0.512-0.73,3.099,1.444,2.113,3.11c-0.657,1.111-18.811,35.236-23.291,36.025
				c-2.413,0.426-5.516-0.236-6.354-4.992c-0.013-0.07-0.013-0.07-0.013-0.07l-0.061-0.345c-4.255-24.13,20.692-65.281,24.07-65.876
				c2.482-0.438,4.358,3.354,4.565,4.526c0.206,1.172-26.472,42.984-23.067,62.289c0.061,0.344,0.36,0.434,0.43,0.422
				C213.947,276.909,230.984,245.328,233.279,242.222z"/>
			<path fill="#F2FF1E" d="M256.786,241.702c-0.689,1.33-14.565,20.198-19.736,21.11c-3.447,0.607-6.314-3.152-7.178-8.047
				c-2.103-11.928,10.8-25.435,14.315-26.055c3.103-0.547,5.19,2.426,5.422,3.736c-0.552,0.097-1.217,0.356-1.801,0.673
				c1.926,0.442,3.191,1.57,3.24,1.846c0.851,4.826-4.333,11.711-14.533,13.937c-1.29,3.568-1.717,10.823,0.008,10.52
				c4.205-0.742,14.982-16.22,18.15-20.83C255.116,237.874,257.748,239.897,256.786,241.702z M238.354,244.811
				c6.437-2.201,6.961-6.488,6.645-9.489C242.512,237.75,240.094,241.376,238.354,244.811z"/>
			<path fill="#F2FF1E" d="M255.63,254.915c8.483,0.14,14.589-14.018,13.884-15.599c-0.365-0.86-7.767,3.928-11.214,4.536
				c-0.552,0.097-3.791-4.166-3.913-4.855c-0.364-2.068,10.015-14.562,20.632-16.434c4.965-0.875,2.525,7.872,1.147,8.115
				c-8.963,1.58-16.105,9.451-15.141,9.281c1.379-0.243,14.67-7.919,15.946-0.679c0.645,3.653-5.761,16.512-16.931,18.481
				c-3.93,0.693-7.604-0.792-8.041-3.274c-0.474-2.688,2.454-5.835,4.523-6.199c0.62-0.109,2.12,2.754,2.205,3.236
				c0.024,0.138-0.032,0.219-0.171,0.243C257.731,251.914,254.064,254.907,255.63,254.915z"/>
			<path fill="#F2FF1E" d="M307.781,212.45c0.121,0.689-0.017,1.922-0.981,2.092c-0.276,0.049-3.427,0.32-7.292,0.575
				c-7.707,12.733-17.795,31.715-15.668,43.781c0.073,0.413,0.373,0.502,0.441,0.49c2.275-0.401,17.414-25.818,19.819-29.512
				c0.441-0.718,3.585,0.576,2.611,2.312c-0.646,1.18-17.52,30.458-22.001,31.248c-2.413,0.426-5.516-0.234-6.427-5.406
				c-2.322-13.168,4.323-29.908,11.353-42.451c-3.118,0.052-5.491-0.098-5.588-0.65c-0.268-1.517-0.158-4.521,2.875-5.056
				c0,0,2.58,0.114,5.896,0.382c4.832-7.676,9.192-12.781,10.434-13c2.481-0.438,4.358,3.354,4.565,4.526
				c0.061,0.345-2.438,3.913-5.76,9.261C305.264,211.473,307.684,211.898,307.781,212.45z"/>
			<path fill="#F2FF1E" d="M361.902,211.012c-2.962,11.824-28.162,64.039-32.298,64.768c-1.448,0.256-7.563-1.367-8.402-6.123
				c-1.787-10.135,13.878-29.746,24.357-36.428c1.777-4.436,2.958-7.417,2.958-7.417c-2.754,3.33-7.021,7.352-9.504,7.79
				c-1.378,0.243-4.034-0.71-4.63-4.088c-2.273-12.893,11.233-25.795,14.335-26.343c3.517-0.62,4.574,2.962,4.646,7.001
				c0.678-1.399,1.29-2.36,1.773-2.445C357.068,207.385,362.113,210.192,361.902,211.012z M342.42,240.82
				c-7.402,8.414-15.641,23.373-14.535,29.646C328.42,273.5,336.521,254.939,342.42,240.82z M348.802,219.364
				c0.905-2.933,2.638-8.427,1.534-8.232c-3.516,0.62-10.944,17.355-9.22,17.051C343.253,227.806,346.705,222.791,348.802,219.364z"
				/>
			<path fill="#F2FF1E" d="M378.143,230.967c0.414-0.073,8.449-13.361,10.06-15.92c0.43-0.787,3.155,1.363,2.112,3.11
				c-0.859,1.573-9.727,16.999-12.622,17.509c-0.827,0.146-4.416-3.273-4.672-4.721c-0.048-0.275,0.037-1.001,0.224-1.958
				c-2.754,3.329-7.021,7.351-9.503,7.788c-1.379,0.243-4.035-0.709-4.631-4.087c-2.273-12.893,11.233-25.795,14.335-26.342
				c3.517-0.62,4.574,2.961,4.647,7c0.665-1.468,1.29-2.36,1.772-2.445c1.931-0.341,5.292,2.194,5.438,3.022
				C385.583,215.509,377.862,229.381,378.143,230.967z M373.517,222.47c0.917-2.862,2.649-8.357,1.546-8.163
				c-3.516,0.62-10.943,17.355-9.22,17.052C367.979,230.981,371.42,225.896,373.517,222.47z"/>
			<path fill="#F2FF1E" d="M435.445,210.058c-1.496,2.396-12.262,21.569-14.398,21.946c-1.242,0.219-3.992-0.861-4.575-4.169
				c-1.872-10.617,4.818-23.882,4.128-23.761c-0.689,0.122-14.221,16.512-13.601,20.028c0.061,0.345-0.198,0.888-1.233,1.07
				c-1.034,0.182-2.474-1.128-3.094-4.644c-0.571-3.241,3.34-10.896,5.076-15.966c-0.966,0.17-16.658,20.425-16.172,23.183
				c0.061,0.345-0.199,0.888-1.233,1.07c-1.033,0.183-2.474-1.127-3.094-4.644c-1.082-6.137,5.645-22.819,9.092-23.427
				c2.482-0.438,4.34,0.017,4.546,1.188c0.207,1.172-4.425,6.752-4.084,8.682c0.036,0.207,0.271,0.734,0.498,0.41
				c0.17-0.243,13.316-17.206,14.212-17.364c2-0.353,5.265,2.84,5.556,4.495c0.122,0.689-5.103,6.941-4.738,9.01
				c0.037,0.208,0.049,0.276,0.256,0.24c1.034-0.182,14.249-15.948,15.146-16.106c1.999-0.353,5.194,2.852,5.485,4.506
				c0.56,3.171-13.329,23.179-11.943,31.039c0.328,1.862,10.855-18.264,12.061-19.898
				C434.071,205.893,436.342,208.691,435.445,210.058z"/>
			<path fill="#F2FF1E" d="M458.286,206.172c-0.69,1.33-14.566,20.198-19.736,21.11c-3.448,0.608-6.314-3.152-7.178-8.046
				c-2.104-11.928,10.799-25.435,14.315-26.055c3.103-0.547,5.19,2.426,5.421,3.736c-0.552,0.097-1.216,0.356-1.801,0.673
				c1.927,0.442,3.192,1.569,3.241,1.846c0.851,4.825-4.333,11.711-14.533,13.936c-1.29,3.569-1.717,10.824,0.006,10.52
				c4.206-0.742,14.984-16.22,18.151-20.83C456.615,202.344,459.247,204.367,458.286,206.172z M439.854,209.28
				c6.437-2.201,6.959-6.488,6.644-9.489C444.011,202.221,441.594,205.846,439.854,209.28z"/>
			<path fill="#F2FF1E" d="M457.128,219.385c8.484,0.14,14.59-14.018,13.884-15.599c-0.364-0.86-7.766,3.929-11.213,4.536
				c-0.551,0.097-3.791-4.166-3.912-4.855c-0.365-2.067,10.014-14.561,20.631-16.433c4.965-0.875,2.525,7.872,1.146,8.115
				c-8.962,1.581-16.105,9.452-15.14,9.281c1.379-0.243,14.669-7.919,15.946-0.679c0.644,3.653-5.761,16.513-16.931,18.482
				c-3.93,0.693-7.604-0.792-8.041-3.274c-0.474-2.689,2.455-5.835,4.522-6.2c0.62-0.109,2.121,2.754,2.206,3.237
				c0.024,0.138-0.033,0.219-0.171,0.243C459.229,216.384,455.563,219.377,457.128,219.385z"/>
		</g>
		<g>
			<path fill="#F2FF1E" d="M191.132,319.159c0.122,0.689-0.017,1.922-0.981,2.093c-0.276,0.049-3.427,0.32-7.292,0.574
				c-7.707,12.733-17.796,31.715-15.668,43.78c0.073,0.413,0.373,0.503,0.441,0.491c2.276-0.401,17.413-25.818,19.819-29.513
				c0.441-0.718,3.585,0.576,2.611,2.312c-0.646,1.181-17.52,30.458-22.001,31.248c-2.413,0.426-5.516-0.236-6.427-5.406
				c-2.322-13.168,4.323-29.908,11.353-42.451c-3.118,0.053-5.491-0.098-5.588-0.649c-0.268-1.517-0.157-4.521,2.876-5.056
				c0,0,2.579,0.113,5.896,0.381c4.831-7.676,9.191-12.781,10.433-13c2.481-0.438,4.358,3.354,4.565,4.527
				c0.061,0.344-2.438,3.912-5.76,9.261C188.614,318.182,191.034,318.607,191.132,319.159z"/>
			<path fill="#F2FF1E" d="M212.461,335.729c-1.972,3.334-6.097,8.967-9.061,9.49c-1.172,0.206-1.854-0.029-2.652-0.528
				c-2.333,4.108-3.833,6.077-7.561,7.518c-3.257,1.285-8.127-0.132-8.759-3.716c-2.104-11.928,10.799-25.435,14.314-26.055
				c1.518-0.268,2.754,0.297,3.67,1.059c0.235-0.681,0.532-1.018,0.877-1.078c1.724-0.303,4.055,2.84,4.517,5.459
				c0.547,3.103-6.041,13.719-5.684,14.936c0.417,1.562,5.922-6.73,8.282-10.275C210.916,331.808,213.435,333.994,212.461,335.729z
				 M197.598,341.336c-0.154-0.471-0.239-0.953-0.312-1.367c-0.438-2.481,1.015-7.145,2.873-11.525
				c-6.575,5.852-14.173,22.83-10.174,22.126C191.776,350.253,195.423,345.131,197.598,341.336z"/>
			<path fill="#F2FF1E" d="M238.842,318.852c-2.963,11.824-28.162,64.038-32.299,64.768c-1.447,0.256-7.563-1.367-8.402-6.125
				c-1.787-10.135,13.878-29.744,24.358-36.426c1.777-4.437,2.958-7.418,2.958-7.418c-2.755,3.33-7.021,7.352-9.503,7.789
				c-1.38,0.244-4.035-0.709-4.631-4.088c-2.273-12.893,11.232-25.795,14.335-26.342c3.516-0.621,4.574,2.961,4.646,7
				c0.678-1.398,1.29-2.359,1.772-2.445C234.008,315.225,239.053,318.031,238.842,318.852z M219.359,348.66
				c-7.402,8.413-15.642,23.373-14.535,29.646C205.359,381.34,213.46,362.779,219.359,348.66z M225.741,327.203
				c0.905-2.932,2.638-8.427,1.534-8.232c-3.516,0.621-10.944,17.355-9.221,17.052C220.192,335.646,223.645,330.629,225.741,327.203
				z"/>
			<path fill="#F2FF1E" d="M263.255,326.701c-0.69,1.33-14.565,20.199-19.736,21.11c-3.447,0.608-6.314-3.151-7.178-8.046
				c-2.103-11.928,10.8-25.436,14.315-26.055c3.103-0.547,5.19,2.426,5.422,3.735c-0.552,0.097-1.217,0.356-1.801,0.673
				c1.927,0.442,3.191,1.57,3.24,1.846c0.851,4.826-4.334,11.711-14.532,13.937c-1.291,3.569-1.718,10.823,0.007,10.52
				c4.205-0.741,14.982-16.22,18.15-20.829C261.585,322.873,264.217,324.897,263.255,326.701z M244.822,329.811
				c6.437-2.202,6.96-6.488,6.645-9.49C248.98,322.75,246.562,326.375,244.822,329.811z"/>
			<path fill="#F2FF1E" d="M288.055,302.068c0.121,0.689-0.017,1.923-0.981,2.093c-0.276,0.049-3.428,0.32-7.292,0.575
				c-7.708,12.732-17.796,31.715-15.668,43.78c0.072,0.413,0.373,0.503,0.441,0.491c2.275-0.402,17.414-25.818,19.818-29.514
				c0.442-0.717,3.586,0.576,2.612,2.312c-0.645,1.18-17.521,30.457-22.001,31.248c-2.413,0.426-5.516-0.236-6.428-5.406
				c-2.321-13.169,4.323-29.908,11.354-42.451c-3.119,0.053-5.491-0.098-5.589-0.65c-0.268-1.516-0.157-4.521,2.876-5.056
				c0,0,2.58,0.113,5.896,0.382c4.832-7.676,9.192-12.781,10.433-13c2.482-0.438,4.359,3.354,4.565,4.526
				c0.061,0.345-2.438,3.913-5.76,9.261C285.536,301.092,287.957,301.518,288.055,302.068z"/>
			<path fill="#F2FF1E" d="M310.722,287.125c0.22,1.24-20.378,25.133-19.393,30.717c0.182,1.034,17.562-19.73,18.459-19.889
				c1.999-0.354,4.57,2.534,4.862,4.189c0.559,3.171-11.439,20.997-10.601,25.754c0.049,0.276,0.146,0.828,0.315,0.584
				c0.114-0.162,8.243-13.324,8.937-14.229c0.511-0.73,3.086,1.375,2.112,3.11c-0.803,1.492-12.282,19.44-12.453,19.683
				c-0.113,0.163-0.364,0.35-1.054,0.471s-4.474-0.775-5.057-4.084c-1.872-10.617,6.815-23.025,6.127-22.904
				c-0.689,0.121-16.37,16.82-15.641,20.957c0.073,0.413-0.199,0.887-1.233,1.07c-1.034,0.182-2.474-1.128-3.082-4.575
				c-2.759-15.65,19.124-44.745,22.502-45.341C308.006,282.201,310.516,285.953,310.722,287.125z"/>
			<path fill="#F2FF1E" d="M337.635,313.586c-0.689,1.33-14.565,20.199-19.736,21.11c-3.446,0.608-6.313-3.152-7.177-8.047
				c-2.103-11.928,10.799-25.435,14.315-26.054c3.103-0.548,5.19,2.426,5.421,3.734c-0.551,0.098-1.216,0.357-1.8,0.674
				c1.926,0.441,3.191,1.57,3.24,1.846c0.851,4.826-4.334,11.711-14.533,13.936c-1.29,3.57-1.717,10.824,0.007,10.521
				c4.206-0.741,14.983-16.22,18.15-20.83C335.965,309.758,338.597,311.781,337.635,313.586z M319.203,316.694
				c6.437-2.201,6.96-6.487,6.645-9.489C323.36,309.635,320.943,313.26,319.203,316.694z"/>
			<path fill="#F2FF1E" d="M362.52,309.198c-1.079,1.542-11.127,19.947-13.608,20.385c-2.965,0.522-6.477-3.265-6.744-4.782
				c-0.571-3.24,8.966-24.542,8.602-26.61c-1.249,0.575-3.528,1.759-5.593,2.55c-2.032,4.197-5.46,10.561-6.855,12.725
				c-1.338,2.086-3.167-1.432-2.112-3.109c1.895-2.965,3.27-6.051,4.15-7.912c-0.54,0.166-1.022,0.252-1.437,0.324
				c-1.31,0.23-4.756-3.996-2.826-4.336c3.033-0.535,15.416-9.328,16.312-9.486c2-0.354,6.521,4.322,6.958,6.805
				s-11.861,25.053-11.12,29.259c0.483-0.085,10.368-16.188,12.092-18.909C360.837,305.301,363.574,307.52,362.52,309.198z"/>
		</g>
	</g>
</g>
</svg>
