<?xml version="1.0" encoding="utf-8"?>
<!-- Generator: Adobe Illustrator 16.0.0, SVG Export Plug-In . SVG Version: 6.00 Build 0)  -->
<!DOCTYPE svg PUBLIC "-//W3C//DTD SVG 1.1//EN" "http://www.w3.org/Graphics/SVG/1.1/DTD/svg11.dtd">
<svg version="1.1" id="Layer_1" xmlns="http://www.w3.org/2000/svg" xmlns:xlink="http://www.w3.org/1999/xlink" x="0px" y="0px"
	 width="100px" height="100px" viewBox="0 0 100 100" enable-background="new 0 0 100 100" xml:space="preserve">
<g>
	<path fill="#F9F9F9" d="M70.412,57.02l1.867-14.484H57.938v-9.247c0-4.194,1.169-7.052,7.181-7.052l7.663-0.004V13.278
		c-1.322-0.176-5.871-0.571-11.174-0.571c-11.059,0-18.624,6.751-18.624,19.148v10.68H30.475V57.02h12.509v36.186h14.954V57.02
		H70.412z"/>
	<path fill="#F51484" d="M67.931,54.033l1.867-14.483H55.457v-9.247c0-4.194,1.168-7.052,7.181-7.052l7.663-0.005V10.293
		c-1.322-0.177-5.871-0.572-11.175-0.572c-11.058,0-18.624,6.752-18.624,19.148V39.55H27.994v14.483h12.508v37.162h14.955V54.033
		H67.931z"/>
	<path fill="#6E1F75" d="M65.549,52.054l1.866-14.483H53.074v-9.247c0-4.194,1.169-7.052,7.181-7.052l7.663-0.005V8.313
		c-1.322-0.177-5.871-0.572-11.174-0.572c-11.059,0-18.625,6.752-18.625,19.148V37.57H25.611v14.483h12.508v37.163h14.955V52.054
		H65.549z"/>
</g>
</svg>
