<?xml version="1.0" encoding="utf-8"?>
<!-- Generator: Adobe Illustrator 16.0.0, SVG Export Plug-In . SVG Version: 6.00 Build 0)  -->
<!DOCTYPE svg PUBLIC "-//W3C//DTD SVG 1.1//EN" "http://www.w3.org/Graphics/SVG/1.1/DTD/svg11.dtd">
<svg version="1.1" id="Layer_1" xmlns="http://www.w3.org/2000/svg" xmlns:xlink="http://www.w3.org/1999/xlink" x="0px" y="0px"
	 width="1600px" height="150px" viewBox="0 0 1600 150" enable-background="new 0 0 1600 150" xml:space="preserve">
<g>
	<rect x="834" y="19" fill="#F9F9F9" width="748" height="120"/>
	<rect x="826" y="15" fill="#F51484" width="750" height="120"/>
	<rect x="820" y="11" fill="#6E1F75" width="750" height="120"/>
	<g>
		<g>
			<path fill="#F51484" d="M910.415,61.606l-3.858,7.5c-2.01-1.64-4.147-2.46-6.414-2.46c-1.029,0-1.97,0.281-2.822,0.844
				c-0.883,0.531-1.325,1.287-1.325,2.268c0,0.948,0.396,1.672,1.182,2.17c0.739,0.482,1.776,0.94,3.111,1.375l2.459,0.747
				c2.813,0.82,5.073,2.019,6.776,3.593c1.606,1.592,2.412,3.787,2.412,6.584c0,4.502-1.287,7.847-3.858,10.031
				c-2.765,2.331-6.286,3.497-10.562,3.497c-4.664,0-9.027-1.414-13.095-4.244l4.147-7.813c2.91,2.571,5.779,3.858,8.608,3.858
				c1.222,0,2.308-0.33,3.255-0.988c0.949-0.66,1.422-1.584,1.422-2.773c0-1.206-0.521-2.074-1.566-2.604
				c-0.98-0.498-2.412-1.045-4.292-1.641c-2.22-0.595-4.084-1.27-5.595-2.025c-1.433-0.724-2.537-1.744-3.316-3.063
				c-0.779-1.317-1.169-3.126-1.169-5.426c0-2.475,0.539-4.662,1.616-6.559c1.142-1.93,2.677-3.4,4.605-4.413
				c1.881-1.013,4.084-1.52,6.607-1.52c1.865,0,3.874,0.281,6.029,0.844C906.861,59.918,908.742,60.657,910.415,61.606z"/>
			<path fill="#F51484" d="M926.21,73.905h13.987V59.532h9.67v37.233h-9.67V81.502H926.21v15.266h-9.67V59.532h9.67V73.905z"/>
			<path fill="#F51484" d="M979.021,90.305h-13.334l-2.557,6.463h-10.273l14.324-37.234h10.563l14.035,37.234h-10.321
				L979.021,90.305z M976.418,82.9l-3.955-11.865h-0.097L968.363,82.9H976.418z"/>
			<path fill="#F51484" d="M1014.037,81.502l11.695,15.266h-12.058l-9.116-14.326h-0.119v14.326h-9.67V59.532h14.469
				c2.572,0,4.813,0.41,6.728,1.23c1.978,0.868,3.488,2.138,4.534,3.81c1.125,1.704,1.688,3.843,1.688,6.415
				c0,1.736-0.313,3.352-0.939,4.847c-0.675,1.512-1.6,2.741-2.773,3.689C1017.27,80.504,1015.789,81.164,1014.037,81.502z
				 M1004.439,66.936v9.285h0.939c1.335,0,2.46-0.111,3.376-0.338c0.997-0.289,1.8-0.756,2.412-1.398
				c0.627-0.643,0.94-1.607,0.94-2.895c0-1.302-0.313-2.275-0.94-2.918c-0.61-0.643-1.415-1.109-2.412-1.398
				c-0.884-0.226-2.01-0.338-3.376-0.338H1004.439z"/>
			<path fill="#F51484" d="M1049.559,67.731h-11.526v6.222h10.924v8.199h-10.924v6.414h11.526v8.199h-21.197V59.532h21.197V67.731z"
				/>
			<path fill="#F51484" d="M1082.064,78.896l-13.721-19.364h11.6l6.969,10.129l6.969-10.129h11.6l-13.721,19.364v17.869h-9.693
				V78.896H1082.064z"/>
			<path fill="#F51484" d="M1126.413,58.303c2.717,0,5.305,0.458,7.765,1.375c2.508,0.964,4.711,2.299,6.607,4.003
				c1.865,1.672,3.384,3.714,4.558,6.125c1.109,2.267,1.664,4.814,1.664,7.645c0,2.975-0.491,5.707-1.471,8.199
				c-1.028,2.539-2.476,4.733-4.341,6.582c-0.997,0.998-2.025,1.843-3.086,2.533c-1.062,0.689-2.211,1.277-3.449,1.76
				c-2.492,0.98-5.241,1.472-8.247,1.472c-2.958,0-5.69-0.49-8.199-1.472c-2.54-0.996-4.728-2.428-6.56-4.293
				c-0.916-0.899-1.723-1.877-2.422-2.93c-0.7-1.053-1.34-2.271-1.918-3.652c-0.996-2.523-1.494-5.258-1.494-8.199
				c0-1.335,0.141-2.645,0.422-3.931c0.279-1.287,0.703-2.523,1.266-3.714c1.19-2.444,2.701-4.485,4.534-6.125
				c1.914-1.721,4.14-3.055,6.681-4.003C1121.116,58.761,1123.68,58.303,1126.413,58.303z M1126.413,67.684
				c-1.896,0-3.642,0.458-5.233,1.375c-1.672,0.964-2.957,2.17-3.857,3.617c-0.949,1.575-1.424,3.184-1.424,4.822
				c0,2.042,0.475,3.939,1.424,5.691c0.964,1.752,2.234,3.086,3.81,4.002c1.655,0.949,3.416,1.424,5.281,1.424
				c1.896,0,3.657-0.475,5.28-1.424c1.576-0.899,2.847-2.233,3.811-4.002c0.949-1.705,1.423-3.603,1.423-5.691
				c0-1.688-0.474-3.295-1.423-4.822c-0.917-1.463-2.203-2.669-3.857-3.617C1130.07,68.142,1128.327,67.684,1126.413,67.684z"/>
			<path fill="#F51484" d="M1174.137,59.532h9.67v20.933c0,0.965-0.016,1.816-0.048,2.557c-0.032,0.738-0.097,1.582-0.192,2.531
				c-0.16,1.512-0.522,2.942-1.086,4.293c-0.498,1.303-1.351,2.557-2.556,3.762c-1.028,0.98-2.218,1.785-3.569,2.412
				c-1.351,0.61-2.765,1.045-4.244,1.303c-1.51,0.289-3.022,0.434-4.533,0.434c-2.331,0-4.621-0.329-6.873-0.988
				c-1.109-0.338-2.105-0.764-2.99-1.277c-0.884-0.514-1.712-1.143-2.484-1.881c-1.205-1.207-2.064-2.461-2.58-3.762
				c-0.578-1.367-0.939-2.783-1.084-4.246c-0.16-1.64-0.241-3.352-0.241-5.136V59.532h9.67v19.606c0,1.991,0.136,3.721,0.41,5.185
				c0.225,1.317,0.827,2.483,1.809,3.495c0.964,0.966,2.421,1.447,4.364,1.447c1.93,0,3.376-0.481,4.341-1.447
				c0.966-0.963,1.576-2.129,1.833-3.495c0.258-1.511,0.387-3.24,0.387-5.185V59.532H1174.137z"/>
			<path fill="#F51484" d="M1209.2,81.502l11.694,15.266h-12.058l-9.115-14.326h-0.121v14.326h-9.669V59.532h14.469
				c2.57,0,4.813,0.41,6.728,1.23c1.978,0.868,3.488,2.138,4.534,3.81c1.124,1.704,1.688,3.843,1.688,6.415
				c0,1.736-0.313,3.352-0.939,4.847c-0.675,1.512-1.601,2.741-2.773,3.689C1212.432,80.504,1210.952,81.164,1209.2,81.502z
				 M1199.602,66.936v9.285h0.941c1.334,0,2.459-0.111,3.376-0.338c0.997-0.289,1.8-0.756,2.411-1.398
				c0.627-0.643,0.939-1.607,0.939-2.895c0-1.302-0.313-2.275-0.939-2.918c-0.611-0.643-1.414-1.109-2.411-1.398
				c-0.884-0.226-2.01-0.338-3.376-0.338H1199.602z"/>
			<path fill="#F51484" d="M1246.627,59.532l6.463,24.043h0.096l7.813-24.043h7.717l7.308,24.043h0.097l7.018-24.043h10.057
				l-11.89,37.233h-9.887l-6.511-21.583h-0.099l-7.307,21.583h-9.838l-11.117-37.233H1246.627L1246.627,59.532z"/>
			<path fill="#F51484" d="M1314.342,58.303c2.717,0,5.305,0.458,7.766,1.375c2.508,0.964,4.711,2.299,6.606,4.003
				c1.865,1.672,3.385,3.714,4.558,6.125c1.109,2.267,1.664,4.814,1.664,7.645c0,2.975-0.489,5.707-1.471,8.199
				c-1.029,2.539-2.476,4.733-4.341,6.582c-0.997,0.998-2.025,1.843-3.087,2.533c-1.062,0.689-2.21,1.277-3.448,1.76
				c-2.492,0.98-5.241,1.472-8.247,1.472c-2.958,0-5.69-0.49-8.199-1.472c-2.541-0.996-4.727-2.428-6.56-4.293
				c-0.916-0.899-1.724-1.877-2.423-2.93c-0.7-1.053-1.339-2.271-1.918-3.652c-0.997-2.523-1.495-5.258-1.495-8.199
				c0-1.335,0.142-2.645,0.423-3.931c0.28-1.287,0.702-2.523,1.266-3.714c1.189-2.444,2.701-4.485,4.533-6.125
				c1.914-1.721,4.141-3.055,6.68-4.003C1309.045,58.761,1311.607,58.303,1314.342,58.303z M1314.342,67.684
				c-1.896,0-3.642,0.458-5.232,1.375c-1.674,0.964-2.958,2.17-3.858,3.617c-0.949,1.575-1.423,3.184-1.423,4.822
				c0,2.042,0.474,3.939,1.423,5.691c0.965,1.752,2.234,3.086,3.812,4.002c1.654,0.949,3.415,1.424,5.28,1.424
				c1.896,0,3.656-0.475,5.281-1.424c1.576-0.899,2.846-2.233,3.81-4.002c0.949-1.705,1.424-3.603,1.424-5.691
				c0-1.688-0.475-3.295-1.424-4.822c-0.916-1.463-2.201-2.669-3.857-3.617C1317.998,68.142,1316.255,67.684,1314.342,67.684z"/>
			<path fill="#F51484" d="M1358.713,81.502l11.696,15.266h-12.059l-9.114-14.326h-0.121v14.326h-9.67V59.532h14.469
				c2.572,0,4.814,0.41,6.729,1.23c1.978,0.868,3.488,2.138,4.533,3.81c1.125,1.704,1.688,3.843,1.688,6.415
				c0,1.736-0.313,3.352-0.94,4.847c-0.676,1.512-1.601,2.741-2.772,3.689C1361.944,80.504,1360.465,81.164,1358.713,81.502z
				 M1349.115,66.936v9.285h0.939c1.335,0,2.46-0.111,3.376-0.338c0.998-0.289,1.802-0.756,2.412-1.398
				c0.627-0.643,0.94-1.607,0.94-2.895c0-1.302-0.313-2.275-0.94-2.918c-0.61-0.643-1.414-1.109-2.412-1.398
				c-0.884-0.226-2.01-0.338-3.376-0.338H1349.115z"/>
			<path fill="#F51484" d="M1382.828,74.894l11.695-15.361h12.01l-14.83,17.629l16.156,19.605h-12.539l-12.492-16.158h-0.121v16.158
				h-9.67V59.532h9.67v15.361L1382.828,74.894L1382.828,74.894z"/>
			<path fill="#F51484" d="M1448.59,67.731h-11.526v6.222h10.924v8.199h-10.924v6.414h11.526v8.199h-21.197V59.532h21.197V67.731z"
				/>
			<path fill="#F51484" d="M1465.566,76.871l-11.912-17.339h11.912l5.668,9.622l5.689-9.622h11.889l-11.889,17.339l13.771,19.896
				h-11.648l-7.812-12.154l-8.537,12.154h-11.695L1465.566,76.871z"/>
			<path fill="#F51484" d="M1493.516,96.768V59.532h14.808c2.733,0,5.121,0.426,7.162,1.278c1.992,0.868,3.561,2.234,4.702,4.1
				c1.125,1.817,1.688,4.108,1.688,6.873c0,2.059-0.28,3.945-0.844,5.667c-0.595,1.575-1.455,2.878-2.58,3.905
				c-1.094,0.998-2.477,1.771-4.148,2.315c-1.591,0.498-3.464,0.747-5.618,0.747h-5.498v12.348h-9.672V96.768z M1503.188,67.322
				v9.284h1.64c1.432,0,2.668-0.08,3.714-0.24c0.9-0.145,1.667-0.534,2.303-1.17c0.635-0.636,0.952-1.676,0.952-3.123
				c0-1.495-0.297-2.564-0.892-3.207c-0.611-0.708-1.366-1.134-2.268-1.278c-0.979-0.177-2.252-0.265-3.811-0.265L1503.188,67.322
				L1503.188,67.322z"/>
		</g>
	</g>
	<g>
		<g>
			<path fill="#3AB4FF" d="M908.415,58.606l-3.858,7.5c-2.01-1.64-4.147-2.46-6.414-2.46c-1.029,0-1.97,0.281-2.822,0.844
				c-0.883,0.531-1.325,1.287-1.325,2.268c0,0.948,0.396,1.672,1.182,2.17c0.739,0.482,1.776,0.94,3.111,1.375l2.459,0.747
				c2.813,0.82,5.073,2.018,6.776,3.593c1.606,1.591,2.412,3.787,2.412,6.583c0,4.502-1.287,7.847-3.858,10.031
				c-2.765,2.331-6.286,3.497-10.562,3.497c-4.664,0-9.027-1.414-13.095-4.244l4.147-7.813c2.91,2.571,5.779,3.858,8.608,3.858
				c1.222,0,2.308-0.33,3.255-0.988c0.949-0.66,1.422-1.584,1.422-2.773c0-1.206-0.521-2.074-1.566-2.604
				c-0.98-0.498-2.412-1.045-4.292-1.641c-2.22-0.595-4.084-1.27-5.595-2.025c-1.433-0.724-2.537-1.744-3.316-3.063
				c-0.779-1.317-1.169-3.126-1.169-5.426c0-2.475,0.539-4.662,1.616-6.559c1.142-1.93,2.677-3.4,4.605-4.413
				c1.881-1.013,4.084-1.52,6.607-1.52c1.865,0,3.874,0.281,6.029,0.844C904.861,56.918,906.742,57.657,908.415,58.606z"/>
			<path fill="#3AB4FF" d="M924.21,70.905h13.987V56.532h9.67v37.233h-9.67V78.502H924.21v15.266h-9.67V56.532h9.67V70.905z"/>
			<path fill="#3AB4FF" d="M977.021,87.305h-13.334l-2.557,6.463h-10.273l14.324-37.234h10.563l14.035,37.234h-10.321
				L977.021,87.305z M974.418,79.9l-3.955-11.865h-0.097L966.363,79.9H974.418z"/>
			<path fill="#3AB4FF" d="M1012.037,78.502l11.695,15.266h-12.058l-9.116-14.326h-0.119v14.326h-9.67V56.532h14.469
				c2.572,0,4.813,0.41,6.728,1.23c1.978,0.868,3.488,2.138,4.534,3.81c1.125,1.704,1.688,3.843,1.688,6.415
				c0,1.736-0.313,3.352-0.939,4.847c-0.675,1.512-1.6,2.741-2.773,3.689C1015.27,77.504,1013.789,78.164,1012.037,78.502z
				 M1002.439,63.936v9.285h0.939c1.335,0,2.46-0.112,3.376-0.338c0.997-0.289,1.8-0.756,2.412-1.398
				c0.627-0.643,0.94-1.607,0.94-2.895c0-1.302-0.313-2.275-0.94-2.918c-0.61-0.643-1.415-1.109-2.412-1.398
				c-0.884-0.226-2.01-0.338-3.376-0.338H1002.439z"/>
			<path fill="#3AB4FF" d="M1047.559,64.731h-11.526v6.222h10.924v8.199h-10.924v6.414h11.526v8.199h-21.197V56.532h21.197V64.731z"
				/>
			<path fill="#3AB4FF" d="M1080.064,75.896l-13.721-19.364h11.6l6.969,10.129l6.969-10.129h11.6l-13.721,19.364v17.869h-9.693
				V75.896H1080.064z"/>
			<path fill="#3AB4FF" d="M1124.413,55.303c2.717,0,5.305,0.458,7.765,1.375c2.508,0.964,4.711,2.299,6.607,4.003
				c1.865,1.672,3.384,3.714,4.558,6.125c1.109,2.267,1.664,4.814,1.664,7.645c0,2.975-0.491,5.707-1.471,8.199
				c-1.028,2.539-2.476,4.733-4.341,6.582c-0.997,0.998-2.025,1.843-3.086,2.533c-1.062,0.689-2.211,1.277-3.449,1.76
				c-2.492,0.98-5.241,1.472-8.247,1.472c-2.958,0-5.69-0.49-8.199-1.472c-2.54-0.996-4.728-2.428-6.56-4.293
				c-0.916-0.899-1.723-1.877-2.422-2.93c-0.7-1.053-1.34-2.271-1.918-3.652c-0.996-2.523-1.494-5.258-1.494-8.199
				c0-1.335,0.141-2.645,0.422-3.931c0.279-1.287,0.703-2.523,1.266-3.714c1.19-2.444,2.701-4.485,4.534-6.125
				c1.914-1.721,4.14-3.055,6.681-4.003C1119.116,55.761,1121.68,55.303,1124.413,55.303z M1124.413,64.684
				c-1.896,0-3.642,0.458-5.233,1.375c-1.672,0.964-2.957,2.17-3.857,3.617c-0.949,1.575-1.424,3.183-1.424,4.822
				c0,2.042,0.475,3.939,1.424,5.691c0.964,1.752,2.234,3.086,3.81,4.002c1.655,0.949,3.416,1.424,5.281,1.424
				c1.896,0,3.657-0.475,5.28-1.424c1.576-0.899,2.847-2.233,3.811-4.002c0.949-1.705,1.423-3.603,1.423-5.691
				c0-1.688-0.474-3.295-1.423-4.822c-0.917-1.463-2.203-2.669-3.857-3.617C1128.07,65.142,1126.327,64.684,1124.413,64.684z"/>
			<path fill="#3AB4FF" d="M1172.137,56.532h9.67v20.933c0,0.965-0.016,1.816-0.048,2.557c-0.032,0.738-0.097,1.582-0.192,2.531
				c-0.16,1.512-0.522,2.942-1.086,4.293c-0.498,1.303-1.351,2.557-2.556,3.762c-1.028,0.98-2.218,1.785-3.569,2.412
				c-1.351,0.61-2.765,1.045-4.244,1.303c-1.51,0.289-3.022,0.434-4.533,0.434c-2.331,0-4.621-0.329-6.873-0.988
				c-1.109-0.338-2.105-0.764-2.99-1.277c-0.884-0.514-1.712-1.143-2.484-1.881c-1.205-1.207-2.064-2.461-2.58-3.762
				c-0.578-1.367-0.939-2.783-1.084-4.246c-0.16-1.64-0.241-3.352-0.241-5.136V56.532h9.67v19.606c0,1.991,0.136,3.721,0.41,5.185
				c0.225,1.317,0.827,2.483,1.809,3.495c0.964,0.966,2.421,1.447,4.364,1.447c1.93,0,3.376-0.481,4.341-1.447
				c0.966-0.963,1.576-2.129,1.833-3.495c0.258-1.511,0.387-3.24,0.387-5.185V56.532H1172.137z"/>
			<path fill="#3AB4FF" d="M1207.2,78.502l11.694,15.266h-12.058l-9.115-14.326h-0.121v14.326h-9.669V56.532h14.469
				c2.57,0,4.813,0.41,6.728,1.23c1.978,0.868,3.488,2.138,4.534,3.81c1.124,1.704,1.688,3.843,1.688,6.415
				c0,1.736-0.313,3.352-0.939,4.847c-0.675,1.512-1.601,2.741-2.773,3.689C1210.432,77.504,1208.952,78.164,1207.2,78.502z
				 M1197.602,63.936v9.285h0.941c1.334,0,2.459-0.112,3.376-0.338c0.997-0.289,1.8-0.756,2.411-1.398
				c0.627-0.643,0.939-1.607,0.939-2.895c0-1.302-0.313-2.275-0.939-2.918c-0.611-0.643-1.414-1.109-2.411-1.398
				c-0.884-0.226-2.01-0.338-3.376-0.338H1197.602z"/>
			<path fill="#3AB4FF" d="M1244.627,56.532l6.463,24.043h0.096l7.813-24.043h7.717l7.308,24.043h0.097l7.018-24.043h10.057
				l-11.89,37.233h-9.887l-6.511-21.583h-0.099l-7.307,21.583h-9.838l-11.117-37.233H1244.627L1244.627,56.532z"/>
			<path fill="#3AB4FF" d="M1312.342,55.303c2.717,0,5.306,0.458,7.766,1.375c2.508,0.964,4.711,2.299,6.606,4.003
				c1.865,1.672,3.385,3.714,4.558,6.125c1.109,2.267,1.664,4.814,1.664,7.645c0,2.975-0.489,5.707-1.471,8.199
				c-1.029,2.539-2.476,4.733-4.341,6.582c-0.997,0.998-2.025,1.843-3.087,2.533c-1.062,0.689-2.21,1.277-3.448,1.76
				c-2.492,0.98-5.241,1.472-8.247,1.472c-2.958,0-5.69-0.49-8.199-1.472c-2.541-0.996-4.727-2.428-6.56-4.293
				c-0.916-0.899-1.724-1.877-2.423-2.93c-0.7-1.053-1.339-2.271-1.918-3.652c-0.997-2.523-1.495-5.258-1.495-8.199
				c0-1.335,0.142-2.645,0.423-3.931c0.28-1.287,0.702-2.523,1.266-3.714c1.189-2.444,2.701-4.485,4.533-6.125
				c1.914-1.721,4.141-3.055,6.68-4.003C1307.045,55.761,1309.607,55.303,1312.342,55.303z M1312.342,64.684
				c-1.896,0-3.642,0.458-5.232,1.375c-1.674,0.964-2.958,2.17-3.858,3.617c-0.949,1.575-1.423,3.183-1.423,4.822
				c0,2.042,0.474,3.939,1.423,5.691c0.965,1.752,2.234,3.086,3.812,4.002c1.654,0.949,3.416,1.424,5.28,1.424
				c1.896,0,3.656-0.475,5.281-1.424c1.576-0.899,2.846-2.233,3.81-4.002c0.949-1.705,1.424-3.603,1.424-5.691
				c0-1.688-0.475-3.295-1.424-4.822c-0.916-1.463-2.201-2.669-3.857-3.617C1315.998,65.142,1314.255,64.684,1312.342,64.684z"/>
			<path fill="#3AB4FF" d="M1356.713,78.502l11.696,15.266h-12.059l-9.114-14.326h-0.121v14.326h-9.67V56.532h14.469
				c2.572,0,4.814,0.41,6.729,1.23c1.978,0.868,3.488,2.138,4.533,3.81c1.125,1.704,1.688,3.843,1.688,6.415
				c0,1.736-0.313,3.352-0.94,4.847c-0.676,1.512-1.601,2.741-2.772,3.689C1359.944,77.504,1358.465,78.164,1356.713,78.502z
				 M1347.115,63.936v9.285h0.939c1.335,0,2.46-0.112,3.376-0.338c0.998-0.289,1.802-0.756,2.412-1.398
				c0.627-0.643,0.94-1.607,0.94-2.895c0-1.302-0.313-2.275-0.94-2.918c-0.61-0.643-1.414-1.109-2.412-1.398
				c-0.884-0.226-2.01-0.338-3.376-0.338H1347.115z"/>
			<path fill="#3AB4FF" d="M1380.828,71.894l11.695-15.361h12.01l-14.83,17.629l16.156,19.605h-12.539l-12.492-16.158h-0.121v16.158
				h-9.67V56.532h9.67v15.361L1380.828,71.894L1380.828,71.894z"/>
			<path fill="#3AB4FF" d="M1446.59,64.731h-11.526v6.222h10.924v8.199h-10.924v6.414h11.526v8.199h-21.197V56.532h21.197V64.731z"
				/>
			<path fill="#3AB4FF" d="M1463.566,73.871l-11.912-17.339h11.912l5.668,9.622l5.689-9.622h11.889l-11.889,17.339l13.771,19.896
				h-11.648l-7.812-12.154l-8.537,12.154h-11.695L1463.566,73.871z"/>
			<path fill="#3AB4FF" d="M1491.516,93.768V56.532h14.808c2.733,0,5.121,0.426,7.162,1.278c1.992,0.868,3.561,2.234,4.702,4.1
				c1.125,1.817,1.688,4.108,1.688,6.873c0,2.059-0.28,3.946-0.844,5.667c-0.595,1.575-1.455,2.878-2.58,3.905
				c-1.094,0.998-2.477,1.771-4.148,2.315c-1.591,0.498-3.464,0.747-5.618,0.747h-5.498v12.348h-9.672V93.768z M1501.188,64.322
				v9.284h1.64c1.432,0,2.668-0.081,3.714-0.241c0.9-0.145,1.667-0.534,2.303-1.17c0.635-0.636,0.952-1.676,0.952-3.123
				c0-1.495-0.297-2.564-0.892-3.207c-0.611-0.708-1.366-1.134-2.268-1.278c-0.979-0.177-2.252-0.265-3.811-0.265L1501.188,64.322
				L1501.188,64.322z"/>
		</g>
	</g>
</g>
<g>
	<rect x="25" y="19" fill="#6E1F75" width="748" height="120"/>
	<rect x="17" y="15" fill="#F51484" width="750" height="120"/>
	<rect x="11" y="11" fill="#F9F9F9" width="750" height="120"/>
	<g>
		<g>
			<path fill="#3AB4FF" d="M101.415,61.606l-3.858,7.5c-2.01-1.64-4.147-2.46-6.415-2.46c-1.027,0-1.969,0.281-2.82,0.844
				c-0.884,0.531-1.326,1.287-1.326,2.268c0,0.948,0.395,1.672,1.182,2.17c0.739,0.482,1.775,0.94,3.111,1.375l2.459,0.747
				c2.813,0.82,5.072,2.019,6.776,3.593c1.606,1.592,2.41,3.787,2.41,6.584c0,4.502-1.285,7.847-3.856,10.031
				c-2.766,2.331-6.286,3.497-10.563,3.497c-4.663,0-9.026-1.414-13.095-4.244l4.147-7.813c2.909,2.571,5.778,3.858,8.608,3.858
				c1.223,0,2.308-0.33,3.256-0.988c0.948-0.66,1.423-1.584,1.423-2.773c0-1.206-0.521-2.074-1.566-2.604
				c-0.979-0.498-2.412-1.045-4.293-1.641c-2.219-0.595-4.084-1.27-5.595-2.025c-1.433-0.724-2.536-1.744-3.315-3.063
				c-0.78-1.317-1.17-3.126-1.17-5.426c0-2.475,0.539-4.662,1.615-6.559c1.143-1.93,2.678-3.4,4.605-4.413
				c1.882-1.013,4.084-1.52,6.607-1.52c1.865,0,3.874,0.281,6.028,0.844C97.861,59.918,99.742,60.657,101.415,61.606z"/>
			<path fill="#3AB4FF" d="M117.21,73.905h13.987V59.532h9.67v37.233h-9.67V81.502H117.21v15.266h-9.67V59.532h9.67V73.905z"/>
			<path fill="#3AB4FF" d="M170.021,90.305h-13.336l-2.556,6.463h-10.272l14.323-37.234h10.563l14.034,37.234h-10.32L170.021,90.305
				z M167.418,82.9l-3.955-11.865h-0.097L159.363,82.9H167.418z"/>
			<path fill="#3AB4FF" d="M205.037,81.502l11.695,15.266h-12.058l-9.116-14.326h-0.119v14.326h-9.671V59.532h14.47
				c2.571,0,4.813,0.41,6.729,1.23c1.977,0.868,3.488,2.138,4.533,3.81c1.125,1.704,1.688,3.843,1.688,6.415
				c0,1.736-0.312,3.352-0.938,4.847c-0.676,1.512-1.601,2.741-2.773,3.689C208.27,80.504,206.789,81.164,205.037,81.502z
				 M195.439,66.936v9.285h0.939c1.335,0,2.46-0.111,3.376-0.338c0.997-0.289,1.801-0.756,2.412-1.398
				c0.627-0.643,0.938-1.607,0.938-2.895c0-1.302-0.312-2.275-0.938-2.918c-0.611-0.643-1.415-1.109-2.412-1.398
				c-0.884-0.226-2.01-0.338-3.376-0.338H195.439z"/>
			<path fill="#3AB4FF" d="M240.559,67.731h-11.526v6.222h10.924v8.199h-10.924v6.414h11.526v8.199h-21.196V59.532h21.196V67.731z"
				/>
			<path fill="#3AB4FF" d="M273.064,78.896l-13.722-19.364h11.601l6.969,10.129l6.97-10.129h11.6L282.76,78.896v17.869h-9.694
				L273.064,78.896L273.064,78.896z"/>
			<path fill="#3AB4FF" d="M317.413,58.303c2.717,0,5.306,0.458,7.765,1.375c2.508,0.964,4.711,2.299,6.607,4.003
				c1.865,1.672,3.385,3.714,4.559,6.125c1.109,2.267,1.664,4.814,1.664,7.645c0,2.975-0.491,5.707-1.472,8.199
				c-1.028,2.539-2.477,4.733-4.341,6.582c-0.997,0.998-2.025,1.843-3.086,2.533c-1.063,0.689-2.212,1.277-3.449,1.76
				c-2.492,0.98-5.241,1.472-8.247,1.472c-2.958,0-5.691-0.49-8.199-1.472c-2.54-0.996-4.727-2.428-6.56-4.293
				c-0.916-0.899-1.725-1.877-2.424-2.93s-1.339-2.271-1.916-3.652c-0.998-2.523-1.496-5.258-1.496-8.199
				c0-1.335,0.142-2.645,0.423-3.931c0.28-1.287,0.702-2.523,1.266-3.714c1.19-2.444,2.701-4.485,4.534-6.125
				c1.913-1.721,4.139-3.055,6.68-4.003C312.116,58.761,314.68,58.303,317.413,58.303z M317.413,67.684
				c-1.896,0-3.642,0.458-5.233,1.375c-1.672,0.964-2.957,2.17-3.856,3.617c-0.949,1.575-1.425,3.184-1.425,4.822
				c0,2.042,0.476,3.939,1.425,5.691c0.964,1.752,2.232,3.086,3.81,4.002c1.655,0.949,3.416,1.424,5.281,1.424
				c1.896,0,3.657-0.475,5.281-1.424c1.576-0.899,2.846-2.233,3.81-4.002c0.949-1.705,1.424-3.603,1.424-5.691
				c0-1.688-0.475-3.295-1.424-4.822c-0.916-1.463-2.202-2.669-3.856-3.617C321.07,68.142,319.326,67.684,317.413,67.684z"/>
			<path fill="#3AB4FF" d="M365.137,59.532h9.67v20.933c0,0.965-0.016,1.816-0.048,2.557c-0.032,0.739-0.097,1.582-0.192,2.531
				c-0.16,1.512-0.522,2.942-1.085,4.293c-0.498,1.303-1.352,2.557-2.558,3.762c-1.026,0.98-2.218,1.785-3.567,2.412
				c-1.352,0.61-2.766,1.045-4.244,1.303c-1.513,0.289-3.023,0.434-4.534,0.434c-2.331,0-4.621-0.329-6.872-0.988
				c-1.109-0.338-2.107-0.764-2.99-1.277c-0.885-0.516-1.713-1.143-2.483-1.881c-1.205-1.207-2.065-2.461-2.58-3.762
				c-0.579-1.367-0.94-2.783-1.086-4.246c-0.16-1.64-0.24-3.352-0.24-5.136V59.532h9.67v19.606c0,1.991,0.137,3.721,0.41,5.185
				c0.225,1.317,0.828,2.483,1.809,3.495c0.965,0.966,2.42,1.447,4.364,1.447c1.93,0,3.376-0.481,4.341-1.447
				c0.965-0.963,1.576-2.129,1.833-3.495c0.257-1.511,0.386-3.24,0.386-5.185V59.532H365.137z"/>
			<path fill="#3AB4FF" d="M400.2,81.502l11.694,15.266h-12.058l-9.115-14.326h-0.121v14.326h-9.67V59.532h14.47
				c2.571,0,4.814,0.41,6.729,1.23c1.979,0.868,3.488,2.138,4.534,3.81c1.124,1.704,1.688,3.843,1.688,6.415
				c0,1.736-0.313,3.352-0.939,4.847c-0.675,1.512-1.601,2.741-2.773,3.689C403.432,80.504,401.952,81.164,400.2,81.502z
				 M390.602,66.936v9.285h0.941c1.334,0,2.459-0.111,3.376-0.338c0.997-0.289,1.8-0.756,2.411-1.398
				c0.627-0.643,0.939-1.607,0.939-2.895c0-1.302-0.313-2.275-0.939-2.918c-0.611-0.643-1.414-1.109-2.411-1.398
				c-0.884-0.226-2.011-0.338-3.376-0.338H390.602z"/>
			<path fill="#3AB4FF" d="M437.627,59.532l6.463,24.043h0.096l7.813-24.043h7.717l7.308,24.043h0.097l7.018-24.043h10.057
				l-11.89,37.233h-9.887l-6.511-21.583h-0.099l-7.307,21.583h-9.838l-11.117-37.233H437.627L437.627,59.532z"/>
			<path fill="#3AB4FF" d="M505.342,58.303c2.717,0,5.306,0.458,7.766,1.375c2.508,0.964,4.711,2.299,6.606,4.003
				c1.865,1.672,3.386,3.714,4.559,6.125c1.108,2.267,1.663,4.814,1.663,7.645c0,2.975-0.489,5.707-1.471,8.199
				c-1.029,2.539-2.476,4.733-4.341,6.582c-0.997,0.998-2.024,1.843-3.087,2.533c-1.061,0.689-2.21,1.277-3.448,1.76
				c-2.491,0.98-5.241,1.472-8.247,1.472c-2.958,0-5.69-0.49-8.198-1.472c-2.541-0.996-4.728-2.428-6.561-4.293
				c-0.916-0.899-1.724-1.877-2.423-2.93c-0.7-1.053-1.339-2.271-1.918-3.652c-0.997-2.523-1.495-5.258-1.495-8.199
				c0-1.335,0.142-2.645,0.423-3.931c0.28-1.287,0.702-2.523,1.267-3.714c1.188-2.444,2.7-4.485,4.532-6.125
				c1.914-1.721,4.141-3.055,6.681-4.003C500.045,58.761,502.607,58.303,505.342,58.303z M505.342,67.684
				c-1.896,0-3.642,0.458-5.232,1.375c-1.674,0.964-2.958,2.17-3.858,3.617c-0.949,1.575-1.423,3.184-1.423,4.822
				c0,2.042,0.474,3.939,1.423,5.691c0.965,1.752,2.234,3.086,3.812,4.002c1.654,0.949,3.416,1.424,5.28,1.424
				c1.896,0,3.656-0.475,5.281-1.424c1.576-0.899,2.846-2.233,3.81-4.002c0.949-1.705,1.424-3.603,1.424-5.691
				c0-1.688-0.475-3.295-1.424-4.822c-0.916-1.463-2.201-2.669-3.857-3.617C508.998,68.142,507.255,67.684,505.342,67.684z"/>
			<path fill="#3AB4FF" d="M549.713,81.502l11.696,15.266h-12.058l-9.115-14.326h-0.121v14.326h-9.67V59.532h14.469
				c2.572,0,4.814,0.41,6.729,1.23c1.978,0.868,3.488,2.138,4.533,3.81c1.125,1.704,1.688,3.843,1.688,6.415
				c0,1.736-0.313,3.352-0.94,4.847c-0.676,1.512-1.601,2.741-2.772,3.689C552.944,80.504,551.465,81.164,549.713,81.502z
				 M540.115,66.936v9.285h0.939c1.335,0,2.46-0.111,3.376-0.338c0.998-0.289,1.802-0.756,2.412-1.398
				c0.627-0.643,0.94-1.607,0.94-2.895c0-1.302-0.313-2.275-0.94-2.918c-0.61-0.643-1.414-1.109-2.412-1.398
				c-0.884-0.226-2.01-0.338-3.376-0.338H540.115z"/>
			<path fill="#3AB4FF" d="M573.828,74.894l11.695-15.361h12.01l-14.83,17.629l16.156,19.605H586.32l-12.492-16.158h-0.121v16.158
				h-9.67V59.532h9.67v15.361L573.828,74.894L573.828,74.894z"/>
			<path fill="#3AB4FF" d="M639.59,67.731h-11.527v6.222h10.925v8.199h-10.925v6.414h11.527v8.199h-21.197V59.532h21.197V67.731z"/>
			<path fill="#3AB4FF" d="M656.566,76.871l-11.912-17.339h11.912l5.668,9.622l5.689-9.622h11.889l-11.889,17.339l13.771,19.896
				h-11.648l-7.812-12.154l-8.537,12.154h-11.695L656.566,76.871z"/>
			<path fill="#3AB4FF" d="M684.516,96.768V59.532h14.808c2.733,0,5.121,0.426,7.162,1.278c1.993,0.868,3.561,2.234,4.702,4.1
				c1.125,1.817,1.688,4.108,1.688,6.873c0,2.059-0.28,3.945-0.844,5.667c-0.595,1.575-1.455,2.878-2.58,3.905
				c-1.094,0.998-2.476,1.771-4.148,2.315c-1.591,0.498-3.464,0.747-5.618,0.747h-5.498v12.348h-9.672V96.768z M694.188,67.322
				v9.284h1.64c1.432,0,2.668-0.08,3.714-0.24c0.9-0.145,1.667-0.534,2.303-1.17c0.637-0.636,0.952-1.676,0.952-3.123
				c0-1.495-0.297-2.564-0.892-3.207c-0.611-0.708-1.366-1.134-2.268-1.278c-0.979-0.177-2.252-0.265-3.811-0.265L694.188,67.322
				L694.188,67.322z"/>
		</g>
	</g>
	<g>
		<g>
			<path fill="#F51484" d="M99.415,58.606l-3.858,7.5c-2.01-1.64-4.147-2.46-6.415-2.46c-1.027,0-1.969,0.281-2.82,0.844
				c-0.884,0.531-1.326,1.287-1.326,2.268c0,0.948,0.395,1.672,1.182,2.17c0.739,0.482,1.775,0.94,3.111,1.375l2.459,0.747
				c2.813,0.82,5.072,2.018,6.776,3.593c1.606,1.591,2.41,3.787,2.41,6.583c0,4.502-1.285,7.847-3.856,10.031
				c-2.766,2.331-6.286,3.497-10.563,3.497c-4.663,0-9.026-1.414-13.095-4.244l4.147-7.813c2.909,2.571,5.778,3.858,8.608,3.858
				c1.223,0,2.308-0.33,3.256-0.988c0.948-0.66,1.423-1.584,1.423-2.773c0-1.206-0.521-2.074-1.566-2.604
				c-0.979-0.498-2.412-1.045-4.293-1.641c-2.219-0.595-4.084-1.27-5.595-2.025c-1.433-0.724-2.536-1.744-3.315-3.063
				c-0.78-1.317-1.17-3.126-1.17-5.426c0-2.475,0.539-4.662,1.615-6.559c1.143-1.93,2.678-3.4,4.605-4.413
				c1.882-1.013,4.084-1.52,6.607-1.52c1.865,0,3.874,0.281,6.028,0.844C95.861,56.918,97.742,57.657,99.415,58.606z"/>
			<path fill="#F51484" d="M115.21,70.905h13.987V56.532h9.67v37.233h-9.67V78.502H115.21v15.266h-9.67V56.532h9.67V70.905z"/>
			<path fill="#F51484" d="M168.021,87.305h-13.336l-2.556,6.463h-10.272l14.323-37.234h10.563l14.034,37.234h-10.32L168.021,87.305
				z M165.418,79.9l-3.955-11.865h-0.097L157.363,79.9H165.418z"/>
			<path fill="#F51484" d="M203.037,78.502l11.695,15.266h-12.058l-9.116-14.326h-0.119v14.326h-9.67V56.532h14.469
				c2.572,0,4.813,0.41,6.729,1.23c1.978,0.868,3.488,2.138,4.533,3.81c1.125,1.704,1.688,3.843,1.688,6.415
				c0,1.736-0.312,3.352-0.938,4.847c-0.676,1.512-1.601,2.741-2.773,3.689C206.27,77.504,204.789,78.164,203.037,78.502z
				 M193.439,63.936v9.285h0.939c1.335,0,2.46-0.112,3.376-0.338c0.997-0.289,1.801-0.756,2.412-1.398
				c0.627-0.643,0.938-1.607,0.938-2.895c0-1.302-0.312-2.275-0.938-2.918c-0.611-0.643-1.415-1.109-2.412-1.398
				c-0.884-0.226-2.01-0.338-3.376-0.338H193.439z"/>
			<path fill="#F51484" d="M238.559,64.731h-11.526v6.222h10.924v8.199h-10.924v6.414h11.526v8.199h-21.196V56.532h21.196V64.731z"
				/>
			<path fill="#F51484" d="M271.064,75.896l-13.722-19.364h11.601l6.969,10.129l6.97-10.129h11.6L280.76,75.896v17.869h-9.694
				L271.064,75.896L271.064,75.896z"/>
			<path fill="#F51484" d="M315.413,55.303c2.717,0,5.306,0.458,7.765,1.375c2.508,0.964,4.711,2.299,6.607,4.003
				c1.865,1.672,3.385,3.714,4.559,6.125c1.109,2.267,1.664,4.814,1.664,7.645c0,2.975-0.491,5.707-1.472,8.199
				c-1.028,2.539-2.477,4.733-4.341,6.582c-0.997,0.998-2.025,1.843-3.086,2.533c-1.063,0.689-2.212,1.277-3.449,1.76
				c-2.492,0.98-5.241,1.472-8.247,1.472c-2.958,0-5.691-0.49-8.199-1.472c-2.54-0.996-4.727-2.428-6.56-4.293
				c-0.916-0.899-1.725-1.877-2.424-2.93s-1.339-2.271-1.916-3.652c-0.998-2.523-1.496-5.258-1.496-8.199
				c0-1.335,0.142-2.645,0.423-3.931c0.28-1.287,0.702-2.523,1.266-3.714c1.19-2.444,2.701-4.485,4.534-6.125
				c1.913-1.721,4.139-3.055,6.68-4.003C310.116,55.761,312.68,55.303,315.413,55.303z M315.413,64.684
				c-1.896,0-3.642,0.458-5.233,1.375c-1.672,0.964-2.957,2.17-3.856,3.617c-0.949,1.575-1.425,3.183-1.425,4.822
				c0,2.042,0.476,3.939,1.425,5.691c0.964,1.752,2.232,3.086,3.81,4.002c1.655,0.949,3.416,1.424,5.281,1.424
				c1.896,0,3.657-0.475,5.281-1.424c1.576-0.899,2.846-2.233,3.81-4.002c0.949-1.705,1.424-3.603,1.424-5.691
				c0-1.688-0.475-3.295-1.424-4.822c-0.916-1.463-2.202-2.669-3.856-3.617C319.07,65.142,317.326,64.684,315.413,64.684z"/>
			<path fill="#F51484" d="M363.137,56.532h9.67v20.933c0,0.965-0.016,1.816-0.048,2.557c-0.032,0.739-0.097,1.582-0.192,2.531
				c-0.16,1.512-0.522,2.942-1.085,4.293c-0.498,1.303-1.352,2.557-2.558,3.762c-1.026,0.98-2.218,1.785-3.567,2.412
				c-1.352,0.61-2.766,1.045-4.244,1.303c-1.513,0.289-3.023,0.434-4.534,0.434c-2.331,0-4.621-0.329-6.872-0.988
				c-1.109-0.338-2.107-0.764-2.99-1.277c-0.885-0.516-1.713-1.143-2.483-1.881c-1.205-1.207-2.065-2.461-2.58-3.762
				c-0.579-1.367-0.94-2.783-1.086-4.246c-0.16-1.64-0.24-3.352-0.24-5.136V56.532h9.67v19.606c0,1.991,0.137,3.721,0.41,5.185
				c0.225,1.317,0.828,2.483,1.809,3.495c0.965,0.966,2.42,1.447,4.364,1.447c1.93,0,3.376-0.481,4.341-1.447
				c0.965-0.963,1.576-2.129,1.833-3.495c0.257-1.511,0.386-3.24,0.386-5.185V56.532H363.137z"/>
			<path fill="#F51484" d="M398.2,78.502l11.694,15.266h-12.058l-9.115-14.326h-0.121v14.326h-9.67V56.532h14.47
				c2.571,0,4.814,0.41,6.729,1.23c1.979,0.868,3.488,2.138,4.534,3.81c1.124,1.704,1.688,3.843,1.688,6.415
				c0,1.736-0.313,3.352-0.939,4.847c-0.675,1.512-1.601,2.741-2.773,3.689C401.432,77.504,399.952,78.164,398.2,78.502z
				 M388.602,63.936v9.285h0.941c1.334,0,2.459-0.112,3.376-0.338c0.997-0.289,1.8-0.756,2.411-1.398
				c0.627-0.643,0.939-1.607,0.939-2.895c0-1.302-0.313-2.275-0.939-2.918c-0.611-0.643-1.414-1.109-2.411-1.398
				c-0.884-0.226-2.011-0.338-3.376-0.338H388.602z"/>
			<path fill="#F51484" d="M435.627,56.532l6.463,24.043h0.096l7.813-24.043h7.717l7.308,24.043h0.097l7.018-24.043h10.057
				l-11.89,37.233h-9.887l-6.511-21.583h-0.099l-7.307,21.583h-9.838l-11.117-37.233H435.627L435.627,56.532z"/>
			<path fill="#F51484" d="M503.342,55.303c2.717,0,5.306,0.458,7.766,1.375c2.508,0.964,4.711,2.299,6.606,4.003
				c1.865,1.672,3.386,3.714,4.559,6.125c1.108,2.267,1.663,4.814,1.663,7.645c0,2.975-0.489,5.707-1.471,8.199
				c-1.029,2.539-2.476,4.733-4.341,6.582c-0.997,0.998-2.024,1.843-3.087,2.533c-1.061,0.689-2.21,1.277-3.448,1.76
				c-2.491,0.98-5.241,1.472-8.247,1.472c-2.958,0-5.69-0.49-8.198-1.472c-2.541-0.996-4.728-2.428-6.561-4.293
				c-0.916-0.899-1.724-1.877-2.423-2.93c-0.7-1.053-1.339-2.271-1.918-3.652c-0.997-2.523-1.495-5.258-1.495-8.199
				c0-1.335,0.142-2.645,0.423-3.931c0.28-1.287,0.702-2.523,1.267-3.714c1.188-2.444,2.7-4.485,4.532-6.125
				c1.914-1.721,4.141-3.055,6.681-4.003C498.045,55.761,500.607,55.303,503.342,55.303z M503.342,64.684
				c-1.896,0-3.642,0.458-5.232,1.375c-1.674,0.964-2.958,2.17-3.858,3.617c-0.949,1.575-1.423,3.183-1.423,4.822
				c0,2.042,0.474,3.939,1.423,5.691c0.965,1.752,2.234,3.086,3.812,4.002c1.654,0.949,3.416,1.424,5.28,1.424
				c1.896,0,3.656-0.475,5.281-1.424c1.576-0.899,2.846-2.233,3.81-4.002c0.949-1.705,1.424-3.603,1.424-5.691
				c0-1.688-0.475-3.295-1.424-4.822c-0.916-1.463-2.201-2.669-3.857-3.617C506.998,65.142,505.255,64.684,503.342,64.684z"/>
			<path fill="#F51484" d="M547.713,78.502l11.696,15.266h-12.058l-9.115-14.326h-0.121v14.326h-9.67V56.532h14.469
				c2.572,0,4.814,0.41,6.729,1.23c1.978,0.868,3.488,2.138,4.533,3.81c1.125,1.704,1.688,3.843,1.688,6.415
				c0,1.736-0.313,3.352-0.94,4.847c-0.676,1.512-1.601,2.741-2.772,3.689C550.944,77.504,549.465,78.164,547.713,78.502z
				 M538.115,63.936v9.285h0.939c1.335,0,2.46-0.112,3.376-0.338c0.998-0.289,1.802-0.756,2.412-1.398
				c0.627-0.643,0.94-1.607,0.94-2.895c0-1.302-0.313-2.275-0.94-2.918c-0.61-0.643-1.414-1.109-2.412-1.398
				c-0.884-0.226-2.01-0.338-3.376-0.338H538.115z"/>
			<path fill="#F51484" d="M571.828,71.894l11.695-15.361h12.01l-14.83,17.629l16.156,19.605H584.32l-12.492-16.158h-0.121v16.158
				h-9.67V56.532h9.67v15.361L571.828,71.894L571.828,71.894z"/>
			<path fill="#F51484" d="M637.59,64.731h-11.527v6.222h10.925v8.199h-10.925v6.414h11.527v8.199h-21.197V56.532h21.197V64.731z"/>
			<path fill="#F51484" d="M654.566,73.871l-11.912-17.339h11.912l5.668,9.622l5.689-9.622h11.889l-11.889,17.339l13.771,19.896
				h-11.648l-7.812-12.154l-8.537,12.154h-11.695L654.566,73.871z"/>
			<path fill="#F51484" d="M682.516,93.768V56.532h14.808c2.733,0,5.121,0.426,7.162,1.278c1.993,0.868,3.561,2.234,4.702,4.1
				c1.125,1.817,1.688,4.108,1.688,6.873c0,2.059-0.28,3.946-0.844,5.667c-0.595,1.575-1.455,2.878-2.58,3.905
				c-1.094,0.998-2.476,1.771-4.148,2.315c-1.591,0.498-3.464,0.747-5.618,0.747h-5.498v12.348h-9.672V93.768z M692.188,64.322
				v9.284h1.64c1.432,0,2.668-0.081,3.714-0.241c0.9-0.145,1.667-0.534,2.303-1.17c0.637-0.636,0.952-1.676,0.952-3.123
				c0-1.495-0.297-2.564-0.892-3.207c-0.611-0.708-1.366-1.134-2.268-1.278c-0.979-0.177-2.252-0.265-3.811-0.265L692.188,64.322
				L692.188,64.322z"/>
		</g>
	</g>
</g>
</svg>
