<?xml version="1.0" encoding="utf-8"?>
<!-- Generator: Adobe Illustrator 16.0.0, SVG Export Plug-In . SVG Version: 6.00 Build 0)  -->
<!DOCTYPE svg PUBLIC "-//W3C//DTD SVG 1.1//EN" "http://www.w3.org/Graphics/SVG/1.1/DTD/svg11.dtd">
<svg version="1.1" id="Layer_1" xmlns="http://www.w3.org/2000/svg" xmlns:xlink="http://www.w3.org/1999/xlink" x="0px" y="0px"
	 width="1409.524px" height="111.904px" viewBox="0 0 1409.524 111.904" enable-background="new 0 0 1409.524 111.904"
	 xml:space="preserve">
<g>
	<rect x="734.75" y="26" fill="#F9F9F9" width="658.5" height="75"/>
	<rect x="728.75" y="22.5" fill="#F51484" width="659.5" height="75"/>
	<rect x="724.25" y="19" fill="#6E1F75" width="659.5" height="75"/>
</g>
<g>
	<path fill="#F51484" d="M809.469,41.738c2.199,0,4.297,0.371,6.289,1.113c2.031,0.781,3.814,1.862,5.352,3.242
		c1.512,1.354,2.74,3.008,3.691,4.961c0.898,1.836,1.348,3.9,1.348,6.191c0,2.408-0.396,4.622-1.191,6.641
		c-0.834,2.058-2.006,3.835-3.516,5.332c-0.809,0.807-1.641,1.49-2.5,2.051c-0.859,0.562-1.789,1.035-2.793,1.426
		c-2.02,0.795-4.244,1.191-6.68,1.191c-2.396,0-4.609-0.396-6.641-1.191c-2.057-0.807-3.828-1.966-5.314-3.477
		c-0.74-0.729-1.395-1.52-1.963-2.373c-0.564-0.853-1.084-1.839-1.553-2.959c-0.807-2.044-1.211-4.258-1.211-6.64
		c0-1.081,0.115-2.143,0.344-3.185s0.568-2.044,1.025-3.008c0.963-1.979,2.188-3.633,3.672-4.961
		c1.549-1.393,3.352-2.473,5.41-3.242C805.178,42.109,807.254,41.738,809.469,41.738z M809.469,49.335
		c-1.537,0-2.949,0.371-4.238,1.114c-1.354,0.78-2.396,1.758-3.125,2.929c-0.77,1.276-1.152,2.578-1.152,3.906
		c0,1.653,0.385,3.19,1.152,4.609c0.781,1.419,1.811,2.5,3.086,3.241c1.342,0.769,2.768,1.153,4.277,1.153
		c1.535,0,2.961-0.386,4.277-1.153c1.275-0.729,2.305-1.81,3.086-3.241c0.77-1.381,1.152-2.917,1.152-4.609
		c0-1.367-0.385-2.669-1.152-3.906c-0.742-1.185-1.783-2.161-3.125-2.929C812.43,49.707,811.02,49.335,809.469,49.335z"/>
	<path fill="#F51484" d="M848.122,42.734h7.832v16.953c0,0.781-0.014,1.472-0.039,2.071c-0.027,0.599-0.078,1.282-0.156,2.051
		c-0.131,1.225-0.424,2.383-0.879,3.478c-0.402,1.055-1.094,2.069-2.07,3.047c-0.832,0.795-1.797,1.444-2.891,1.953
		c-1.094,0.495-2.24,0.846-3.438,1.055c-1.225,0.234-2.447,0.352-3.672,0.352c-1.889,0-3.744-0.268-5.566-0.802
		c-0.898-0.272-1.705-0.618-2.422-1.034c-0.717-0.417-1.387-0.925-2.012-1.522c-0.979-0.978-1.674-1.992-2.092-3.048
		c-0.469-1.106-0.762-2.252-0.879-3.438c-0.131-1.327-0.193-2.715-0.193-4.16V42.734h7.832v15.879c0,1.614,0.109,3.015,0.332,4.199
		c0.182,1.067,0.67,2.012,1.465,2.832c0.781,0.78,1.959,1.172,3.535,1.172c1.563,0,2.732-0.391,3.516-1.172
		c0.781-0.782,1.275-1.726,1.484-2.832c0.207-1.225,0.313-2.624,0.313-4.199V42.734L848.122,42.734z"/>
	<path fill="#F51484" d="M876.52,60.527l9.473,12.363h-9.766l-7.383-11.602h-0.098V72.89h-7.832V42.734h11.719
		c2.084,0,3.9,0.332,5.449,0.996c1.602,0.703,2.824,1.732,3.672,3.086c0.912,1.38,1.367,3.113,1.367,5.196
		c0,1.406-0.254,2.715-0.762,3.926c-0.549,1.225-1.297,2.221-2.246,2.988C879.137,59.72,877.938,60.253,876.52,60.527z
		 M868.747,48.73v7.521h0.762c1.08,0,1.992-0.091,2.734-0.273c0.807-0.234,1.457-0.611,1.953-1.133
		c0.508-0.521,0.762-1.302,0.762-2.344c0-1.056-0.254-1.843-0.762-2.363c-0.496-0.521-1.146-0.898-1.953-1.133
		c-0.717-0.183-1.629-0.273-2.734-0.273L868.747,48.73L868.747,48.73z"/>
	<path fill="#F51484" d="M913.922,72.89h-12.09V42.734h11.211c5.963,0,8.945,2.611,8.945,7.832c0,1.498-0.281,2.761-0.84,3.789
		c-0.563,1.029-1.389,1.823-2.48,2.383v0.078c2.096,0.274,3.646,1.074,4.648,2.403c1.016,1.328,1.521,3.086,1.521,5.273
		c0,2.93-1.041,5.064-3.125,6.405C919.592,72.227,916.995,72.89,913.922,72.89z M909.665,48.73v5.84h0.896
		c1.289,0,2.313-0.201,3.066-0.604c0.781-0.404,1.172-1.172,1.172-2.305c0-1.25-0.416-2.052-1.25-2.402
		c-0.754-0.352-1.859-0.528-3.318-0.528H909.665z M909.665,60.409v6.484h1.016c1.939,0,3.457-0.202,4.551-0.604
		c1.119-0.353,1.68-1.219,1.68-2.599c0-1.354-0.469-2.246-1.406-2.677c-0.896-0.403-2.121-0.604-3.672-0.604h-1.367H909.665z"/>
	<path fill="#F51484" d="M947.379,67.656h-10.801l-2.07,5.233h-8.32l11.602-30.156h8.555l11.367,30.156h-8.359L947.379,67.656z
		 M945.27,61.659l-3.203-9.609h-0.078l-3.24,9.609H945.27z"/>
	<path fill="#F51484" d="M960.133,72.89V42.734h11.113c2.045,0,4.023,0.385,5.938,1.153c1.875,0.755,3.51,1.823,4.902,3.203
		c1.445,1.393,2.539,2.995,3.281,4.804c0.404,0.912,0.705,1.859,0.908,2.842c0.201,0.983,0.303,2.01,0.303,3.076
		c0,2.761-0.697,5.293-2.09,7.598c-1.395,2.345-3.256,4.174-5.586,5.488c-1.211,0.664-2.449,1.162-3.711,1.494
		c-1.266,0.332-2.578,0.497-3.945,0.497L960.133,72.89L960.133,72.89z M967.965,49.375V66.25h1.777c1.588,0,3.053-0.307,4.395-0.918
		c1.342-0.625,2.383-1.558,3.125-2.793c0.768-1.304,1.152-2.878,1.152-4.728c0-2.643-0.787-4.713-2.363-6.211
		c-0.521-0.48-1.1-0.889-1.738-1.221s-1.328-0.583-2.07-0.752s-1.551-0.254-2.422-0.254L967.965,49.375L967.965,49.375z"/>
	<path fill="#F51484" d="M1008.688,67.656h-10.801l-2.07,5.233h-8.32L999.1,42.734h8.553l11.367,30.156h-8.359L1008.688,67.656z
		 M1006.579,61.659l-3.203-9.609h-0.078l-3.242,9.609H1006.579z"/>
	<path fill="#F51484" d="M1041.129,44.414l-3.125,6.073c-1.629-1.327-3.359-1.991-5.195-1.991c-0.834,0-1.596,0.228-2.285,0.683
		c-0.717,0.43-1.074,1.042-1.074,1.836c0,0.77,0.32,1.354,0.957,1.758c0.6,0.392,1.439,0.762,2.52,1.114l1.992,0.605
		c2.279,0.664,4.107,1.634,5.488,2.909c1.303,1.289,1.953,3.066,1.953,5.332c0,3.646-1.041,6.354-3.125,8.125
		c-2.238,1.889-5.092,2.832-8.555,2.832c-3.775,0-7.311-1.146-10.605-3.438l3.359-6.328c2.357,2.083,4.682,3.125,6.973,3.125
		c0.99,0,1.869-0.267,2.637-0.801c0.77-0.534,1.152-1.282,1.152-2.246c0-0.978-0.424-1.68-1.27-2.109
		c-0.795-0.403-1.953-0.847-3.477-1.328c-1.797-0.481-3.309-1.028-4.531-1.641c-1.158-0.586-2.055-1.413-2.686-2.48
		c-0.633-1.067-0.947-2.531-0.947-4.395c0-2.005,0.436-3.776,1.309-5.313c0.924-1.563,2.168-2.754,3.73-3.573
		c1.521-0.82,3.307-1.23,5.352-1.23c1.51,0,3.137,0.229,4.883,0.685C1038.25,43.046,1039.774,43.646,1041.129,44.414z"/>
	<path fill="#F51484" d="M1065.778,44.414l-3.125,6.073c-1.629-1.327-3.359-1.991-5.195-1.991c-0.834,0-1.596,0.228-2.285,0.683
		c-0.717,0.43-1.074,1.042-1.074,1.836c0,0.77,0.32,1.354,0.957,1.758c0.6,0.392,1.439,0.762,2.521,1.114l1.99,0.605
		c2.279,0.664,4.109,1.634,5.488,2.909c1.303,1.289,1.953,3.066,1.953,5.332c0,3.646-1.041,6.354-3.125,8.125
		c-2.238,1.889-5.09,2.832-8.555,2.832c-3.775,0-7.311-1.146-10.604-3.438l3.357-6.328c2.357,2.083,4.682,3.125,6.975,3.125
		c0.988,0,1.867-0.267,2.635-0.801c0.77-0.534,1.152-1.282,1.152-2.246c0-0.978-0.424-1.68-1.27-2.109
		c-0.795-0.403-1.953-0.847-3.477-1.328c-1.799-0.481-3.309-1.028-4.531-1.641c-1.158-0.586-2.055-1.413-2.686-2.48
		c-0.633-1.067-0.947-2.531-0.947-4.395c0-2.005,0.438-3.776,1.309-5.313c0.926-1.563,2.168-2.754,3.73-3.573
		c1.523-0.82,3.307-1.23,5.352-1.23c1.512,0,3.139,0.229,4.883,0.685C1062.899,43.046,1064.422,43.646,1065.778,44.414z"/>
	<path fill="#F51484" d="M1104.137,44.414l-3.125,6.073c-1.629-1.327-3.359-1.991-5.195-1.991c-0.834,0-1.596,0.228-2.285,0.683
		c-0.717,0.43-1.074,1.042-1.074,1.836c0,0.77,0.32,1.354,0.957,1.758c0.6,0.392,1.439,0.762,2.521,1.114l1.99,0.605
		c2.279,0.664,4.109,1.634,5.488,2.909c1.303,1.289,1.953,3.066,1.953,5.332c0,3.646-1.041,6.354-3.125,8.125
		c-2.24,1.889-5.092,2.832-8.555,2.832c-3.775,0-7.313-1.146-10.605-3.438l3.359-6.328c2.355,2.083,4.682,3.125,6.973,3.125
		c0.99,0,1.869-0.267,2.637-0.801c0.77-0.534,1.152-1.282,1.152-2.246c0-0.978-0.424-1.68-1.27-2.109
		c-0.795-0.403-1.953-0.847-3.477-1.328c-1.797-0.481-3.309-1.028-4.531-1.641c-1.158-0.586-2.053-1.413-2.686-2.48
		s-0.947-2.531-0.947-4.395c0-2.005,0.436-3.776,1.309-5.313c0.926-1.563,2.168-2.754,3.73-3.573c1.521-0.82,3.307-1.23,5.352-1.23
		c1.51,0,3.137,0.229,4.883,0.685C1101.258,43.046,1102.782,43.646,1104.137,44.414z"/>
	<path fill="#F51484" d="M1126.266,49.375h-9.336v5.039h8.848v6.64h-8.848v5.196h9.336v6.64h-17.168V42.734h17.168V49.375z"/>
	<path fill="#F51484" d="M1146.696,60.527l9.473,12.363h-9.766l-7.385-11.602h-0.098V72.89h-7.832V42.734h11.719
		c2.084,0,3.9,0.332,5.449,0.996c1.604,0.703,2.826,1.732,3.672,3.086c0.912,1.38,1.367,3.113,1.367,5.196
		c0,1.406-0.254,2.715-0.762,3.926c-0.547,1.225-1.295,2.221-2.246,2.988C1149.313,59.72,1148.114,60.253,1146.696,60.527z
		 M1138.922,48.73v7.521h0.762c1.08,0,1.992-0.091,2.734-0.273c0.807-0.234,1.457-0.611,1.953-1.133
		c0.508-0.521,0.762-1.302,0.762-2.344c0-1.056-0.254-1.843-0.762-2.363c-0.496-0.521-1.146-0.898-1.953-1.133
		c-0.717-0.183-1.629-0.273-2.734-0.273L1138.922,48.73L1138.922,48.73z"/>
	<path fill="#F51484" d="M1163.668,42.734l7.266,18.321l7.324-18.321h8.516l-12.871,30.156h-6.094l-12.678-30.156H1163.668z"/>
	<path fill="#F51484" d="M1196.579,42.734V72.89h-7.832V42.734H1196.579z"/>
	<path fill="#F51484" d="M1223.278,43.457v9.395c-0.77-1.042-1.771-1.868-3.01-2.479c-1.211-0.561-2.5-0.84-3.865-0.84
		c-1.574,0-2.963,0.37-4.16,1.113c-1.25,0.716-2.215,1.72-2.893,3.008c-0.662,1.237-0.994,2.649-0.994,4.238
		s0.346,3.002,1.033,4.238c0.703,1.289,1.668,2.266,2.893,2.93c1.275,0.69,2.688,1.035,4.238,1.035c1.303,0,2.537-0.28,3.711-0.84
		c1.211-0.612,2.227-1.4,3.047-2.364v9.396c-1.523,0.47-2.844,0.833-3.965,1.095c-0.979,0.207-1.959,0.313-2.949,0.313
		c-1.992,0-4.01-0.385-6.055-1.151c-0.639-0.248-1.254-0.534-1.846-0.86c-0.594-0.325-1.17-0.683-1.729-1.073
		c-0.561-0.39-1.127-0.841-1.699-1.348c-3.229-2.917-4.844-6.719-4.844-11.406c0-2.044,0.391-4.029,1.172-5.957
		c0.807-1.991,1.9-3.685,3.281-5.078c1.055-1.055,2.174-1.934,3.357-2.637c1.238-0.729,2.553-1.289,3.947-1.679
		c1.432-0.377,2.818-0.566,4.158-0.566C1218.44,41.933,1220.829,42.441,1223.278,43.457z"/>
	<path fill="#F51484" d="M1245.29,49.375h-9.336v5.039h8.848v6.64h-8.848v5.196h9.336v6.64h-17.168V42.734h17.168V49.375
		L1245.29,49.375z"/>
	<path fill="#F51484" d="M1269.801,44.414l-3.125,6.073c-1.629-1.327-3.359-1.991-5.195-1.991c-0.832,0-1.594,0.228-2.285,0.683
		c-0.715,0.43-1.074,1.042-1.074,1.836c0,0.77,0.32,1.354,0.957,1.758c0.602,0.392,1.439,0.762,2.521,1.114l1.99,0.605
		c2.279,0.664,4.109,1.634,5.488,2.909c1.303,1.289,1.953,3.066,1.953,5.332c0,3.646-1.041,6.354-3.125,8.125
		c-2.238,1.889-5.09,2.832-8.555,2.832c-3.775,0-7.311-1.146-10.605-3.438l3.359-6.328c2.357,2.083,4.682,3.125,6.973,3.125
		c0.99,0,1.869-0.267,2.637-0.801c0.77-0.534,1.152-1.282,1.152-2.246c0-0.978-0.422-1.68-1.27-2.109
		c-0.793-0.403-1.953-0.847-3.477-1.328c-1.797-0.481-3.307-1.028-4.531-1.641c-1.158-0.586-2.053-1.413-2.686-2.48
		c-0.631-1.067-0.947-2.531-0.947-4.395c0-2.005,0.438-3.776,1.309-5.313c0.926-1.563,2.168-2.754,3.73-3.573
		c1.521-0.82,3.309-1.23,5.352-1.23c1.512,0,3.139,0.229,4.883,0.685C1266.922,43.046,1268.446,43.646,1269.801,44.414z"/>
</g>
<g>
	<path fill="#3AB4FF" d="M807.469,39.738c2.199,0,4.297,0.371,6.289,1.113c2.031,0.781,3.814,1.862,5.352,3.242
		c1.512,1.354,2.74,3.008,3.691,4.961c0.898,1.836,1.348,3.9,1.348,6.191c0,2.408-0.396,4.622-1.191,6.641
		c-0.834,2.058-2.006,3.835-3.516,5.332c-0.809,0.807-1.641,1.49-2.5,2.051c-0.859,0.562-1.789,1.035-2.793,1.426
		c-2.02,0.795-4.244,1.191-6.68,1.191c-2.396,0-4.609-0.396-6.641-1.191c-2.057-0.807-3.828-1.966-5.314-3.477
		c-0.74-0.729-1.395-1.52-1.963-2.373c-0.564-0.853-1.084-1.839-1.553-2.959c-0.807-2.044-1.211-4.258-1.211-6.64
		c0-1.081,0.115-2.143,0.344-3.185s0.568-2.044,1.025-3.008c0.963-1.979,2.188-3.633,3.672-4.961
		c1.549-1.393,3.352-2.473,5.41-3.242C803.178,40.109,805.254,39.738,807.469,39.738z M807.469,47.335
		c-1.537,0-2.949,0.371-4.238,1.114c-1.354,0.78-2.396,1.758-3.125,2.929c-0.77,1.276-1.152,2.578-1.152,3.906
		c0,1.653,0.385,3.19,1.152,4.609c0.781,1.419,1.811,2.5,3.086,3.242c1.342,0.769,2.768,1.153,4.277,1.153
		c1.535,0,2.961-0.386,4.277-1.153c1.275-0.729,2.305-1.81,3.086-3.242c0.77-1.38,1.152-2.917,1.152-4.609
		c0-1.367-0.385-2.669-1.152-3.906c-0.742-1.185-1.783-2.161-3.125-2.929C810.43,47.707,809.02,47.335,807.469,47.335z"/>
	<path fill="#3AB4FF" d="M846.122,40.734h7.832v16.953c0,0.781-0.014,1.472-0.039,2.071c-0.027,0.599-0.078,1.282-0.156,2.051
		c-0.131,1.225-0.424,2.383-0.879,3.478c-0.402,1.055-1.094,2.069-2.07,3.047c-0.832,0.795-1.797,1.444-2.891,1.953
		c-1.094,0.495-2.24,0.846-3.438,1.055c-1.225,0.234-2.447,0.352-3.672,0.352c-1.889,0-3.744-0.268-5.566-0.802
		c-0.898-0.272-1.705-0.618-2.422-1.034c-0.717-0.417-1.387-0.925-2.012-1.522c-0.979-0.978-1.674-1.992-2.092-3.048
		c-0.469-1.106-0.762-2.252-0.879-3.438c-0.131-1.327-0.193-2.715-0.193-4.16V40.734h7.832v15.879c0,1.614,0.109,3.015,0.332,4.199
		c0.182,1.067,0.67,2.012,1.465,2.832c0.781,0.78,1.959,1.172,3.535,1.172c1.563,0,2.732-0.391,3.516-1.172
		c0.781-0.782,1.275-1.726,1.484-2.832c0.207-1.224,0.313-2.624,0.313-4.199V40.734L846.122,40.734z"/>
	<path fill="#3AB4FF" d="M874.52,58.527l9.473,12.363h-9.766l-7.383-11.602h-0.098V70.89h-7.832V40.734h11.719
		c2.084,0,3.9,0.332,5.449,0.996c1.602,0.703,2.824,1.732,3.672,3.086c0.912,1.38,1.367,3.113,1.367,5.196
		c0,1.406-0.254,2.715-0.762,3.926c-0.549,1.225-1.297,2.221-2.246,2.988C877.137,57.72,875.938,58.253,874.52,58.527z
		 M866.747,46.73v7.521h0.762c1.08,0,1.992-0.091,2.734-0.273c0.807-0.234,1.457-0.611,1.953-1.133
		c0.508-0.521,0.762-1.302,0.762-2.344c0-1.056-0.254-1.843-0.762-2.363c-0.496-0.521-1.146-0.898-1.953-1.133
		c-0.717-0.183-1.629-0.273-2.734-0.273L866.747,46.73L866.747,46.73z"/>
	<path fill="#3AB4FF" d="M911.922,70.89h-12.09V40.734h11.211c5.963,0,8.945,2.611,8.945,7.832c0,1.498-0.281,2.761-0.84,3.789
		c-0.563,1.029-1.389,1.823-2.48,2.383v0.078c2.096,0.274,3.646,1.074,4.648,2.403c1.016,1.328,1.521,3.086,1.521,5.273
		c0,2.93-1.041,5.064-3.125,6.405C917.592,70.227,914.995,70.89,911.922,70.89z M907.665,46.73v5.84h0.896
		c1.289,0,2.313-0.201,3.066-0.604c0.781-0.404,1.172-1.172,1.172-2.305c0-1.25-0.416-2.052-1.25-2.402
		c-0.754-0.352-1.859-0.528-3.318-0.528H907.665z M907.665,58.409v6.484h1.016c1.939,0,3.457-0.202,4.551-0.604
		c1.119-0.353,1.68-1.219,1.68-2.599c0-1.354-0.469-2.246-1.406-2.677c-0.896-0.403-2.121-0.604-3.672-0.604h-1.365H907.665z"/>
	<path fill="#3AB4FF" d="M945.379,65.656h-10.801l-2.07,5.233h-8.32l11.602-30.156h8.555l11.367,30.156h-8.359L945.379,65.656z
		 M943.27,59.659l-3.203-9.609h-0.078l-3.24,9.609H943.27z"/>
	<path fill="#3AB4FF" d="M958.133,70.89V40.734h11.113c2.045,0,4.023,0.385,5.938,1.153c1.875,0.755,3.51,1.823,4.902,3.203
		c1.445,1.393,2.539,2.995,3.281,4.804c0.404,0.912,0.705,1.859,0.908,2.842c0.201,0.983,0.303,2.01,0.303,3.076
		c0,2.761-0.697,5.293-2.09,7.598c-1.395,2.345-3.256,4.174-5.586,5.488c-1.211,0.664-2.449,1.162-3.711,1.494
		c-1.266,0.332-2.578,0.497-3.945,0.497L958.133,70.89L958.133,70.89z M965.965,47.375V64.25h1.777c1.588,0,3.053-0.307,4.395-0.918
		c1.342-0.625,2.383-1.558,3.125-2.793c0.768-1.304,1.152-2.878,1.152-4.728c0-2.643-0.787-4.713-2.363-6.211
		c-0.521-0.48-1.1-0.889-1.738-1.221s-1.328-0.583-2.07-0.752s-1.551-0.254-2.422-0.254L965.965,47.375L965.965,47.375z"/>
	<path fill="#3AB4FF" d="M1006.688,65.656h-10.801l-2.07,5.233h-8.32L997.1,40.734h8.553l11.367,30.156h-8.359L1006.688,65.656z
		 M1004.579,59.659l-3.203-9.609h-0.078l-3.242,9.609H1004.579z"/>
	<path fill="#3AB4FF" d="M1039.129,42.414l-3.125,6.073c-1.629-1.327-3.359-1.991-5.195-1.991c-0.834,0-1.596,0.228-2.285,0.683
		c-0.717,0.43-1.074,1.042-1.074,1.836c0,0.77,0.32,1.355,0.957,1.758c0.6,0.392,1.439,0.762,2.52,1.114l1.992,0.605
		c2.279,0.664,4.107,1.634,5.488,2.909c1.303,1.289,1.953,3.066,1.953,5.332c0,3.646-1.041,6.354-3.125,8.125
		c-2.238,1.889-5.092,2.832-8.555,2.832c-3.775,0-7.311-1.146-10.605-3.438l3.359-6.328c2.357,2.083,4.682,3.125,6.973,3.125
		c0.99,0,1.869-0.267,2.637-0.801c0.77-0.534,1.152-1.282,1.152-2.246c0-0.978-0.424-1.68-1.27-2.11
		c-0.795-0.403-1.953-0.846-3.477-1.328c-1.797-0.48-3.309-1.027-4.531-1.64c-1.158-0.586-2.055-1.413-2.686-2.48
		c-0.633-1.067-0.947-2.531-0.947-4.395c0-2.005,0.436-3.776,1.309-5.313c0.924-1.563,2.168-2.754,3.73-3.573
		c1.521-0.82,3.307-1.23,5.352-1.23c1.51,0,3.137,0.229,4.883,0.685C1036.25,41.046,1037.774,41.646,1039.129,42.414z"/>
	<path fill="#3AB4FF" d="M1063.778,42.414l-3.125,6.073c-1.627-1.327-3.359-1.991-5.195-1.991c-0.834,0-1.596,0.228-2.285,0.683
		c-0.717,0.43-1.074,1.042-1.074,1.836c0,0.77,0.32,1.355,0.957,1.758c0.6,0.392,1.439,0.762,2.521,1.114l1.99,0.605
		c2.279,0.664,4.107,1.634,5.488,2.909c1.303,1.289,1.953,3.066,1.953,5.332c0,3.646-1.043,6.354-3.125,8.125
		c-2.238,1.889-5.092,2.832-8.555,2.832c-3.777,0-7.313-1.146-10.605-3.438l3.359-6.328c2.357,2.083,4.682,3.125,6.973,3.125
		c0.99,0,1.867-0.267,2.637-0.801c0.768-0.534,1.152-1.282,1.152-2.246c0-0.978-0.424-1.68-1.27-2.11
		c-0.795-0.403-1.953-0.846-3.479-1.328c-1.797-0.48-3.307-1.027-4.529-1.64c-1.158-0.586-2.055-1.413-2.688-2.48
		c-0.631-1.067-0.947-2.531-0.947-4.395c0-2.005,0.438-3.776,1.311-5.313c0.924-1.563,2.168-2.754,3.729-3.573
		c1.523-0.82,3.309-1.23,5.354-1.23c1.51,0,3.137,0.229,4.883,0.685C1060.899,41.046,1062.422,41.646,1063.778,42.414z"/>
	<path fill="#3AB4FF" d="M1102.137,42.414l-3.125,6.073c-1.629-1.327-3.359-1.991-5.195-1.991c-0.834,0-1.596,0.228-2.285,0.683
		c-0.717,0.43-1.074,1.042-1.074,1.836c0,0.77,0.32,1.355,0.957,1.758c0.6,0.392,1.439,0.762,2.521,1.114l1.99,0.605
		c2.279,0.664,4.109,1.634,5.488,2.909c1.303,1.289,1.953,3.066,1.953,5.332c0,3.646-1.041,6.354-3.125,8.125
		c-2.24,1.889-5.092,2.832-8.555,2.832c-3.775,0-7.313-1.146-10.605-3.438l3.359-6.328c2.355,2.083,4.682,3.125,6.973,3.125
		c0.99,0,1.869-0.267,2.637-0.801c0.77-0.534,1.152-1.282,1.152-2.246c0-0.978-0.424-1.68-1.27-2.11
		c-0.795-0.403-1.953-0.846-3.477-1.328c-1.797-0.48-3.309-1.027-4.531-1.64c-1.158-0.586-2.053-1.413-2.686-2.48
		s-0.947-2.531-0.947-4.395c0-2.005,0.436-3.776,1.309-5.313c0.926-1.563,2.168-2.754,3.73-3.573c1.521-0.82,3.307-1.23,5.352-1.23
		c1.51,0,3.137,0.229,4.883,0.685C1099.258,41.046,1100.782,41.646,1102.137,42.414z"/>
	<path fill="#3AB4FF" d="M1124.266,47.375h-9.336v5.039h8.848v6.64h-8.848v5.196h9.336v6.64h-17.168V40.734h17.168V47.375z"/>
	<path fill="#3AB4FF" d="M1144.696,58.527l9.473,12.363h-9.766l-7.385-11.602h-0.098V70.89h-7.832V40.734h11.719
		c2.084,0,3.9,0.332,5.449,0.996c1.604,0.703,2.826,1.732,3.672,3.086c0.912,1.38,1.367,3.113,1.367,5.196
		c0,1.406-0.254,2.715-0.762,3.926c-0.547,1.225-1.295,2.221-2.246,2.988C1147.313,57.72,1146.114,58.253,1144.696,58.527z
		 M1136.922,46.73v7.521h0.762c1.08,0,1.992-0.091,2.734-0.273c0.807-0.234,1.457-0.611,1.953-1.133
		c0.508-0.521,0.762-1.302,0.762-2.344c0-1.056-0.254-1.843-0.762-2.363c-0.496-0.521-1.146-0.898-1.953-1.133
		c-0.717-0.183-1.629-0.273-2.734-0.273L1136.922,46.73L1136.922,46.73z"/>
	<path fill="#3AB4FF" d="M1161.668,40.734l7.266,18.321l7.324-18.321h8.516l-12.871,30.156h-6.094l-12.678-30.156H1161.668z"/>
	<path fill="#3AB4FF" d="M1194.579,40.734V70.89h-7.832V40.734H1194.579z"/>
	<path fill="#3AB4FF" d="M1221.278,41.457v9.395c-0.77-1.042-1.771-1.868-3.01-2.479c-1.211-0.561-2.5-0.84-3.865-0.84
		c-1.574,0-2.963,0.37-4.16,1.113c-1.25,0.716-2.215,1.72-2.893,3.008c-0.662,1.237-0.994,2.649-0.994,4.238
		s0.346,3.001,1.033,4.238c0.703,1.289,1.668,2.266,2.893,2.93c1.275,0.69,2.688,1.035,4.238,1.035c1.303,0,2.537-0.28,3.711-0.84
		c1.211-0.612,2.227-1.4,3.047-2.364v9.396c-1.523,0.47-2.844,0.833-3.965,1.095c-0.979,0.207-1.959,0.313-2.949,0.313
		c-1.992,0-4.01-0.385-6.055-1.151c-0.639-0.248-1.252-0.534-1.846-0.86c-0.594-0.325-1.17-0.683-1.729-1.073
		c-0.561-0.39-1.127-0.841-1.699-1.348c-3.229-2.917-4.844-6.719-4.844-11.406c0-2.044,0.391-4.029,1.172-5.957
		c0.807-1.991,1.9-3.685,3.281-5.078c1.055-1.055,2.174-1.934,3.357-2.637c1.238-0.729,2.553-1.289,3.947-1.679
		c1.432-0.377,2.818-0.566,4.158-0.566C1216.44,39.933,1218.829,40.441,1221.278,41.457z"/>
	<path fill="#3AB4FF" d="M1243.29,47.375h-9.336v5.039h8.848v6.64h-8.848v5.196h9.336v6.64h-17.168V40.734h17.168V47.375
		L1243.29,47.375z"/>
	<path fill="#3AB4FF" d="M1267.801,42.414l-3.125,6.073c-1.629-1.327-3.359-1.991-5.195-1.991c-0.832,0-1.594,0.228-2.285,0.683
		c-0.715,0.43-1.074,1.042-1.074,1.836c0,0.77,0.32,1.355,0.957,1.758c0.602,0.392,1.439,0.762,2.521,1.114l1.99,0.605
		c2.279,0.664,4.109,1.634,5.488,2.909c1.303,1.289,1.953,3.066,1.953,5.332c0,3.646-1.041,6.354-3.125,8.125
		c-2.238,1.889-5.09,2.832-8.555,2.832c-3.775,0-7.311-1.146-10.605-3.438l3.359-6.328c2.357,2.083,4.682,3.125,6.973,3.125
		c0.99,0,1.869-0.267,2.637-0.801c0.77-0.534,1.152-1.282,1.152-2.246c0-0.978-0.422-1.68-1.27-2.11
		c-0.793-0.403-1.953-0.846-3.477-1.328c-1.797-0.48-3.307-1.027-4.531-1.64c-1.158-0.586-2.053-1.413-2.686-2.48
		c-0.631-1.067-0.947-2.531-0.947-4.395c0-2.005,0.438-3.776,1.309-5.313c0.926-1.563,2.168-2.754,3.73-3.573
		c1.521-0.82,3.309-1.23,5.352-1.23c1.512,0,3.139,0.229,4.883,0.685C1264.922,41.046,1266.446,41.646,1267.801,42.414z"/>
</g>
<g>
	<polygon fill="#F51484" points="1307.25,43.172 1326.083,58.5 1316.75,58.5 1307.25,50.711 	"/>
	<polygon fill="#F51484" points="1307.25,73.25 1326.083,58.5 1316.75,58.5 1307.25,65.711 	"/>
</g>
<g>
	<polygon fill="#3AB4FF" points="1307.25,41.172 1326.083,56.5 1316.75,56.5 1307.25,48.711 	"/>
	<polygon fill="#3AB4FF" points="1307.25,71.25 1326.083,56.5 1316.75,56.5 1307.25,63.711 	"/>
</g>
<g>
	<g>
		<rect x="32.25" y="26" fill="#6E1F75" width="658.5" height="75"/>
		<rect x="26.25" y="22.5" fill="#F51484" width="659.5" height="75"/>
		<rect x="21.75" y="19" fill="#F9F9F9" width="659.5" height="75"/>
	</g>
	<g>
		<path fill="#3AB4FF" d="M106.969,41.738c2.199,0,4.297,0.371,6.289,1.113c2.031,0.781,3.814,1.862,5.352,3.242
			c1.512,1.354,2.74,3.008,3.691,4.961c0.898,1.836,1.348,3.9,1.348,6.191c0,2.408-0.396,4.622-1.191,6.641
			c-0.832,2.058-2.004,3.835-3.516,5.332c-0.809,0.807-1.641,1.49-2.5,2.051c-0.859,0.562-1.789,1.035-2.793,1.426
			c-2.02,0.795-4.244,1.191-6.68,1.191c-2.396,0-4.609-0.396-6.641-1.191c-2.057-0.807-3.828-1.966-5.313-3.477
			c-0.742-0.729-1.396-1.52-1.963-2.373c-0.566-0.853-1.084-1.839-1.553-2.959c-0.807-2.044-1.211-4.258-1.211-6.64
			c0-1.081,0.115-2.143,0.342-3.185c0.229-1.042,0.57-2.044,1.025-3.008c0.965-1.979,2.188-3.633,3.672-4.961
			c1.551-1.393,3.354-2.473,5.41-3.242C102.678,42.109,104.754,41.738,106.969,41.738z M106.969,49.335
			c-1.537,0-2.949,0.371-4.238,1.114c-1.354,0.78-2.396,1.758-3.125,2.929c-0.77,1.276-1.152,2.578-1.152,3.906
			c0,1.653,0.385,3.19,1.152,4.609c0.781,1.419,1.811,2.5,3.086,3.241c1.342,0.769,2.768,1.153,4.277,1.153
			c1.535,0,2.961-0.386,4.277-1.153c1.277-0.729,2.305-1.81,3.086-3.241c0.77-1.381,1.152-2.917,1.152-4.609
			c0-1.367-0.385-2.669-1.152-3.906c-0.742-1.185-1.783-2.161-3.125-2.929C109.93,49.707,108.518,49.335,106.969,49.335z"/>
		<path fill="#3AB4FF" d="M145.622,42.734h7.832v16.953c0,0.781-0.014,1.472-0.039,2.071c-0.027,0.599-0.078,1.282-0.156,2.051
			c-0.131,1.225-0.424,2.383-0.879,3.478c-0.404,1.055-1.094,2.069-2.07,3.047c-0.834,0.795-1.797,1.444-2.891,1.953
			c-1.094,0.495-2.24,0.846-3.439,1.055c-1.223,0.234-2.447,0.352-3.672,0.352c-1.887,0-3.742-0.268-5.566-0.802
			c-0.898-0.272-1.705-0.618-2.422-1.034c-0.717-0.417-1.387-0.925-2.012-1.522c-0.977-0.978-1.672-1.992-2.09-3.048
			c-0.469-1.106-0.76-2.252-0.879-3.438c-0.129-1.327-0.195-2.715-0.195-4.16V42.734h7.832v15.879c0,1.614,0.111,3.015,0.332,4.199
			c0.184,1.067,0.672,2.012,1.465,2.832c0.781,0.78,1.961,1.172,3.535,1.172c1.564,0,2.736-0.391,3.518-1.172
			c0.779-0.782,1.275-1.726,1.482-2.832c0.209-1.225,0.314-2.624,0.314-4.199V42.734L145.622,42.734z"/>
		<path fill="#3AB4FF" d="M174.02,60.527l9.473,12.363h-9.766l-7.383-11.602h-0.098V72.89h-7.832V42.734h11.719
			c2.084,0,3.9,0.332,5.449,0.996c1.604,0.703,2.826,1.732,3.672,3.086c0.912,1.38,1.367,3.113,1.367,5.196
			c0,1.406-0.254,2.715-0.762,3.926c-0.547,1.225-1.295,2.221-2.246,2.988C176.637,59.72,175.438,60.253,174.02,60.527z
			 M166.247,48.73v7.521h0.76c1.082,0,1.992-0.091,2.736-0.273c0.807-0.234,1.457-0.611,1.953-1.133
			c0.508-0.521,0.762-1.302,0.762-2.344c0-1.056-0.254-1.843-0.762-2.363c-0.496-0.521-1.146-0.898-1.953-1.133
			c-0.717-0.183-1.629-0.273-2.736-0.273L166.247,48.73L166.247,48.73z"/>
		<path fill="#3AB4FF" d="M211.422,72.89h-12.09V42.734h11.211c5.963,0,8.945,2.611,8.945,7.832c0,1.498-0.281,2.761-0.84,3.789
			c-0.561,1.029-1.389,1.823-2.48,2.383v0.078c2.096,0.274,3.646,1.074,4.648,2.403c1.016,1.328,1.521,3.086,1.521,5.273
			c0,2.93-1.041,5.064-3.125,6.405C217.092,72.227,214.495,72.89,211.422,72.89z M207.165,48.73v5.84h0.898
			c1.287,0,2.311-0.201,3.064-0.604c0.781-0.404,1.172-1.172,1.172-2.305c0-1.25-0.416-2.052-1.25-2.402
			c-0.754-0.352-1.861-0.528-3.318-0.528H207.165z M207.165,60.409v6.484h1.016c1.939,0,3.457-0.202,4.551-0.604
			c1.119-0.353,1.68-1.219,1.68-2.599c0-1.354-0.469-2.246-1.406-2.677c-0.896-0.403-2.121-0.604-3.672-0.604h-1.367H207.165z"/>
		<path fill="#3AB4FF" d="M244.879,67.656h-10.801l-2.072,5.233h-8.318l11.602-30.156h8.553l11.367,30.156h-8.357L244.879,67.656z
			 M242.77,61.659l-3.203-9.609h-0.078l-3.242,9.609H242.77z"/>
		<path fill="#3AB4FF" d="M257.633,72.89V42.734h11.113c2.045,0,4.023,0.385,5.939,1.153c1.875,0.755,3.508,1.823,4.9,3.203
			c1.447,1.393,2.539,2.995,3.281,4.804c0.404,0.912,0.707,1.859,0.908,2.842c0.203,0.983,0.303,2.01,0.303,3.076
			c0,2.761-0.695,5.293-2.09,7.598c-1.395,2.345-3.254,4.174-5.586,5.488c-1.211,0.664-2.447,1.162-3.711,1.494
			s-2.578,0.497-3.945,0.497L257.633,72.89L257.633,72.89z M265.465,49.375V66.25h1.777c1.59,0,3.053-0.307,4.395-0.918
			c1.342-0.625,2.385-1.558,3.125-2.793c0.77-1.304,1.152-2.878,1.152-4.728c0-2.643-0.787-4.713-2.363-6.211
			c-0.521-0.48-1.1-0.889-1.738-1.221s-1.328-0.583-2.07-0.752s-1.549-0.254-2.422-0.254L265.465,49.375L265.465,49.375z"/>
		<path fill="#3AB4FF" d="M306.188,67.656h-10.801l-2.07,5.233h-8.32l11.602-30.156h8.555L316.52,72.89h-8.359L306.188,67.656z
			 M304.079,61.659l-3.203-9.609h-0.078l-3.242,9.609H304.079z"/>
		<path fill="#3AB4FF" d="M338.629,44.414l-3.125,6.073c-1.629-1.327-3.359-1.991-5.195-1.991c-0.832,0-1.596,0.228-2.285,0.683
			c-0.715,0.43-1.074,1.042-1.074,1.836c0,0.77,0.32,1.354,0.957,1.758c0.6,0.392,1.438,0.762,2.52,1.114l1.992,0.605
			c2.279,0.664,4.109,1.634,5.488,2.909c1.303,1.289,1.953,3.066,1.953,5.332c0,3.646-1.041,6.354-3.125,8.125
			c-2.238,1.889-5.09,2.832-8.553,2.832c-3.777,0-7.313-1.146-10.605-3.438l3.359-6.328c2.355,2.083,4.68,3.125,6.971,3.125
			c0.99,0,1.869-0.267,2.637-0.801c0.77-0.534,1.152-1.282,1.152-2.246c0-0.978-0.422-1.68-1.27-2.109
			c-0.795-0.403-1.953-0.847-3.477-1.328c-1.797-0.481-3.307-1.028-4.531-1.641c-1.16-0.586-2.055-1.413-2.686-2.48
			c-0.633-1.067-0.949-2.531-0.949-4.395c0-2.005,0.438-3.776,1.309-5.313c0.926-1.563,2.17-2.754,3.73-3.573
			c1.523-0.82,3.309-1.23,5.352-1.23c1.512,0,3.139,0.229,4.885,0.685C335.75,43.046,337.274,43.646,338.629,44.414z"/>
		<path fill="#3AB4FF" d="M363.278,44.414l-3.125,6.073c-1.629-1.327-3.359-1.991-5.195-1.991c-0.834,0-1.596,0.228-2.285,0.683
			c-0.717,0.43-1.074,1.042-1.074,1.836c0,0.77,0.32,1.354,0.957,1.758c0.6,0.392,1.438,0.762,2.52,1.114l1.992,0.605
			c2.277,0.664,4.107,1.634,5.488,2.909c1.303,1.289,1.953,3.066,1.953,5.332c0,3.646-1.043,6.354-3.125,8.125
			c-2.238,1.889-5.092,2.832-8.555,2.832c-3.777,0-7.311-1.146-10.604-3.438l3.357-6.328c2.357,2.083,4.682,3.125,6.975,3.125
			c0.988,0,1.867-0.267,2.635-0.801s1.152-1.282,1.152-2.246c0-0.978-0.424-1.68-1.27-2.109c-0.795-0.403-1.953-0.847-3.477-1.328
			c-1.797-0.481-3.309-1.028-4.531-1.641c-1.158-0.586-2.053-1.413-2.686-2.48s-0.947-2.531-0.947-4.395
			c0-2.005,0.438-3.776,1.309-5.313c0.924-1.563,2.168-2.754,3.729-3.573c1.525-0.82,3.309-1.23,5.354-1.23
			c1.51,0,3.137,0.229,4.883,0.685C360.399,43.046,361.922,43.646,363.278,44.414z"/>
		<path fill="#3AB4FF" d="M401.637,44.414l-3.125,6.073c-1.629-1.327-3.359-1.991-5.195-1.991c-0.834,0-1.596,0.228-2.285,0.683
			c-0.717,0.43-1.074,1.042-1.074,1.836c0,0.77,0.318,1.354,0.957,1.758c0.598,0.392,1.438,0.762,2.52,1.114l1.992,0.605
			c2.279,0.664,4.109,1.634,5.488,2.909c1.303,1.289,1.953,3.066,1.953,5.332c0,3.646-1.041,6.354-3.125,8.125
			c-2.24,1.889-5.09,2.832-8.555,2.832c-3.775,0-7.313-1.146-10.605-3.438l3.359-6.328c2.355,2.083,4.682,3.125,6.973,3.125
			c0.99,0,1.869-0.267,2.637-0.801c0.77-0.534,1.152-1.282,1.152-2.246c0-0.978-0.422-1.68-1.27-2.109
			c-0.795-0.403-1.953-0.847-3.477-1.328c-1.797-0.481-3.309-1.028-4.531-1.641c-1.16-0.586-2.053-1.413-2.686-2.48
			s-0.947-2.531-0.947-4.395c0-2.005,0.436-3.776,1.309-5.313c0.924-1.563,2.168-2.754,3.73-3.573c1.521-0.82,3.307-1.23,5.352-1.23
			c1.51,0,3.137,0.229,4.883,0.685C398.758,43.046,400.282,43.646,401.637,44.414z"/>
		<path fill="#3AB4FF" d="M423.766,49.375h-9.336v5.039h8.848v6.64h-8.848v5.196h9.336v6.64h-17.168V42.734h17.168V49.375z"/>
		<path fill="#3AB4FF" d="M444.196,60.527l9.473,12.363h-9.766l-7.385-11.602h-0.098V72.89h-7.832V42.734h11.719
			c2.084,0,3.9,0.332,5.449,0.996c1.604,0.703,2.826,1.732,3.672,3.086c0.912,1.38,1.367,3.113,1.367,5.196
			c0,1.406-0.254,2.715-0.762,3.926c-0.547,1.225-1.295,2.221-2.246,2.988C446.813,59.72,445.614,60.253,444.196,60.527z
			 M436.422,48.73v7.521h0.762c1.08,0,1.992-0.091,2.734-0.273c0.807-0.234,1.457-0.611,1.953-1.133
			c0.508-0.521,0.76-1.302,0.76-2.344c0-1.056-0.254-1.843-0.76-2.363c-0.496-0.521-1.146-0.898-1.953-1.133
			c-0.717-0.183-1.629-0.273-2.734-0.273L436.422,48.73L436.422,48.73z"/>
		<path fill="#3AB4FF" d="M461.168,42.734l7.266,18.321l7.324-18.321h8.516L471.403,72.89h-6.094l-12.676-30.156H461.168z"/>
		<path fill="#3AB4FF" d="M494.079,42.734V72.89h-7.832V42.734H494.079z"/>
		<path fill="#3AB4FF" d="M520.778,43.457v9.395c-0.77-1.042-1.771-1.868-3.01-2.479c-1.211-0.561-2.5-0.84-3.865-0.84
			c-1.576,0-2.963,0.37-4.16,1.113c-1.25,0.716-2.215,1.72-2.891,3.008c-0.664,1.237-0.996,2.649-0.996,4.238
			s0.344,3.002,1.035,4.238c0.703,1.289,1.666,2.266,2.891,2.93c1.275,0.69,2.688,1.035,4.238,1.035c1.303,0,2.539-0.28,3.711-0.84
			c1.211-0.612,2.227-1.4,3.047-2.364v9.396c-1.523,0.47-2.844,0.833-3.965,1.095c-0.977,0.207-1.959,0.313-2.949,0.313
			c-1.992,0-4.01-0.385-6.055-1.151c-0.637-0.248-1.254-0.534-1.846-0.86c-0.592-0.325-1.168-0.683-1.729-1.073
			c-0.561-0.39-1.125-0.841-1.699-1.348c-3.229-2.917-4.844-6.719-4.844-11.406c0-2.044,0.391-4.029,1.172-5.957
			c0.809-1.991,1.902-3.685,3.281-5.078c1.055-1.055,2.176-1.934,3.359-2.637c1.238-0.729,2.553-1.289,3.945-1.679
			c1.434-0.377,2.82-0.566,4.16-0.566C515.94,41.933,518.329,42.441,520.778,43.457z"/>
		<path fill="#3AB4FF" d="M542.79,49.375h-9.336v5.039h8.846v6.64h-8.846v5.196h9.336v6.64h-17.168V42.734h17.168V49.375z"/>
		<path fill="#3AB4FF" d="M567.301,44.414l-3.125,6.073c-1.629-1.327-3.359-1.991-5.195-1.991c-0.832,0-1.596,0.228-2.285,0.683
			c-0.715,0.43-1.074,1.042-1.074,1.836c0,0.77,0.32,1.354,0.957,1.758c0.598,0.392,1.439,0.762,2.521,1.114l1.99,0.605
			c2.279,0.664,4.109,1.634,5.49,2.909c1.301,1.289,1.953,3.066,1.953,5.332c0,3.646-1.043,6.354-3.125,8.125
			c-2.24,1.889-5.092,2.832-8.555,2.832c-3.775,0-7.313-1.146-10.605-3.438l3.359-6.328c2.355,2.083,4.682,3.125,6.973,3.125
			c0.99,0,1.869-0.267,2.637-0.801c0.77-0.534,1.152-1.282,1.152-2.246c0-0.978-0.422-1.68-1.27-2.109
			c-0.793-0.403-1.953-0.847-3.477-1.328c-1.797-0.481-3.309-1.028-4.531-1.641c-1.16-0.586-2.055-1.413-2.686-2.48
			c-0.633-1.067-0.949-2.531-0.949-4.395c0-2.005,0.438-3.776,1.309-5.313c0.926-1.563,2.168-2.754,3.73-3.573
			c1.523-0.82,3.307-1.23,5.352-1.23c1.512,0,3.139,0.229,4.883,0.685C564.422,43.046,565.946,43.646,567.301,44.414z"/>
	</g>
	<g>
		<path fill="#F51484" d="M104.969,39.738c2.199,0,4.297,0.371,6.289,1.113c2.031,0.781,3.814,1.862,5.352,3.242
			c1.512,1.354,2.74,3.008,3.691,4.961c0.898,1.836,1.348,3.9,1.348,6.191c0,2.408-0.396,4.622-1.191,6.641
			c-0.832,2.058-2.004,3.835-3.516,5.332c-0.809,0.807-1.641,1.49-2.5,2.051c-0.859,0.562-1.789,1.035-2.793,1.426
			c-2.02,0.795-4.244,1.191-6.68,1.191c-2.396,0-4.609-0.396-6.641-1.191c-2.057-0.807-3.828-1.966-5.313-3.477
			c-0.742-0.729-1.396-1.52-1.963-2.373c-0.566-0.853-1.084-1.839-1.553-2.959c-0.807-2.044-1.211-4.258-1.211-6.64
			c0-1.081,0.115-2.143,0.342-3.185c0.229-1.042,0.57-2.044,1.025-3.008c0.965-1.979,2.188-3.633,3.672-4.961
			c1.551-1.393,3.354-2.473,5.41-3.242C100.678,40.109,102.754,39.738,104.969,39.738z M104.969,47.335
			c-1.537,0-2.949,0.371-4.238,1.114c-1.354,0.78-2.396,1.758-3.125,2.929c-0.77,1.276-1.152,2.578-1.152,3.906
			c0,1.653,0.385,3.19,1.152,4.609c0.781,1.419,1.811,2.5,3.086,3.242c1.342,0.769,2.768,1.153,4.277,1.153
			c1.535,0,2.961-0.386,4.277-1.153c1.277-0.729,2.305-1.81,3.086-3.242c0.77-1.38,1.152-2.917,1.152-4.609
			c0-1.367-0.385-2.669-1.152-3.906c-0.742-1.185-1.783-2.161-3.125-2.929C107.93,47.707,106.518,47.335,104.969,47.335z"/>
		<path fill="#F51484" d="M143.622,40.734h7.832v16.953c0,0.781-0.014,1.472-0.039,2.071c-0.027,0.599-0.078,1.282-0.156,2.051
			c-0.131,1.225-0.424,2.383-0.879,3.478c-0.404,1.055-1.094,2.069-2.07,3.047c-0.834,0.795-1.797,1.444-2.891,1.953
			c-1.094,0.495-2.24,0.846-3.439,1.055c-1.223,0.234-2.447,0.352-3.672,0.352c-1.887,0-3.742-0.268-5.566-0.802
			c-0.898-0.272-1.705-0.618-2.422-1.034c-0.717-0.417-1.387-0.925-2.012-1.522c-0.977-0.978-1.672-1.992-2.09-3.048
			c-0.469-1.106-0.76-2.252-0.879-3.438c-0.129-1.327-0.195-2.715-0.195-4.16V40.734h7.832v15.879c0,1.614,0.111,3.015,0.332,4.199
			c0.184,1.067,0.672,2.012,1.465,2.832c0.781,0.78,1.961,1.172,3.535,1.172c1.564,0,2.736-0.391,3.518-1.172
			c0.779-0.782,1.275-1.726,1.482-2.832c0.209-1.224,0.314-2.624,0.314-4.199V40.734L143.622,40.734z"/>
		<path fill="#F51484" d="M172.02,58.527l9.473,12.363h-9.766l-7.383-11.602h-0.098V70.89h-7.832V40.734h11.719
			c2.084,0,3.9,0.332,5.449,0.996c1.604,0.703,2.826,1.732,3.672,3.086c0.912,1.38,1.367,3.113,1.367,5.196
			c0,1.406-0.254,2.715-0.762,3.926c-0.547,1.225-1.295,2.221-2.246,2.988C174.637,57.72,173.438,58.253,172.02,58.527z
			 M164.247,46.73v7.521h0.76c1.082,0,1.992-0.091,2.736-0.273c0.807-0.234,1.457-0.611,1.953-1.133
			c0.508-0.521,0.762-1.302,0.762-2.344c0-1.056-0.254-1.843-0.762-2.363c-0.496-0.521-1.146-0.898-1.953-1.133
			c-0.717-0.183-1.629-0.273-2.736-0.273L164.247,46.73L164.247,46.73z"/>
		<path fill="#F51484" d="M209.422,70.89h-12.09V40.734h11.211c5.963,0,8.945,2.611,8.945,7.832c0,1.498-0.281,2.761-0.84,3.789
			c-0.561,1.029-1.389,1.823-2.48,2.383v0.078c2.096,0.274,3.646,1.074,4.648,2.403c1.016,1.328,1.521,3.086,1.521,5.273
			c0,2.93-1.041,5.064-3.125,6.405C215.092,70.227,212.495,70.89,209.422,70.89z M205.165,46.73v5.84h0.898
			c1.287,0,2.311-0.201,3.064-0.604c0.781-0.404,1.172-1.172,1.172-2.305c0-1.25-0.416-2.052-1.25-2.402
			c-0.754-0.352-1.861-0.528-3.318-0.528H205.165z M205.165,58.409v6.484h1.016c1.939,0,3.457-0.202,4.551-0.604
			c1.119-0.353,1.68-1.219,1.68-2.599c0-1.354-0.469-2.246-1.406-2.677c-0.896-0.403-2.121-0.604-3.672-0.604h-1.367H205.165z"/>
		<path fill="#F51484" d="M242.879,65.656h-10.801l-2.072,5.233h-8.318l11.602-30.156h8.553l11.367,30.156h-8.357L242.879,65.656z
			 M240.77,59.659l-3.203-9.609h-0.078l-3.242,9.609H240.77z"/>
		<path fill="#F51484" d="M255.633,70.89V40.734h11.113c2.045,0,4.023,0.385,5.939,1.153c1.875,0.755,3.508,1.823,4.9,3.203
			c1.447,1.393,2.539,2.995,3.281,4.804c0.404,0.912,0.707,1.859,0.908,2.842c0.203,0.983,0.303,2.01,0.303,3.076
			c0,2.761-0.695,5.293-2.09,7.598c-1.395,2.345-3.254,4.174-5.586,5.488c-1.211,0.664-2.447,1.162-3.711,1.494
			s-2.578,0.497-3.945,0.497L255.633,70.89L255.633,70.89z M263.465,47.375V64.25h1.777c1.59,0,3.053-0.307,4.395-0.918
			c1.342-0.625,2.385-1.558,3.125-2.793c0.77-1.304,1.152-2.878,1.152-4.728c0-2.643-0.787-4.713-2.363-6.211
			c-0.521-0.48-1.1-0.889-1.738-1.221s-1.328-0.583-2.07-0.752s-1.549-0.254-2.422-0.254L263.465,47.375L263.465,47.375z"/>
		<path fill="#F51484" d="M304.188,65.656h-10.801l-2.07,5.233h-8.32l11.602-30.156h8.555L314.52,70.89h-8.359L304.188,65.656z
			 M302.079,59.659l-3.203-9.609h-0.078l-3.242,9.609H302.079z"/>
		<path fill="#F51484" d="M336.629,42.414l-3.125,6.073c-1.629-1.327-3.359-1.991-5.195-1.991c-0.832,0-1.596,0.228-2.285,0.683
			c-0.715,0.43-1.074,1.042-1.074,1.836c0,0.77,0.32,1.355,0.957,1.758c0.6,0.392,1.438,0.762,2.52,1.114l1.992,0.605
			c2.279,0.664,4.109,1.634,5.488,2.909c1.303,1.289,1.953,3.066,1.953,5.332c0,3.646-1.041,6.354-3.125,8.125
			c-2.238,1.889-5.09,2.832-8.553,2.832c-3.777,0-7.313-1.146-10.607-3.438l3.361-6.328c2.355,2.083,4.68,3.125,6.971,3.125
			c0.99,0,1.869-0.267,2.637-0.801c0.77-0.534,1.152-1.282,1.152-2.246c0-0.978-0.422-1.68-1.27-2.11
			c-0.795-0.403-1.953-0.846-3.477-1.328c-1.797-0.48-3.307-1.027-4.531-1.64c-1.16-0.586-2.055-1.413-2.686-2.48
			c-0.633-1.067-0.949-2.531-0.949-4.395c0-2.005,0.438-3.776,1.309-5.313c0.926-1.563,2.168-2.754,3.73-3.573
			c1.523-0.82,3.309-1.23,5.352-1.23c1.512,0,3.139,0.229,4.885,0.685C333.75,41.046,335.274,41.646,336.629,42.414z"/>
		<path fill="#F51484" d="M361.278,42.414l-3.125,6.073c-1.629-1.327-3.359-1.991-5.195-1.991c-0.834,0-1.596,0.228-2.285,0.683
			c-0.717,0.43-1.074,1.042-1.074,1.836c0,0.77,0.32,1.355,0.957,1.758c0.6,0.392,1.438,0.762,2.52,1.114l1.992,0.605
			c2.277,0.664,4.107,1.634,5.488,2.909c1.303,1.289,1.953,3.066,1.953,5.332c0,3.646-1.043,6.354-3.125,8.125
			c-2.238,1.889-5.092,2.832-8.555,2.832c-3.777,0-7.311-1.146-10.604-3.438l3.357-6.328c2.357,2.083,4.682,3.125,6.975,3.125
			c0.988,0,1.867-0.267,2.635-0.801s1.152-1.282,1.152-2.246c0-0.978-0.424-1.68-1.27-2.11c-0.795-0.403-1.953-0.846-3.477-1.328
			c-1.797-0.48-3.309-1.027-4.531-1.64c-1.158-0.586-2.053-1.413-2.686-2.48s-0.947-2.531-0.947-4.395
			c0-2.005,0.438-3.776,1.309-5.313c0.924-1.563,2.168-2.754,3.729-3.573c1.525-0.82,3.309-1.23,5.354-1.23
			c1.51,0,3.137,0.229,4.883,0.685C358.399,41.046,359.922,41.646,361.278,42.414z"/>
		<path fill="#F51484" d="M399.637,42.414l-3.125,6.073c-1.629-1.327-3.359-1.991-5.195-1.991c-0.834,0-1.596,0.228-2.285,0.683
			c-0.717,0.43-1.074,1.042-1.074,1.836c0,0.77,0.318,1.355,0.957,1.758c0.598,0.392,1.438,0.762,2.52,1.114l1.992,0.605
			c2.279,0.664,4.109,1.634,5.488,2.909c1.303,1.289,1.953,3.066,1.953,5.332c0,3.646-1.041,6.354-3.125,8.125
			c-2.24,1.889-5.09,2.832-8.555,2.832c-3.775,0-7.313-1.146-10.605-3.438l3.359-6.328c2.355,2.083,4.682,3.125,6.973,3.125
			c0.99,0,1.869-0.267,2.637-0.801c0.77-0.534,1.152-1.282,1.152-2.246c0-0.978-0.422-1.68-1.27-2.11
			c-0.795-0.403-1.953-0.846-3.477-1.328c-1.797-0.48-3.309-1.027-4.531-1.64c-1.16-0.586-2.053-1.413-2.686-2.48
			s-0.947-2.531-0.947-4.395c0-2.005,0.436-3.776,1.309-5.313c0.924-1.563,2.168-2.754,3.73-3.573c1.521-0.82,3.307-1.23,5.352-1.23
			c1.51,0,3.137,0.229,4.883,0.685C396.758,41.046,398.282,41.646,399.637,42.414z"/>
		<path fill="#F51484" d="M421.766,47.375h-9.336v5.039h8.848v6.64h-8.848v5.196h9.336v6.64h-17.168V40.734h17.168V47.375z"/>
		<path fill="#F51484" d="M442.196,58.527l9.473,12.363h-9.766l-7.385-11.602h-0.098V70.89h-7.832V40.734h11.719
			c2.084,0,3.9,0.332,5.449,0.996c1.604,0.703,2.826,1.732,3.672,3.086c0.912,1.38,1.367,3.113,1.367,5.196
			c0,1.406-0.254,2.715-0.762,3.926c-0.547,1.225-1.295,2.221-2.246,2.988C444.813,57.72,443.614,58.253,442.196,58.527z
			 M434.422,46.73v7.521h0.762c1.08,0,1.992-0.091,2.734-0.273c0.807-0.234,1.457-0.611,1.953-1.133
			c0.508-0.521,0.76-1.302,0.76-2.344c0-1.056-0.254-1.843-0.76-2.363c-0.496-0.521-1.146-0.898-1.953-1.133
			c-0.717-0.183-1.629-0.273-2.734-0.273L434.422,46.73L434.422,46.73z"/>
		<path fill="#F51484" d="M459.168,40.734l7.266,18.321l7.324-18.321h8.516L469.403,70.89h-6.094l-12.676-30.156H459.168z"/>
		<path fill="#F51484" d="M492.079,40.734V70.89h-7.832V40.734H492.079z"/>
		<path fill="#F51484" d="M518.778,41.457v9.395c-0.77-1.042-1.771-1.868-3.01-2.479c-1.211-0.561-2.5-0.84-3.865-0.84
			c-1.576,0-2.963,0.37-4.16,1.113c-1.25,0.716-2.215,1.72-2.891,3.008c-0.664,1.237-0.996,2.649-0.996,4.238
			s0.344,3.001,1.035,4.238c0.703,1.289,1.666,2.266,2.891,2.93c1.275,0.69,2.688,1.035,4.238,1.035c1.303,0,2.539-0.28,3.711-0.84
			c1.211-0.612,2.227-1.4,3.047-2.364v9.396c-1.523,0.47-2.844,0.833-3.965,1.095c-0.977,0.207-1.959,0.313-2.949,0.313
			c-1.992,0-4.01-0.385-6.055-1.151c-0.637-0.248-1.254-0.534-1.846-0.86c-0.592-0.325-1.168-0.683-1.729-1.073
			c-0.561-0.39-1.125-0.841-1.699-1.348c-3.229-2.917-4.844-6.719-4.844-11.406c0-2.044,0.391-4.029,1.172-5.957
			c0.809-1.991,1.902-3.685,3.281-5.078c1.055-1.055,2.176-1.934,3.359-2.637c1.238-0.729,2.553-1.289,3.945-1.679
			c1.434-0.377,2.82-0.566,4.16-0.566C513.94,39.933,516.329,40.441,518.778,41.457z"/>
		<path fill="#F51484" d="M540.79,47.375h-9.336v5.039h8.846v6.64h-8.846v5.196h9.336v6.64h-17.168V40.734h17.168V47.375z"/>
		<path fill="#F51484" d="M565.301,42.414l-3.125,6.073c-1.629-1.327-3.359-1.991-5.195-1.991c-0.832,0-1.596,0.228-2.285,0.683
			c-0.715,0.43-1.074,1.042-1.074,1.836c0,0.77,0.32,1.355,0.957,1.758c0.598,0.392,1.439,0.762,2.521,1.114l1.99,0.605
			c2.279,0.664,4.109,1.634,5.49,2.909c1.301,1.289,1.953,3.066,1.953,5.332c0,3.646-1.043,6.354-3.125,8.125
			c-2.24,1.889-5.092,2.832-8.555,2.832c-3.775,0-7.313-1.146-10.605-3.438l3.359-6.328c2.355,2.083,4.682,3.125,6.973,3.125
			c0.99,0,1.869-0.267,2.637-0.801c0.77-0.534,1.152-1.282,1.152-2.246c0-0.978-0.422-1.68-1.27-2.11
			c-0.793-0.403-1.953-0.846-3.477-1.328c-1.797-0.48-3.309-1.027-4.531-1.64c-1.16-0.586-2.055-1.413-2.686-2.48
			c-0.633-1.067-0.949-2.531-0.949-4.395c0-2.005,0.438-3.776,1.309-5.313c0.926-1.563,2.168-2.754,3.73-3.573
			c1.523-0.82,3.307-1.23,5.352-1.23c1.512,0,3.139,0.229,4.883,0.685C562.422,41.046,563.946,41.646,565.301,42.414z"/>
	</g>
	<g>
		<polygon fill="#3AB4FF" points="604.75,43.172 623.583,58.5 614.25,58.5 604.75,50.711 		"/>
		<polygon fill="#3AB4FF" points="604.75,73.25 623.583,58.5 614.25,58.5 604.75,65.711 		"/>
	</g>
	<g>
		<polygon fill="#F51484" points="604.75,41.172 623.583,56.5 614.25,56.5 604.75,48.711 		"/>
		<polygon fill="#F51484" points="604.75,71.25 623.583,56.5 614.25,56.5 604.75,63.711 		"/>
	</g>
</g>
</svg>
