<?xml version="1.0" encoding="utf-8"?>
<!-- Generator: Adobe Illustrator 16.0.0, SVG Export Plug-In . SVG Version: 6.00 Build 0)  -->
<!DOCTYPE svg PUBLIC "-//W3C//DTD SVG 1.1//EN" "http://www.w3.org/Graphics/SVG/1.1/DTD/svg11.dtd">
<svg version="1.1" id="Layer_1" xmlns="http://www.w3.org/2000/svg" xmlns:xlink="http://www.w3.org/1999/xlink" x="0px" y="0px"
	 width="1409.524px" height="111.905px" viewBox="696.832 41.881 1409.524 111.905"
	 enable-background="new 696.832 41.881 1409.524 111.905" xml:space="preserve">
<g>
	<rect x="1424.75" y="66" fill="#F9F9F9" width="658.5" height="75"/>
	<rect x="1418.75" y="62.5" fill="#F51484" width="659.5" height="75"/>
	<rect x="1414.25" y="59" fill="#6E1F75" width="659.5" height="75"/>
</g>
<g>
	<path fill="#F51484" d="M1499.469,81.738c2.2,0,4.297,0.371,6.289,1.113c2.031,0.781,3.815,1.862,5.352,3.242
		c1.511,1.354,2.74,3.008,3.691,4.961c0.898,1.836,1.348,3.9,1.348,6.191c0,2.409-0.397,4.622-1.191,6.641
		c-0.834,2.058-2.006,3.835-3.516,5.332c-0.808,0.807-1.641,1.49-2.5,2.051s-1.79,1.035-2.793,1.426
		c-2.019,0.794-4.245,1.191-6.68,1.191c-2.396,0-4.609-0.397-6.641-1.191c-2.057-0.807-3.828-1.966-5.313-3.477
		c-0.742-0.729-1.396-1.52-1.963-2.373c-0.566-0.853-1.084-1.839-1.553-2.959c-0.807-2.044-1.211-4.258-1.211-6.64
		c0-1.081,0.114-2.142,0.343-3.184c0.228-1.042,0.569-2.044,1.025-3.008c0.964-1.979,2.188-3.633,3.672-4.961
		c1.55-1.393,3.353-2.473,5.41-3.242C1495.179,82.109,1497.255,81.738,1499.469,81.738z M1499.469,89.335
		c-1.536,0-2.949,0.371-4.238,1.114c-1.354,0.781-2.396,1.758-3.125,2.929c-0.769,1.277-1.152,2.578-1.152,3.906
		c0,1.654,0.384,3.191,1.152,4.61c0.781,1.419,1.81,2.5,3.086,3.241c1.341,0.769,2.767,1.153,4.277,1.153
		c1.536,0,2.962-0.385,4.277-1.153c1.276-0.729,2.305-1.81,3.086-3.241c0.769-1.381,1.152-2.917,1.152-4.61
		c0-1.367-0.384-2.669-1.152-3.906c-0.741-1.184-1.783-2.161-3.125-2.929C1502.431,89.707,1501.019,89.335,1499.469,89.335z"/>
	<path fill="#F51484" d="M1538.121,82.734h7.832v16.953c0,0.781-0.013,1.471-0.039,2.071c-0.026,0.599-0.078,1.282-0.155,2.051
		c-0.131,1.224-0.424,2.383-0.88,3.477c-0.403,1.055-1.094,2.07-2.07,3.047c-0.833,0.795-1.797,1.445-2.891,1.953
		c-1.094,0.495-2.239,0.846-3.438,1.055c-1.224,0.234-2.447,0.352-3.672,0.352c-1.888,0-3.743-0.268-5.566-0.802
		c-0.898-0.273-1.705-0.618-2.422-1.034c-0.717-0.417-1.387-0.925-2.012-1.523c-0.977-0.977-1.673-1.992-2.09-3.048
		c-0.469-1.106-0.762-2.252-0.879-3.438c-0.131-1.327-0.195-2.715-0.195-4.16V82.734h7.832v15.879c0,1.614,0.11,3.014,0.332,4.199
		c0.182,1.067,0.67,2.011,1.465,2.832c0.781,0.78,1.959,1.172,3.535,1.172c1.563,0,2.734-0.391,3.516-1.172
		c0.781-0.782,1.275-1.726,1.484-2.832c0.208-1.225,0.313-2.624,0.313-4.199V82.734L1538.121,82.734z"/>
	<path fill="#F51484" d="M1566.52,100.527l9.473,12.363h-9.766l-7.383-11.602h-0.098v11.602h-7.832V82.734h11.72
		c2.083,0,3.899,0.332,5.448,0.996c1.602,0.703,2.825,1.732,3.672,3.086c0.912,1.38,1.367,3.113,1.367,5.196
		c0,1.406-0.254,2.715-0.761,3.926c-0.548,1.224-1.296,2.22-2.246,2.988C1569.137,99.72,1567.938,100.253,1566.52,100.527z
		 M1558.746,88.73v7.52h0.762c1.081,0,1.992-0.091,2.734-0.273c0.808-0.235,1.458-0.612,1.953-1.133
		c0.508-0.521,0.762-1.302,0.762-2.344c0-1.055-0.254-1.843-0.762-2.363c-0.495-0.521-1.146-0.898-1.953-1.133
		c-0.717-0.182-1.628-0.273-2.734-0.273L1558.746,88.73L1558.746,88.73z"/>
	<path fill="#F51484" d="M1603.922,112.89h-12.09V82.734h11.211c5.963,0,8.945,2.611,8.945,7.832c0,1.498-0.28,2.76-0.84,3.789
		c-0.561,1.029-1.387,1.823-2.48,2.383v0.078c2.096,0.274,3.646,1.074,4.648,2.403c1.016,1.328,1.523,3.086,1.523,5.273
		c0,2.93-1.042,5.065-3.125,6.406C1609.592,112.227,1606.995,112.89,1603.922,112.89z M1599.664,88.73v5.84h0.898
		c1.289,0,2.312-0.202,3.066-0.605c0.781-0.404,1.172-1.172,1.172-2.305c0-1.25-0.416-2.051-1.25-2.402
		c-0.755-0.352-1.861-0.528-3.32-0.528H1599.664z M1599.664,100.409v6.485h1.016c1.94,0,3.457-0.202,4.551-0.605
		c1.12-0.352,1.68-1.218,1.68-2.598c0-1.354-0.469-2.246-1.406-2.677c-0.898-0.403-2.122-0.605-3.672-0.605h-1.367H1599.664z"/>
	<path fill="#F51484" d="M1637.379,107.656h-10.801l-2.07,5.234h-8.32l11.602-30.156h8.554l11.367,30.156h-8.359L1637.379,107.656z
		 M1635.27,101.659l-3.203-9.609h-0.078l-3.241,9.609H1635.27z"/>
	<path fill="#F51484" d="M1650.133,112.89V82.734h11.113c2.045,0,4.023,0.384,5.938,1.153c1.875,0.755,3.51,1.823,4.902,3.203
		c1.446,1.393,2.539,2.995,3.281,4.804c0.404,0.912,0.706,1.859,0.908,2.842c0.201,0.983,0.303,2.009,0.303,3.076
		c0,2.76-0.697,5.293-2.09,7.597c-1.394,2.345-3.256,4.174-5.586,5.489c-1.211,0.664-2.448,1.162-3.711,1.494
		c-1.264,0.332-2.578,0.497-3.945,0.497H1650.133z M1657.965,89.375v16.875h1.777c1.589,0,3.053-0.306,4.395-0.918
		c1.342-0.625,2.383-1.557,3.125-2.793c0.768-1.303,1.152-2.878,1.152-4.727c0-2.643-0.787-4.713-2.363-6.211
		c-0.521-0.481-1.1-0.889-1.738-1.221c-0.639-0.332-1.328-0.583-2.07-0.752c-0.742-0.169-1.551-0.254-2.422-0.254H1657.965z"/>
	<path fill="#F51484" d="M1698.688,107.656h-10.801l-2.07,5.234h-8.32l11.602-30.156h8.554l11.367,30.156h-8.359L1698.688,107.656z
		 M1696.578,101.659l-3.203-9.609h-0.078l-3.241,9.609H1696.578z"/>
	<path fill="#F51484" d="M1731.129,84.414l-3.125,6.074c-1.628-1.328-3.359-1.992-5.195-1.992c-0.834,0-1.596,0.228-2.285,0.683
		c-0.717,0.43-1.074,1.042-1.074,1.836c0,0.769,0.319,1.354,0.957,1.758c0.599,0.391,1.439,0.761,2.52,1.114l1.992,0.605
		c2.278,0.664,4.107,1.634,5.488,2.91c1.303,1.289,1.953,3.066,1.953,5.332c0,3.646-1.042,6.354-3.125,8.125
		c-2.239,1.888-5.092,2.832-8.555,2.832c-3.776,0-7.311-1.146-10.605-3.438l3.359-6.328c2.357,2.083,4.681,3.125,6.973,3.125
		c0.99,0,1.868-0.267,2.637-0.801c0.768-0.534,1.152-1.282,1.152-2.246c0-0.977-0.424-1.68-1.27-2.109
		c-0.795-0.404-1.953-0.847-3.477-1.328c-1.797-0.482-3.307-1.029-4.531-1.641c-1.158-0.586-2.054-1.413-2.686-2.48
		c-0.631-1.068-0.947-2.532-0.947-4.395c0-2.005,0.437-3.776,1.309-5.313c0.925-1.563,2.168-2.754,3.73-3.574
		c1.523-0.82,3.307-1.23,5.352-1.23c1.511,0,3.138,0.228,4.883,0.684C1728.251,83.046,1729.774,83.646,1731.129,84.414z"/>
	<path fill="#F51484" d="M1755.777,84.414l-3.125,6.074c-1.628-1.328-3.359-1.992-5.195-1.992c-0.833,0-1.595,0.228-2.285,0.683
		c-0.716,0.43-1.073,1.042-1.073,1.836c0,0.769,0.319,1.354,0.957,1.758c0.599,0.391,1.438,0.761,2.52,1.114l1.991,0.605
		c2.279,0.664,4.109,1.634,5.489,2.91c1.302,1.289,1.952,3.066,1.952,5.332c0,3.646-1.041,6.354-3.125,8.125
		c-2.238,1.888-5.09,2.832-8.554,2.832c-3.776,0-7.312-1.146-10.605-3.438l3.359-6.328c2.356,2.083,4.681,3.125,6.973,3.125
		c0.989,0,1.868-0.267,2.636-0.801c0.769-0.534,1.153-1.282,1.153-2.246c0-0.977-0.424-1.68-1.27-2.109
		c-0.795-0.404-1.953-0.847-3.477-1.328c-1.798-0.482-3.308-1.029-4.531-1.641c-1.159-0.586-2.054-1.413-2.686-2.48
		c-0.632-1.068-0.947-2.532-0.947-4.395c0-2.005,0.437-3.776,1.309-5.313c0.925-1.563,2.168-2.754,3.73-3.574
		c1.523-0.82,3.307-1.23,5.352-1.23c1.511,0,3.138,0.228,4.882,0.684C1752.899,83.046,1754.423,83.646,1755.777,84.414z"/>
	<path fill="#F51484" d="M1794.137,84.414l-3.125,6.074c-1.629-1.328-3.359-1.992-5.195-1.992c-0.834,0-1.595,0.228-2.285,0.683
		c-0.717,0.43-1.074,1.042-1.074,1.836c0,0.769,0.319,1.354,0.957,1.758c0.599,0.391,1.438,0.761,2.52,1.114l1.992,0.605
		c2.278,0.664,4.108,1.634,5.488,2.91c1.302,1.289,1.953,3.066,1.953,5.332c0,3.646-1.042,6.354-3.125,8.125
		c-2.24,1.888-5.092,2.832-8.555,2.832c-3.776,0-7.312-1.146-10.605-3.438l3.359-6.328c2.356,2.083,4.681,3.125,6.973,3.125
		c0.989,0,1.868-0.267,2.637-0.801c0.768-0.534,1.152-1.282,1.152-2.246c0-0.977-0.424-1.68-1.27-2.109
		c-0.794-0.404-1.953-0.847-3.477-1.328c-1.797-0.482-3.308-1.029-4.531-1.641c-1.158-0.586-2.053-1.413-2.686-2.48
		c-0.632-1.068-0.947-2.532-0.947-4.395c0-2.005,0.437-3.776,1.309-5.313c0.925-1.563,2.168-2.754,3.73-3.574
		c1.523-0.82,3.308-1.23,5.352-1.23c1.51,0,3.137,0.228,4.883,0.684C1791.259,83.046,1792.782,83.646,1794.137,84.414z"/>
	<path fill="#F51484" d="M1816.266,89.375h-9.336v5.039h8.848v6.64h-8.848v5.196h9.336v6.64h-17.168V82.734h17.168V89.375z"/>
	<path fill="#F51484" d="M1836.695,100.527l9.473,12.363h-9.766l-7.383-11.602h-0.098v11.602h-7.832V82.734h11.719
		c2.084,0,3.9,0.332,5.449,0.996c1.602,0.703,2.825,1.732,3.672,3.086c0.911,1.38,1.367,3.113,1.367,5.196
		c0,1.406-0.254,2.715-0.762,3.926c-0.547,1.224-1.296,2.22-2.246,2.988C1839.313,99.72,1838.114,100.253,1836.695,100.527z
		 M1828.922,88.73v7.52h0.762c1.081,0,1.992-0.091,2.734-0.273c0.808-0.235,1.458-0.612,1.953-1.133
		c0.508-0.521,0.762-1.302,0.762-2.344c0-1.055-0.254-1.843-0.762-2.363c-0.495-0.521-1.146-0.898-1.953-1.133
		c-0.716-0.182-1.628-0.273-2.734-0.273L1828.922,88.73L1828.922,88.73z"/>
	<path fill="#F51484" d="M1853.668,82.734l7.266,18.321l7.324-18.321h8.516l-12.871,30.156h-6.094l-12.677-30.156H1853.668z"/>
	<path fill="#F51484" d="M1886.578,82.734v30.156h-7.832V82.734H1886.578z"/>
	<path fill="#F51484" d="M1913.277,83.457v9.395c-0.769-1.042-1.771-1.868-3.008-2.48c-1.211-0.56-2.5-0.84-3.867-0.84
		c-1.574,0-2.962,0.371-4.16,1.114c-1.25,0.716-2.214,1.719-2.891,3.008c-0.664,1.237-0.996,2.649-0.996,4.238
		s0.346,3.002,1.035,4.238c0.703,1.289,1.668,2.266,2.891,2.93c1.277,0.69,2.689,1.035,4.238,1.035c1.303,0,2.539-0.28,3.711-0.84
		c1.211-0.612,2.227-1.4,3.047-2.364v9.395c-1.523,0.47-2.844,0.833-3.965,1.095c-0.977,0.207-1.959,0.313-2.948,0.313
		c-1.992,0-4.011-0.385-6.055-1.152c-0.638-0.248-1.253-0.534-1.846-0.86c-0.593-0.325-1.169-0.683-1.729-1.073
		s-1.126-0.841-1.698-1.348c-3.23-2.917-4.845-6.719-4.845-11.406c0-2.044,0.391-4.03,1.173-5.957c0.807-1.992,1.9-3.685,3.28-5.078
		c1.055-1.055,2.175-1.934,3.359-2.637c1.237-0.729,2.552-1.289,3.946-1.679c1.432-0.377,2.818-0.566,4.159-0.566
		C1908.44,81.933,1910.829,82.441,1913.277,83.457z"/>
	<path fill="#F51484" d="M1935.289,89.375h-9.336v5.039h8.848v6.64h-8.848v5.196h9.336v6.64h-17.168V82.734h17.168V89.375
		L1935.289,89.375z"/>
	<path fill="#F51484" d="M1959.801,84.414l-3.125,6.074c-1.628-1.328-3.359-1.992-5.195-1.992c-0.833,0-1.594,0.228-2.285,0.683
		c-0.716,0.43-1.074,1.042-1.074,1.836c0,0.769,0.32,1.354,0.957,1.758c0.6,0.391,1.439,0.761,2.52,1.114l1.992,0.605
		c2.279,0.664,4.109,1.634,5.488,2.91c1.303,1.289,1.953,3.066,1.953,5.332c0,3.646-1.041,6.354-3.125,8.125
		c-2.239,1.888-5.091,2.832-8.555,2.832c-3.775,0-7.311-1.146-10.605-3.438l3.359-6.328c2.357,2.083,4.682,3.125,6.973,3.125
		c0.99,0,1.868-0.267,2.637-0.801s1.152-1.282,1.152-2.246c0-0.977-0.423-1.68-1.27-2.109c-0.793-0.404-1.953-0.847-3.477-1.328
		c-1.797-0.482-3.307-1.029-4.531-1.641c-1.158-0.586-2.053-1.413-2.685-2.48c-0.632-1.068-0.948-2.532-0.948-4.395
		c0-2.005,0.438-3.776,1.309-5.313c0.926-1.563,2.168-2.754,3.73-3.574c1.523-0.82,3.309-1.23,5.352-1.23
		c1.511,0,3.138,0.228,4.883,0.684C1956.923,83.046,1958.446,83.646,1959.801,84.414z"/>
</g>
<g>
	<path fill="#3AB4FF" d="M1497.469,79.738c2.2,0,4.297,0.371,6.289,1.113c2.031,0.781,3.815,1.862,5.352,3.242
		c1.511,1.354,2.74,3.008,3.691,4.961c0.898,1.836,1.348,3.9,1.348,6.191c0,2.409-0.397,4.622-1.191,6.641
		c-0.834,2.058-2.006,3.835-3.516,5.332c-0.808,0.807-1.641,1.49-2.5,2.051s-1.79,1.035-2.793,1.426
		c-2.019,0.794-4.245,1.191-6.68,1.191c-2.396,0-4.609-0.397-6.641-1.191c-2.057-0.807-3.828-1.966-5.313-3.477
		c-0.742-0.729-1.396-1.52-1.963-2.373c-0.566-0.853-1.084-1.839-1.553-2.959c-0.807-2.044-1.211-4.258-1.211-6.64
		c0-1.081,0.114-2.142,0.343-3.184c0.228-1.042,0.569-2.044,1.025-3.008c0.964-1.979,2.188-3.633,3.672-4.961
		c1.55-1.393,3.353-2.473,5.41-3.242C1493.179,80.109,1495.255,79.738,1497.469,79.738z M1497.469,87.335
		c-1.536,0-2.949,0.371-4.238,1.114c-1.354,0.781-2.396,1.758-3.125,2.929c-0.769,1.277-1.152,2.578-1.152,3.906
		c0,1.654,0.384,3.191,1.152,4.61c0.781,1.419,1.81,2.5,3.086,3.242c1.341,0.769,2.767,1.153,4.277,1.153
		c1.536,0,2.962-0.385,4.277-1.153c1.276-0.729,2.305-1.81,3.086-3.242c0.769-1.38,1.152-2.917,1.152-4.61
		c0-1.367-0.384-2.669-1.152-3.906c-0.741-1.184-1.783-2.161-3.125-2.929C1500.431,87.707,1499.019,87.335,1497.469,87.335z"/>
	<path fill="#3AB4FF" d="M1536.121,80.734h7.832v16.953c0,0.781-0.013,1.471-0.039,2.071c-0.026,0.599-0.078,1.282-0.155,2.051
		c-0.131,1.224-0.424,2.383-0.88,3.477c-0.403,1.055-1.094,2.07-2.07,3.047c-0.833,0.795-1.797,1.445-2.891,1.953
		c-1.094,0.495-2.239,0.846-3.438,1.055c-1.224,0.234-2.447,0.352-3.672,0.352c-1.888,0-3.743-0.268-5.566-0.802
		c-0.898-0.273-1.705-0.618-2.422-1.034c-0.717-0.417-1.387-0.925-2.012-1.523c-0.977-0.977-1.673-1.992-2.09-3.048
		c-0.469-1.106-0.762-2.252-0.879-3.438c-0.131-1.327-0.195-2.715-0.195-4.16V80.734h7.832v15.879c0,1.614,0.11,3.014,0.332,4.199
		c0.182,1.067,0.67,2.011,1.465,2.832c0.781,0.78,1.959,1.172,3.535,1.172c1.563,0,2.734-0.391,3.516-1.172
		c0.781-0.782,1.275-1.726,1.484-2.832c0.208-1.224,0.313-2.624,0.313-4.199V80.734L1536.121,80.734z"/>
	<path fill="#3AB4FF" d="M1564.52,98.527l9.473,12.363h-9.766l-7.383-11.602h-0.098v11.602h-7.832V80.734h11.72
		c2.083,0,3.899,0.332,5.448,0.996c1.602,0.703,2.825,1.732,3.672,3.086c0.912,1.38,1.367,3.113,1.367,5.196
		c0,1.406-0.254,2.715-0.761,3.926c-0.548,1.224-1.296,2.22-2.246,2.988C1567.137,97.72,1565.938,98.253,1564.52,98.527z
		 M1556.746,86.73v7.52h0.762c1.081,0,1.992-0.091,2.734-0.273c0.808-0.235,1.458-0.612,1.953-1.133
		c0.508-0.521,0.762-1.302,0.762-2.344c0-1.055-0.254-1.843-0.762-2.363c-0.495-0.521-1.146-0.898-1.953-1.133
		c-0.717-0.182-1.628-0.273-2.734-0.273L1556.746,86.73L1556.746,86.73z"/>
	<path fill="#3AB4FF" d="M1601.922,110.89h-12.09V80.734h11.211c5.963,0,8.945,2.611,8.945,7.832c0,1.498-0.28,2.76-0.84,3.789
		c-0.561,1.029-1.387,1.823-2.48,2.383v0.078c2.096,0.274,3.646,1.074,4.648,2.403c1.016,1.328,1.523,3.086,1.523,5.273
		c0,2.93-1.042,5.065-3.125,6.406C1607.592,110.227,1604.995,110.89,1601.922,110.89z M1597.664,86.73v5.84h0.898
		c1.289,0,2.312-0.202,3.066-0.605c0.781-0.404,1.172-1.172,1.172-2.305c0-1.25-0.416-2.051-1.25-2.402
		c-0.755-0.352-1.861-0.528-3.32-0.528H1597.664z M1597.664,98.409v6.485h1.016c1.94,0,3.457-0.202,4.551-0.605
		c1.12-0.352,1.68-1.218,1.68-2.598c0-1.354-0.469-2.246-1.406-2.677c-0.898-0.403-2.122-0.605-3.672-0.605h-1.366H1597.664z"/>
	<path fill="#3AB4FF" d="M1635.379,105.656h-10.801l-2.07,5.234h-8.32l11.602-30.156h8.554l11.367,30.156h-8.359L1635.379,105.656z
		 M1633.27,99.659l-3.203-9.609h-0.078l-3.241,9.609H1633.27z"/>
	<path fill="#3AB4FF" d="M1648.133,110.89V80.734h11.113c2.045,0,4.023,0.384,5.938,1.153c1.875,0.755,3.51,1.823,4.902,3.203
		c1.446,1.393,2.539,2.995,3.281,4.804c0.404,0.912,0.706,1.859,0.908,2.842c0.201,0.983,0.303,2.009,0.303,3.076
		c0,2.76-0.697,5.293-2.09,7.597c-1.394,2.345-3.256,4.174-5.586,5.489c-1.211,0.664-2.448,1.162-3.711,1.494
		c-1.264,0.332-2.578,0.497-3.945,0.497H1648.133z M1655.965,87.375v16.875h1.777c1.589,0,3.053-0.306,4.395-0.918
		c1.342-0.625,2.383-1.557,3.125-2.793c0.768-1.303,1.152-2.878,1.152-4.727c0-2.643-0.787-4.713-2.363-6.211
		c-0.521-0.481-1.1-0.889-1.738-1.221c-0.639-0.332-1.328-0.583-2.07-0.752c-0.742-0.169-1.551-0.254-2.422-0.254H1655.965z"/>
	<path fill="#3AB4FF" d="M1696.688,105.656h-10.801l-2.07,5.234h-8.32l11.602-30.156h8.554l11.367,30.156h-8.359L1696.688,105.656z
		 M1694.578,99.659l-3.203-9.609h-0.078l-3.241,9.609H1694.578z"/>
	<path fill="#3AB4FF" d="M1729.129,82.414l-3.125,6.074c-1.628-1.328-3.359-1.992-5.195-1.992c-0.834,0-1.596,0.228-2.285,0.683
		c-0.717,0.43-1.074,1.042-1.074,1.836c0,0.769,0.319,1.355,0.957,1.758c0.599,0.391,1.439,0.761,2.52,1.114l1.992,0.605
		c2.278,0.664,4.107,1.634,5.488,2.91c1.303,1.289,1.953,3.066,1.953,5.332c0,3.646-1.042,6.354-3.125,8.125
		c-2.239,1.888-5.092,2.832-8.555,2.832c-3.776,0-7.311-1.146-10.605-3.438l3.359-6.328c2.357,2.083,4.681,3.125,6.973,3.125
		c0.99,0,1.868-0.267,2.637-0.801c0.768-0.534,1.152-1.282,1.152-2.246c0-0.977-0.424-1.68-1.27-2.11
		c-0.795-0.404-1.953-0.846-3.477-1.328c-1.797-0.481-3.307-1.028-4.531-1.64c-1.158-0.586-2.054-1.413-2.686-2.48
		c-0.631-1.068-0.947-2.532-0.947-4.395c0-2.005,0.437-3.776,1.309-5.313c0.925-1.563,2.168-2.754,3.73-3.574
		c1.523-0.82,3.307-1.23,5.352-1.23c1.511,0,3.138,0.228,4.883,0.684C1726.251,81.046,1727.774,81.646,1729.129,82.414z"/>
	<path fill="#3AB4FF" d="M1753.777,82.414l-3.125,6.074c-1.627-1.328-3.359-1.992-5.195-1.992c-0.833,0-1.595,0.228-2.285,0.683
		c-0.716,0.43-1.073,1.042-1.073,1.836c0,0.769,0.319,1.355,0.957,1.758c0.599,0.391,1.438,0.761,2.52,1.114l1.991,0.605
		c2.279,0.664,4.108,1.634,5.488,2.91c1.303,1.289,1.953,3.066,1.953,5.332c0,3.646-1.042,6.354-3.125,8.125
		c-2.239,1.888-5.091,2.832-8.555,2.832c-3.776,0-7.311-1.146-10.605-3.438l3.359-6.328c2.357,2.083,4.682,3.125,6.973,3.125
		c0.99,0,1.868-0.267,2.637-0.801c0.768-0.534,1.152-1.282,1.152-2.246c0-0.977-0.424-1.68-1.27-2.11
		c-0.795-0.404-1.953-0.846-3.477-1.328c-1.797-0.481-3.307-1.028-4.531-1.64c-1.158-0.586-2.053-1.413-2.686-2.48
		c-0.631-1.068-0.947-2.532-0.947-4.395c0-2.005,0.437-3.776,1.309-5.313c0.925-1.563,2.168-2.754,3.73-3.574
		c1.523-0.82,3.307-1.23,5.352-1.23c1.511,0,3.138,0.228,4.883,0.684C1750.899,81.046,1752.423,81.646,1753.777,82.414z"/>
	<path fill="#3AB4FF" d="M1792.137,82.414l-3.125,6.074c-1.629-1.328-3.359-1.992-5.195-1.992c-0.834,0-1.595,0.228-2.285,0.683
		c-0.717,0.43-1.074,1.042-1.074,1.836c0,0.769,0.319,1.355,0.957,1.758c0.599,0.391,1.438,0.761,2.52,1.114l1.992,0.605
		c2.278,0.664,4.108,1.634,5.488,2.91c1.302,1.289,1.953,3.066,1.953,5.332c0,3.646-1.042,6.354-3.125,8.125
		c-2.24,1.888-5.092,2.832-8.555,2.832c-3.776,0-7.312-1.146-10.605-3.438l3.359-6.328c2.356,2.083,4.681,3.125,6.973,3.125
		c0.989,0,1.868-0.267,2.637-0.801c0.768-0.534,1.152-1.282,1.152-2.246c0-0.977-0.424-1.68-1.27-2.11
		c-0.794-0.404-1.953-0.846-3.477-1.328c-1.797-0.481-3.308-1.028-4.531-1.64c-1.158-0.586-2.053-1.413-2.686-2.48
		c-0.632-1.068-0.947-2.532-0.947-4.395c0-2.005,0.437-3.776,1.309-5.313c0.925-1.563,2.168-2.754,3.73-3.574
		c1.523-0.82,3.308-1.23,5.352-1.23c1.51,0,3.137,0.228,4.883,0.684C1789.259,81.046,1790.782,81.646,1792.137,82.414z"/>
	<path fill="#3AB4FF" d="M1814.266,87.375h-9.336v5.039h8.848v6.64h-8.848v5.196h9.336v6.64h-17.168V80.734h17.168V87.375z"/>
	<path fill="#3AB4FF" d="M1834.695,98.527l9.473,12.363h-9.766l-7.383-11.602h-0.098v11.602h-7.832V80.734h11.719
		c2.084,0,3.9,0.332,5.449,0.996c1.602,0.703,2.825,1.732,3.672,3.086c0.911,1.38,1.367,3.113,1.367,5.196
		c0,1.406-0.254,2.715-0.762,3.926c-0.547,1.224-1.296,2.22-2.246,2.988C1837.313,97.72,1836.114,98.253,1834.695,98.527z
		 M1826.922,86.73v7.52h0.762c1.081,0,1.992-0.091,2.734-0.273c0.808-0.235,1.458-0.612,1.953-1.133
		c0.508-0.521,0.762-1.302,0.762-2.344c0-1.055-0.254-1.843-0.762-2.363c-0.495-0.521-1.146-0.898-1.953-1.133
		c-0.716-0.182-1.628-0.273-2.734-0.273L1826.922,86.73L1826.922,86.73z"/>
	<path fill="#3AB4FF" d="M1851.668,80.734l7.266,18.321l7.324-18.321h8.516l-12.871,30.156h-6.094l-12.677-30.156H1851.668z"/>
	<path fill="#3AB4FF" d="M1884.578,80.734v30.156h-7.832V80.734H1884.578z"/>
	<path fill="#3AB4FF" d="M1911.277,81.457v9.395c-0.769-1.042-1.771-1.868-3.008-2.48c-1.211-0.56-2.5-0.84-3.867-0.84
		c-1.574,0-2.962,0.371-4.16,1.114c-1.25,0.716-2.214,1.719-2.891,3.008c-0.664,1.237-0.996,2.649-0.996,4.238
		s0.346,3.001,1.035,4.238c0.703,1.289,1.668,2.266,2.891,2.93c1.277,0.69,2.689,1.035,4.238,1.035c1.303,0,2.539-0.28,3.711-0.84
		c1.211-0.612,2.227-1.4,3.047-2.364v9.395c-1.523,0.47-2.844,0.833-3.965,1.095c-0.977,0.207-1.959,0.313-2.949,0.313
		c-1.991,0-4.01-0.385-6.054-1.152c-0.638-0.248-1.253-0.534-1.846-0.86c-0.593-0.325-1.169-0.683-1.729-1.073
		s-1.126-0.841-1.698-1.348c-3.23-2.917-4.845-6.719-4.845-11.406c0-2.044,0.391-4.03,1.172-5.957
		c0.808-1.992,1.901-3.685,3.281-5.078c1.055-1.055,2.175-1.934,3.359-2.637c1.237-0.729,2.552-1.289,3.946-1.679
		c1.432-0.377,2.818-0.566,4.159-0.566C1906.44,79.933,1908.829,80.441,1911.277,81.457z"/>
	<path fill="#3AB4FF" d="M1933.289,87.375h-9.336v5.039h8.848v6.64h-8.848v5.196h9.336v6.64h-17.168V80.734h17.168V87.375
		L1933.289,87.375z"/>
	<path fill="#3AB4FF" d="M1957.801,82.414l-3.125,6.074c-1.628-1.328-3.359-1.992-5.195-1.992c-0.833,0-1.594,0.228-2.285,0.683
		c-0.716,0.43-1.074,1.042-1.074,1.836c0,0.769,0.32,1.355,0.957,1.758c0.6,0.391,1.439,0.761,2.52,1.114l1.992,0.605
		c2.279,0.664,4.109,1.634,5.488,2.91c1.303,1.289,1.953,3.066,1.953,5.332c0,3.646-1.041,6.354-3.125,8.125
		c-2.239,1.888-5.091,2.832-8.555,2.832c-3.775,0-7.311-1.146-10.605-3.438l3.359-6.328c2.357,2.083,4.682,3.125,6.973,3.125
		c0.99,0,1.868-0.267,2.637-0.801s1.152-1.282,1.152-2.246c0-0.977-0.423-1.68-1.27-2.11c-0.793-0.404-1.953-0.846-3.477-1.328
		c-1.797-0.481-3.307-1.028-4.531-1.64c-1.158-0.586-2.053-1.413-2.685-2.48c-0.632-1.068-0.948-2.532-0.948-4.395
		c0-2.005,0.438-3.776,1.309-5.313c0.926-1.563,2.168-2.754,3.73-3.574c1.523-0.82,3.309-1.23,5.352-1.23
		c1.511,0,3.138,0.228,4.883,0.684C1954.923,81.046,1956.446,81.646,1957.801,82.414z"/>
</g>
<g>
	<polygon fill="#F51484" points="1997.25,83.172 2016.083,98.5 2006.75,98.5 1997.25,90.711 	"/>
	<polygon fill="#F51484" points="1997.25,113.25 2016.083,98.5 2006.75,98.5 1997.25,105.711 	"/>
</g>
<g>
	<polygon fill="#3AB4FF" points="1997.25,81.172 2016.083,96.5 2006.75,96.5 1997.25,88.711 	"/>
	<polygon fill="#3AB4FF" points="1997.25,111.25 2016.083,96.5 2006.75,96.5 1997.25,103.711 	"/>
</g>
<g>
	<g>
		<rect x="722.25" y="66" fill="#6E1F75" width="658.5" height="75"/>
		<rect x="716.25" y="62.5" fill="#F51484" width="659.5" height="75"/>
		<rect x="711.75" y="59" fill="#F9F9F9" width="659.5" height="75"/>
	</g>
	<g>
		<path fill="#3AB4FF" d="M796.969,81.738c2.2,0,4.297,0.371,6.289,1.113c2.031,0.781,3.815,1.862,5.352,3.242
			c1.511,1.354,2.741,3.008,3.691,4.961c0.899,1.836,1.348,3.9,1.348,6.191c0,2.409-0.397,4.622-1.191,6.641
			c-0.833,2.058-2.005,3.835-3.516,5.332c-0.808,0.807-1.641,1.49-2.5,2.051s-1.79,1.035-2.793,1.426
			c-2.019,0.794-4.245,1.191-6.68,1.191c-2.396,0-4.609-0.397-6.64-1.191c-2.058-0.807-3.828-1.966-5.313-3.477
			c-0.742-0.729-1.396-1.52-1.963-2.373c-0.566-0.853-1.084-1.839-1.552-2.959c-0.808-2.044-1.211-4.258-1.211-6.64
			c0-1.081,0.114-2.142,0.342-3.184c0.228-1.042,0.57-2.044,1.025-3.008c0.964-1.979,2.188-3.633,3.672-4.961
			c1.55-1.393,3.353-2.473,5.41-3.242C792.679,82.109,794.755,81.738,796.969,81.738z M796.969,89.335
			c-1.536,0-2.949,0.371-4.238,1.114c-1.354,0.781-2.396,1.758-3.125,2.929c-0.769,1.277-1.152,2.578-1.152,3.906
			c0,1.654,0.384,3.191,1.152,4.61c0.781,1.419,1.81,2.5,3.086,3.241c1.341,0.769,2.767,1.153,4.277,1.153
			c1.536,0,2.962-0.385,4.278-1.153c1.276-0.729,2.304-1.81,3.086-3.241c0.769-1.381,1.152-2.917,1.152-4.61
			c0-1.367-0.384-2.669-1.152-3.906c-0.742-1.184-1.784-2.161-3.125-2.929C799.931,89.707,798.519,89.335,796.969,89.335z"/>
		<path fill="#3AB4FF" d="M835.621,82.734h7.832v16.953c0,0.781-0.013,1.471-0.039,2.071c-0.026,0.599-0.078,1.282-0.156,2.051
			c-0.13,1.224-0.423,2.383-0.879,3.477c-0.403,1.055-1.094,2.07-2.07,3.047c-0.833,0.795-1.797,1.445-2.891,1.953
			c-1.094,0.495-2.24,0.846-3.438,1.055c-1.224,0.234-2.448,0.352-3.672,0.352c-1.888,0-3.743-0.268-5.567-0.802
			c-0.898-0.273-1.706-0.618-2.422-1.034c-0.716-0.417-1.386-0.925-2.011-1.523c-0.977-0.977-1.673-1.992-2.09-3.048
			c-0.469-1.106-0.761-2.252-0.879-3.438c-0.13-1.327-0.195-2.715-0.195-4.16V82.734h7.832v15.879c0,1.614,0.111,3.014,0.332,4.199
			c0.183,1.067,0.671,2.011,1.465,2.832c0.781,0.78,1.96,1.172,3.535,1.172c1.563,0,2.735-0.391,3.516-1.172
			c0.781-0.782,1.276-1.726,1.484-2.832c0.208-1.225,0.313-2.624,0.313-4.199L835.621,82.734L835.621,82.734z"/>
		<path fill="#3AB4FF" d="M864.02,100.527l9.473,12.363h-9.766l-7.383-11.602h-0.097v11.602h-7.832V82.734h11.719
			c2.083,0,3.899,0.332,5.449,0.996c1.602,0.703,2.825,1.732,3.672,3.086c0.911,1.38,1.367,3.113,1.367,5.196
			c0,1.406-0.254,2.715-0.762,3.926c-0.547,1.224-1.296,2.22-2.246,2.988C866.637,99.72,865.438,100.253,864.02,100.527z
			 M856.246,88.73v7.52h0.761c1.081,0,1.992-0.091,2.735-0.273c0.807-0.235,1.458-0.612,1.953-1.133
			c0.508-0.521,0.762-1.302,0.762-2.344c0-1.055-0.254-1.843-0.762-2.363c-0.495-0.521-1.146-0.898-1.953-1.133
			c-0.716-0.182-1.628-0.273-2.735-0.273L856.246,88.73L856.246,88.73z"/>
		<path fill="#3AB4FF" d="M901.422,112.89h-12.09V82.734h11.211c5.964,0,8.945,2.611,8.945,7.832c0,1.498-0.28,2.76-0.84,3.789
			s-1.387,1.823-2.48,2.383v0.078c2.097,0.274,3.646,1.074,4.648,2.403c1.016,1.328,1.523,3.086,1.523,5.273
			c0,2.93-1.042,5.065-3.125,6.406C907.093,112.227,904.495,112.89,901.422,112.89z M897.164,88.73v5.84h0.898
			c1.289,0,2.312-0.202,3.066-0.605c0.781-0.404,1.172-1.172,1.172-2.305c0-1.25-0.417-2.051-1.25-2.402
			c-0.755-0.352-1.862-0.528-3.32-0.528H897.164z M897.164,100.409v6.485h1.016c1.94,0,3.457-0.202,4.551-0.605
			c1.12-0.352,1.68-1.218,1.68-2.598c0-1.354-0.469-2.246-1.406-2.677c-0.898-0.403-2.122-0.605-3.672-0.605h-1.367H897.164z"/>
		<path fill="#3AB4FF" d="M934.879,107.656h-10.801l-2.071,5.234h-8.32l11.602-30.156h8.554l11.367,30.156h-8.359L934.879,107.656z
			 M932.77,101.659l-3.203-9.609h-0.078l-3.242,9.609H932.77z"/>
		<path fill="#3AB4FF" d="M947.633,112.89V82.734h11.114c2.044,0,4.023,0.384,5.938,1.153c1.875,0.755,3.509,1.823,4.902,3.203
			c1.446,1.393,2.539,2.995,3.281,4.804c0.403,0.912,0.706,1.859,0.908,2.842c0.202,0.983,0.303,2.009,0.303,3.076
			c0,2.76-0.696,5.293-2.09,7.597c-1.394,2.345-3.255,4.174-5.586,5.489c-1.211,0.664-2.448,1.162-3.711,1.494
			c-1.263,0.332-2.578,0.497-3.945,0.497H947.633z M955.465,89.375v16.875h1.778c1.589,0,3.053-0.306,4.395-0.918
			c1.341-0.625,2.383-1.557,3.125-2.793c0.768-1.303,1.152-2.878,1.152-4.727c0-2.643-0.788-4.713-2.364-6.211
			c-0.521-0.481-1.1-0.889-1.738-1.221c-0.638-0.332-1.328-0.583-2.07-0.752c-0.742-0.169-1.55-0.254-2.422-0.254H955.465z"/>
		<path fill="#3AB4FF" d="M996.188,107.656h-10.801l-2.071,5.234h-8.32l11.602-30.156h8.554l11.367,30.156h-8.359L996.188,107.656z
			 M994.078,101.659l-3.203-9.609h-0.078l-3.242,9.609H994.078z"/>
		<path fill="#3AB4FF" d="M1028.629,84.414l-3.125,6.074c-1.628-1.328-3.359-1.992-5.195-1.992c-0.833,0-1.595,0.228-2.285,0.683
			c-0.716,0.43-1.074,1.042-1.074,1.836c0,0.769,0.32,1.354,0.957,1.758c0.599,0.391,1.438,0.761,2.52,1.114l1.992,0.605
			c2.278,0.664,4.108,1.634,5.488,2.91c1.302,1.289,1.953,3.066,1.953,5.332c0,3.646-1.042,6.354-3.125,8.125
			c-2.239,1.888-5.091,2.832-8.554,2.832c-3.777,0-7.312-1.146-10.605-3.438l3.359-6.328c2.356,2.083,4.68,3.125,6.972,3.125
			c0.99,0,1.868-0.267,2.637-0.801s1.152-1.282,1.152-2.246c0-0.977-0.423-1.68-1.27-2.109c-0.794-0.404-1.953-0.847-3.477-1.328
			c-1.797-0.482-3.307-1.029-4.531-1.641c-1.159-0.586-2.054-1.413-2.686-2.48c-0.632-1.068-0.948-2.532-0.948-4.395
			c0-2.005,0.437-3.776,1.309-5.313c0.925-1.563,2.168-2.754,3.73-3.574c1.523-0.82,3.308-1.23,5.352-1.23
			c1.511,0,3.138,0.228,4.883,0.684C1025.751,83.046,1027.274,83.646,1028.629,84.414z"/>
		<path fill="#3AB4FF" d="M1053.277,84.414l-3.125,6.074c-1.628-1.328-3.359-1.992-5.195-1.992c-0.833,0-1.595,0.228-2.285,0.683
			c-0.716,0.43-1.074,1.042-1.074,1.836c0,0.769,0.32,1.354,0.957,1.758c0.599,0.391,1.438,0.761,2.52,1.114l1.992,0.605
			c2.278,0.664,4.108,1.634,5.488,2.91c1.302,1.289,1.953,3.066,1.953,5.332c0,3.646-1.042,6.354-3.125,8.125
			c-2.239,1.888-5.091,2.832-8.554,2.832c-3.777,0-7.312-1.146-10.605-3.438l3.359-6.328c2.356,2.083,4.681,3.125,6.973,3.125
			c0.989,0,1.868-0.267,2.636-0.801s1.152-1.282,1.152-2.246c0-0.977-0.423-1.68-1.27-2.109c-0.794-0.404-1.953-0.847-3.476-1.328
			c-1.797-0.482-3.308-1.029-4.531-1.641c-1.159-0.586-2.053-1.413-2.686-2.48c-0.632-1.068-0.947-2.532-0.947-4.395
			c0-2.005,0.437-3.776,1.308-5.313c0.925-1.563,2.168-2.754,3.73-3.574c1.524-0.82,3.308-1.23,5.352-1.23
			c1.511,0,3.138,0.228,4.883,0.684C1050.399,83.046,1051.923,83.646,1053.277,84.414z"/>
		<path fill="#3AB4FF" d="M1091.637,84.414l-3.125,6.074c-1.628-1.328-3.36-1.992-5.196-1.992c-0.833,0-1.594,0.228-2.285,0.683
			c-0.716,0.43-1.074,1.042-1.074,1.836c0,0.769,0.319,1.354,0.957,1.758c0.599,0.391,1.438,0.761,2.52,1.114l1.992,0.605
			c2.279,0.664,4.109,1.634,5.489,2.91c1.302,1.289,1.953,3.066,1.953,5.332c0,3.646-1.042,6.354-3.125,8.125
			c-2.24,1.888-5.091,2.832-8.555,2.832c-3.776,0-7.312-1.146-10.605-3.438l3.359-6.328c2.356,2.083,4.681,3.125,6.973,3.125
			c0.989,0,1.868-0.267,2.637-0.801s1.152-1.282,1.152-2.246c0-0.977-0.423-1.68-1.27-2.109c-0.794-0.404-1.953-0.847-3.477-1.328
			c-1.797-0.482-3.308-1.029-4.531-1.641c-1.159-0.586-2.053-1.413-2.686-2.48c-0.632-1.068-0.947-2.532-0.947-4.395
			c0-2.005,0.437-3.776,1.309-5.313c0.925-1.563,2.168-2.754,3.73-3.574c1.523-0.82,3.308-1.23,5.352-1.23
			c1.51,0,3.137,0.228,4.883,0.684C1088.759,83.046,1090.282,83.646,1091.637,84.414z"/>
		<path fill="#3AB4FF" d="M1113.766,89.375h-9.336v5.039h8.847v6.64h-8.847v5.196h9.336v6.64h-17.168V82.734h17.168V89.375z"/>
		<path fill="#3AB4FF" d="M1134.195,100.527l9.473,12.363h-9.766l-7.383-11.602h-0.098v11.602h-7.832V82.734h11.719
			c2.083,0,3.899,0.332,5.449,0.996c1.602,0.703,2.825,1.732,3.672,3.086c0.911,1.38,1.367,3.113,1.367,5.196
			c0,1.406-0.254,2.715-0.762,3.926c-0.547,1.224-1.296,2.22-2.246,2.988C1136.813,99.72,1135.614,100.253,1134.195,100.527z
			 M1126.422,88.73v7.52h0.762c1.081,0,1.992-0.091,2.734-0.273c0.808-0.235,1.458-0.612,1.953-1.133
			c0.508-0.521,0.761-1.302,0.761-2.344c0-1.055-0.254-1.843-0.761-2.363c-0.495-0.521-1.146-0.898-1.953-1.133
			c-0.716-0.182-1.628-0.273-2.734-0.273L1126.422,88.73L1126.422,88.73z"/>
		<path fill="#3AB4FF" d="M1151.168,82.734l7.266,18.321l7.324-18.321h8.516l-12.871,30.156h-6.094l-12.676-30.156H1151.168z"/>
		<path fill="#3AB4FF" d="M1184.078,82.734v30.156h-7.832V82.734H1184.078z"/>
		<path fill="#3AB4FF" d="M1210.777,83.457v9.395c-0.769-1.042-1.771-1.868-3.008-2.48c-1.211-0.56-2.5-0.84-3.867-0.84
			c-1.575,0-2.962,0.371-4.16,1.114c-1.25,0.716-2.214,1.719-2.89,3.008c-0.664,1.237-0.996,2.649-0.996,4.238
			s0.344,3.002,1.035,4.238c0.703,1.289,1.667,2.266,2.89,2.93c1.277,0.69,2.688,1.035,4.239,1.035c1.302,0,2.539-0.28,3.711-0.84
			c1.211-0.612,2.227-1.4,3.047-2.364v9.395c-1.524,0.47-2.845,0.833-3.965,1.095c-0.976,0.207-1.96,0.313-2.949,0.313
			c-1.992,0-4.011-0.385-6.055-1.152c-0.637-0.248-1.253-0.534-1.845-0.86c-0.593-0.325-1.169-0.683-1.729-1.073
			s-1.126-0.841-1.699-1.348c-3.229-2.917-4.844-6.719-4.844-11.406c0-2.044,0.39-4.03,1.172-5.957
			c0.808-1.992,1.901-3.685,3.281-5.078c1.055-1.055,2.175-1.934,3.36-2.637c1.237-0.729,2.552-1.289,3.945-1.679
			c1.433-0.377,2.82-0.566,4.16-0.566C1205.94,81.933,1208.329,82.441,1210.777,83.457z"/>
		<path fill="#3AB4FF" d="M1232.789,89.375h-9.336v5.039h8.847v6.64h-8.847v5.196h9.336v6.64h-17.168V82.734h17.168V89.375z"/>
		<path fill="#3AB4FF" d="M1257.301,84.414l-3.125,6.074c-1.628-1.328-3.359-1.992-5.195-1.992c-0.833,0-1.595,0.228-2.285,0.683
			c-0.716,0.43-1.074,1.042-1.074,1.836c0,0.769,0.319,1.354,0.957,1.758c0.598,0.391,1.438,0.761,2.52,1.114l1.992,0.605
			c2.278,0.664,4.108,1.634,5.489,2.91c1.302,1.289,1.953,3.066,1.953,5.332c0,3.646-1.042,6.354-3.125,8.125
			c-2.239,1.888-5.091,2.832-8.554,2.832c-3.776,0-7.312-1.146-10.605-3.438l3.359-6.328c2.356,2.083,4.681,3.125,6.973,3.125
			c0.99,0,1.868-0.267,2.636-0.801c0.769-0.534,1.153-1.282,1.153-2.246c0-0.977-0.423-1.68-1.27-2.109
			c-0.794-0.404-1.953-0.847-3.477-1.328c-1.797-0.482-3.308-1.029-4.531-1.641c-1.159-0.586-2.054-1.413-2.686-2.48
			c-0.632-1.068-0.948-2.532-0.948-4.395c0-2.005,0.437-3.776,1.309-5.313c0.925-1.563,2.168-2.754,3.73-3.574
			c1.523-0.82,3.307-1.23,5.351-1.23c1.511,0,3.138,0.228,4.883,0.684C1254.423,83.046,1255.946,83.646,1257.301,84.414z"/>
	</g>
	<g>
		<path fill="#F51484" d="M794.969,79.738c2.2,0,4.297,0.371,6.289,1.113c2.031,0.781,3.815,1.862,5.352,3.242
			c1.511,1.354,2.741,3.008,3.691,4.961c0.899,1.836,1.348,3.9,1.348,6.191c0,2.409-0.397,4.622-1.191,6.641
			c-0.833,2.058-2.005,3.835-3.516,5.332c-0.808,0.807-1.641,1.49-2.5,2.051s-1.79,1.035-2.793,1.426
			c-2.019,0.794-4.245,1.191-6.68,1.191c-2.396,0-4.609-0.397-6.64-1.191c-2.058-0.807-3.828-1.966-5.313-3.477
			c-0.742-0.729-1.396-1.52-1.963-2.373c-0.566-0.853-1.084-1.839-1.552-2.959c-0.808-2.044-1.211-4.258-1.211-6.64
			c0-1.081,0.114-2.142,0.342-3.184c0.228-1.042,0.57-2.044,1.025-3.008c0.964-1.979,2.188-3.633,3.672-4.961
			c1.55-1.393,3.353-2.473,5.41-3.242C790.679,80.109,792.755,79.738,794.969,79.738z M794.969,87.335
			c-1.536,0-2.949,0.371-4.238,1.114c-1.354,0.781-2.396,1.758-3.125,2.929c-0.769,1.277-1.152,2.578-1.152,3.906
			c0,1.654,0.384,3.191,1.152,4.61c0.781,1.419,1.81,2.5,3.086,3.242c1.341,0.769,2.767,1.153,4.277,1.153
			c1.536,0,2.962-0.385,4.278-1.153c1.276-0.729,2.304-1.81,3.086-3.242c0.769-1.38,1.152-2.917,1.152-4.61
			c0-1.367-0.384-2.669-1.152-3.906c-0.742-1.184-1.784-2.161-3.125-2.929C797.931,87.707,796.519,87.335,794.969,87.335z"/>
		<path fill="#F51484" d="M833.621,80.734h7.832v16.953c0,0.781-0.013,1.471-0.039,2.071c-0.026,0.599-0.078,1.282-0.156,2.051
			c-0.13,1.224-0.423,2.383-0.879,3.477c-0.403,1.055-1.094,2.07-2.07,3.047c-0.833,0.795-1.797,1.445-2.891,1.953
			c-1.094,0.495-2.24,0.846-3.438,1.055c-1.224,0.234-2.448,0.352-3.672,0.352c-1.888,0-3.743-0.268-5.567-0.802
			c-0.898-0.273-1.706-0.618-2.422-1.034c-0.716-0.417-1.386-0.925-2.011-1.523c-0.977-0.977-1.673-1.992-2.09-3.048
			c-0.469-1.106-0.761-2.252-0.879-3.438c-0.13-1.327-0.195-2.715-0.195-4.16V80.734h7.832v15.879c0,1.614,0.111,3.014,0.332,4.199
			c0.183,1.067,0.671,2.011,1.465,2.832c0.781,0.78,1.96,1.172,3.535,1.172c1.563,0,2.735-0.391,3.516-1.172
			c0.781-0.782,1.276-1.726,1.484-2.832c0.208-1.224,0.313-2.624,0.313-4.199L833.621,80.734L833.621,80.734z"/>
		<path fill="#F51484" d="M862.02,98.527l9.473,12.363h-9.766l-7.383-11.602h-0.097v11.602h-7.832V80.734h11.719
			c2.083,0,3.899,0.332,5.449,0.996c1.602,0.703,2.825,1.732,3.672,3.086c0.911,1.38,1.367,3.113,1.367,5.196
			c0,1.406-0.254,2.715-0.762,3.926c-0.547,1.224-1.296,2.22-2.246,2.988C864.637,97.72,863.438,98.253,862.02,98.527z
			 M854.246,86.73v7.52h0.761c1.081,0,1.992-0.091,2.735-0.273c0.807-0.235,1.458-0.612,1.953-1.133
			c0.508-0.521,0.762-1.302,0.762-2.344c0-1.055-0.254-1.843-0.762-2.363c-0.495-0.521-1.146-0.898-1.953-1.133
			c-0.716-0.182-1.628-0.273-2.735-0.273L854.246,86.73L854.246,86.73z"/>
		<path fill="#F51484" d="M899.422,110.89h-12.09V80.734h11.211c5.964,0,8.945,2.611,8.945,7.832c0,1.498-0.28,2.76-0.84,3.789
			s-1.387,1.823-2.48,2.383v0.078c2.097,0.274,3.646,1.074,4.648,2.403c1.016,1.328,1.523,3.086,1.523,5.273
			c0,2.93-1.042,5.065-3.125,6.406C905.093,110.227,902.495,110.89,899.422,110.89z M895.164,86.73v5.84h0.898
			c1.289,0,2.312-0.202,3.066-0.605c0.781-0.404,1.172-1.172,1.172-2.305c0-1.25-0.417-2.051-1.25-2.402
			c-0.755-0.352-1.862-0.528-3.32-0.528H895.164z M895.164,98.409v6.485h1.016c1.94,0,3.457-0.202,4.551-0.605
			c1.12-0.352,1.68-1.218,1.68-2.598c0-1.354-0.469-2.246-1.406-2.677c-0.898-0.403-2.122-0.605-3.672-0.605h-1.367H895.164z"/>
		<path fill="#F51484" d="M932.879,105.656h-10.801l-2.071,5.234h-8.32l11.602-30.156h8.554l11.367,30.156h-8.359L932.879,105.656z
			 M930.77,99.659l-3.203-9.609h-0.078l-3.242,9.609H930.77z"/>
		<path fill="#F51484" d="M945.633,110.89V80.734h11.114c2.044,0,4.023,0.384,5.938,1.153c1.875,0.755,3.509,1.823,4.902,3.203
			c1.446,1.393,2.539,2.995,3.281,4.804c0.403,0.912,0.706,1.859,0.908,2.842c0.202,0.983,0.303,2.009,0.303,3.076
			c0,2.76-0.696,5.293-2.09,7.597c-1.394,2.345-3.255,4.174-5.586,5.489c-1.211,0.664-2.448,1.162-3.711,1.494
			c-1.263,0.332-2.578,0.497-3.945,0.497H945.633z M953.465,87.375v16.875h1.778c1.589,0,3.053-0.306,4.395-0.918
			c1.341-0.625,2.383-1.557,3.125-2.793c0.768-1.303,1.152-2.878,1.152-4.727c0-2.643-0.788-4.713-2.364-6.211
			c-0.521-0.481-1.1-0.889-1.738-1.221c-0.638-0.332-1.328-0.583-2.07-0.752c-0.742-0.169-1.55-0.254-2.422-0.254H953.465z"/>
		<path fill="#F51484" d="M994.188,105.656h-10.801l-2.071,5.234h-8.32l11.602-30.156h8.554l11.367,30.156h-8.359L994.188,105.656z
			 M992.078,99.659l-3.203-9.609h-0.078l-3.242,9.609H992.078z"/>
		<path fill="#F51484" d="M1026.629,82.414l-3.125,6.074c-1.628-1.328-3.359-1.992-5.195-1.992c-0.833,0-1.595,0.228-2.285,0.683
			c-0.716,0.43-1.074,1.042-1.074,1.836c0,0.769,0.319,1.355,0.957,1.758c0.599,0.391,1.438,0.761,2.52,1.114l1.992,0.605
			c2.278,0.664,4.108,1.634,5.488,2.91c1.302,1.289,1.953,3.066,1.953,5.332c0,3.646-1.042,6.354-3.125,8.125
			c-2.239,1.888-5.091,2.832-8.554,2.832c-3.777,0-7.312-1.146-10.606-3.438l3.36-6.328c2.356,2.083,4.68,3.125,6.972,3.125
			c0.99,0,1.868-0.267,2.637-0.801s1.152-1.282,1.152-2.246c0-0.977-0.423-1.68-1.27-2.11c-0.794-0.404-1.953-0.846-3.477-1.328
			c-1.797-0.481-3.307-1.028-4.531-1.64c-1.159-0.586-2.054-1.413-2.686-2.48c-0.632-1.068-0.948-2.532-0.948-4.395
			c0-2.005,0.437-3.776,1.309-5.313c0.925-1.563,2.168-2.754,3.73-3.574c1.523-0.82,3.308-1.23,5.352-1.23
			c1.511,0,3.138,0.228,4.883,0.684C1023.751,81.046,1025.274,81.646,1026.629,82.414z"/>
		<path fill="#F51484" d="M1051.277,82.414l-3.125,6.074c-1.628-1.328-3.359-1.992-5.195-1.992c-0.833,0-1.595,0.228-2.285,0.683
			c-0.716,0.43-1.074,1.042-1.074,1.836c0,0.769,0.32,1.355,0.957,1.758c0.599,0.391,1.438,0.761,2.52,1.114l1.992,0.605
			c2.278,0.664,4.108,1.634,5.488,2.91c1.302,1.289,1.953,3.066,1.953,5.332c0,3.646-1.042,6.354-3.125,8.125
			c-2.239,1.888-5.091,2.832-8.554,2.832c-3.777,0-7.312-1.146-10.605-3.438l3.359-6.328c2.356,2.083,4.681,3.125,6.973,3.125
			c0.989,0,1.868-0.267,2.636-0.801s1.152-1.282,1.152-2.246c0-0.977-0.423-1.68-1.27-2.11c-0.794-0.404-1.953-0.846-3.476-1.328
			c-1.797-0.481-3.308-1.028-4.531-1.64c-1.159-0.586-2.053-1.413-2.686-2.48c-0.632-1.068-0.947-2.532-0.947-4.395
			c0-2.005,0.437-3.776,1.308-5.313c0.925-1.563,2.168-2.754,3.73-3.574c1.524-0.82,3.308-1.23,5.352-1.23
			c1.511,0,3.138,0.228,4.883,0.684C1048.399,81.046,1049.923,81.646,1051.277,82.414z"/>
		<path fill="#F51484" d="M1089.637,82.414l-3.125,6.074c-1.628-1.328-3.36-1.992-5.196-1.992c-0.833,0-1.594,0.228-2.285,0.683
			c-0.716,0.43-1.074,1.042-1.074,1.836c0,0.769,0.319,1.355,0.957,1.758c0.599,0.391,1.438,0.761,2.52,1.114l1.992,0.605
			c2.279,0.664,4.109,1.634,5.489,2.91c1.302,1.289,1.953,3.066,1.953,5.332c0,3.646-1.042,6.354-3.125,8.125
			c-2.24,1.888-5.091,2.832-8.555,2.832c-3.776,0-7.312-1.146-10.605-3.438l3.359-6.328c2.356,2.083,4.681,3.125,6.973,3.125
			c0.989,0,1.868-0.267,2.637-0.801s1.152-1.282,1.152-2.246c0-0.977-0.423-1.68-1.27-2.11c-0.794-0.404-1.953-0.846-3.477-1.328
			c-1.797-0.481-3.308-1.028-4.531-1.64c-1.159-0.586-2.053-1.413-2.686-2.48c-0.632-1.068-0.947-2.532-0.947-4.395
			c0-2.005,0.437-3.776,1.309-5.313c0.925-1.563,2.168-2.754,3.73-3.574c1.523-0.82,3.308-1.23,5.352-1.23
			c1.51,0,3.137,0.228,4.883,0.684C1086.759,81.046,1088.282,81.646,1089.637,82.414z"/>
		<path fill="#F51484" d="M1111.766,87.375h-9.336v5.039h8.847v6.64h-8.847v5.196h9.336v6.64h-17.168V80.734h17.168V87.375z"/>
		<path fill="#F51484" d="M1132.195,98.527l9.473,12.363h-9.766l-7.383-11.602h-0.098v11.602h-7.832V80.734h11.719
			c2.083,0,3.899,0.332,5.449,0.996c1.602,0.703,2.825,1.732,3.672,3.086c0.911,1.38,1.367,3.113,1.367,5.196
			c0,1.406-0.254,2.715-0.762,3.926c-0.547,1.224-1.296,2.22-2.246,2.988C1134.813,97.72,1133.614,98.253,1132.195,98.527z
			 M1124.422,86.73v7.52h0.762c1.081,0,1.992-0.091,2.734-0.273c0.808-0.235,1.458-0.612,1.953-1.133
			c0.508-0.521,0.761-1.302,0.761-2.344c0-1.055-0.254-1.843-0.761-2.363c-0.495-0.521-1.146-0.898-1.953-1.133
			c-0.716-0.182-1.628-0.273-2.734-0.273L1124.422,86.73L1124.422,86.73z"/>
		<path fill="#F51484" d="M1149.168,80.734l7.266,18.321l7.324-18.321h8.516l-12.871,30.156h-6.094l-12.676-30.156H1149.168z"/>
		<path fill="#F51484" d="M1182.078,80.734v30.156h-7.832V80.734H1182.078z"/>
		<path fill="#F51484" d="M1208.777,81.457v9.395c-0.769-1.042-1.771-1.868-3.008-2.48c-1.211-0.56-2.5-0.84-3.867-0.84
			c-1.575,0-2.962,0.371-4.16,1.114c-1.25,0.716-2.214,1.719-2.89,3.008c-0.664,1.237-0.996,2.649-0.996,4.238
			s0.344,3.001,1.035,4.238c0.703,1.289,1.667,2.266,2.89,2.93c1.277,0.69,2.688,1.035,4.239,1.035c1.302,0,2.539-0.28,3.711-0.84
			c1.211-0.612,2.227-1.4,3.047-2.364v9.395c-1.524,0.47-2.845,0.833-3.965,1.095c-0.976,0.207-1.96,0.313-2.949,0.313
			c-1.992,0-4.011-0.385-6.055-1.152c-0.637-0.248-1.253-0.534-1.845-0.86c-0.593-0.325-1.169-0.683-1.729-1.073
			s-1.126-0.841-1.699-1.348c-3.229-2.917-4.844-6.719-4.844-11.406c0-2.044,0.39-4.03,1.172-5.957
			c0.808-1.992,1.901-3.685,3.281-5.078c1.055-1.055,2.175-1.934,3.36-2.637c1.237-0.729,2.552-1.289,3.945-1.679
			c1.433-0.377,2.82-0.566,4.16-0.566C1203.94,79.933,1206.329,80.441,1208.777,81.457z"/>
		<path fill="#F51484" d="M1230.789,87.375h-9.336v5.039h8.847v6.64h-8.847v5.196h9.336v6.64h-17.168V80.734h17.168V87.375z"/>
		<path fill="#F51484" d="M1255.301,82.414l-3.125,6.074c-1.628-1.328-3.359-1.992-5.195-1.992c-0.833,0-1.595,0.228-2.285,0.683
			c-0.716,0.43-1.074,1.042-1.074,1.836c0,0.769,0.319,1.355,0.957,1.758c0.598,0.391,1.438,0.761,2.52,1.114l1.992,0.605
			c2.278,0.664,4.108,1.634,5.489,2.91c1.302,1.289,1.953,3.066,1.953,5.332c0,3.646-1.042,6.354-3.125,8.125
			c-2.239,1.888-5.091,2.832-8.554,2.832c-3.776,0-7.312-1.146-10.605-3.438l3.359-6.328c2.356,2.083,4.681,3.125,6.973,3.125
			c0.99,0,1.868-0.267,2.636-0.801c0.769-0.534,1.153-1.282,1.153-2.246c0-0.977-0.423-1.68-1.27-2.11
			c-0.794-0.404-1.953-0.846-3.477-1.328c-1.797-0.481-3.308-1.028-4.531-1.64c-1.159-0.586-2.054-1.413-2.686-2.48
			c-0.632-1.068-0.948-2.532-0.948-4.395c0-2.005,0.437-3.776,1.309-5.313c0.925-1.563,2.168-2.754,3.73-3.574
			c1.523-0.82,3.307-1.23,5.351-1.23c1.511,0,3.138,0.228,4.883,0.684C1252.423,81.046,1253.946,81.646,1255.301,82.414z"/>
	</g>
	<g>
		<polygon fill="#3AB4FF" points="1294.75,83.172 1313.583,98.5 1304.25,98.5 1294.75,90.711 		"/>
		<polygon fill="#3AB4FF" points="1294.75,113.25 1313.583,98.5 1304.25,98.5 1294.75,105.711 		"/>
	</g>
	<g>
		<polygon fill="#F51484" points="1294.75,81.172 1313.583,96.5 1304.25,96.5 1294.75,88.711 		"/>
		<polygon fill="#F51484" points="1294.75,111.25 1313.583,96.5 1304.25,96.5 1294.75,103.711 		"/>
	</g>
</g>
</svg>
