<?xml version="1.0" encoding="utf-8"?>
<!-- Generator: Adobe Illustrator 16.0.0, SVG Export Plug-In . SVG Version: 6.00 Build 0)  -->
<!DOCTYPE svg PUBLIC "-//W3C//DTD SVG 1.1//EN" "http://www.w3.org/Graphics/SVG/1.1/DTD/svg11.dtd">
<svg version="1.1" id="Layer_1" xmlns="http://www.w3.org/2000/svg" xmlns:xlink="http://www.w3.org/1999/xlink" x="0px" y="0px"
	 width="2800px" height="200px" viewBox="0 0 2800 200" enable-background="new 0 0 2800 200" xml:space="preserve">
<g>
	<rect x="47" y="32" fill="#F9F9F9" width="1317" height="150"/>
	<rect x="35" y="25" fill="#F51484" width="1319" height="150"/>
	<rect x="26" y="18" fill="#6E1F75" width="1319" height="150"/>
</g>
<g>
	<path fill="#F51484" d="M196.438,63.476c4.4,0,8.594,0.742,12.578,2.227c4.062,1.562,7.63,3.725,10.703,6.484
		c3.021,2.709,5.481,6.016,7.383,9.922c1.797,3.672,2.695,7.8,2.695,12.383c0,4.818-0.795,9.245-2.383,13.281
		c-1.667,4.115-4.011,7.67-7.031,10.664c-1.615,1.615-3.281,2.982-5,4.102c-1.719,1.12-3.581,2.07-5.586,2.852
		c-4.037,1.588-8.49,2.383-13.359,2.383c-4.792,0-9.219-0.795-13.281-2.383c-4.115-1.614-7.656-3.932-10.625-6.953
		c-1.484-1.458-2.793-3.04-3.926-4.746c-1.133-1.705-2.168-3.678-3.105-5.918c-1.615-4.088-2.422-8.516-2.422-13.281
		c0-2.161,0.228-4.283,0.684-6.367c0.455-2.083,1.139-4.088,2.051-6.016c1.927-3.958,4.375-7.266,7.344-9.922
		c3.099-2.786,6.705-4.947,10.82-6.484C187.857,64.218,192.01,63.476,196.438,63.476z M196.438,78.671
		c-3.073,0-5.898,0.742-8.477,2.227c-2.709,1.562-4.792,3.516-6.25,5.859c-1.537,2.553-2.305,5.156-2.305,7.812
		c0,3.308,0.768,6.381,2.305,9.219c1.562,2.839,3.619,5,6.172,6.484c2.682,1.537,5.533,2.305,8.555,2.305
		c3.072,0,5.924-0.768,8.555-2.305c2.552-1.458,4.609-3.619,6.172-6.484c1.536-2.76,2.305-5.833,2.305-9.219
		c0-2.734-0.769-5.338-2.305-7.812c-1.484-2.369-3.568-4.322-6.25-5.859C202.362,79.413,199.537,78.671,196.438,78.671z"/>
	<path fill="#F51484" d="M273.743,65.468h15.664v33.906c0,1.562-0.026,2.943-0.078,4.141c-0.053,1.198-0.156,2.565-0.312,4.102
		c-0.261,2.448-0.847,4.766-1.758,6.953c-0.808,2.109-2.188,4.141-4.141,6.094c-1.667,1.589-3.594,2.891-5.781,3.906
		c-2.188,0.99-4.479,1.692-6.875,2.109c-2.448,0.469-4.896,0.703-7.344,0.703c-3.776,0-7.487-0.534-11.133-1.602
		c-1.797-0.547-3.412-1.236-4.844-2.07c-1.433-0.833-2.773-1.849-4.023-3.047c-1.953-1.953-3.347-3.984-4.18-6.094
		c-0.938-2.213-1.523-4.505-1.758-6.875c-0.261-2.656-0.391-5.43-0.391-8.32V65.468h15.664v31.758c0,3.229,0.221,6.029,0.664,8.398
		c0.364,2.136,1.341,4.023,2.93,5.664c1.562,1.562,3.919,2.344,7.07,2.344c3.125,0,5.469-0.781,7.031-2.344s2.552-3.45,2.969-5.664
		c0.416-2.447,0.625-5.247,0.625-8.398V65.468z"/>
	<path fill="#F51484" d="M330.54,101.054l18.945,24.727h-19.531l-14.766-23.203h-0.195v23.203h-15.664V65.468h23.438
		c4.166,0,7.799,0.664,10.898,1.992c3.203,1.406,5.65,3.464,7.344,6.172c1.822,2.761,2.734,6.225,2.734,10.391
		c0,2.812-0.508,5.43-1.523,7.852c-1.094,2.448-2.592,4.44-4.492,5.977C335.774,99.439,333.377,100.507,330.54,101.054z
		 M314.993,77.46v15.039h1.523c2.161,0,3.984-0.182,5.469-0.547c1.614-0.469,2.916-1.224,3.906-2.266
		c1.016-1.041,1.523-2.604,1.523-4.688c0-2.109-0.508-3.685-1.523-4.727c-0.99-1.041-2.292-1.797-3.906-2.266
		c-1.433-0.364-3.256-0.547-5.469-0.547H314.993z"/>
	<path fill="#F51484" d="M405.344,125.78h-24.18V65.468h22.422c11.927,0,17.891,5.222,17.891,15.664c0,2.995-0.561,5.521-1.68,7.578
		c-1.12,2.058-2.773,3.646-4.961,4.766v0.156c4.192,0.547,7.291,2.148,9.297,4.805c2.031,2.656,3.047,6.172,3.047,10.547
		c0,5.859-2.084,10.131-6.25,12.812C416.685,124.452,411.49,125.78,405.344,125.78z M396.829,77.46v11.68h1.797
		c2.578,0,4.622-0.403,6.133-1.211c1.562-0.807,2.344-2.344,2.344-4.609c0-2.5-0.834-4.102-2.5-4.805
		c-1.511-0.703-3.725-1.055-6.641-1.055H396.829z M396.829,100.819v12.969h2.031c3.88,0,6.914-0.403,9.102-1.211
		c2.239-0.703,3.359-2.435,3.359-5.195c0-2.708-0.938-4.492-2.812-5.352c-1.797-0.807-4.245-1.211-7.344-1.211h-2.734H396.829z"/>
	<path fill="#F51484" d="M472.258,115.312h-21.602l-4.141,10.469h-16.641l23.203-60.312h17.109l22.734,60.312h-16.719
		L472.258,115.312z M468.04,103.319l-6.406-19.219h-0.156l-6.484,19.219H468.04z"/>
	<path fill="#F51484" d="M497.766,125.78V65.468h22.227c4.088,0,8.047,0.769,11.875,2.305c3.75,1.511,7.018,3.646,9.805,6.406
		c2.891,2.787,5.078,5.99,6.562,9.609c0.807,1.823,1.412,3.718,1.816,5.684c0.403,1.967,0.605,4.018,0.605,6.152
		c0,5.521-1.394,10.586-4.18,15.195c-2.787,4.688-6.511,8.347-11.172,10.977c-2.422,1.328-4.896,2.324-7.422,2.988
		c-2.526,0.664-5.156,0.996-7.891,0.996H497.766z M513.43,78.749v33.75h3.555c3.177,0,6.106-0.611,8.789-1.836
		c2.682-1.25,4.766-3.111,6.25-5.586c1.536-2.604,2.305-5.755,2.305-9.453c0-5.286-1.576-9.427-4.727-12.422
		c-1.042-0.963-2.201-1.777-3.477-2.441c-1.276-0.664-2.656-1.165-4.141-1.504c-1.484-0.338-3.1-0.508-4.844-0.508H513.43z"/>
	<path fill="#F51484" d="M594.875,115.312h-21.602l-4.141,10.469h-16.641l23.203-60.312h17.109l22.734,60.312h-16.719
		L594.875,115.312z M590.657,103.319l-6.406-19.219h-0.156l-6.484,19.219H590.657z"/>
	<path fill="#F51484" d="M659.758,68.827l-6.25,12.148c-3.256-2.656-6.719-3.984-10.391-3.984c-1.667,0-3.19,0.456-4.57,1.367
		c-1.433,0.859-2.148,2.084-2.148,3.672c0,1.537,0.638,2.709,1.914,3.516c1.197,0.781,2.877,1.523,5.039,2.227l3.984,1.211
		c4.557,1.328,8.216,3.269,10.977,5.82c2.604,2.578,3.906,6.133,3.906,10.664c0,7.292-2.084,12.709-6.25,16.25
		c-4.479,3.776-10.183,5.664-17.109,5.664c-7.553,0-14.623-2.291-21.211-6.875l6.719-12.656c4.713,4.167,9.361,6.25,13.945,6.25
		c1.979,0,3.736-0.533,5.273-1.602c1.536-1.067,2.305-2.564,2.305-4.492c0-1.953-0.847-3.359-2.539-4.219
		c-1.589-0.807-3.906-1.692-6.953-2.656c-3.594-0.963-6.615-2.057-9.062-3.281c-2.318-1.172-4.108-2.825-5.371-4.961
		c-1.264-2.135-1.895-5.064-1.895-8.789c0-4.01,0.872-7.552,2.617-10.625c1.849-3.125,4.336-5.508,7.461-7.148
		c3.047-1.641,6.614-2.461,10.703-2.461c3.021,0,6.275,0.456,9.766,1.367C654.002,66.093,657.049,67.291,659.758,68.827z"/>
	<path fill="#F51484" d="M709.055,68.827l-6.25,12.148c-3.256-2.656-6.719-3.984-10.39-3.984c-1.667,0-3.19,0.456-4.57,1.367
		c-1.433,0.859-2.148,2.084-2.148,3.672c0,1.537,0.638,2.709,1.914,3.516c1.197,0.781,2.877,1.523,5.039,2.227l3.984,1.211
		c4.557,1.328,8.217,3.269,10.977,5.82c2.604,2.578,3.906,6.133,3.906,10.664c0,7.292-2.084,12.709-6.25,16.25
		c-4.479,3.776-10.182,5.664-17.109,5.664c-7.553,0-14.623-2.291-21.211-6.875l6.719-12.656c4.713,4.167,9.361,6.25,13.945,6.25
		c1.979,0,3.736-0.533,5.273-1.602c1.536-1.067,2.305-2.564,2.305-4.492c0-1.953-0.847-3.359-2.539-4.219
		c-1.589-0.807-3.906-1.692-6.953-2.656c-3.594-0.963-6.615-2.057-9.062-3.281c-2.318-1.172-4.108-2.825-5.371-4.961
		c-1.264-2.135-1.895-5.064-1.895-8.789c0-4.01,0.872-7.552,2.617-10.625c1.849-3.125,4.336-5.508,7.461-7.148
		c3.047-1.641,6.614-2.461,10.703-2.461c3.021,0,6.275,0.456,9.765,1.367C703.299,66.093,706.346,67.291,709.055,68.827z"/>
	<path fill="#F51484" d="M785.773,68.827l-6.25,12.148c-3.256-2.656-6.719-3.984-10.391-3.984c-1.666,0-3.189,0.456-4.57,1.367
		c-1.432,0.859-2.148,2.084-2.148,3.672c0,1.537,0.639,2.709,1.914,3.516c1.197,0.781,2.877,1.523,5.039,2.227l3.984,1.211
		c4.557,1.328,8.217,3.269,10.977,5.82c2.604,2.578,3.906,6.133,3.906,10.664c0,7.292-2.084,12.709-6.25,16.25
		c-4.479,3.776-10.182,5.664-17.109,5.664c-7.553,0-14.623-2.291-21.211-6.875l6.719-12.656c4.713,4.167,9.361,6.25,13.945,6.25
		c1.979,0,3.736-0.533,5.273-1.602c1.537-1.067,2.305-2.564,2.305-4.492c0-1.953-0.846-3.359-2.539-4.219
		c-1.588-0.807-3.906-1.692-6.953-2.656c-3.594-0.963-6.615-2.057-9.062-3.281c-2.318-1.172-4.107-2.825-5.371-4.961
		c-1.264-2.135-1.895-5.064-1.895-8.789c0-4.01,0.873-7.552,2.617-10.625c1.85-3.125,4.336-5.508,7.461-7.148
		c3.047-1.641,6.615-2.461,10.703-2.461c3.021,0,6.275,0.456,9.766,1.367C780.018,66.093,783.064,67.291,785.773,68.827z"/>
	<path fill="#F51484" d="M830.031,78.749h-18.672v10.078h17.695v13.281h-17.695v10.391h18.672v13.281h-34.336V65.468h34.336V78.749z
		"/>
	<path fill="#F51484" d="M870.891,101.054l18.945,24.727h-19.531l-14.766-23.203h-0.195v23.203H839.68V65.468h23.438
		c4.166,0,7.799,0.664,10.898,1.992c3.203,1.406,5.65,3.464,7.344,6.172c1.822,2.761,2.734,6.225,2.734,10.391
		c0,2.812-0.508,5.43-1.523,7.852c-1.094,2.448-2.592,4.44-4.492,5.977C876.125,99.439,873.729,100.507,870.891,101.054z
		 M855.344,77.46v15.039h1.523c2.162,0,3.984-0.182,5.469-0.547c1.615-0.469,2.916-1.224,3.906-2.266
		c1.016-1.041,1.523-2.604,1.523-4.688c0-2.109-0.508-3.685-1.523-4.727c-0.99-1.041-2.291-1.797-3.906-2.266
		c-1.432-0.364-3.256-0.547-5.469-0.547H855.344z"/>
	<path fill="#F51484" d="M904.836,65.468l14.531,36.641l14.648-36.641h17.031l-25.742,60.312h-12.188l-25.352-60.312H904.836z"/>
	<path fill="#F51484" d="M970.656,65.468v60.312h-15.664V65.468H970.656z"/>
	<path fill="#F51484" d="M1024.055,66.913v18.789c-1.537-2.083-3.541-3.736-6.016-4.961c-2.422-1.119-5-1.68-7.734-1.68
		c-3.15,0-5.924,0.742-8.32,2.227c-2.5,1.433-4.428,3.438-5.781,6.016c-1.328,2.475-1.992,5.3-1.992,8.477
		c0,3.178,0.689,6.003,2.07,8.477c1.406,2.578,3.334,4.531,5.781,5.859c2.553,1.381,5.377,2.07,8.477,2.07
		c2.604,0,5.078-0.56,7.422-1.68c2.422-1.224,4.453-2.799,6.094-4.727v18.789c-3.047,0.938-5.689,1.666-7.93,2.188
		c-1.953,0.416-3.92,0.625-5.898,0.625c-3.984,0-8.021-0.769-12.109-2.305c-1.275-0.494-2.506-1.067-3.691-1.719
		c-1.186-0.65-2.338-1.367-3.457-2.148s-2.252-1.68-3.398-2.695c-6.459-5.833-9.688-13.438-9.688-22.812
		c0-4.088,0.781-8.06,2.344-11.914c1.615-3.984,3.803-7.369,6.562-10.156c2.109-2.109,4.35-3.867,6.719-5.273
		c2.475-1.458,5.104-2.578,7.891-3.359c2.865-0.755,5.639-1.133,8.32-1.133C1014.381,63.866,1019.158,64.882,1024.055,66.913z"/>
	<path fill="#F51484" d="M1068.078,78.749h-18.672v10.078h17.695v13.281h-17.695v10.391h18.672v13.281h-34.336V65.468h34.336V78.749
		z"/>
	<path fill="#F51484" d="M1117.102,68.827l-6.25,12.148c-3.256-2.656-6.719-3.984-10.391-3.984c-1.666,0-3.189,0.456-4.57,1.367
		c-1.432,0.859-2.148,2.084-2.148,3.672c0,1.537,0.639,2.709,1.914,3.516c1.197,0.781,2.877,1.523,5.039,2.227l3.984,1.211
		c4.557,1.328,8.217,3.269,10.977,5.82c2.604,2.578,3.906,6.133,3.906,10.664c0,7.292-2.084,12.709-6.25,16.25
		c-4.479,3.776-10.182,5.664-17.109,5.664c-7.553,0-14.623-2.291-21.211-6.875l6.719-12.656c4.713,4.167,9.361,6.25,13.945,6.25
		c1.979,0,3.736-0.533,5.273-1.602c1.537-1.067,2.305-2.564,2.305-4.492c0-1.953-0.846-3.359-2.539-4.219
		c-1.588-0.807-3.906-1.692-6.953-2.656c-3.594-0.963-6.615-2.057-9.062-3.281c-2.318-1.172-4.107-2.825-5.371-4.961
		c-1.264-2.135-1.895-5.064-1.895-8.789c0-4.01,0.873-7.552,2.617-10.625c1.85-3.125,4.336-5.508,7.461-7.148
		c3.047-1.641,6.615-2.461,10.703-2.461c3.021,0,6.275,0.456,9.766,1.367C1111.346,66.093,1114.393,67.291,1117.102,68.827z"/>
</g>
<g>
	<path fill="#3AB4FF" d="M192.438,59.476c4.4,0,8.594,0.742,12.578,2.227c4.062,1.562,7.63,3.725,10.703,6.484
		c3.021,2.709,5.481,6.016,7.383,9.922c1.797,3.672,2.695,7.8,2.695,12.383c0,4.818-0.795,9.245-2.383,13.281
		c-1.667,4.115-4.011,7.67-7.031,10.664c-1.615,1.615-3.281,2.982-5,4.102c-1.719,1.12-3.581,2.07-5.586,2.852
		c-4.037,1.588-8.49,2.383-13.359,2.383c-4.792,0-9.219-0.795-13.281-2.383c-4.115-1.614-7.656-3.932-10.625-6.953
		c-1.484-1.458-2.793-3.04-3.926-4.746c-1.133-1.705-2.168-3.678-3.105-5.918c-1.615-4.088-2.422-8.516-2.422-13.281
		c0-2.161,0.228-4.283,0.684-6.367c0.455-2.083,1.139-4.088,2.051-6.016c1.927-3.958,4.375-7.266,7.344-9.922
		c3.099-2.786,6.705-4.947,10.82-6.484C183.857,60.218,188.01,59.476,192.438,59.476z M192.438,74.671
		c-3.073,0-5.898,0.742-8.477,2.227c-2.709,1.562-4.792,3.516-6.25,5.859c-1.537,2.553-2.305,5.156-2.305,7.812
		c0,3.308,0.768,6.381,2.305,9.219c1.562,2.839,3.619,5,6.172,6.484c2.682,1.537,5.533,2.305,8.555,2.305
		c3.072,0,5.924-0.768,8.555-2.305c2.552-1.458,4.609-3.619,6.172-6.484c1.536-2.76,2.305-5.833,2.305-9.219
		c0-2.734-0.769-5.338-2.305-7.812c-1.484-2.369-3.568-4.322-6.25-5.859C198.362,75.413,195.537,74.671,192.438,74.671z"/>
	<path fill="#3AB4FF" d="M269.743,61.468h15.664v33.906c0,1.562-0.026,2.943-0.078,4.141c-0.053,1.198-0.156,2.565-0.312,4.102
		c-0.261,2.448-0.847,4.766-1.758,6.953c-0.808,2.109-2.188,4.141-4.141,6.094c-1.667,1.589-3.594,2.891-5.781,3.906
		c-2.188,0.99-4.479,1.692-6.875,2.109c-2.448,0.469-4.896,0.703-7.344,0.703c-3.776,0-7.487-0.534-11.133-1.602
		c-1.797-0.547-3.412-1.236-4.844-2.07c-1.433-0.833-2.773-1.849-4.023-3.047c-1.953-1.953-3.347-3.984-4.18-6.094
		c-0.938-2.213-1.523-4.505-1.758-6.875c-0.261-2.656-0.391-5.43-0.391-8.32V61.468h15.664v31.758c0,3.229,0.221,6.029,0.664,8.398
		c0.364,2.136,1.341,4.023,2.93,5.664c1.562,1.562,3.919,2.344,7.07,2.344c3.125,0,5.469-0.781,7.031-2.344s2.552-3.45,2.969-5.664
		c0.416-2.447,0.625-5.247,0.625-8.398V61.468z"/>
	<path fill="#3AB4FF" d="M326.54,97.054l18.945,24.727h-19.531l-14.766-23.203h-0.195v23.203h-15.664V61.468h23.438
		c4.166,0,7.799,0.664,10.898,1.992c3.203,1.406,5.65,3.464,7.344,6.172c1.822,2.761,2.734,6.225,2.734,10.391
		c0,2.812-0.508,5.43-1.523,7.852c-1.094,2.448-2.592,4.44-4.492,5.977C331.774,95.439,329.377,96.507,326.54,97.054z
		 M310.993,73.46v15.039h1.523c2.161,0,3.984-0.182,5.469-0.547c1.614-0.469,2.916-1.224,3.906-2.266
		c1.016-1.041,1.523-2.604,1.523-4.688c0-2.109-0.508-3.685-1.523-4.727c-0.99-1.041-2.292-1.797-3.906-2.266
		c-1.433-0.364-3.256-0.547-5.469-0.547H310.993z"/>
	<path fill="#3AB4FF" d="M401.344,121.78h-24.18V61.468h22.422c11.927,0,17.891,5.222,17.891,15.664c0,2.995-0.561,5.521-1.68,7.578
		c-1.12,2.058-2.773,3.646-4.961,4.766v0.156c4.192,0.547,7.291,2.148,9.297,4.805c2.031,2.656,3.047,6.172,3.047,10.547
		c0,5.859-2.084,10.131-6.25,12.812C412.685,120.452,407.49,121.78,401.344,121.78z M392.829,73.46v11.68h1.797
		c2.578,0,4.622-0.403,6.133-1.211c1.562-0.807,2.344-2.344,2.344-4.609c0-2.5-0.834-4.102-2.5-4.805
		c-1.511-0.703-3.725-1.055-6.641-1.055H392.829z M392.829,96.819v12.969h2.031c3.88,0,6.914-0.403,9.102-1.211
		c2.239-0.703,3.359-2.435,3.359-5.195c0-2.708-0.938-4.492-2.812-5.352c-1.797-0.807-4.245-1.211-7.344-1.211h-2.734H392.829z"/>
	<path fill="#3AB4FF" d="M468.258,111.312h-21.602l-4.141,10.469h-16.641l23.203-60.312h17.109l22.734,60.312h-16.719
		L468.258,111.312z M464.04,99.319l-6.406-19.219h-0.156l-6.484,19.219H464.04z"/>
	<path fill="#3AB4FF" d="M493.766,121.78V61.468h22.227c4.088,0,8.047,0.769,11.875,2.305c3.75,1.511,7.018,3.646,9.805,6.406
		c2.891,2.787,5.078,5.99,6.562,9.609c0.807,1.823,1.412,3.718,1.816,5.684c0.403,1.967,0.605,4.018,0.605,6.152
		c0,5.521-1.394,10.586-4.18,15.195c-2.787,4.688-6.511,8.347-11.172,10.977c-2.422,1.328-4.896,2.324-7.422,2.988
		c-2.526,0.664-5.156,0.996-7.891,0.996H493.766z M509.43,74.749v33.75h3.555c3.177,0,6.106-0.611,8.789-1.836
		c2.682-1.25,4.766-3.111,6.25-5.586c1.536-2.604,2.305-5.755,2.305-9.453c0-5.286-1.576-9.427-4.727-12.422
		c-1.042-0.963-2.201-1.777-3.477-2.441c-1.276-0.664-2.656-1.165-4.141-1.504c-1.484-0.338-3.1-0.508-4.844-0.508H509.43z"/>
	<path fill="#3AB4FF" d="M590.875,111.312h-21.602l-4.141,10.469h-16.641l23.203-60.312h17.109l22.734,60.312h-16.719
		L590.875,111.312z M586.657,99.319l-6.406-19.219h-0.156l-6.484,19.219H586.657z"/>
	<path fill="#3AB4FF" d="M655.758,64.827l-6.25,12.148c-3.256-2.656-6.719-3.984-10.391-3.984c-1.667,0-3.19,0.456-4.57,1.367
		c-1.433,0.859-2.148,2.084-2.148,3.672c0,1.537,0.638,2.709,1.914,3.516c1.197,0.781,2.877,1.523,5.039,2.227l3.984,1.211
		c4.557,1.328,8.216,3.269,10.977,5.82c2.604,2.578,3.906,6.133,3.906,10.664c0,7.292-2.084,12.709-6.25,16.25
		c-4.479,3.776-10.183,5.664-17.109,5.664c-7.553,0-14.623-2.291-21.211-6.875l6.719-12.656c4.713,4.167,9.361,6.25,13.945,6.25
		c1.979,0,3.736-0.533,5.273-1.602c1.536-1.067,2.305-2.564,2.305-4.492c0-1.953-0.847-3.359-2.539-4.219
		c-1.589-0.807-3.906-1.692-6.953-2.656c-3.594-0.963-6.615-2.057-9.062-3.281c-2.318-1.172-4.108-2.825-5.371-4.961
		c-1.264-2.135-1.895-5.064-1.895-8.789c0-4.01,0.872-7.552,2.617-10.625c1.849-3.125,4.336-5.508,7.461-7.148
		c3.047-1.641,6.614-2.461,10.703-2.461c3.021,0,6.275,0.456,9.766,1.367C650.002,62.093,653.049,63.291,655.758,64.827z"/>
	<path fill="#3AB4FF" d="M705.055,64.827l-6.25,12.148c-3.255-2.656-6.718-3.984-10.39-3.984c-1.667,0-3.19,0.456-4.57,1.367
		c-1.433,0.859-2.148,2.084-2.148,3.672c0,1.537,0.638,2.709,1.914,3.516c1.197,0.781,2.877,1.523,5.039,2.227l3.984,1.211
		c4.556,1.328,8.216,3.269,10.976,5.82c2.604,2.578,3.906,6.133,3.906,10.664c0,7.292-2.084,12.709-6.25,16.25
		c-4.479,3.776-10.182,5.664-17.109,5.664c-7.553,0-14.623-2.291-21.211-6.875l6.719-12.656c4.713,4.167,9.361,6.25,13.945,6.25
		c1.979,0,3.736-0.533,5.273-1.602c1.536-1.067,2.305-2.564,2.305-4.492c0-1.953-0.847-3.359-2.539-4.219
		c-1.589-0.807-3.906-1.692-6.953-2.656c-3.594-0.963-6.615-2.057-9.062-3.281c-2.318-1.172-4.108-2.825-5.371-4.961
		c-1.264-2.135-1.895-5.064-1.895-8.789c0-4.01,0.872-7.552,2.617-10.625c1.849-3.125,4.336-5.508,7.461-7.148
		c3.047-1.641,6.614-2.461,10.703-2.461c3.021,0,6.275,0.456,9.766,1.367C699.299,62.093,702.346,63.291,705.055,64.827z"/>
	<path fill="#3AB4FF" d="M781.773,64.827l-6.25,12.148c-3.256-2.656-6.719-3.984-10.391-3.984c-1.666,0-3.189,0.456-4.57,1.367
		c-1.432,0.859-2.148,2.084-2.148,3.672c0,1.537,0.639,2.709,1.914,3.516c1.197,0.781,2.877,1.523,5.039,2.227l3.984,1.211
		c4.557,1.328,8.217,3.269,10.977,5.82c2.604,2.578,3.906,6.133,3.906,10.664c0,7.292-2.084,12.709-6.25,16.25
		c-4.479,3.776-10.182,5.664-17.109,5.664c-7.553,0-14.623-2.291-21.211-6.875l6.719-12.656c4.713,4.167,9.361,6.25,13.945,6.25
		c1.979,0,3.736-0.533,5.273-1.602c1.537-1.067,2.305-2.564,2.305-4.492c0-1.953-0.846-3.359-2.539-4.219
		c-1.588-0.807-3.906-1.692-6.953-2.656c-3.594-0.963-6.615-2.057-9.062-3.281c-2.318-1.172-4.107-2.825-5.371-4.961
		c-1.264-2.135-1.895-5.064-1.895-8.789c0-4.01,0.873-7.552,2.617-10.625c1.85-3.125,4.336-5.508,7.461-7.148
		c3.047-1.641,6.615-2.461,10.703-2.461c3.021,0,6.275,0.456,9.766,1.367C776.018,62.093,779.064,63.291,781.773,64.827z"/>
	<path fill="#3AB4FF" d="M826.031,74.749h-18.672v10.078h17.695v13.281h-17.695v10.391h18.672v13.281h-34.336V61.468h34.336V74.749z
		"/>
	<path fill="#3AB4FF" d="M866.891,97.054l18.945,24.727h-19.531l-14.766-23.203h-0.195v23.203H835.68V61.468h23.438
		c4.166,0,7.799,0.664,10.898,1.992c3.203,1.406,5.65,3.464,7.344,6.172c1.822,2.761,2.734,6.225,2.734,10.391
		c0,2.812-0.508,5.43-1.523,7.852c-1.094,2.448-2.592,4.44-4.492,5.977C872.125,95.439,869.729,96.507,866.891,97.054z
		 M851.344,73.46v15.039h1.523c2.162,0,3.984-0.182,5.469-0.547c1.615-0.469,2.916-1.224,3.906-2.266
		c1.016-1.041,1.523-2.604,1.523-4.688c0-2.109-0.508-3.685-1.523-4.727c-0.99-1.041-2.291-1.797-3.906-2.266
		c-1.432-0.364-3.256-0.547-5.469-0.547H851.344z"/>
	<path fill="#3AB4FF" d="M900.836,61.468l14.531,36.641l14.648-36.641h17.031l-25.742,60.312h-12.188l-25.352-60.312H900.836z"/>
	<path fill="#3AB4FF" d="M966.656,61.468v60.312h-15.664V61.468H966.656z"/>
	<path fill="#3AB4FF" d="M1020.055,62.913v18.789c-1.537-2.083-3.541-3.736-6.016-4.961c-2.422-1.119-5-1.68-7.734-1.68
		c-3.15,0-5.924,0.742-8.32,2.227c-2.5,1.433-4.428,3.438-5.781,6.016c-1.328,2.475-1.992,5.3-1.992,8.477
		c0,3.178,0.689,6.003,2.07,8.477c1.406,2.578,3.334,4.531,5.781,5.859c2.553,1.381,5.377,2.07,8.477,2.07
		c2.604,0,5.078-0.56,7.422-1.68c2.422-1.224,4.453-2.799,6.094-4.727v18.789c-3.047,0.938-5.689,1.666-7.93,2.188
		c-1.953,0.416-3.92,0.625-5.898,0.625c-3.984,0-8.021-0.769-12.109-2.305c-1.275-0.494-2.506-1.067-3.691-1.719
		c-1.186-0.65-2.338-1.367-3.457-2.148s-2.252-1.68-3.398-2.695c-6.459-5.833-9.688-13.438-9.688-22.812
		c0-4.088,0.781-8.06,2.344-11.914c1.615-3.984,3.803-7.369,6.562-10.156c2.109-2.109,4.35-3.867,6.719-5.273
		c2.475-1.458,5.104-2.578,7.891-3.359c2.865-0.755,5.639-1.133,8.32-1.133C1010.381,59.866,1015.158,60.882,1020.055,62.913z"/>
	<path fill="#3AB4FF" d="M1064.078,74.749h-18.672v10.078h17.695v13.281h-17.695v10.391h18.672v13.281h-34.336V61.468h34.336V74.749
		z"/>
	<path fill="#3AB4FF" d="M1113.102,64.827l-6.25,12.148c-3.256-2.656-6.719-3.984-10.391-3.984c-1.666,0-3.189,0.456-4.57,1.367
		c-1.432,0.859-2.148,2.084-2.148,3.672c0,1.537,0.639,2.709,1.914,3.516c1.197,0.781,2.877,1.523,5.039,2.227l3.984,1.211
		c4.557,1.328,8.217,3.269,10.977,5.82c2.604,2.578,3.906,6.133,3.906,10.664c0,7.292-2.084,12.709-6.25,16.25
		c-4.479,3.776-10.182,5.664-17.109,5.664c-7.553,0-14.623-2.291-21.211-6.875l6.719-12.656c4.713,4.167,9.361,6.25,13.945,6.25
		c1.979,0,3.736-0.533,5.273-1.602c1.537-1.067,2.305-2.564,2.305-4.492c0-1.953-0.846-3.359-2.539-4.219
		c-1.588-0.807-3.906-1.692-6.953-2.656c-3.594-0.963-6.615-2.057-9.062-3.281c-2.318-1.172-4.107-2.825-5.371-4.961
		c-1.264-2.135-1.895-5.064-1.895-8.789c0-4.01,0.873-7.552,2.617-10.625c1.85-3.125,4.336-5.508,7.461-7.148
		c3.047-1.641,6.615-2.461,10.703-2.461c3.021,0,6.275,0.456,9.766,1.367C1107.346,62.093,1110.393,63.291,1113.102,64.827z"/>
</g>
<g>
	<polygon fill="#F51484" points="1192,66.344 1229.666,97 1211,97 1192,81.422 	"/>
	<polygon fill="#F51484" points="1192,126.5 1229.666,97 1211,97 1192,111.422 	"/>
</g>
<g>
	<polygon fill="#3AB4FF" points="1192,62.344 1229.666,93 1211,93 1192,77.422 	"/>
	<polygon fill="#3AB4FF" points="1192,122.5 1229.666,93 1211,93 1192,107.422 	"/>
</g>
<g>
	<g>
		<rect x="1457" y="32" fill="#6E1F75" width="1317" height="150"/>
		<rect x="1445" y="25" fill="#F51484" width="1319" height="150"/>
		<rect x="1436" y="18" fill="#F9F9F9" width="1319" height="150"/>
	</g>
	<g>
		<path fill="#3AB4FF" d="M1606.438,63.476c4.4,0,8.594,0.742,12.578,2.227c4.062,1.562,7.631,3.725,10.703,6.484
			c3.021,2.709,5.482,6.016,7.383,9.922c1.797,3.672,2.695,7.8,2.695,12.383c0,4.818-0.795,9.245-2.383,13.281
			c-1.666,4.115-4.01,7.67-7.031,10.664c-1.615,1.615-3.281,2.982-5,4.102c-1.719,1.12-3.58,2.07-5.586,2.852
			c-4.037,1.588-8.49,2.383-13.359,2.383c-4.791,0-9.219-0.795-13.281-2.383c-4.115-1.614-7.656-3.932-10.625-6.953
			c-1.484-1.458-2.793-3.04-3.926-4.746c-1.133-1.705-2.168-3.678-3.105-5.918c-1.615-4.088-2.422-8.516-2.422-13.281
			c0-2.161,0.229-4.283,0.684-6.367c0.455-2.083,1.139-4.088,2.051-6.016c1.928-3.958,4.375-7.266,7.344-9.922
			c3.1-2.786,6.705-4.947,10.82-6.484C1597.857,64.218,1602.01,63.476,1606.438,63.476z M1606.438,78.671
			c-3.072,0-5.898,0.742-8.477,2.227c-2.709,1.562-4.791,3.516-6.25,5.859c-1.537,2.553-2.305,5.156-2.305,7.812
			c0,3.308,0.768,6.381,2.305,9.219c1.562,2.839,3.619,5,6.172,6.484c2.682,1.537,5.533,2.305,8.555,2.305
			c3.072,0,5.924-0.768,8.555-2.305c2.553-1.458,4.609-3.619,6.172-6.484c1.537-2.76,2.305-5.833,2.305-9.219
			c0-2.734-0.768-5.338-2.305-7.812c-1.484-2.369-3.568-4.322-6.25-5.859C1612.361,79.413,1609.537,78.671,1606.438,78.671z"/>
		<path fill="#3AB4FF" d="M1683.742,65.468h15.664v33.906c0,1.562-0.025,2.943-0.078,4.141c-0.053,1.198-0.156,2.565-0.312,4.102
			c-0.26,2.448-0.846,4.766-1.758,6.953c-0.807,2.109-2.188,4.141-4.141,6.094c-1.666,1.589-3.594,2.891-5.781,3.906
			c-2.188,0.99-4.479,1.692-6.875,2.109c-2.447,0.469-4.896,0.703-7.344,0.703c-3.775,0-7.486-0.534-11.133-1.602
			c-1.797-0.547-3.412-1.236-4.844-2.07c-1.432-0.833-2.773-1.849-4.023-3.047c-1.953-1.953-3.346-3.984-4.18-6.094
			c-0.938-2.213-1.523-4.505-1.758-6.875c-0.26-2.656-0.391-5.43-0.391-8.32V65.468h15.664v31.758c0,3.229,0.221,6.029,0.664,8.398
			c0.365,2.136,1.342,4.023,2.93,5.664c1.562,1.562,3.92,2.344,7.07,2.344c3.125,0,5.469-0.781,7.031-2.344s2.553-3.45,2.969-5.664
			c0.416-2.447,0.625-5.247,0.625-8.398V65.468z"/>
		<path fill="#3AB4FF" d="M1740.539,101.054l18.945,24.727h-19.531l-14.766-23.203h-0.195v23.203h-15.664V65.468h23.438
			c4.166,0,7.799,0.664,10.898,1.992c3.203,1.406,5.65,3.464,7.344,6.172c1.822,2.761,2.734,6.225,2.734,10.391
			c0,2.812-0.508,5.43-1.523,7.852c-1.094,2.448-2.592,4.44-4.492,5.977C1745.773,99.439,1743.377,100.507,1740.539,101.054z
			 M1724.992,77.46v15.039h1.523c2.162,0,3.984-0.182,5.469-0.547c1.615-0.469,2.916-1.224,3.906-2.266
			c1.016-1.041,1.523-2.604,1.523-4.688c0-2.109-0.508-3.685-1.523-4.727c-0.99-1.041-2.291-1.797-3.906-2.266
			c-1.432-0.364-3.256-0.547-5.469-0.547H1724.992z"/>
		<path fill="#3AB4FF" d="M1815.344,125.78h-24.18V65.468h22.422c11.928,0,17.891,5.222,17.891,15.664
			c0,2.995-0.561,5.521-1.68,7.578c-1.119,2.058-2.773,3.646-4.961,4.766v0.156c4.193,0.547,7.291,2.148,9.297,4.805
			c2.031,2.656,3.047,6.172,3.047,10.547c0,5.859-2.084,10.131-6.25,12.812C1826.686,124.452,1821.49,125.78,1815.344,125.78z
			 M1806.828,77.46v11.68h1.797c2.578,0,4.623-0.403,6.133-1.211c1.562-0.807,2.344-2.344,2.344-4.609c0-2.5-0.834-4.102-2.5-4.805
			c-1.51-0.703-3.725-1.055-6.641-1.055H1806.828z M1806.828,100.819v12.969h2.031c3.881,0,6.914-0.403,9.102-1.211
			c2.24-0.703,3.359-2.435,3.359-5.195c0-2.708-0.938-4.492-2.812-5.352c-1.797-0.807-4.244-1.211-7.344-1.211h-2.734H1806.828z"/>
		<path fill="#3AB4FF" d="M1882.258,115.312h-21.602l-4.141,10.469h-16.641l23.203-60.312h17.109l22.734,60.312h-16.719
			L1882.258,115.312z M1878.039,103.319l-6.406-19.219h-0.156l-6.484,19.219H1878.039z"/>
		<path fill="#3AB4FF" d="M1907.766,125.78V65.468h22.227c4.088,0,8.047,0.769,11.875,2.305c3.75,1.511,7.018,3.646,9.805,6.406
			c2.891,2.787,5.078,5.99,6.562,9.609c0.807,1.823,1.412,3.718,1.816,5.684c0.404,1.967,0.605,4.018,0.605,6.152
			c0,5.521-1.393,10.586-4.18,15.195c-2.787,4.688-6.51,8.347-11.172,10.977c-2.422,1.328-4.896,2.324-7.422,2.988
			s-5.156,0.996-7.891,0.996H1907.766z M1923.43,78.749v33.75h3.555c3.178,0,6.107-0.611,8.789-1.836
			c2.682-1.25,4.766-3.111,6.25-5.586c1.537-2.604,2.305-5.755,2.305-9.453c0-5.286-1.576-9.427-4.727-12.422
			c-1.041-0.963-2.201-1.777-3.477-2.441s-2.656-1.165-4.141-1.504c-1.484-0.338-3.1-0.508-4.844-0.508H1923.43z"/>
		<path fill="#3AB4FF" d="M2004.875,115.312h-21.602l-4.141,10.469h-16.641l23.203-60.312h17.109l22.734,60.312h-16.719
			L2004.875,115.312z M2000.656,103.319l-6.406-19.219h-0.156l-6.484,19.219H2000.656z"/>
		<path fill="#3AB4FF" d="M2069.758,68.827l-6.25,12.148c-3.256-2.656-6.719-3.984-10.391-3.984c-1.666,0-3.189,0.456-4.57,1.367
			c-1.432,0.859-2.148,2.084-2.148,3.672c0,1.537,0.639,2.709,1.914,3.516c1.197,0.781,2.877,1.523,5.039,2.227l3.984,1.211
			c4.557,1.328,8.217,3.269,10.977,5.82c2.604,2.578,3.906,6.133,3.906,10.664c0,7.292-2.084,12.709-6.25,16.25
			c-4.479,3.776-10.182,5.664-17.109,5.664c-7.553,0-14.623-2.291-21.211-6.875l6.719-12.656c4.713,4.167,9.361,6.25,13.945,6.25
			c1.979,0,3.736-0.533,5.273-1.602c1.537-1.067,2.305-2.564,2.305-4.492c0-1.953-0.846-3.359-2.539-4.219
			c-1.588-0.807-3.906-1.692-6.953-2.656c-3.594-0.963-6.615-2.057-9.062-3.281c-2.318-1.172-4.107-2.825-5.371-4.961
			c-1.264-2.135-1.895-5.064-1.895-8.789c0-4.01,0.873-7.552,2.617-10.625c1.85-3.125,4.336-5.508,7.461-7.148
			c3.047-1.641,6.615-2.461,10.703-2.461c3.021,0,6.275,0.456,9.766,1.367C2064.002,66.093,2067.049,67.291,2069.758,68.827z"/>
		<path fill="#3AB4FF" d="M2119.055,68.827l-6.25,12.148c-3.256-2.656-6.719-3.984-10.391-3.984c-1.666,0-3.189,0.456-4.57,1.367
			c-1.432,0.859-2.148,2.084-2.148,3.672c0,1.537,0.639,2.709,1.914,3.516c1.197,0.781,2.877,1.523,5.039,2.227l3.984,1.211
			c4.557,1.328,8.217,3.269,10.977,5.82c2.604,2.578,3.906,6.133,3.906,10.664c0,7.292-2.084,12.709-6.25,16.25
			c-4.479,3.776-10.182,5.664-17.109,5.664c-7.553,0-14.623-2.291-21.211-6.875l6.719-12.656c4.713,4.167,9.361,6.25,13.945,6.25
			c1.979,0,3.736-0.533,5.273-1.602c1.537-1.067,2.305-2.564,2.305-4.492c0-1.953-0.846-3.359-2.539-4.219
			c-1.588-0.807-3.906-1.692-6.953-2.656c-3.594-0.963-6.615-2.057-9.062-3.281c-2.318-1.172-4.107-2.825-5.371-4.961
			c-1.264-2.135-1.895-5.064-1.895-8.789c0-4.01,0.873-7.552,2.617-10.625c1.85-3.125,4.336-5.508,7.461-7.148
			c3.047-1.641,6.615-2.461,10.703-2.461c3.021,0,6.275,0.456,9.766,1.367C2113.299,66.093,2116.346,67.291,2119.055,68.827z"/>
		<path fill="#3AB4FF" d="M2195.773,68.827l-6.25,12.148c-3.256-2.656-6.719-3.984-10.391-3.984c-1.666,0-3.189,0.456-4.57,1.367
			c-1.432,0.859-2.148,2.084-2.148,3.672c0,1.537,0.639,2.709,1.914,3.516c1.197,0.781,2.877,1.523,5.039,2.227l3.984,1.211
			c4.557,1.328,8.217,3.269,10.977,5.82c2.604,2.578,3.906,6.133,3.906,10.664c0,7.292-2.084,12.709-6.25,16.25
			c-4.479,3.776-10.182,5.664-17.109,5.664c-7.553,0-14.623-2.291-21.211-6.875l6.719-12.656c4.713,4.167,9.361,6.25,13.945,6.25
			c1.979,0,3.736-0.533,5.273-1.602c1.537-1.067,2.305-2.564,2.305-4.492c0-1.953-0.846-3.359-2.539-4.219
			c-1.588-0.807-3.906-1.692-6.953-2.656c-3.594-0.963-6.615-2.057-9.062-3.281c-2.318-1.172-4.107-2.825-5.371-4.961
			c-1.264-2.135-1.895-5.064-1.895-8.789c0-4.01,0.873-7.552,2.617-10.625c1.85-3.125,4.336-5.508,7.461-7.148
			c3.047-1.641,6.615-2.461,10.703-2.461c3.021,0,6.275,0.456,9.766,1.367C2190.018,66.093,2193.064,67.291,2195.773,68.827z"/>
		<path fill="#3AB4FF" d="M2240.031,78.749h-18.672v10.078h17.695v13.281h-17.695v10.391h18.672v13.281h-34.336V65.468h34.336
			V78.749z"/>
		<path fill="#3AB4FF" d="M2280.891,101.054l18.945,24.727h-19.531l-14.766-23.203h-0.195v23.203h-15.664V65.468h23.438
			c4.166,0,7.799,0.664,10.898,1.992c3.203,1.406,5.65,3.464,7.344,6.172c1.822,2.761,2.734,6.225,2.734,10.391
			c0,2.812-0.508,5.43-1.523,7.852c-1.094,2.448-2.592,4.44-4.492,5.977C2286.125,99.439,2283.729,100.507,2280.891,101.054z
			 M2265.344,77.46v15.039h1.523c2.162,0,3.984-0.182,5.469-0.547c1.615-0.469,2.916-1.224,3.906-2.266
			c1.016-1.041,1.523-2.604,1.523-4.688c0-2.109-0.508-3.685-1.523-4.727c-0.99-1.041-2.291-1.797-3.906-2.266
			c-1.432-0.364-3.256-0.547-5.469-0.547H2265.344z"/>
		<path fill="#3AB4FF" d="M2314.836,65.468l14.531,36.641l14.648-36.641h17.031l-25.742,60.312h-12.188l-25.352-60.312H2314.836z"/>
		<path fill="#3AB4FF" d="M2380.656,65.468v60.312h-15.664V65.468H2380.656z"/>
		<path fill="#3AB4FF" d="M2434.055,66.913v18.789c-1.537-2.083-3.541-3.736-6.016-4.961c-2.422-1.119-5-1.68-7.734-1.68
			c-3.15,0-5.924,0.742-8.32,2.227c-2.5,1.433-4.428,3.438-5.781,6.016c-1.328,2.475-1.992,5.3-1.992,8.477
			c0,3.178,0.689,6.003,2.07,8.477c1.406,2.578,3.334,4.531,5.781,5.859c2.553,1.381,5.377,2.07,8.477,2.07
			c2.604,0,5.078-0.56,7.422-1.68c2.422-1.224,4.453-2.799,6.094-4.727v18.789c-3.047,0.938-5.689,1.666-7.93,2.188
			c-1.953,0.416-3.92,0.625-5.898,0.625c-3.984,0-8.021-0.769-12.109-2.305c-1.275-0.494-2.506-1.067-3.691-1.719
			c-1.186-0.65-2.338-1.367-3.457-2.148s-2.252-1.68-3.398-2.695c-6.459-5.833-9.688-13.438-9.688-22.812
			c0-4.088,0.781-8.06,2.344-11.914c1.615-3.984,3.803-7.369,6.562-10.156c2.109-2.109,4.35-3.867,6.719-5.273
			c2.475-1.458,5.104-2.578,7.891-3.359c2.865-0.755,5.639-1.133,8.32-1.133C2424.381,63.866,2429.158,64.882,2434.055,66.913z"/>
		<path fill="#3AB4FF" d="M2478.078,78.749h-18.672v10.078h17.695v13.281h-17.695v10.391h18.672v13.281h-34.336V65.468h34.336
			V78.749z"/>
		<path fill="#3AB4FF" d="M2527.102,68.827l-6.25,12.148c-3.256-2.656-6.719-3.984-10.391-3.984c-1.666,0-3.189,0.456-4.57,1.367
			c-1.432,0.859-2.148,2.084-2.148,3.672c0,1.537,0.639,2.709,1.914,3.516c1.197,0.781,2.877,1.523,5.039,2.227l3.984,1.211
			c4.557,1.328,8.217,3.269,10.977,5.82c2.604,2.578,3.906,6.133,3.906,10.664c0,7.292-2.084,12.709-6.25,16.25
			c-4.479,3.776-10.182,5.664-17.109,5.664c-7.553,0-14.623-2.291-21.211-6.875l6.719-12.656c4.713,4.167,9.361,6.25,13.945,6.25
			c1.979,0,3.736-0.533,5.273-1.602c1.537-1.067,2.305-2.564,2.305-4.492c0-1.953-0.846-3.359-2.539-4.219
			c-1.588-0.807-3.906-1.692-6.953-2.656c-3.594-0.963-6.615-2.057-9.062-3.281c-2.318-1.172-4.107-2.825-5.371-4.961
			c-1.264-2.135-1.895-5.064-1.895-8.789c0-4.01,0.873-7.552,2.617-10.625c1.85-3.125,4.336-5.508,7.461-7.148
			c3.047-1.641,6.615-2.461,10.703-2.461c3.021,0,6.275,0.456,9.766,1.367C2521.346,66.093,2524.393,67.291,2527.102,68.827z"/>
	</g>
	<g>
		<path fill="#F51484" d="M1602.438,59.476c4.4,0,8.594,0.742,12.578,2.227c4.062,1.562,7.631,3.725,10.703,6.484
			c3.021,2.709,5.482,6.016,7.383,9.922c1.797,3.672,2.695,7.8,2.695,12.383c0,4.818-0.795,9.245-2.383,13.281
			c-1.666,4.115-4.01,7.67-7.031,10.664c-1.615,1.615-3.281,2.982-5,4.102c-1.719,1.12-3.58,2.07-5.586,2.852
			c-4.037,1.588-8.49,2.383-13.359,2.383c-4.791,0-9.219-0.795-13.281-2.383c-4.115-1.614-7.656-3.932-10.625-6.953
			c-1.484-1.458-2.793-3.04-3.926-4.746c-1.133-1.705-2.168-3.678-3.105-5.918c-1.615-4.088-2.422-8.516-2.422-13.281
			c0-2.161,0.229-4.283,0.684-6.367c0.455-2.083,1.139-4.088,2.051-6.016c1.928-3.958,4.375-7.266,7.344-9.922
			c3.1-2.786,6.705-4.947,10.82-6.484C1593.857,60.218,1598.01,59.476,1602.438,59.476z M1602.438,74.671
			c-3.072,0-5.898,0.742-8.477,2.227c-2.709,1.562-4.791,3.516-6.25,5.859c-1.537,2.553-2.305,5.156-2.305,7.812
			c0,3.308,0.768,6.381,2.305,9.219c1.562,2.839,3.619,5,6.172,6.484c2.682,1.537,5.533,2.305,8.555,2.305
			c3.072,0,5.924-0.768,8.555-2.305c2.553-1.458,4.609-3.619,6.172-6.484c1.537-2.76,2.305-5.833,2.305-9.219
			c0-2.734-0.768-5.338-2.305-7.812c-1.484-2.369-3.568-4.322-6.25-5.859C1608.361,75.413,1605.537,74.671,1602.438,74.671z"/>
		<path fill="#F51484" d="M1679.742,61.468h15.664v33.906c0,1.562-0.025,2.943-0.078,4.141c-0.053,1.198-0.156,2.565-0.312,4.102
			c-0.26,2.448-0.846,4.766-1.758,6.953c-0.807,2.109-2.188,4.141-4.141,6.094c-1.666,1.589-3.594,2.891-5.781,3.906
			c-2.188,0.99-4.479,1.692-6.875,2.109c-2.447,0.469-4.896,0.703-7.344,0.703c-3.775,0-7.486-0.534-11.133-1.602
			c-1.797-0.547-3.412-1.236-4.844-2.07c-1.432-0.833-2.773-1.849-4.023-3.047c-1.953-1.953-3.346-3.984-4.18-6.094
			c-0.938-2.213-1.523-4.505-1.758-6.875c-0.26-2.656-0.391-5.43-0.391-8.32V61.468h15.664v31.758c0,3.229,0.221,6.029,0.664,8.398
			c0.365,2.136,1.342,4.023,2.93,5.664c1.562,1.562,3.92,2.344,7.07,2.344c3.125,0,5.469-0.781,7.031-2.344s2.553-3.45,2.969-5.664
			c0.416-2.447,0.625-5.247,0.625-8.398V61.468z"/>
		<path fill="#F51484" d="M1736.539,97.054l18.945,24.727h-19.531l-14.766-23.203h-0.195v23.203h-15.664V61.468h23.438
			c4.166,0,7.799,0.664,10.898,1.992c3.203,1.406,5.65,3.464,7.344,6.172c1.822,2.761,2.734,6.225,2.734,10.391
			c0,2.812-0.508,5.43-1.523,7.852c-1.094,2.448-2.592,4.44-4.492,5.977C1741.773,95.439,1739.377,96.507,1736.539,97.054z
			 M1720.992,73.46v15.039h1.523c2.162,0,3.984-0.182,5.469-0.547c1.615-0.469,2.916-1.224,3.906-2.266
			c1.016-1.041,1.523-2.604,1.523-4.688c0-2.109-0.508-3.685-1.523-4.727c-0.99-1.041-2.291-1.797-3.906-2.266
			c-1.432-0.364-3.256-0.547-5.469-0.547H1720.992z"/>
		<path fill="#F51484" d="M1811.344,121.78h-24.18V61.468h22.422c11.928,0,17.891,5.222,17.891,15.664
			c0,2.995-0.561,5.521-1.68,7.578c-1.119,2.058-2.773,3.646-4.961,4.766v0.156c4.193,0.547,7.291,2.148,9.297,4.805
			c2.031,2.656,3.047,6.172,3.047,10.547c0,5.859-2.084,10.131-6.25,12.812C1822.686,120.452,1817.49,121.78,1811.344,121.78z
			 M1802.828,73.46v11.68h1.797c2.578,0,4.623-0.403,6.133-1.211c1.562-0.807,2.344-2.344,2.344-4.609c0-2.5-0.834-4.102-2.5-4.805
			c-1.51-0.703-3.725-1.055-6.641-1.055H1802.828z M1802.828,96.819v12.969h2.031c3.881,0,6.914-0.403,9.102-1.211
			c2.24-0.703,3.359-2.435,3.359-5.195c0-2.708-0.938-4.492-2.812-5.352c-1.797-0.807-4.244-1.211-7.344-1.211h-2.734H1802.828z"/>
		<path fill="#F51484" d="M1878.258,111.312h-21.602l-4.141,10.469h-16.641l23.203-60.312h17.109l22.734,60.312h-16.719
			L1878.258,111.312z M1874.039,99.319l-6.406-19.219h-0.156l-6.484,19.219H1874.039z"/>
		<path fill="#F51484" d="M1903.766,121.78V61.468h22.227c4.088,0,8.047,0.769,11.875,2.305c3.75,1.511,7.018,3.646,9.805,6.406
			c2.891,2.787,5.078,5.99,6.562,9.609c0.807,1.823,1.412,3.718,1.816,5.684c0.404,1.967,0.605,4.018,0.605,6.152
			c0,5.521-1.393,10.586-4.18,15.195c-2.787,4.688-6.51,8.347-11.172,10.977c-2.422,1.328-4.896,2.324-7.422,2.988
			s-5.156,0.996-7.891,0.996H1903.766z M1919.43,74.749v33.75h3.555c3.178,0,6.107-0.611,8.789-1.836
			c2.682-1.25,4.766-3.111,6.25-5.586c1.537-2.604,2.305-5.755,2.305-9.453c0-5.286-1.576-9.427-4.727-12.422
			c-1.041-0.963-2.201-1.777-3.477-2.441s-2.656-1.165-4.141-1.504c-1.484-0.338-3.1-0.508-4.844-0.508H1919.43z"/>
		<path fill="#F51484" d="M2000.875,111.312h-21.602l-4.141,10.469h-16.641l23.203-60.312h17.109l22.734,60.312h-16.719
			L2000.875,111.312z M1996.656,99.319l-6.406-19.219h-0.156l-6.484,19.219H1996.656z"/>
		<path fill="#F51484" d="M2065.758,64.827l-6.25,12.148c-3.256-2.656-6.719-3.984-10.391-3.984c-1.666,0-3.189,0.456-4.57,1.367
			c-1.432,0.859-2.148,2.084-2.148,3.672c0,1.537,0.639,2.709,1.914,3.516c1.197,0.781,2.877,1.523,5.039,2.227l3.984,1.211
			c4.557,1.328,8.217,3.269,10.977,5.82c2.604,2.578,3.906,6.133,3.906,10.664c0,7.292-2.084,12.709-6.25,16.25
			c-4.479,3.776-10.182,5.664-17.109,5.664c-7.553,0-14.623-2.291-21.211-6.875l6.719-12.656c4.713,4.167,9.361,6.25,13.945,6.25
			c1.979,0,3.736-0.533,5.273-1.602c1.537-1.067,2.305-2.564,2.305-4.492c0-1.953-0.846-3.359-2.539-4.219
			c-1.588-0.807-3.906-1.692-6.953-2.656c-3.594-0.963-6.615-2.057-9.062-3.281c-2.318-1.172-4.107-2.825-5.371-4.961
			c-1.264-2.135-1.895-5.064-1.895-8.789c0-4.01,0.873-7.552,2.617-10.625c1.85-3.125,4.336-5.508,7.461-7.148
			c3.047-1.641,6.615-2.461,10.703-2.461c3.021,0,6.275,0.456,9.766,1.367C2060.002,62.093,2063.049,63.291,2065.758,64.827z"/>
		<path fill="#F51484" d="M2115.055,64.827l-6.25,12.148c-3.256-2.656-6.719-3.984-10.391-3.984c-1.666,0-3.189,0.456-4.57,1.367
			c-1.432,0.859-2.148,2.084-2.148,3.672c0,1.537,0.639,2.709,1.914,3.516c1.197,0.781,2.877,1.523,5.039,2.227l3.984,1.211
			c4.557,1.328,8.217,3.269,10.977,5.82c2.604,2.578,3.906,6.133,3.906,10.664c0,7.292-2.084,12.709-6.25,16.25
			c-4.479,3.776-10.182,5.664-17.109,5.664c-7.553,0-14.623-2.291-21.211-6.875l6.719-12.656c4.713,4.167,9.361,6.25,13.945,6.25
			c1.979,0,3.736-0.533,5.273-1.602c1.537-1.067,2.305-2.564,2.305-4.492c0-1.953-0.846-3.359-2.539-4.219
			c-1.588-0.807-3.906-1.692-6.953-2.656c-3.594-0.963-6.615-2.057-9.062-3.281c-2.318-1.172-4.107-2.825-5.371-4.961
			c-1.264-2.135-1.895-5.064-1.895-8.789c0-4.01,0.873-7.552,2.617-10.625c1.85-3.125,4.336-5.508,7.461-7.148
			c3.047-1.641,6.615-2.461,10.703-2.461c3.021,0,6.275,0.456,9.766,1.367C2109.299,62.093,2112.346,63.291,2115.055,64.827z"/>
		<path fill="#F51484" d="M2191.773,64.827l-6.25,12.148c-3.256-2.656-6.719-3.984-10.391-3.984c-1.666,0-3.189,0.456-4.57,1.367
			c-1.432,0.859-2.148,2.084-2.148,3.672c0,1.537,0.639,2.709,1.914,3.516c1.197,0.781,2.877,1.523,5.039,2.227l3.984,1.211
			c4.557,1.328,8.217,3.269,10.977,5.82c2.604,2.578,3.906,6.133,3.906,10.664c0,7.292-2.084,12.709-6.25,16.25
			c-4.479,3.776-10.182,5.664-17.109,5.664c-7.553,0-14.623-2.291-21.211-6.875l6.719-12.656c4.713,4.167,9.361,6.25,13.945,6.25
			c1.979,0,3.736-0.533,5.273-1.602c1.537-1.067,2.305-2.564,2.305-4.492c0-1.953-0.846-3.359-2.539-4.219
			c-1.588-0.807-3.906-1.692-6.953-2.656c-3.594-0.963-6.615-2.057-9.062-3.281c-2.318-1.172-4.107-2.825-5.371-4.961
			c-1.264-2.135-1.895-5.064-1.895-8.789c0-4.01,0.873-7.552,2.617-10.625c1.85-3.125,4.336-5.508,7.461-7.148
			c3.047-1.641,6.615-2.461,10.703-2.461c3.021,0,6.275,0.456,9.766,1.367C2186.018,62.093,2189.064,63.291,2191.773,64.827z"/>
		<path fill="#F51484" d="M2236.031,74.749h-18.672v10.078h17.695v13.281h-17.695v10.391h18.672v13.281h-34.336V61.468h34.336
			V74.749z"/>
		<path fill="#F51484" d="M2276.891,97.054l18.945,24.727h-19.531l-14.766-23.203h-0.195v23.203h-15.664V61.468h23.438
			c4.166,0,7.799,0.664,10.898,1.992c3.203,1.406,5.65,3.464,7.344,6.172c1.822,2.761,2.734,6.225,2.734,10.391
			c0,2.812-0.508,5.43-1.523,7.852c-1.094,2.448-2.592,4.44-4.492,5.977C2282.125,95.439,2279.729,96.507,2276.891,97.054z
			 M2261.344,73.46v15.039h1.523c2.162,0,3.984-0.182,5.469-0.547c1.615-0.469,2.916-1.224,3.906-2.266
			c1.016-1.041,1.523-2.604,1.523-4.688c0-2.109-0.508-3.685-1.523-4.727c-0.99-1.041-2.291-1.797-3.906-2.266
			c-1.432-0.364-3.256-0.547-5.469-0.547H2261.344z"/>
		<path fill="#F51484" d="M2310.836,61.468l14.531,36.641l14.648-36.641h17.031l-25.742,60.312h-12.188l-25.352-60.312H2310.836z"/>
		<path fill="#F51484" d="M2376.656,61.468v60.312h-15.664V61.468H2376.656z"/>
		<path fill="#F51484" d="M2430.055,62.913v18.789c-1.537-2.083-3.541-3.736-6.016-4.961c-2.422-1.119-5-1.68-7.734-1.68
			c-3.15,0-5.924,0.742-8.32,2.227c-2.5,1.433-4.428,3.438-5.781,6.016c-1.328,2.475-1.992,5.3-1.992,8.477
			c0,3.178,0.689,6.003,2.07,8.477c1.406,2.578,3.334,4.531,5.781,5.859c2.553,1.381,5.377,2.07,8.477,2.07
			c2.604,0,5.078-0.56,7.422-1.68c2.422-1.224,4.453-2.799,6.094-4.727v18.789c-3.047,0.938-5.689,1.666-7.93,2.188
			c-1.953,0.416-3.92,0.625-5.898,0.625c-3.984,0-8.021-0.769-12.109-2.305c-1.275-0.494-2.506-1.067-3.691-1.719
			c-1.186-0.65-2.338-1.367-3.457-2.148s-2.252-1.68-3.398-2.695c-6.459-5.833-9.688-13.438-9.688-22.812
			c0-4.088,0.781-8.06,2.344-11.914c1.615-3.984,3.803-7.369,6.562-10.156c2.109-2.109,4.35-3.867,6.719-5.273
			c2.475-1.458,5.104-2.578,7.891-3.359c2.865-0.755,5.639-1.133,8.32-1.133C2420.381,59.866,2425.158,60.882,2430.055,62.913z"/>
		<path fill="#F51484" d="M2474.078,74.749h-18.672v10.078h17.695v13.281h-17.695v10.391h18.672v13.281h-34.336V61.468h34.336
			V74.749z"/>
		<path fill="#F51484" d="M2523.102,64.827l-6.25,12.148c-3.256-2.656-6.719-3.984-10.391-3.984c-1.666,0-3.189,0.456-4.57,1.367
			c-1.432,0.859-2.148,2.084-2.148,3.672c0,1.537,0.639,2.709,1.914,3.516c1.197,0.781,2.877,1.523,5.039,2.227l3.984,1.211
			c4.557,1.328,8.217,3.269,10.977,5.82c2.604,2.578,3.906,6.133,3.906,10.664c0,7.292-2.084,12.709-6.25,16.25
			c-4.479,3.776-10.182,5.664-17.109,5.664c-7.553,0-14.623-2.291-21.211-6.875l6.719-12.656c4.713,4.167,9.361,6.25,13.945,6.25
			c1.979,0,3.736-0.533,5.273-1.602c1.537-1.067,2.305-2.564,2.305-4.492c0-1.953-0.846-3.359-2.539-4.219
			c-1.588-0.807-3.906-1.692-6.953-2.656c-3.594-0.963-6.615-2.057-9.062-3.281c-2.318-1.172-4.107-2.825-5.371-4.961
			c-1.264-2.135-1.895-5.064-1.895-8.789c0-4.01,0.873-7.552,2.617-10.625c1.85-3.125,4.336-5.508,7.461-7.148
			c3.047-1.641,6.615-2.461,10.703-2.461c3.021,0,6.275,0.456,9.766,1.367C2517.346,62.093,2520.393,63.291,2523.102,64.827z"/>
	</g>
	<g>
		<polygon fill="#3AB4FF" points="2602,66.344 2639.666,97 2621,97 2602,81.422 		"/>
		<polygon fill="#3AB4FF" points="2602,126.5 2639.666,97 2621,97 2602,111.422 		"/>
	</g>
	<g>
		<polygon fill="#F51484" points="2602,62.344 2639.666,93 2621,93 2602,77.422 		"/>
		<polygon fill="#F51484" points="2602,122.5 2639.666,93 2621,93 2602,107.422 		"/>
	</g>
</g>
</svg>
