<?xml version="1.0" encoding="utf-8"?>
<!-- Generator: Adobe Illustrator 16.0.0, SVG Export Plug-In . SVG Version: 6.00 Build 0)  -->
<!DOCTYPE svg PUBLIC "-//W3C//DTD SVG 1.1//EN" "http://www.w3.org/Graphics/SVG/1.1/DTD/svg11.dtd">
<svg version="1.1" id="Layer_1" xmlns="http://www.w3.org/2000/svg" xmlns:xlink="http://www.w3.org/1999/xlink" x="0px" y="0px"
	 width="797.368px" height="76.316px" viewBox="398.026 37.184 797.368 76.316"
	 enable-background="new 398.026 37.184 797.368 76.316" xml:space="preserve">
<g>
	<rect x="815.25" y="47" fill="#F9F9F9" width="374" height="60"/>
	<rect x="811.25" y="45" fill="#F51484" width="375" height="60"/>
	<rect x="808.25" y="43" fill="#6E1F75" width="375" height="60"/>
	<g>
		<g>
			<path fill="#F51484" d="M853.457,68.303l-1.929,3.75c-1.005-0.82-2.073-1.229-3.207-1.229c-0.515,0-0.985,0.14-1.411,0.422
				c-0.441,0.266-0.662,0.644-0.662,1.134c0,0.474,0.197,0.836,0.591,1.085c0.37,0.241,0.888,0.47,1.556,0.688l1.229,0.374
				c1.406,0.41,2.536,1.009,3.388,1.796c0.803,0.796,1.206,1.894,1.206,3.292c0,2.251-0.644,3.924-1.929,5.016
				c-1.383,1.166-3.143,1.748-5.281,1.748c-2.332,0-4.514-0.707-6.547-2.121l2.073-3.906c1.454,1.285,2.89,1.929,4.304,1.929
				c0.611,0,1.154-0.165,1.627-0.494c0.475-0.33,0.711-0.792,0.711-1.387c0-0.603-0.26-1.037-0.782-1.302
				c-0.49-0.249-1.206-0.522-2.146-0.82c-1.11-0.298-2.043-0.636-2.798-1.013c-0.717-0.362-1.269-0.872-1.658-1.532
				c-0.39-0.658-0.585-1.563-0.585-2.712c0-1.238,0.27-2.331,0.809-3.28c0.57-0.965,1.338-1.7,2.303-2.206
				c0.939-0.507,2.041-0.76,3.303-0.76c0.934,0,1.938,0.141,3.016,0.422C851.681,67.459,852.621,67.829,853.457,68.303z"/>
			<path fill="#F51484" d="M861.355,74.452h6.993v-7.186h4.835v18.617h-4.835v-7.632h-6.993v7.633h-4.836V67.266h4.836V74.452z"/>
			<path fill="#F51484" d="M887.761,82.652h-6.667l-1.279,3.231h-5.136l7.161-18.617h5.282l7.018,18.617h-5.161L887.761,82.652z
				 M886.459,78.95l-1.978-5.933h-0.048l-2.002,5.933H886.459z"/>
			<path fill="#F51484" d="M905.269,78.251l5.848,7.633h-6.029l-4.558-7.163h-0.06v7.163h-4.835V67.266h7.234
				c1.285,0,2.406,0.205,3.363,0.615c0.99,0.434,1.744,1.069,2.268,1.905c0.563,0.852,0.844,1.921,0.844,3.207
				c0,0.868-0.156,1.676-0.469,2.424c-0.338,0.756-0.801,1.37-1.387,1.845C906.885,77.752,906.145,78.082,905.269,78.251z
				 M900.47,70.968v4.643h0.47c0.667,0,1.229-0.056,1.688-0.169c0.498-0.145,0.9-0.378,1.206-0.699
				c0.313-0.321,0.47-0.803,0.47-1.447c0-0.651-0.156-1.138-0.47-1.459c-0.306-0.321-0.708-0.555-1.206-0.699
				c-0.441-0.113-1.005-0.169-1.688-0.169H900.47z"/>
			<path fill="#F51484" d="M923.029,71.365h-5.763v3.111h5.462v4.1h-5.462v3.207h5.763v4.1h-10.598V67.266h10.598V71.365z"/>
			<path fill="#F51484" d="M939.282,76.948l-6.86-9.682h5.8l3.484,5.064l3.484-5.064h5.8l-6.86,9.682v8.935h-4.847L939.282,76.948
				L939.282,76.948z"/>
			<path fill="#F51484" d="M961.457,66.651c1.357,0,2.652,0.229,3.882,0.688c1.254,0.482,2.355,1.149,3.304,2.002
				c0.933,0.836,1.691,1.856,2.279,3.063c0.555,1.133,0.832,2.407,0.832,3.822c0,1.487-0.246,2.854-0.736,4.1
				c-0.514,1.27-1.237,2.366-2.17,3.291c-0.498,0.499-1.013,0.921-1.543,1.267c-0.531,0.344-1.105,0.639-1.725,0.88
				c-1.246,0.489-2.621,0.735-4.123,0.735c-1.479,0-2.846-0.244-4.1-0.735c-1.271-0.498-2.364-1.214-3.28-2.146
				c-0.458-0.45-0.862-0.938-1.211-1.466c-0.351-0.525-0.67-1.135-0.959-1.825c-0.498-1.262-0.747-2.629-0.747-4.1
				c0-0.667,0.07-1.322,0.211-1.966c0.14-0.644,0.352-1.261,0.633-1.856c0.596-1.223,1.351-2.243,2.268-3.063
				c0.957-0.861,2.069-1.528,3.34-2.002C958.809,66.88,960.09,66.651,961.457,66.651z M961.457,71.342
				c-0.949,0-1.821,0.229-2.617,0.688c-0.836,0.482-1.479,1.085-1.928,1.809c-0.475,0.788-0.713,1.592-0.713,2.411
				c0,1.021,0.238,1.97,0.713,2.846c0.481,0.876,1.116,1.543,1.904,2.001c0.828,0.475,1.708,0.712,2.641,0.712
				c0.947,0,1.828-0.237,2.641-0.712c0.787-0.449,1.423-1.117,1.904-2.001c0.475-0.853,0.712-1.802,0.712-2.846
				c0-0.844-0.237-1.647-0.712-2.411c-0.458-0.731-1.102-1.334-1.928-1.809C963.285,71.571,962.414,71.342,961.457,71.342z"/>
			<path fill="#F51484" d="M985.318,67.266h4.835v10.466c0,0.482-0.008,0.908-0.024,1.278c-0.016,0.369-0.048,0.791-0.096,1.266
				c-0.08,0.756-0.261,1.472-0.543,2.146c-0.249,0.651-0.676,1.278-1.277,1.881c-0.515,0.49-1.109,0.893-1.785,1.206
				c-0.676,0.305-1.383,0.522-2.121,0.652c-0.756,0.144-1.512,0.217-2.268,0.217c-1.165,0-2.311-0.165-3.436-0.494
				c-0.555-0.169-1.053-0.383-1.496-0.639c-0.441-0.257-0.855-0.571-1.241-0.94c-0.603-0.604-1.032-1.23-1.29-1.881
				c-0.289-0.684-0.47-1.392-0.542-2.123c-0.08-0.82-0.12-1.677-0.12-2.568V67.266h4.834v9.803c0,0.995,0.068,1.86,0.205,2.593
				c0.113,0.658,0.414,1.241,0.904,1.747c0.482,0.483,1.211,0.724,2.183,0.724c0.965,0,1.688-0.24,2.171-0.724
				c0.482-0.481,0.787-1.064,0.916-1.747c0.129-0.756,0.193-1.621,0.193-2.593v-9.803H985.318z"/>
			<path fill="#F51484" d="M1002.85,78.251l5.848,7.633h-6.029l-4.558-7.163h-0.061v7.163h-4.835V67.266h7.235
				c1.284,0,2.406,0.205,3.364,0.615c0.988,0.434,1.744,1.069,2.267,1.905c0.562,0.852,0.844,1.921,0.844,3.207
				c0,0.868-0.156,1.676-0.47,2.424c-0.337,0.756-0.8,1.37-1.386,1.845C1004.466,77.752,1003.727,78.082,1002.85,78.251z
				 M998.051,70.968v4.643h0.471c0.667,0,1.229-0.056,1.688-0.169c0.499-0.145,0.9-0.378,1.206-0.699
				c0.313-0.321,0.47-0.803,0.47-1.447c0-0.651-0.156-1.138-0.47-1.459c-0.306-0.321-0.707-0.555-1.206-0.699
				c-0.441-0.113-1.004-0.169-1.688-0.169H998.051z"/>
			<path fill="#F51484" d="M1021.563,67.266l3.231,12.021h0.048l3.907-12.021h3.857l3.654,12.021h0.049l3.509-12.021h5.028
				l-5.945,18.617h-4.943l-3.255-10.792h-0.05l-3.653,10.792h-4.919l-5.559-18.617H1021.563L1021.563,67.266z"/>
			<path fill="#F51484" d="M1055.421,66.651c1.358,0,2.653,0.229,3.884,0.688c1.254,0.482,2.355,1.149,3.303,2.002
				c0.932,0.836,1.691,1.856,2.278,3.063c0.555,1.133,0.832,2.407,0.832,3.822c0,1.487-0.244,2.854-0.735,4.1
				c-0.515,1.27-1.238,2.366-2.17,3.291c-0.499,0.499-1.014,0.921-1.544,1.267c-0.531,0.344-1.104,0.639-1.724,0.88
				c-1.246,0.489-2.621,0.735-4.124,0.735c-1.479,0-2.845-0.244-4.1-0.735c-1.271-0.498-2.363-1.214-3.28-2.146
				c-0.457-0.45-0.861-0.938-1.211-1.466c-0.35-0.525-0.67-1.135-0.959-1.825c-0.498-1.262-0.748-2.629-0.748-4.1
				c0-0.667,0.071-1.322,0.212-1.966c0.14-0.644,0.351-1.261,0.633-1.856c0.595-1.223,1.351-2.243,2.267-3.063
				c0.957-0.861,2.07-1.528,3.34-2.002C1052.772,66.88,1054.054,66.651,1055.421,66.651z M1055.421,71.342
				c-0.948,0-1.821,0.229-2.616,0.688c-0.837,0.482-1.479,1.085-1.929,1.809c-0.475,0.788-0.712,1.592-0.712,2.411
				c0,1.021,0.237,1.97,0.712,2.846c0.482,0.876,1.117,1.543,1.906,2.001c0.827,0.475,1.707,0.712,2.64,0.712
				c0.948,0,1.828-0.237,2.641-0.712c0.788-0.449,1.423-1.117,1.905-2.001c0.474-0.853,0.712-1.802,0.712-2.846
				c0-0.844-0.238-1.647-0.712-2.411c-0.458-0.731-1.101-1.334-1.929-1.809C1057.249,71.571,1056.377,71.342,1055.421,71.342z"/>
			<path fill="#F51484" d="M1077.606,78.251l5.849,7.633h-6.03l-4.557-7.163h-0.061v7.163h-4.835V67.266h7.234
				c1.286,0,2.407,0.205,3.364,0.615c0.989,0.434,1.744,1.069,2.267,1.905c0.563,0.852,0.844,1.921,0.844,3.207
				c0,0.868-0.156,1.676-0.47,2.424c-0.338,0.756-0.8,1.37-1.386,1.845C1079.223,77.752,1078.482,78.082,1077.606,78.251z
				 M1072.808,70.968v4.643h0.47c0.667,0,1.229-0.056,1.688-0.169c0.499-0.145,0.901-0.378,1.206-0.699
				c0.313-0.321,0.47-0.803,0.47-1.447c0-0.651-0.156-1.138-0.47-1.459c-0.305-0.321-0.707-0.555-1.206-0.699
				c-0.441-0.113-1.005-0.169-1.688-0.169H1072.808z"/>
			<path fill="#F51484" d="M1089.664,74.947l5.848-7.681h6.005l-7.415,8.814l8.078,9.803h-6.27l-6.246-8.079h-0.061v8.079h-4.835
				V67.266h4.835v7.68L1089.664,74.947L1089.664,74.947z"/>
			<path fill="#F51484" d="M1122.545,71.365h-5.763v3.111h5.462v4.1h-5.462v3.207h5.763v4.1h-10.599V67.266h10.599V71.365z"/>
			<path fill="#F51484" d="M1131.033,75.936l-5.956-8.669h5.956l2.834,4.811l2.844-4.811h5.945l-5.945,8.669l6.887,9.948h-5.824
				l-3.906-6.077l-4.269,6.077h-5.848L1131.033,75.936z"/>
			<path fill="#F51484" d="M1145.008,85.884V67.266h7.404c1.366,0,2.561,0.213,3.581,0.639c0.995,0.434,1.78,1.117,2.351,2.05
				c0.563,0.908,0.844,2.054,0.844,3.437c0,1.029-0.14,1.973-0.422,2.833c-0.297,0.788-0.727,1.439-1.289,1.953
				c-0.547,0.499-1.239,0.885-2.074,1.157c-0.796,0.249-1.732,0.374-2.81,0.374h-2.749v6.174L1145.008,85.884L1145.008,85.884z
				 M1149.844,71.161v4.642h0.82c0.716,0,1.334-0.04,1.857-0.119c0.449-0.073,0.833-0.268,1.15-0.586
				c0.318-0.317,0.477-0.838,0.477-1.561c0-0.748-0.148-1.282-0.445-1.604c-0.307-0.354-0.684-0.567-1.135-0.639
				c-0.489-0.088-1.126-0.132-1.905-0.132L1149.844,71.161L1149.844,71.161z"/>
		</g>
	</g>
	<g>
		<g>
			<path fill="#3AB4FF" d="M852.457,66.803l-1.929,3.75c-1.005-0.82-2.073-1.229-3.207-1.229c-0.515,0-0.985,0.14-1.411,0.422
				c-0.441,0.266-0.662,0.644-0.662,1.134c0,0.474,0.197,0.836,0.591,1.085c0.37,0.241,0.888,0.47,1.556,0.688l1.229,0.374
				c1.406,0.41,2.536,1.009,3.388,1.796c0.803,0.796,1.206,1.894,1.206,3.292c0,2.251-0.644,3.924-1.929,5.016
				c-1.383,1.165-3.143,1.748-5.281,1.748c-2.332,0-4.514-0.707-6.547-2.122l2.073-3.906c1.454,1.285,2.89,1.929,4.304,1.929
				c0.611,0,1.154-0.165,1.627-0.494c0.475-0.33,0.711-0.792,0.711-1.387c0-0.603-0.26-1.036-0.782-1.302
				c-0.49-0.249-1.206-0.522-2.146-0.82c-1.11-0.298-2.043-0.635-2.798-1.013c-0.717-0.362-1.269-0.872-1.658-1.531
				c-0.39-0.658-0.585-1.563-0.585-2.713c0-1.237,0.27-2.331,0.809-3.279c0.57-0.965,1.338-1.7,2.303-2.207
				c0.939-0.506,2.041-0.76,3.303-0.76c0.934,0,1.938,0.141,3.016,0.422C850.681,65.959,851.621,66.329,852.457,66.803z"/>
			<path fill="#3AB4FF" d="M860.355,72.952h6.993v-7.186h4.835v18.617h-4.835v-7.632h-6.993v7.633h-4.836V65.766h4.836V72.952z"/>
			<path fill="#3AB4FF" d="M886.761,81.152h-6.667l-1.279,3.231h-5.136l7.161-18.617h5.282l7.018,18.617h-5.161L886.761,81.152z
				 M885.459,77.45l-1.978-5.933h-0.048l-2.002,5.933H885.459z"/>
			<path fill="#3AB4FF" d="M904.269,76.751l5.848,7.633h-6.029l-4.558-7.163h-0.06v7.163h-4.835V65.766h7.234
				c1.286,0,2.406,0.205,3.363,0.615c0.99,0.434,1.744,1.069,2.268,1.905c0.563,0.852,0.844,1.921,0.844,3.207
				c0,0.868-0.156,1.676-0.469,2.424c-0.338,0.756-0.801,1.371-1.387,1.845C905.885,76.252,905.145,76.582,904.269,76.751z
				 M899.47,69.468v4.643h0.47c0.667,0,1.229-0.056,1.688-0.169c0.498-0.145,0.9-0.378,1.206-0.699
				c0.313-0.321,0.47-0.803,0.47-1.447c0-0.651-0.156-1.138-0.47-1.459c-0.306-0.321-0.708-0.555-1.206-0.699
				c-0.441-0.113-1.005-0.169-1.688-0.169H899.47z"/>
			<path fill="#3AB4FF" d="M922.029,69.865h-5.763v3.111h5.462v4.1h-5.462v3.207h5.763v4.1h-10.598V65.766h10.598V69.865z"/>
			<path fill="#3AB4FF" d="M938.282,75.448l-6.86-9.682h5.8l3.484,5.064l3.484-5.064h5.8l-6.86,9.682v8.935h-4.847L938.282,75.448
				L938.282,75.448z"/>
			<path fill="#3AB4FF" d="M960.457,65.151c1.357,0,2.652,0.229,3.882,0.688c1.254,0.482,2.355,1.149,3.304,2.002
				c0.933,0.836,1.691,1.856,2.279,3.063c0.555,1.133,0.832,2.407,0.832,3.822c0,1.487-0.246,2.854-0.736,4.1
				c-0.514,1.27-1.237,2.366-2.17,3.291c-0.498,0.499-1.013,0.921-1.543,1.267c-0.531,0.344-1.105,0.639-1.725,0.88
				c-1.246,0.489-2.621,0.735-4.123,0.735c-1.479,0-2.846-0.244-4.1-0.735c-1.271-0.498-2.364-1.214-3.28-2.146
				c-0.458-0.45-0.862-0.938-1.211-1.466c-0.351-0.525-0.67-1.135-0.959-1.825c-0.498-1.262-0.747-2.629-0.747-4.1
				c0-0.667,0.07-1.322,0.211-1.966c0.14-0.644,0.352-1.261,0.633-1.856c0.596-1.223,1.351-2.243,2.268-3.063
				c0.957-0.861,2.069-1.528,3.34-2.002C957.809,65.38,959.09,65.151,960.457,65.151z M960.457,69.842
				c-0.949,0-1.821,0.229-2.617,0.688c-0.836,0.482-1.479,1.085-1.928,1.809c-0.475,0.788-0.713,1.592-0.713,2.411
				c0,1.021,0.238,1.97,0.713,2.846c0.481,0.876,1.116,1.543,1.904,2.001c0.828,0.475,1.708,0.712,2.641,0.712
				c0.947,0,1.828-0.237,2.641-0.712c0.787-0.449,1.423-1.117,1.904-2.001c0.475-0.853,0.712-1.802,0.712-2.846
				c0-0.844-0.237-1.647-0.712-2.411c-0.458-0.731-1.102-1.334-1.928-1.809C962.285,70.071,961.414,69.842,960.457,69.842z"/>
			<path fill="#3AB4FF" d="M984.318,65.766h4.835v10.466c0,0.482-0.008,0.908-0.024,1.278c-0.016,0.369-0.048,0.791-0.096,1.266
				c-0.08,0.756-0.261,1.472-0.543,2.146c-0.249,0.651-0.676,1.278-1.277,1.881c-0.515,0.49-1.109,0.893-1.785,1.206
				c-0.676,0.305-1.383,0.522-2.121,0.652c-0.756,0.144-1.512,0.217-2.268,0.217c-1.165,0-2.311-0.165-3.436-0.494
				c-0.555-0.169-1.053-0.383-1.496-0.639c-0.441-0.257-0.855-0.571-1.241-0.94c-0.603-0.604-1.032-1.23-1.29-1.881
				c-0.289-0.684-0.47-1.392-0.542-2.123c-0.08-0.82-0.12-1.677-0.12-2.568V65.766h4.834v9.803c0,0.995,0.068,1.86,0.205,2.593
				c0.113,0.658,0.414,1.241,0.904,1.747c0.482,0.483,1.211,0.724,2.183,0.724c0.965,0,1.688-0.24,2.171-0.724
				c0.482-0.481,0.787-1.064,0.916-1.747c0.129-0.756,0.193-1.621,0.193-2.593v-9.803H984.318z"/>
			<path fill="#3AB4FF" d="M1001.85,76.751l5.848,7.633h-6.029l-4.558-7.163h-0.061v7.163h-4.835V65.766h7.235
				c1.284,0,2.406,0.205,3.364,0.615c0.988,0.434,1.744,1.069,2.267,1.905c0.562,0.852,0.844,1.921,0.844,3.207
				c0,0.868-0.156,1.676-0.47,2.424c-0.337,0.756-0.8,1.371-1.386,1.845C1003.466,76.252,1002.727,76.582,1001.85,76.751z
				 M997.051,69.468v4.643h0.471c0.667,0,1.229-0.056,1.688-0.169c0.499-0.145,0.9-0.378,1.206-0.699
				c0.313-0.321,0.47-0.803,0.47-1.447c0-0.651-0.156-1.138-0.47-1.459c-0.306-0.321-0.707-0.555-1.206-0.699
				c-0.441-0.113-1.004-0.169-1.688-0.169H997.051z"/>
			<path fill="#3AB4FF" d="M1020.563,65.766l3.231,12.021h0.048l3.907-12.021h3.857l3.654,12.021h0.049l3.509-12.021h5.028
				l-5.945,18.617h-4.943l-3.255-10.792h-0.05l-3.653,10.792h-4.919l-5.559-18.617H1020.563L1020.563,65.766z"/>
			<path fill="#3AB4FF" d="M1054.421,65.151c1.358,0,2.653,0.229,3.884,0.688c1.254,0.482,2.355,1.149,3.303,2.002
				c0.932,0.836,1.691,1.856,2.278,3.063c0.555,1.133,0.832,2.407,0.832,3.822c0,1.487-0.244,2.854-0.735,4.1
				c-0.515,1.27-1.238,2.366-2.17,3.291c-0.499,0.499-1.014,0.921-1.544,1.267c-0.531,0.344-1.104,0.639-1.724,0.88
				c-1.246,0.489-2.621,0.735-4.124,0.735c-1.479,0-2.845-0.244-4.1-0.735c-1.271-0.498-2.363-1.214-3.28-2.146
				c-0.457-0.45-0.861-0.938-1.211-1.466c-0.35-0.525-0.67-1.135-0.959-1.825c-0.498-1.262-0.748-2.629-0.748-4.1
				c0-0.667,0.071-1.322,0.212-1.966c0.14-0.644,0.351-1.261,0.633-1.856c0.595-1.223,1.351-2.243,2.267-3.063
				c0.957-0.861,2.07-1.528,3.34-2.002C1051.772,65.38,1053.054,65.151,1054.421,65.151z M1054.421,69.842
				c-0.948,0-1.821,0.229-2.616,0.688c-0.837,0.482-1.479,1.085-1.929,1.809c-0.475,0.788-0.712,1.592-0.712,2.411
				c0,1.021,0.237,1.97,0.712,2.846c0.482,0.876,1.117,1.543,1.906,2.001c0.827,0.475,1.708,0.712,2.64,0.712
				c0.948,0,1.828-0.237,2.641-0.712c0.788-0.449,1.423-1.117,1.905-2.001c0.474-0.853,0.712-1.802,0.712-2.846
				c0-0.844-0.238-1.647-0.712-2.411c-0.458-0.731-1.101-1.334-1.929-1.809C1056.249,70.071,1055.377,69.842,1054.421,69.842z"/>
			<path fill="#3AB4FF" d="M1076.606,76.751l5.849,7.633h-6.03l-4.557-7.163h-0.061v7.163h-4.835V65.766h7.234
				c1.286,0,2.407,0.205,3.364,0.615c0.989,0.434,1.744,1.069,2.267,1.905c0.563,0.852,0.844,1.921,0.844,3.207
				c0,0.868-0.156,1.676-0.47,2.424c-0.338,0.756-0.8,1.371-1.386,1.845C1078.223,76.252,1077.482,76.582,1076.606,76.751z
				 M1071.808,69.468v4.643h0.47c0.667,0,1.229-0.056,1.688-0.169c0.499-0.145,0.901-0.378,1.206-0.699
				c0.313-0.321,0.47-0.803,0.47-1.447c0-0.651-0.156-1.138-0.47-1.459c-0.305-0.321-0.707-0.555-1.206-0.699
				c-0.441-0.113-1.005-0.169-1.688-0.169H1071.808z"/>
			<path fill="#3AB4FF" d="M1088.664,73.447l5.848-7.681h6.005l-7.415,8.814l8.078,9.803h-6.27l-6.246-8.079h-0.061v8.079h-4.835
				V65.766h4.835v7.68L1088.664,73.447L1088.664,73.447z"/>
			<path fill="#3AB4FF" d="M1121.545,69.865h-5.763v3.111h5.462v4.1h-5.462v3.207h5.763v4.1h-10.599V65.766h10.599V69.865z"/>
			<path fill="#3AB4FF" d="M1130.033,74.436l-5.956-8.669h5.956l2.834,4.811l2.844-4.811h5.945l-5.945,8.669l6.887,9.948h-5.824
				l-3.906-6.077l-4.269,6.077h-5.848L1130.033,74.436z"/>
			<path fill="#3AB4FF" d="M1144.008,84.384V65.766h7.404c1.366,0,2.561,0.213,3.581,0.639c0.995,0.434,1.78,1.117,2.351,2.05
				c0.563,0.908,0.844,2.054,0.844,3.437c0,1.029-0.14,1.973-0.422,2.833c-0.297,0.788-0.727,1.439-1.289,1.953
				c-0.547,0.499-1.239,0.885-2.074,1.157c-0.796,0.249-1.732,0.374-2.81,0.374h-2.749v6.174L1144.008,84.384L1144.008,84.384z
				 M1148.844,69.661v4.642h0.82c0.716,0,1.334-0.04,1.857-0.12c0.449-0.072,0.833-0.267,1.15-0.585
				c0.318-0.318,0.477-0.838,0.477-1.562c0-0.748-0.148-1.282-0.445-1.604c-0.307-0.354-0.684-0.567-1.135-0.639
				c-0.489-0.088-1.126-0.132-1.905-0.132H1148.844L1148.844,69.661z"/>
		</g>
	</g>
</g>
<g>
	<rect x="410.75" y="47" fill="#6E1F75" width="374" height="60"/>
	<rect x="406.75" y="45" fill="#F51484" width="375" height="60"/>
	<rect x="403.75" y="43" fill="#F9F9F9" width="375" height="60"/>
	<g>
		<g>
			<path fill="#3AB4FF" d="M448.958,68.303l-1.929,3.75c-1.005-0.82-2.073-1.229-3.207-1.229c-0.514,0-0.985,0.14-1.41,0.422
				c-0.442,0.266-0.663,0.644-0.663,1.134c0,0.474,0.197,0.836,0.591,1.085c0.37,0.241,0.888,0.47,1.556,0.688l1.229,0.374
				c1.406,0.41,2.536,1.009,3.388,1.796c0.803,0.796,1.205,1.894,1.205,3.292c0,2.251-0.643,3.924-1.928,5.016
				c-1.383,1.166-3.143,1.748-5.281,1.748c-2.332,0-4.514-0.707-6.548-2.121l2.073-3.906c1.455,1.285,2.89,1.929,4.304,1.929
				c0.612,0,1.154-0.165,1.628-0.494c0.474-0.33,0.711-0.792,0.711-1.387c0-0.603-0.26-1.037-0.783-1.302
				c-0.49-0.249-1.206-0.522-2.146-0.82c-1.11-0.298-2.042-0.636-2.797-1.013c-0.717-0.362-1.269-0.872-1.658-1.532
				c-0.39-0.658-0.585-1.563-0.585-2.712c0-1.238,0.27-2.331,0.807-3.28c0.572-0.965,1.339-1.7,2.303-2.206
				c0.941-0.507,2.042-0.76,3.304-0.76c0.933,0,1.937,0.141,3.014,0.422C447.181,67.459,448.121,67.829,448.958,68.303z"/>
			<path fill="#3AB4FF" d="M456.855,74.452h6.994v-7.186h4.835v18.617h-4.835v-7.632h-6.994v7.633h-4.835V67.266h4.835V74.452z"/>
			<path fill="#3AB4FF" d="M483.261,82.652h-6.668l-1.278,3.231h-5.136l7.161-18.617h5.282l7.017,18.617h-5.16L483.261,82.652z
				 M481.959,78.95l-1.978-5.933h-0.048l-2.001,5.933H481.959z"/>
			<path fill="#3AB4FF" d="M500.769,78.251l5.848,7.633h-6.029l-4.558-7.163h-0.06v7.163h-4.836V67.266h7.235
				c1.285,0,2.406,0.205,3.364,0.615c0.988,0.434,1.744,1.069,2.267,1.905c0.563,0.852,0.844,1.921,0.844,3.207
				c0,0.868-0.156,1.676-0.469,2.424c-0.338,0.756-0.801,1.37-1.387,1.845C502.385,77.752,501.645,78.082,500.769,78.251z
				 M495.97,70.968v4.643h0.469c0.667,0,1.23-0.056,1.688-0.169c0.499-0.145,0.9-0.378,1.206-0.699
				c0.313-0.321,0.469-0.803,0.469-1.447c0-0.651-0.156-1.138-0.469-1.459c-0.306-0.321-0.708-0.555-1.206-0.699
				c-0.442-0.113-1.005-0.169-1.688-0.169H495.97z"/>
			<path fill="#3AB4FF" d="M518.529,71.365h-5.763v3.111h5.462v4.1h-5.462v3.207h5.763v4.1h-10.598V67.266h10.598V71.365z"/>
			<path fill="#3AB4FF" d="M534.782,76.948l-6.861-9.682h5.801l3.484,5.064l3.485-5.064h5.8l-6.861,9.682v8.935h-4.847
				L534.782,76.948L534.782,76.948z"/>
			<path fill="#3AB4FF" d="M556.957,66.651c1.358,0,2.653,0.229,3.882,0.688c1.254,0.482,2.355,1.149,3.304,2.002
				c0.933,0.836,1.692,1.856,2.279,3.063c0.555,1.133,0.832,2.407,0.832,3.822c0,1.487-0.245,2.854-0.736,4.1
				c-0.514,1.27-1.239,2.366-2.17,3.291c-0.499,0.499-1.013,0.921-1.543,1.267c-0.532,0.344-1.106,0.639-1.725,0.88
				c-1.246,0.489-2.621,0.735-4.124,0.735c-1.479,0-2.845-0.244-4.1-0.735c-1.27-0.498-2.364-1.214-3.28-2.146
				c-0.458-0.45-0.862-0.938-1.212-1.466c-0.35-0.525-0.67-1.135-0.958-1.825c-0.499-1.262-0.748-2.629-0.748-4.1
				c0-0.667,0.071-1.322,0.211-1.966c0.14-0.644,0.351-1.261,0.633-1.856c0.595-1.223,1.351-2.243,2.267-3.063
				c0.957-0.861,2.069-1.528,3.34-2.002C554.308,66.88,555.59,66.651,556.957,66.651z M556.957,71.342
				c-0.948,0-1.821,0.229-2.617,0.688c-0.836,0.482-1.479,1.085-1.928,1.809c-0.475,0.788-0.713,1.592-0.713,2.411
				c0,1.021,0.238,1.97,0.713,2.846c0.482,0.876,1.116,1.543,1.905,2.001c0.828,0.475,1.708,0.712,2.641,0.712
				c0.948,0,1.829-0.237,2.64-0.712c0.788-0.449,1.423-1.117,1.905-2.001c0.475-0.853,0.712-1.802,0.712-2.846
				c0-0.844-0.237-1.647-0.712-2.411c-0.458-0.731-1.101-1.334-1.928-1.809C558.785,71.571,557.913,71.342,556.957,71.342z"/>
			<path fill="#3AB4FF" d="M580.818,67.266h4.835v10.466c0,0.482-0.008,0.908-0.024,1.278s-0.048,0.791-0.096,1.266
				c-0.08,0.756-0.261,1.472-0.542,2.146c-0.249,0.651-0.676,1.278-1.279,1.881c-0.513,0.49-1.109,0.893-1.783,1.206
				c-0.676,0.305-1.383,0.522-2.122,0.652c-0.757,0.144-1.512,0.217-2.267,0.217c-1.166,0-2.311-0.165-3.436-0.494
				c-0.555-0.169-1.054-0.383-1.495-0.639c-0.442-0.258-0.856-0.571-1.241-0.94c-0.603-0.604-1.033-1.23-1.29-1.881
				c-0.29-0.684-0.47-1.392-0.543-2.123c-0.08-0.82-0.12-1.677-0.12-2.568V67.266h4.835v9.803c0,0.995,0.068,1.86,0.205,2.593
				c0.112,0.658,0.414,1.241,0.904,1.747c0.482,0.483,1.21,0.724,2.182,0.724c0.965,0,1.688-0.24,2.17-0.724
				c0.482-0.481,0.788-1.064,0.917-1.747c0.128-0.756,0.193-1.621,0.193-2.593v-9.803H580.818z"/>
			<path fill="#3AB4FF" d="M598.35,78.251l5.847,7.633h-6.029l-4.558-7.163h-0.061v7.163h-4.835V67.266h7.235
				c1.285,0,2.407,0.205,3.364,0.615c0.99,0.434,1.744,1.069,2.267,1.905c0.562,0.852,0.844,1.921,0.844,3.207
				c0,0.868-0.156,1.676-0.469,2.424c-0.337,0.756-0.801,1.37-1.387,1.845C599.966,77.752,599.226,78.082,598.35,78.251z
				 M593.551,70.968v4.643h0.471c0.667,0,1.229-0.056,1.688-0.169c0.499-0.145,0.9-0.378,1.206-0.699
				c0.313-0.321,0.469-0.803,0.469-1.447c0-0.651-0.156-1.138-0.469-1.459c-0.306-0.321-0.707-0.555-1.206-0.699
				c-0.442-0.113-1.005-0.169-1.688-0.169H593.551z"/>
			<path fill="#3AB4FF" d="M617.063,67.266l3.231,12.021h0.048l3.907-12.021h3.858l3.654,12.021h0.048l3.509-12.021h5.029
				l-5.945,18.617h-4.943l-3.255-10.792h-0.05l-3.653,10.792h-4.919l-5.559-18.617H617.063L617.063,67.266z"/>
			<path fill="#3AB4FF" d="M650.921,66.651c1.358,0,2.653,0.229,3.883,0.688c1.254,0.482,2.355,1.149,3.303,2.002
				c0.933,0.836,1.693,1.856,2.28,3.063c0.554,1.133,0.832,2.407,0.832,3.822c0,1.487-0.245,2.854-0.736,4.1
				c-0.514,1.27-1.238,2.366-2.17,3.291c-0.499,0.499-1.012,0.921-1.543,1.267c-0.53,0.344-1.105,0.639-1.724,0.88
				c-1.246,0.489-2.621,0.735-4.124,0.735c-1.479,0-2.845-0.244-4.099-0.735c-1.271-0.498-2.364-1.214-3.281-2.146
				c-0.458-0.45-0.862-0.938-1.211-1.466c-0.35-0.525-0.669-1.135-0.959-1.825c-0.499-1.262-0.748-2.629-0.748-4.1
				c0-0.667,0.071-1.322,0.211-1.966c0.14-0.644,0.351-1.261,0.634-1.856c0.594-1.223,1.35-2.243,2.266-3.063
				c0.957-0.861,2.071-1.528,3.341-2.002C648.272,66.88,649.554,66.651,650.921,66.651z M650.921,71.342
				c-0.948,0-1.821,0.229-2.616,0.688c-0.837,0.482-1.479,1.085-1.929,1.809c-0.475,0.788-0.711,1.592-0.711,2.411
				c0,1.021,0.237,1.97,0.711,2.846c0.482,0.876,1.117,1.543,1.906,2.001c0.827,0.475,1.708,0.712,2.64,0.712
				c0.948,0,1.828-0.237,2.641-0.712c0.788-0.449,1.423-1.117,1.905-2.001c0.474-0.853,0.712-1.802,0.712-2.846
				c0-0.844-0.238-1.647-0.712-2.411c-0.458-0.731-1.101-1.334-1.929-1.809C652.749,71.571,651.877,71.342,650.921,71.342z"/>
			<path fill="#3AB4FF" d="M673.106,78.251l5.848,7.633h-6.029l-4.557-7.163h-0.061v7.163h-4.835V67.266h7.234
				c1.286,0,2.407,0.205,3.364,0.615c0.989,0.434,1.744,1.069,2.267,1.905c0.563,0.852,0.844,1.921,0.844,3.207
				c0,0.868-0.157,1.676-0.47,2.424c-0.338,0.756-0.8,1.37-1.386,1.845C674.722,77.752,673.982,78.082,673.106,78.251z
				 M668.308,70.968v4.643h0.469c0.667,0,1.23-0.056,1.688-0.169c0.499-0.145,0.901-0.378,1.206-0.699
				c0.313-0.321,0.47-0.803,0.47-1.447c0-0.651-0.157-1.138-0.47-1.459c-0.305-0.321-0.707-0.555-1.206-0.699
				c-0.442-0.113-1.005-0.169-1.688-0.169H668.308z"/>
			<path fill="#3AB4FF" d="M685.164,74.947l5.848-7.681h6.005l-7.415,8.814l8.078,9.803h-6.27l-6.246-8.079h-0.061v8.079h-4.835
				V67.266h4.835v7.68L685.164,74.947L685.164,74.947z"/>
			<path fill="#3AB4FF" d="M718.045,71.365h-5.763v3.111h5.462v4.1h-5.462v3.207h5.763v4.1h-10.599V67.266h10.599V71.365z"/>
			<path fill="#3AB4FF" d="M726.533,75.936l-5.956-8.669h5.956l2.834,4.811l2.844-4.811h5.945l-5.945,8.669l6.886,9.948h-5.824
				l-3.906-6.077l-4.269,6.077h-5.848L726.533,75.936z"/>
			<path fill="#3AB4FF" d="M740.508,85.884V67.266h7.404c1.366,0,2.561,0.213,3.581,0.639c0.996,0.434,1.78,1.117,2.351,2.05
				c0.563,0.908,0.844,2.054,0.844,3.437c0,1.029-0.14,1.973-0.422,2.833c-0.297,0.788-0.728,1.439-1.29,1.953
				c-0.547,0.499-1.238,0.885-2.074,1.157c-0.795,0.249-1.732,0.374-2.809,0.374h-2.749v6.174L740.508,85.884L740.508,85.884z
				 M745.344,71.161v4.642h0.82c0.716,0,1.334-0.04,1.857-0.119c0.45-0.073,0.833-0.268,1.151-0.586
				c0.319-0.317,0.476-0.838,0.476-1.561c0-0.748-0.148-1.282-0.446-1.604c-0.306-0.354-0.683-0.567-1.134-0.639
				c-0.489-0.088-1.126-0.132-1.905-0.132L745.344,71.161L745.344,71.161z"/>
		</g>
	</g>
	<g>
		<g>
			<path fill="#F51484" d="M447.958,66.803l-1.929,3.75c-1.005-0.82-2.073-1.229-3.207-1.229c-0.514,0-0.985,0.14-1.41,0.422
				c-0.442,0.266-0.663,0.644-0.663,1.134c0,0.474,0.197,0.836,0.591,1.085c0.37,0.241,0.888,0.47,1.556,0.688l1.229,0.374
				c1.406,0.41,2.536,1.009,3.388,1.796c0.803,0.796,1.205,1.894,1.205,3.292c0,2.251-0.643,3.924-1.928,5.016
				c-1.383,1.165-3.143,1.748-5.281,1.748c-2.332,0-4.514-0.707-6.548-2.122l2.073-3.906c1.455,1.285,2.89,1.929,4.304,1.929
				c0.612,0,1.154-0.165,1.628-0.494c0.474-0.33,0.711-0.792,0.711-1.387c0-0.603-0.26-1.036-0.783-1.302
				c-0.49-0.249-1.206-0.522-2.146-0.82c-1.11-0.298-2.042-0.635-2.797-1.013c-0.717-0.362-1.269-0.872-1.658-1.531
				c-0.39-0.658-0.585-1.563-0.585-2.713c0-1.237,0.27-2.331,0.807-3.279c0.572-0.965,1.339-1.7,2.303-2.207
				c0.941-0.506,2.042-0.76,3.304-0.76c0.933,0,1.937,0.141,3.014,0.422C446.181,65.959,447.121,66.329,447.958,66.803z"/>
			<path fill="#F51484" d="M455.855,72.952h6.994v-7.186h4.835v18.617h-4.835v-7.632h-6.994v7.633h-4.835V65.766h4.835V72.952z"/>
			<path fill="#F51484" d="M482.261,81.152h-6.668l-1.278,3.231h-5.136l7.161-18.617h5.282l7.017,18.617h-5.16L482.261,81.152z
				 M480.959,77.45l-1.978-5.933h-0.048l-2.001,5.933H480.959z"/>
			<path fill="#F51484" d="M499.769,76.751l5.848,7.633h-6.029l-4.558-7.163h-0.06v7.163h-4.835V65.766h7.234
				c1.286,0,2.406,0.205,3.364,0.615c0.989,0.434,1.744,1.069,2.267,1.905c0.563,0.852,0.844,1.921,0.844,3.207
				c0,0.868-0.156,1.676-0.469,2.424c-0.338,0.756-0.801,1.371-1.387,1.845C501.385,76.252,500.645,76.582,499.769,76.751z
				 M494.97,69.468v4.643h0.469c0.667,0,1.23-0.056,1.688-0.169c0.499-0.145,0.9-0.378,1.206-0.699
				c0.313-0.321,0.469-0.803,0.469-1.447c0-0.651-0.156-1.138-0.469-1.459c-0.306-0.321-0.708-0.555-1.206-0.699
				c-0.442-0.113-1.005-0.169-1.688-0.169H494.97z"/>
			<path fill="#F51484" d="M517.529,69.865h-5.763v3.111h5.462v4.1h-5.462v3.207h5.763v4.1h-10.598V65.766h10.598V69.865z"/>
			<path fill="#F51484" d="M533.782,75.448l-6.861-9.682h5.801l3.484,5.064l3.485-5.064h5.8l-6.861,9.682v8.935h-4.847
				L533.782,75.448L533.782,75.448z"/>
			<path fill="#F51484" d="M555.957,65.151c1.358,0,2.653,0.229,3.882,0.688c1.254,0.482,2.355,1.149,3.304,2.002
				c0.933,0.836,1.692,1.856,2.279,3.063c0.555,1.133,0.832,2.407,0.832,3.822c0,1.487-0.245,2.854-0.736,4.1
				c-0.514,1.27-1.239,2.366-2.17,3.291c-0.499,0.499-1.013,0.921-1.543,1.267c-0.532,0.344-1.106,0.639-1.725,0.88
				c-1.246,0.489-2.621,0.735-4.124,0.735c-1.479,0-2.845-0.244-4.1-0.735c-1.27-0.498-2.364-1.214-3.28-2.146
				c-0.458-0.45-0.862-0.938-1.212-1.466c-0.35-0.525-0.67-1.135-0.958-1.825c-0.499-1.262-0.748-2.629-0.748-4.1
				c0-0.667,0.071-1.322,0.211-1.966c0.14-0.644,0.351-1.261,0.633-1.856c0.595-1.223,1.351-2.243,2.267-3.063
				c0.957-0.861,2.069-1.528,3.34-2.002C553.308,65.38,554.59,65.151,555.957,65.151z M555.957,69.842
				c-0.948,0-1.821,0.229-2.617,0.688c-0.836,0.482-1.479,1.085-1.928,1.809c-0.475,0.788-0.713,1.592-0.713,2.411
				c0,1.021,0.238,1.97,0.713,2.846c0.482,0.876,1.116,1.543,1.905,2.001c0.828,0.475,1.708,0.712,2.641,0.712
				c0.948,0,1.829-0.237,2.64-0.712c0.788-0.449,1.423-1.117,1.905-2.001c0.475-0.853,0.712-1.802,0.712-2.846
				c0-0.844-0.237-1.647-0.712-2.411c-0.458-0.731-1.101-1.334-1.928-1.809C557.785,70.071,556.913,69.842,555.957,69.842z"/>
			<path fill="#F51484" d="M579.818,65.766h4.835v10.466c0,0.482-0.008,0.908-0.024,1.278s-0.048,0.791-0.096,1.266
				c-0.08,0.756-0.261,1.472-0.542,2.146c-0.249,0.651-0.676,1.278-1.279,1.881c-0.513,0.49-1.109,0.893-1.783,1.206
				c-0.676,0.305-1.383,0.522-2.122,0.652c-0.757,0.144-1.512,0.217-2.267,0.217c-1.166,0-2.311-0.165-3.436-0.494
				c-0.555-0.169-1.054-0.383-1.495-0.639c-0.442-0.258-0.856-0.571-1.241-0.94c-0.603-0.604-1.033-1.23-1.29-1.881
				c-0.29-0.684-0.47-1.392-0.543-2.123c-0.08-0.82-0.12-1.677-0.12-2.568V65.766h4.835v9.803c0,0.995,0.068,1.86,0.205,2.593
				c0.112,0.658,0.414,1.241,0.904,1.747c0.482,0.483,1.21,0.724,2.182,0.724c0.965,0,1.688-0.24,2.17-0.724
				c0.482-0.481,0.788-1.064,0.917-1.747c0.128-0.756,0.193-1.621,0.193-2.593v-9.803H579.818z"/>
			<path fill="#F51484" d="M597.35,76.751l5.847,7.633h-6.029l-4.558-7.163h-0.061v7.163h-4.835V65.766h7.235
				c1.285,0,2.407,0.205,3.364,0.615c0.99,0.434,1.744,1.069,2.267,1.905c0.562,0.852,0.844,1.921,0.844,3.207
				c0,0.868-0.156,1.676-0.469,2.424c-0.337,0.756-0.801,1.371-1.387,1.845C598.966,76.252,598.226,76.582,597.35,76.751z
				 M592.551,69.468v4.643h0.471c0.667,0,1.229-0.056,1.688-0.169c0.499-0.145,0.9-0.378,1.206-0.699
				c0.313-0.321,0.469-0.803,0.469-1.447c0-0.651-0.156-1.138-0.469-1.459c-0.306-0.321-0.707-0.555-1.206-0.699
				c-0.442-0.113-1.005-0.169-1.688-0.169H592.551z"/>
			<path fill="#F51484" d="M616.063,65.766l3.231,12.021h0.048l3.907-12.021h3.858l3.654,12.021h0.048l3.509-12.021h5.029
				l-5.945,18.617h-4.943l-3.255-10.792h-0.05l-3.653,10.792h-4.919l-5.559-18.617H616.063L616.063,65.766z"/>
			<path fill="#F51484" d="M649.921,65.151c1.358,0,2.653,0.229,3.883,0.688c1.254,0.482,2.355,1.149,3.303,2.002
				c0.933,0.836,1.693,1.856,2.28,3.063c0.554,1.133,0.831,2.407,0.831,3.822c0,1.487-0.244,2.854-0.735,4.1
				c-0.515,1.27-1.238,2.366-2.17,3.291c-0.499,0.499-1.012,0.921-1.543,1.267c-0.53,0.344-1.105,0.639-1.724,0.88
				c-1.246,0.489-2.621,0.735-4.124,0.735c-1.479,0-2.845-0.244-4.099-0.735c-1.271-0.498-2.364-1.214-3.281-2.146
				c-0.458-0.45-0.862-0.938-1.211-1.466c-0.35-0.525-0.669-1.135-0.959-1.825c-0.499-1.262-0.748-2.629-0.748-4.1
				c0-0.667,0.071-1.322,0.211-1.966c0.14-0.644,0.351-1.261,0.634-1.856c0.594-1.223,1.35-2.243,2.266-3.063
				c0.957-0.861,2.071-1.528,3.341-2.002C647.272,65.38,648.554,65.151,649.921,65.151z M649.921,69.842
				c-0.948,0-1.821,0.229-2.616,0.688c-0.837,0.482-1.479,1.085-1.929,1.809c-0.475,0.788-0.711,1.592-0.711,2.411
				c0,1.021,0.237,1.97,0.711,2.846c0.482,0.876,1.117,1.543,1.906,2.001c0.827,0.475,1.708,0.712,2.64,0.712
				c0.948,0,1.828-0.237,2.641-0.712c0.788-0.449,1.423-1.117,1.905-2.001c0.474-0.853,0.712-1.802,0.712-2.846
				c0-0.844-0.238-1.647-0.712-2.411c-0.458-0.731-1.101-1.334-1.929-1.809C651.749,70.071,650.877,69.842,649.921,69.842z"/>
			<path fill="#F51484" d="M672.106,76.751l5.848,7.633h-6.029l-4.557-7.163h-0.061v7.163h-4.835V65.766h7.234
				c1.286,0,2.407,0.205,3.364,0.615c0.989,0.434,1.744,1.069,2.267,1.905c0.563,0.852,0.844,1.921,0.844,3.207
				c0,0.868-0.157,1.676-0.47,2.424c-0.338,0.756-0.8,1.371-1.386,1.845C673.722,76.252,672.982,76.582,672.106,76.751z
				 M667.308,69.468v4.643h0.469c0.667,0,1.23-0.056,1.688-0.169c0.499-0.145,0.901-0.378,1.206-0.699
				c0.313-0.321,0.47-0.803,0.47-1.447c0-0.651-0.157-1.138-0.47-1.459c-0.305-0.321-0.707-0.555-1.206-0.699
				c-0.442-0.113-1.005-0.169-1.688-0.169H667.308z"/>
			<path fill="#F51484" d="M684.164,73.447l5.848-7.681h6.005l-7.415,8.814l8.078,9.803h-6.27l-6.246-8.079h-0.061v8.079h-4.835
				V65.766h4.835v7.68L684.164,73.447L684.164,73.447z"/>
			<path fill="#F51484" d="M717.045,69.865h-5.763v3.111h5.462v4.1h-5.462v3.207h5.763v4.1h-10.599V65.766h10.599V69.865z"/>
			<path fill="#F51484" d="M725.533,74.436l-5.956-8.669h5.956l2.834,4.811l2.844-4.811h5.945l-5.945,8.669l6.886,9.948h-5.824
				l-3.906-6.077l-4.269,6.077h-5.848L725.533,74.436z"/>
			<path fill="#F51484" d="M739.508,84.384V65.766h7.404c1.366,0,2.561,0.213,3.581,0.639c0.996,0.434,1.78,1.117,2.351,2.05
				c0.563,0.908,0.844,2.054,0.844,3.437c0,1.029-0.14,1.973-0.422,2.833c-0.297,0.788-0.728,1.439-1.29,1.953
				c-0.547,0.499-1.238,0.885-2.074,1.157c-0.795,0.249-1.732,0.374-2.809,0.374h-2.749v6.174L739.508,84.384L739.508,84.384z
				 M744.344,69.661v4.642h0.82c0.716,0,1.334-0.04,1.857-0.12c0.45-0.072,0.833-0.267,1.151-0.585
				c0.319-0.318,0.476-0.838,0.476-1.562c0-0.748-0.148-1.282-0.446-1.604c-0.306-0.354-0.683-0.567-1.134-0.639
				c-0.489-0.088-1.126-0.132-1.905-0.132H744.344L744.344,69.661z"/>
		</g>
	</g>
</g>
</svg>
