<?xml version="1.0" encoding="utf-8"?>
<!-- Generator: Adobe Illustrator 16.0.0, SVG Export Plug-In . SVG Version: 6.00 Build 0)  -->
<!DOCTYPE svg PUBLIC "-//W3C//DTD SVG 1.1//EN" "http://www.w3.org/Graphics/SVG/1.1/DTD/svg11.dtd">
<svg version="1.1" id="Layer_1" xmlns="http://www.w3.org/2000/svg" xmlns:xlink="http://www.w3.org/1999/xlink" x="0px" y="0px"
	 width="1911.29px" height="200px" viewBox="0 0 1911.29 200" enable-background="new 0 0 1911.29 200" xml:space="preserve">
<g>
	<g>
		<rect x="1004" y="25" fill="#F9F9F9" width="900" height="150"/>
		<rect x="997" y="18" fill="#F51484" width="900" height="150"/>
		<rect x="990" y="11" fill="#6E1F75" width="900" height="150"/>
	</g>
	<g>
		<g>
			<path fill="#F51484" d="M1186.258,85.608h31.135c-0.076,3.75-0.262,6.732-0.549,8.945c-0.209,2.214-0.795,4.727-1.758,7.539
				c-0.938,2.631-2.227,5.078-3.867,7.344c-5.625,7.894-13.902,11.836-24.844,11.836c-6.145,0-11.719-1.328-16.719-3.981
				c-5-2.731-8.789-6.497-11.367-11.289c-2.732-4.869-4.102-10.391-4.102-16.562c0-4.635,0.781-9.062,2.344-13.281
				c1.535-4.01,3.775-7.447,6.719-10.313c2.865-2.812,6.328-5,10.393-6.562c4.012-1.536,8.438-2.305,13.279-2.305
				c4.088,0,7.904,0.612,11.445,1.836c3.438,1.25,6.498,3.139,9.18,5.664c2.734,2.656,4.922,5.781,6.564,9.375l-14.885,6.211
				c-1.016-2.916-2.693-5.26-5.037-7.031c-2.24-1.692-4.91-2.539-8.01-2.539c-3.279,0-6.105,0.898-8.477,2.695
				c-2.396,1.928-4.182,4.311-5.355,7.148c-1.225,2.969-1.836,6.029-1.836,9.18c0,3.178,0.611,6.225,1.836,9.141
				c1.275,2.917,3.111,5.261,5.51,7.029c2.445,1.797,5.313,2.694,8.596,2.694c2.238,0,4.281-0.391,6.133-1.172
				c1.875-0.833,3.371-2.005,4.492-3.517c1.094-1.459,1.758-3.384,1.99-5.78h-12.813V85.608H1186.258z"/>
			<path fill="#F51484" d="M1258.917,72.249h-18.672v10.078h17.695v13.281h-17.695v10.391h18.672v13.28h-34.336V58.968h34.336
				V72.249z"/>
			<path fill="#F51484" d="M1292.547,72.249v47.03h-15.664v-47.03h-12.969V58.968h41.604v13.281H1292.547z"/>
			<path fill="#F51484" d="M1354.305,58.968v60.312h-15.662V58.968H1354.305z"/>
			<path fill="#F51484" d="M1364.581,119.279V58.968h15.664l28.75,36.875h0.156V58.968h15.662v60.312h-15.662l-28.713-36.95h-0.193
				v36.95H1364.581L1364.581,119.279z"/>
			<path fill="#F51484" d="M1486.456,72.249v47.03h-15.664v-47.03h-12.969V58.968h41.602v13.281H1486.456z"/>
			<path fill="#F51484" d="M1535.44,56.976c4.396,0,8.594,0.742,12.574,2.227c4.064,1.562,7.633,3.725,10.703,6.484
				c3.021,2.709,5.482,6.016,7.387,9.922c1.797,3.672,2.691,7.8,2.691,12.383c0,4.818-0.795,9.245-2.383,13.281
				c-1.666,4.115-4.01,7.67-7.031,10.664c-1.613,1.612-3.279,2.979-5,4.102c-1.719,1.12-3.58,2.07-5.586,2.852
				c-4.037,1.588-8.49,2.383-13.357,2.383c-4.793,0-9.221-0.795-13.279-2.383c-4.115-1.613-7.656-3.932-10.625-6.953
				c-1.484-1.457-2.793-3.039-3.928-4.746c-1.135-1.705-2.168-3.678-3.104-5.918c-1.615-4.085-2.422-8.516-2.422-13.278
				c0-2.161,0.229-4.283,0.684-6.367c0.455-2.083,1.141-4.088,2.053-6.016c1.928-3.958,4.375-7.266,7.344-9.922
				c3.1-2.786,6.705-4.947,10.82-6.484C1526.86,57.718,1531.01,56.976,1535.44,56.976z M1535.44,72.171
				c-3.072,0-5.898,0.742-8.48,2.227c-2.709,1.562-4.791,3.516-6.25,5.859c-1.537,2.553-2.305,5.156-2.305,7.812
				c0,3.308,0.768,6.381,2.305,9.219c1.564,2.839,3.619,5,6.172,6.483c2.686,1.537,5.533,2.306,8.559,2.306
				c3.068,0,5.924-0.769,8.555-2.306c2.553-1.457,4.609-3.621,6.172-6.483c1.537-2.76,2.305-5.833,2.305-9.219
				c0-2.734-0.768-5.338-2.305-7.812c-1.484-2.369-3.568-4.322-6.25-5.859C1541.364,72.913,1538.54,72.171,1535.44,72.171z"/>
			<path fill="#F51484" d="M1612.745,58.968h15.664v33.906c0,1.562-0.025,2.943-0.078,4.141c-0.053,1.198-0.156,2.565-0.314,4.102
				c-0.262,2.447-0.848,4.766-1.758,6.953c-0.809,2.109-2.188,4.141-4.141,6.094c-1.668,1.589-3.596,2.891-5.781,3.906
				c-2.188,0.99-4.479,1.689-6.875,2.109c-2.449,0.469-4.895,0.7-7.344,0.7c-3.777,0-7.488-0.532-11.135-1.604
				c-1.797-0.547-3.41-1.233-4.844-2.067c-1.434-0.833-2.771-1.851-4.021-3.047c-1.953-1.953-3.348-3.981-4.182-6.097
				c-0.938-2.213-1.521-4.504-1.758-6.875c-0.262-2.653-0.391-5.427-0.391-8.317V58.968h15.664v31.758
				c0,3.229,0.221,6.029,0.662,8.398c0.363,2.136,1.342,4.022,2.932,5.664c1.563,1.562,3.918,2.344,7.068,2.344
				c3.125,0,5.471-0.78,7.029-2.344c1.564-1.563,2.555-3.45,2.971-5.664c0.416-2.447,0.625-5.247,0.625-8.398L1612.745,58.968
				L1612.745,58.968z"/>
			<path fill="#F51484" d="M1681.456,60.413v18.789c-1.537-2.083-3.541-3.736-6.016-4.961c-2.426-1.119-5-1.68-7.734-1.68
				c-3.15,0-5.924,0.742-8.32,2.227c-2.5,1.433-4.428,3.438-5.781,6.016c-1.326,2.475-1.99,5.3-1.99,8.477
				c0,3.178,0.688,6.003,2.068,8.477c1.406,2.578,3.334,4.531,5.781,5.859c2.553,1.381,5.377,2.07,8.479,2.07
				c2.604,0,5.076-0.563,7.422-1.683c2.422-1.224,4.453-2.799,6.094-4.727v18.791c-3.047,0.938-5.688,1.666-7.93,2.188
				c-1.953,0.416-3.92,0.625-5.898,0.625c-3.982,0-8.02-0.77-12.107-2.305c-1.273-0.494-2.508-1.067-3.689-1.721
				c-1.188-0.648-2.338-1.365-3.457-2.146c-1.119-0.779-2.252-1.682-3.398-2.693c-6.459-5.834-9.688-13.438-9.688-22.813
				c0-4.088,0.781-8.06,2.344-11.914c1.615-3.984,3.803-7.369,6.564-10.156c2.105-2.109,4.348-3.867,6.719-5.273
				c2.473-1.458,5.104-2.578,7.891-3.359c2.863-0.755,5.639-1.133,8.32-1.133C1671.782,57.366,1676.557,58.382,1681.456,60.413z"/>
			<path fill="#F51484" d="M1706.805,82.249h22.656V58.968h15.664v60.312h-15.664V94.554h-22.656v24.727h-15.662V58.968h15.662
				V82.249z"/>
		</g>
		<g>
			<path fill="#3AB4FF" d="M1182.258,81.608h31.135c-0.076,3.75-0.262,6.732-0.549,8.945c-0.209,2.214-0.795,4.727-1.758,7.539
				c-0.938,2.631-2.227,5.078-3.867,7.344c-5.625,7.894-13.902,11.836-24.844,11.836c-6.145,0-11.719-1.328-16.719-3.981
				c-5-2.731-8.789-6.497-11.367-11.289c-2.732-4.869-4.102-10.391-4.102-16.562c0-4.635,0.781-9.062,2.344-13.281
				c1.535-4.01,3.775-7.447,6.719-10.313c2.865-2.812,6.328-5,10.393-6.562c4.012-1.536,8.438-2.305,13.279-2.305
				c4.088,0,7.904,0.612,11.445,1.836c3.438,1.25,6.498,3.139,9.18,5.664c2.734,2.656,4.922,5.781,6.564,9.375l-14.885,6.211
				c-1.016-2.916-2.693-5.26-5.037-7.031c-2.24-1.692-4.91-2.539-8.01-2.539c-3.279,0-6.105,0.898-8.477,2.695
				c-2.396,1.928-4.182,4.311-5.355,7.148c-1.225,2.969-1.836,6.029-1.836,9.18c0,3.178,0.611,6.225,1.836,9.141
				c1.275,2.917,3.111,5.261,5.51,7.029c2.445,1.797,5.313,2.694,8.596,2.694c2.238,0,4.281-0.391,6.133-1.172
				c1.875-0.833,3.371-2.005,4.492-3.516c1.094-1.458,1.758-3.385,1.99-5.781h-12.813V81.608H1182.258z"/>
			<path fill="#3AB4FF" d="M1254.917,68.249h-18.672v10.078h17.695v13.281h-17.695v10.391h18.672v13.28h-34.336V54.968h34.336
				V68.249z"/>
			<path fill="#3AB4FF" d="M1288.547,68.249v47.03h-15.664v-47.03h-12.969V54.968h41.604v13.281H1288.547z"/>
			<path fill="#3AB4FF" d="M1350.305,54.968v60.312h-15.662V54.968H1350.305z"/>
			<path fill="#3AB4FF" d="M1360.581,115.279V54.968h15.664l28.75,36.875h0.156V54.968h15.662v60.312h-15.662l-28.713-36.95h-0.193
				v36.95H1360.581L1360.581,115.279z"/>
			<path fill="#3AB4FF" d="M1482.456,68.249v47.03h-15.664v-47.03h-12.969V54.968h41.602v13.281H1482.456z"/>
			<path fill="#3AB4FF" d="M1531.44,52.976c4.396,0,8.594,0.742,12.574,2.227c4.064,1.562,7.633,3.725,10.703,6.484
				c3.021,2.709,5.482,6.016,7.387,9.922c1.797,3.672,2.691,7.8,2.691,12.383c0,4.818-0.795,9.245-2.383,13.281
				c-1.666,4.116-4.01,7.67-7.031,10.665c-1.613,1.614-3.279,2.981-5,4.104c-1.719,1.12-3.58,2.068-5.586,2.854
				c-4.037,1.588-8.49,2.383-13.357,2.383c-4.793,0-9.221-0.795-13.279-2.383c-4.115-1.613-7.656-3.934-10.625-6.953
				c-1.484-1.457-2.793-3.039-3.928-4.746c-1.135-1.705-2.168-3.677-3.104-5.917c-1.615-4.088-2.422-8.516-2.422-13.281
				c0-2.161,0.229-4.283,0.684-6.367c0.455-2.083,1.141-4.088,2.053-6.016c1.928-3.958,4.375-7.266,7.344-9.922
				c3.1-2.786,6.705-4.947,10.82-6.484C1522.86,53.718,1527.01,52.976,1531.44,52.976z M1531.44,68.171
				c-3.072,0-5.898,0.742-8.48,2.227c-2.709,1.562-4.791,3.516-6.25,5.859c-1.537,2.553-2.305,5.156-2.305,7.812
				c0,3.308,0.768,6.381,2.305,9.219c1.564,2.839,3.619,5,6.172,6.484c2.686,1.537,5.533,2.305,8.559,2.305
				c3.068,0,5.924-0.769,8.555-2.305c2.553-1.458,4.609-3.619,6.172-6.484c1.537-2.76,2.305-5.833,2.305-9.219
				c0-2.734-0.768-5.338-2.305-7.812c-1.484-2.369-3.568-4.322-6.25-5.859C1537.364,68.913,1534.54,68.171,1531.44,68.171z"/>
			<path fill="#3AB4FF" d="M1608.745,54.968h15.664v33.906c0,1.562-0.025,2.943-0.078,4.141c-0.053,1.198-0.156,2.565-0.314,4.102
				c-0.262,2.448-0.848,4.766-1.758,6.953c-0.809,2.109-2.188,4.141-4.141,6.094c-1.668,1.589-3.596,2.891-5.781,3.906
				c-2.188,0.99-4.479,1.689-6.875,2.109c-2.449,0.469-4.895,0.7-7.344,0.7c-3.777,0-7.488-0.532-11.135-1.604
				c-1.797-0.547-3.41-1.233-4.844-2.067c-1.434-0.833-2.771-1.851-4.021-3.047c-1.953-1.953-3.348-3.981-4.182-6.097
				c-0.938-2.213-1.521-4.502-1.758-6.875c-0.262-2.656-0.391-5.43-0.391-8.32V54.968h15.664v31.758
				c0,3.229,0.221,6.029,0.662,8.398c0.363,2.136,1.342,4.023,2.932,5.664c1.563,1.562,3.918,2.344,7.068,2.344
				c3.125,0,5.471-0.78,7.029-2.344c1.564-1.563,2.555-3.45,2.971-5.664c0.416-2.447,0.625-5.247,0.625-8.398L1608.745,54.968
				L1608.745,54.968z"/>
			<path fill="#3AB4FF" d="M1677.456,56.413v18.789c-1.537-2.083-3.541-3.736-6.016-4.961c-2.426-1.119-5-1.68-7.734-1.68
				c-3.15,0-5.924,0.742-8.32,2.227c-2.5,1.433-4.428,3.438-5.781,6.016c-1.326,2.475-1.99,5.3-1.99,8.477
				c0,3.178,0.688,6.003,2.068,8.477c1.406,2.578,3.334,4.531,5.781,5.859c2.553,1.381,5.377,2.07,8.479,2.07
				c2.604,0,5.076-0.563,7.422-1.683c2.422-1.224,4.453-2.799,6.094-4.727v18.791c-3.047,0.938-5.688,1.666-7.93,2.188
				c-1.953,0.416-3.92,0.625-5.898,0.625c-3.982,0-8.02-0.77-12.107-2.305c-1.273-0.494-2.508-1.067-3.689-1.721
				c-1.188-0.648-2.338-1.365-3.457-2.146c-1.119-0.779-2.252-1.682-3.398-2.693c-6.459-5.834-9.688-13.438-9.688-22.813
				c0-4.088,0.781-8.06,2.344-11.914c1.615-3.984,3.803-7.369,6.564-10.156c2.105-2.109,4.348-3.867,6.719-5.273
				c2.473-1.458,5.104-2.578,7.891-3.359c2.863-0.755,5.639-1.133,8.32-1.133C1667.782,53.366,1672.557,54.382,1677.456,56.413z"/>
			<path fill="#3AB4FF" d="M1702.805,78.249h22.656V54.968h15.664v60.312h-15.664V90.554h-22.656v24.727h-15.662V54.968h15.662
				V78.249z"/>
		</g>
	</g>
	<g>
		<rect x="1004" y="39" fill="#F9F9F9" width="900" height="150"/>
		<rect x="997" y="32" fill="#F51484" width="900" height="150"/>
		<rect x="990" y="25" fill="#6E1F75" width="900" height="150"/>
	</g>
	<g>
		<g>
			<path fill="#F51484" d="M1186.258,99.608h31.135c-0.076,3.75-0.262,6.732-0.549,8.945c-0.209,2.215-0.795,4.727-1.758,7.539
				c-0.938,2.631-2.227,5.078-3.867,7.344c-5.625,7.894-13.902,11.836-24.844,11.836c-6.145,0-11.719-1.328-16.719-3.981
				c-5-2.731-8.789-6.497-11.367-11.289c-2.732-4.869-4.102-10.394-4.102-16.563c0-4.636,0.781-9.063,2.344-13.279
				c1.535-4.01,3.775-7.447,6.719-10.313c2.865-2.812,6.328-5,10.393-6.562c4.012-1.536,8.438-2.305,13.279-2.305
				c4.088,0,7.904,0.612,11.445,1.836c3.438,1.25,6.498,3.139,9.18,5.664c2.734,2.656,4.922,5.781,6.564,9.375l-14.885,6.211
				c-1.016-2.916-2.693-5.26-5.037-7.031c-2.24-1.692-4.91-2.539-8.01-2.539c-3.279,0-6.105,0.898-8.477,2.695
				c-2.396,1.928-4.182,4.311-5.355,7.148c-1.225,2.969-1.836,6.029-1.836,9.181c0,3.178,0.611,6.227,1.836,9.143
				c1.275,2.917,3.111,5.261,5.51,7.029c2.445,1.797,5.313,2.694,8.596,2.694c2.238,0,4.281-0.391,6.133-1.172
				c1.875-0.833,3.371-2.005,4.492-3.517c1.094-1.459,1.758-3.385,1.99-5.78h-12.813V99.608H1186.258z"/>
			<path fill="#F51484" d="M1258.917,86.249h-18.672v10.078h17.695v13.28h-17.695v10.392h18.672v13.28h-34.336V72.968h34.336V86.249
				z"/>
			<path fill="#F51484" d="M1292.547,86.249v47.03h-15.664v-47.03h-12.969V72.968h41.604v13.281H1292.547z"/>
			<path fill="#F51484" d="M1354.305,72.968v60.312h-15.662V72.968H1354.305z"/>
			<path fill="#F51484" d="M1364.581,133.279V72.968h15.664l28.75,36.875h0.156V72.968h15.662v60.312h-15.662l-28.713-36.95h-0.193
				v36.95H1364.581L1364.581,133.279z"/>
			<path fill="#F51484" d="M1486.456,86.249v47.03h-15.664v-47.03h-12.969V72.968h41.602v13.281H1486.456z"/>
			<path fill="#F51484" d="M1535.44,70.976c4.396,0,8.594,0.742,12.574,2.227c4.064,1.562,7.633,3.725,10.703,6.484
				c3.021,2.709,5.482,6.016,7.387,9.922c1.797,3.672,2.691,7.8,2.691,12.383c0,4.818-0.795,9.244-2.383,13.281
				c-1.666,4.115-4.01,7.67-7.031,10.664c-1.613,1.612-3.279,2.979-5,4.102c-1.719,1.12-3.58,2.07-5.586,2.852
				c-4.037,1.588-8.49,2.383-13.357,2.383c-4.793,0-9.221-0.795-13.279-2.383c-4.115-1.613-7.656-3.932-10.625-6.953
				c-1.484-1.457-2.793-3.039-3.928-4.746c-1.135-1.705-2.168-3.678-3.104-5.918c-1.615-4.088-2.422-8.516-2.422-13.278
				c0-2.161,0.229-4.283,0.684-6.367c0.455-2.083,1.141-4.088,2.053-6.016c1.928-3.958,4.375-7.266,7.344-9.922
				c3.1-2.786,6.705-4.947,10.82-6.484C1526.86,71.718,1531.01,70.976,1535.44,70.976z M1535.44,86.171
				c-3.072,0-5.898,0.742-8.48,2.227c-2.709,1.562-4.791,3.516-6.25,5.859c-1.537,2.553-2.305,5.156-2.305,7.812
				c0,3.311,0.768,6.384,2.305,9.222c1.564,2.839,3.619,5,6.172,6.481c2.686,1.537,5.533,2.308,8.559,2.308
				c3.068,0,5.924-0.771,8.555-2.308c2.553-1.457,4.609-3.619,6.172-6.481c1.537-2.763,2.305-5.833,2.305-9.222
				c0-2.731-0.768-5.335-2.305-7.812c-1.484-2.369-3.568-4.322-6.25-5.859C1541.364,86.913,1538.54,86.171,1535.44,86.171z"/>
			<path fill="#F51484" d="M1612.745,72.968h15.664v33.906c0,1.562-0.025,2.942-0.078,4.142c-0.053,1.197-0.156,2.564-0.314,4.104
				c-0.262,2.445-0.848,4.766-1.758,6.951c-0.809,2.109-2.188,4.143-4.141,6.096c-1.668,1.589-3.596,2.893-5.781,3.904
				c-2.188,0.99-4.479,1.691-6.875,2.109c-2.449,0.469-4.895,0.702-7.344,0.702c-3.777,0-7.488-0.534-11.135-1.603
				c-1.797-0.547-3.41-1.235-4.844-2.069c-1.434-0.833-2.771-1.849-4.021-3.047c-1.953-1.953-3.348-3.983-4.182-6.095
				c-0.938-2.213-1.521-4.504-1.758-6.875c-0.262-2.655-0.391-5.43-0.391-8.319V72.968h15.664v31.759
				c0,3.229,0.221,6.028,0.662,8.397c0.363,2.136,1.342,4.022,2.932,5.664c1.563,1.562,3.918,2.344,7.068,2.344
				c3.125,0,5.471-0.78,7.029-2.344c1.564-1.563,2.555-3.45,2.971-5.664c0.416-2.447,0.625-5.247,0.625-8.397L1612.745,72.968
				L1612.745,72.968z"/>
			<path fill="#F51484" d="M1681.456,74.413v18.789c-1.537-2.083-3.541-3.736-6.016-4.961c-2.426-1.119-5-1.68-7.734-1.68
				c-3.15,0-5.924,0.742-8.32,2.227c-2.5,1.433-4.428,3.438-5.781,6.016c-1.326,2.475-1.99,5.3-1.99,8.477
				c0,3.178,0.688,6.003,2.068,8.477c1.406,2.578,3.334,4.531,5.781,5.859c2.553,1.381,5.377,2.07,8.479,2.07
				c2.604,0,5.076-0.563,7.422-1.683c2.422-1.224,4.453-2.799,6.094-4.729v18.789c-3.047,0.938-5.688,1.666-7.93,2.188
				c-1.953,0.416-3.92,0.625-5.898,0.625c-3.982,0-8.02-0.769-12.107-2.305c-1.273-0.494-2.508-1.067-3.689-1.72
				c-1.188-0.649-2.338-1.367-3.457-2.147s-2.252-1.681-3.398-2.694c-6.459-5.834-9.688-13.438-9.688-22.813
				c0-4.088,0.781-8.06,2.344-11.914c1.615-3.984,3.803-7.369,6.564-10.156c2.105-2.109,4.348-3.867,6.719-5.273
				c2.473-1.458,5.104-2.578,7.891-3.359c2.863-0.755,5.639-1.133,8.32-1.133C1671.782,71.366,1676.557,72.382,1681.456,74.413z"/>
			<path fill="#F51484" d="M1706.805,96.249h22.656V72.968h15.664v60.312h-15.664v-24.727h-22.656v24.727h-15.662V72.968h15.662
				V96.249z"/>
		</g>
		<g>
			<path fill="#3AB4FF" d="M1182.258,95.608h31.135c-0.076,3.75-0.262,6.732-0.549,8.945c-0.209,2.215-0.795,4.727-1.758,7.539
				c-0.938,2.631-2.227,5.078-3.867,7.344c-5.625,7.894-13.902,11.836-24.844,11.836c-6.145,0-11.719-1.328-16.719-3.981
				c-5-2.731-8.789-6.497-11.367-11.289c-2.732-4.869-4.102-10.394-4.102-16.562c0-4.635,0.781-9.062,2.344-13.281
				c1.535-4.01,3.775-7.447,6.719-10.313c2.865-2.812,6.328-5,10.393-6.562c4.012-1.536,8.438-2.305,13.279-2.305
				c4.088,0,7.904,0.612,11.445,1.836c3.438,1.25,6.498,3.139,9.18,5.664c2.734,2.656,4.922,5.781,6.564,9.375l-14.885,6.211
				c-1.016-2.916-2.693-5.26-5.037-7.031c-2.24-1.692-4.91-2.539-8.01-2.539c-3.279,0-6.105,0.898-8.477,2.695
				c-2.396,1.928-4.182,4.311-5.355,7.148c-1.225,2.969-1.836,6.029-1.836,9.18c0,3.176,0.611,6.225,1.836,9.141
				c1.275,2.917,3.111,5.261,5.51,7.029c2.445,1.797,5.313,2.694,8.596,2.694c2.238,0,4.281-0.391,6.133-1.172
				c1.875-0.833,3.371-2.005,4.492-3.517c1.094-1.459,1.758-3.385,1.99-5.78h-12.813V95.608H1182.258z"/>
			<path fill="#3AB4FF" d="M1254.917,82.249h-18.672v10.078h17.695v13.28h-17.695v10.392h18.672v13.28h-34.336V68.968h34.336V82.249
				z"/>
			<path fill="#3AB4FF" d="M1288.547,82.249v47.03h-15.664v-47.03h-12.969V68.968h41.604v13.281H1288.547z"/>
			<path fill="#3AB4FF" d="M1350.305,68.968v60.312h-15.662V68.968H1350.305z"/>
			<path fill="#3AB4FF" d="M1360.581,129.279V68.968h15.664l28.75,36.875h0.156V68.968h15.662v60.312h-15.662l-28.713-36.95h-0.193
				v36.95H1360.581L1360.581,129.279z"/>
			<path fill="#3AB4FF" d="M1482.456,82.249v47.03h-15.664v-47.03h-12.969V68.968h41.602v13.281H1482.456z"/>
			<path fill="#3AB4FF" d="M1531.44,66.976c4.396,0,8.594,0.742,12.574,2.227c4.064,1.562,7.633,3.725,10.703,6.484
				c3.021,2.709,5.482,6.016,7.387,9.922c1.797,3.672,2.691,7.8,2.691,12.383c0,4.818-0.795,9.244-2.383,13.281
				c-1.666,4.115-4.01,7.67-7.031,10.664c-1.613,1.612-3.279,2.979-5,4.102c-1.719,1.12-3.58,2.07-5.586,2.852
				c-4.037,1.588-8.49,2.383-13.357,2.383c-4.793,0-9.221-0.795-13.279-2.383c-4.115-1.613-7.656-3.932-10.625-6.953
				c-1.484-1.457-2.793-3.039-3.928-4.746c-1.135-1.705-2.168-3.678-3.104-5.918c-1.615-4.088-2.422-8.516-2.422-13.278
				c0-2.161,0.229-4.283,0.684-6.367c0.455-2.083,1.141-4.088,2.053-6.016c1.928-3.958,4.375-7.266,7.344-9.922
				c3.1-2.786,6.705-4.947,10.82-6.484C1522.86,67.718,1527.01,66.976,1531.44,66.976z M1531.44,82.171
				c-3.072,0-5.898,0.742-8.48,2.227c-2.709,1.562-4.791,3.516-6.25,5.859c-1.537,2.553-2.305,5.156-2.305,7.812
				c0,3.308,0.768,6.381,2.305,9.219c1.564,2.839,3.619,5,6.172,6.483c2.686,1.537,5.533,2.306,8.559,2.306
				c3.068,0,5.924-0.769,8.555-2.306c2.553-1.457,4.609-3.619,6.172-6.483c1.537-2.761,2.305-5.833,2.305-9.219
				c0-2.734-0.768-5.338-2.305-7.812c-1.484-2.369-3.568-4.322-6.25-5.859C1537.364,82.913,1534.54,82.171,1531.44,82.171z"/>
			<path fill="#3AB4FF" d="M1608.745,68.968h15.664v33.906c0,1.562-0.025,2.942-0.078,4.142c-0.053,1.197-0.156,2.564-0.314,4.104
				c-0.262,2.445-0.848,4.766-1.758,6.951c-0.809,2.109-2.188,4.143-4.141,6.096c-1.668,1.589-3.596,2.893-5.781,3.904
				c-2.188,0.99-4.479,1.691-6.875,2.109c-2.449,0.469-4.895,0.702-7.344,0.702c-3.777,0-7.488-0.534-11.135-1.603
				c-1.797-0.547-3.41-1.235-4.844-2.069c-1.434-0.833-2.771-1.849-4.021-3.047c-1.953-1.953-3.348-3.983-4.182-6.095
				c-0.938-2.213-1.521-4.504-1.758-6.875c-0.262-2.655-0.391-5.43-0.391-8.319V68.968h15.664v31.759
				c0,3.229,0.221,6.028,0.662,8.397c0.363,2.136,1.342,4.022,2.932,5.664c1.563,1.562,3.918,2.344,7.068,2.344
				c3.125,0,5.471-0.78,7.029-2.344c1.564-1.563,2.555-3.45,2.971-5.664c0.416-2.447,0.625-5.247,0.625-8.397L1608.745,68.968
				L1608.745,68.968z"/>
			<path fill="#3AB4FF" d="M1677.456,70.413v18.789c-1.537-2.083-3.541-3.736-6.016-4.961c-2.426-1.119-5-1.68-7.734-1.68
				c-3.15,0-5.924,0.742-8.32,2.227c-2.5,1.433-4.428,3.438-5.781,6.016c-1.326,2.475-1.99,5.3-1.99,8.477
				c0,3.178,0.688,6.003,2.068,8.477c1.406,2.578,3.334,4.531,5.781,5.859c2.553,1.381,5.377,2.07,8.479,2.07
				c2.604,0,5.076-0.563,7.422-1.683c2.422-1.224,4.453-2.799,6.094-4.729v18.789c-3.047,0.938-5.688,1.666-7.93,2.188
				c-1.953,0.416-3.92,0.625-5.898,0.625c-3.982,0-8.02-0.769-12.107-2.305c-1.273-0.494-2.508-1.067-3.689-1.72
				c-1.188-0.649-2.338-1.367-3.457-2.147s-2.252-1.681-3.398-2.694c-6.459-5.834-9.688-13.438-9.688-22.813
				c0-4.088,0.781-8.06,2.344-11.914c1.615-3.984,3.803-7.369,6.564-10.156c2.105-2.109,4.348-3.867,6.719-5.273
				c2.473-1.458,5.104-2.578,7.891-3.359c2.863-0.755,5.639-1.133,8.32-1.133C1667.782,67.366,1672.557,68.382,1677.456,70.413z"/>
			<path fill="#3AB4FF" d="M1702.805,92.249h22.656V68.968h15.664v60.312h-15.664v-24.727h-22.656v24.727h-15.662V68.968h15.662
				V92.249z"/>
		</g>
	</g>
</g>
<g>
	<g>
		<rect x="24" y="32" fill="#6E1F75" width="900" height="150"/>
		<rect x="17" y="25" fill="#F51484" width="900" height="150"/>
		<rect x="10" y="18" fill="#F9F9F9" width="900" height="150"/>
	</g>
	<g>
		<g>
			<path fill="#3AB4FF" d="M206.26,93.02h31.133c-0.077,3.75-0.261,6.732-0.547,8.945c-0.209,2.215-0.795,4.727-1.758,7.539
				c-0.938,2.631-2.227,5.078-3.867,7.344c-5.625,7.892-13.905,11.836-24.844,11.836c-6.146,0-11.719-1.328-16.719-3.981
				c-5-2.734-8.789-6.497-11.367-11.289c-2.734-4.869-4.102-10.394-4.102-16.562c0-4.635,0.78-9.062,2.344-13.281
				c1.536-4.01,3.775-7.447,6.719-10.312c2.864-2.812,6.328-5,10.391-6.562c4.011-1.536,8.438-2.305,13.281-2.305
				c4.088,0,7.903,0.612,11.445,1.836c3.438,1.25,6.497,3.139,9.18,5.664c2.734,2.656,4.922,5.781,6.563,9.375l-14.883,6.211
				c-1.017-2.916-2.695-5.26-5.039-7.031c-2.24-1.692-4.909-2.539-8.009-2.539c-3.28,0-6.106,0.898-8.477,2.695
				c-2.396,1.928-4.181,4.311-5.353,7.148c-1.225,2.969-1.836,6.029-1.836,9.18c0,3.178,0.611,6.222,1.836,9.138
				c1.275,2.918,3.111,5.264,5.509,7.031c2.446,1.797,5.312,2.695,8.594,2.695c2.239,0,4.283-0.391,6.133-1.172
				c1.875-0.833,3.372-2.005,4.492-3.516c1.094-1.459,1.758-3.385,1.992-5.781h-12.813L206.26,93.02L206.26,93.02z"/>
			<path fill="#3AB4FF" d="M278.916,79.66h-18.672v10.078h17.695v13.282h-17.695v10.393h18.672v13.279H244.58V66.379h34.336V79.66z"
				/>
			<path fill="#3AB4FF" d="M312.549,79.66v47.031h-15.664V79.66h-12.969V66.379h41.602V79.66H312.549z"/>
			<path fill="#3AB4FF" d="M374.307,66.379v60.313h-15.664V66.379H374.307z"/>
			<path fill="#3AB4FF" d="M384.58,126.691V66.379h15.664l28.75,36.875h0.156V66.379h15.663v60.313H429.15l-28.712-36.954h-0.194
				v36.954H384.58L384.58,126.691z"/>
			<path fill="#3AB4FF" d="M506.455,79.66v47.031h-15.664V79.66h-12.969V66.379h41.602V79.66H506.455z"/>
			<path fill="#3AB4FF" d="M555.439,64.387c4.397,0,8.594,0.742,12.575,2.227c4.063,1.562,7.632,3.725,10.703,6.484
				c3.021,2.709,5.481,6.016,7.386,9.922c1.797,3.672,2.692,7.8,2.692,12.383c0,4.818-0.795,9.246-2.383,13.281
				c-1.667,4.115-4.011,7.67-7.031,10.664c-1.615,1.615-3.281,2.982-5,4.104s-3.581,2.067-5.586,2.853
				c-4.037,1.59-8.49,2.385-13.358,2.385c-4.791,0-9.22-0.795-13.279-2.385c-4.115-1.613-7.656-3.933-10.625-6.951
				c-1.484-1.459-2.793-3.041-3.928-4.746c-1.134-1.705-2.168-3.681-3.104-5.918c-1.615-4.088-2.422-8.519-2.422-13.283
				c0-2.161,0.228-4.283,0.684-6.367c0.455-2.083,1.141-4.088,2.053-6.016c1.928-3.958,4.375-7.266,7.345-9.922
				c3.099-2.786,6.704-4.947,10.818-6.484C546.858,65.129,551.012,64.387,555.439,64.387z M555.439,79.582
				c-3.073,0-5.898,0.742-8.479,2.227c-2.709,1.562-4.792,3.516-6.25,5.859c-1.537,2.553-2.305,5.156-2.305,7.812
				c0,3.308,0.768,6.381,2.305,9.219c1.563,2.839,3.619,5,6.172,6.484c2.685,1.537,5.533,2.305,8.558,2.305
				c3.069,0,5.924-0.768,8.555-2.305c2.552-1.459,4.607-3.619,6.172-6.484c1.536-2.76,2.305-5.833,2.305-9.219
				c0-2.734-0.769-5.338-2.305-7.812c-1.484-2.369-3.568-4.322-6.25-5.859C561.363,80.324,558.538,79.582,555.439,79.582z"/>
			<path fill="#3AB4FF" d="M632.744,66.379h15.664v33.906c0,1.563-0.026,2.943-0.078,4.141c-0.053,1.198-0.156,2.565-0.313,4.102
				c-0.261,2.449-0.847,4.769-1.758,6.953c-0.808,2.109-2.188,4.144-4.141,6.097c-1.667,1.589-3.594,2.891-5.781,3.903
				c-2.188,0.99-4.479,1.692-6.875,2.109c-2.448,0.469-4.896,0.703-7.344,0.703c-3.776,0-7.487-0.534-11.133-1.602
				c-1.798-0.547-3.412-1.236-4.847-2.07c-1.433-0.833-2.771-1.85-4.021-3.047c-1.953-1.953-3.349-3.984-4.181-6.094
				c-0.938-2.213-1.522-4.506-1.76-6.875c-0.261-2.656-0.391-5.433-0.391-8.32V66.379h15.664v31.758
				c0,3.229,0.221,6.029,0.663,8.398c0.364,2.136,1.342,4.023,2.931,5.664c1.563,1.562,3.919,2.344,7.069,2.344
				c3.125,0,5.47-0.781,7.031-2.344c1.563-1.563,2.553-3.45,2.969-5.664c0.416-2.447,0.625-5.247,0.625-8.398V66.379H632.744z"/>
			<path fill="#3AB4FF" d="M701.455,67.824v18.789c-1.537-2.083-3.542-3.736-6.016-4.961c-2.425-1.119-5-1.68-7.734-1.68
				c-3.151,0-5.925,0.742-8.32,2.227c-2.5,1.433-4.428,3.438-5.781,6.016c-1.325,2.475-1.989,5.3-1.989,8.477
				c0,3.178,0.688,6.003,2.067,8.477c1.406,2.578,3.333,4.531,5.781,5.858c2.552,1.382,5.377,2.07,8.479,2.07
				c2.604,0,5.075-0.562,7.422-1.682c2.422-1.227,4.453-2.799,6.094-4.729v18.789c-3.047,0.938-5.69,1.666-7.93,2.188
				c-1.953,0.416-3.922,0.625-5.898,0.625c-3.981,0-8.021-0.771-12.106-2.306c-1.276-0.493-2.51-1.066-3.691-1.719
				c-1.188-0.649-2.338-1.367-3.457-2.147c-1.12-0.781-2.253-1.681-3.398-2.695c-6.459-5.833-9.688-13.438-9.688-22.812
				c0-4.088,0.781-8.06,2.344-11.914c1.614-3.984,3.803-7.369,6.563-10.156c2.106-2.109,4.349-3.867,6.719-5.273
				c2.474-1.458,5.104-2.578,7.891-3.359c2.864-0.755,5.641-1.133,8.32-1.133C691.78,64.777,696.559,65.793,701.455,67.824z"/>
			<path fill="#3AB4FF" d="M726.807,89.66h22.656V66.379h15.664v60.313h-15.664v-24.728h-22.656v24.728h-15.664V66.379h15.664V89.66
				z"/>
		</g>
		<g>
			<path fill="#F51484" d="M202.26,89.02h31.133c-0.077,3.75-0.261,6.732-0.547,8.945c-0.209,2.214-0.795,4.727-1.758,7.539
				c-0.938,2.631-2.227,5.078-3.867,7.344c-5.625,7.892-13.905,11.836-24.844,11.836c-6.146,0-11.719-1.328-16.719-3.981
				c-5-2.734-8.789-6.497-11.367-11.289c-2.734-4.869-4.102-10.391-4.102-16.562c0-4.635,0.78-9.062,2.344-13.281
				c1.536-4.01,3.775-7.447,6.719-10.312c2.864-2.812,6.328-5,10.391-6.562c4.011-1.536,8.438-2.305,13.281-2.305
				c4.088,0,7.903,0.612,11.445,1.836c3.438,1.25,6.497,3.139,9.18,5.664c2.734,2.656,4.922,5.781,6.563,9.375l-14.883,6.211
				c-1.017-2.916-2.695-5.26-5.039-7.031c-2.24-1.692-4.909-2.539-8.009-2.539c-3.28,0-6.106,0.898-8.477,2.695
				c-2.396,1.928-4.181,4.311-5.353,7.148c-1.225,2.969-1.836,6.029-1.836,9.18c0,3.178,0.611,6.225,1.836,9.138
				c1.275,2.918,3.111,5.264,5.509,7.031c2.446,1.797,5.312,2.695,8.594,2.695c2.239,0,4.283-0.391,6.133-1.172
				c1.875-0.833,3.372-2.005,4.492-3.516c1.094-1.459,1.758-3.385,1.992-5.781h-12.813L202.26,89.02L202.26,89.02z"/>
			<path fill="#F51484" d="M274.916,75.66h-18.672v10.078h17.695V99.02h-17.695v10.391h18.672v13.28H240.58V62.379h34.336V75.66z"/>
			<path fill="#F51484" d="M308.549,75.66v47.031h-15.664V75.66h-12.969V62.379h41.602V75.66H308.549z"/>
			<path fill="#F51484" d="M370.307,62.379v60.313h-15.664V62.379H370.307z"/>
			<path fill="#F51484" d="M380.58,122.691V62.379h15.664l28.75,36.875h0.156V62.379h15.663v60.313H425.15l-28.712-36.954h-0.194
				v36.954H380.58L380.58,122.691z"/>
			<path fill="#F51484" d="M502.455,75.66v47.031h-15.664V75.66h-12.969V62.379h41.602V75.66H502.455z"/>
			<path fill="#F51484" d="M551.439,60.387c4.397,0,8.594,0.742,12.575,2.227c4.063,1.562,7.632,3.725,10.703,6.484
				c3.021,2.709,5.481,6.016,7.386,9.922c1.797,3.672,2.692,7.8,2.692,12.383c0,4.818-0.795,9.246-2.383,13.281
				c-1.667,4.115-4.011,7.67-7.031,10.664c-1.615,1.615-3.281,2.982-5,4.104s-3.581,2.067-5.586,2.853
				c-4.037,1.59-8.49,2.385-13.358,2.385c-4.791,0-9.22-0.795-13.279-2.385c-4.115-1.613-7.656-3.933-10.625-6.951
				c-1.484-1.459-2.793-3.041-3.928-4.746c-1.134-1.705-2.168-3.681-3.104-5.918c-1.615-4.088-2.422-8.519-2.422-13.283
				c0-2.161,0.228-4.283,0.684-6.367c0.455-2.083,1.141-4.088,2.053-6.016c1.928-3.958,4.375-7.266,7.345-9.922
				c3.099-2.786,6.704-4.947,10.818-6.484C542.858,61.129,547.012,60.387,551.439,60.387z M551.439,75.582
				c-3.073,0-5.898,0.742-8.479,2.227c-2.709,1.562-4.792,3.516-6.25,5.859c-1.537,2.553-2.305,5.156-2.305,7.812
				c0,3.308,0.768,6.381,2.305,9.219c1.563,2.839,3.619,5,6.172,6.484c2.685,1.537,5.533,2.305,8.558,2.305
				c3.069,0,5.924-0.768,8.555-2.305c2.552-1.459,4.607-3.619,6.172-6.484c1.536-2.76,2.305-5.833,2.305-9.219
				c0-2.734-0.769-5.338-2.305-7.812c-1.484-2.369-3.568-4.322-6.25-5.859C557.363,76.324,554.538,75.582,551.439,75.582z"/>
			<path fill="#F51484" d="M628.744,62.379h15.664v33.906c0,1.562-0.026,2.943-0.078,4.141c-0.053,1.198-0.156,2.565-0.313,4.102
				c-0.261,2.449-0.847,4.769-1.758,6.953c-0.808,2.109-2.188,4.144-4.141,6.097c-1.667,1.589-3.594,2.891-5.781,3.903
				c-2.188,0.99-4.479,1.692-6.875,2.109c-2.448,0.469-4.896,0.703-7.344,0.703c-3.776,0-7.487-0.534-11.133-1.602
				c-1.798-0.547-3.412-1.236-4.847-2.07c-1.433-0.833-2.771-1.85-4.021-3.047c-1.953-1.953-3.349-3.984-4.181-6.094
				c-0.938-2.213-1.522-4.506-1.76-6.875c-0.261-2.656-0.391-5.433-0.391-8.32V62.379h15.664v31.758
				c0,3.229,0.221,6.029,0.663,8.398c0.364,2.136,1.342,4.023,2.931,5.664c1.563,1.563,3.919,2.344,7.069,2.344
				c3.125,0,5.47-0.781,7.031-2.344c1.563-1.563,2.553-3.45,2.969-5.664c0.416-2.447,0.625-5.247,0.625-8.398V62.379H628.744z"/>
			<path fill="#F51484" d="M697.455,63.824v18.789c-1.537-2.083-3.542-3.736-6.016-4.961c-2.425-1.119-5-1.68-7.734-1.68
				c-3.151,0-5.925,0.742-8.32,2.227c-2.5,1.433-4.428,3.438-5.781,6.016c-1.325,2.475-1.989,5.3-1.989,8.477
				c0,3.178,0.688,6.003,2.067,8.477c1.406,2.578,3.333,4.531,5.781,5.858c2.552,1.382,5.377,2.07,8.479,2.07
				c2.604,0,5.075-0.562,7.422-1.682c2.422-1.227,4.453-2.799,6.094-4.729v18.789c-3.047,0.938-5.69,1.666-7.93,2.188
				c-1.953,0.416-3.922,0.625-5.898,0.625c-3.981,0-8.021-0.771-12.106-2.306c-1.276-0.493-2.51-1.066-3.691-1.719
				c-1.188-0.649-2.338-1.367-3.457-2.147c-1.12-0.781-2.253-1.681-3.398-2.695c-6.459-5.833-9.688-13.438-9.688-22.812
				c0-4.088,0.781-8.06,2.344-11.914c1.614-3.984,3.803-7.369,6.563-10.156c2.106-2.109,4.349-3.867,6.719-5.273
				c2.474-1.458,5.104-2.578,7.891-3.359c2.864-0.755,5.641-1.133,8.32-1.133C687.78,60.777,692.559,61.793,697.455,63.824z"/>
			<path fill="#F51484" d="M722.807,85.66h22.656V62.379h15.664v60.313h-15.664V97.965h-22.656v24.727h-15.664V62.379h15.664V85.66z
				"/>
		</g>
	</g>
</g>
</svg>
