<?xml version="1.0" encoding="utf-8"?>
<!-- Generator: Adobe Illustrator 16.0.0, SVG Export Plug-In . SVG Version: 6.00 Build 0)  -->
<!DOCTYPE svg PUBLIC "-//W3C//DTD SVG 1.1//EN" "http://www.w3.org/Graphics/SVG/1.1/DTD/svg11.dtd">
<svg version="1.1" id="Layer_1" xmlns="http://www.w3.org/2000/svg" xmlns:xlink="http://www.w3.org/1999/xlink" x="0px" y="0px"
	 width="972px" height="98px" viewBox="470.145 46.5 972 98" enable-background="new 470.145 46.5 972 98" xml:space="preserve">
<g>
	<g>
		<rect x="992.145" y="62.5" fill="#F9F9F9" width="450" height="75"/>
		<rect x="988.645" y="59" fill="#F51484" width="450" height="75"/>
		<rect x="985.145" y="55.5" fill="#6E1F75" width="450" height="75"/>
	</g>
	<g>
		<g>
			<path fill="#F51484" d="M1083.274,92.804h15.567c-0.038,1.875-0.131,3.366-0.274,4.473c-0.104,1.107-0.397,2.363-0.879,3.77
				c-0.469,1.315-1.113,2.539-1.934,3.672c-2.813,3.946-6.951,5.918-12.422,5.918c-3.072,0-5.859-0.664-8.359-1.991
				c-2.5-1.365-4.395-3.248-5.684-5.645c-1.366-2.434-2.051-5.195-2.051-8.28c0-2.317,0.391-4.531,1.172-6.641
				c0.768-2.005,1.888-3.724,3.359-5.156c1.433-1.406,3.164-2.5,5.196-3.281c2.006-0.768,4.219-1.152,6.64-1.152
				c2.044,0,3.952,0.306,5.723,0.918c1.719,0.625,3.249,1.569,4.59,2.832c1.367,1.328,2.461,2.89,3.282,4.688l-7.442,3.105
				c-0.508-1.458-1.347-2.63-2.519-3.516c-1.12-0.846-2.455-1.27-4.005-1.27c-1.64,0-3.053,0.449-4.238,1.348
				c-1.198,0.964-2.091,2.155-2.678,3.574c-0.612,1.485-0.918,3.015-0.918,4.59c0,1.589,0.306,3.112,0.918,4.57
				c0.638,1.458,1.556,2.63,2.755,3.515c1.223,0.898,2.656,1.348,4.298,1.348c1.119,0,2.141-0.195,3.066-0.586
				c0.938-0.417,1.686-1.003,2.246-1.759c0.547-0.729,0.879-1.692,0.995-2.89h-6.406L1083.274,92.804L1083.274,92.804z"/>
			<path fill="#F51484" d="M1119.603,86.125h-9.336v5.039h8.848v6.64h-8.848V103h9.336v6.64h-17.168V79.484h17.168V86.125z"/>
			<path fill="#F51484" d="M1136.418,86.125v23.515h-7.832V86.125h-6.484v-6.641h20.802v6.641H1136.418z"/>
			<path fill="#F51484" d="M1167.297,79.484v30.156h-7.831V79.484H1167.297z"/>
			<path fill="#F51484" d="M1172.435,109.64V79.484h7.832l14.375,18.438h0.078V79.484h7.831v30.156h-7.831l-14.356-18.475h-0.097
				v18.475H1172.435L1172.435,109.64z"/>
			<path fill="#F51484" d="M1233.373,86.125v23.515h-7.832V86.125h-6.484v-6.641h20.801v6.641H1233.373z"/>
			<path fill="#F51484" d="M1257.865,78.488c2.198,0,4.297,0.371,6.287,1.113c2.032,0.781,3.816,1.862,5.352,3.242
				c1.511,1.354,2.741,3.008,3.693,4.961c0.898,1.836,1.346,3.9,1.346,6.191c0,2.409-0.397,4.622-1.191,6.641
				c-0.833,2.058-2.005,3.835-3.516,5.332c-0.807,0.807-1.64,1.49-2.5,2.051c-0.859,0.561-1.79,1.035-2.793,1.426
				c-2.019,0.794-4.245,1.191-6.679,1.191c-2.396,0-4.61-0.397-6.64-1.191c-2.058-0.807-3.828-1.966-5.313-3.477
				c-0.742-0.729-1.396-1.52-1.964-2.373c-0.567-0.853-1.084-1.839-1.552-2.959c-0.808-2.043-1.211-4.258-1.211-6.639
				c0-1.081,0.114-2.142,0.342-3.184c0.228-1.042,0.57-2.044,1.026-3.008c0.964-1.979,2.188-3.633,3.672-4.961
				c1.55-1.393,3.353-2.473,5.41-3.242C1253.575,78.859,1255.65,78.488,1257.865,78.488z M1257.865,86.085
				c-1.536,0-2.949,0.371-4.24,1.114c-1.354,0.781-2.396,1.758-3.125,2.929c-0.769,1.277-1.152,2.578-1.152,3.906
				c0,1.654,0.384,3.191,1.152,4.61c0.782,1.419,1.81,2.5,3.086,3.242c1.343,0.769,2.767,1.153,4.279,1.153
				c1.534,0,2.962-0.385,4.277-1.153c1.276-0.729,2.305-1.811,3.086-3.242c0.769-1.38,1.152-2.917,1.152-4.61
				c0-1.367-0.384-2.669-1.152-3.906c-0.742-1.184-1.784-2.161-3.125-2.929C1260.827,86.457,1259.415,86.085,1257.865,86.085z"/>
			<path fill="#F51484" d="M1296.517,79.484h7.832v16.953c0,0.781-0.013,1.471-0.039,2.071c-0.026,0.599-0.078,1.282-0.157,2.051
				c-0.131,1.224-0.424,2.383-0.879,3.477c-0.404,1.055-1.094,2.07-2.07,3.047c-0.834,0.795-1.798,1.445-2.891,1.953
				c-1.094,0.495-2.239,0.845-3.438,1.055c-1.225,0.234-2.447,0.35-3.672,0.35c-1.889,0-3.744-0.266-5.567-0.802
				c-0.898-0.273-1.705-0.616-2.422-1.034c-0.717-0.416-1.386-0.925-2.011-1.523c-0.977-0.977-1.674-1.99-2.091-3.048
				c-0.469-1.106-0.761-2.252-0.879-3.438c-0.131-1.327-0.195-2.714-0.195-4.159V79.484h7.832v15.879
				c0,1.614,0.11,3.014,0.331,4.199c0.182,1.068,0.671,2.011,1.466,2.833c0.781,0.78,1.959,1.172,3.534,1.172
				c1.563,0,2.735-0.391,3.515-1.172c0.782-0.782,1.277-1.726,1.485-2.833c0.208-1.224,0.313-2.624,0.313-4.199L1296.517,79.484
				L1296.517,79.484z"/>
			<path fill="#F51484" d="M1330.873,80.207v9.395c-0.769-1.042-1.771-1.868-3.008-2.48c-1.213-0.56-2.5-0.84-3.867-0.84
				c-1.575,0-2.962,0.371-4.16,1.114c-1.25,0.716-2.214,1.719-2.891,3.008c-0.663,1.237-0.995,2.649-0.995,4.238
				s0.344,3.001,1.034,4.238c0.703,1.289,1.667,2.266,2.891,2.93c1.276,0.69,2.688,1.035,4.239,1.035
				c1.302,0,2.538-0.281,3.711-0.842c1.211-0.611,2.227-1.398,3.047-2.363v9.396c-1.523,0.469-2.844,0.833-3.965,1.094
				c-0.977,0.208-1.96,0.313-2.949,0.313c-1.991,0-4.01-0.385-6.054-1.152c-0.637-0.247-1.254-0.534-1.845-0.86
				c-0.594-0.324-1.169-0.683-1.729-1.073c-0.56-0.39-1.126-0.841-1.699-1.347c-3.229-2.917-4.844-6.719-4.844-11.406
				c0-2.044,0.391-4.03,1.172-5.957c0.808-1.992,1.901-3.685,3.282-5.078c1.053-1.055,2.174-1.934,3.359-2.637
				c1.236-0.729,2.552-1.289,3.945-1.679c1.432-0.377,2.819-0.566,4.16-0.566C1326.036,78.683,1328.423,79.191,1330.873,80.207z"/>
			<path fill="#F51484" d="M1343.547,91.125h11.328V79.484h7.832v30.156h-7.832V97.277h-11.328v12.363h-7.831V79.484h7.831V91.125z"
				/>
		</g>
		<g>
			<path fill="#3AB4FF" d="M1081.274,90.804h15.567c-0.038,1.875-0.131,3.366-0.274,4.473c-0.104,1.107-0.397,2.363-0.879,3.77
				c-0.469,1.315-1.113,2.539-1.934,3.672c-2.813,3.946-6.951,5.918-12.422,5.918c-3.072,0-5.859-0.664-8.359-1.991
				c-2.5-1.365-4.395-3.248-5.684-5.645c-1.366-2.434-2.051-5.195-2.051-8.28c0-2.317,0.391-4.531,1.172-6.641
				c0.768-2.005,1.888-3.724,3.359-5.156c1.433-1.406,3.164-2.5,5.196-3.281c2.006-0.768,4.219-1.152,6.64-1.152
				c2.044,0,3.952,0.306,5.723,0.918c1.719,0.625,3.249,1.569,4.59,2.832c1.367,1.328,2.461,2.89,3.282,4.688l-7.442,3.105
				c-0.508-1.458-1.347-2.63-2.519-3.516c-1.12-0.846-2.455-1.27-4.005-1.27c-1.64,0-3.053,0.449-4.238,1.348
				c-1.198,0.964-2.091,2.155-2.678,3.574c-0.612,1.485-0.918,3.015-0.918,4.59c0,1.589,0.306,3.112,0.918,4.57
				c0.638,1.458,1.556,2.63,2.755,3.515c1.223,0.898,2.656,1.348,4.298,1.348c1.119,0,2.141-0.195,3.066-0.586
				c0.938-0.417,1.686-1.003,2.246-1.759c0.547-0.729,0.879-1.692,0.995-2.89h-6.406L1081.274,90.804L1081.274,90.804z"/>
			<path fill="#3AB4FF" d="M1117.603,84.125h-9.336v5.039h8.848v6.64h-8.848V101h9.336v6.64h-17.168V77.484h17.168V84.125z"/>
			<path fill="#3AB4FF" d="M1134.418,84.125v23.515h-7.832V84.125h-6.484v-6.641h20.802v6.641H1134.418z"/>
			<path fill="#3AB4FF" d="M1165.297,77.484v30.156h-7.831V77.484H1165.297z"/>
			<path fill="#3AB4FF" d="M1170.435,107.64V77.484h7.832l14.375,18.438h0.078V77.484h7.831v30.156h-7.831l-14.356-18.475h-0.097
				v18.475H1170.435L1170.435,107.64z"/>
			<path fill="#3AB4FF" d="M1231.373,84.125v23.515h-7.832V84.125h-6.484v-6.641h20.801v6.641H1231.373z"/>
			<path fill="#3AB4FF" d="M1255.865,76.488c2.198,0,4.297,0.371,6.287,1.113c2.032,0.781,3.816,1.862,5.352,3.242
				c1.511,1.354,2.741,3.008,3.693,4.961c0.898,1.836,1.346,3.9,1.346,6.191c0,2.409-0.397,4.622-1.191,6.641
				c-0.833,2.058-2.005,3.835-3.516,5.332c-0.807,0.807-1.64,1.49-2.5,2.052c-0.859,0.56-1.79,1.034-2.793,1.427
				c-2.019,0.794-4.245,1.191-6.679,1.191c-2.396,0-4.61-0.397-6.64-1.191c-2.058-0.807-3.828-1.967-5.313-3.477
				c-0.742-0.729-1.396-1.52-1.964-2.373c-0.567-0.853-1.084-1.839-1.552-2.959c-0.808-2.044-1.211-4.258-1.211-6.64
				c0-1.081,0.114-2.142,0.342-3.184c0.228-1.042,0.57-2.044,1.026-3.008c0.964-1.979,2.188-3.633,3.672-4.961
				c1.55-1.393,3.353-2.473,5.41-3.242C1251.575,76.859,1253.65,76.488,1255.865,76.488z M1255.865,84.085
				c-1.536,0-2.949,0.371-4.24,1.114c-1.354,0.781-2.396,1.758-3.125,2.929c-0.769,1.277-1.152,2.578-1.152,3.906
				c0,1.654,0.384,3.191,1.152,4.61c0.782,1.419,1.81,2.5,3.086,3.242c1.343,0.769,2.767,1.153,4.279,1.153
				c1.534,0,2.962-0.385,4.277-1.153c1.276-0.729,2.305-1.81,3.086-3.242c0.769-1.38,1.152-2.917,1.152-4.61
				c0-1.367-0.384-2.669-1.152-3.906c-0.742-1.184-1.784-2.161-3.125-2.929C1258.827,84.457,1257.415,84.085,1255.865,84.085z"/>
			<path fill="#3AB4FF" d="M1294.517,77.484h7.832v16.953c0,0.781-0.013,1.471-0.039,2.071c-0.026,0.599-0.078,1.282-0.157,2.051
				c-0.131,1.224-0.424,2.383-0.879,3.477c-0.404,1.055-1.094,2.07-2.07,3.047c-0.834,0.795-1.798,1.445-2.891,1.953
				c-1.094,0.495-2.239,0.845-3.438,1.055c-1.225,0.234-2.447,0.35-3.672,0.35c-1.889,0-3.744-0.266-5.567-0.802
				c-0.898-0.273-1.705-0.616-2.422-1.034c-0.717-0.416-1.386-0.925-2.011-1.523c-0.977-0.977-1.674-1.99-2.091-3.048
				c-0.469-1.106-0.761-2.251-0.879-3.438c-0.131-1.328-0.195-2.715-0.195-4.16V77.484h7.832v15.879c0,1.614,0.11,3.014,0.331,4.199
				c0.182,1.068,0.671,2.011,1.466,2.832c0.781,0.781,1.959,1.172,3.534,1.172c1.563,0,2.735-0.391,3.515-1.172
				c0.782-0.782,1.277-1.725,1.485-2.832c0.208-1.224,0.313-2.624,0.313-4.199L1294.517,77.484L1294.517,77.484z"/>
			<path fill="#3AB4FF" d="M1328.873,78.207v9.395c-0.769-1.042-1.771-1.868-3.008-2.48c-1.213-0.56-2.5-0.84-3.867-0.84
				c-1.575,0-2.962,0.371-4.16,1.114c-1.25,0.716-2.214,1.719-2.891,3.008c-0.663,1.237-0.995,2.649-0.995,4.238
				s0.344,3.001,1.034,4.238c0.703,1.289,1.667,2.266,2.891,2.93c1.276,0.69,2.688,1.035,4.239,1.035
				c1.302,0,2.538-0.281,3.711-0.841c1.211-0.612,2.227-1.399,3.047-2.364v9.396c-1.523,0.469-2.844,0.833-3.965,1.094
				c-0.977,0.208-1.96,0.313-2.949,0.313c-1.991,0-4.01-0.385-6.054-1.152c-0.637-0.247-1.254-0.534-1.845-0.86
				c-0.594-0.324-1.169-0.683-1.729-1.073c-0.56-0.39-1.126-0.841-1.699-1.347c-3.229-2.917-4.844-6.719-4.844-11.406
				c0-2.044,0.391-4.03,1.172-5.957c0.808-1.992,1.901-3.685,3.282-5.078c1.053-1.055,2.174-1.934,3.359-2.637
				c1.236-0.729,2.552-1.289,3.945-1.679c1.432-0.377,2.819-0.566,4.16-0.566C1324.036,76.683,1326.423,77.191,1328.873,78.207z"/>
			<path fill="#3AB4FF" d="M1341.547,89.125h11.328V77.484h7.832v30.156h-7.832V95.277h-11.328v12.363h-7.831V77.484h7.831V89.125z"
				/>
		</g>
	</g>
	<g>
		<rect x="992.145" y="69.5" fill="#F9F9F9" width="450" height="75"/>
		<rect x="988.645" y="66" fill="#F51484" width="450" height="75"/>
		<rect x="985.145" y="62.5" fill="#6E1F75" width="450" height="75"/>
	</g>
	<g>
		<g>
			<path fill="#F51484" d="M1083.274,99.804h15.567c-0.038,1.875-0.131,3.366-0.274,4.473c-0.104,1.107-0.397,2.363-0.879,3.77
				c-0.469,1.315-1.113,2.539-1.934,3.672c-2.813,3.946-6.951,5.918-12.422,5.918c-3.072,0-5.859-0.664-8.359-1.991
				c-2.5-1.365-4.395-3.248-5.684-5.645c-1.366-2.434-2.051-5.196-2.051-8.281c0-2.318,0.391-4.531,1.172-6.64
				c0.768-2.005,1.888-3.724,3.359-5.156c1.433-1.406,3.164-2.5,5.196-3.281c2.006-0.768,4.219-1.152,6.64-1.152
				c2.044,0,3.952,0.306,5.723,0.918c1.719,0.625,3.249,1.569,4.59,2.832c1.367,1.328,2.461,2.89,3.282,4.688l-7.442,3.105
				c-0.508-1.458-1.347-2.63-2.519-3.516c-1.12-0.846-2.455-1.27-4.005-1.27c-1.64,0-3.053,0.449-4.238,1.348
				c-1.198,0.964-2.091,2.155-2.678,3.574c-0.612,1.485-0.918,3.015-0.918,4.59c0,1.589,0.306,3.113,0.918,4.571
				c0.638,1.459,1.556,2.631,2.755,3.515c1.223,0.898,2.656,1.347,4.298,1.347c1.119,0,2.141-0.195,3.066-0.586
				c0.938-0.416,1.686-1.002,2.246-1.758c0.547-0.729,0.879-1.692,0.995-2.891h-6.406L1083.274,99.804L1083.274,99.804z"/>
			<path fill="#F51484" d="M1119.603,93.125h-9.336v5.039h8.848v6.64h-8.848V110h9.336v6.64h-17.168V86.484h17.168V93.125z"/>
			<path fill="#F51484" d="M1136.418,93.125v23.515h-7.832V93.125h-6.484v-6.641h20.802v6.641H1136.418z"/>
			<path fill="#F51484" d="M1167.297,86.484v30.156h-7.831V86.484H1167.297z"/>
			<path fill="#F51484" d="M1172.435,116.64V86.484h7.832l14.375,18.438h0.078V86.484h7.831v30.156h-7.831l-14.356-18.475h-0.097
				v18.475H1172.435L1172.435,116.64z"/>
			<path fill="#F51484" d="M1233.373,93.125v23.515h-7.832V93.125h-6.484v-6.641h20.801v6.641H1233.373z"/>
			<path fill="#F51484" d="M1257.865,85.488c2.198,0,4.297,0.371,6.287,1.113c2.032,0.781,3.816,1.862,5.352,3.242
				c1.511,1.354,2.741,3.008,3.693,4.961c0.898,1.836,1.346,3.9,1.346,6.191c0,2.409-0.397,4.622-1.191,6.641
				c-0.833,2.058-2.005,3.835-3.516,5.332c-0.807,0.807-1.64,1.49-2.5,2.051c-0.859,0.561-1.79,1.035-2.793,1.426
				c-2.019,0.794-4.245,1.191-6.679,1.191c-2.396,0-4.61-0.397-6.64-1.191c-2.058-0.807-3.828-1.966-5.313-3.477
				c-0.742-0.729-1.396-1.52-1.964-2.373c-0.567-0.853-1.084-1.839-1.552-2.959c-0.808-2.044-1.211-4.258-1.211-6.639
				c0-1.081,0.114-2.142,0.342-3.184c0.228-1.042,0.57-2.044,1.026-3.008c0.964-1.979,2.188-3.633,3.672-4.961
				c1.55-1.393,3.353-2.473,5.41-3.242C1253.575,85.859,1255.65,85.488,1257.865,85.488z M1257.865,93.085
				c-1.536,0-2.949,0.371-4.24,1.114c-1.354,0.781-2.396,1.758-3.125,2.929c-0.769,1.277-1.152,2.578-1.152,3.906
				c0,1.655,0.384,3.192,1.152,4.61c0.782,1.42,1.81,2.5,3.086,3.241c1.343,0.769,2.767,1.153,4.279,1.153
				c1.534,0,2.962-0.385,4.277-1.153c1.276-0.729,2.305-1.81,3.086-3.241c0.769-1.381,1.152-2.916,1.152-4.61
				c0-1.366-0.384-2.668-1.152-3.906c-0.742-1.184-1.784-2.161-3.125-2.929C1260.827,93.457,1259.415,93.085,1257.865,93.085z"/>
			<path fill="#F51484" d="M1296.517,86.484h7.832v16.954c0,0.78-0.013,1.471-0.039,2.07c-0.026,0.599-0.078,1.282-0.157,2.052
				c-0.131,1.223-0.424,2.383-0.879,3.476c-0.404,1.055-1.094,2.071-2.07,3.048c-0.834,0.794-1.798,1.446-2.891,1.952
				c-1.094,0.495-2.239,0.846-3.438,1.055c-1.225,0.234-2.447,0.352-3.672,0.352c-1.889,0-3.744-0.268-5.567-0.802
				c-0.898-0.273-1.705-0.618-2.422-1.034c-0.717-0.417-1.386-0.925-2.011-1.523c-0.977-0.977-1.674-1.992-2.091-3.048
				c-0.469-1.106-0.761-2.252-0.879-3.438c-0.131-1.327-0.195-2.715-0.195-4.159V86.484h7.832v15.879
				c0,1.615,0.11,3.014,0.331,4.199c0.182,1.067,0.671,2.011,1.466,2.832c0.781,0.78,1.959,1.172,3.534,1.172
				c1.563,0,2.735-0.391,3.515-1.172c0.782-0.782,1.277-1.726,1.485-2.832c0.208-1.225,0.313-2.624,0.313-4.199L1296.517,86.484
				L1296.517,86.484z"/>
			<path fill="#F51484" d="M1330.873,87.207v9.395c-0.769-1.042-1.771-1.868-3.008-2.48c-1.213-0.56-2.5-0.84-3.867-0.84
				c-1.575,0-2.962,0.371-4.16,1.114c-1.25,0.716-2.214,1.719-2.891,3.008c-0.663,1.237-0.995,2.649-0.995,4.238
				s0.344,3.002,1.034,4.238c0.703,1.289,1.667,2.266,2.891,2.93c1.276,0.69,2.688,1.035,4.239,1.035
				c1.302,0,2.538-0.281,3.711-0.842c1.211-0.611,2.227-1.398,3.047-2.364v9.395c-1.523,0.47-2.844,0.833-3.965,1.095
				c-0.977,0.207-1.96,0.313-2.949,0.313c-1.991,0-4.01-0.385-6.054-1.152c-0.637-0.248-1.254-0.534-1.845-0.86
				c-0.594-0.325-1.169-0.684-1.729-1.073c-0.56-0.391-1.126-0.841-1.699-1.348c-3.229-2.917-4.844-6.719-4.844-11.406
				c0-2.044,0.391-4.03,1.172-5.957c0.808-1.992,1.901-3.685,3.282-5.078c1.053-1.055,2.174-1.934,3.359-2.637
				c1.236-0.729,2.552-1.289,3.945-1.679c1.432-0.377,2.819-0.566,4.16-0.566C1326.036,85.683,1328.423,86.191,1330.873,87.207z"/>
			<path fill="#F51484" d="M1343.547,98.125h11.328V86.484h7.832v30.156h-7.832v-12.363h-11.328v12.363h-7.831V86.484h7.831V98.125z
				"/>
		</g>
		<g>
			<path fill="#3AB4FF" d="M1081.274,97.804h15.567c-0.038,1.875-0.131,3.366-0.274,4.473c-0.104,1.107-0.397,2.363-0.879,3.77
				c-0.469,1.315-1.113,2.539-1.934,3.672c-2.813,3.946-6.951,5.918-12.422,5.918c-3.072,0-5.859-0.664-8.359-1.991
				c-2.5-1.365-4.395-3.248-5.684-5.645c-1.366-2.434-2.051-5.196-2.051-8.28c0-2.317,0.391-4.531,1.172-6.641
				c0.768-2.005,1.888-3.724,3.359-5.156c1.433-1.406,3.164-2.5,5.196-3.281c2.006-0.768,4.219-1.152,6.64-1.152
				c2.044,0,3.952,0.306,5.723,0.918c1.719,0.625,3.249,1.569,4.59,2.832c1.367,1.328,2.461,2.89,3.282,4.688l-7.442,3.105
				c-0.508-1.458-1.347-2.63-2.519-3.516c-1.12-0.846-2.455-1.27-4.005-1.27c-1.64,0-3.053,0.449-4.238,1.348
				c-1.198,0.964-2.091,2.155-2.678,3.574c-0.612,1.485-0.918,3.015-0.918,4.59c0,1.588,0.306,3.112,0.918,4.57
				c0.638,1.458,1.556,2.63,2.755,3.515c1.223,0.898,2.656,1.348,4.298,1.348c1.119,0,2.141-0.195,3.066-0.586
				c0.938-0.417,1.686-1.003,2.246-1.759c0.547-0.729,0.879-1.692,0.995-2.89h-6.406L1081.274,97.804L1081.274,97.804z"/>
			<path fill="#3AB4FF" d="M1117.603,91.125h-9.336v5.039h8.848v6.64h-8.848V108h9.336v6.64h-17.168V84.484h17.168V91.125z"/>
			<path fill="#3AB4FF" d="M1134.418,91.125v23.515h-7.832V91.125h-6.484v-6.641h20.802v6.641H1134.418z"/>
			<path fill="#3AB4FF" d="M1165.297,84.484v30.156h-7.831V84.484H1165.297z"/>
			<path fill="#3AB4FF" d="M1170.435,114.64V84.484h7.832l14.375,18.438h0.078V84.484h7.831v30.156h-7.831l-14.356-18.475h-0.097
				v18.475H1170.435L1170.435,114.64z"/>
			<path fill="#3AB4FF" d="M1231.373,91.125v23.515h-7.832V91.125h-6.484v-6.641h20.801v6.641H1231.373z"/>
			<path fill="#3AB4FF" d="M1255.865,83.488c2.198,0,4.297,0.371,6.287,1.113c2.032,0.781,3.816,1.862,5.352,3.242
				c1.511,1.354,2.741,3.008,3.693,4.961c0.898,1.836,1.346,3.9,1.346,6.191c0,2.409-0.397,4.622-1.191,6.641
				c-0.833,2.058-2.005,3.835-3.516,5.332c-0.807,0.807-1.64,1.49-2.5,2.051c-0.859,0.561-1.79,1.035-2.793,1.426
				c-2.019,0.794-4.245,1.191-6.679,1.191c-2.396,0-4.61-0.397-6.64-1.191c-2.058-0.807-3.828-1.966-5.313-3.477
				c-0.742-0.729-1.396-1.52-1.964-2.373c-0.567-0.853-1.084-1.839-1.552-2.959c-0.808-2.044-1.211-4.258-1.211-6.639
				c0-1.081,0.114-2.142,0.342-3.184c0.228-1.042,0.57-2.044,1.026-3.008c0.964-1.979,2.188-3.633,3.672-4.961
				c1.55-1.393,3.353-2.473,5.41-3.242C1251.575,83.859,1253.65,83.488,1255.865,83.488z M1255.865,91.085
				c-1.536,0-2.949,0.371-4.24,1.114c-1.354,0.781-2.396,1.758-3.125,2.929c-0.769,1.277-1.152,2.578-1.152,3.906
				c0,1.654,0.384,3.19,1.152,4.61c0.782,1.419,1.81,2.5,3.086,3.241c1.343,0.769,2.767,1.153,4.279,1.153
				c1.534,0,2.962-0.385,4.277-1.153c1.276-0.729,2.305-1.81,3.086-3.241c0.769-1.381,1.152-2.917,1.152-4.61
				c0-1.367-0.384-2.669-1.152-3.906c-0.742-1.184-1.784-2.161-3.125-2.929C1258.827,91.457,1257.415,91.085,1255.865,91.085z"/>
			<path fill="#3AB4FF" d="M1294.517,84.484h7.832v16.954c0,0.78-0.013,1.471-0.039,2.07c-0.026,0.599-0.078,1.282-0.157,2.052
				c-0.131,1.223-0.424,2.383-0.879,3.476c-0.404,1.055-1.094,2.071-2.07,3.048c-0.834,0.794-1.798,1.446-2.891,1.952
				c-1.094,0.495-2.239,0.846-3.438,1.055c-1.225,0.234-2.447,0.352-3.672,0.352c-1.889,0-3.744-0.268-5.567-0.802
				c-0.898-0.273-1.705-0.618-2.422-1.034c-0.717-0.417-1.386-0.925-2.011-1.523c-0.977-0.977-1.674-1.992-2.091-3.048
				c-0.469-1.106-0.761-2.252-0.879-3.438c-0.131-1.327-0.195-2.715-0.195-4.159V84.484h7.832v15.879
				c0,1.615,0.11,3.014,0.331,4.199c0.182,1.067,0.671,2.011,1.466,2.832c0.781,0.78,1.959,1.172,3.534,1.172
				c1.563,0,2.735-0.391,3.515-1.172c0.782-0.782,1.277-1.726,1.485-2.832c0.208-1.225,0.313-2.624,0.313-4.199L1294.517,84.484
				L1294.517,84.484z"/>
			<path fill="#3AB4FF" d="M1328.873,85.207v9.395c-0.769-1.042-1.771-1.868-3.008-2.48c-1.213-0.56-2.5-0.84-3.867-0.84
				c-1.575,0-2.962,0.371-4.16,1.114c-1.25,0.716-2.214,1.719-2.891,3.008c-0.663,1.237-0.995,2.649-0.995,4.238
				s0.344,3.002,1.034,4.238c0.703,1.289,1.667,2.266,2.891,2.93c1.276,0.69,2.688,1.035,4.239,1.035
				c1.302,0,2.538-0.281,3.711-0.842c1.211-0.611,2.227-1.398,3.047-2.364v9.395c-1.523,0.47-2.844,0.833-3.965,1.095
				c-0.977,0.207-1.96,0.313-2.949,0.313c-1.991,0-4.01-0.385-6.054-1.152c-0.637-0.248-1.254-0.534-1.845-0.86
				c-0.594-0.325-1.169-0.684-1.729-1.073c-0.56-0.391-1.126-0.841-1.699-1.348c-3.229-2.917-4.844-6.719-4.844-11.406
				c0-2.044,0.391-4.03,1.172-5.957c0.808-1.992,1.901-3.685,3.282-5.078c1.053-1.055,2.174-1.934,3.359-2.637
				c1.236-0.729,2.552-1.289,3.945-1.679c1.432-0.377,2.819-0.566,4.16-0.566C1324.036,83.683,1326.423,84.191,1328.873,85.207z"/>
			<path fill="#3AB4FF" d="M1341.547,96.125h11.328V84.484h7.832v30.156h-7.832v-12.363h-11.328v12.363h-7.831V84.484h7.831V96.125z
				"/>
		</g>
	</g>
</g>
<g>
	<g>
		<rect x="502.145" y="66" fill="#6E1F75" width="450" height="75"/>
		<rect x="498.645" y="62.5" fill="#F51484" width="450" height="75"/>
		<rect x="495.145" y="59" fill="#F9F9F9" width="450" height="75"/>
	</g>
	<g>
		<g>
			<path fill="#3AB4FF" d="M593.275,96.51h15.566c-0.039,1.875-0.131,3.366-0.273,4.473c-0.104,1.107-0.397,2.363-0.879,3.77
				c-0.469,1.315-1.114,2.539-1.934,3.672c-2.813,3.945-6.953,5.918-12.422,5.918c-3.073,0-5.859-0.664-8.359-1.99
				c-2.5-1.367-4.395-3.249-5.684-5.645c-1.367-2.436-2.051-5.197-2.051-8.281c0-2.318,0.39-4.531,1.172-6.641
				c0.768-2.005,1.887-3.724,3.359-5.156c1.432-1.406,3.164-2.5,5.195-3.281c2.005-0.768,4.219-1.152,6.641-1.152
				c2.044,0,3.951,0.306,5.723,0.918c1.719,0.625,3.248,1.57,4.59,2.832c1.367,1.328,2.461,2.891,3.281,4.688l-7.441,3.105
				c-0.509-1.458-1.348-2.63-2.52-3.516c-1.12-0.846-2.454-1.269-4.004-1.269c-1.64,0-3.053,0.449-4.239,1.347
				c-1.198,0.964-2.09,2.156-2.676,3.574c-0.613,1.484-0.918,3.015-0.918,4.59c0,1.589,0.305,3.111,0.918,4.569
				c0.637,1.459,1.555,2.632,2.754,3.516c1.223,0.898,2.656,1.348,4.297,1.348c1.12,0,2.142-0.195,3.066-0.586
				c0.938-0.417,1.687-1.003,2.246-1.758c0.547-0.729,0.879-1.692,0.996-2.891h-6.406L593.275,96.51L593.275,96.51z"/>
			<path fill="#3AB4FF" d="M629.603,89.83h-9.336v5.039h8.847v6.641h-8.847v5.196h9.336v6.64h-17.168V83.189h17.168V89.83z"/>
			<path fill="#3AB4FF" d="M646.419,89.83v23.516h-7.832V89.83h-6.484v-6.641h20.801v6.641H646.419z"/>
			<path fill="#3AB4FF" d="M677.298,83.189v30.156h-7.832V83.189H677.298z"/>
			<path fill="#3AB4FF" d="M682.435,113.346V83.189h7.832l14.375,18.438h0.078V83.189h7.832v30.156h-7.832l-14.356-18.477h-0.097
				v18.477H682.435L682.435,113.346z"/>
			<path fill="#3AB4FF" d="M743.373,89.83v23.516h-7.832V89.83h-6.484v-6.641h20.801v6.641H743.373z"/>
			<path fill="#3AB4FF" d="M767.865,82.193c2.198,0,4.297,0.371,6.287,1.114c2.032,0.781,3.816,1.862,5.352,3.242
				c1.511,1.354,2.741,3.008,3.693,4.961c0.898,1.836,1.346,3.9,1.346,6.191c0,2.409-0.397,4.623-1.191,6.641
				c-0.833,2.058-2.005,3.835-3.516,5.332c-0.808,0.808-1.641,1.491-2.5,2.053c-0.859,0.561-1.79,1.033-2.793,1.426
				c-2.019,0.795-4.245,1.192-6.679,1.192c-2.396,0-4.61-0.397-6.64-1.192c-2.058-0.807-3.828-1.967-5.313-3.476
				c-0.742-0.729-1.396-1.521-1.964-2.373s-1.084-1.841-1.553-2.959c-0.808-2.044-1.211-4.259-1.211-6.642
				c0-1.081,0.114-2.142,0.342-3.184c0.228-1.042,0.57-2.044,1.026-3.008c0.964-1.979,2.188-3.633,3.673-4.961
				c1.549-1.394,3.352-2.474,5.409-3.242C763.574,82.564,765.651,82.193,767.865,82.193z M767.865,89.791
				c-1.537,0-2.949,0.371-4.24,1.113c-1.354,0.781-2.396,1.758-3.125,2.93c-0.769,1.276-1.152,2.578-1.152,3.906
				c0,1.654,0.384,3.19,1.152,4.609c0.782,1.42,1.81,2.5,3.086,3.242c1.343,0.769,2.767,1.152,4.279,1.152
				c1.534,0,2.962-0.384,4.277-1.152c1.275-0.729,2.304-1.81,3.086-3.242c0.768-1.38,1.152-2.917,1.152-4.609
				c0-1.367-0.385-2.669-1.152-3.906c-0.742-1.185-1.784-2.161-3.125-2.93C770.827,90.162,769.414,89.791,767.865,89.791z"/>
			<path fill="#3AB4FF" d="M806.517,83.189h7.832v16.953c0,0.781-0.014,1.472-0.039,2.07c-0.026,0.6-0.078,1.283-0.157,2.051
				c-0.13,1.225-0.423,2.385-0.879,3.477c-0.403,1.055-1.094,2.072-2.07,3.049c-0.833,0.794-1.797,1.445-2.891,1.951
				c-1.094,0.495-2.239,0.846-3.438,1.055c-1.224,0.234-2.447,0.352-3.672,0.352c-1.888,0-3.743-0.268-5.566-0.801
				c-0.898-0.273-1.706-0.618-2.423-1.035c-0.717-0.416-1.386-0.925-2.011-1.523c-0.977-0.977-1.674-1.992-2.09-3.047
				c-0.47-1.106-0.762-2.253-0.88-3.438c-0.131-1.328-0.195-2.717-0.195-4.16V83.189h7.832v15.879c0,1.615,0.11,3.015,0.331,4.199
				c0.183,1.068,0.671,2.012,1.466,2.832c0.781,0.781,1.959,1.172,3.534,1.172c1.563,0,2.735-0.391,3.516-1.172
				c0.781-0.781,1.276-1.725,1.484-2.832c0.208-1.224,0.313-2.623,0.313-4.199V83.189H806.517z"/>
			<path fill="#3AB4FF" d="M840.873,83.912v9.395c-0.769-1.042-1.771-1.868-3.008-2.48c-1.213-0.56-2.5-0.84-3.867-0.84
				c-1.576,0-2.963,0.371-4.16,1.113c-1.25,0.716-2.214,1.719-2.891,3.008c-0.663,1.237-0.995,2.65-0.995,4.238
				c0,1.589,0.344,3.002,1.034,4.238c0.703,1.289,1.666,2.266,2.891,2.93c1.275,0.691,2.688,1.035,4.239,1.035
				c1.302,0,2.538-0.281,3.711-0.841c1.211-0.613,2.227-1.399,3.047-2.364v9.395c-1.523,0.469-2.845,0.833-3.965,1.094
				c-0.977,0.209-1.961,0.313-2.949,0.313c-1.99,0-4.01-0.385-6.053-1.152c-0.639-0.246-1.255-0.533-1.846-0.859
				c-0.594-0.324-1.169-0.684-1.729-1.074c-0.561-0.391-1.127-0.84-1.699-1.348c-3.229-2.916-4.844-6.719-4.844-11.405
				c0-2.044,0.391-4.03,1.172-5.957c0.807-1.992,1.901-3.685,3.281-5.078c1.054-1.055,2.175-1.934,3.359-2.637
				c1.237-0.729,2.553-1.289,3.945-1.679c1.433-0.377,2.82-0.567,4.16-0.567C836.035,82.389,838.424,82.896,840.873,83.912z"/>
			<path fill="#3AB4FF" d="M853.548,94.83h11.328V83.189h7.832v30.156h-7.832v-12.363h-11.328v12.363h-7.832V83.189h7.832V94.83z"/>
		</g>
		<g>
			<path fill="#F51484" d="M591.275,94.51h15.566c-0.039,1.875-0.131,3.366-0.273,4.473c-0.104,1.107-0.397,2.363-0.879,3.77
				c-0.469,1.315-1.114,2.539-1.934,3.672c-2.813,3.945-6.953,5.918-12.422,5.918c-3.073,0-5.859-0.664-8.359-1.99
				c-2.5-1.367-4.395-3.249-5.684-5.645c-1.367-2.436-2.051-5.196-2.051-8.281c0-2.318,0.39-4.531,1.172-6.641
				c0.768-2.005,1.887-3.724,3.359-5.156c1.432-1.406,3.164-2.5,5.195-3.281c2.005-0.768,4.219-1.152,6.641-1.152
				c2.044,0,3.951,0.306,5.723,0.918c1.719,0.625,3.248,1.57,4.59,2.832c1.367,1.328,2.461,2.891,3.281,4.688l-7.441,3.105
				c-0.509-1.458-1.348-2.63-2.52-3.516c-1.12-0.846-2.454-1.269-4.004-1.269c-1.64,0-3.053,0.449-4.239,1.347
				c-1.198,0.964-2.09,2.156-2.676,3.574c-0.613,1.484-0.918,3.015-0.918,4.59c0,1.589,0.305,3.112,0.918,4.569
				c0.637,1.459,1.555,2.632,2.754,3.516c1.223,0.898,2.656,1.348,4.297,1.348c1.12,0,2.142-0.195,3.066-0.586
				c0.938-0.417,1.687-1.003,2.246-1.758c0.547-0.729,0.879-1.692,0.996-2.891h-6.406L591.275,94.51L591.275,94.51z"/>
			<path fill="#F51484" d="M627.603,87.83h-9.336v5.039h8.847v6.641h-8.847v5.195h9.336v6.641h-17.168V81.189h17.168V87.83z"/>
			<path fill="#F51484" d="M644.419,87.83v23.516h-7.832V87.83h-6.484v-6.641h20.801v6.641H644.419z"/>
			<path fill="#F51484" d="M675.298,81.189v30.156h-7.832V81.189H675.298z"/>
			<path fill="#F51484" d="M680.435,111.346V81.189h7.832l14.375,18.438h0.078V81.189h7.832v30.156h-7.832l-14.356-18.477h-0.097
				v18.477H680.435L680.435,111.346z"/>
			<path fill="#F51484" d="M741.373,87.83v23.516h-7.832V87.83h-6.484v-6.641h20.801v6.641H741.373z"/>
			<path fill="#F51484" d="M765.865,80.193c2.198,0,4.297,0.371,6.287,1.114c2.032,0.781,3.816,1.862,5.352,3.242
				c1.511,1.354,2.741,3.008,3.693,4.961c0.898,1.836,1.346,3.9,1.346,6.191c0,2.409-0.397,4.623-1.191,6.641
				c-0.833,2.058-2.005,3.835-3.516,5.332c-0.808,0.808-1.641,1.491-2.5,2.053c-0.859,0.561-1.79,1.033-2.793,1.426
				c-2.019,0.795-4.245,1.192-6.679,1.192c-2.396,0-4.61-0.397-6.64-1.192c-2.058-0.807-3.828-1.967-5.313-3.476
				c-0.742-0.729-1.396-1.521-1.964-2.373s-1.084-1.841-1.553-2.959c-0.808-2.044-1.211-4.259-1.211-6.642
				c0-1.081,0.114-2.142,0.342-3.184c0.228-1.042,0.57-2.044,1.026-3.008c0.964-1.979,2.188-3.633,3.673-4.961
				c1.549-1.394,3.352-2.474,5.409-3.242C761.574,80.564,763.651,80.193,765.865,80.193z M765.865,87.791
				c-1.537,0-2.949,0.371-4.24,1.113c-1.354,0.781-2.396,1.758-3.125,2.93c-0.769,1.276-1.152,2.578-1.152,3.906
				c0,1.654,0.384,3.19,1.152,4.609c0.782,1.42,1.81,2.5,3.086,3.242c1.343,0.769,2.767,1.152,4.279,1.152
				c1.534,0,2.962-0.384,4.277-1.152c1.275-0.729,2.304-1.81,3.086-3.242c0.768-1.38,1.152-2.917,1.152-4.609
				c0-1.367-0.385-2.669-1.152-3.906c-0.742-1.185-1.784-2.161-3.125-2.93C768.827,88.162,767.414,87.791,765.865,87.791z"/>
			<path fill="#F51484" d="M804.517,81.189h7.832v16.953c0,0.781-0.014,1.472-0.039,2.07c-0.026,0.6-0.078,1.283-0.157,2.051
				c-0.13,1.225-0.423,2.385-0.879,3.477c-0.403,1.055-1.094,2.072-2.07,3.049c-0.833,0.794-1.797,1.445-2.891,1.951
				c-1.094,0.495-2.239,0.846-3.438,1.055c-1.224,0.234-2.447,0.352-3.672,0.352c-1.888,0-3.743-0.268-5.566-0.801
				c-0.898-0.273-1.706-0.618-2.423-1.035c-0.717-0.416-1.386-0.925-2.011-1.523c-0.977-0.977-1.674-1.992-2.09-3.047
				c-0.47-1.106-0.762-2.253-0.88-3.438c-0.131-1.328-0.195-2.716-0.195-4.16V81.189h7.832v15.879c0,1.615,0.11,3.015,0.331,4.199
				c0.183,1.068,0.671,2.012,1.466,2.832c0.781,0.781,1.959,1.172,3.534,1.172c1.563,0,2.735-0.391,3.516-1.172
				c0.781-0.781,1.276-1.725,1.484-2.832c0.208-1.224,0.313-2.624,0.313-4.199V81.189H804.517z"/>
			<path fill="#F51484" d="M838.873,81.912v9.395c-0.769-1.042-1.771-1.868-3.008-2.48c-1.213-0.56-2.5-0.84-3.867-0.84
				c-1.576,0-2.963,0.371-4.16,1.113c-1.25,0.716-2.214,1.719-2.891,3.008c-0.663,1.237-0.995,2.65-0.995,4.238
				c0,1.589,0.344,3.002,1.034,4.238c0.703,1.289,1.666,2.266,2.891,2.93c1.275,0.691,2.688,1.035,4.239,1.035
				c1.302,0,2.538-0.281,3.711-0.841c1.211-0.613,2.227-1.399,3.047-2.364v9.395c-1.523,0.469-2.845,0.833-3.965,1.094
				c-0.977,0.209-1.961,0.313-2.949,0.313c-1.99,0-4.01-0.385-6.053-1.152c-0.639-0.246-1.255-0.533-1.846-0.859
				c-0.594-0.324-1.169-0.684-1.729-1.074c-0.561-0.391-1.127-0.84-1.699-1.348c-3.229-2.916-4.844-6.719-4.844-11.405
				c0-2.044,0.391-4.03,1.172-5.957c0.807-1.992,1.901-3.685,3.281-5.078c1.054-1.055,2.175-1.934,3.359-2.637
				c1.237-0.729,2.553-1.289,3.945-1.679c1.433-0.377,2.82-0.567,4.16-0.567C834.035,80.389,836.424,80.896,838.873,81.912z"/>
			<path fill="#F51484" d="M851.548,92.83h11.328V81.189h7.832v30.156h-7.832V98.982h-11.328v12.363h-7.832V81.189h7.832V92.83z"/>
		</g>
	</g>
</g>
</svg>
