<?xml version="1.0" encoding="utf-8"?>
<!-- Generator: Adobe Illustrator 16.0.0, SVG Export Plug-In . SVG Version: 6.00 Build 0)  -->
<!DOCTYPE svg PUBLIC "-//W3C//DTD SVG 1.1//EN" "http://www.w3.org/Graphics/SVG/1.1/DTD/svg11.dtd">
<svg version="1.1" id="Layer_1" xmlns="http://www.w3.org/2000/svg" xmlns:xlink="http://www.w3.org/1999/xlink" x="0px" y="0px"
	 width="2000px" height="200px" viewBox="0 0 2000 200" enable-background="new 0 0 2000 200" xml:space="preserve">
<g>
	<g>
		<rect x="57" y="25" fill="#F9F9F9" width="900" height="150"/>
		<rect x="50" y="18" fill="#F51484" width="900" height="150"/>
		<rect x="43" y="11" fill="#6E1F75" width="900" height="150"/>
	</g>
	<g>
		<g>
			<path fill="#F51484" d="M239.26,85.608h31.133c-0.078,3.75-0.261,6.732-0.547,8.945c-0.209,2.214-0.795,4.727-1.758,7.539
				c-0.938,2.631-2.227,5.078-3.867,7.344c-5.625,7.891-13.906,11.836-24.844,11.836c-6.146,0-11.719-1.328-16.719-3.984
				c-5-2.734-8.789-6.497-11.367-11.289c-2.734-4.869-4.102-10.391-4.102-16.562c0-4.635,0.781-9.062,2.344-13.281
				c1.536-4.01,3.775-7.447,6.719-10.312c2.864-2.812,6.328-5,10.391-6.562c4.01-1.536,8.438-2.305,13.281-2.305
				c4.088,0,7.903,0.612,11.445,1.836c3.438,1.25,6.497,3.139,9.18,5.664c2.734,2.656,4.922,5.781,6.562,9.375l-14.883,6.211
				c-1.016-2.916-2.695-5.26-5.039-7.031c-2.24-1.692-4.909-2.539-8.008-2.539c-3.281,0-6.107,0.898-8.477,2.695
				c-2.396,1.928-4.18,4.311-5.352,7.148c-1.225,2.969-1.836,6.029-1.836,9.18c0,3.178,0.611,6.225,1.836,9.141
				c1.275,2.917,3.111,5.261,5.508,7.031c2.447,1.797,5.312,2.695,8.594,2.695c2.239,0,4.283-0.391,6.133-1.172
				c1.875-0.833,3.372-2.005,4.492-3.516c1.094-1.458,1.758-3.385,1.992-5.781H239.26V85.608z"/>
			<path fill="#F51484" d="M311.916,72.249h-18.672v10.078h17.695v13.281h-17.695v10.391h18.672v13.281H277.58V58.968h34.336V72.249
				z"/>
			<path fill="#F51484" d="M345.549,72.249v47.031h-15.664V72.249h-12.969V58.968h41.602v13.281H345.549z"/>
			<path fill="#F51484" d="M407.307,58.968v60.312h-15.664V58.968H407.307z"/>
			<path fill="#F51484" d="M417.58,119.28V58.968h15.664l28.75,36.875h0.156V58.968h15.664v60.312H462.15l-28.711-36.953h-0.195
				v36.953H417.58z"/>
			<path fill="#F51484" d="M539.455,72.249v47.031h-15.664V72.249h-12.969V58.968h41.602v13.281H539.455z"/>
			<path fill="#F51484" d="M588.439,56.976c4.4,0,8.594,0.742,12.578,2.227c4.062,1.562,7.63,3.725,10.703,6.484
				c3.021,2.709,5.481,6.016,7.383,9.922c1.797,3.672,2.695,7.8,2.695,12.383c0,4.818-0.795,9.245-2.383,13.281
				c-1.667,4.115-4.011,7.67-7.031,10.664c-1.615,1.615-3.281,2.982-5,4.102c-1.719,1.12-3.581,2.07-5.586,2.852
				c-4.037,1.588-8.49,2.383-13.359,2.383c-4.792,0-9.219-0.795-13.281-2.383c-4.115-1.614-7.656-3.932-10.625-6.953
				c-1.484-1.458-2.793-3.04-3.926-4.746c-1.133-1.705-2.168-3.678-3.105-5.918c-1.615-4.088-2.422-8.516-2.422-13.281
				c0-2.161,0.228-4.283,0.684-6.367c0.455-2.083,1.139-4.088,2.051-6.016c1.927-3.958,4.375-7.266,7.344-9.922
				c3.099-2.786,6.705-4.947,10.82-6.484C579.858,57.718,584.012,56.976,588.439,56.976z M588.439,72.171
				c-3.073,0-5.898,0.742-8.477,2.227c-2.709,1.562-4.792,3.516-6.25,5.859c-1.537,2.553-2.305,5.156-2.305,7.812
				c0,3.308,0.768,6.381,2.305,9.219c1.562,2.839,3.619,5,6.172,6.484c2.682,1.537,5.533,2.305,8.555,2.305
				c3.072,0,5.924-0.768,8.555-2.305c2.552-1.458,4.609-3.619,6.172-6.484c1.536-2.76,2.305-5.833,2.305-9.219
				c0-2.734-0.769-5.338-2.305-7.812c-1.484-2.369-3.568-4.322-6.25-5.859C594.363,72.913,591.538,72.171,588.439,72.171z"/>
			<path fill="#F51484" d="M665.744,58.968h15.664v33.906c0,1.562-0.026,2.943-0.078,4.141c-0.053,1.198-0.156,2.565-0.312,4.102
				c-0.261,2.448-0.847,4.766-1.758,6.953c-0.808,2.109-2.188,4.141-4.141,6.094c-1.667,1.589-3.594,2.891-5.781,3.906
				c-2.188,0.99-4.479,1.692-6.875,2.109c-2.448,0.469-4.896,0.703-7.344,0.703c-3.776,0-7.487-0.534-11.133-1.602
				c-1.797-0.547-3.412-1.236-4.844-2.07c-1.433-0.833-2.773-1.849-4.023-3.047c-1.953-1.953-3.347-3.984-4.18-6.094
				c-0.938-2.213-1.523-4.505-1.758-6.875c-0.261-2.656-0.391-5.43-0.391-8.32V58.968h15.664v31.758
				c0,3.229,0.221,6.029,0.664,8.398c0.364,2.136,1.341,4.023,2.93,5.664c1.562,1.562,3.919,2.344,7.07,2.344
				c3.125,0,5.469-0.781,7.031-2.344s2.552-3.45,2.969-5.664c0.416-2.447,0.625-5.247,0.625-8.398V58.968z"/>
			<path fill="#F51484" d="M734.455,60.413v18.789c-1.537-2.083-3.542-3.736-6.016-4.961c-2.422-1.119-5-1.68-7.734-1.68
				c-3.151,0-5.925,0.742-8.32,2.227c-2.5,1.433-4.428,3.438-5.781,6.016c-1.328,2.475-1.992,5.3-1.992,8.477
				c0,3.178,0.689,6.003,2.07,8.477c1.406,2.578,3.333,4.531,5.781,5.859c2.552,1.381,5.377,2.07,8.477,2.07
				c2.604,0,5.078-0.56,7.422-1.68c2.422-1.224,4.453-2.799,6.094-4.727v18.789c-3.047,0.938-5.69,1.666-7.93,2.188
				c-1.953,0.416-3.92,0.625-5.898,0.625c-3.984,0-8.021-0.769-12.109-2.305c-1.276-0.494-2.507-1.067-3.691-1.719
				c-1.186-0.65-2.338-1.367-3.457-2.148c-1.12-0.781-2.253-1.68-3.398-2.695c-6.459-5.833-9.688-13.438-9.688-22.812
				c0-4.088,0.781-8.06,2.344-11.914c1.614-3.984,3.802-7.369,6.562-10.156c2.109-2.109,4.349-3.867,6.719-5.273
				c2.474-1.458,5.104-2.578,7.891-3.359c2.864-0.755,5.638-1.133,8.32-1.133C724.78,57.366,729.559,58.382,734.455,60.413z"/>
			<path fill="#F51484" d="M759.807,82.249h22.656V58.968h15.664v60.312h-15.664V94.554h-22.656v24.727h-15.664V58.968h15.664
				V82.249z"/>
		</g>
		<g>
			<path fill="#3AB4FF" d="M235.26,81.608h31.133c-0.078,3.75-0.261,6.732-0.547,8.945c-0.209,2.214-0.795,4.727-1.758,7.539
				c-0.938,2.631-2.227,5.078-3.867,7.344c-5.625,7.891-13.906,11.836-24.844,11.836c-6.146,0-11.719-1.328-16.719-3.984
				c-5-2.734-8.789-6.497-11.367-11.289c-2.734-4.869-4.102-10.391-4.102-16.562c0-4.635,0.781-9.062,2.344-13.281
				c1.536-4.01,3.775-7.447,6.719-10.312c2.864-2.812,6.328-5,10.391-6.562c4.01-1.536,8.438-2.305,13.281-2.305
				c4.088,0,7.903,0.612,11.445,1.836c3.438,1.25,6.497,3.139,9.18,5.664c2.734,2.656,4.922,5.781,6.562,9.375l-14.883,6.211
				c-1.016-2.916-2.695-5.26-5.039-7.031c-2.24-1.692-4.909-2.539-8.008-2.539c-3.281,0-6.107,0.898-8.477,2.695
				c-2.396,1.928-4.18,4.311-5.352,7.148c-1.225,2.969-1.836,6.029-1.836,9.18c0,3.178,0.611,6.225,1.836,9.141
				c1.275,2.917,3.111,5.261,5.508,7.031c2.447,1.797,5.312,2.695,8.594,2.695c2.239,0,4.283-0.391,6.133-1.172
				c1.875-0.833,3.372-2.005,4.492-3.516c1.094-1.458,1.758-3.385,1.992-5.781H235.26V81.608z"/>
			<path fill="#3AB4FF" d="M307.916,68.249h-18.672v10.078h17.695v13.281h-17.695v10.391h18.672v13.281H273.58V54.968h34.336V68.249
				z"/>
			<path fill="#3AB4FF" d="M341.549,68.249v47.031h-15.664V68.249h-12.969V54.968h41.602v13.281H341.549z"/>
			<path fill="#3AB4FF" d="M403.307,54.968v60.312h-15.664V54.968H403.307z"/>
			<path fill="#3AB4FF" d="M413.58,115.28V54.968h15.664l28.75,36.875h0.156V54.968h15.664v60.312H458.15l-28.711-36.953h-0.195
				v36.953H413.58z"/>
			<path fill="#3AB4FF" d="M535.455,68.249v47.031h-15.664V68.249h-12.969V54.968h41.602v13.281H535.455z"/>
			<path fill="#3AB4FF" d="M584.439,52.976c4.4,0,8.594,0.742,12.578,2.227c4.062,1.562,7.63,3.725,10.703,6.484
				c3.021,2.709,5.481,6.016,7.383,9.922c1.797,3.672,2.695,7.8,2.695,12.383c0,4.818-0.795,9.245-2.383,13.281
				c-1.667,4.115-4.011,7.67-7.031,10.664c-1.615,1.615-3.281,2.982-5,4.102c-1.719,1.12-3.581,2.07-5.586,2.852
				c-4.037,1.588-8.49,2.383-13.359,2.383c-4.792,0-9.219-0.795-13.281-2.383c-4.115-1.614-7.656-3.932-10.625-6.953
				c-1.484-1.458-2.793-3.04-3.926-4.746c-1.133-1.705-2.168-3.678-3.105-5.918c-1.615-4.088-2.422-8.516-2.422-13.281
				c0-2.161,0.228-4.283,0.684-6.367c0.455-2.083,1.139-4.088,2.051-6.016c1.927-3.958,4.375-7.266,7.344-9.922
				c3.099-2.786,6.705-4.947,10.82-6.484C575.858,53.718,580.012,52.976,584.439,52.976z M584.439,68.171
				c-3.073,0-5.898,0.742-8.477,2.227c-2.709,1.562-4.792,3.516-6.25,5.859c-1.537,2.553-2.305,5.156-2.305,7.812
				c0,3.308,0.768,6.381,2.305,9.219c1.562,2.839,3.619,5,6.172,6.484c2.682,1.537,5.533,2.305,8.555,2.305
				c3.072,0,5.924-0.768,8.555-2.305c2.552-1.458,4.609-3.619,6.172-6.484c1.536-2.76,2.305-5.833,2.305-9.219
				c0-2.734-0.769-5.338-2.305-7.812c-1.484-2.369-3.568-4.322-6.25-5.859C590.363,68.913,587.538,68.171,584.439,68.171z"/>
			<path fill="#3AB4FF" d="M661.744,54.968h15.664v33.906c0,1.562-0.026,2.943-0.078,4.141c-0.053,1.198-0.156,2.565-0.312,4.102
				c-0.261,2.448-0.847,4.766-1.758,6.953c-0.808,2.109-2.188,4.141-4.141,6.094c-1.667,1.589-3.594,2.891-5.781,3.906
				c-2.188,0.99-4.479,1.692-6.875,2.109c-2.448,0.469-4.896,0.703-7.344,0.703c-3.776,0-7.487-0.534-11.133-1.602
				c-1.797-0.547-3.412-1.236-4.844-2.07c-1.433-0.833-2.773-1.849-4.023-3.047c-1.953-1.953-3.347-3.984-4.18-6.094
				c-0.938-2.213-1.523-4.505-1.758-6.875c-0.261-2.656-0.391-5.43-0.391-8.32V54.968h15.664v31.758
				c0,3.229,0.221,6.029,0.664,8.398c0.364,2.136,1.341,4.023,2.93,5.664c1.562,1.562,3.919,2.344,7.07,2.344
				c3.125,0,5.469-0.781,7.031-2.344s2.552-3.45,2.969-5.664c0.416-2.447,0.625-5.247,0.625-8.398V54.968z"/>
			<path fill="#3AB4FF" d="M730.455,56.413v18.789c-1.537-2.083-3.542-3.736-6.016-4.961c-2.422-1.119-5-1.68-7.734-1.68
				c-3.151,0-5.925,0.742-8.32,2.227c-2.5,1.433-4.428,3.438-5.781,6.016c-1.328,2.475-1.992,5.3-1.992,8.477
				c0,3.178,0.689,6.003,2.07,8.477c1.406,2.578,3.333,4.531,5.781,5.859c2.552,1.381,5.377,2.07,8.477,2.07
				c2.604,0,5.078-0.56,7.422-1.68c2.422-1.224,4.453-2.799,6.094-4.727v18.789c-3.047,0.938-5.69,1.666-7.93,2.188
				c-1.953,0.416-3.92,0.625-5.898,0.625c-3.984,0-8.021-0.769-12.109-2.305c-1.276-0.494-2.507-1.067-3.691-1.719
				c-1.186-0.65-2.338-1.367-3.457-2.148c-1.12-0.781-2.253-1.68-3.398-2.695c-6.459-5.833-9.688-13.438-9.688-22.812
				c0-4.088,0.781-8.06,2.344-11.914c1.614-3.984,3.802-7.369,6.562-10.156c2.109-2.109,4.349-3.867,6.719-5.273
				c2.474-1.458,5.104-2.578,7.891-3.359c2.864-0.755,5.638-1.133,8.32-1.133C720.78,53.366,725.559,54.382,730.455,56.413z"/>
			<path fill="#3AB4FF" d="M755.807,78.249h22.656V54.968h15.664v60.312h-15.664V90.554h-22.656v24.727h-15.664V54.968h15.664
				V78.249z"/>
		</g>
	</g>
	<g>
		<rect x="57" y="39" fill="#F9F9F9" width="900" height="150"/>
		<rect x="50" y="32" fill="#F51484" width="900" height="150"/>
		<rect x="43" y="25" fill="#6E1F75" width="900" height="150"/>
	</g>
	<g>
		<g>
			<path fill="#F51484" d="M239.26,99.608h31.133c-0.078,3.75-0.261,6.732-0.547,8.945c-0.209,2.214-0.795,4.727-1.758,7.539
				c-0.938,2.631-2.227,5.078-3.867,7.344c-5.625,7.891-13.906,11.836-24.844,11.836c-6.146,0-11.719-1.328-16.719-3.984
				c-5-2.734-8.789-6.497-11.367-11.289c-2.734-4.869-4.102-10.391-4.102-16.562c0-4.635,0.781-9.062,2.344-13.281
				c1.536-4.01,3.775-7.447,6.719-10.312c2.864-2.812,6.328-5,10.391-6.562c4.01-1.536,8.438-2.305,13.281-2.305
				c4.088,0,7.903,0.612,11.445,1.836c3.438,1.25,6.497,3.139,9.18,5.664c2.734,2.656,4.922,5.781,6.562,9.375l-14.883,6.211
				c-1.016-2.916-2.695-5.26-5.039-7.031c-2.24-1.692-4.909-2.539-8.008-2.539c-3.281,0-6.107,0.898-8.477,2.695
				c-2.396,1.928-4.18,4.311-5.352,7.148c-1.225,2.969-1.836,6.029-1.836,9.18c0,3.178,0.611,6.225,1.836,9.141
				c1.275,2.917,3.111,5.261,5.508,7.031c2.447,1.797,5.312,2.695,8.594,2.695c2.239,0,4.283-0.391,6.133-1.172
				c1.875-0.833,3.372-2.005,4.492-3.516c1.094-1.458,1.758-3.385,1.992-5.781H239.26V99.608z"/>
			<path fill="#F51484" d="M311.916,86.249h-18.672v10.078h17.695v13.281h-17.695v10.391h18.672v13.281H277.58V72.968h34.336V86.249
				z"/>
			<path fill="#F51484" d="M345.549,86.249v47.031h-15.664V86.249h-12.969V72.968h41.602v13.281H345.549z"/>
			<path fill="#F51484" d="M407.307,72.968v60.312h-15.664V72.968H407.307z"/>
			<path fill="#F51484" d="M417.58,133.28V72.968h15.664l28.75,36.875h0.156V72.968h15.664v60.312H462.15l-28.711-36.953h-0.195
				v36.953H417.58z"/>
			<path fill="#F51484" d="M539.455,86.249v47.031h-15.664V86.249h-12.969V72.968h41.602v13.281H539.455z"/>
			<path fill="#F51484" d="M588.439,70.976c4.4,0,8.594,0.742,12.578,2.227c4.062,1.562,7.63,3.725,10.703,6.484
				c3.021,2.709,5.481,6.016,7.383,9.922c1.797,3.672,2.695,7.8,2.695,12.383c0,4.818-0.795,9.245-2.383,13.281
				c-1.667,4.115-4.011,7.67-7.031,10.664c-1.615,1.615-3.281,2.982-5,4.102c-1.719,1.12-3.581,2.07-5.586,2.852
				c-4.037,1.588-8.49,2.383-13.359,2.383c-4.792,0-9.219-0.795-13.281-2.383c-4.115-1.614-7.656-3.932-10.625-6.953
				c-1.484-1.458-2.793-3.04-3.926-4.746c-1.133-1.705-2.168-3.678-3.105-5.918c-1.615-4.088-2.422-8.516-2.422-13.281
				c0-2.161,0.228-4.283,0.684-6.367c0.455-2.083,1.139-4.088,2.051-6.016c1.927-3.958,4.375-7.266,7.344-9.922
				c3.099-2.786,6.705-4.947,10.82-6.484C579.858,71.718,584.012,70.976,588.439,70.976z M588.439,86.171
				c-3.073,0-5.898,0.742-8.477,2.227c-2.709,1.562-4.792,3.516-6.25,5.859c-1.537,2.553-2.305,5.156-2.305,7.812
				c0,3.308,0.768,6.381,2.305,9.219c1.562,2.839,3.619,5,6.172,6.484c2.682,1.537,5.533,2.305,8.555,2.305
				c3.072,0,5.924-0.768,8.555-2.305c2.552-1.458,4.609-3.619,6.172-6.484c1.536-2.76,2.305-5.833,2.305-9.219
				c0-2.734-0.769-5.338-2.305-7.812c-1.484-2.369-3.568-4.322-6.25-5.859C594.363,86.913,591.538,86.171,588.439,86.171z"/>
			<path fill="#F51484" d="M665.744,72.968h15.664v33.906c0,1.562-0.026,2.943-0.078,4.141c-0.053,1.198-0.156,2.565-0.312,4.102
				c-0.261,2.448-0.847,4.766-1.758,6.953c-0.808,2.109-2.188,4.141-4.141,6.094c-1.667,1.589-3.594,2.891-5.781,3.906
				c-2.188,0.99-4.479,1.692-6.875,2.109c-2.448,0.469-4.896,0.703-7.344,0.703c-3.776,0-7.487-0.534-11.133-1.602
				c-1.797-0.547-3.412-1.236-4.844-2.07c-1.433-0.833-2.773-1.849-4.023-3.047c-1.953-1.953-3.347-3.984-4.18-6.094
				c-0.938-2.213-1.523-4.505-1.758-6.875c-0.261-2.656-0.391-5.43-0.391-8.32V72.968h15.664v31.758
				c0,3.229,0.221,6.029,0.664,8.398c0.364,2.136,1.341,4.023,2.93,5.664c1.562,1.562,3.919,2.344,7.07,2.344
				c3.125,0,5.469-0.781,7.031-2.344s2.552-3.45,2.969-5.664c0.416-2.447,0.625-5.247,0.625-8.398V72.968z"/>
			<path fill="#F51484" d="M734.455,74.413v18.789c-1.537-2.083-3.542-3.736-6.016-4.961c-2.422-1.119-5-1.68-7.734-1.68
				c-3.151,0-5.925,0.742-8.32,2.227c-2.5,1.433-4.428,3.438-5.781,6.016c-1.328,2.475-1.992,5.3-1.992,8.477
				c0,3.178,0.689,6.003,2.07,8.477c1.406,2.578,3.333,4.531,5.781,5.859c2.552,1.381,5.377,2.07,8.477,2.07
				c2.604,0,5.078-0.56,7.422-1.68c2.422-1.224,4.453-2.799,6.094-4.727v18.789c-3.047,0.938-5.69,1.666-7.93,2.188
				c-1.953,0.416-3.92,0.625-5.898,0.625c-3.984,0-8.021-0.769-12.109-2.305c-1.276-0.494-2.507-1.067-3.691-1.719
				c-1.186-0.65-2.338-1.367-3.457-2.148c-1.12-0.781-2.253-1.68-3.398-2.695c-6.459-5.833-9.688-13.438-9.688-22.812
				c0-4.088,0.781-8.06,2.344-11.914c1.614-3.984,3.802-7.369,6.562-10.156c2.109-2.109,4.349-3.867,6.719-5.273
				c2.474-1.458,5.104-2.578,7.891-3.359c2.864-0.755,5.638-1.133,8.32-1.133C724.78,71.366,729.559,72.382,734.455,74.413z"/>
			<path fill="#F51484" d="M759.807,96.249h22.656V72.968h15.664v60.312h-15.664v-24.727h-22.656v24.727h-15.664V72.968h15.664
				V96.249z"/>
		</g>
		<g>
			<path fill="#3AB4FF" d="M235.26,95.608h31.133c-0.078,3.75-0.261,6.732-0.547,8.945c-0.209,2.214-0.795,4.727-1.758,7.539
				c-0.938,2.631-2.227,5.078-3.867,7.344c-5.625,7.891-13.906,11.836-24.844,11.836c-6.146,0-11.719-1.328-16.719-3.984
				c-5-2.734-8.789-6.497-11.367-11.289c-2.734-4.869-4.102-10.391-4.102-16.562c0-4.635,0.781-9.062,2.344-13.281
				c1.536-4.01,3.775-7.447,6.719-10.312c2.864-2.812,6.328-5,10.391-6.562c4.01-1.536,8.438-2.305,13.281-2.305
				c4.088,0,7.903,0.612,11.445,1.836c3.438,1.25,6.497,3.139,9.18,5.664c2.734,2.656,4.922,5.781,6.562,9.375l-14.883,6.211
				c-1.016-2.916-2.695-5.26-5.039-7.031c-2.24-1.692-4.909-2.539-8.008-2.539c-3.281,0-6.107,0.898-8.477,2.695
				c-2.396,1.928-4.18,4.311-5.352,7.148c-1.225,2.969-1.836,6.029-1.836,9.18c0,3.178,0.611,6.225,1.836,9.141
				c1.275,2.917,3.111,5.261,5.508,7.031c2.447,1.797,5.312,2.695,8.594,2.695c2.239,0,4.283-0.391,6.133-1.172
				c1.875-0.833,3.372-2.005,4.492-3.516c1.094-1.458,1.758-3.385,1.992-5.781H235.26V95.608z"/>
			<path fill="#3AB4FF" d="M307.916,82.249h-18.672v10.078h17.695v13.281h-17.695v10.391h18.672v13.281H273.58V68.968h34.336V82.249
				z"/>
			<path fill="#3AB4FF" d="M341.549,82.249v47.031h-15.664V82.249h-12.969V68.968h41.602v13.281H341.549z"/>
			<path fill="#3AB4FF" d="M403.307,68.968v60.312h-15.664V68.968H403.307z"/>
			<path fill="#3AB4FF" d="M413.58,129.28V68.968h15.664l28.75,36.875h0.156V68.968h15.664v60.312H458.15l-28.711-36.953h-0.195
				v36.953H413.58z"/>
			<path fill="#3AB4FF" d="M535.455,82.249v47.031h-15.664V82.249h-12.969V68.968h41.602v13.281H535.455z"/>
			<path fill="#3AB4FF" d="M584.439,66.976c4.4,0,8.594,0.742,12.578,2.227c4.062,1.562,7.63,3.725,10.703,6.484
				c3.021,2.709,5.481,6.016,7.383,9.922c1.797,3.672,2.695,7.8,2.695,12.383c0,4.818-0.795,9.245-2.383,13.281
				c-1.667,4.115-4.011,7.67-7.031,10.664c-1.615,1.615-3.281,2.982-5,4.102c-1.719,1.12-3.581,2.07-5.586,2.852
				c-4.037,1.588-8.49,2.383-13.359,2.383c-4.792,0-9.219-0.795-13.281-2.383c-4.115-1.614-7.656-3.932-10.625-6.953
				c-1.484-1.458-2.793-3.04-3.926-4.746c-1.133-1.705-2.168-3.678-3.105-5.918c-1.615-4.088-2.422-8.516-2.422-13.281
				c0-2.161,0.228-4.283,0.684-6.367c0.455-2.083,1.139-4.088,2.051-6.016c1.927-3.958,4.375-7.266,7.344-9.922
				c3.099-2.786,6.705-4.947,10.82-6.484C575.858,67.718,580.012,66.976,584.439,66.976z M584.439,82.171
				c-3.073,0-5.898,0.742-8.477,2.227c-2.709,1.562-4.792,3.516-6.25,5.859c-1.537,2.553-2.305,5.156-2.305,7.812
				c0,3.308,0.768,6.381,2.305,9.219c1.562,2.839,3.619,5,6.172,6.484c2.682,1.537,5.533,2.305,8.555,2.305
				c3.072,0,5.924-0.768,8.555-2.305c2.552-1.458,4.609-3.619,6.172-6.484c1.536-2.76,2.305-5.833,2.305-9.219
				c0-2.734-0.769-5.338-2.305-7.812c-1.484-2.369-3.568-4.322-6.25-5.859C590.363,82.913,587.538,82.171,584.439,82.171z"/>
			<path fill="#3AB4FF" d="M661.744,68.968h15.664v33.906c0,1.562-0.026,2.943-0.078,4.141c-0.053,1.198-0.156,2.565-0.312,4.102
				c-0.261,2.448-0.847,4.766-1.758,6.953c-0.808,2.109-2.188,4.141-4.141,6.094c-1.667,1.589-3.594,2.891-5.781,3.906
				c-2.188,0.99-4.479,1.692-6.875,2.109c-2.448,0.469-4.896,0.703-7.344,0.703c-3.776,0-7.487-0.534-11.133-1.602
				c-1.797-0.547-3.412-1.236-4.844-2.07c-1.433-0.833-2.773-1.849-4.023-3.047c-1.953-1.953-3.347-3.984-4.18-6.094
				c-0.938-2.213-1.523-4.505-1.758-6.875c-0.261-2.656-0.391-5.43-0.391-8.32V68.968h15.664v31.758
				c0,3.229,0.221,6.029,0.664,8.398c0.364,2.136,1.341,4.023,2.93,5.664c1.562,1.562,3.919,2.344,7.07,2.344
				c3.125,0,5.469-0.781,7.031-2.344s2.552-3.45,2.969-5.664c0.416-2.447,0.625-5.247,0.625-8.398V68.968z"/>
			<path fill="#3AB4FF" d="M730.455,70.413v18.789c-1.537-2.083-3.542-3.736-6.016-4.961c-2.422-1.119-5-1.68-7.734-1.68
				c-3.151,0-5.925,0.742-8.32,2.227c-2.5,1.433-4.428,3.438-5.781,6.016c-1.328,2.475-1.992,5.3-1.992,8.477
				c0,3.178,0.689,6.003,2.07,8.477c1.406,2.578,3.333,4.531,5.781,5.859c2.552,1.381,5.377,2.07,8.477,2.07
				c2.604,0,5.078-0.56,7.422-1.68c2.422-1.224,4.453-2.799,6.094-4.727v18.789c-3.047,0.938-5.69,1.666-7.93,2.188
				c-1.953,0.416-3.92,0.625-5.898,0.625c-3.984,0-8.021-0.769-12.109-2.305c-1.276-0.494-2.507-1.067-3.691-1.719
				c-1.186-0.65-2.338-1.367-3.457-2.148c-1.12-0.781-2.253-1.68-3.398-2.695c-6.459-5.833-9.688-13.438-9.688-22.812
				c0-4.088,0.781-8.06,2.344-11.914c1.614-3.984,3.802-7.369,6.562-10.156c2.109-2.109,4.349-3.867,6.719-5.273
				c2.474-1.458,5.104-2.578,7.891-3.359c2.864-0.755,5.638-1.133,8.32-1.133C720.78,67.366,725.559,68.382,730.455,70.413z"/>
			<path fill="#3AB4FF" d="M755.807,92.249h22.656V68.968h15.664v60.312h-15.664v-24.727h-22.656v24.727h-15.664V68.968h15.664
				V92.249z"/>
		</g>
	</g>
</g>
<g>
	<g>
		<rect x="1057" y="32" fill="#6E1F75" width="900" height="150"/>
		<rect x="1050" y="25" fill="#F51484" width="900" height="150"/>
		<rect x="1043" y="18" fill="#F9F9F9" width="900" height="150"/>
	</g>
	<g>
		<g>
			<path fill="#3AB4FF" d="M1239.26,93.02h31.133c-0.078,3.75-0.261,6.732-0.547,8.945c-0.209,2.214-0.795,4.727-1.758,7.539
				c-0.938,2.631-2.227,5.078-3.867,7.344c-5.625,7.891-13.906,11.836-24.844,11.836c-6.146,0-11.719-1.328-16.719-3.984
				c-5-2.734-8.789-6.497-11.367-11.289c-2.734-4.869-4.102-10.391-4.102-16.562c0-4.635,0.781-9.062,2.344-13.281
				c1.536-4.01,3.775-7.447,6.719-10.312c2.864-2.812,6.328-5,10.391-6.562c4.01-1.536,8.438-2.305,13.281-2.305
				c4.088,0,7.903,0.612,11.445,1.836c3.438,1.25,6.497,3.139,9.18,5.664c2.734,2.656,4.922,5.781,6.562,9.375l-14.883,6.211
				c-1.016-2.916-2.695-5.26-5.039-7.031c-2.24-1.692-4.909-2.539-8.008-2.539c-3.281,0-6.107,0.898-8.477,2.695
				c-2.396,1.928-4.18,4.311-5.352,7.148c-1.225,2.969-1.836,6.029-1.836,9.18c0,3.178,0.611,6.225,1.836,9.141
				c1.275,2.917,3.111,5.261,5.508,7.031c2.447,1.797,5.312,2.695,8.594,2.695c2.239,0,4.283-0.391,6.133-1.172
				c1.875-0.833,3.372-2.005,4.492-3.516c1.094-1.458,1.758-3.385,1.992-5.781h-12.812V93.02z"/>
			<path fill="#3AB4FF" d="M1311.916,79.66h-18.672v10.078h17.695v13.281h-17.695v10.391h18.672v13.281h-34.336V66.379h34.336V79.66
				z"/>
			<path fill="#3AB4FF" d="M1345.549,79.66v47.031h-15.664V79.66h-12.969V66.379h41.602V79.66H1345.549z"/>
			<path fill="#3AB4FF" d="M1407.307,66.379v60.312h-15.664V66.379H1407.307z"/>
			<path fill="#3AB4FF" d="M1417.58,126.691V66.379h15.664l28.75,36.875h0.156V66.379h15.664v60.312h-15.664l-28.711-36.953h-0.195
				v36.953H1417.58z"/>
			<path fill="#3AB4FF" d="M1539.455,79.66v47.031h-15.664V79.66h-12.969V66.379h41.602V79.66H1539.455z"/>
			<path fill="#3AB4FF" d="M1588.439,64.387c4.4,0,8.594,0.742,12.578,2.227c4.062,1.562,7.63,3.725,10.703,6.484
				c3.021,2.709,5.481,6.016,7.383,9.922c1.797,3.672,2.695,7.8,2.695,12.383c0,4.818-0.795,9.245-2.383,13.281
				c-1.667,4.115-4.011,7.67-7.031,10.664c-1.615,1.615-3.281,2.982-5,4.102c-1.719,1.12-3.581,2.07-5.586,2.852
				c-4.037,1.588-8.49,2.383-13.359,2.383c-4.792,0-9.219-0.795-13.281-2.383c-4.115-1.614-7.656-3.932-10.625-6.953
				c-1.484-1.458-2.793-3.04-3.926-4.746c-1.133-1.705-2.168-3.678-3.105-5.918c-1.615-4.088-2.422-8.516-2.422-13.281
				c0-2.161,0.228-4.283,0.684-6.367c0.455-2.083,1.139-4.088,2.051-6.016c1.927-3.958,4.375-7.266,7.344-9.922
				c3.099-2.786,6.705-4.947,10.82-6.484C1579.858,65.129,1584.012,64.387,1588.439,64.387z M1588.439,79.582
				c-3.073,0-5.898,0.742-8.477,2.227c-2.709,1.562-4.792,3.516-6.25,5.859c-1.537,2.553-2.305,5.156-2.305,7.812
				c0,3.308,0.768,6.381,2.305,9.219c1.562,2.839,3.619,5,6.172,6.484c2.682,1.537,5.533,2.305,8.555,2.305
				c3.072,0,5.924-0.768,8.555-2.305c2.552-1.458,4.609-3.619,6.172-6.484c1.536-2.76,2.305-5.833,2.305-9.219
				c0-2.734-0.769-5.338-2.305-7.812c-1.484-2.369-3.568-4.322-6.25-5.859C1594.363,80.324,1591.538,79.582,1588.439,79.582z"/>
			<path fill="#3AB4FF" d="M1665.744,66.379h15.664v33.906c0,1.562-0.026,2.943-0.078,4.141c-0.053,1.198-0.156,2.565-0.312,4.102
				c-0.261,2.448-0.847,4.766-1.758,6.953c-0.808,2.109-2.188,4.141-4.141,6.094c-1.667,1.589-3.594,2.891-5.781,3.906
				c-2.188,0.99-4.479,1.692-6.875,2.109c-2.448,0.469-4.896,0.703-7.344,0.703c-3.776,0-7.487-0.534-11.133-1.602
				c-1.797-0.547-3.412-1.236-4.844-2.07c-1.433-0.833-2.773-1.849-4.023-3.047c-1.953-1.953-3.347-3.984-4.18-6.094
				c-0.938-2.213-1.523-4.505-1.758-6.875c-0.261-2.656-0.391-5.43-0.391-8.32V66.379h15.664v31.758
				c0,3.229,0.221,6.029,0.664,8.398c0.364,2.136,1.341,4.023,2.93,5.664c1.562,1.562,3.919,2.344,7.07,2.344
				c3.125,0,5.469-0.781,7.031-2.344s2.552-3.45,2.969-5.664c0.416-2.447,0.625-5.247,0.625-8.398V66.379z"/>
			<path fill="#3AB4FF" d="M1734.455,67.824v18.789c-1.537-2.083-3.542-3.736-6.016-4.961c-2.422-1.119-5-1.68-7.734-1.68
				c-3.151,0-5.925,0.742-8.32,2.227c-2.5,1.433-4.428,3.438-5.781,6.016c-1.328,2.475-1.992,5.3-1.992,8.477
				c0,3.178,0.689,6.003,2.07,8.477c1.406,2.578,3.333,4.531,5.781,5.859c2.552,1.381,5.377,2.07,8.477,2.07
				c2.604,0,5.078-0.56,7.422-1.68c2.422-1.224,4.453-2.799,6.094-4.727v18.789c-3.047,0.938-5.69,1.666-7.93,2.188
				c-1.953,0.416-3.92,0.625-5.898,0.625c-3.984,0-8.021-0.769-12.109-2.305c-1.276-0.494-2.507-1.067-3.691-1.719
				c-1.186-0.65-2.338-1.367-3.457-2.148c-1.12-0.781-2.253-1.68-3.398-2.695c-6.459-5.833-9.688-13.438-9.688-22.812
				c0-4.088,0.781-8.06,2.344-11.914c1.614-3.984,3.802-7.369,6.562-10.156c2.109-2.109,4.349-3.867,6.719-5.273
				c2.474-1.458,5.104-2.578,7.891-3.359c2.864-0.755,5.638-1.133,8.32-1.133C1724.78,64.777,1729.559,65.793,1734.455,67.824z"/>
			<path fill="#3AB4FF" d="M1759.807,89.66h22.656V66.379h15.664v60.312h-15.664v-24.727h-22.656v24.727h-15.664V66.379h15.664
				V89.66z"/>
		</g>
		<g>
			<path fill="#F51484" d="M1235.26,89.02h31.133c-0.078,3.75-0.261,6.732-0.547,8.945c-0.209,2.214-0.795,4.727-1.758,7.539
				c-0.938,2.631-2.227,5.078-3.867,7.344c-5.625,7.891-13.906,11.836-24.844,11.836c-6.146,0-11.719-1.328-16.719-3.984
				c-5-2.734-8.789-6.497-11.367-11.289c-2.734-4.869-4.102-10.391-4.102-16.562c0-4.635,0.781-9.062,2.344-13.281
				c1.536-4.01,3.775-7.447,6.719-10.312c2.864-2.812,6.328-5,10.391-6.562c4.01-1.536,8.438-2.305,13.281-2.305
				c4.088,0,7.903,0.612,11.445,1.836c3.438,1.25,6.497,3.139,9.18,5.664c2.734,2.656,4.922,5.781,6.562,9.375l-14.883,6.211
				c-1.016-2.916-2.695-5.26-5.039-7.031c-2.24-1.692-4.909-2.539-8.008-2.539c-3.281,0-6.107,0.898-8.477,2.695
				c-2.396,1.928-4.18,4.311-5.352,7.148c-1.225,2.969-1.836,6.029-1.836,9.18c0,3.178,0.611,6.225,1.836,9.141
				c1.275,2.917,3.111,5.261,5.508,7.031c2.447,1.797,5.312,2.695,8.594,2.695c2.239,0,4.283-0.391,6.133-1.172
				c1.875-0.833,3.372-2.005,4.492-3.516c1.094-1.458,1.758-3.385,1.992-5.781h-12.812V89.02z"/>
			<path fill="#F51484" d="M1307.916,75.66h-18.672v10.078h17.695V99.02h-17.695v10.391h18.672v13.281h-34.336V62.379h34.336V75.66z
				"/>
			<path fill="#F51484" d="M1341.549,75.66v47.031h-15.664V75.66h-12.969V62.379h41.602V75.66H1341.549z"/>
			<path fill="#F51484" d="M1403.307,62.379v60.312h-15.664V62.379H1403.307z"/>
			<path fill="#F51484" d="M1413.58,122.691V62.379h15.664l28.75,36.875h0.156V62.379h15.664v60.312h-15.664l-28.711-36.953h-0.195
				v36.953H1413.58z"/>
			<path fill="#F51484" d="M1535.455,75.66v47.031h-15.664V75.66h-12.969V62.379h41.602V75.66H1535.455z"/>
			<path fill="#F51484" d="M1584.439,60.387c4.4,0,8.594,0.742,12.578,2.227c4.062,1.562,7.63,3.725,10.703,6.484
				c3.021,2.709,5.481,6.016,7.383,9.922c1.797,3.672,2.695,7.8,2.695,12.383c0,4.818-0.795,9.245-2.383,13.281
				c-1.667,4.115-4.011,7.67-7.031,10.664c-1.615,1.615-3.281,2.982-5,4.102c-1.719,1.12-3.581,2.07-5.586,2.852
				c-4.037,1.588-8.49,2.383-13.359,2.383c-4.792,0-9.219-0.795-13.281-2.383c-4.115-1.614-7.656-3.932-10.625-6.953
				c-1.484-1.458-2.793-3.04-3.926-4.746c-1.133-1.705-2.168-3.678-3.105-5.918c-1.615-4.088-2.422-8.516-2.422-13.281
				c0-2.161,0.228-4.283,0.684-6.367c0.455-2.083,1.139-4.088,2.051-6.016c1.927-3.958,4.375-7.266,7.344-9.922
				c3.099-2.786,6.705-4.947,10.82-6.484C1575.858,61.129,1580.012,60.387,1584.439,60.387z M1584.439,75.582
				c-3.073,0-5.898,0.742-8.477,2.227c-2.709,1.562-4.792,3.516-6.25,5.859c-1.537,2.553-2.305,5.156-2.305,7.812
				c0,3.308,0.768,6.381,2.305,9.219c1.562,2.839,3.619,5,6.172,6.484c2.682,1.537,5.533,2.305,8.555,2.305
				c3.072,0,5.924-0.768,8.555-2.305c2.552-1.458,4.609-3.619,6.172-6.484c1.536-2.76,2.305-5.833,2.305-9.219
				c0-2.734-0.769-5.338-2.305-7.812c-1.484-2.369-3.568-4.322-6.25-5.859C1590.363,76.324,1587.538,75.582,1584.439,75.582z"/>
			<path fill="#F51484" d="M1661.744,62.379h15.664v33.906c0,1.562-0.026,2.943-0.078,4.141c-0.053,1.198-0.156,2.565-0.312,4.102
				c-0.261,2.448-0.847,4.766-1.758,6.953c-0.808,2.109-2.188,4.141-4.141,6.094c-1.667,1.589-3.594,2.891-5.781,3.906
				c-2.188,0.99-4.479,1.692-6.875,2.109c-2.448,0.469-4.896,0.703-7.344,0.703c-3.776,0-7.487-0.534-11.133-1.602
				c-1.797-0.547-3.412-1.236-4.844-2.07c-1.433-0.833-2.773-1.849-4.023-3.047c-1.953-1.953-3.347-3.984-4.18-6.094
				c-0.938-2.213-1.523-4.505-1.758-6.875c-0.261-2.656-0.391-5.43-0.391-8.32V62.379h15.664v31.758
				c0,3.229,0.221,6.029,0.664,8.398c0.364,2.136,1.341,4.023,2.93,5.664c1.562,1.562,3.919,2.344,7.07,2.344
				c3.125,0,5.469-0.781,7.031-2.344s2.552-3.45,2.969-5.664c0.416-2.447,0.625-5.247,0.625-8.398V62.379z"/>
			<path fill="#F51484" d="M1730.455,63.824v18.789c-1.537-2.083-3.542-3.736-6.016-4.961c-2.422-1.119-5-1.68-7.734-1.68
				c-3.151,0-5.925,0.742-8.32,2.227c-2.5,1.433-4.428,3.438-5.781,6.016c-1.328,2.475-1.992,5.3-1.992,8.477
				c0,3.178,0.689,6.003,2.07,8.477c1.406,2.578,3.333,4.531,5.781,5.859c2.552,1.381,5.377,2.07,8.477,2.07
				c2.604,0,5.078-0.56,7.422-1.68c2.422-1.224,4.453-2.799,6.094-4.727v18.789c-3.047,0.938-5.69,1.666-7.93,2.188
				c-1.953,0.416-3.92,0.625-5.898,0.625c-3.984,0-8.021-0.769-12.109-2.305c-1.276-0.494-2.507-1.067-3.691-1.719
				c-1.186-0.65-2.338-1.367-3.457-2.148c-1.12-0.781-2.253-1.68-3.398-2.695c-6.459-5.833-9.688-13.438-9.688-22.812
				c0-4.088,0.781-8.06,2.344-11.914c1.614-3.984,3.802-7.369,6.562-10.156c2.109-2.109,4.349-3.867,6.719-5.273
				c2.474-1.458,5.104-2.578,7.891-3.359c2.864-0.755,5.638-1.133,8.32-1.133C1720.78,60.777,1725.559,61.793,1730.455,63.824z"/>
			<path fill="#F51484" d="M1755.807,85.66h22.656V62.379h15.664v60.312h-15.664V97.965h-22.656v24.727h-15.664V62.379h15.664V85.66
				z"/>
		</g>
	</g>
</g>
</svg>
