<?xml version="1.0" encoding="utf-8"?>
<!-- Generator: Adobe Illustrator 16.0.0, SVG Export Plug-In . SVG Version: 6.00 Build 0)  -->
<!DOCTYPE svg PUBLIC "-//W3C//DTD SVG 1.1//EN" "http://www.w3.org/Graphics/SVG/1.1/DTD/svg11.dtd">
<svg version="1.1" id="Layer_1" xmlns="http://www.w3.org/2000/svg" xmlns:xlink="http://www.w3.org/1999/xlink" x="0px" y="0px"
	 width="2000px" height="200px" viewBox="32.417 0 2000 200" enable-background="new 32.417 0 2000 200" xml:space="preserve">
<g>
	<g>
		<rect x="1088.623" y="25.459" fill="#F9F9F9" width="900" height="150"/>
		<rect x="1081.623" y="18.459" fill="#F51484" width="900" height="150"/>
		<rect x="1074.623" y="11.459" fill="#6E1F75" width="900" height="150"/>
	</g>
	<g>
		<g>
			<path fill="#F51484" d="M1270.883,86.067h31.133c-0.078,3.75-0.261,6.732-0.547,8.945c-0.209,2.215-0.795,4.727-1.758,7.539
				c-0.938,2.631-2.227,5.078-3.867,7.344c-5.625,7.893-13.906,11.836-24.844,11.836c-6.146,0-11.719-1.328-16.719-3.982
				c-5-2.734-8.789-6.498-11.367-11.289c-2.734-4.869-4.102-10.392-4.102-16.562c0-4.636,0.781-9.063,2.344-13.281
				c1.535-4.01,3.775-7.447,6.719-10.313c2.864-2.812,6.328-5,10.391-6.562c4.01-1.536,8.438-2.306,13.281-2.306
				c4.088,0,7.903,0.612,11.445,1.836c3.438,1.25,6.497,3.14,9.18,5.664c2.734,2.656,4.922,5.781,6.563,9.375l-14.883,6.211
				c-1.017-2.916-2.695-5.26-5.039-7.03c-2.24-1.692-4.909-2.539-8.008-2.539c-3.281,0-6.107,0.897-8.478,2.694
				c-2.396,1.929-4.181,4.312-5.353,7.148c-1.225,2.969-1.836,6.029-1.836,9.18c0,3.178,0.611,6.226,1.836,9.142
				c1.275,2.917,3.111,5.26,5.508,7.03c2.447,1.797,5.313,2.695,8.595,2.695c2.239,0,4.282-0.391,6.133-1.172
				c1.875-0.832,3.372-2.004,4.492-3.516c1.094-1.459,1.758-3.385,1.991-5.781h-12.811V86.067z"/>
			<path fill="#F51484" d="M1343.539,72.708h-18.672v10.078h17.695v13.28h-17.695v10.392h18.672v13.279h-34.336V59.427h34.336
				V72.708z"/>
			<path fill="#F51484" d="M1377.172,72.708v47.03h-15.664v-47.03h-12.969V59.427h41.602v13.281H1377.172z"/>
			<path fill="#F51484" d="M1438.93,59.427v60.311h-15.664V59.427H1438.93z"/>
			<path fill="#F51484" d="M1449.203,119.738V59.427h15.664l28.75,36.875h0.156V59.427h15.664v60.311h-15.664l-28.711-36.952h-0.195
				v36.952H1449.203z"/>
			<path fill="#F51484" d="M1571.078,72.708v47.03h-15.664v-47.03h-12.969V59.427h41.602v13.281H1571.078z"/>
			<path fill="#F51484" d="M1620.063,57.436c4.399,0,8.594,0.741,12.577,2.227c4.063,1.563,7.631,3.725,10.703,6.484
				c3.021,2.709,5.481,6.016,7.384,9.922c1.797,3.672,2.694,7.8,2.694,12.383c0,4.818-0.795,9.244-2.383,13.281
				c-1.667,4.115-4.011,7.67-7.031,10.664c-1.614,1.615-3.28,2.982-5,4.102c-1.719,1.121-3.581,2.07-5.586,2.852
				c-4.037,1.588-8.49,2.383-13.358,2.383c-4.792,0-9.22-0.795-13.281-2.383c-4.115-1.613-7.656-3.932-10.625-6.953
				c-1.484-1.457-2.793-3.039-3.926-4.746c-1.134-1.705-2.168-3.678-3.105-5.918c-1.615-4.087-2.422-8.515-2.422-13.28
				c0-2.161,0.228-4.283,0.684-6.367c0.455-2.083,1.14-4.088,2.052-6.017c1.927-3.957,4.375-7.266,7.344-9.922
				c3.099-2.785,6.705-4.946,10.82-6.483C1611.481,58.177,1615.635,57.436,1620.063,57.436z M1620.063,72.63
				c-3.073,0-5.898,0.742-8.478,2.228c-2.709,1.562-4.792,3.516-6.25,5.858c-1.537,2.554-2.305,5.156-2.305,7.812
				c0,3.309,0.768,6.382,2.305,9.22c1.563,2.838,3.619,5,6.172,6.483c2.683,1.537,5.533,2.307,8.556,2.307
				c3.071,0,5.924-0.77,8.555-2.307c2.552-1.457,4.609-3.619,6.172-6.483c1.536-2.761,2.305-5.833,2.305-9.22
				c0-2.733-0.769-5.338-2.305-7.812c-1.484-2.368-3.568-4.321-6.25-5.858C1625.986,73.373,1623.161,72.63,1620.063,72.63z"/>
			<path fill="#F51484" d="M1697.367,59.427h15.664v33.906c0,1.562-0.026,2.942-0.078,4.142c-0.053,1.197-0.156,2.564-0.313,4.101
				c-0.261,2.447-0.847,4.766-1.758,6.953c-0.808,2.109-2.188,4.141-4.141,6.094c-1.667,1.59-3.594,2.891-5.781,3.906
				c-2.188,0.99-4.479,1.691-6.875,2.109c-2.448,0.469-4.896,0.703-7.344,0.703c-3.776,0-7.487-0.535-11.133-1.604
				c-1.797-0.547-3.412-1.234-4.845-2.068s-2.772-1.85-4.022-3.047c-1.953-1.953-3.347-3.984-4.18-6.096
				c-0.938-2.213-1.523-4.504-1.759-6.875c-0.261-2.655-0.391-5.429-0.391-8.319V59.427h15.664v31.759
				c0,3.229,0.221,6.028,0.664,8.397c0.364,2.135,1.341,4.022,2.93,5.665c1.563,1.561,3.919,2.344,7.07,2.344
				c3.125,0,5.469-0.781,7.031-2.344c1.562-1.564,2.552-3.451,2.969-5.665c0.416-2.447,0.625-5.247,0.625-8.397L1697.367,59.427
				L1697.367,59.427z"/>
			<path fill="#F51484" d="M1766.078,60.873v18.789c-1.537-2.083-3.542-3.736-6.016-4.961c-2.423-1.119-5-1.681-7.734-1.681
				c-3.151,0-5.925,0.742-8.32,2.228c-2.5,1.433-4.428,3.438-5.781,6.017c-1.327,2.475-1.991,5.299-1.991,8.477
				s0.688,6.003,2.069,8.477c1.406,2.578,3.333,4.531,5.781,5.859c2.552,1.381,5.377,2.07,8.478,2.07
				c2.604,0,5.077-0.561,7.422-1.68c2.422-1.225,4.453-2.799,6.094-4.728v18.789c-3.047,0.939-5.69,1.666-7.93,2.189
				c-1.953,0.416-3.92,0.625-5.898,0.625c-3.984,0-8.021-0.77-12.109-2.305c-1.275-0.494-2.507-1.068-3.69-1.721
				c-1.187-0.648-2.338-1.365-3.457-2.146c-1.12-0.781-2.253-1.682-3.398-2.695c-6.459-5.834-9.688-13.438-9.688-22.812
				c0-4.088,0.781-8.061,2.344-11.914c1.614-3.984,3.802-7.369,6.563-10.156c2.108-2.109,4.349-3.867,6.719-5.273
				c2.474-1.457,5.104-2.577,7.891-3.358c2.864-0.755,5.639-1.133,8.32-1.133C1756.403,57.826,1761.182,58.841,1766.078,60.873z"/>
			<path fill="#F51484" d="M1791.43,82.708h22.656V59.427h15.664v60.311h-15.664V95.014h-22.656v24.726h-15.664V59.427h15.664
				V82.708z"/>
		</g>
		<g>
			<path fill="#3AB4FF" d="M1266.883,82.067h31.133c-0.078,3.75-0.261,6.732-0.547,8.945c-0.209,2.215-0.795,4.727-1.758,7.539
				c-0.938,2.63-2.227,5.078-3.867,7.343c-5.625,7.893-13.906,11.836-24.844,11.836c-6.146,0-11.719-1.328-16.719-3.982
				c-5-2.734-8.789-6.498-11.367-11.289c-2.734-4.87-4.102-10.392-4.102-16.562c0-4.636,0.781-9.063,2.344-13.281
				c1.535-4.01,3.775-7.447,6.719-10.313c2.864-2.812,6.328-5,10.391-6.562c4.01-1.536,8.438-2.306,13.281-2.306
				c4.088,0,7.903,0.612,11.445,1.836c3.438,1.25,6.497,3.14,9.18,5.664c2.734,2.656,4.922,5.781,6.563,9.375l-14.883,6.211
				c-1.017-2.916-2.695-5.26-5.039-7.03c-2.24-1.692-4.909-2.539-8.008-2.539c-3.281,0-6.107,0.897-8.478,2.694
				c-2.396,1.929-4.181,4.312-5.353,7.148c-1.225,2.969-1.836,6.029-1.836,9.18c0,3.178,0.611,6.226,1.836,9.142
				c1.275,2.917,3.111,5.261,5.508,7.03c2.447,1.797,5.313,2.695,8.595,2.695c2.239,0,4.282-0.391,6.133-1.172
				c1.875-0.832,3.372-2.004,4.492-3.515c1.094-1.459,1.758-3.385,1.991-5.781h-12.811V82.067z"/>
			<path fill="#3AB4FF" d="M1339.539,68.708h-18.672v10.078h17.695v13.28h-17.695v10.392h18.672v13.279h-34.336V55.427h34.336
				V68.708z"/>
			<path fill="#3AB4FF" d="M1373.172,68.708v47.03h-15.664v-47.03h-12.969V55.427h41.602v13.281H1373.172z"/>
			<path fill="#3AB4FF" d="M1434.93,55.427v60.311h-15.664V55.427H1434.93z"/>
			<path fill="#3AB4FF" d="M1445.203,115.738V55.427h15.664l28.75,36.875h0.156V55.427h15.664v60.311h-15.664l-28.711-36.952h-0.195
				v36.952H1445.203z"/>
			<path fill="#3AB4FF" d="M1567.078,68.708v47.03h-15.664v-47.03h-12.969V55.427h41.602v13.281H1567.078z"/>
			<path fill="#3AB4FF" d="M1616.063,53.436c4.399,0,8.594,0.741,12.577,2.227c4.063,1.563,7.631,3.725,10.703,6.484
				c3.021,2.709,5.481,6.016,7.384,9.922c1.797,3.672,2.694,7.8,2.694,12.383c0,4.818-0.795,9.244-2.383,13.281
				c-1.667,4.115-4.011,7.669-7.031,10.664c-1.614,1.615-3.28,2.982-5,4.102c-1.719,1.121-3.581,2.07-5.586,2.852
				c-4.037,1.588-8.49,2.383-13.358,2.383c-4.792,0-9.22-0.795-13.281-2.383c-4.115-1.613-7.656-3.932-10.625-6.953
				c-1.484-1.457-2.793-3.039-3.926-4.746c-1.134-1.705-2.168-3.677-3.105-5.917c-1.615-4.088-2.422-8.516-2.422-13.28
				c0-2.161,0.228-4.283,0.684-6.367c0.455-2.083,1.14-4.088,2.052-6.017c1.927-3.957,4.375-7.266,7.344-9.922
				c3.099-2.785,6.705-4.946,10.82-6.483C1607.481,54.177,1611.635,53.436,1616.063,53.436z M1616.063,68.63
				c-3.073,0-5.898,0.742-8.478,2.228c-2.709,1.562-4.792,3.516-6.25,5.858c-1.537,2.554-2.305,5.156-2.305,7.812
				c0,3.309,0.768,6.382,2.305,9.22c1.563,2.839,3.619,5,6.172,6.483c2.683,1.537,5.533,2.306,8.556,2.306
				c3.071,0,5.924-0.77,8.555-2.306c2.552-1.457,4.609-3.619,6.172-6.483c1.536-2.761,2.305-5.833,2.305-9.22
				c0-2.733-0.769-5.338-2.305-7.812c-1.484-2.368-3.568-4.321-6.25-5.858C1621.986,69.373,1619.161,68.63,1616.063,68.63z"/>
			<path fill="#3AB4FF" d="M1693.367,55.427h15.664v33.906c0,1.562-0.026,2.942-0.078,4.142c-0.053,1.197-0.156,2.564-0.313,4.102
				c-0.261,2.447-0.847,4.765-1.758,6.953c-0.808,2.109-2.188,4.141-4.141,6.094c-1.667,1.59-3.594,2.891-5.781,3.906
				c-2.188,0.99-4.479,1.691-6.875,2.109c-2.448,0.469-4.896,0.703-7.344,0.703c-3.776,0-7.487-0.535-11.133-1.604
				c-1.797-0.547-3.412-1.234-4.845-2.068s-2.772-1.85-4.022-3.047c-1.953-1.953-3.347-3.984-4.18-6.096
				c-0.938-2.213-1.523-4.503-1.759-6.875c-0.261-2.655-0.391-5.43-0.391-8.319V55.427h15.664v31.759
				c0,3.229,0.221,6.028,0.664,8.397c0.364,2.136,1.341,4.022,2.93,5.665c1.563,1.561,3.919,2.344,7.07,2.344
				c3.125,0,5.469-0.781,7.031-2.344c1.562-1.564,2.552-3.451,2.969-5.665c0.416-2.447,0.625-5.247,0.625-8.397L1693.367,55.427
				L1693.367,55.427z"/>
			<path fill="#3AB4FF" d="M1762.078,56.873v18.789c-1.537-2.083-3.542-3.736-6.016-4.961c-2.423-1.119-5-1.681-7.734-1.681
				c-3.151,0-5.925,0.742-8.32,2.228c-2.5,1.433-4.428,3.438-5.781,6.017c-1.327,2.475-1.991,5.299-1.991,8.477
				s0.688,6.003,2.069,8.477c1.406,2.578,3.333,4.531,5.781,5.859c2.552,1.38,5.377,2.07,8.478,2.07c2.604,0,5.077-0.561,7.422-1.68
				c2.422-1.224,4.453-2.799,6.094-4.728v18.789c-3.047,0.939-5.69,1.666-7.93,2.189c-1.953,0.416-3.92,0.625-5.898,0.625
				c-3.984,0-8.021-0.77-12.109-2.305c-1.275-0.494-2.507-1.068-3.69-1.721c-1.187-0.648-2.338-1.365-3.457-2.146
				c-1.12-0.781-2.253-1.682-3.398-2.695c-6.459-5.834-9.688-13.438-9.688-22.812c0-4.088,0.781-8.061,2.344-11.914
				c1.614-3.984,3.802-7.369,6.563-10.156c2.108-2.109,4.349-3.867,6.719-5.273c2.474-1.457,5.104-2.577,7.891-3.358
				c2.864-0.755,5.639-1.133,8.32-1.133C1752.403,53.826,1757.182,54.841,1762.078,56.873z"/>
			<path fill="#3AB4FF" d="M1787.43,78.708h22.656V55.427h15.664v60.311h-15.664V91.014h-22.656v24.726h-15.664V55.427h15.664
				V78.708z"/>
		</g>
	</g>
	<g>
		<rect x="1088.623" y="39.459" fill="#F9F9F9" width="900" height="150"/>
		<rect x="1081.623" y="32.459" fill="#F51484" width="900" height="150"/>
		<rect x="1074.623" y="25.459" fill="#6E1F75" width="900" height="150"/>
	</g>
	<g>
		<g>
			<path fill="#F51484" d="M1270.883,100.067h31.133c-0.078,3.75-0.261,6.732-0.547,8.945c-0.209,2.215-0.795,4.727-1.758,7.539
				c-0.938,2.631-2.227,5.078-3.867,7.344c-5.625,7.893-13.906,11.836-24.844,11.836c-6.146,0-11.719-1.328-16.719-3.982
				c-5-2.734-8.789-6.498-11.367-11.289c-2.734-4.869-4.102-10.393-4.102-16.563c0-4.635,0.781-9.062,2.344-13.281
				c1.535-4.01,3.775-7.447,6.719-10.313c2.864-2.812,6.328-5,10.391-6.562c4.01-1.536,8.438-2.306,13.281-2.306
				c4.088,0,7.903,0.612,11.445,1.836c3.438,1.25,6.497,3.14,9.18,5.664c2.734,2.656,4.922,5.781,6.563,9.375l-14.883,6.211
				c-1.017-2.916-2.695-5.26-5.039-7.03c-2.24-1.692-4.909-2.539-8.008-2.539c-3.281,0-6.107,0.897-8.478,2.694
				c-2.396,1.929-4.181,4.312-5.353,7.148c-1.225,2.969-1.836,6.029-1.836,9.179c0,3.178,0.611,6.227,1.836,9.143
				c1.275,2.916,3.111,5.26,5.508,7.029c2.447,1.797,5.313,2.695,8.595,2.695c2.239,0,4.282-0.391,6.133-1.172
				c1.875-0.832,3.372-2.004,4.492-3.516c1.094-1.459,1.758-3.385,1.991-5.781h-12.811V100.067z"/>
			<path fill="#F51484" d="M1343.539,86.708h-18.672v10.078h17.695v13.28h-17.695v10.393h18.672v13.279h-34.336V73.427h34.336
				V86.708z"/>
			<path fill="#F51484" d="M1377.172,86.708v47.03h-15.664v-47.03h-12.969V73.427h41.602v13.281H1377.172z"/>
			<path fill="#F51484" d="M1438.93,73.427v60.311h-15.664V73.427H1438.93z"/>
			<path fill="#F51484" d="M1449.203,133.738V73.427h15.664l28.75,36.875h0.156V73.427h15.664v60.311h-15.664l-28.711-36.952h-0.195
				v36.952H1449.203z"/>
			<path fill="#F51484" d="M1571.078,86.708v47.03h-15.664v-47.03h-12.969V73.427h41.602v13.281H1571.078z"/>
			<path fill="#F51484" d="M1620.063,71.436c4.399,0,8.594,0.741,12.577,2.227c4.063,1.563,7.631,3.725,10.703,6.484
				c3.021,2.709,5.481,6.016,7.384,9.922c1.797,3.672,2.694,7.8,2.694,12.382c0,4.818-0.795,9.244-2.383,13.281
				c-1.667,4.115-4.011,7.67-7.031,10.664c-1.614,1.615-3.28,2.982-5,4.102c-1.719,1.121-3.581,2.07-5.586,2.852
				c-4.037,1.588-8.49,2.383-13.358,2.383c-4.792,0-9.22-0.795-13.281-2.383c-4.115-1.613-7.656-3.932-10.625-6.953
				c-1.484-1.457-2.793-3.039-3.926-4.746c-1.134-1.705-2.168-3.678-3.105-5.918c-1.615-4.088-2.422-8.516-2.422-13.279
				c0-2.162,0.228-4.284,0.684-6.368c0.455-2.083,1.14-4.088,2.052-6.017c1.927-3.957,4.375-7.266,7.344-9.922
				c3.099-2.785,6.705-4.946,10.82-6.483C1611.481,72.177,1615.635,71.436,1620.063,71.436z M1620.063,86.63
				c-3.073,0-5.898,0.742-8.478,2.228c-2.709,1.562-4.792,3.516-6.25,5.858c-1.537,2.554-2.305,5.156-2.305,7.811
				c0,3.309,0.768,6.383,2.305,9.221c1.563,2.838,3.619,5,6.172,6.482c2.683,1.537,5.533,2.307,8.556,2.307
				c3.071,0,5.924-0.77,8.555-2.307c2.552-1.457,4.609-3.619,6.172-6.482c1.536-2.762,2.305-5.834,2.305-9.221
				c0-2.733-0.769-5.337-2.305-7.811c-1.484-2.368-3.568-4.321-6.25-5.858C1625.986,87.373,1623.161,86.63,1620.063,86.63z"/>
			<path fill="#F51484" d="M1697.367,73.427h15.664v33.907c0,1.561-0.026,2.941-0.078,4.141c-0.053,1.197-0.156,2.564-0.313,4.102
				c-0.261,2.447-0.847,4.766-1.758,6.953c-0.808,2.109-2.188,4.141-4.141,6.094c-1.667,1.59-3.594,2.891-5.781,3.906
				c-2.188,0.99-4.479,1.691-6.875,2.109c-2.448,0.469-4.896,0.703-7.344,0.703c-3.776,0-7.487-0.535-11.133-1.604
				c-1.797-0.547-3.412-1.234-4.845-2.068s-2.772-1.85-4.022-3.047c-1.953-1.953-3.347-3.984-4.18-6.096
				c-0.938-2.213-1.523-4.504-1.759-6.875c-0.261-2.654-0.391-5.43-0.391-8.318V73.427h15.664v31.758
				c0,3.229,0.221,6.029,0.664,8.398c0.364,2.135,1.341,4.021,2.93,5.664c1.563,1.561,3.919,2.344,7.07,2.344
				c3.125,0,5.469-0.781,7.031-2.344c1.562-1.564,2.552-3.451,2.969-5.664c0.416-2.447,0.625-5.248,0.625-8.398L1697.367,73.427
				L1697.367,73.427z"/>
			<path fill="#F51484" d="M1766.078,74.873v18.789c-1.537-2.083-3.542-3.736-6.016-4.961c-2.423-1.119-5-1.681-7.734-1.681
				c-3.151,0-5.925,0.742-8.32,2.228c-2.5,1.433-4.428,3.438-5.781,6.017c-1.327,2.475-1.991,5.298-1.991,8.476
				s0.688,6.004,2.069,8.477c1.406,2.578,3.333,4.531,5.781,5.859c2.552,1.381,5.377,2.07,8.478,2.07
				c2.604,0,5.077-0.561,7.422-1.68c2.422-1.225,4.453-2.799,6.094-4.729v18.789c-3.047,0.939-5.69,1.666-7.93,2.189
				c-1.953,0.416-3.92,0.625-5.898,0.625c-3.984,0-8.021-0.77-12.109-2.305c-1.275-0.494-2.507-1.068-3.69-1.721
				c-1.187-0.648-2.338-1.365-3.457-2.146c-1.12-0.781-2.253-1.68-3.398-2.695c-6.459-5.834-9.688-13.438-9.688-22.813
				c0-4.087,0.781-8.06,2.344-11.914c1.614-3.984,3.802-7.369,6.563-10.156c2.108-2.109,4.349-3.867,6.719-5.273
				c2.474-1.457,5.104-2.577,7.891-3.358c2.864-0.755,5.639-1.133,8.32-1.133C1756.403,71.826,1761.182,72.841,1766.078,74.873z"/>
			<path fill="#F51484" d="M1791.43,96.708h22.656V73.427h15.664v60.311h-15.664v-24.727h-22.656v24.727h-15.664V73.427h15.664
				V96.708z"/>
		</g>
		<g>
			<path fill="#3AB4FF" d="M1266.883,96.067h31.133c-0.078,3.75-0.261,6.732-0.547,8.945c-0.209,2.215-0.795,4.727-1.758,7.539
				c-0.938,2.631-2.227,5.078-3.867,7.344c-5.625,7.893-13.906,11.836-24.844,11.836c-6.146,0-11.719-1.328-16.719-3.982
				c-5-2.734-8.789-6.498-11.367-11.289c-2.734-4.869-4.102-10.393-4.102-16.562c0-4.636,0.781-9.063,2.344-13.281
				c1.535-4.01,3.775-7.447,6.719-10.313c2.864-2.812,6.328-5,10.391-6.562c4.01-1.536,8.438-2.306,13.281-2.306
				c4.088,0,7.903,0.612,11.445,1.836c3.438,1.25,6.497,3.14,9.18,5.664c2.734,2.656,4.922,5.781,6.563,9.375l-14.883,6.211
				c-1.017-2.916-2.695-5.26-5.039-7.03c-2.24-1.692-4.909-2.539-8.008-2.539c-3.281,0-6.107,0.897-8.478,2.694
				c-2.396,1.929-4.181,4.312-5.353,7.148c-1.225,2.969-1.836,6.029-1.836,9.18c0,3.177,0.611,6.226,1.836,9.142
				c1.275,2.916,3.111,5.26,5.508,7.029c2.447,1.797,5.313,2.695,8.595,2.695c2.239,0,4.282-0.391,6.133-1.172
				c1.875-0.832,3.372-2.004,4.492-3.516c1.094-1.459,1.758-3.385,1.991-5.781h-12.811V96.067z"/>
			<path fill="#3AB4FF" d="M1339.539,82.708h-18.672v10.078h17.695v13.28h-17.695v10.393h18.672v13.279h-34.336V69.427h34.336
				V82.708z"/>
			<path fill="#3AB4FF" d="M1373.172,82.708v47.03h-15.664v-47.03h-12.969V69.427h41.602v13.281H1373.172z"/>
			<path fill="#3AB4FF" d="M1434.93,69.427v60.311h-15.664V69.427H1434.93z"/>
			<path fill="#3AB4FF" d="M1445.203,129.738V69.427h15.664l28.75,36.875h0.156V69.427h15.664v60.311h-15.664l-28.711-36.952h-0.195
				v36.952H1445.203z"/>
			<path fill="#3AB4FF" d="M1567.078,82.708v47.03h-15.664v-47.03h-12.969V69.427h41.602v13.281H1567.078z"/>
			<path fill="#3AB4FF" d="M1616.063,67.436c4.399,0,8.594,0.741,12.577,2.227c4.063,1.563,7.631,3.725,10.703,6.484
				c3.021,2.709,5.481,6.016,7.384,9.922c1.797,3.672,2.694,7.8,2.694,12.383c0,4.818-0.795,9.244-2.383,13.281
				c-1.667,4.115-4.011,7.67-7.031,10.664c-1.614,1.615-3.28,2.982-5,4.102c-1.719,1.121-3.581,2.07-5.586,2.852
				c-4.037,1.588-8.49,2.383-13.358,2.383c-4.792,0-9.22-0.795-13.281-2.383c-4.115-1.613-7.656-3.932-10.625-6.953
				c-1.484-1.457-2.793-3.039-3.926-4.746c-1.134-1.705-2.168-3.678-3.105-5.918c-1.615-4.088-2.422-8.516-2.422-13.28
				c0-2.161,0.228-4.283,0.684-6.367c0.455-2.083,1.14-4.088,2.052-6.017c1.927-3.957,4.375-7.266,7.344-9.922
				c3.099-2.785,6.705-4.946,10.82-6.483C1607.481,68.177,1611.635,67.436,1616.063,67.436z M1616.063,82.63
				c-3.073,0-5.898,0.742-8.478,2.228c-2.709,1.562-4.792,3.516-6.25,5.858c-1.537,2.554-2.305,5.156-2.305,7.812
				c0,3.308,0.768,6.382,2.305,9.22c1.563,2.838,3.619,5,6.172,6.482c2.683,1.537,5.533,2.307,8.556,2.307
				c3.071,0,5.924-0.77,8.555-2.307c2.552-1.457,4.609-3.619,6.172-6.482c1.536-2.762,2.305-5.834,2.305-9.22
				c0-2.733-0.769-5.338-2.305-7.812c-1.484-2.368-3.568-4.321-6.25-5.858C1621.986,83.373,1619.161,82.63,1616.063,82.63z"/>
			<path fill="#3AB4FF" d="M1693.367,69.427h15.664v33.907c0,1.561-0.026,2.941-0.078,4.141c-0.053,1.197-0.156,2.564-0.313,4.102
				c-0.261,2.447-0.847,4.766-1.758,6.953c-0.808,2.109-2.188,4.141-4.141,6.094c-1.667,1.59-3.594,2.891-5.781,3.906
				c-2.188,0.99-4.479,1.691-6.875,2.109c-2.448,0.469-4.896,0.703-7.344,0.703c-3.776,0-7.487-0.535-11.133-1.604
				c-1.797-0.547-3.412-1.234-4.845-2.068s-2.772-1.85-4.022-3.047c-1.953-1.953-3.347-3.984-4.18-6.096
				c-0.938-2.213-1.523-4.504-1.759-6.875c-0.261-2.654-0.391-5.43-0.391-8.318V69.427h15.664v31.758
				c0,3.229,0.221,6.029,0.664,8.398c0.364,2.135,1.341,4.021,2.93,5.664c1.563,1.561,3.919,2.344,7.07,2.344
				c3.125,0,5.469-0.781,7.031-2.344c1.562-1.564,2.552-3.451,2.969-5.664c0.416-2.447,0.625-5.248,0.625-8.398L1693.367,69.427
				L1693.367,69.427z"/>
			<path fill="#3AB4FF" d="M1762.078,70.873v18.789c-1.537-2.083-3.542-3.736-6.016-4.961c-2.423-1.119-5-1.681-7.734-1.681
				c-3.151,0-5.925,0.742-8.32,2.228c-2.5,1.433-4.428,3.438-5.781,6.017c-1.327,2.475-1.991,5.299-1.991,8.477
				c0,3.177,0.688,6.003,2.069,8.476c1.406,2.578,3.333,4.531,5.781,5.859c2.552,1.381,5.377,2.07,8.478,2.07
				c2.604,0,5.077-0.561,7.422-1.68c2.422-1.225,4.453-2.799,6.094-4.729v18.789c-3.047,0.939-5.69,1.666-7.93,2.189
				c-1.953,0.416-3.92,0.625-5.898,0.625c-3.984,0-8.021-0.77-12.109-2.305c-1.275-0.494-2.507-1.068-3.69-1.721
				c-1.187-0.648-2.338-1.365-3.457-2.146c-1.12-0.781-2.253-1.682-3.398-2.695c-6.459-5.834-9.688-13.438-9.688-22.812
				c0-4.088,0.781-8.061,2.344-11.914c1.614-3.984,3.802-7.369,6.563-10.156c2.108-2.109,4.349-3.867,6.719-5.273
				c2.474-1.457,5.104-2.577,7.891-3.358c2.864-0.755,5.639-1.133,8.32-1.133C1752.403,67.826,1757.182,68.841,1762.078,70.873z"/>
			<path fill="#3AB4FF" d="M1787.43,92.708h22.656V69.427h15.664v60.311h-15.664v-24.727h-22.656v24.727h-15.664V69.427h15.664
				V92.708z"/>
		</g>
	</g>
</g>
<g>
	<g>
		<rect x="89.417" y="32.459" fill="#6E1F75" width="900" height="150"/>
		<rect x="82.417" y="25.459" fill="#F51484" width="900" height="150"/>
		<rect x="75.417" y="18.459" fill="#F9F9F9" width="900" height="150"/>
	</g>
	<g>
		<g>
			<path fill="#3AB4FF" d="M271.677,93.479h31.133c-0.077,3.75-0.261,6.731-0.547,8.944c-0.209,2.215-0.795,4.727-1.758,7.539
				c-0.938,2.631-2.227,5.078-3.867,7.344c-5.625,7.891-13.905,11.836-24.844,11.836c-6.146,0-11.719-1.328-16.719-3.982
				c-5-2.734-8.789-6.498-11.367-11.289c-2.734-4.869-4.102-10.393-4.102-16.563c0-4.635,0.78-9.063,2.344-13.281
				c1.536-4.01,3.775-7.447,6.719-10.313c2.864-2.812,6.328-5,10.391-6.562c4.011-1.536,8.438-2.305,13.281-2.305
				c4.088,0,7.903,0.612,11.445,1.836c3.438,1.25,6.497,3.14,9.18,5.664c2.734,2.655,4.922,5.78,6.563,9.375l-14.883,6.211
				c-1.017-2.916-2.695-5.261-5.039-7.031c-2.24-1.692-4.909-2.539-8.009-2.539c-3.28,0-6.106,0.898-8.477,2.695
				c-2.396,1.928-4.181,4.312-5.353,7.147c-1.225,2.969-1.836,6.029-1.836,9.181c0,3.178,0.611,6.224,1.836,9.14
				c1.275,2.918,3.111,5.262,5.509,7.031c2.446,1.797,5.312,2.695,8.594,2.695c2.239,0,4.283-0.391,6.133-1.172
				c1.875-0.832,3.372-2.004,4.492-3.516c1.094-1.459,1.758-3.385,1.992-5.781h-12.813L271.677,93.479L271.677,93.479z"/>
			<path fill="#3AB4FF" d="M344.333,80.119h-18.672v10.078h17.695v13.281h-17.695v10.391h18.672v13.281h-34.336V66.838h34.336
				V80.119z"/>
			<path fill="#3AB4FF" d="M377.966,80.119v47.031h-15.664V80.119h-12.969V66.838h41.602v13.281H377.966z"/>
			<path fill="#3AB4FF" d="M439.724,66.838v60.313H424.06V66.838H439.724z"/>
			<path fill="#3AB4FF" d="M449.997,127.15V66.838h15.664l28.75,36.875h0.156V66.838h15.663v60.313h-15.663l-28.712-36.953h-0.194
				v36.953H449.997L449.997,127.15z"/>
			<path fill="#3AB4FF" d="M571.872,80.119v47.031h-15.664V80.119h-12.969V66.838h41.602v13.281H571.872z"/>
			<path fill="#3AB4FF" d="M620.856,64.847c4.399,0,8.594,0.741,12.577,2.228c4.063,1.561,7.63,3.725,10.703,6.483
				c3.021,2.709,5.481,6.017,7.384,9.922c1.797,3.672,2.694,7.8,2.694,12.383c0,4.818-0.795,9.245-2.383,13.28
				c-1.667,4.115-4.011,7.67-7.031,10.664c-1.615,1.615-3.281,2.982-5,4.104c-1.719,1.119-3.581,2.068-5.586,2.852
				c-4.037,1.588-8.49,2.383-13.359,2.383c-4.792,0-9.219-0.795-13.28-2.383c-4.115-1.615-7.656-3.932-10.625-6.953
				c-1.484-1.459-2.793-3.041-3.927-4.746c-1.133-1.705-2.168-3.678-3.104-5.918c-1.615-4.088-2.422-8.516-2.422-13.281
				c0-2.16,0.228-4.283,0.684-6.367c0.455-2.082,1.139-4.088,2.051-6.016c1.928-3.958,4.375-7.266,7.345-9.922
				c3.099-2.786,6.704-4.947,10.819-6.484C612.275,65.588,616.429,64.847,620.856,64.847z M620.856,80.041
				c-3.073,0-5.898,0.742-8.478,2.228c-2.709,1.562-4.792,3.517-6.25,5.858c-1.537,2.554-2.305,5.156-2.305,7.813
				c0,3.309,0.768,6.381,2.305,9.219c1.562,2.84,3.619,5,6.172,6.484c2.683,1.537,5.533,2.305,8.556,2.305
				c3.071,0,5.924-0.768,8.555-2.305c2.552-1.459,4.609-3.619,6.172-6.484c1.536-2.76,2.305-5.832,2.305-9.219
				c0-2.734-0.769-5.338-2.305-7.813c-1.484-2.369-3.568-4.321-6.25-5.858C626.78,80.783,623.955,80.041,620.856,80.041z"/>
			<path fill="#3AB4FF" d="M698.161,66.838h15.664v33.906c0,1.563-0.026,2.943-0.078,4.141c-0.053,1.199-0.156,2.566-0.313,4.102
				c-0.261,2.449-0.847,4.768-1.758,6.953c-0.808,2.109-2.188,4.143-4.141,6.096c-1.667,1.588-3.594,2.891-5.781,3.904
				c-2.188,0.99-4.479,1.693-6.875,2.109c-2.448,0.469-4.896,0.703-7.344,0.703c-3.776,0-7.487-0.533-11.133-1.602
				c-1.798-0.547-3.412-1.236-4.845-2.07c-1.433-0.832-2.772-1.85-4.022-3.047c-1.953-1.953-3.348-3.984-4.181-6.094
				c-0.938-2.213-1.522-4.506-1.758-6.875c-0.261-2.656-0.391-5.43-0.391-8.32V66.838h15.664v31.759
				c0,3.229,0.221,6.028,0.663,8.397c0.364,2.137,1.342,4.023,2.931,5.664c1.562,1.563,3.919,2.344,7.069,2.344
				c3.125,0,5.47-0.781,7.031-2.344c1.563-1.563,2.553-3.449,2.969-5.664c0.416-2.447,0.625-5.246,0.625-8.397V66.838H698.161z"/>
			<path fill="#3AB4FF" d="M766.872,68.283v18.789c-1.537-2.083-3.542-3.736-6.016-4.961c-2.423-1.119-5-1.68-7.734-1.68
				c-3.151,0-5.925,0.742-8.32,2.227c-2.5,1.434-4.428,3.438-5.781,6.016c-1.327,2.476-1.991,5.301-1.991,8.478
				c0,3.179,0.688,6.003,2.069,8.478c1.406,2.578,3.333,4.531,5.781,5.857c2.552,1.383,5.377,2.07,8.478,2.07
				c2.604,0,5.077-0.559,7.422-1.68c2.422-1.225,4.453-2.799,6.094-4.727v18.789c-3.047,0.938-5.69,1.666-7.93,2.188
				c-1.953,0.416-3.921,0.625-5.898,0.625c-3.983,0-8.021-0.77-12.108-2.305c-1.276-0.494-2.508-1.066-3.691-1.719
				c-1.187-0.65-2.338-1.367-3.457-2.148c-1.12-0.781-2.253-1.68-3.398-2.695c-6.459-5.832-9.688-13.438-9.688-22.812
				c0-4.088,0.781-8.06,2.344-11.913c1.614-3.984,3.802-7.369,6.563-10.156c2.108-2.109,4.349-3.867,6.719-5.273
				c2.474-1.458,5.104-2.578,7.891-3.359c2.864-0.754,5.639-1.133,8.32-1.133C757.197,65.236,761.976,66.252,766.872,68.283z"/>
			<path fill="#3AB4FF" d="M792.224,90.119h22.656V66.838h15.664v60.313H814.88v-24.727h-22.656v24.727H776.56V66.838h15.664V90.119
				z"/>
		</g>
		<g>
			<path fill="#F51484" d="M267.677,89.479h31.133c-0.077,3.75-0.261,6.731-0.547,8.944c-0.209,2.215-0.795,4.727-1.758,7.539
				c-0.938,2.631-2.227,5.078-3.867,7.344c-5.625,7.891-13.905,11.836-24.844,11.836c-6.146,0-11.719-1.328-16.719-3.982
				c-5-2.734-8.789-6.498-11.367-11.289c-2.734-4.869-4.102-10.392-4.102-16.563c0-4.635,0.78-9.063,2.344-13.281
				c1.536-4.01,3.775-7.447,6.719-10.313c2.864-2.812,6.328-5,10.391-6.562c4.011-1.536,8.438-2.305,13.281-2.305
				c4.088,0,7.903,0.612,11.445,1.836c3.438,1.25,6.497,3.14,9.18,5.664c2.734,2.655,4.922,5.78,6.563,9.375l-14.883,6.211
				c-1.017-2.916-2.695-5.261-5.039-7.031c-2.24-1.692-4.909-2.539-8.009-2.539c-3.28,0-6.106,0.897-8.477,2.695
				c-2.396,1.928-4.181,4.312-5.353,7.147c-1.225,2.969-1.836,6.029-1.836,9.181c0,3.178,0.611,6.225,1.836,9.14
				c1.275,2.918,3.111,5.262,5.509,7.031c2.446,1.797,5.312,2.695,8.594,2.695c2.239,0,4.283-0.391,6.133-1.172
				c1.875-0.832,3.372-2.004,4.492-3.516c1.094-1.459,1.758-3.385,1.992-5.781h-12.813L267.677,89.479L267.677,89.479z"/>
			<path fill="#F51484" d="M340.333,76.119h-18.672v10.078h17.695v13.282h-17.695v10.392h18.672v13.279h-34.336V62.838h34.336
				V76.119z"/>
			<path fill="#F51484" d="M373.966,76.119v47.031h-15.664V76.119h-12.969V62.838h41.602v13.281H373.966z"/>
			<path fill="#F51484" d="M435.724,62.838v60.313H420.06V62.838H435.724z"/>
			<path fill="#F51484" d="M445.997,123.15V62.838h15.664l28.75,36.875h0.156V62.838h15.663v60.313h-15.663l-28.712-36.953h-0.194
				v36.953H445.997z"/>
			<path fill="#F51484" d="M567.872,76.119v47.031h-15.664V76.119h-12.969V62.838h41.602v13.281H567.872z"/>
			<path fill="#F51484" d="M616.856,60.847c4.399,0,8.594,0.741,12.577,2.228c4.063,1.561,7.63,3.725,10.703,6.483
				c3.021,2.709,5.481,6.017,7.384,9.922c1.797,3.672,2.694,7.8,2.694,12.383c0,4.818-0.795,9.245-2.383,13.28
				c-1.667,4.115-4.011,7.67-7.031,10.664c-1.615,1.615-3.281,2.982-5,4.104c-1.719,1.119-3.581,2.068-5.586,2.852
				c-4.037,1.588-8.49,2.383-13.359,2.383c-4.792,0-9.219-0.795-13.28-2.383c-4.115-1.615-7.656-3.932-10.625-6.953
				c-1.484-1.459-2.793-3.041-3.927-4.746c-1.133-1.705-2.168-3.678-3.104-5.918c-1.615-4.088-2.422-8.516-2.422-13.281
				c0-2.16,0.228-4.283,0.684-6.367c0.455-2.082,1.139-4.088,2.051-6.016c1.928-3.958,4.375-7.266,7.345-9.922
				c3.099-2.786,6.704-4.947,10.819-6.484C608.275,61.588,612.429,60.847,616.856,60.847z M616.856,76.041
				c-3.073,0-5.898,0.742-8.478,2.228c-2.709,1.562-4.792,3.517-6.25,5.858c-1.537,2.554-2.305,5.156-2.305,7.813
				c0,3.309,0.768,6.381,2.305,9.219c1.562,2.84,3.619,5,6.172,6.484c2.683,1.537,5.533,2.305,8.556,2.305
				c3.071,0,5.924-0.768,8.555-2.305c2.552-1.459,4.609-3.619,6.172-6.484c1.536-2.76,2.305-5.832,2.305-9.219
				c0-2.734-0.769-5.338-2.305-7.813c-1.484-2.369-3.568-4.321-6.25-5.858C622.78,76.783,619.955,76.041,616.856,76.041z"/>
			<path fill="#F51484" d="M694.161,62.838h15.664v33.906c0,1.563-0.026,2.943-0.078,4.141c-0.053,1.199-0.156,2.566-0.313,4.102
				c-0.261,2.449-0.847,4.768-1.758,6.953c-0.808,2.109-2.188,4.143-4.141,6.096c-1.667,1.588-3.594,2.891-5.781,3.904
				c-2.188,0.99-4.479,1.693-6.875,2.109c-2.448,0.469-4.896,0.703-7.344,0.703c-3.776,0-7.487-0.533-11.133-1.602
				c-1.798-0.547-3.412-1.236-4.845-2.07c-1.433-0.832-2.772-1.85-4.022-3.047c-1.953-1.953-3.348-3.984-4.181-6.094
				c-0.938-2.213-1.522-4.506-1.758-6.875c-0.261-2.656-0.391-5.43-0.391-8.32V62.838h15.664v31.759
				c0,3.229,0.221,6.028,0.663,8.397c0.364,2.137,1.342,4.023,2.931,5.664c1.562,1.563,3.919,2.344,7.069,2.344
				c3.125,0,5.47-0.781,7.031-2.344c1.563-1.563,2.553-3.449,2.969-5.664c0.416-2.447,0.625-5.246,0.625-8.397V62.838H694.161z"/>
			<path fill="#F51484" d="M762.872,64.283v18.789c-1.537-2.083-3.542-3.736-6.016-4.961c-2.423-1.119-5-1.68-7.734-1.68
				c-3.151,0-5.925,0.742-8.32,2.227c-2.5,1.434-4.428,3.438-5.781,6.016c-1.327,2.476-1.991,5.301-1.991,8.478
				c0,3.179,0.688,6.003,2.069,8.478c1.406,2.578,3.333,4.531,5.781,5.857c2.552,1.383,5.377,2.07,8.478,2.07
				c2.604,0,5.077-0.559,7.422-1.68c2.422-1.225,4.453-2.799,6.094-4.727v18.789c-3.047,0.938-5.69,1.666-7.93,2.188
				c-1.953,0.416-3.921,0.625-5.898,0.625c-3.983,0-8.021-0.77-12.108-2.305c-1.276-0.494-2.508-1.066-3.691-1.719
				c-1.187-0.65-2.338-1.367-3.457-2.148c-1.12-0.781-2.253-1.68-3.398-2.695c-6.459-5.832-9.688-13.438-9.688-22.812
				c0-4.088,0.781-8.06,2.344-11.913c1.614-3.984,3.802-7.369,6.563-10.156c2.108-2.109,4.349-3.867,6.719-5.273
				c2.474-1.458,5.104-2.578,7.891-3.359c2.864-0.754,5.639-1.133,8.32-1.133C753.197,61.236,757.976,62.252,762.872,64.283z"/>
			<path fill="#F51484" d="M788.224,86.119h22.656V62.838h15.664v60.313H810.88V98.424h-22.656v24.727H772.56V62.838h15.664V86.119z
				"/>
		</g>
	</g>
</g>
</svg>
