<?xml version="1.0" encoding="utf-8"?>
<!-- Generator: Adobe Illustrator 16.0.0, SVG Export Plug-In . SVG Version: 6.00 Build 0)  -->
<!DOCTYPE svg PUBLIC "-//W3C//DTD SVG 1.1//EN" "http://www.w3.org/Graphics/SVG/1.1/DTD/svg11.dtd">
<svg version="1.1" id="Layer_1" xmlns="http://www.w3.org/2000/svg" xmlns:xlink="http://www.w3.org/1999/xlink" x="0px" y="0px"
	 width="200px" height="100px" viewBox="0 0 200 100" enable-background="new 0 0 200 100" xml:space="preserve">
<g>
	<g>
		<g>
			<polygon fill="#FF1070" points="24.533,49.148 15.432,27.303 36.704,35.419 45.331,14.275 57.456,29.564 78.229,17.205 
				80.477,29.716 91.51,30.075 78.193,44.058 89.107,58.77 68.67,57.514 70.872,73.941 56.994,66.62 51.374,85.541 42.232,74.536 
				29.439,84.311 30.652,66.71 6.49,64.645 			"/>
		</g>
	</g>
	<g>
		<g>
			<polygon fill="#FF1070" points="42.404,72.999 30.723,81.926 31.841,65.693 9.232,63.759 25.875,49.467 17.461,29.271 
				37.325,36.849 45.643,16.465 57.186,31.023 77.417,18.988 79.54,30.802 88.986,31.111 76.736,43.969 86.782,57.508 
				67.383,56.314 69.479,71.945 56.313,64.999 50.898,83.223 			"/>
			<polygon fill="#6E1F75" points="42.924,68.404 34.557,74.798 35.395,62.65 17.434,61.111 29.887,50.42 23.525,35.154 
				39.18,41.129 46.574,23.009 56.385,35.381 74.984,24.316 76.734,34.047 81.434,34.2 72.384,43.701 79.833,53.739 63.539,52.736 
				65.313,65.977 54.271,60.148 49.479,76.292 			"/>
		</g>
	</g>
	<g>
		<path fill="#FF8A00" d="M26.555,68.777c-0.139-0.188-0.424-0.483-1.309-0.961c0.596-1.721,0.559-3.318-0.115-4.756
			c-0.162-0.352-0.316-0.625-0.474-0.845c-0.815-1.12-1.897-1.688-3.218-1.688c-0.385,0-0.793,0.049-1.205,0.146
			c-0.811,0.171-1.506,0.401-2.062,0.683c-0.122,0.06-0.419,0.222-1.69,0.99c-0.358,0.209-0.683,0.418-0.957,0.612
			c-1.152,0.821-2.449,1.929-3.854,3.289l-0.403,0.394l3.739,3.364l0.138-0.162c0.047,0.265,0.088,0.495,0.127,0.697
			c0.451,2.267,0.896,4.106,1.326,5.466c0.664,2.15,1.387,4.221,2.144,6.153l0.286,0.731l0.578-0.537
			c0.625-0.582,1.301-1.197,2.021-1.849l1.991-1.774c1.508-1.342,2.068-1.846,2.15-1.92l0.031-0.033
			c1.994-2.219,2.407-4.625,1.234-7.148C26.874,69.279,26.715,69.001,26.555,68.777z M20.529,72.489
			c0.018-0.011,0.046-0.024,0.08-0.039c0.104-0.052,0.185-0.097,0.25-0.142l0.238-0.168c0.487-0.351,0.732-0.449,0.844-0.479
			c0.211-0.062,0.399-0.093,0.563-0.093c0.355,0,0.512,0.15,0.604,0.279c0.218,0.295,0.433,0.797-0.181,1.729
			c-0.366,0.563-0.925,1.13-1.647,1.679l-0.158,0.115c-0.066-0.235-0.109-0.389-0.126-0.45c-0.158-0.749-0.279-1.378-0.358-1.869
			l-0.158-0.503C20.518,72.504,20.532,72.489,20.529,72.489z M21.042,66.999c-0.365,0.56-0.933,1.127-1.683,1.688l-0.137,0.104
			c-0.095-0.335-0.119-0.432-0.125-0.455c-0.168-0.713-0.281-1.333-0.336-1.842l-0.057-0.534c0.093-0.088,0.182-0.164,0.26-0.228
			l0.237-0.172c0.485-0.346,0.725-0.438,0.832-0.467c0.217-0.061,0.407-0.09,0.573-0.09c0.361,0,0.513,0.143,0.604,0.27
			C21.43,65.572,21.646,66.073,21.042,66.999z"/>
		<path fill="#FF8A00" d="M39.525,54.395c-0.354-0.484-0.865-0.98-1.53-1.479l0.446-1.173l-0.476-0.2
			c-2.672-1.116-5.542-0.624-8.468,1.461c-1.948,1.391-3.182,3.357-3.66,5.857c-0.459,2.436-0.098,4.729,1.073,6.826
			c0.269,0.459,0.541,0.883,0.817,1.266c1.312,1.805,2.869,2.963,4.639,3.438c0.553,0.15,1.109,0.229,1.656,0.229
			c1.367,0,2.718-0.469,4.014-1.393c2.18-1.556,3.466-3.586,3.824-6.037c0.324-2.211-0.121-4.578-1.33-7.031
			C40.146,55.371,39.816,54.793,39.525,54.395z M34.992,57.604c0.541,0.058,1.01,0.362,1.426,0.938
			c0.063,0.088,0.174,0.263,0.332,0.595c0.563,1.164,0.799,2.317,0.699,3.428c-0.107,1.207-0.624,2.125-1.575,2.804
			c-0.534,0.382-1.083,0.563-1.677,0.563l0,0c-0.258,0-0.529-0.037-0.805-0.105c-0.889-0.235-1.604-0.739-2.191-1.551
			c-0.126-0.172-0.262-0.398-0.407-0.683c-0.636-1.225-0.854-2.426-0.651-3.563c0.227-1.211,0.863-2.176,1.955-2.951
			c0.577-0.412,1.133-0.611,1.702-0.611c0.287,0,0.575,0.055,0.87,0.157l-0.424,0.905L34.992,57.604z"/>
		<path fill="#FF8A00" d="M53.891,44.157c-0.354-0.486-0.867-0.983-1.531-1.479l0.447-1.175l-0.474-0.196
			c-2.674-1.117-5.545-0.625-8.47,1.459c-1.949,1.388-3.182,3.359-3.659,5.86c-0.457,2.435-0.099,4.728,1.071,6.824
			c0.269,0.46,0.545,0.886,0.817,1.266c1.312,1.806,2.87,2.962,4.64,3.44c0.554,0.148,1.11,0.225,1.658,0.225
			c1.364,0,2.715-0.468,4.012-1.393c2.179-1.553,3.468-3.584,3.826-6.036c0.326-2.212-0.123-4.578-1.33-7.033
			C54.51,45.134,54.18,44.557,53.891,44.157z M49.355,47.369c0.543,0.054,1.01,0.36,1.428,0.936c0.064,0.088,0.175,0.262,0.33,0.595
			c0.563,1.165,0.801,2.317,0.701,3.427c-0.109,1.208-0.625,2.123-1.578,2.804c-0.77,0.545-1.574,0.693-2.48,0.456
			c-0.887-0.233-1.604-0.739-2.191-1.547c-0.123-0.172-0.26-0.401-0.404-0.687c-0.635-1.224-0.854-2.424-0.65-3.563
			c0.225-1.207,0.863-2.173,1.953-2.949c0.578-0.412,1.139-0.613,1.703-0.613c0.286,0,0.577,0.054,0.871,0.157l-0.426,0.909
			L49.355,47.369z"/>
		<path fill="#FF8A00" d="M73.374,37.658l-1.306-3.073c-0.579-1.381-0.904-2.157-0.974-2.331l-3.464-8.437l-0.563,0.465
			c-0.258,0.213-0.535,0.463-0.838,0.757c-0.146,0.152-0.53,0.582-1.166,1.301c-0.467,0.518-0.848,0.895-1.131,1.121l-0.093,0.074
			l-0.053,0.106c-0.427,0.869-0.767,2.024-1.015,3.437c-0.463,2.605-0.534,5.29-0.219,8c-0.726-0.745-1.587-1.521-2.578-2.323
			c-1.139-0.921-2.396-1.911-3.746-2.942l-0.396-0.303l-3.508,3.926l0.441,0.348c0.063,0.048,0.235,0.175,1.057,0.745
			c0.563,0.379,0.736,0.574,0.783,0.64c0,0.002,0.021,0.028,0.049,0.111c0.191,1.502,0.393,2.745,0.586,3.692
			c0.432,2.189,0.879,4.029,1.328,5.471c0.598,1.878,1.236,3.723,1.902,5.478l0.319,0.84l3.681-4.272l-0.189-0.325
			C61.596,49,61.057,47.59,60.682,45.97l-0.5-2.151c1.834,1.871,3.229,3.456,4.146,4.717c0.225,0.311,0.31,0.465,0.338,0.527
			l0.351,0.747l3.594-4.149l-0.101-0.289c-0.772-2.207-1.228-4.02-1.35-5.389c-0.21-2.332-0.222-3.855-0.146-4.852
			c0.17,0.552,0.326,1.032,0.473,1.44c0.601,1.72,1.019,2.948,1.242,3.65c0.754,2.334,1.391,4.181,1.885,5.488l0.326,0.865
			l4.158-5.086l-0.146-0.303C74.407,40.05,73.874,38.864,73.374,37.658z"/>
		<path fill="#FF8A00" d="M72.458,28.088c1.188,3.241,1.979,5.547,2.344,6.85l0.228,0.805l3.914-3.343l-1.231-3.729
			c-0.465-1.428-0.774-2.346-0.919-2.724c-0.938-2.608-1.652-4.237-2.189-4.98l-0.349-0.478l-0.444,0.395
			c-1.172,1.045-2.111,1.909-2.795,2.571L70.758,23.7l0.745,1.859C71.761,26.195,72.082,27.045,72.458,28.088z"/>
		<path fill="#FF8A00" d="M80.751,37.075c-0.599-1.477-1.011-2.552-1.231-3.192l-0.268-0.771l-3.863,3.562l0.107,0.325
			c0.404,1.197,0.872,2.455,1.387,3.736l0.34,0.834l0.572-0.695c0.999-1.215,1.928-2.276,2.752-3.143l0.332-0.335L80.751,37.075z"/>
	</g>
	<g>
		<path fill="#FFFFC8" d="M27.745,67.434c-0.188-0.266-0.704-0.604-1.538-1.017c0.713-1.761,0.736-3.356,0.064-4.79
			c-0.146-0.314-0.287-0.566-0.424-0.755c-0.928-1.276-2.22-1.724-3.875-1.336c-0.769,0.163-1.414,0.378-1.939,0.644
			c-0.152,0.069-0.702,0.396-1.65,0.969c-0.35,0.203-0.656,0.398-0.918,0.586c-1.136,0.811-2.4,1.89-3.794,3.238l2.911,2.615
			c0.152-0.184,0.33-0.402,0.527-0.666c0.121,0.791,0.227,1.413,0.313,1.861c0.449,2.259,0.887,4.063,1.313,5.412
			c0.664,2.15,1.375,4.188,2.131,6.121c0.629-0.586,1.305-1.205,2.027-1.859l1.99-1.773c1.348-1.197,2.061-1.834,2.143-1.91
			c1.849-2.057,2.23-4.248,1.149-6.575C28.029,67.88,27.887,67.627,27.745,67.434z M20.546,68.038
			c-0.217-0.771-0.331-1.181-0.344-1.235c-0.173-0.736-0.288-1.371-0.345-1.906l-0.9,0.133c0.52-0.633,0.961-1.094,1.322-1.381
			l0.238-0.168c0.424-0.304,0.758-0.484,1-0.549c0.819-0.229,1.406-0.102,1.754,0.379c0.479,0.657,0.424,1.433-0.154,2.32
			c-0.402,0.615-1.004,1.223-1.807,1.821L20.546,68.038z M25.002,72.213c-0.402,0.613-0.994,1.221-1.779,1.816l-0.779,0.568
			c-0.191-0.678-0.31-1.082-0.346-1.224c-0.162-0.771-0.283-1.399-0.363-1.894l-0.225-0.688c0.152-0.209,0.27-0.342,0.348-0.396
			c0.023-0.02,0.074-0.045,0.148-0.082c0.076-0.033,0.133-0.065,0.17-0.092l0.235-0.168c0.427-0.307,0.763-0.49,1.011-0.558
			c0.811-0.229,1.393-0.104,1.746,0.388C25.645,70.543,25.59,71.318,25.002,72.213z"/>
		<path fill="#FFFFC8" d="M40.717,53.047c-0.375-0.518-0.957-1.049-1.74-1.597l0.412-1.075c-2.518-1.05-5.166-0.583-7.951,1.4
			c-1.842,1.313-2.99,3.156-3.444,5.529c-0.438,2.319-0.103,4.475,1.01,6.461c0.261,0.445,0.522,0.854,0.789,1.221
			c1.243,1.711,2.688,2.791,4.344,3.242c1.789,0.479,3.528,0.117,5.22-1.088c2.064-1.475,3.271-3.369,3.608-5.686
			c0.312-2.113-0.116-4.354-1.282-6.725C41.309,53.984,40.99,53.421,40.717,53.047z M39.607,60.954
			c-0.121,1.356-0.721,2.418-1.797,3.187c-0.894,0.637-1.869,0.816-2.932,0.539c-1.003-0.265-1.833-0.848-2.486-1.75
			c-0.141-0.195-0.289-0.443-0.449-0.752c-0.69-1.334-0.924-2.634-0.7-3.9c0.249-1.336,0.971-2.432,2.168-3.285
			c1.18-0.842,2.378-0.938,3.598-0.287l-0.337,0.719c0.696,0.07,1.301,0.455,1.809,1.155c0.111,0.153,0.237,0.382,0.377,0.675
			C39.466,58.509,39.715,59.744,39.607,60.954z"/>
		<path fill="#FFFFC8" d="M55.082,42.812c-0.375-0.52-0.956-1.053-1.741-1.599l0.412-1.074c-2.517-1.049-5.165-0.582-7.95,1.401
			c-1.843,1.313-2.99,3.155-3.447,5.527c-0.437,2.321-0.099,4.476,1.014,6.464c0.259,0.445,0.521,0.854,0.789,1.221
			c1.24,1.711,2.689,2.792,4.343,3.238c1.789,0.48,3.526,0.119,5.22-1.086c2.065-1.473,3.271-3.365,3.606-5.684
			c0.313-2.116-0.115-4.354-1.281-6.726C55.674,43.747,55.354,43.185,55.082,42.812z M53.973,50.718
			c-0.123,1.358-0.721,2.421-1.797,3.185c-0.895,0.641-1.871,0.82-2.931,0.541c-1.003-0.264-1.833-0.848-2.488-1.752
			c-0.141-0.189-0.29-0.439-0.448-0.75c-0.689-1.334-0.925-2.631-0.701-3.899c0.248-1.337,0.972-2.433,2.168-3.285
			c1.181-0.841,2.379-0.937,3.597-0.287l-0.334,0.719c0.694,0.07,1.3,0.455,1.805,1.153c0.114,0.156,0.241,0.384,0.382,0.676
			C53.831,48.273,54.082,49.508,53.973,50.718z"/>
		<path fill="#FFFFC8" d="M73.203,33.134c-0.582-1.386-0.908-2.165-0.977-2.335l-3.188-7.765c-0.248,0.205-0.515,0.444-0.795,0.717
			c-0.144,0.147-0.527,0.577-1.152,1.288c-0.485,0.538-0.884,0.933-1.192,1.18c-0.404,0.828-0.729,1.926-0.969,3.296
			c-0.558,3.137-0.539,6.342,0.047,9.618c-0.865-1.119-2.104-2.328-3.707-3.623c-1.123-0.909-2.367-1.889-3.734-2.934l-2.805,3.137
			c0.086,0.065,0.428,0.307,1.021,0.724c0.473,0.314,0.773,0.571,0.92,0.77c0.051,0.067,0.094,0.167,0.139,0.302
			c0.192,1.516,0.392,2.751,0.586,3.708c0.431,2.181,0.869,3.983,1.313,5.411c0.599,1.879,1.229,3.695,1.896,5.45l2.846-3.304
			c-0.719-1.217-1.27-2.663-1.658-4.342l-0.861-3.705c0.092-0.064,0.504,0.28,1.236,1.038c1.876,1.908,3.282,3.511,4.225,4.807
			c0.191,0.265,0.32,0.469,0.39,0.613l2.854-3.294c-0.793-2.262-1.252-4.101-1.378-5.52c-0.34-3.788-0.225-6.092,0.351-6.912
			c0.393,1.376,0.729,2.47,1.015,3.281c0.608,1.742,1.024,2.962,1.248,3.664c0.758,2.339,1.383,4.159,1.875,5.462l3.356-4.106
			c-0.557-1.148-1.088-2.33-1.596-3.554L73.203,33.134z"/>
		<path fill="#FFFFC8" d="M80.641,32.399l-3.01,2.775c0.398,1.187,0.857,2.422,1.377,3.708c1.02-1.239,1.948-2.299,2.784-3.179
			l0.088-0.088C81.277,34.124,80.863,33.053,80.641,32.399z"/>
		<path fill="#FFFFC8" d="M78.829,27.178c-0.468-1.431-0.772-2.334-0.914-2.707c-0.911-2.541-1.62-4.156-2.122-4.849
			c-1.177,1.048-2.104,1.899-2.782,2.556l0.61,1.525c0.265,0.645,0.587,1.494,0.966,2.548c1.2,3.27,1.985,5.565,2.358,6.891
			l3.006-2.567L78.829,27.178z"/>
	</g>
</g>
<g>
	<g>
		<g>
			<polygon fill="#FF8A00" points="125.532,49.648 116.432,27.803 137.703,35.919 146.33,14.775 158.455,30.064 179.229,17.705 
				181.477,30.216 192.51,30.575 179.191,44.558 190.105,59.27 169.67,58.014 171.871,74.441 157.993,67.12 152.373,86.041 
				143.23,75.036 130.439,84.811 131.652,67.21 107.488,65.145 			"/>
		</g>
	</g>
	<g>
		<g>
			<polygon fill="#FBDC2E" points="143.404,73.499 131.723,82.426 132.841,66.193 110.232,64.259 126.875,49.967 118.461,29.771 
				138.324,37.349 146.643,16.965 158.186,31.523 178.417,19.488 180.539,31.302 189.984,31.611 177.736,44.469 187.781,58.008 
				168.383,56.814 170.479,72.445 157.313,65.499 151.898,83.723 			"/>
			<polygon fill="#FFFFC8" points="143.924,68.904 135.557,75.298 136.395,63.15 118.434,61.611 130.887,50.92 124.523,35.654 
				140.18,41.629 147.573,23.509 157.385,35.881 175.982,24.816 177.732,34.547 182.434,34.7 173.384,44.201 180.832,54.239 
				164.538,53.236 166.313,66.477 155.271,60.648 150.479,76.792 			"/>
		</g>
	</g>
	<g>
		<path fill="#6E1F75" d="M127.555,69.277c-0.139-0.188-0.424-0.483-1.309-0.961c0.596-1.721,0.559-3.318-0.115-4.756
			c-0.162-0.352-0.316-0.625-0.474-0.845c-0.815-1.12-1.897-1.688-3.218-1.688c-0.385,0-0.793,0.049-1.205,0.146
			c-0.811,0.171-1.506,0.401-2.062,0.683c-0.122,0.06-0.419,0.222-1.69,0.99c-0.358,0.209-0.683,0.418-0.957,0.612
			c-1.152,0.821-2.449,1.929-3.854,3.289l-0.403,0.394l3.739,3.364l0.138-0.162c0.047,0.265,0.088,0.495,0.127,0.697
			c0.451,2.267,0.896,4.106,1.326,5.466c0.664,2.15,1.387,4.221,2.144,6.153l0.286,0.731l0.578-0.537
			c0.625-0.582,1.301-1.197,2.021-1.849l1.991-1.774c1.508-1.342,2.068-1.846,2.15-1.92l0.031-0.033
			c1.994-2.219,2.407-4.625,1.234-7.148C127.873,69.779,127.715,69.501,127.555,69.277z M121.527,72.989
			c0.019-0.011,0.047-0.024,0.082-0.039c0.104-0.052,0.184-0.097,0.25-0.142l0.238-0.168c0.486-0.351,0.731-0.449,0.842-0.479
			c0.213-0.062,0.4-0.093,0.563-0.093c0.356,0,0.511,0.15,0.604,0.279c0.217,0.295,0.432,0.797-0.182,1.729
			c-0.367,0.563-0.925,1.13-1.646,1.679l-0.159,0.115c-0.065-0.235-0.11-0.389-0.126-0.45c-0.158-0.749-0.279-1.378-0.359-1.869
			l-0.156-0.503C121.518,73.004,121.531,72.989,121.527,72.989z M122.041,67.499c-0.365,0.56-0.932,1.127-1.684,1.688l-0.137,0.104
			c-0.094-0.335-0.117-0.432-0.125-0.455c-0.169-0.713-0.279-1.333-0.334-1.842l-0.058-0.534c0.093-0.088,0.183-0.164,0.26-0.228
			l0.237-0.172c0.486-0.346,0.725-0.438,0.832-0.467c0.217-0.061,0.408-0.09,0.572-0.09c0.361,0,0.514,0.143,0.604,0.27
			C122.43,66.072,122.646,66.573,122.041,67.499z"/>
		<path fill="#6E1F75" d="M140.523,54.895c-0.353-0.484-0.864-0.98-1.529-1.479l0.447-1.173l-0.477-0.2
			c-2.672-1.116-5.542-0.624-8.468,1.461c-1.948,1.391-3.181,3.357-3.66,5.857c-0.459,2.436-0.099,4.729,1.073,6.826
			c0.267,0.459,0.541,0.883,0.818,1.266c1.311,1.805,2.867,2.963,4.638,3.438c0.553,0.15,1.11,0.229,1.657,0.229
			c1.365,0,2.717-0.469,4.013-1.393c2.18-1.556,3.466-3.586,3.823-6.037c0.326-2.211-0.121-4.578-1.33-7.031
			C141.146,55.871,140.816,55.293,140.523,54.895z M135.991,58.104c0.541,0.058,1.01,0.362,1.426,0.938
			c0.063,0.088,0.174,0.263,0.332,0.595c0.563,1.164,0.799,2.317,0.699,3.428c-0.107,1.207-0.624,2.125-1.575,2.804
			c-0.534,0.382-1.083,0.563-1.678,0.563l0,0c-0.258,0-0.528-0.037-0.805-0.105c-0.888-0.235-1.604-0.739-2.19-1.551
			c-0.126-0.172-0.261-0.398-0.407-0.683c-0.636-1.225-0.854-2.426-0.65-3.563c0.226-1.211,0.862-2.176,1.953-2.951
			c0.578-0.412,1.135-0.611,1.703-0.611c0.287,0,0.575,0.055,0.87,0.157l-0.424,0.905L135.991,58.104z"/>
		<path fill="#6E1F75" d="M154.891,44.657c-0.354-0.486-0.867-0.983-1.531-1.479l0.447-1.175l-0.474-0.196
			c-2.674-1.117-5.545-0.625-8.47,1.459c-1.949,1.388-3.182,3.359-3.659,5.86c-0.457,2.435-0.099,4.728,1.071,6.824
			c0.269,0.46,0.545,0.886,0.817,1.266c1.312,1.806,2.87,2.962,4.64,3.44c0.554,0.148,1.11,0.225,1.658,0.225
			c1.364,0,2.715-0.468,4.012-1.393c2.179-1.553,3.468-3.584,3.826-6.036c0.326-2.212-0.123-4.578-1.33-7.033
			C155.51,45.634,155.18,45.057,154.891,44.657z M150.355,47.869c0.543,0.054,1.008,0.36,1.427,0.936
			c0.063,0.088,0.175,0.262,0.329,0.595c0.564,1.165,0.802,2.317,0.701,3.427c-0.108,1.208-0.623,2.123-1.576,2.804
			c-0.771,0.545-1.575,0.693-2.481,0.456c-0.887-0.233-1.604-0.739-2.19-1.547c-0.123-0.172-0.262-0.401-0.405-0.687
			c-0.636-1.224-0.854-2.424-0.65-3.563c0.226-1.207,0.863-2.173,1.953-2.949c0.578-0.412,1.138-0.613,1.703-0.613
			c0.286,0,0.577,0.054,0.871,0.157l-0.425,0.909L150.355,47.869z"/>
		<path fill="#6E1F75" d="M174.373,38.158l-1.305-3.073c-0.58-1.381-0.905-2.157-0.976-2.331l-3.463-8.437l-0.563,0.465
			c-0.258,0.213-0.534,0.463-0.838,0.757c-0.146,0.152-0.529,0.582-1.166,1.301c-0.467,0.518-0.847,0.895-1.129,1.121l-0.094,0.074
			l-0.053,0.106c-0.426,0.869-0.766,2.024-1.016,3.437c-0.461,2.605-0.533,5.29-0.22,8c-0.724-0.745-1.584-1.521-2.577-2.323
			c-1.138-0.921-2.396-1.911-3.744-2.942l-0.396-0.303l-3.508,3.926l0.443,0.348c0.061,0.048,0.233,0.175,1.055,0.745
			c0.564,0.379,0.736,0.574,0.783,0.64c0,0.002,0.021,0.028,0.049,0.111c0.193,1.502,0.393,2.745,0.586,3.692
			c0.432,2.189,0.879,4.029,1.328,5.471c0.598,1.877,1.238,3.723,1.904,5.478l0.317,0.84l3.681-4.272l-0.189-0.323
			c-0.688-1.164-1.225-2.574-1.6-4.194l-0.5-2.151c1.834,1.871,3.228,3.456,4.144,4.717c0.224,0.311,0.308,0.465,0.338,0.527
			l0.351,0.747l3.594-4.149l-0.102-0.289c-0.771-2.207-1.227-4.02-1.349-5.389c-0.21-2.332-0.222-3.855-0.144-4.852
			c0.17,0.552,0.324,1.032,0.471,1.44c0.601,1.72,1.019,2.948,1.242,3.65c0.756,2.334,1.391,4.181,1.886,5.488l0.327,0.865
			l4.158-5.086l-0.147-0.303C175.406,40.55,174.873,39.364,174.373,38.158z"/>
		<path fill="#6E1F75" d="M173.457,28.588c1.189,3.241,1.979,5.547,2.344,6.85l0.229,0.805l3.914-3.343l-1.232-3.729
			c-0.465-1.428-0.773-2.346-0.919-2.724c-0.938-2.608-1.651-4.237-2.19-4.98l-0.348-0.478l-0.443,0.395
			c-1.174,1.045-2.113,1.909-2.795,2.571l-0.26,0.245l0.745,1.859C172.762,26.695,173.081,27.545,173.457,28.588z"/>
		<path fill="#6E1F75" d="M181.751,37.575c-0.599-1.477-1.011-2.552-1.231-3.192l-0.268-0.771l-3.863,3.562l0.107,0.325
			c0.404,1.197,0.872,2.455,1.387,3.736l0.34,0.834l0.572-0.695c0.999-1.215,1.928-2.276,2.752-3.143l0.332-0.335L181.751,37.575z"
			/>
	</g>
	<g>
		<path fill="#FF1070" d="M128.744,67.934c-0.189-0.266-0.704-0.604-1.538-1.017c0.713-1.761,0.735-3.356,0.065-4.79
			c-0.146-0.314-0.287-0.566-0.424-0.755c-0.929-1.276-2.221-1.724-3.877-1.336c-0.768,0.163-1.412,0.378-1.938,0.644
			c-0.152,0.069-0.702,0.396-1.65,0.969c-0.35,0.203-0.655,0.398-0.918,0.586c-1.136,0.811-2.401,1.89-3.794,3.238l2.911,2.615
			c0.153-0.184,0.33-0.402,0.526-0.666c0.123,0.791,0.228,1.413,0.313,1.861c0.449,2.259,0.887,4.063,1.313,5.412
			c0.666,2.15,1.375,4.188,2.131,6.121c0.629-0.586,1.305-1.205,2.029-1.859l1.988-1.773c1.348-1.197,2.063-1.834,2.145-1.91
			c1.847-2.057,2.229-4.248,1.147-6.575C129.029,68.38,128.887,68.127,128.744,67.934z M121.546,68.538
			c-0.217-0.771-0.331-1.181-0.344-1.235c-0.173-0.736-0.288-1.371-0.345-1.906l-0.9,0.133c0.52-0.633,0.961-1.094,1.322-1.381
			l0.238-0.168c0.424-0.304,0.758-0.484,1-0.549c0.819-0.229,1.406-0.102,1.754,0.379c0.479,0.657,0.424,1.433-0.154,2.32
			c-0.402,0.615-1.004,1.223-1.807,1.821L121.546,68.538z M126.002,72.713c-0.402,0.613-0.994,1.221-1.779,1.816l-0.779,0.568
			c-0.191-0.678-0.31-1.082-0.346-1.224c-0.162-0.771-0.283-1.399-0.363-1.894l-0.225-0.688c0.152-0.209,0.27-0.342,0.348-0.396
			c0.023-0.02,0.074-0.045,0.148-0.082c0.076-0.033,0.133-0.065,0.17-0.092l0.235-0.168c0.427-0.307,0.763-0.49,1.011-0.558
			c0.811-0.229,1.393-0.104,1.746,0.388C126.645,71.043,126.59,71.818,126.002,72.713z"/>
		<path fill="#FF1070" d="M141.717,53.547c-0.375-0.518-0.957-1.049-1.74-1.597l0.412-1.075c-2.518-1.05-5.166-0.583-7.951,1.4
			c-1.842,1.313-2.989,3.156-3.444,5.529c-0.438,2.319-0.103,4.475,1.01,6.461c0.261,0.445,0.522,0.854,0.789,1.221
			c1.243,1.711,2.688,2.791,4.344,3.242c1.789,0.479,3.528,0.117,5.22-1.088c2.064-1.475,3.271-3.369,3.608-5.686
			c0.312-2.113-0.116-4.354-1.282-6.725C142.309,54.484,141.988,53.921,141.717,53.547z M140.607,61.454
			c-0.123,1.356-0.721,2.418-1.797,3.187c-0.895,0.637-1.871,0.816-2.933,0.539c-1.003-0.265-1.833-0.848-2.485-1.75
			c-0.142-0.195-0.291-0.443-0.449-0.752c-0.691-1.334-0.926-2.634-0.701-3.9c0.249-1.336,0.971-2.432,2.168-3.285
			c1.18-0.842,2.378-0.938,3.598-0.287l-0.337,0.719c0.696,0.07,1.3,0.455,1.808,1.155c0.112,0.153,0.238,0.382,0.379,0.675
			C140.466,59.009,140.715,60.244,140.607,61.454z"/>
		<path fill="#FF1070" d="M156.081,43.312c-0.375-0.52-0.956-1.053-1.741-1.599l0.412-1.074c-2.518-1.049-5.165-0.582-7.95,1.401
			c-1.843,1.313-2.991,3.155-3.446,5.527c-0.438,2.321-0.1,4.476,1.013,6.464c0.259,0.445,0.521,0.854,0.789,1.221
			c1.239,1.711,2.688,2.792,4.343,3.238c1.789,0.48,3.527,0.119,5.219-1.086c2.066-1.473,3.271-3.365,3.607-5.684
			c0.313-2.116-0.115-4.354-1.281-6.726C156.674,44.247,156.354,43.685,156.081,43.312z M154.973,51.218
			c-0.123,1.358-0.721,2.421-1.797,3.185c-0.895,0.641-1.871,0.82-2.931,0.541c-1.003-0.264-1.833-0.848-2.488-1.752
			c-0.141-0.189-0.29-0.439-0.448-0.75c-0.689-1.334-0.925-2.631-0.701-3.899c0.248-1.337,0.972-2.433,2.168-3.285
			c1.181-0.841,2.379-0.937,3.597-0.287l-0.334,0.719c0.694,0.07,1.3,0.455,1.805,1.153c0.114,0.156,0.241,0.384,0.382,0.676
			C154.83,48.773,155.081,50.008,154.973,51.218z"/>
		<path fill="#FF1070" d="M174.202,33.634c-0.582-1.386-0.908-2.165-0.976-2.335l-3.188-7.765c-0.248,0.205-0.513,0.444-0.795,0.717
			c-0.144,0.147-0.527,0.577-1.152,1.288c-0.487,0.538-0.884,0.933-1.192,1.18c-0.404,0.828-0.729,1.926-0.971,3.296
			c-0.556,3.137-0.539,6.342,0.049,9.618c-0.867-1.119-2.104-2.328-3.709-3.623c-1.123-0.909-2.367-1.889-3.732-2.934l-2.805,3.137
			c0.086,0.065,0.428,0.307,1.021,0.724c0.471,0.314,0.775,0.571,0.92,0.77c0.049,0.067,0.094,0.167,0.139,0.302
			c0.192,1.516,0.392,2.751,0.586,3.708c0.431,2.181,0.867,3.983,1.313,5.411c0.597,1.879,1.229,3.695,1.896,5.45l2.847-3.304
			c-0.718-1.217-1.269-2.663-1.658-4.342l-0.862-3.705c0.094-0.064,0.506,0.28,1.237,1.038c1.876,1.908,3.282,3.511,4.224,4.807
			c0.192,0.265,0.321,0.469,0.391,0.613l2.854-3.294c-0.791-2.262-1.251-4.101-1.377-5.52c-0.34-3.788-0.225-6.092,0.352-6.912
			c0.392,1.376,0.729,2.47,1.014,3.281c0.609,1.742,1.025,2.962,1.248,3.664c0.758,2.339,1.383,4.159,1.875,5.462l3.355-4.106
			c-0.556-1.148-1.088-2.33-1.595-3.554L174.202,33.634z"/>
		<path fill="#FF1070" d="M181.641,32.899l-3.01,2.775c0.398,1.187,0.857,2.422,1.377,3.708c1.02-1.239,1.948-2.299,2.784-3.179
			l0.088-0.088C182.277,34.624,181.863,33.553,181.641,32.899z"/>
		<path fill="#FF1070" d="M179.828,27.678c-0.469-1.431-0.773-2.334-0.914-2.707c-0.911-2.541-1.62-4.156-2.122-4.849
			c-1.177,1.048-2.103,1.899-2.782,2.556l0.61,1.525c0.265,0.645,0.587,1.494,0.966,2.548c1.2,3.27,1.984,5.565,2.357,6.891
			l3.007-2.567L179.828,27.678z"/>
	</g>
</g>
</svg>
