<?xml version="1.0" encoding="utf-8"?>
<!-- Generator: Adobe Illustrator 16.0.0, SVG Export Plug-In . SVG Version: 6.00 Build 0)  -->
<!DOCTYPE svg PUBLIC "-//W3C//DTD SVG 1.1//EN" "http://www.w3.org/Graphics/SVG/1.1/DTD/svg11.dtd">
<svg version="1.1" id="Layer_1" xmlns="http://www.w3.org/2000/svg" xmlns:xlink="http://www.w3.org/1999/xlink" x="0px" y="0px"
	 width="200px" height="100px" viewBox="0 0 200 100" enable-background="new 0 0 200 100" xml:space="preserve">
<g>
	<g>
		<g>
			<polygon fill="#FF1070" points="25.533,49.148 16.432,27.303 37.704,35.419 46.331,14.275 58.456,29.564 79.229,17.205 
				81.477,29.716 92.51,30.075 79.193,44.058 90.107,58.769 69.67,57.513 71.872,73.942 57.994,66.62 52.374,85.541 43.232,74.536 
				30.44,84.311 31.653,66.71 7.49,64.644 			"/>
		</g>
	</g>
	<g>
		<g>
			<polygon fill="#FF1070" points="43.405,72.999 31.722,81.926 32.841,65.693 10.233,63.759 26.875,49.467 18.461,29.271 
				38.325,36.849 46.642,16.465 58.186,31.023 78.417,18.988 80.54,30.802 89.986,31.111 77.737,43.969 87.782,57.508 
				68.383,56.314 70.478,71.946 57.313,64.999 51.899,83.223 			"/>
			<polygon fill="#6E1F75" points="43.924,68.404 35.557,74.798 36.395,62.65 18.434,61.112 30.886,50.42 24.525,35.154 
				40.18,41.129 47.574,23.009 57.385,35.381 75.984,24.316 77.734,34.047 82.434,34.2 73.384,43.701 80.833,53.739 64.539,52.737 
				66.312,65.977 55.272,60.148 50.479,76.292 			"/>
		</g>
	</g>
	<g>
		<path fill="#FF8A00" d="M27.554,68.778c-0.138-0.188-0.423-0.484-1.308-0.961c0.596-1.722,0.559-3.319-0.115-4.756
			c-0.162-0.351-0.317-0.626-0.474-0.844c-0.815-1.121-1.897-1.69-3.218-1.69c-0.384,0-0.793,0.049-1.204,0.146
			c-0.81,0.171-1.506,0.401-2.061,0.682c-0.122,0.059-0.419,0.221-1.691,0.991c-0.359,0.209-0.682,0.417-0.957,0.612
			c-1.153,0.822-2.45,1.929-3.854,3.289l-0.405,0.394l3.741,3.364l0.137-0.162c0.047,0.265,0.088,0.495,0.127,0.697
			c0.45,2.267,0.896,4.106,1.326,5.466c0.664,2.15,1.386,4.22,2.143,6.153l0.287,0.732l0.578-0.537
			c0.625-0.582,1.3-1.198,2.02-1.848l1.991-1.775c1.508-1.343,2.069-1.845,2.151-1.921l0.032-0.032
			c1.994-2.219,2.407-4.625,1.234-7.149C27.874,69.279,27.715,69.001,27.554,68.778z M21.529,72.489
			c0.018-0.011,0.046-0.024,0.081-0.039c0.104-0.051,0.184-0.096,0.25-0.142l0.238-0.168c0.488-0.349,0.733-0.448,0.843-0.478
			c0.212-0.06,0.401-0.091,0.564-0.091c0.357,0,0.51,0.149,0.603,0.278c0.217,0.295,0.432,0.798-0.18,1.729
			c-0.368,0.562-0.925,1.13-1.648,1.679l-0.159,0.115c-0.066-0.235-0.11-0.388-0.126-0.45c-0.158-0.749-0.279-1.378-0.359-1.869
			l-0.157-0.503C21.518,72.504,21.532,72.489,21.529,72.489z M22.042,66.999c-0.365,0.56-0.932,1.127-1.683,1.689l-0.137,0.104
			c-0.093-0.335-0.118-0.431-0.125-0.455c-0.168-0.713-0.28-1.333-0.335-1.842l-0.056-0.534c0.093-0.088,0.181-0.164,0.26-0.227
			l0.237-0.171c0.487-0.346,0.725-0.44,0.832-0.468c0.217-0.06,0.409-0.089,0.574-0.089c0.361,0,0.512,0.143,0.604,0.269
			C22.43,65.572,22.647,66.073,22.042,66.999z"/>
		<path fill="#FF8A00" d="M40.525,54.394c-0.352-0.485-0.865-0.981-1.53-1.479l0.447-1.173l-0.475-0.2
			c-2.672-1.116-5.542-0.624-8.468,1.461c-1.948,1.39-3.18,3.359-3.66,5.859c-0.459,2.434-0.098,4.728,1.073,6.825
			c0.267,0.459,0.541,0.884,0.819,1.265c1.31,1.805,2.868,2.963,4.637,3.439c0.553,0.15,1.111,0.227,1.658,0.227
			c1.366,0,2.716-0.468,4.012-1.391c2.18-1.556,3.466-3.586,3.825-6.038c0.325-2.211-0.122-4.577-1.331-7.032
			C41.146,55.371,40.817,54.793,40.525,54.394z M35.992,57.604c0.541,0.056,1.01,0.362,1.426,0.938
			c0.063,0.088,0.174,0.263,0.332,0.595c0.563,1.164,0.799,2.317,0.699,3.427c-0.107,1.208-0.624,2.125-1.575,2.803
			c-0.534,0.382-1.083,0.565-1.677,0.565l0,0c-0.258,0-0.529-0.037-0.805-0.107c-0.887-0.235-1.604-0.739-2.191-1.55
			c-0.126-0.171-0.261-0.399-0.407-0.682c-0.636-1.225-0.854-2.426-0.651-3.564c0.225-1.21,0.863-2.175,1.954-2.952
			c0.578-0.412,1.134-0.611,1.703-0.611c0.287,0,0.575,0.054,0.87,0.157l-0.424,0.907L35.992,57.604z"/>
		<path fill="#FF8A00" d="M54.89,44.157c-0.354-0.486-0.866-0.983-1.531-1.479l0.448-1.175l-0.474-0.196
			c-2.674-1.117-5.545-0.625-8.47,1.459c-1.949,1.388-3.182,3.359-3.659,5.86c-0.457,2.435-0.099,4.728,1.072,6.824
			c0.268,0.46,0.545,0.886,0.818,1.266c1.31,1.806,2.87,2.962,4.639,3.44c0.553,0.149,1.111,0.225,1.657,0.225
			c1.366,0,2.715-0.468,4.012-1.393c2.179-1.552,3.468-3.584,3.826-6.036c0.326-2.212-0.123-4.578-1.33-7.033
			C55.51,45.134,55.18,44.557,54.89,44.157z M50.356,47.369c0.543,0.054,1.009,0.36,1.427,0.936c0.064,0.088,0.175,0.262,0.33,0.595
			c0.565,1.165,0.801,2.317,0.701,3.427c-0.109,1.208-0.624,2.123-1.577,2.804c-0.769,0.545-1.575,0.693-2.481,0.456
			c-0.887-0.233-1.604-0.739-2.191-1.547c-0.123-0.172-0.261-0.401-0.406-0.686c-0.634-1.223-0.854-2.424-0.65-3.564
			c0.224-1.207,0.863-2.173,1.953-2.949c0.578-0.412,1.137-0.613,1.703-0.613c0.286,0,0.577,0.054,0.871,0.157l-0.424,0.909
			L50.356,47.369z"/>
		<path fill="#FF8A00" d="M74.374,37.658l-1.305-3.073c-0.58-1.381-0.905-2.157-0.974-2.331l-3.463-8.437l-0.562,0.465
			c-0.258,0.213-0.536,0.463-0.838,0.757c-0.147,0.152-0.531,0.582-1.166,1.301c-0.467,0.518-0.847,0.895-1.13,1.121l-0.093,0.074
			l-0.053,0.106c-0.426,0.869-0.766,2.024-1.015,3.437c-0.462,2.605-0.534,5.29-0.219,8c-0.724-0.745-1.585-1.521-2.578-2.323
			c-1.137-0.921-2.396-1.911-3.745-2.942l-0.396-0.303l-3.508,3.926l0.443,0.348c0.061,0.048,0.235,0.175,1.055,0.745
			c0.564,0.379,0.737,0.574,0.784,0.64c0,0.002,0.02,0.028,0.048,0.111c0.193,1.502,0.393,2.745,0.586,3.692
			c0.432,2.189,0.879,4.029,1.328,5.471c0.598,1.878,1.238,3.723,1.904,5.478l0.319,0.84l3.68-4.272l-0.19-0.325
			c-0.687-1.164-1.225-2.574-1.6-4.194l-0.5-2.151c1.834,1.871,3.228,3.456,4.144,4.717c0.224,0.311,0.308,0.465,0.338,0.527
			l0.35,0.747l3.594-4.149l-0.101-0.289c-0.772-2.207-1.227-4.02-1.349-5.389c-0.21-2.332-0.221-3.855-0.144-4.852
			c0.17,0.552,0.326,1.032,0.471,1.44c0.601,1.72,1.019,2.948,1.243,3.65c0.755,2.334,1.39,4.181,1.885,5.488l0.327,0.865
			l4.158-5.086l-0.147-0.303C75.407,40.05,74.874,38.864,74.374,37.658z"/>
		<path fill="#FF8A00" d="M73.458,28.088c1.189,3.241,1.979,5.547,2.344,6.85l0.228,0.805l3.914-3.343l-1.233-3.729
			c-0.465-1.428-0.775-2.346-0.919-2.724c-0.937-2.608-1.653-4.237-2.191-4.98l-0.347-0.478l-0.445,0.395
			c-1.172,1.045-2.112,1.909-2.795,2.571l-0.257,0.245l0.745,1.859C72.761,26.195,73.082,27.045,73.458,28.088z"/>
		<path fill="#FF8A00" d="M81.751,37.075c-0.598-1.477-1.011-2.552-1.232-3.192l-0.267-0.771l-3.864,3.562l0.108,0.325
			c0.404,1.197,0.872,2.455,1.387,3.736l0.339,0.834l0.573-0.695c0.999-1.215,1.928-2.276,2.752-3.143l0.332-0.335L81.751,37.075z"
			/>
	</g>
	<g>
		<path fill="#FFFFC8" d="M28.745,67.433c-0.189-0.265-0.704-0.603-1.538-1.016c0.713-1.761,0.736-3.356,0.065-4.79
			c-0.146-0.315-0.287-0.567-0.424-0.755c-0.927-1.276-2.219-1.723-3.876-1.336c-0.767,0.163-1.413,0.378-1.939,0.643
			c-0.152,0.07-0.702,0.395-1.65,0.969c-0.35,0.204-0.656,0.399-0.918,0.587c-1.136,0.809-2.401,1.888-3.794,3.238l2.911,2.615
			c0.153-0.183,0.33-0.403,0.527-0.666c0.122,0.791,0.227,1.413,0.313,1.861c0.449,2.259,0.886,4.062,1.312,5.413
			c0.665,2.15,1.375,4.189,2.13,6.12c0.629-0.585,1.305-1.204,2.029-1.859l1.99-1.773c1.347-1.198,2.061-1.834,2.143-1.91
			c1.847-2.057,2.23-4.248,1.149-6.577C29.03,67.88,28.887,67.627,28.745,67.433z M21.546,68.038
			c-0.217-0.771-0.331-1.181-0.344-1.235c-0.172-0.736-0.288-1.371-0.345-1.906l-0.9,0.133c0.519-0.634,0.961-1.094,1.323-1.381
			l0.238-0.169c0.424-0.303,0.758-0.485,0.999-0.548c0.821-0.229,1.408-0.102,1.755,0.379c0.479,0.657,0.424,1.431-0.155,2.32
			c-0.402,0.615-1.004,1.223-1.806,1.821L21.546,68.038z M26.002,72.213c-0.402,0.613-0.994,1.221-1.779,1.817l-0.779,0.567
			c-0.193-0.676-0.31-1.081-0.346-1.222c-0.162-0.769-0.284-1.401-0.364-1.893l-0.224-0.689c0.152-0.209,0.269-0.342,0.347-0.397
			c0.024-0.018,0.075-0.045,0.149-0.082c0.076-0.033,0.133-0.065,0.17-0.091l0.235-0.169c0.427-0.305,0.763-0.489,1.011-0.556
			c0.81-0.229,1.393-0.103,1.746,0.388C26.645,70.543,26.59,71.318,26.002,72.213z"/>
		<path fill="#FFFFC8" d="M41.717,53.047c-0.375-0.517-0.957-1.049-1.74-1.597l0.412-1.075c-2.518-1.05-5.167-0.583-7.952,1.401
			c-1.842,1.312-2.99,3.155-3.445,5.528c-0.437,2.321-0.101,4.476,1.01,6.462c0.26,0.446,0.524,0.854,0.789,1.221
			c1.243,1.71,2.69,2.79,4.344,3.241c1.789,0.479,3.528,0.117,5.219-1.087c2.065-1.474,3.271-3.369,3.609-5.685
			c0.311-2.113-0.117-4.354-1.284-6.724C42.309,53.984,41.99,53.421,41.717,53.047z M40.608,60.954
			c-0.122,1.356-0.721,2.418-1.797,3.187c-0.893,0.637-1.87,0.816-2.931,0.539c-1.003-0.265-1.833-0.848-2.487-1.75
			c-0.14-0.195-0.29-0.444-0.449-0.752c-0.691-1.334-0.925-2.634-0.701-3.9c0.249-1.337,0.971-2.433,2.168-3.287
			c1.18-0.84,2.378-0.936,3.598-0.287l-0.337,0.719c0.696,0.07,1.3,0.455,1.808,1.155c0.112,0.155,0.238,0.382,0.378,0.675
			C40.466,58.509,40.715,59.744,40.608,60.954z"/>
		<path fill="#FFFFC8" d="M56.082,42.812c-0.375-0.52-0.956-1.053-1.741-1.599l0.412-1.074c-2.517-1.049-5.165-0.582-7.95,1.401
			c-1.843,1.313-2.991,3.155-3.447,5.527c-0.437,2.321-0.099,4.476,1.012,6.464c0.259,0.446,0.522,0.854,0.789,1.221
			c1.241,1.711,2.69,2.792,4.343,3.238c1.789,0.481,3.528,0.119,5.219-1.085c2.066-1.474,3.27-3.366,3.607-5.685
			c0.312-2.114-0.115-4.354-1.281-6.724C56.674,43.747,56.353,43.185,56.082,42.812z M54.972,50.718
			c-0.122,1.358-0.72,2.42-1.796,3.185c-0.895,0.639-1.871,0.819-2.931,0.541c-1.003-0.264-1.833-0.848-2.488-1.752
			c-0.141-0.191-0.29-0.441-0.448-0.75c-0.691-1.334-0.925-2.633-0.701-3.901c0.247-1.337,0.97-2.433,2.168-3.285
			c1.179-0.841,2.378-0.937,3.595-0.287l-0.334,0.719c0.696,0.07,1.3,0.455,1.805,1.153c0.114,0.156,0.241,0.384,0.381,0.676
			C54.831,48.273,55.082,49.508,54.972,50.718z"/>
		<path fill="#FFFFC8" d="M74.203,33.134c-0.582-1.386-0.908-2.165-0.976-2.335l-3.188-7.765c-0.248,0.205-0.513,0.444-0.795,0.717
			c-0.143,0.147-0.527,0.577-1.152,1.288c-0.487,0.538-0.884,0.933-1.193,1.18c-0.405,0.828-0.729,1.926-0.97,3.296
			c-0.556,3.137-0.539,6.342,0.048,9.618c-0.866-1.119-2.104-2.328-3.708-3.623c-1.123-0.909-2.367-1.889-3.734-2.934l-2.804,3.137
			c0.086,0.065,0.427,0.307,1.022,0.724c0.471,0.314,0.775,0.571,0.92,0.77c0.049,0.067,0.093,0.167,0.138,0.302
			c0.193,1.516,0.391,2.751,0.586,3.708c0.43,2.181,0.868,3.983,1.314,5.411c0.597,1.879,1.229,3.695,1.896,5.45l2.845-3.304
			c-0.717-1.217-1.268-2.663-1.658-4.342l-0.863-3.705c0.093-0.064,0.505,0.28,1.238,1.038c1.876,1.908,3.282,3.511,4.223,4.807
			c0.193,0.265,0.322,0.469,0.39,0.613l2.854-3.294c-0.792-2.262-1.251-4.101-1.377-5.52c-0.34-3.788-0.225-6.092,0.351-6.912
			c0.391,1.376,0.728,2.47,1.013,3.281c0.61,1.742,1.026,2.962,1.248,3.664c0.758,2.339,1.383,4.159,1.875,5.462l3.357-4.106
			c-0.556-1.148-1.088-2.33-1.595-3.554L74.203,33.134z"/>
		<path fill="#FFFFC8" d="M81.64,32.399l-3.009,2.775c0.398,1.187,0.858,2.422,1.377,3.708c1.02-1.239,1.948-2.299,2.784-3.179
			l0.088-0.088C82.278,34.124,81.864,33.053,81.64,32.399z"/>
		<path fill="#FFFFC8" d="M79.829,27.178c-0.468-1.431-0.773-2.334-0.914-2.707c-0.911-2.541-1.62-4.156-2.122-4.849
			c-1.177,1.048-2.103,1.899-2.782,2.556l0.61,1.525c0.265,0.645,0.587,1.494,0.966,2.548c1.2,3.27,1.985,5.565,2.358,6.891
			l3.006-2.567L79.829,27.178z"/>
	</g>
</g>
<g>
	<g>
		<g>
			<polygon fill="#FF8A00" points="125.532,49.648 116.432,27.803 137.703,35.919 146.33,14.775 158.455,30.064 179.229,17.705 
				181.477,30.216 192.51,30.575 179.192,44.558 190.106,59.269 169.67,58.013 171.871,74.442 157.993,67.12 152.373,86.041 
				143.231,75.036 130.439,84.811 131.652,67.21 107.489,65.144 			"/>
		</g>
	</g>
	<g>
		<g>
			<polygon fill="#FBDC2E" points="143.404,73.499 131.722,82.426 132.841,66.193 110.232,64.259 126.875,49.967 118.461,29.771 
				138.324,37.349 146.642,16.965 158.186,31.523 178.417,19.488 180.539,31.302 189.985,31.611 177.736,44.469 187.781,58.008 
				168.383,56.814 170.478,72.446 157.312,65.499 151.898,83.723 			"/>
			<polygon fill="#FFFFC8" points="143.924,68.904 135.557,75.298 136.395,63.15 118.434,61.612 130.886,50.92 124.524,35.654 
				140.18,41.629 147.573,23.509 157.385,35.881 175.983,24.816 177.733,34.547 182.434,34.7 173.384,44.201 180.832,54.239 
				164.538,53.237 166.312,66.477 155.271,60.648 150.479,76.792 			"/>
		</g>
	</g>
	<g>
		<path fill="#6E1F75" d="M127.554,69.278c-0.138-0.188-0.423-0.484-1.308-0.961c0.596-1.722,0.559-3.319-0.115-4.756
			c-0.162-0.351-0.317-0.626-0.474-0.844c-0.815-1.121-1.897-1.69-3.218-1.69c-0.384,0-0.793,0.049-1.204,0.146
			c-0.81,0.171-1.506,0.401-2.061,0.682c-0.122,0.059-0.419,0.221-1.691,0.991c-0.359,0.209-0.682,0.417-0.957,0.612
			c-1.153,0.822-2.45,1.929-3.854,3.289l-0.405,0.394l3.741,3.364l0.137-0.162c0.047,0.265,0.088,0.495,0.127,0.697
			c0.45,2.267,0.896,4.106,1.326,5.466c0.664,2.15,1.386,4.22,2.143,6.153l0.287,0.732l0.578-0.537
			c0.625-0.582,1.3-1.198,2.02-1.848l1.991-1.775c1.508-1.343,2.069-1.845,2.151-1.921l0.032-0.032
			c1.994-2.219,2.407-4.625,1.234-7.149C127.873,69.779,127.715,69.501,127.554,69.278z M121.528,72.989
			c0.018-0.011,0.046-0.024,0.081-0.039c0.104-0.051,0.184-0.096,0.25-0.142l0.238-0.168c0.488-0.349,0.733-0.448,0.843-0.478
			c0.212-0.06,0.401-0.091,0.564-0.091c0.357,0,0.51,0.149,0.603,0.278c0.217,0.295,0.432,0.798-0.18,1.729
			c-0.368,0.562-0.925,1.13-1.648,1.679l-0.159,0.115c-0.066-0.235-0.11-0.388-0.126-0.45c-0.158-0.749-0.279-1.378-0.359-1.869
			l-0.157-0.503C121.518,73.004,121.531,72.989,121.528,72.989z M122.041,67.499c-0.365,0.56-0.932,1.127-1.683,1.689l-0.137,0.104
			c-0.093-0.335-0.118-0.431-0.125-0.455c-0.168-0.713-0.28-1.333-0.335-1.842l-0.056-0.534c0.093-0.088,0.181-0.164,0.26-0.227
			l0.237-0.171c0.487-0.346,0.725-0.44,0.832-0.468c0.217-0.06,0.409-0.089,0.574-0.089c0.361,0,0.512,0.143,0.604,0.269
			C122.43,66.072,122.646,66.573,122.041,67.499z"/>
		<path fill="#6E1F75" d="M140.524,54.894c-0.352-0.485-0.865-0.981-1.53-1.479l0.447-1.173l-0.475-0.2
			c-2.672-1.116-5.542-0.624-8.468,1.461c-1.948,1.39-3.18,3.359-3.66,5.859c-0.459,2.434-0.098,4.728,1.073,6.825
			c0.267,0.459,0.541,0.884,0.819,1.265c1.31,1.805,2.868,2.963,4.637,3.439c0.553,0.15,1.111,0.227,1.658,0.227
			c1.366,0,2.716-0.468,4.012-1.391c2.18-1.556,3.466-3.586,3.825-6.038c0.325-2.211-0.122-4.577-1.331-7.032
			C141.146,55.871,140.816,55.293,140.524,54.894z M135.991,58.104c0.541,0.056,1.01,0.362,1.426,0.938
			c0.063,0.088,0.174,0.263,0.332,0.595c0.563,1.164,0.799,2.317,0.699,3.427c-0.107,1.208-0.624,2.125-1.575,2.803
			c-0.534,0.382-1.083,0.565-1.677,0.565l0,0c-0.258,0-0.529-0.037-0.805-0.107c-0.887-0.235-1.604-0.739-2.191-1.55
			c-0.126-0.171-0.261-0.399-0.407-0.682c-0.636-1.225-0.854-2.426-0.651-3.564c0.225-1.21,0.863-2.175,1.954-2.952
			c0.578-0.412,1.134-0.611,1.703-0.611c0.287,0,0.575,0.054,0.87,0.157l-0.424,0.907L135.991,58.104z"/>
		<path fill="#6E1F75" d="M154.89,44.657c-0.354-0.486-0.866-0.983-1.531-1.479l0.448-1.175l-0.474-0.196
			c-2.674-1.117-5.545-0.625-8.47,1.459c-1.949,1.388-3.182,3.359-3.659,5.86c-0.457,2.435-0.099,4.728,1.072,6.824
			c0.268,0.46,0.545,0.886,0.818,1.266c1.31,1.806,2.87,2.962,4.639,3.44c0.553,0.149,1.111,0.225,1.657,0.225
			c1.366,0,2.715-0.468,4.012-1.393c2.179-1.552,3.468-3.584,3.826-6.036c0.326-2.212-0.123-4.578-1.33-7.033
			C155.51,45.634,155.18,45.057,154.89,44.657z M150.355,47.869c0.543,0.054,1.009,0.36,1.427,0.936
			c0.064,0.088,0.175,0.262,0.33,0.595c0.565,1.165,0.801,2.317,0.701,3.427c-0.109,1.208-0.624,2.123-1.577,2.804
			c-0.769,0.545-1.575,0.693-2.481,0.456c-0.887-0.233-1.604-0.739-2.191-1.547c-0.123-0.172-0.261-0.401-0.406-0.686
			c-0.634-1.223-0.854-2.424-0.65-3.564c0.224-1.207,0.863-2.173,1.953-2.949c0.578-0.412,1.137-0.613,1.703-0.613
			c0.286,0,0.577,0.054,0.871,0.157l-0.424,0.909L150.355,47.869z"/>
		<path fill="#6E1F75" d="M174.373,38.158l-1.305-3.073c-0.58-1.381-0.905-2.157-0.974-2.331l-3.463-8.437l-0.562,0.465
			c-0.258,0.213-0.536,0.463-0.838,0.757c-0.147,0.152-0.531,0.582-1.166,1.301c-0.467,0.518-0.847,0.895-1.13,1.121l-0.093,0.074
			l-0.053,0.106c-0.426,0.869-0.766,2.024-1.015,3.437c-0.462,2.605-0.534,5.29-0.219,8c-0.724-0.745-1.585-1.521-2.578-2.323
			c-1.137-0.921-2.396-1.911-3.745-2.942l-0.396-0.303l-3.508,3.926l0.443,0.348c0.061,0.048,0.235,0.175,1.055,0.745
			c0.564,0.379,0.737,0.574,0.784,0.64c0,0.002,0.02,0.028,0.048,0.111c0.193,1.502,0.393,2.745,0.586,3.692
			c0.432,2.189,0.879,4.029,1.328,5.471c0.598,1.878,1.238,3.723,1.904,5.478l0.319,0.84l3.68-4.272l-0.19-0.325
			c-0.687-1.164-1.225-2.574-1.6-4.194l-0.5-2.151c1.834,1.871,3.228,3.456,4.144,4.717c0.224,0.311,0.308,0.465,0.338,0.527
			l0.35,0.747l3.594-4.149l-0.101-0.289c-0.772-2.207-1.227-4.02-1.349-5.389c-0.21-2.332-0.221-3.855-0.144-4.852
			c0.17,0.552,0.326,1.032,0.471,1.44c0.601,1.72,1.019,2.948,1.243,3.65c0.755,2.334,1.39,4.181,1.885,5.488l0.327,0.865
			l4.158-5.086l-0.147-0.303C175.406,40.55,174.873,39.364,174.373,38.158z"/>
		<path fill="#6E1F75" d="M173.457,28.588c1.189,3.241,1.979,5.547,2.344,6.85l0.228,0.805l3.914-3.343l-1.233-3.729
			c-0.465-1.428-0.775-2.346-0.919-2.724c-0.937-2.608-1.653-4.237-2.191-4.98l-0.347-0.478l-0.445,0.395
			c-1.172,1.045-2.112,1.909-2.795,2.571l-0.257,0.245l0.745,1.859C172.761,26.695,173.081,27.545,173.457,28.588z"/>
		<path fill="#6E1F75" d="M181.751,37.575c-0.598-1.477-1.011-2.552-1.232-3.192l-0.267-0.771l-3.864,3.562l0.108,0.325
			c0.404,1.197,0.872,2.455,1.387,3.736l0.339,0.834l0.573-0.695c0.999-1.215,1.928-2.276,2.752-3.143l0.332-0.335L181.751,37.575z"
			/>
	</g>
	<g>
		<path fill="#FF1070" d="M128.744,67.933c-0.189-0.265-0.704-0.603-1.538-1.016c0.713-1.761,0.736-3.356,0.065-4.79
			c-0.146-0.315-0.287-0.567-0.424-0.755c-0.927-1.276-2.219-1.723-3.876-1.336c-0.767,0.163-1.413,0.378-1.939,0.643
			c-0.152,0.07-0.702,0.395-1.65,0.969c-0.35,0.204-0.656,0.399-0.918,0.587c-1.136,0.809-2.401,1.888-3.794,3.238l2.911,2.615
			c0.153-0.183,0.33-0.403,0.527-0.666c0.122,0.791,0.227,1.413,0.313,1.861c0.449,2.259,0.886,4.062,1.312,5.413
			c0.665,2.15,1.375,4.189,2.13,6.12c0.629-0.585,1.305-1.204,2.029-1.859l1.99-1.773c1.347-1.198,2.061-1.834,2.143-1.91
			c1.847-2.057,2.23-4.248,1.149-6.577C129.029,68.38,128.887,68.127,128.744,67.933z M121.546,68.538
			c-0.217-0.771-0.331-1.181-0.344-1.235c-0.172-0.736-0.288-1.371-0.345-1.906l-0.9,0.133c0.519-0.634,0.961-1.094,1.323-1.381
			l0.238-0.169c0.424-0.303,0.758-0.485,0.999-0.548c0.821-0.229,1.408-0.102,1.755,0.379c0.479,0.657,0.424,1.431-0.155,2.32
			c-0.402,0.615-1.004,1.223-1.806,1.821L121.546,68.538z M126.002,72.713c-0.402,0.613-0.994,1.221-1.779,1.817l-0.779,0.567
			c-0.193-0.676-0.31-1.081-0.346-1.222c-0.162-0.769-0.284-1.401-0.364-1.893l-0.224-0.689c0.152-0.209,0.269-0.342,0.347-0.397
			c0.024-0.018,0.075-0.045,0.149-0.082c0.076-0.033,0.133-0.065,0.17-0.091l0.235-0.169c0.427-0.305,0.763-0.489,1.011-0.556
			c0.81-0.229,1.393-0.103,1.746,0.388C126.645,71.043,126.59,71.818,126.002,72.713z"/>
		<path fill="#FF1070" d="M141.717,53.547c-0.375-0.517-0.957-1.049-1.74-1.597l0.412-1.075c-2.518-1.05-5.167-0.583-7.952,1.401
			c-1.842,1.312-2.99,3.155-3.445,5.528c-0.437,2.321-0.101,4.476,1.01,6.462c0.26,0.446,0.524,0.854,0.789,1.221
			c1.243,1.71,2.69,2.79,4.344,3.241c1.789,0.479,3.528,0.117,5.219-1.087c2.065-1.474,3.271-3.369,3.609-5.685
			c0.311-2.113-0.117-4.354-1.284-6.724C142.309,54.484,141.989,53.921,141.717,53.547z M140.607,61.454
			c-0.122,1.356-0.721,2.418-1.797,3.187c-0.893,0.637-1.87,0.816-2.931,0.539c-1.003-0.265-1.833-0.848-2.487-1.75
			c-0.14-0.195-0.29-0.444-0.449-0.752c-0.691-1.334-0.925-2.634-0.701-3.9c0.249-1.337,0.971-2.433,2.168-3.287
			c1.18-0.84,2.378-0.936,3.598-0.287l-0.337,0.719c0.696,0.07,1.3,0.455,1.808,1.155c0.112,0.155,0.238,0.382,0.378,0.675
			C140.466,59.009,140.715,60.244,140.607,61.454z"/>
		<path fill="#FF1070" d="M156.081,43.312c-0.375-0.52-0.956-1.053-1.741-1.599l0.412-1.074c-2.517-1.049-5.165-0.582-7.95,1.401
			c-1.843,1.313-2.991,3.155-3.447,5.527c-0.437,2.321-0.099,4.476,1.012,6.464c0.259,0.446,0.522,0.854,0.789,1.221
			c1.241,1.711,2.69,2.792,4.343,3.238c1.789,0.481,3.528,0.119,5.219-1.085c2.066-1.474,3.27-3.366,3.607-5.685
			c0.312-2.114-0.115-4.354-1.281-6.724C156.674,44.247,156.353,43.685,156.081,43.312z M154.972,51.218
			c-0.122,1.358-0.72,2.42-1.796,3.185c-0.895,0.639-1.871,0.819-2.931,0.541c-1.003-0.264-1.833-0.848-2.488-1.752
			c-0.141-0.191-0.29-0.441-0.448-0.75c-0.691-1.334-0.925-2.633-0.701-3.901c0.247-1.337,0.97-2.433,2.168-3.285
			c1.179-0.841,2.378-0.937,3.595-0.287l-0.334,0.719c0.696,0.07,1.3,0.455,1.805,1.153c0.114,0.156,0.241,0.384,0.381,0.676
			C154.83,48.773,155.081,50.008,154.972,51.218z"/>
		<path fill="#FF1070" d="M174.202,33.634c-0.582-1.386-0.908-2.165-0.976-2.335l-3.188-7.765c-0.248,0.205-0.513,0.444-0.795,0.717
			c-0.143,0.147-0.527,0.577-1.152,1.288c-0.487,0.538-0.884,0.933-1.193,1.18c-0.405,0.828-0.729,1.926-0.97,3.296
			c-0.556,3.137-0.539,6.342,0.048,9.618c-0.866-1.119-2.104-2.328-3.708-3.623c-1.123-0.909-2.367-1.889-3.734-2.934l-2.804,3.137
			c0.086,0.065,0.427,0.307,1.022,0.724c0.471,0.314,0.775,0.571,0.92,0.77c0.049,0.067,0.093,0.167,0.138,0.302
			c0.193,1.516,0.391,2.751,0.586,3.708c0.43,2.181,0.868,3.983,1.314,5.411c0.597,1.879,1.229,3.695,1.896,5.45l2.845-3.304
			c-0.717-1.217-1.268-2.663-1.658-4.342l-0.863-3.705c0.093-0.064,0.505,0.28,1.238,1.038c1.876,1.908,3.282,3.511,4.223,4.807
			c0.193,0.265,0.322,0.469,0.39,0.613l2.854-3.294c-0.792-2.262-1.251-4.101-1.377-5.52c-0.34-3.788-0.225-6.092,0.351-6.912
			c0.391,1.376,0.728,2.47,1.013,3.281c0.61,1.742,1.026,2.962,1.248,3.664c0.758,2.339,1.383,4.159,1.875,5.462l3.357-4.106
			c-0.556-1.148-1.088-2.33-1.595-3.554L174.202,33.634z"/>
		<path fill="#FF1070" d="M181.64,32.899l-3.009,2.775c0.398,1.187,0.858,2.422,1.377,3.708c1.02-1.239,1.948-2.299,2.784-3.179
			l0.088-0.088C182.277,34.624,181.863,33.553,181.64,32.899z"/>
		<path fill="#FF1070" d="M179.828,27.678c-0.468-1.431-0.773-2.334-0.914-2.707c-0.911-2.541-1.62-4.156-2.122-4.849
			c-1.177,1.048-2.103,1.899-2.782,2.556l0.61,1.525c0.265,0.645,0.587,1.494,0.966,2.548c1.2,3.27,1.985,5.565,2.358,6.891
			l3.006-2.567L179.828,27.678z"/>
	</g>
</g>
</svg>
