<?xml version="1.0" encoding="utf-8"?>
<!-- Generator: Adobe Illustrator 16.0.0, SVG Export Plug-In . SVG Version: 6.00 Build 0)  -->
<!DOCTYPE svg PUBLIC "-//W3C//DTD SVG 1.1//EN" "http://www.w3.org/Graphics/SVG/1.1/DTD/svg11.dtd">
<svg version="1.1" id="Layer_1" xmlns="http://www.w3.org/2000/svg" xmlns:xlink="http://www.w3.org/1999/xlink" x="0px" y="0px"
	 width="200px" height="100px" viewBox="0 0 200 100" enable-background="new 0 0 200 100" xml:space="preserve">
<g>
	<path fill="#F9F9F9" d="M71.216,57.02l1.867-14.484H58.741v-9.247c0-4.194,1.169-7.052,7.181-7.052l7.663-0.004V13.278
		c-1.322-0.176-5.871-0.571-11.174-0.571c-11.059,0-18.624,6.751-18.624,19.148v10.68H31.278V57.02h12.509v36.186h14.954V57.02
		H71.216z"/>
	<path fill="#F51484" d="M68.734,54.033l1.867-14.483H56.261v-9.247c0-4.194,1.168-7.052,7.181-7.052l7.663-0.005V10.293
		c-1.322-0.177-5.871-0.572-11.175-0.572c-11.058,0-18.624,6.752-18.624,19.148V39.55H28.798v14.483h12.508v37.162h14.955V54.033
		H68.734z"/>
	<path fill="#6E1F75" d="M66.353,52.054l1.866-14.483H53.878v-9.247c0-4.194,1.169-7.052,7.181-7.052l7.663-0.005V8.313
		c-1.322-0.177-5.871-0.572-11.174-0.572c-11.059,0-18.625,6.752-18.625,19.148V37.57H26.415v14.483h12.508v37.163h14.955V52.054
		H66.353z"/>
</g>
<g>
	<path fill="#6E1F75" d="M171.216,57.02l1.867-14.484h-14.342v-9.247c0-4.194,1.169-7.052,7.181-7.052l7.663-0.004V13.278
		c-1.322-0.176-5.871-0.571-11.174-0.571c-11.059,0-18.624,6.751-18.624,19.148v10.68h-12.509V57.02h12.509v36.186h14.954V57.02
		H171.216z"/>
	<path fill="#F51484" d="M168.734,54.033l1.867-14.483h-14.341v-9.247c0-4.194,1.168-7.052,7.181-7.052l7.663-0.005V10.293
		c-1.322-0.177-5.871-0.572-11.175-0.572c-11.058,0-18.624,6.752-18.624,19.148V39.55h-12.508v14.483h12.508v37.162h14.955V54.033
		H168.734z"/>
	<path fill="#F9F9F9" d="M166.353,52.054l1.866-14.483h-14.341v-9.247c0-4.194,1.169-7.052,7.181-7.052l7.663-0.005V8.313
		c-1.322-0.177-5.871-0.572-11.174-0.572c-11.059,0-18.625,6.752-18.625,19.148V37.57h-12.508v14.483h12.508v37.163h14.955V52.054
		H166.353z"/>
</g>
</svg>
