<?xml version="1.0" encoding="utf-8"?>
<!-- Generator: Adobe Illustrator 16.0.0, SVG Export Plug-In . SVG Version: 6.00 Build 0)  -->
<!DOCTYPE svg PUBLIC "-//W3C//DTD SVG 1.1//EN" "http://www.w3.org/Graphics/SVG/1.1/DTD/svg11.dtd">
<svg version="1.1" id="Layer_1" xmlns="http://www.w3.org/2000/svg" xmlns:xlink="http://www.w3.org/1999/xlink" x="0px" y="0px"
	 width="128px" height="64px" viewBox="0 0 128 64" enable-background="new 0 0 128 64" xml:space="preserve">
<g>
	<path fill="#6E1F75" d="M62.722,15.602c-2.146,0.952-4.454,1.596-6.873,1.884c2.47-1.48,4.37-3.824,5.262-6.62
		c-2.311,1.372-4.871,2.368-7.598,2.905c-2.185-2.327-5.296-3.78-8.737-3.78c-6.61,0-11.969,5.358-11.969,11.967
		c0,0.94,0.105,1.851,0.309,2.728C23.17,24.188,14.353,19.423,8.449,12.18c-1.029,1.77-1.62,3.825-1.62,6.018
		c0,4.151,2.113,7.817,5.321,9.96c-1.959-0.06-3.806-0.602-5.419-1.498v0.152c0,5.797,4.127,10.635,9.599,11.735
		c-1.003,0.273-2.063,0.423-3.152,0.423c-0.77,0-1.522-0.077-2.253-0.218c1.524,4.755,5.942,8.215,11.18,8.313
		c-4.094,3.208-9.252,5.123-14.863,5.123c-0.965,0-1.917-0.059-2.853-0.168c5.295,3.393,11.587,5.376,18.349,5.376
		c22.012,0,34.048-18.235,34.048-34.052c0-0.517-0.012-1.033-0.031-1.55C59.087,20.11,61.114,18.003,62.722,15.602z"/>
	<path fill="#F51484" d="M61.61,14.428c-2.146,0.952-4.455,1.596-6.874,1.884c2.47-1.48,4.371-3.825,5.263-6.621
		c-2.31,1.372-4.871,2.369-7.599,2.905c-2.184-2.327-5.296-3.779-8.736-3.779c-6.61,0-11.969,5.358-11.969,11.967
		c0,0.94,0.105,1.851,0.309,2.727C22.057,23.014,13.24,18.25,7.336,11.005c-1.028,1.771-1.619,3.826-1.619,6.019
		c0,4.151,2.113,7.817,5.321,9.96c-1.959-0.059-3.806-0.601-5.419-1.497v0.151c0,5.798,4.126,10.636,9.599,11.735
		c-1.003,0.271-2.064,0.422-3.152,0.422c-0.771,0-1.522-0.078-2.253-0.218c1.523,4.755,5.942,8.215,11.179,8.312
		c-4.093,3.21-9.252,5.125-14.863,5.125c-0.965,0-1.917-0.059-2.853-0.169c5.295,3.393,11.586,5.376,18.349,5.376
		c22.011,0,34.048-18.233,34.048-34.05c0-0.518-0.012-1.034-0.032-1.551C57.975,18.937,60,16.829,61.61,14.428z"/>
	<path fill="#F9F9F9" d="M60.086,12.673c-2.145,0.953-4.453,1.596-6.873,1.884c2.47-1.481,4.371-3.825,5.263-6.621
		c-2.311,1.372-4.872,2.368-7.599,2.905c-2.184-2.327-5.295-3.78-8.736-3.78c-6.61,0-11.969,5.359-11.969,11.968
		c0,0.939,0.105,1.85,0.309,2.727c-9.946-0.499-18.764-5.262-24.667-12.506c-1.028,1.77-1.619,3.825-1.619,6.018
		c0,4.151,2.112,7.817,5.321,9.96c-1.96-0.059-3.806-0.601-5.419-1.497v0.151c0,5.798,4.126,10.636,9.599,11.736
		c-1.003,0.272-2.064,0.422-3.152,0.422c-0.771,0-1.522-0.078-2.253-0.218c1.523,4.755,5.943,8.214,11.179,8.312
		c-4.093,3.21-9.252,5.124-14.862,5.124c-0.966,0-1.917-0.059-2.854-0.167c5.295,3.392,11.586,5.374,18.349,5.374
		c22.011,0,34.049-18.234,34.049-34.05c0-0.518-0.013-1.034-0.033-1.55C56.452,17.182,58.479,15.074,60.086,12.673z"/>
</g>
<g>
	<path fill="#F9F9F9" d="M126.598,15.602c-2.146,0.952-4.455,1.596-6.873,1.884c2.469-1.48,4.369-3.824,5.262-6.62
		c-2.311,1.372-4.871,2.368-7.598,2.905c-2.186-2.327-5.297-3.78-8.738-3.78c-6.609,0-11.969,5.358-11.969,11.967
		c0,0.94,0.105,1.851,0.31,2.728c-9.946-0.499-18.764-5.263-24.667-12.506c-1.029,1.77-1.619,3.825-1.619,6.018
		c0,4.151,2.112,7.817,5.32,9.96c-1.959-0.06-3.805-0.602-5.419-1.498v0.152c0,5.797,4.127,10.635,9.599,11.735
		c-1.003,0.273-2.062,0.423-3.152,0.423c-0.77,0-1.521-0.077-2.253-0.218c1.524,4.755,5.942,8.215,11.18,8.313
		c-4.094,3.208-9.253,5.123-14.863,5.123c-0.966,0-1.917-0.059-2.853-0.168c5.295,3.393,11.586,5.376,18.348,5.376
		c22.012,0,34.049-18.235,34.049-34.052c0-0.517-0.012-1.033-0.031-1.55C122.963,20.11,124.988,18.003,126.598,15.602z"/>
	<path fill="#F51484" d="M125.484,14.428c-2.146,0.952-4.454,1.596-6.873,1.884c2.469-1.48,4.371-3.825,5.263-6.621
		c-2.31,1.372-4.871,2.369-7.599,2.905c-2.185-2.327-5.297-3.779-8.736-3.779c-6.611,0-11.97,5.358-11.97,11.967
		c0,0.94,0.104,1.851,0.309,2.727c-9.946-0.498-18.763-5.262-24.667-12.506c-1.028,1.771-1.619,3.826-1.619,6.019
		c0,4.151,2.113,7.817,5.321,9.96c-1.96-0.059-3.806-0.601-5.419-1.497v0.151c0,5.798,4.126,10.636,9.599,11.735
		c-1.003,0.271-2.063,0.422-3.152,0.422c-0.771,0-1.522-0.078-2.253-0.218c1.523,4.755,5.941,8.215,11.179,8.312
		c-4.093,3.21-9.253,5.125-14.862,5.125c-0.966,0-1.917-0.059-2.854-0.169c5.295,3.393,11.586,5.376,18.349,5.376
		c22.011,0,34.048-18.233,34.048-34.05c0-0.518-0.012-1.034-0.031-1.551C121.85,18.937,123.875,16.829,125.484,14.428z"/>
	<path fill="#6E1F75" d="M123.961,12.673c-2.145,0.953-4.452,1.596-6.872,1.884c2.47-1.481,4.371-3.825,5.263-6.621
		c-2.311,1.372-4.871,2.368-7.599,2.905c-2.185-2.327-5.295-3.78-8.736-3.78c-6.61,0-11.97,5.359-11.97,11.968
		c0,0.939,0.105,1.85,0.31,2.727c-9.946-0.499-18.764-5.262-24.667-12.506c-1.028,1.77-1.619,3.825-1.619,6.018
		c0,4.151,2.112,7.817,5.32,9.96c-1.959-0.059-3.805-0.601-5.419-1.497v0.151c0,5.798,4.126,10.636,9.599,11.736
		c-1.002,0.272-2.063,0.422-3.152,0.422c-0.77,0-1.521-0.078-2.253-0.218c1.523,4.755,5.942,8.214,11.179,8.312
		c-4.093,3.21-9.252,5.124-14.861,5.124c-0.967,0-1.918-0.059-2.854-0.167c5.295,3.392,11.586,5.374,18.348,5.374
		c22.012,0,34.05-18.234,34.05-34.05c0-0.518-0.013-1.034-0.032-1.55C120.327,17.182,122.354,15.074,123.961,12.673z"/>
</g>
</svg>
