<?xml version="1.0" encoding="utf-8"?>
<!-- Generator: Adobe Illustrator 16.0.0, SVG Export Plug-In . SVG Version: 6.00 Build 0)  -->
<!DOCTYPE svg PUBLIC "-//W3C//DTD SVG 1.1//EN" "http://www.w3.org/Graphics/SVG/1.1/DTD/svg11.dtd">
<svg version="1.1" id="Layer_1" xmlns="http://www.w3.org/2000/svg" xmlns:xlink="http://www.w3.org/1999/xlink" x="0px" y="0px"
	 width="200px" height="100px" viewBox="0 0 200 100" enable-background="new 0 0 200 100" xml:space="preserve">
<g>
	<path fill="#F9F9F9" d="M73.216,57.02l1.867-14.482H60.741V33.29c0-4.194,1.169-7.052,7.181-7.052l7.663-0.004V13.278
		c-1.321-0.176-5.871-0.571-11.174-0.571c-11.06,0-18.624,6.751-18.624,19.148v10.68h-12.51V57.02h12.51v36.188h14.954V57.02H73.216
		z"/>
	<path fill="#F51484" d="M70.734,54.033l1.867-14.483H58.261v-9.247c0-4.194,1.169-7.052,7.181-7.052l7.664-0.005V10.293
		c-1.322-0.177-5.871-0.572-11.176-0.572c-11.059,0-18.623,6.752-18.623,19.148V39.55h-12.51v14.483h12.51v37.162h14.954V54.033
		H70.734z"/>
	<path fill="#6E1F75" d="M68.354,52.055l1.865-14.484H55.878v-9.247c0-4.194,1.169-7.052,7.181-7.052l7.664-0.005V8.313
		C69.4,8.136,64.852,7.741,59.548,7.741c-11.06,0-18.625,6.752-18.625,19.148V37.57H28.415v14.483h12.508v37.163h14.955V52.055
		H68.354z"/>
</g>
<g>
	<path fill="#6E1F75" d="M171.216,57.02l1.867-14.482h-14.342V33.29c0-4.194,1.169-7.052,7.181-7.052l7.663-0.004V13.278
		c-1.321-0.176-5.871-0.571-11.174-0.571c-11.06,0-18.624,6.751-18.624,19.148v10.68h-12.51V57.02h12.51v36.188h14.954V57.02
		H171.216z"/>
	<path fill="#F51484" d="M168.734,54.033l1.867-14.483H156.26v-9.247c0-4.194,1.168-7.052,7.182-7.052l7.662-0.005V10.293
		c-1.32-0.177-5.871-0.572-11.174-0.572c-11.059,0-18.625,6.752-18.625,19.148V39.55h-12.508v14.483h12.508v37.162h14.955V54.033
		H168.734z"/>
	<path fill="#F9F9F9" d="M166.354,52.055l1.865-14.484h-14.341v-9.247c0-4.194,1.169-7.052,7.181-7.052l7.664-0.005V8.313
		c-1.322-0.177-5.871-0.572-11.175-0.572c-11.06,0-18.625,6.752-18.625,19.148V37.57h-12.508v14.483h12.508v37.163h14.955V52.055
		H166.354z"/>
</g>
</svg>
