<?xml version="1.0" encoding="utf-8"?>
<!-- Generator: Adobe Illustrator 16.0.0, SVG Export Plug-In . SVG Version: 6.00 Build 0)  -->
<!DOCTYPE svg PUBLIC "-//W3C//DTD SVG 1.1//EN" "http://www.w3.org/Graphics/SVG/1.1/DTD/svg11.dtd">
<svg version="1.1" id="Layer_1" xmlns="http://www.w3.org/2000/svg" xmlns:xlink="http://www.w3.org/1999/xlink" x="0px" y="0px"
	 width="100px" height="100px" viewBox="0 0 100 100" enable-background="new 0 0 100 100" xml:space="preserve">
<g>
	<path fill="#F9F9F9" d="M21.668,12.139h59.801c5.68,0,10.325,4.646,10.325,10.327v59.802c0,5.681-4.646,10.321-10.325,10.321
		H21.668c-5.682,0-10.331-4.641-10.331-10.321V22.466C11.337,16.785,15.986,12.139,21.668,12.139z M69.906,20.59
		c-1.994,0-3.621,1.638-3.621,3.629v8.663c0,1.997,1.627,3.624,3.621,3.624H79c1.992,0,3.623-1.627,3.623-3.624v-8.663
		c0-1.991-1.631-3.629-3.623-3.629H69.906z M82.658,45.678h-7.079c0.671,2.192,1.034,4.505,1.034,6.907
		c0,13.38-11.202,24.229-25.013,24.229c-13.808,0-25.011-10.85-25.011-24.229c0-2.402,0.369-4.715,1.035-6.907H20.24v33.988
		c0,1.76,1.438,3.19,3.196,3.19h56.026c1.761,0,3.195-1.431,3.195-3.19V45.678z M51.601,36.053c-8.919,0-16.154,7.004-16.154,15.657
		c0,8.643,7.235,15.656,16.154,15.656c8.925,0,16.16-7.014,16.16-15.656C67.761,43.057,60.525,36.053,51.601,36.053z"/>
	<path fill="#F51484" d="M19.696,10.248h59.8c5.681,0,10.326,4.646,10.326,10.327v59.802c0,5.681-4.646,10.321-10.326,10.321h-59.8
		c-5.682,0-10.331-4.641-10.331-10.321V20.575C9.365,14.895,14.015,10.248,19.696,10.248z M67.935,18.698
		c-1.994,0-3.621,1.639-3.621,3.63v8.663c0,1.997,1.627,3.624,3.621,3.624h9.094c1.992,0,3.622-1.627,3.622-3.624v-8.663
		c0-1.991-1.63-3.63-3.622-3.63H67.935z M80.687,43.787h-7.079c0.67,2.192,1.034,4.505,1.034,6.907
		c0,13.38-11.202,24.229-25.013,24.229c-13.809,0-25.011-10.85-25.011-24.229c0-2.402,0.368-4.715,1.035-6.907h-7.385v33.988
		c0,1.76,1.438,3.19,3.196,3.19H77.49c1.761,0,3.196-1.431,3.196-3.19V43.787z M49.629,34.162c-8.92,0-16.154,7.004-16.154,15.657
		c0,8.643,7.234,15.655,16.154,15.655c8.924,0,16.16-7.013,16.16-15.655C65.789,41.166,58.553,34.162,49.629,34.162z"/>
	<path fill="#6E1F75" d="M17.685,8.316h59.801c5.68,0,10.325,4.646,10.325,10.327v59.803c0,5.68-4.646,10.32-10.325,10.32H17.685
		c-5.682,0-10.331-4.641-10.331-10.32V18.644C7.354,12.963,12.003,8.316,17.685,8.316z M65.964,17.25
		c-1.995,0-3.622,1.638-3.622,3.63v8.663c0,1.997,1.627,3.624,3.622,3.624h9.094c1.991,0,3.622-1.627,3.622-3.624V20.88
		c0-1.992-1.631-3.63-3.622-3.63H65.964z M78.716,42.338h-7.08c0.671,2.193,1.035,4.505,1.035,6.908
		c0,13.379-11.203,24.229-25.013,24.229c-13.809,0-25.011-10.85-25.011-24.229c0-2.403,0.368-4.715,1.035-6.908h-7.385v33.989
		c0,1.76,1.438,3.19,3.195,3.19H75.52c1.761,0,3.196-1.431,3.196-3.19V42.338z M47.658,32.713c-8.92,0-16.155,7.004-16.155,15.658
		c0,8.642,7.235,15.655,16.155,15.655c8.924,0,16.16-7.014,16.16-15.655C63.818,39.717,56.582,32.713,47.658,32.713z"/>
</g>
</svg>
