<?xml version="1.0" encoding="utf-8"?>
<!-- Generator: Adobe Illustrator 16.0.0, SVG Export Plug-In . SVG Version: 6.00 Build 0)  -->
<!DOCTYPE svg PUBLIC "-//W3C//DTD SVG 1.1//EN" "http://www.w3.org/Graphics/SVG/1.1/DTD/svg11.dtd">
<svg version="1.1" id="Layer_1" xmlns="http://www.w3.org/2000/svg" xmlns:xlink="http://www.w3.org/1999/xlink" x="0px" y="0px"
	 width="200px" height="100px" viewBox="0 0 200 100" enable-background="new 0 0 200 100" xml:space="preserve">
<g>
	<path fill="#F9F9F9" d="M22.094,12.139h59.801c5.68,0,10.325,4.646,10.325,10.327v59.802c0,5.681-4.646,10.321-10.325,10.321
		H22.094c-5.682,0-10.331-4.641-10.331-10.321V22.466C11.763,16.785,16.413,12.139,22.094,12.139z M70.333,20.59
		c-1.994,0-3.621,1.638-3.621,3.629v8.663c0,1.997,1.627,3.624,3.621,3.624h9.094c1.992,0,3.623-1.627,3.623-3.624v-8.663
		c0-1.991-1.631-3.629-3.623-3.629H70.333z M83.084,45.678h-7.079c0.671,2.192,1.034,4.505,1.034,6.907
		c0,13.38-11.202,24.229-25.013,24.229c-13.808,0-25.011-10.85-25.011-24.229c0-2.402,0.369-4.715,1.035-6.907h-7.385v33.988
		c0,1.76,1.438,3.19,3.196,3.19h56.026c1.761,0,3.195-1.431,3.195-3.19V45.678z M52.027,36.053c-8.919,0-16.154,7.004-16.154,15.657
		c0,8.643,7.235,15.656,16.154,15.656c8.925,0,16.16-7.014,16.16-15.656C68.187,43.057,60.952,36.053,52.027,36.053z"/>
	<path fill="#F51484" d="M20.123,10.248h59.8c5.681,0,10.326,4.646,10.326,10.327v59.802c0,5.681-4.646,10.321-10.326,10.321h-59.8
		c-5.682,0-10.331-4.641-10.331-10.321V20.575C9.792,14.895,14.441,10.248,20.123,10.248z M68.361,18.698
		c-1.994,0-3.621,1.639-3.621,3.63v8.663c0,1.997,1.627,3.624,3.621,3.624h9.094c1.992,0,3.622-1.627,3.622-3.624v-8.663
		c0-1.991-1.63-3.63-3.622-3.63H68.361z M81.113,43.787h-7.079c0.67,2.192,1.034,4.505,1.034,6.907
		c0,13.38-11.202,24.229-25.013,24.229c-13.809,0-25.011-10.85-25.011-24.229c0-2.402,0.368-4.715,1.035-6.907h-7.385v33.988
		c0,1.76,1.438,3.19,3.196,3.19h56.025c1.761,0,3.196-1.431,3.196-3.19V43.787z M50.055,34.162c-8.92,0-16.154,7.004-16.154,15.657
		c0,8.643,7.234,15.655,16.154,15.655c8.924,0,16.16-7.013,16.16-15.655C66.215,41.166,58.979,34.162,50.055,34.162z"/>
	<path fill="#6E1F75" d="M18.111,8.316h59.801c5.68,0,10.325,4.646,10.325,10.327v59.803c0,5.68-4.646,10.32-10.325,10.32H18.111
		c-5.682,0-10.331-4.641-10.331-10.32V18.644C7.78,12.963,12.429,8.316,18.111,8.316z M66.39,17.25c-1.995,0-3.622,1.638-3.622,3.63
		v8.663c0,1.997,1.627,3.624,3.622,3.624h9.094c1.991,0,3.622-1.627,3.622-3.624V20.88c0-1.992-1.631-3.63-3.622-3.63H66.39z
		 M79.142,42.338h-7.08c0.671,2.193,1.035,4.505,1.035,6.908c0,13.379-11.203,24.229-25.013,24.229
		c-13.809,0-25.011-10.85-25.011-24.229c0-2.403,0.368-4.715,1.035-6.908h-7.385v33.989c0,1.76,1.438,3.19,3.195,3.19h56.026
		c1.761,0,3.196-1.431,3.196-3.19V42.338z M48.084,32.713c-8.92,0-16.155,7.004-16.155,15.658c0,8.642,7.235,15.655,16.155,15.655
		c8.924,0,16.16-7.014,16.16-15.655C64.245,39.717,57.008,32.713,48.084,32.713z"/>
</g>
<g>
	<path fill="#6E1F75" d="M122.095,12.139h59.801c5.68,0,10.325,4.646,10.325,10.327v59.802c0,5.681-4.646,10.321-10.325,10.321
		h-59.801c-5.682,0-10.331-4.641-10.331-10.321V22.466C111.764,16.785,116.413,12.139,122.095,12.139z M170.333,20.59
		c-1.994,0-3.621,1.638-3.621,3.629v8.663c0,1.997,1.627,3.624,3.621,3.624h9.094c1.992,0,3.623-1.627,3.623-3.624v-8.663
		c0-1.991-1.631-3.629-3.623-3.629H170.333z M183.085,45.678h-7.079c0.671,2.192,1.034,4.505,1.034,6.907
		c0,13.38-11.202,24.229-25.013,24.229c-13.808,0-25.011-10.85-25.011-24.229c0-2.402,0.369-4.715,1.035-6.907h-7.385v33.988
		c0,1.76,1.438,3.19,3.196,3.19h56.026c1.761,0,3.195-1.431,3.195-3.19V45.678z M152.027,36.053
		c-8.919,0-16.154,7.004-16.154,15.657c0,8.643,7.235,15.656,16.154,15.656c8.925,0,16.16-7.014,16.16-15.656
		C168.188,43.057,160.952,36.053,152.027,36.053z"/>
	<path fill="#F51484" d="M120.123,10.248h59.8c5.681,0,10.326,4.646,10.326,10.327v59.802c0,5.681-4.646,10.321-10.326,10.321h-59.8
		c-5.682,0-10.331-4.641-10.331-10.321V20.575C109.792,14.895,114.441,10.248,120.123,10.248z M168.361,18.698
		c-1.994,0-3.621,1.639-3.621,3.63v8.663c0,1.997,1.627,3.624,3.621,3.624h9.094c1.992,0,3.622-1.627,3.622-3.624v-8.663
		c0-1.991-1.63-3.63-3.622-3.63H168.361z M181.113,43.787h-7.079c0.67,2.192,1.034,4.505,1.034,6.907
		c0,13.38-11.202,24.229-25.013,24.229c-13.809,0-25.011-10.85-25.011-24.229c0-2.402,0.368-4.715,1.035-6.907h-7.385v33.988
		c0,1.76,1.438,3.19,3.196,3.19h56.025c1.761,0,3.196-1.431,3.196-3.19V43.787z M150.056,34.162c-8.92,0-16.154,7.004-16.154,15.657
		c0,8.643,7.234,15.655,16.154,15.655c8.924,0,16.16-7.013,16.16-15.655C166.216,41.166,158.979,34.162,150.056,34.162z"/>
	<path fill="#F9F9F9" d="M118.111,8.316h59.801c5.68,0,10.325,4.646,10.325,10.327v59.803c0,5.68-4.646,10.32-10.325,10.32h-59.801
		c-5.682,0-10.331-4.641-10.331-10.32V18.644C107.78,12.963,112.43,8.316,118.111,8.316z M166.391,17.25
		c-1.995,0-3.622,1.638-3.622,3.63v8.663c0,1.997,1.627,3.624,3.622,3.624h9.094c1.991,0,3.622-1.627,3.622-3.624V20.88
		c0-1.992-1.631-3.63-3.622-3.63H166.391z M179.143,42.338h-7.08c0.671,2.193,1.035,4.505,1.035,6.908
		c0,13.379-11.203,24.229-25.013,24.229c-13.809,0-25.011-10.85-25.011-24.229c0-2.403,0.368-4.715,1.035-6.908h-7.385v33.989
		c0,1.76,1.438,3.19,3.195,3.19h56.026c1.761,0,3.196-1.431,3.196-3.19V42.338z M148.085,32.713c-8.92,0-16.155,7.004-16.155,15.658
		c0,8.642,7.235,15.655,16.155,15.655c8.924,0,16.16-7.014,16.16-15.655C164.245,39.717,157.009,32.713,148.085,32.713z"/>
</g>
</svg>
