<?xml version="1.0" encoding="utf-8"?>
<!-- Generator: Adobe Illustrator 21.0.2, SVG Export Plug-In . SVG Version: 6.00 Build 0)  -->
<svg version="1.0" id="Layer_1" xmlns="http://www.w3.org/2000/svg" xmlns:xlink="http://www.w3.org/1999/xlink" x="0px" y="0px"
	 viewBox="0 0 200 100" style="enable-background:new 0 0 200 100;" xml:space="preserve">
<style type="text/css">
	.st0{fill:#6E1F75;}
	.st1{fill:#F51484;}
	.st2{fill:#F9F9F9;}
	.st3{fill-rule:evenodd;clip-rule:evenodd;fill:#F9F9F9;}
	.st4{fill-rule:evenodd;clip-rule:evenodd;fill:#F51484;}
	.st5{fill-rule:evenodd;clip-rule:evenodd;fill:#6E1F75;}
</style>
<g>
	<path class="st3" d="M65,52.4L42.2,64.7v-19V40l10.3,5.6L65,52.4z M92.3,35.7c0,0-0.8-6.1-3.3-8.7c-3.2-3.5-6.8-3.5-8.5-3.7
		c-11.8-0.9-29.6-0.9-29.6-0.9h0c0,0-17.7,0-29.5,0.9c-1.6,0.2-5.2,0.2-8.5,3.7c-2.5,2.7-3.4,8.8-3.4,8.8S8.7,42.8,8.7,50v0.9v5.8
		c0,7.1,0.9,14.3,0.9,14.3s0.8,6.1,3.4,8.7c3.2,3.5,7.4,3.4,9.3,3.8c6.8,0.7,28.7,0.9,28.7,0.9s17.8,0,29.6-0.9
		c1.6-0.2,5.2-0.2,8.5-3.7c2.5-2.7,3.3-8.7,3.3-8.7s0.9-7.1,0.9-14.3v-5.5V50C93.1,42.8,92.3,35.7,92.3,35.7L92.3,35.7z"/>
	<path class="st4" d="M63,49.4L40.2,61.7v-19V37l10.3,5.6L63,49.4z M90.3,32.7c0,0-0.8-6.1-3.3-8.7c-3.2-3.5-6.8-3.5-8.5-3.7
		c-11.8-0.9-29.6-0.9-29.6-0.9h0c0,0-17.7,0-29.5,0.9c-1.6,0.2-5.2,0.2-8.5,3.7c-2.5,2.7-3.4,8.8-3.4,8.8S6.7,39.8,6.7,47v0.9v5.8
		c0,7.1,0.9,14.3,0.9,14.3s0.8,6.1,3.4,8.7c3.2,3.5,7.4,3.4,9.3,3.8c6.8,0.7,28.7,0.9,28.7,0.9s17.8,0,29.6-0.9
		c1.6-0.2,5.2-0.2,8.5-3.7c2.5-2.7,3.3-8.7,3.3-8.7s0.9-7.1,0.9-14.3v-5.5V47C91.1,39.8,90.3,32.7,90.3,32.7L90.3,32.7z"/>
	<path class="st5" d="M61,46.4L38.2,58.7v-19V34l10.3,5.6L61,46.4z M88.3,29.7c0,0-0.8-6.1-3.3-8.7c-3.2-3.5-6.8-3.5-8.5-3.7
		c-11.8-0.9-29.6-0.9-29.6-0.9h0c0,0-17.7,0-29.5,0.9c-1.6,0.2-5.2,0.2-8.5,3.7c-2.5,2.7-3.4,8.8-3.4,8.8S4.7,36.8,4.7,44v0.9v5.8
		c0,7.1,0.9,14.3,0.9,14.3s0.8,6.1,3.4,8.7c3.2,3.5,7.4,3.4,9.3,3.8c6.8,0.7,28.7,0.9,28.7,0.9s17.8,0,29.6-0.9
		c1.6-0.2,5.2-0.2,8.5-3.7c2.5-2.7,3.3-8.7,3.3-8.7s0.9-7.1,0.9-14.3v-5.5V44C89.1,36.8,88.3,29.7,88.3,29.7L88.3,29.7z"/>
</g>
<g>
	<path class="st5" d="M168,52.4l-22.8,12.3v-19V40l10.3,5.6L168,52.4z M195.3,35.7c0,0-0.8-6.1-3.3-8.7c-3.2-3.5-6.8-3.5-8.5-3.7
		c-11.8-0.9-29.6-0.9-29.6-0.9h0c0,0-17.7,0-29.5,0.9c-1.6,0.2-5.2,0.2-8.5,3.7c-2.5,2.7-3.4,8.8-3.4,8.8s-0.9,7.1-0.9,14.2v0.9v5.8
		c0,7.1,0.9,14.3,0.9,14.3s0.8,6.1,3.4,8.7c3.2,3.5,7.4,3.4,9.3,3.8c6.8,0.7,28.7,0.9,28.7,0.9s17.8,0,29.6-0.9
		c1.6-0.2,5.2-0.2,8.5-3.7c2.5-2.7,3.3-8.7,3.3-8.7s0.9-7.1,0.9-14.3v-5.5V50C196.1,42.8,195.3,35.7,195.3,35.7L195.3,35.7z"/>
	<path class="st4" d="M166,49.4l-22.8,12.3v-19V37l10.3,5.6L166,49.4z M193.3,32.7c0,0-0.8-6.1-3.3-8.7c-3.2-3.5-6.8-3.5-8.5-3.7
		c-11.8-0.9-29.6-0.9-29.6-0.9h0c0,0-17.7,0-29.5,0.9c-1.6,0.2-5.2,0.2-8.5,3.7c-2.5,2.7-3.4,8.8-3.4,8.8s-0.9,7.1-0.9,14.2v0.9v5.8
		c0,7.1,0.9,14.3,0.9,14.3s0.8,6.1,3.4,8.7c3.2,3.5,7.4,3.4,9.3,3.8c6.8,0.7,28.7,0.9,28.7,0.9s17.8,0,29.6-0.9
		c1.6-0.2,5.2-0.2,8.5-3.7c2.5-2.7,3.3-8.7,3.3-8.7s0.9-7.1,0.9-14.3v-5.5V47C194.1,39.8,193.3,32.7,193.3,32.7L193.3,32.7z"/>
	<path class="st3" d="M164,46.4l-22.8,12.3v-19V34l10.3,5.6L164,46.4z M191.3,29.7c0,0-0.8-6.1-3.3-8.7c-3.2-3.5-6.8-3.5-8.5-3.7
		c-11.8-0.9-29.6-0.9-29.6-0.9h0c0,0-17.7,0-29.5,0.9c-1.6,0.2-5.2,0.2-8.5,3.7c-2.5,2.7-3.4,8.8-3.4,8.8s-0.9,7.1-0.9,14.2v0.9v5.8
		c0,7.1,0.9,14.3,0.9,14.3s0.8,6.1,3.4,8.7c3.2,3.5,7.4,3.4,9.3,3.8c6.8,0.7,28.7,0.9,28.7,0.9s17.8,0,29.6-0.9
		c1.6-0.2,5.2-0.2,8.5-3.7c2.5-2.7,3.3-8.7,3.3-8.7s0.9-7.1,0.9-14.3v-5.5V44C192.1,36.8,191.3,29.7,191.3,29.7L191.3,29.7z"/>
</g>
</svg>
