<?xml version="1.0" encoding="utf-8"?>
<!-- Generator: Adobe Illustrator 16.0.0, SVG Export Plug-In . SVG Version: 6.00 Build 0)  -->
<!DOCTYPE svg PUBLIC "-//W3C//DTD SVG 1.1//EN" "http://www.w3.org/Graphics/SVG/1.1/DTD/svg11.dtd">
<svg version="1.1" id="Layer_1" xmlns="http://www.w3.org/2000/svg" xmlns:xlink="http://www.w3.org/1999/xlink" x="0px" y="0px"
	 width="200px" height="100px" viewBox="0 0 200 100" enable-background="new 0 0 200 100" xml:space="preserve">
<g>
	<path fill="#F9F9F9" d="M122.094,12.139h59.801c5.681,0,10.326,4.646,10.326,10.327v59.802c0,5.682-4.646,10.321-10.326,10.321
		h-59.801c-5.682,0-10.33-4.641-10.33-10.321V22.466C111.764,16.785,116.413,12.139,122.094,12.139z M170.333,20.59
		c-1.994,0-3.621,1.638-3.621,3.629v8.663c0,1.997,1.627,3.624,3.621,3.624h9.094c1.992,0,3.623-1.627,3.623-3.624v-8.663
		c0-1.991-1.631-3.629-3.623-3.629H170.333z M183.084,45.678h-7.079c0.671,2.192,1.034,4.505,1.034,6.907
		c0,13.38-11.202,24.229-25.014,24.229c-13.808,0-25.01-10.851-25.01-24.229c0-2.402,0.368-4.715,1.034-6.907h-7.385v33.988
		c0,1.76,1.438,3.189,3.196,3.189h56.025c1.762,0,3.195-1.431,3.195-3.189V45.678H183.084z M152.027,36.053
		c-8.92,0-16.154,7.004-16.154,15.657c0,8.644,7.234,15.656,16.154,15.656c8.925,0,16.16-7.015,16.16-15.656
		C168.188,43.057,160.952,36.053,152.027,36.053z"/>
	<path fill="#F51484" d="M120.123,10.248h59.8c5.681,0,10.326,4.646,10.326,10.327v59.802c0,5.682-4.646,10.321-10.326,10.321h-59.8
		c-5.682,0-10.331-4.642-10.331-10.321V20.575C109.792,14.895,114.441,10.248,120.123,10.248z M168.361,18.698
		c-1.994,0-3.621,1.639-3.621,3.63v8.663c0,1.997,1.627,3.624,3.621,3.624h9.094c1.992,0,3.622-1.627,3.622-3.624v-8.663
		c0-1.991-1.63-3.63-3.622-3.63H168.361z M181.113,43.787h-7.079c0.67,2.192,1.034,4.505,1.034,6.906
		c0,13.381-11.202,24.229-25.014,24.229c-13.809,0-25.011-10.85-25.011-24.229c0-2.401,0.368-4.714,1.035-6.906h-7.386v33.988
		c0,1.76,1.438,3.189,3.197,3.189h56.024c1.761,0,3.196-1.431,3.196-3.189V43.787H181.113z M150.055,34.162
		c-8.92,0-16.154,7.004-16.154,15.657c0,8.643,7.234,15.656,16.154,15.656c8.924,0,16.16-7.014,16.16-15.656
		C166.215,41.166,158.979,34.162,150.055,34.162z"/>
	<path fill="#6E1F75" d="M118.111,8.316h59.801c5.68,0,10.324,4.646,10.324,10.327v59.802c0,5.681-4.646,10.32-10.324,10.32h-59.801
		c-5.682,0-10.332-4.641-10.332-10.32V18.644C107.779,12.963,112.43,8.316,118.111,8.316z M166.391,17.25
		c-1.996,0-3.623,1.638-3.623,3.63v8.663c0,1.997,1.627,3.624,3.623,3.624h9.094c1.99,0,3.621-1.627,3.621-3.624V20.88
		c0-1.992-1.631-3.63-3.621-3.63H166.391z M179.143,42.338h-7.08c0.67,2.193,1.035,4.505,1.035,6.908
		c0,13.379-11.203,24.229-25.014,24.229c-13.809,0-25.011-10.85-25.011-24.229c0-2.403,0.368-4.715,1.034-6.908h-7.385v33.989
		c0,1.76,1.438,3.19,3.195,3.19h56.025c1.762,0,3.197-1.432,3.197-3.19V42.338H179.143z M148.084,32.713
		c-8.92,0-16.154,7.004-16.154,15.658c0,8.643,7.234,15.654,16.154,15.654c8.924,0,16.16-7.014,16.16-15.654
		C164.245,39.717,157.008,32.713,148.084,32.713z"/>
</g>
<g>
	<path fill="#6E1F75" d="M22.096,12.139h59.801c5.68,0,10.324,4.646,10.324,10.327v59.802c0,5.682-4.646,10.321-10.324,10.321
		H22.096c-5.683,0-10.332-4.641-10.332-10.321V22.466C11.764,16.785,16.413,12.139,22.096,12.139z M70.333,20.59
		c-1.994,0-3.621,1.638-3.621,3.629v8.663c0,1.997,1.627,3.624,3.621,3.624h9.094c1.992,0,3.623-1.627,3.623-3.624v-8.663
		c0-1.991-1.631-3.629-3.623-3.629H70.333z M83.085,45.678h-7.079c0.672,2.192,1.034,4.505,1.034,6.907
		c0,13.38-11.202,24.229-25.013,24.229c-13.809,0-25.012-10.851-25.012-24.229c0-2.402,0.369-4.715,1.035-6.907h-7.385v33.988
		c0,1.76,1.438,3.189,3.195,3.189h56.027c1.76,0,3.194-1.431,3.194-3.189V45.678H83.085z M52.027,36.053
		c-8.92,0-16.154,7.004-16.154,15.657c0,8.644,7.234,15.656,16.154,15.656c8.925,0,16.16-7.015,16.16-15.656
		C68.188,43.057,60.952,36.053,52.027,36.053z"/>
	<path fill="#F51484" d="M20.123,10.248h59.8c5.681,0,10.326,4.646,10.326,10.327v59.802c0,5.682-4.646,10.321-10.326,10.321h-59.8
		c-5.682,0-10.331-4.642-10.331-10.321V20.575C9.792,14.895,14.441,10.248,20.123,10.248z M68.361,18.698
		c-1.994,0-3.621,1.639-3.621,3.63v8.663c0,1.997,1.627,3.624,3.621,3.624h9.094c1.992,0,3.622-1.627,3.622-3.624v-8.663
		c0-1.991-1.63-3.63-3.622-3.63H68.361z M81.113,43.787h-7.079c0.67,2.192,1.034,4.505,1.034,6.906
		c0,13.381-11.202,24.229-25.014,24.229c-13.809,0-25.011-10.85-25.011-24.229c0-2.401,0.368-4.714,1.035-6.906h-7.386v33.988
		c0,1.76,1.438,3.189,3.197,3.189h56.024c1.761,0,3.196-1.431,3.196-3.189V43.787H81.113z M50.057,34.162
		c-8.92,0-16.154,7.004-16.154,15.657c0,8.643,7.234,15.656,16.154,15.656c8.924,0,16.159-7.014,16.159-15.656
		C66.216,41.166,58.979,34.162,50.057,34.162z"/>
	<path fill="#F9F9F9" d="M18.111,8.316h59.801c5.68,0,10.324,4.646,10.324,10.327v59.802c0,5.681-4.646,10.32-10.324,10.32H18.111
		c-5.682,0-10.332-4.641-10.332-10.32V18.644C7.779,12.963,12.43,8.316,18.111,8.316z M66.391,17.25
		c-1.994,0-3.621,1.638-3.621,3.63v8.663c0,1.997,1.627,3.624,3.621,3.624h9.094c1.992,0,3.623-1.627,3.623-3.624V20.88
		c0-1.992-1.631-3.63-3.623-3.63H66.391z M79.143,42.338h-7.08c0.672,2.193,1.035,4.505,1.035,6.908
		c0,13.379-11.203,24.229-25.013,24.229s-25.011-10.85-25.011-24.229c0-2.403,0.367-4.715,1.035-6.908h-7.385v33.989
		c0,1.76,1.438,3.19,3.194,3.19h56.026c1.761,0,3.195-1.432,3.195-3.19V42.338H79.143z M48.085,32.713
		c-8.92,0-16.155,7.004-16.155,15.658c0,8.643,7.235,15.654,16.155,15.654c8.924,0,16.16-7.014,16.16-15.654
		C64.245,39.717,57.009,32.713,48.085,32.713z"/>
</g>
</svg>
