<?xml version="1.0" encoding="utf-8"?>
<!-- Generator: Adobe Illustrator 16.0.0, SVG Export Plug-In . SVG Version: 6.00 Build 0)  -->
<!DOCTYPE svg PUBLIC "-//W3C//DTD SVG 1.1//EN" "http://www.w3.org/Graphics/SVG/1.1/DTD/svg11.dtd">
<svg version="1.1" id="Layer_1" xmlns="http://www.w3.org/2000/svg" xmlns:xlink="http://www.w3.org/1999/xlink" x="0px" y="0px"
	 width="200px" height="100px" viewBox="0 0 200 100" enable-background="new 0 0 200 100" xml:space="preserve">
<g>
	<path fill="#6E1F75" d="M93.387,26.926c-3.054,1.355-6.339,2.271-9.781,2.682c3.516-2.107,6.221-5.443,7.488-9.422
		c-3.287,1.952-6.932,3.37-10.813,4.135c-3.109-3.312-7.537-5.38-12.436-5.38c-9.408,0-17.035,7.627-17.035,17.033
		c0,1.337,0.15,2.634,0.44,3.881c-14.155-0.709-26.705-7.489-35.106-17.799c-1.465,2.52-2.306,5.444-2.306,8.565
		c0,5.908,3.007,11.125,7.573,14.176c-2.789-0.084-5.416-0.855-7.713-2.131v0.216c0,8.252,5.873,15.138,13.662,16.702
		c-1.428,0.389-2.938,0.602-4.486,0.602c-1.098,0-2.167-0.11-3.207-0.312c2.168,6.769,8.457,11.69,15.91,11.832
		c-5.826,4.565-13.168,7.293-21.153,7.293c-1.374,0-2.729-0.084-4.061-0.239c7.536,4.827,16.489,7.649,26.114,7.649
		c31.328,0,48.459-25.95,48.459-48.462c0-0.736-0.019-1.471-0.047-2.206C88.214,33.343,91.098,30.344,93.387,26.926z"/>
	<path fill="#F51484" d="M91.803,25.255c-3.054,1.355-6.339,2.271-9.781,2.682c3.516-2.107,6.221-5.443,7.488-9.422
		c-3.287,1.952-6.932,3.37-10.813,4.135c-3.109-3.312-7.537-5.38-12.436-5.38c-9.408,0-17.035,7.627-17.035,17.033
		c0,1.337,0.15,2.634,0.44,3.881c-14.156-0.709-26.705-7.489-35.106-17.799c-1.465,2.52-2.306,5.444-2.306,8.565
		c0,5.908,3.007,11.125,7.573,14.176c-2.789-0.084-5.416-0.855-7.713-2.131v0.216c0,8.252,5.873,15.139,13.662,16.702
		c-1.428,0.388-2.938,0.601-4.486,0.601c-1.098,0-2.167-0.109-3.207-0.311c2.168,6.77,8.457,11.691,15.91,11.832
		c-5.826,4.566-13.168,7.293-21.153,7.293c-1.374,0-2.729-0.084-4.062-0.239c7.537,4.827,16.49,7.649,26.115,7.649
		c31.328,0,48.459-25.95,48.459-48.462c0-0.736-0.019-1.471-0.047-2.206C86.63,31.672,89.514,28.673,91.803,25.255z"/>
	<path fill="#F9F9F9" d="M89.637,22.758c-3.054,1.355-6.339,2.271-9.781,2.682c3.516-2.107,6.221-5.443,7.488-9.422
		c-3.287,1.952-6.932,3.37-10.813,4.135c-3.109-3.312-7.537-5.38-12.436-5.38c-9.408,0-17.035,7.627-17.035,17.033
		c0,1.337,0.15,2.634,0.44,3.881c-14.155-0.709-26.705-7.489-35.106-17.799c-1.465,2.52-2.306,5.444-2.306,8.565
		c0,5.908,3.007,11.125,7.573,14.176c-2.789-0.084-5.416-0.855-7.713-2.131v0.216c0,8.252,5.873,15.138,13.662,16.702
		c-1.428,0.389-2.938,0.602-4.486,0.602c-1.098,0-2.167-0.11-3.207-0.312c2.168,6.769,8.457,11.69,15.91,11.832
		c-5.826,4.565-13.168,7.293-21.153,7.293c-1.374,0-2.729-0.084-4.061-0.239c7.536,4.827,16.489,7.649,26.114,7.649
		c31.328,0,48.459-25.95,48.459-48.462c0-0.736-0.019-1.471-0.047-2.206C84.464,29.175,87.348,26.176,89.637,22.758z"/>
</g>
<g>
	<path fill="#F9F9F9" d="M193.387,26.426c-3.055,1.355-6.34,2.271-9.783,2.682c3.517-2.107,6.222-5.443,7.489-9.422
		c-3.286,1.952-6.932,3.37-10.813,4.135c-3.108-3.312-7.536-5.38-12.434-5.38c-9.408,0-17.035,7.627-17.035,17.033
		c0,1.337,0.149,2.634,0.439,3.881c-14.156-0.709-26.705-7.489-35.107-17.799c-1.463,2.52-2.305,5.444-2.305,8.565
		c0,5.908,3.008,11.125,7.573,14.176c-2.789-0.084-5.416-0.855-7.713-2.131v0.216c0,8.252,5.872,15.138,13.661,16.702
		c-1.428,0.389-2.938,0.602-4.485,0.602c-1.097,0-2.167-0.11-3.207-0.312c2.168,6.769,8.457,11.69,15.91,11.832
		c-5.826,4.565-13.168,7.293-21.153,7.293c-1.374,0-2.729-0.084-4.061-0.239c7.535,4.827,16.49,7.649,26.113,7.649
		c31.328,0,48.459-25.95,48.459-48.462c0-0.736-0.018-1.471-0.045-2.206C188.213,32.843,191.098,29.844,193.387,26.426z"/>
	<path fill="#F51484" d="M191.802,24.755c-3.054,1.355-6.339,2.271-9.782,2.682c3.517-2.107,6.222-5.443,7.489-9.422
		c-3.286,1.952-6.932,3.37-10.813,4.135c-3.108-3.312-7.536-5.38-12.435-5.38c-9.407,0-17.034,7.627-17.034,17.033
		c0,1.337,0.149,2.634,0.439,3.881c-14.156-0.709-26.705-7.489-35.107-17.799c-1.463,2.52-2.305,5.444-2.305,8.565
		c0,5.908,3.007,11.125,7.573,14.176c-2.789-0.084-5.416-0.855-7.713-2.131v0.216c0,8.252,5.872,15.139,13.661,16.702
		c-1.428,0.388-2.938,0.601-4.485,0.601c-1.097,0-2.167-0.109-3.207-0.311c2.168,6.77,8.457,11.691,15.91,11.832
		c-5.826,4.566-13.168,7.293-21.153,7.293c-1.374,0-2.729-0.084-4.061-0.239c7.535,4.827,16.49,7.649,26.113,7.649
		c31.328,0,48.459-25.95,48.459-48.462c0-0.736-0.018-1.471-0.045-2.206C186.629,31.172,189.514,28.173,191.802,24.755z"/>
	<path fill="#6E1F75" d="M189.637,22.258c-3.055,1.355-6.34,2.271-9.783,2.682c3.517-2.107,6.222-5.443,7.489-9.422
		c-3.286,1.952-6.932,3.37-10.813,4.135c-3.108-3.312-7.536-5.38-12.434-5.38c-9.408,0-17.035,7.627-17.035,17.033
		c0,1.337,0.149,2.634,0.439,3.881c-14.156-0.709-26.705-7.489-35.107-17.799c-1.463,2.52-2.305,5.444-2.305,8.565
		c0,5.908,3.008,11.125,7.573,14.176c-2.789-0.084-5.416-0.855-7.713-2.131v0.216c0,8.252,5.872,15.138,13.661,16.702
		c-1.428,0.389-2.938,0.602-4.485,0.602c-1.097,0-2.167-0.11-3.207-0.312c2.168,6.769,8.457,11.69,15.91,11.832
		c-5.826,4.565-13.168,7.293-21.153,7.293c-1.374,0-2.729-0.084-4.061-0.239c7.535,4.827,16.49,7.649,26.113,7.649
		c31.328,0,48.459-25.95,48.459-48.462c0-0.736-0.018-1.471-0.045-2.206C184.463,28.675,187.348,25.676,189.637,22.258z"/>
</g>
</svg>
