<?xml version="1.0" encoding="utf-8"?>
<!-- Generator: Adobe Illustrator 16.0.0, SVG Export Plug-In . SVG Version: 6.00 Build 0)  -->
<!DOCTYPE svg PUBLIC "-//W3C//DTD SVG 1.1//EN" "http://www.w3.org/Graphics/SVG/1.1/DTD/svg11.dtd">
<svg version="1.1" id="Layer_1" xmlns="http://www.w3.org/2000/svg" xmlns:xlink="http://www.w3.org/1999/xlink" x="0px" y="0px"
	 width="493px" height="76px" viewBox="252.5 38.5 493 76" enable-background="new 252.5 38.5 493 76" xml:space="preserve">
<g>
	<rect x="512.5" y="47.25" fill="#F9F9F9" width="225" height="60"/>
	<rect x="510.5" y="45.25" fill="#F51484" width="225" height="60"/>
	<rect x="508.5" y="43.25" fill="#6E1F75" width="225" height="60"/>
	<g>
		<path fill="#F51484" d="M551.447,65.412l4.541,11.45l4.577-11.45h5.322l-8.044,18.848h-3.809l-7.923-18.848H551.447z"/>
		<path fill="#F51484" d="M572.016,65.412V84.26h-4.895V65.412H572.016z"/>
		<path fill="#F51484" d="M587.531,66.462l-1.953,3.797c-1.018-0.83-2.1-1.245-3.247-1.245c-0.521,0-0.997,0.143-1.428,0.427
			c-0.448,0.269-0.672,0.651-0.672,1.147c0,0.48,0.199,0.847,0.599,1.099c0.374,0.244,0.898,0.476,1.574,0.696l1.244,0.378
			c1.425,0.415,2.568,1.021,3.431,1.819c0.813,0.806,1.221,1.916,1.221,3.332c0,2.279-0.651,3.972-1.953,5.078
			c-1.4,1.18-3.183,1.771-5.347,1.771c-2.36,0-4.569-0.716-6.629-2.148l2.1-3.955c1.474,1.302,2.926,1.953,4.358,1.953
			c0.618,0,1.167-0.167,1.647-0.501s0.721-0.801,0.721-1.404c0-0.61-0.265-1.05-0.794-1.318c-0.496-0.252-1.22-0.529-2.173-0.83
			c-1.123-0.301-2.066-0.643-2.832-1.025c-0.725-0.366-1.284-0.883-1.679-1.55c-0.395-0.667-0.592-1.583-0.592-2.747
			c0-1.253,0.272-2.36,0.818-3.32c0.577-0.977,1.354-1.721,2.331-2.234c0.952-0.512,2.067-0.769,3.345-0.769
			c0.944,0,1.961,0.143,3.052,0.427C585.732,65.607,586.685,65.982,587.531,66.462z"/>
		<path fill="#F51484" d="M595.526,65.412V84.26h-4.895V65.412H595.526z"/>
		<path fill="#F51484" d="M606.232,69.563V84.26h-4.896V69.563h-4.053v-4.15h13.001v4.15H606.232z"/>
		<path fill="#F51484" d="M632.941,66.462l-1.953,3.797c-1.018-0.83-2.1-1.245-3.247-1.245c-0.521,0-0.997,0.143-1.429,0.427
			c-0.447,0.269-0.671,0.651-0.671,1.147c0,0.48,0.199,0.847,0.598,1.099c0.374,0.244,0.899,0.476,1.575,0.696l1.244,0.378
			c1.425,0.415,2.568,1.021,3.431,1.819c0.813,0.806,1.22,1.916,1.22,3.332c0,2.279-0.65,3.972-1.952,5.078
			c-1.4,1.18-3.183,1.771-5.347,1.771c-2.36,0-4.569-0.716-6.629-2.148l2.1-3.955c1.473,1.302,2.926,1.953,4.358,1.953
			c0.618,0,1.168-0.167,1.647-0.501c0.48-0.334,0.721-0.801,0.721-1.404c0-0.61-0.265-1.05-0.794-1.318
			c-0.497-0.252-1.221-0.529-2.173-0.83c-1.123-0.301-2.067-0.643-2.832-1.025c-0.725-0.366-1.284-0.883-1.679-1.55
			c-0.396-0.667-0.592-1.583-0.592-2.747c0-1.253,0.272-2.36,0.817-3.32c0.578-0.977,1.355-1.721,2.332-2.234
			c0.952-0.512,2.066-0.769,3.345-0.769c0.944,0,1.961,0.143,3.052,0.427C631.143,65.607,632.095,65.982,632.941,66.462z"/>
		<path fill="#F51484" d="M643.537,69.563V84.26h-4.896V69.563h-4.053v-4.15h13.001v4.15H643.537z"/>
		<path fill="#F51484" d="M658.844,64.79c1.376,0,2.686,0.232,3.931,0.696c1.27,0.489,2.385,1.164,3.345,2.026
			c0.943,0.847,1.713,1.88,2.307,3.101c0.562,1.147,0.843,2.438,0.843,3.87c0,1.506-0.249,2.889-0.745,4.151
			c-0.521,1.285-1.253,2.396-2.197,3.332c-0.505,0.505-1.025,0.932-1.563,1.281c-0.537,0.351-1.119,0.647-1.745,0.892
			c-1.261,0.496-2.653,0.744-4.175,0.744c-1.498,0-2.881-0.248-4.15-0.744c-1.286-0.505-2.393-1.229-3.32-2.173
			c-0.465-0.456-0.873-0.95-1.228-1.484c-0.354-0.532-0.677-1.148-0.97-1.849c-0.505-1.277-0.758-2.661-0.758-4.15
			c0-0.676,0.071-1.338,0.214-1.989c0.143-0.651,0.356-1.277,0.642-1.88c0.602-1.237,1.366-2.271,2.295-3.101
			c0.969-0.871,2.095-1.546,3.381-2.026C656.162,65.021,657.461,64.79,658.844,64.79z M658.844,69.538
			c-0.96,0-1.844,0.232-2.648,0.696c-0.847,0.489-1.498,1.099-1.953,1.831c-0.48,0.798-0.721,1.612-0.721,2.442
			c0,1.033,0.24,1.993,0.721,2.881c0.488,0.887,1.131,1.563,1.928,2.026c0.839,0.48,1.73,0.72,2.674,0.72
			c0.961,0,1.852-0.239,2.674-0.72c0.797-0.455,1.44-1.131,1.929-2.026c0.479-0.862,0.72-1.823,0.72-2.881
			c0-0.854-0.24-1.668-0.72-2.442c-0.464-0.74-1.115-1.35-1.953-1.831C660.695,69.77,659.813,69.538,658.844,69.538z"/>
		<path fill="#F51484" d="M681.305,76.532l5.921,7.728h-6.104l-4.614-7.251h-0.062v7.251h-4.895V65.412h7.323
			c1.303,0,2.438,0.208,3.406,0.622c1.001,0.44,1.767,1.083,2.295,1.929c0.57,0.863,0.854,1.945,0.854,3.247
			c0,0.879-0.158,1.697-0.476,2.454c-0.342,0.765-0.81,1.387-1.404,1.868C682.941,76.028,682.192,76.362,681.305,76.532z
			 M676.447,69.159v4.7h0.476c0.676,0,1.245-0.056,1.709-0.171c0.505-0.146,0.911-0.382,1.221-0.708
			c0.317-0.325,0.476-0.813,0.476-1.465c0-0.659-0.158-1.151-0.476-1.477c-0.31-0.325-0.717-0.562-1.221-0.708
			c-0.448-0.114-1.018-0.171-1.709-0.171H676.447L676.447,69.159z"/>
		<path fill="#F51484" d="M699.286,69.563h-5.835v3.149h5.529v4.15h-5.529v3.247h5.835v4.15h-10.73V65.412h10.73V69.563z"/>
	</g>
	<g>
		<path fill="#3AB4FF" d="M549.947,63.912l4.541,11.45l4.577-11.45h5.322l-8.044,18.848h-3.809l-7.923-18.848H549.947z"/>
		<path fill="#3AB4FF" d="M570.516,63.912V82.76h-4.895V63.912H570.516z"/>
		<path fill="#3AB4FF" d="M586.031,64.962l-1.953,3.797c-1.018-0.83-2.1-1.245-3.247-1.245c-0.521,0-0.997,0.143-1.428,0.427
			c-0.448,0.269-0.672,0.651-0.672,1.147c0,0.48,0.199,0.847,0.599,1.099c0.374,0.244,0.898,0.476,1.574,0.696l1.244,0.378
			c1.425,0.415,2.568,1.021,3.431,1.819c0.813,0.806,1.221,1.917,1.221,3.332c0,2.279-0.651,3.972-1.953,5.078
			c-1.4,1.18-3.183,1.771-5.347,1.771c-2.36,0-4.569-0.716-6.629-2.148l2.1-3.955c1.474,1.302,2.926,1.953,4.358,1.953
			c0.618,0,1.167-0.167,1.647-0.501s0.721-0.801,0.721-1.404c0-0.61-0.265-1.05-0.794-1.318c-0.496-0.252-1.22-0.529-2.173-0.83
			c-1.123-0.301-2.066-0.642-2.832-1.025c-0.725-0.366-1.284-0.883-1.679-1.55c-0.395-0.667-0.592-1.583-0.592-2.747
			c0-1.253,0.272-2.36,0.818-3.32c0.577-0.977,1.354-1.721,2.331-2.234c0.952-0.512,2.067-0.769,3.345-0.769
			c0.944,0,1.961,0.143,3.052,0.427C584.232,64.107,585.185,64.482,586.031,64.962z"/>
		<path fill="#3AB4FF" d="M594.026,63.912V82.76h-4.895V63.912H594.026z"/>
		<path fill="#3AB4FF" d="M604.732,68.063V82.76h-4.896V68.063h-4.053v-4.15h13.001v4.15H604.732z"/>
		<path fill="#3AB4FF" d="M631.441,64.962l-1.953,3.797c-1.018-0.83-2.1-1.245-3.247-1.245c-0.521,0-0.997,0.143-1.429,0.427
			c-0.447,0.269-0.671,0.651-0.671,1.147c0,0.48,0.199,0.847,0.598,1.099c0.374,0.244,0.899,0.476,1.575,0.696l1.244,0.378
			c1.425,0.415,2.568,1.021,3.431,1.819c0.813,0.806,1.22,1.917,1.22,3.332c0,2.279-0.65,3.972-1.952,5.078
			c-1.4,1.18-3.183,1.771-5.347,1.771c-2.36,0-4.569-0.716-6.629-2.148l2.1-3.955c1.473,1.302,2.926,1.953,4.358,1.953
			c0.618,0,1.168-0.167,1.647-0.501c0.48-0.334,0.721-0.801,0.721-1.404c0-0.61-0.265-1.05-0.794-1.318
			c-0.497-0.252-1.221-0.529-2.173-0.83c-1.123-0.301-2.067-0.642-2.832-1.025c-0.725-0.366-1.284-0.883-1.679-1.55
			c-0.395-0.667-0.592-1.583-0.592-2.747c0-1.253,0.272-2.36,0.817-3.32c0.578-0.977,1.355-1.721,2.332-2.234
			c0.952-0.512,2.066-0.769,3.345-0.769c0.944,0,1.961,0.143,3.052,0.427C629.643,64.107,630.595,64.482,631.441,64.962z"/>
		<path fill="#3AB4FF" d="M642.037,68.063V82.76h-4.896V68.063h-4.053v-4.15h13.001v4.15H642.037z"/>
		<path fill="#3AB4FF" d="M657.344,63.29c1.376,0,2.686,0.232,3.931,0.696c1.27,0.489,2.385,1.164,3.345,2.026
			c0.943,0.847,1.713,1.88,2.307,3.101c0.562,1.147,0.843,2.438,0.843,3.87c0,1.506-0.249,2.889-0.745,4.151
			c-0.521,1.285-1.253,2.396-2.197,3.332c-0.505,0.505-1.025,0.932-1.563,1.281c-0.537,0.351-1.119,0.647-1.745,0.892
			c-1.261,0.496-2.653,0.744-4.175,0.744c-1.498,0-2.881-0.248-4.15-0.744c-1.286-0.505-2.393-1.229-3.32-2.173
			c-0.465-0.456-0.873-0.95-1.228-1.484c-0.354-0.532-0.677-1.148-0.97-1.849c-0.505-1.277-0.758-2.661-0.758-4.15
			c0-0.676,0.071-1.338,0.214-1.989c0.143-0.651,0.356-1.277,0.642-1.88c0.602-1.237,1.366-2.271,2.295-3.101
			c0.969-0.871,2.095-1.546,3.381-2.026C654.662,63.521,655.961,63.29,657.344,63.29z M657.344,68.038
			c-0.96,0-1.844,0.232-2.648,0.696c-0.847,0.489-1.498,1.099-1.953,1.831c-0.48,0.798-0.721,1.612-0.721,2.442
			c0,1.033,0.24,1.994,0.721,2.881c0.488,0.887,1.131,1.563,1.928,2.026c0.839,0.48,1.73,0.72,2.674,0.72
			c0.961,0,1.852-0.239,2.674-0.72c0.797-0.455,1.44-1.131,1.929-2.026c0.479-0.863,0.72-1.823,0.72-2.881
			c0-0.854-0.24-1.668-0.72-2.442c-0.464-0.74-1.115-1.35-1.953-1.831C659.195,68.27,658.313,68.038,657.344,68.038z"/>
		<path fill="#3AB4FF" d="M679.805,75.032l5.921,7.728h-6.104l-4.614-7.251h-0.062v7.251h-4.895V63.912h7.323
			c1.303,0,2.438,0.208,3.406,0.622c1.001,0.44,1.767,1.083,2.295,1.929c0.57,0.863,0.854,1.945,0.854,3.247
			c0,0.879-0.158,1.697-0.476,2.454c-0.342,0.765-0.81,1.387-1.404,1.868C681.441,74.528,680.692,74.862,679.805,75.032z
			 M674.947,67.659v4.7h0.476c0.676,0,1.245-0.056,1.709-0.171c0.505-0.146,0.911-0.382,1.221-0.708
			c0.317-0.325,0.476-0.813,0.476-1.465c0-0.659-0.158-1.151-0.476-1.477c-0.31-0.325-0.717-0.562-1.221-0.708
			c-0.448-0.114-1.018-0.171-1.709-0.171H674.947L674.947,67.659z"/>
		<path fill="#3AB4FF" d="M697.786,68.063h-5.835v3.149h5.529v4.15h-5.529v3.247h5.835v4.15h-10.73V63.912h10.73V68.063z"/>
	</g>
</g>
<g>
	<rect x="264.5" y="47.75" fill="#6E1F75" width="225" height="60"/>
	<rect x="262.5" y="45.75" fill="#F51484" width="225" height="60"/>
	<rect x="260.5" y="43.75" fill="#F9F9F9" width="225" height="60"/>
	<g>
		<path fill="#3AB4FF" d="M303.447,65.912l4.541,11.45l4.577-11.45h5.323l-8.045,18.848h-3.809l-7.923-18.847L303.447,65.912
			L303.447,65.912z"/>
		<path fill="#3AB4FF" d="M324.016,65.912V84.76h-4.895V65.912H324.016z"/>
		<path fill="#3AB4FF" d="M339.531,66.962l-1.953,3.797c-1.018-0.83-2.1-1.245-3.247-1.245c-0.521,0-0.997,0.143-1.429,0.427
			c-0.447,0.269-0.671,0.651-0.671,1.147c0,0.48,0.199,0.847,0.599,1.099c0.373,0.244,0.898,0.476,1.574,0.696l1.244,0.378
			c1.425,0.415,2.568,1.021,3.431,1.819c0.813,0.806,1.22,1.916,1.22,3.332c0,2.279-0.65,3.972-1.952,5.078
			c-1.4,1.18-3.183,1.771-5.347,1.771c-2.36,0-4.569-0.716-6.629-2.148l2.1-3.955c1.473,1.302,2.926,1.953,4.358,1.953
			c0.618,0,1.168-0.167,1.647-0.501c0.48-0.334,0.721-0.801,0.721-1.404c0-0.61-0.265-1.05-0.794-1.318
			c-0.497-0.252-1.22-0.529-2.173-0.83c-1.123-0.301-2.066-0.643-2.832-1.025c-0.725-0.365-1.283-0.883-1.678-1.55
			c-0.396-0.667-0.593-1.583-0.593-2.747c0-1.253,0.272-2.36,0.817-3.32c0.578-0.977,1.355-1.721,2.332-2.234
			c0.952-0.512,2.066-0.769,3.345-0.769c0.944,0,1.962,0.143,3.052,0.427C337.732,66.107,338.685,66.482,339.531,66.962z"/>
		<path fill="#3AB4FF" d="M347.526,65.912V84.76h-4.896V65.912H347.526z"/>
		<path fill="#3AB4FF" d="M358.232,70.063V84.76h-4.896V70.063h-4.052v-4.15h13v4.15H358.232z"/>
		<path fill="#3AB4FF" d="M384.941,66.962l-1.953,3.797c-1.018-0.83-2.1-1.245-3.247-1.245c-0.521,0-0.997,0.143-1.429,0.427
			c-0.447,0.269-0.671,0.651-0.671,1.147c0,0.48,0.198,0.847,0.598,1.099c0.374,0.244,0.899,0.476,1.575,0.696l1.244,0.378
			c1.425,0.415,2.568,1.021,3.43,1.819c0.814,0.806,1.221,1.916,1.221,3.332c0,2.279-0.65,3.972-1.953,5.078
			c-1.399,1.18-3.182,1.771-5.346,1.771c-2.361,0-4.57-0.716-6.629-2.148l2.1-3.955c1.473,1.302,2.926,1.953,4.357,1.953
			c0.619,0,1.168-0.167,1.648-0.501s0.721-0.801,0.721-1.404c0-0.61-0.266-1.05-0.794-1.318c-0.497-0.252-1.221-0.529-2.173-0.83
			c-1.123-0.301-2.067-0.643-2.832-1.025c-0.725-0.365-1.283-0.883-1.678-1.55c-0.396-0.667-0.593-1.583-0.593-2.747
			c0-1.253,0.272-2.36,0.817-3.32c0.578-0.977,1.355-1.721,2.332-2.234c0.952-0.512,2.066-0.769,3.344-0.769
			c0.945,0,1.963,0.143,3.053,0.427C383.143,66.107,384.095,66.482,384.941,66.962z"/>
		<path fill="#3AB4FF" d="M395.537,70.063V84.76h-4.896V70.063h-4.053v-4.15h13.001v4.15H395.537z"/>
		<path fill="#3AB4FF" d="M410.844,65.29c1.376,0,2.686,0.232,3.931,0.696c1.27,0.489,2.385,1.164,3.345,2.026
			c0.943,0.847,1.713,1.88,2.307,3.101c0.562,1.147,0.843,2.438,0.843,3.87c0,1.506-0.249,2.889-0.745,4.151
			c-0.521,1.285-1.253,2.396-2.197,3.332c-0.505,0.505-1.025,0.932-1.563,1.281c-0.537,0.351-1.119,0.647-1.745,0.892
			c-1.261,0.496-2.653,0.744-4.175,0.744c-1.498,0-2.881-0.248-4.15-0.744c-1.285-0.505-2.393-1.229-3.32-2.173
			c-0.465-0.456-0.873-0.95-1.228-1.484c-0.354-0.532-0.677-1.148-0.97-1.849c-0.505-1.277-0.758-2.661-0.758-4.15
			c0-0.676,0.072-1.338,0.214-1.989c0.143-0.651,0.356-1.277,0.642-1.88c0.602-1.237,1.367-2.271,2.295-3.101
			c0.969-0.871,2.095-1.546,3.381-2.026C408.162,65.521,409.461,65.29,410.844,65.29z M410.844,70.038
			c-0.961,0-1.844,0.232-2.648,0.696c-0.847,0.489-1.498,1.099-1.953,1.831c-0.48,0.798-0.721,1.612-0.721,2.442
			c0,1.033,0.24,1.993,0.721,2.881c0.488,0.887,1.131,1.563,1.928,2.026c0.838,0.48,1.73,0.72,2.674,0.72
			c0.961,0,1.852-0.239,2.674-0.72c0.797-0.455,1.44-1.131,1.928-2.026c0.48-0.862,0.721-1.823,0.721-2.881
			c0-0.854-0.24-1.668-0.721-2.442c-0.463-0.74-1.114-1.35-1.952-1.831C412.695,70.27,411.813,70.038,410.844,70.038z"/>
		<path fill="#3AB4FF" d="M433.305,77.032l5.921,7.728h-6.104l-4.614-7.251h-0.062v7.251h-4.895V65.912h7.323
			c1.303,0,2.438,0.208,3.406,0.622c1.002,0.44,1.766,1.083,2.295,1.929c0.57,0.863,0.855,1.945,0.855,3.247
			c0,0.879-0.159,1.697-0.477,2.454c-0.342,0.765-0.81,1.387-1.404,1.868C434.941,76.528,434.192,76.862,433.305,77.032z
			 M428.447,69.659v4.7h0.476c0.676,0,1.245-0.056,1.709-0.171c0.505-0.146,0.911-0.382,1.221-0.708
			c0.317-0.325,0.476-0.813,0.476-1.465c0-0.659-0.158-1.151-0.476-1.477c-0.31-0.325-0.716-0.562-1.221-0.708
			c-0.448-0.114-1.017-0.171-1.709-0.171H428.447L428.447,69.659z"/>
		<path fill="#3AB4FF" d="M451.286,70.063h-5.835v3.149h5.529v4.15h-5.529v3.247h5.835v4.15h-10.729V65.912h10.729V70.063z"/>
	</g>
	<g>
		<path fill="#F51484" d="M301.947,64.412l4.541,11.45l4.577-11.45h5.323l-8.045,18.848h-3.809l-7.923-18.847L301.947,64.412
			L301.947,64.412z"/>
		<path fill="#F51484" d="M322.516,64.412V83.26h-4.895V64.412H322.516z"/>
		<path fill="#F51484" d="M338.031,65.462l-1.953,3.797c-1.018-0.83-2.1-1.245-3.247-1.245c-0.521,0-0.997,0.143-1.429,0.427
			c-0.447,0.269-0.671,0.651-0.671,1.147c0,0.48,0.199,0.847,0.599,1.099c0.373,0.244,0.898,0.476,1.574,0.696l1.244,0.378
			c1.425,0.415,2.568,1.021,3.431,1.819c0.813,0.806,1.22,1.917,1.22,3.332c0,2.279-0.65,3.972-1.952,5.078
			c-1.4,1.18-3.183,1.771-5.347,1.771c-2.36,0-4.569-0.716-6.629-2.148l2.1-3.955c1.473,1.302,2.926,1.953,4.358,1.953
			c0.618,0,1.168-0.167,1.647-0.501c0.48-0.334,0.721-0.801,0.721-1.404c0-0.61-0.265-1.05-0.794-1.318
			c-0.497-0.252-1.22-0.529-2.173-0.83c-1.123-0.301-2.066-0.642-2.832-1.025c-0.725-0.366-1.283-0.883-1.678-1.55
			c-0.396-0.667-0.593-1.583-0.593-2.747c0-1.253,0.272-2.36,0.817-3.32c0.578-0.977,1.355-1.721,2.332-2.234
			c0.952-0.512,2.066-0.769,3.345-0.769c0.944,0,1.962,0.143,3.052,0.427C336.232,64.607,337.185,64.982,338.031,65.462z"/>
		<path fill="#F51484" d="M346.026,64.412V83.26h-4.896V64.412H346.026z"/>
		<path fill="#F51484" d="M356.732,68.563V83.26h-4.896V68.563h-4.052v-4.15h13v4.15H356.732z"/>
		<path fill="#F51484" d="M383.441,65.462l-1.953,3.797c-1.018-0.83-2.1-1.245-3.247-1.245c-0.521,0-0.997,0.143-1.429,0.427
			c-0.447,0.269-0.671,0.651-0.671,1.147c0,0.48,0.198,0.847,0.598,1.099c0.374,0.244,0.899,0.476,1.575,0.696l1.244,0.378
			c1.425,0.415,2.568,1.021,3.43,1.819c0.814,0.806,1.221,1.917,1.221,3.332c0,2.279-0.65,3.972-1.953,5.078
			c-1.399,1.18-3.182,1.771-5.346,1.771c-2.361,0-4.57-0.716-6.629-2.148l2.1-3.955c1.473,1.302,2.926,1.953,4.357,1.953
			c0.619,0,1.168-0.167,1.648-0.501s0.721-0.801,0.721-1.404c0-0.61-0.266-1.05-0.794-1.318c-0.497-0.252-1.221-0.529-2.173-0.83
			c-1.123-0.301-2.067-0.642-2.832-1.025c-0.725-0.366-1.283-0.883-1.678-1.55c-0.396-0.667-0.593-1.583-0.593-2.747
			c0-1.253,0.272-2.36,0.817-3.32c0.578-0.977,1.355-1.721,2.332-2.234c0.952-0.512,2.066-0.769,3.344-0.769
			c0.945,0,1.963,0.143,3.053,0.427C381.643,64.607,382.595,64.982,383.441,65.462z"/>
		<path fill="#F51484" d="M394.037,68.563V83.26h-4.896V68.563h-4.053v-4.15h13.001v4.15H394.037z"/>
		<path fill="#F51484" d="M409.344,63.79c1.376,0,2.686,0.232,3.931,0.696c1.27,0.489,2.385,1.164,3.345,2.026
			c0.943,0.847,1.713,1.88,2.307,3.101c0.562,1.147,0.843,2.438,0.843,3.87c0,1.506-0.249,2.889-0.745,4.151
			c-0.521,1.285-1.253,2.396-2.197,3.332c-0.505,0.505-1.025,0.932-1.563,1.281c-0.537,0.351-1.119,0.647-1.745,0.892
			c-1.261,0.496-2.653,0.744-4.175,0.744c-1.498,0-2.881-0.248-4.15-0.744c-1.285-0.505-2.393-1.229-3.32-2.173
			c-0.465-0.456-0.873-0.95-1.228-1.484c-0.354-0.532-0.677-1.148-0.97-1.849c-0.505-1.277-0.758-2.661-0.758-4.15
			c0-0.676,0.072-1.338,0.214-1.989c0.143-0.651,0.356-1.277,0.642-1.88c0.602-1.237,1.367-2.271,2.295-3.101
			c0.969-0.871,2.095-1.546,3.381-2.026C406.662,64.021,407.961,63.79,409.344,63.79z M409.344,68.538
			c-0.961,0-1.844,0.232-2.648,0.696c-0.847,0.489-1.498,1.099-1.953,1.831c-0.48,0.798-0.721,1.612-0.721,2.442
			c0,1.033,0.24,1.993,0.721,2.881c0.488,0.887,1.131,1.563,1.928,2.026c0.838,0.48,1.73,0.72,2.674,0.72
			c0.961,0,1.852-0.239,2.674-0.72c0.797-0.455,1.44-1.131,1.928-2.026c0.48-0.862,0.721-1.823,0.721-2.881
			c0-0.854-0.24-1.668-0.721-2.442c-0.463-0.74-1.114-1.35-1.952-1.831C411.195,68.77,410.313,68.538,409.344,68.538z"/>
		<path fill="#F51484" d="M431.805,75.532l5.921,7.728h-6.104l-4.614-7.251h-0.062v7.251h-4.895V64.412h7.323
			c1.303,0,2.438,0.208,3.406,0.622c1.002,0.44,1.766,1.083,2.295,1.929c0.57,0.863,0.855,1.945,0.855,3.247
			c0,0.879-0.159,1.697-0.477,2.454c-0.342,0.765-0.81,1.387-1.404,1.868C433.441,75.028,432.692,75.362,431.805,75.532z
			 M426.947,68.159v4.7h0.476c0.676,0,1.245-0.056,1.709-0.171c0.505-0.146,0.911-0.382,1.221-0.708
			c0.317-0.325,0.476-0.813,0.476-1.465c0-0.659-0.158-1.151-0.476-1.477c-0.31-0.325-0.716-0.562-1.221-0.708
			c-0.448-0.114-1.017-0.171-1.709-0.171H426.947L426.947,68.159z"/>
		<path fill="#F51484" d="M449.786,68.563h-5.835v3.149h5.529v4.15h-5.529v3.247h5.835v4.15h-10.729V64.412h10.729V68.563z"/>
	</g>
</g>
</svg>
