<?xml version="1.0" encoding="utf-8"?>
<!-- Generator: Adobe Illustrator 16.0.0, SVG Export Plug-In . SVG Version: 6.00 Build 0)  -->
<!DOCTYPE svg PUBLIC "-//W3C//DTD SVG 1.1//EN" "http://www.w3.org/Graphics/SVG/1.1/DTD/svg11.dtd">
<svg version="1.1" id="Layer_1" xmlns="http://www.w3.org/2000/svg" xmlns:xlink="http://www.w3.org/1999/xlink" x="0px" y="0px"
	 width="253px" height="44px" viewBox="120 21.5 253 44" enable-background="new 120 21.5 253 44" xml:space="preserve">
<g>
	<rect x="253.75" y="28.375" fill="#F9F9F9" width="112.5" height="30"/>
	<rect x="252.75" y="27.375" fill="#F51484" width="112.5" height="30"/>
	<rect x="251.75" y="26.375" fill="#6E1F75" width="112.5" height="30"/>
	<g>
		<path fill="#F51484" d="M273.224,37.456l2.271,5.725l2.288-5.725h2.661l-4.022,9.424h-1.904l-3.962-9.424H273.224z"/>
		<path fill="#F51484" d="M283.508,37.456v9.424h-2.447v-9.424H283.508z"/>
		<path fill="#F51484" d="M291.266,37.981l-0.977,1.898c-0.51-0.415-1.05-0.623-1.623-0.623c-0.261,0-0.499,0.072-0.715,0.214
			c-0.224,0.135-0.336,0.325-0.336,0.573c0,0.24,0.1,0.424,0.3,0.55c0.187,0.122,0.449,0.238,0.787,0.348l0.622,0.189
			c0.712,0.208,1.283,0.511,1.715,0.91c0.407,0.403,0.611,0.958,0.611,1.666c0,1.14-0.325,1.985-0.977,2.539
			c-0.699,0.59-1.592,0.886-2.674,0.886c-1.18,0-2.284-0.358-3.314-1.074l1.05-1.977c0.737,0.65,1.464,0.976,2.179,0.976
			c0.31,0,0.584-0.084,0.823-0.251c0.24-0.167,0.361-0.4,0.361-0.701c0-0.305-0.133-0.525-0.397-0.658
			c-0.248-0.127-0.61-0.265-1.086-0.415c-0.562-0.151-1.033-0.322-1.416-0.513c-0.363-0.183-0.643-0.441-0.84-0.775
			c-0.197-0.333-0.297-0.791-0.297-1.373c0-0.627,0.137-1.18,0.409-1.66c0.289-0.488,0.677-0.86,1.166-1.117
			c0.476-0.256,1.032-0.384,1.673-0.384c0.471,0,0.98,0.072,1.525,0.213C290.366,37.554,290.843,37.741,291.266,37.981z"/>
		<path fill="#F51484" d="M295.263,37.456v9.424h-2.448v-9.424H295.263z"/>
		<path fill="#F51484" d="M300.616,39.531v7.349h-2.448v-7.349h-2.026v-2.074h6.501v2.074H300.616z"/>
		<path fill="#F51484" d="M313.971,37.981l-0.977,1.898c-0.51-0.415-1.051-0.623-1.623-0.623c-0.261,0-0.499,0.072-0.716,0.214
			c-0.223,0.135-0.335,0.325-0.335,0.573c0,0.24,0.1,0.424,0.299,0.55c0.188,0.122,0.449,0.238,0.788,0.348l0.621,0.189
			c0.713,0.208,1.284,0.511,1.716,0.91c0.407,0.403,0.61,0.958,0.61,1.666c0,1.14-0.325,1.985-0.976,2.539
			c-0.7,0.59-1.592,0.886-2.674,0.886c-1.18,0-2.285-0.358-3.314-1.074l1.05-1.977c0.736,0.65,1.463,0.976,2.179,0.976
			c0.309,0,0.584-0.084,0.823-0.251c0.24-0.167,0.36-0.4,0.36-0.701c0-0.305-0.133-0.525-0.396-0.658
			c-0.249-0.127-0.611-0.265-1.087-0.415c-0.562-0.151-1.032-0.322-1.416-0.513c-0.362-0.183-0.642-0.441-0.839-0.775
			c-0.198-0.333-0.297-0.791-0.297-1.373c0-0.627,0.136-1.18,0.408-1.66c0.289-0.488,0.678-0.86,1.166-1.117
			c0.477-0.256,1.033-0.384,1.674-0.384c0.471,0,0.98,0.072,1.525,0.213C313.071,37.554,313.548,37.741,313.971,37.981z"/>
		<path fill="#F51484" d="M319.269,39.531v7.349h-2.448v-7.349h-2.026v-2.074h6.501v2.074H319.269z"/>
		<path fill="#F51484" d="M326.922,37.145c0.688,0,1.344,0.116,1.967,0.348c0.635,0.244,1.191,0.582,1.672,1.012
			c0.471,0.424,0.856,0.941,1.153,1.551c0.282,0.573,0.422,1.219,0.422,1.935c0,0.753-0.124,1.445-0.372,2.075
			c-0.261,0.643-0.627,1.198-1.099,1.666c-0.253,0.253-0.513,0.467-0.782,0.641c-0.268,0.176-0.559,0.323-0.871,0.446
			c-0.631,0.247-1.326,0.372-2.088,0.372c-0.75,0-1.441-0.125-2.074-0.372c-0.644-0.253-1.197-0.614-1.66-1.087
			c-0.232-0.229-0.438-0.475-0.615-0.741c-0.177-0.267-0.338-0.574-0.484-0.925c-0.253-0.639-0.379-1.33-0.379-2.075
			c0-0.338,0.035-0.669,0.106-0.994c0.072-0.326,0.179-0.639,0.321-0.94c0.301-0.619,0.683-1.136,1.148-1.55
			c0.484-0.436,1.047-0.774,1.689-1.014C325.581,37.261,326.23,37.145,326.922,37.145z M326.922,39.519
			c-0.48,0-0.922,0.116-1.323,0.348c-0.425,0.244-0.749,0.549-0.977,0.915c-0.24,0.399-0.36,0.806-0.36,1.221
			c0,0.517,0.119,0.997,0.36,1.441c0.243,0.443,0.565,0.781,0.964,1.013c0.42,0.239,0.865,0.359,1.337,0.359
			c0.48,0,0.927-0.119,1.337-0.359c0.399-0.229,0.721-0.566,0.965-1.013c0.24-0.432,0.36-0.912,0.36-1.441
			c0-0.427-0.12-0.834-0.36-1.221c-0.231-0.37-0.557-0.675-0.977-0.915C327.848,39.635,327.406,39.519,326.922,39.519z"/>
		<path fill="#F51484" d="M338.152,43.016l2.961,3.864h-3.053l-2.307-3.625h-0.031v3.625h-2.447v-9.424h3.661
			c0.651,0,1.219,0.104,1.703,0.311c0.501,0.22,0.884,0.542,1.147,0.964c0.284,0.432,0.427,0.973,0.427,1.624
			c0,0.439-0.079,0.849-0.237,1.227c-0.172,0.383-0.406,0.693-0.703,0.934C338.971,42.764,338.596,42.931,338.152,43.016z
			 M335.724,39.33v2.35h0.237c0.338,0,0.623-0.029,0.855-0.086c0.252-0.073,0.455-0.19,0.61-0.354
			c0.158-0.163,0.238-0.407,0.238-0.732c0-0.33-0.079-0.576-0.238-0.739c-0.155-0.163-0.358-0.281-0.61-0.354
			c-0.225-0.057-0.51-0.085-0.855-0.085L335.724,39.33L335.724,39.33z"/>
		<path fill="#F51484" d="M347.143,39.531h-2.917v1.575h2.765v2.075h-2.765v1.624h2.917v2.074h-5.365v-9.423h5.365V39.531z"/>
	</g>
	<g>
		<path fill="#3AB4FF" d="M272.474,36.706l2.271,5.725l2.288-5.725h2.661l-4.022,9.424h-1.904l-3.962-9.424H272.474z"/>
		<path fill="#3AB4FF" d="M282.758,36.706v9.424h-2.447v-9.424H282.758z"/>
		<path fill="#3AB4FF" d="M290.516,37.231l-0.977,1.898c-0.51-0.415-1.05-0.623-1.623-0.623c-0.261,0-0.499,0.072-0.715,0.214
			c-0.224,0.135-0.336,0.325-0.336,0.573c0,0.24,0.1,0.424,0.3,0.55c0.187,0.122,0.449,0.238,0.787,0.348l0.622,0.189
			c0.712,0.208,1.283,0.511,1.715,0.91c0.407,0.403,0.611,0.958,0.611,1.666c0,1.14-0.325,1.985-0.977,2.539
			c-0.699,0.59-1.592,0.886-2.674,0.886c-1.18,0-2.284-0.358-3.314-1.074l1.05-1.977c0.737,0.651,1.464,0.976,2.179,0.976
			c0.31,0,0.584-0.084,0.823-0.251c0.24-0.167,0.361-0.4,0.361-0.701c0-0.305-0.133-0.525-0.397-0.658
			c-0.248-0.127-0.61-0.265-1.086-0.415c-0.562-0.151-1.033-0.322-1.416-0.513c-0.363-0.183-0.643-0.441-0.84-0.775
			c-0.197-0.333-0.297-0.791-0.297-1.373c0-0.627,0.137-1.18,0.409-1.66c0.289-0.488,0.677-0.86,1.166-1.117
			c0.476-0.256,1.032-0.384,1.673-0.384c0.471,0,0.98,0.072,1.525,0.213C289.616,36.804,290.093,36.991,290.516,37.231z"/>
		<path fill="#3AB4FF" d="M294.513,36.706v9.424h-2.448v-9.424H294.513z"/>
		<path fill="#3AB4FF" d="M299.866,38.781v7.349h-2.448v-7.349h-2.026v-2.074h6.501v2.074H299.866z"/>
		<path fill="#3AB4FF" d="M313.221,37.231l-0.977,1.898c-0.51-0.415-1.051-0.623-1.623-0.623c-0.261,0-0.499,0.072-0.716,0.214
			c-0.223,0.135-0.335,0.325-0.335,0.573c0,0.24,0.1,0.424,0.299,0.55c0.188,0.122,0.449,0.238,0.788,0.348l0.621,0.189
			c0.713,0.208,1.284,0.511,1.716,0.91c0.407,0.403,0.61,0.958,0.61,1.666c0,1.14-0.325,1.985-0.976,2.539
			c-0.7,0.59-1.592,0.886-2.674,0.886c-1.18,0-2.285-0.358-3.314-1.074l1.05-1.977c0.736,0.651,1.463,0.976,2.179,0.976
			c0.309,0,0.584-0.084,0.823-0.251c0.24-0.167,0.36-0.4,0.36-0.701c0-0.305-0.133-0.525-0.396-0.658
			c-0.249-0.127-0.611-0.265-1.087-0.415c-0.562-0.151-1.032-0.322-1.416-0.513c-0.362-0.183-0.642-0.441-0.839-0.775
			c-0.198-0.333-0.297-0.791-0.297-1.373c0-0.627,0.136-1.18,0.408-1.66c0.289-0.488,0.678-0.86,1.166-1.117
			c0.477-0.256,1.033-0.384,1.674-0.384c0.471,0,0.98,0.072,1.525,0.213C312.321,36.804,312.798,36.991,313.221,37.231z"/>
		<path fill="#3AB4FF" d="M318.519,38.781v7.349h-2.448v-7.349h-2.026v-2.074h6.501v2.074H318.519z"/>
		<path fill="#3AB4FF" d="M326.172,36.395c0.688,0,1.344,0.116,1.967,0.348c0.635,0.244,1.191,0.582,1.672,1.012
			c0.471,0.424,0.856,0.941,1.153,1.551c0.282,0.573,0.422,1.219,0.422,1.935c0,0.753-0.124,1.445-0.372,2.075
			c-0.261,0.643-0.627,1.198-1.099,1.666c-0.253,0.253-0.513,0.467-0.782,0.641c-0.268,0.176-0.559,0.323-0.871,0.446
			c-0.631,0.247-1.326,0.372-2.088,0.372c-0.75,0-1.441-0.125-2.074-0.372c-0.644-0.253-1.197-0.614-1.66-1.087
			c-0.232-0.229-0.438-0.475-0.615-0.741c-0.177-0.267-0.338-0.574-0.484-0.925c-0.253-0.638-0.379-1.33-0.379-2.075
			c0-0.338,0.035-0.669,0.106-0.994c0.072-0.326,0.179-0.639,0.321-0.94c0.301-0.619,0.683-1.136,1.148-1.55
			c0.484-0.436,1.047-0.774,1.689-1.014C324.831,36.511,325.48,36.395,326.172,36.395z M326.172,38.769
			c-0.48,0-0.922,0.116-1.323,0.348c-0.425,0.244-0.749,0.549-0.977,0.915c-0.24,0.399-0.36,0.806-0.36,1.221
			c0,0.517,0.119,0.997,0.36,1.441c0.243,0.443,0.565,0.781,0.964,1.013c0.42,0.239,0.865,0.359,1.337,0.359
			c0.48,0,0.927-0.119,1.337-0.359c0.399-0.228,0.721-0.566,0.965-1.013c0.24-0.432,0.36-0.912,0.36-1.441
			c0-0.427-0.12-0.834-0.36-1.221c-0.231-0.37-0.557-0.675-0.977-0.915C327.098,38.885,326.656,38.769,326.172,38.769z"/>
		<path fill="#3AB4FF" d="M337.402,42.266l2.961,3.864h-3.053l-2.307-3.625h-0.031v3.625h-2.447v-9.424h3.661
			c0.651,0,1.219,0.104,1.703,0.311c0.501,0.22,0.884,0.542,1.147,0.964c0.284,0.432,0.427,0.973,0.427,1.624
			c0,0.439-0.079,0.849-0.237,1.227c-0.172,0.383-0.406,0.693-0.703,0.934C338.221,42.014,337.846,42.181,337.402,42.266z
			 M334.974,38.58v2.35h0.237c0.338,0,0.623-0.029,0.855-0.086c0.252-0.073,0.455-0.19,0.61-0.354
			c0.158-0.163,0.238-0.407,0.238-0.732c0-0.33-0.079-0.576-0.238-0.739c-0.155-0.163-0.358-0.281-0.61-0.354
			c-0.225-0.057-0.51-0.085-0.855-0.085L334.974,38.58L334.974,38.58z"/>
		<path fill="#3AB4FF" d="M346.393,38.781h-2.917v1.575h2.765v2.075h-2.765v1.624h2.917v2.074h-5.365v-9.423h5.365V38.781z"/>
	</g>
</g>
<g>
	<rect x="128.75" y="28.125" fill="#6E1F75" width="112.5" height="30"/>
	<rect x="127.75" y="27.125" fill="#F51484" width="112.5" height="30"/>
	<rect x="126.75" y="26.125" fill="#F9F9F9" width="112.5" height="30"/>
	<g>
		<path fill="#3AB4FF" d="M148.224,37.206l2.271,5.725l2.289-5.725h2.661l-4.021,9.424h-1.905l-3.961-9.423L148.224,37.206
			L148.224,37.206z"/>
		<path fill="#3AB4FF" d="M158.508,37.206v9.424h-2.447v-9.424H158.508z"/>
		<path fill="#3AB4FF" d="M166.266,37.731l-0.977,1.898c-0.509-0.415-1.05-0.623-1.624-0.623c-0.26,0-0.499,0.072-0.714,0.214
			c-0.224,0.135-0.335,0.325-0.335,0.573c0,0.24,0.1,0.424,0.299,0.55c0.187,0.122,0.449,0.238,0.787,0.348l0.622,0.189
			c0.712,0.208,1.283,0.511,1.715,0.91c0.407,0.403,0.61,0.958,0.61,1.666c0,1.14-0.325,1.985-0.977,2.539
			c-0.7,0.59-1.591,0.886-2.673,0.886c-1.18,0-2.285-0.358-3.314-1.074l1.05-1.977c0.736,0.65,1.463,0.976,2.179,0.976
			c0.309,0,0.584-0.084,0.824-0.251c0.239-0.167,0.359-0.4,0.359-0.701c0-0.305-0.132-0.525-0.396-0.658
			c-0.248-0.127-0.609-0.265-1.086-0.415c-0.562-0.151-1.034-0.322-1.416-0.513c-0.363-0.183-0.643-0.441-0.84-0.775
			c-0.197-0.333-0.296-0.791-0.296-1.373c0-0.627,0.136-1.18,0.408-1.66c0.289-0.488,0.678-0.86,1.166-1.117
			c0.477-0.256,1.034-0.384,1.673-0.384c0.471,0,0.98,0.072,1.526,0.213C165.366,37.304,165.843,37.491,166.266,37.731z"/>
		<path fill="#3AB4FF" d="M170.263,37.206v9.424h-2.448v-9.424H170.263z"/>
		<path fill="#3AB4FF" d="M175.616,39.281v7.349h-2.448v-7.349h-2.026v-2.074h6.5v2.074H175.616z"/>
		<path fill="#3AB4FF" d="M188.971,37.731l-0.977,1.898c-0.509-0.415-1.05-0.623-1.624-0.623c-0.26,0-0.499,0.072-0.714,0.214
			c-0.224,0.135-0.335,0.325-0.335,0.573c0,0.24,0.099,0.424,0.299,0.55c0.187,0.122,0.45,0.238,0.787,0.348l0.623,0.189
			c0.712,0.208,1.283,0.511,1.715,0.91c0.406,0.403,0.61,0.958,0.61,1.666c0,1.14-0.325,1.985-0.977,2.539
			c-0.7,0.59-1.591,0.886-2.673,0.886c-1.181,0-2.285-0.358-3.314-1.074l1.05-1.977c0.736,0.65,1.463,0.976,2.179,0.976
			c0.309,0,0.584-0.084,0.824-0.251s0.36-0.4,0.36-0.701c0-0.305-0.133-0.525-0.396-0.658c-0.249-0.127-0.61-0.265-1.087-0.415
			c-0.562-0.151-1.033-0.322-1.416-0.513c-0.362-0.183-0.642-0.441-0.839-0.775c-0.198-0.333-0.296-0.791-0.296-1.373
			c0-0.627,0.135-1.18,0.409-1.66c0.289-0.488,0.677-0.86,1.166-1.117c0.476-0.256,1.033-0.384,1.672-0.384
			c0.471,0,0.981,0.072,1.526,0.213C188.071,37.304,188.548,37.491,188.971,37.731z"/>
		<path fill="#3AB4FF" d="M194.269,39.281v7.349h-2.447v-7.349h-2.027v-2.074h6.5v2.074H194.269z"/>
		<path fill="#3AB4FF" d="M201.922,36.895c0.688,0,1.344,0.116,1.966,0.348c0.635,0.244,1.193,0.582,1.673,1.012
			c0.472,0.424,0.856,0.941,1.153,1.551c0.282,0.573,0.422,1.219,0.422,1.935c0,0.753-0.124,1.445-0.372,2.075
			c-0.261,0.643-0.627,1.198-1.099,1.666c-0.252,0.253-0.513,0.467-0.781,0.641c-0.269,0.176-0.56,0.323-0.873,0.446
			c-0.631,0.247-1.326,0.372-2.088,0.372c-0.749,0-1.44-0.125-2.075-0.372c-0.642-0.253-1.196-0.614-1.66-1.087
			c-0.232-0.229-0.437-0.475-0.614-0.741c-0.177-0.267-0.339-0.574-0.485-0.925c-0.252-0.639-0.378-1.33-0.378-2.075
			c0-0.338,0.036-0.669,0.106-0.994c0.072-0.326,0.178-0.639,0.321-0.94c0.301-0.619,0.684-1.136,1.147-1.55
			c0.485-0.436,1.048-0.774,1.691-1.014C200.582,37.011,201.23,36.895,201.922,36.895z M201.922,39.269
			c-0.48,0-0.921,0.116-1.324,0.348c-0.423,0.244-0.749,0.549-0.976,0.915c-0.24,0.399-0.36,0.806-0.36,1.221
			c0,0.517,0.119,0.997,0.36,1.441c0.244,0.443,0.565,0.781,0.964,1.013c0.419,0.239,0.865,0.359,1.336,0.359
			c0.48,0,0.926-0.119,1.337-0.359c0.399-0.229,0.72-0.566,0.965-1.013c0.239-0.432,0.36-0.912,0.36-1.441
			c0-0.427-0.12-0.834-0.36-1.221c-0.232-0.37-0.558-0.675-0.977-0.915C202.848,39.385,202.406,39.269,201.922,39.269z"/>
		<path fill="#3AB4FF" d="M213.152,42.766l2.96,3.864h-3.052l-2.308-3.625h-0.03v3.625h-2.448v-9.424h3.662
			c0.651,0,1.219,0.104,1.703,0.311c0.5,0.22,0.883,0.542,1.147,0.964c0.284,0.432,0.427,0.973,0.427,1.624
			c0,0.439-0.079,0.849-0.238,1.227c-0.171,0.383-0.406,0.693-0.702,0.934C213.971,42.514,213.596,42.681,213.152,42.766z
			 M210.724,39.08v2.35h0.238c0.338,0,0.623-0.029,0.854-0.086c0.252-0.073,0.456-0.19,0.611-0.354
			c0.158-0.163,0.238-0.407,0.238-0.732c0-0.33-0.08-0.576-0.238-0.739c-0.155-0.163-0.358-0.281-0.611-0.354
			c-0.224-0.057-0.508-0.085-0.854-0.085L210.724,39.08L210.724,39.08z"/>
		<path fill="#3AB4FF" d="M222.143,39.281h-2.917v1.575h2.765v2.075h-2.765v1.624h2.917v2.074h-5.365v-9.423h5.365V39.281z"/>
	</g>
	<g>
		<path fill="#F51484" d="M147.474,36.456l2.271,5.725l2.289-5.725h2.661l-4.021,9.424h-1.905l-3.961-9.423L147.474,36.456
			L147.474,36.456z"/>
		<path fill="#F51484" d="M157.758,36.456v9.424h-2.447v-9.424H157.758z"/>
		<path fill="#F51484" d="M165.516,36.981l-0.977,1.898c-0.509-0.415-1.05-0.623-1.624-0.623c-0.26,0-0.499,0.072-0.714,0.214
			c-0.224,0.135-0.335,0.325-0.335,0.573c0,0.24,0.1,0.424,0.299,0.55c0.187,0.122,0.449,0.238,0.787,0.348l0.622,0.189
			c0.712,0.208,1.283,0.511,1.715,0.91c0.407,0.403,0.61,0.958,0.61,1.667c0,1.139-0.325,1.985-0.977,2.54
			c-0.7,0.59-1.591,0.885-2.673,0.885c-1.18,0-2.285-0.357-3.314-1.073l1.05-1.978c0.736,0.65,1.463,0.976,2.179,0.976
			c0.309,0,0.584-0.083,0.824-0.25c0.239-0.167,0.359-0.4,0.359-0.702c0-0.304-0.132-0.525-0.396-0.659
			c-0.248-0.126-0.609-0.265-1.086-0.415c-0.562-0.151-1.034-0.321-1.416-0.512c-0.363-0.183-0.643-0.442-0.84-0.775
			c-0.197-0.334-0.296-0.792-0.296-1.374c0-0.626,0.136-1.18,0.408-1.66c0.289-0.489,0.678-0.861,1.166-1.117
			c0.477-0.256,1.034-0.385,1.673-0.385c0.471,0,0.98,0.071,1.526,0.213C164.616,36.554,165.093,36.741,165.516,36.981z"/>
		<path fill="#F51484" d="M169.513,36.456v9.424h-2.448v-9.424H169.513z"/>
		<path fill="#F51484" d="M174.866,38.531v7.349h-2.448v-7.349h-2.026v-2.074h6.5v2.074H174.866z"/>
		<path fill="#F51484" d="M188.221,36.981l-0.977,1.898c-0.509-0.415-1.05-0.623-1.624-0.623c-0.26,0-0.499,0.072-0.714,0.214
			c-0.224,0.135-0.335,0.325-0.335,0.573c0,0.24,0.099,0.424,0.299,0.55c0.187,0.122,0.45,0.238,0.787,0.348l0.623,0.189
			c0.712,0.208,1.283,0.511,1.715,0.91c0.406,0.403,0.61,0.958,0.61,1.667c0,1.139-0.325,1.985-0.977,2.54
			c-0.7,0.59-1.591,0.885-2.673,0.885c-1.181,0-2.285-0.357-3.314-1.073l1.05-1.978c0.736,0.65,1.463,0.976,2.179,0.976
			c0.309,0,0.584-0.083,0.824-0.25s0.36-0.4,0.36-0.702c0-0.304-0.133-0.525-0.396-0.659c-0.249-0.126-0.61-0.265-1.087-0.415
			c-0.562-0.151-1.033-0.321-1.416-0.512c-0.362-0.183-0.642-0.442-0.839-0.775c-0.198-0.334-0.296-0.792-0.296-1.374
			c0-0.626,0.135-1.18,0.409-1.66c0.289-0.489,0.677-0.861,1.166-1.117c0.476-0.256,1.033-0.385,1.672-0.385
			c0.471,0,0.981,0.071,1.526,0.213C187.321,36.554,187.798,36.741,188.221,36.981z"/>
		<path fill="#F51484" d="M193.519,38.531v7.349h-2.447v-7.349h-2.027v-2.074h6.5v2.074H193.519z"/>
		<path fill="#F51484" d="M201.172,36.145c0.688,0,1.344,0.116,1.966,0.348c0.635,0.244,1.193,0.582,1.673,1.012
			c0.472,0.424,0.856,0.941,1.153,1.551c0.282,0.573,0.422,1.219,0.422,1.935c0,0.753-0.124,1.445-0.372,2.075
			c-0.261,0.643-0.627,1.198-1.099,1.666c-0.252,0.253-0.513,0.467-0.781,0.641c-0.269,0.176-0.56,0.323-0.873,0.446
			c-0.631,0.247-1.326,0.372-2.088,0.372c-0.749,0-1.44-0.125-2.075-0.372c-0.642-0.253-1.196-0.614-1.66-1.087
			c-0.232-0.229-0.437-0.475-0.614-0.741c-0.177-0.267-0.339-0.574-0.485-0.925c-0.252-0.638-0.378-1.33-0.378-2.075
			c0-0.338,0.036-0.669,0.106-0.994c0.072-0.326,0.178-0.639,0.321-0.94c0.301-0.619,0.684-1.136,1.147-1.55
			c0.485-0.436,1.048-0.774,1.691-1.014C199.832,36.261,200.48,36.145,201.172,36.145z M201.172,38.519
			c-0.48,0-0.921,0.116-1.324,0.348c-0.423,0.244-0.749,0.549-0.976,0.915c-0.24,0.399-0.36,0.806-0.36,1.221
			c0,0.517,0.119,0.997,0.36,1.441c0.244,0.443,0.565,0.781,0.964,1.012c0.419,0.24,0.865,0.36,1.336,0.36
			c0.48,0,0.926-0.119,1.337-0.36c0.399-0.228,0.72-0.565,0.965-1.012c0.239-0.432,0.36-0.912,0.36-1.441
			c0-0.427-0.12-0.834-0.36-1.221c-0.232-0.37-0.558-0.675-0.977-0.915C202.098,38.635,201.656,38.519,201.172,38.519z"/>
		<path fill="#F51484" d="M212.402,42.016l2.96,3.864h-3.052l-2.308-3.625h-0.03v3.625h-2.448v-9.424h3.662
			c0.651,0,1.219,0.104,1.703,0.311c0.5,0.22,0.883,0.542,1.147,0.964c0.284,0.432,0.427,0.973,0.427,1.624
			c0,0.439-0.079,0.849-0.238,1.227c-0.171,0.383-0.406,0.693-0.702,0.934C213.221,41.764,212.846,41.931,212.402,42.016z
			 M209.974,38.33v2.35h0.238c0.338,0,0.623-0.029,0.854-0.086c0.252-0.073,0.456-0.19,0.611-0.354
			c0.158-0.163,0.238-0.407,0.238-0.732c0-0.33-0.08-0.576-0.238-0.739c-0.155-0.163-0.358-0.281-0.611-0.354
			c-0.224-0.057-0.508-0.085-0.854-0.085L209.974,38.33L209.974,38.33z"/>
		<path fill="#F51484" d="M221.393,38.531h-2.917v1.575h2.765v2.075h-2.765v1.624h2.917v2.074h-5.365v-9.423h5.365V38.531z"/>
	</g>
</g>
</svg>
