<?xml version="1.0" encoding="utf-8"?>
<!-- Generator: Adobe Illustrator 16.0.0, SVG Export Plug-In . SVG Version: 6.00 Build 0)  -->
<!DOCTYPE svg PUBLIC "-//W3C//DTD SVG 1.1//EN" "http://www.w3.org/Graphics/SVG/1.1/DTD/svg11.dtd">
<svg version="1.1" id="Layer_1" xmlns="http://www.w3.org/2000/svg" xmlns:xlink="http://www.w3.org/1999/xlink" x="0px" y="0px"
	 width="493px" height="86px" viewBox="0 0 493 86" enable-background="new 0 0 493 86" xml:space="preserve">
<g>
	<rect x="261" y="14.5" fill="#F9F9F9" width="225" height="60"/>
	<rect x="259" y="12.5" fill="#F51484" width="225" height="60"/>
	<rect x="257" y="10.5" fill="#6E1F75" width="225" height="60"/>
	<g>
		<path fill="#F51484" d="M299.947,32.662l4.541,11.449l4.577-11.449h5.321l-8.044,18.848h-3.809l-7.923-18.848H299.947z"/>
		<path fill="#F51484" d="M320.516,32.662V51.51h-4.895V32.662H320.516z"/>
		<path fill="#F51484" d="M336.031,33.712l-1.953,3.797c-1.019-0.829-2.1-1.245-3.247-1.245c-0.521,0-0.997,0.144-1.428,0.428
			c-0.448,0.269-0.672,0.65-0.672,1.146c0,0.48,0.198,0.848,0.599,1.1c0.374,0.244,0.898,0.476,1.574,0.695l1.244,0.378
			c1.425,0.415,2.567,1.021,3.431,1.819c0.813,0.806,1.221,1.916,1.221,3.332c0,2.279-0.65,3.972-1.953,5.078
			c-1.399,1.18-3.183,1.771-5.347,1.771c-2.36,0-4.569-0.716-6.629-2.147l2.1-3.955c1.475,1.302,2.927,1.953,4.358,1.953
			c0.618,0,1.167-0.168,1.646-0.502c0.48-0.334,0.722-0.801,0.722-1.403c0-0.61-0.266-1.05-0.794-1.317
			c-0.496-0.253-1.221-0.529-2.173-0.83c-1.123-0.302-2.066-0.643-2.832-1.025c-0.726-0.366-1.284-0.883-1.68-1.551
			c-0.395-0.666-0.592-1.582-0.592-2.746c0-1.254,0.272-2.36,0.818-3.32c0.577-0.977,1.354-1.721,2.331-2.234
			c0.952-0.512,2.066-0.769,3.345-0.769c0.943,0,1.961,0.144,3.052,0.427C334.232,32.857,335.185,33.232,336.031,33.712z"/>
		<path fill="#F51484" d="M344.026,32.662V51.51h-4.896V32.662H344.026z"/>
		<path fill="#F51484" d="M354.732,36.813V51.51h-4.896V36.813h-4.053v-4.149h13.001v4.149H354.732z"/>
		<path fill="#F51484" d="M381.441,33.712l-1.953,3.797c-1.019-0.829-2.101-1.245-3.247-1.245c-0.521,0-0.997,0.144-1.43,0.428
			c-0.446,0.269-0.671,0.65-0.671,1.146c0,0.48,0.199,0.848,0.599,1.1c0.374,0.244,0.898,0.476,1.575,0.695l1.243,0.378
			c1.426,0.415,2.568,1.021,3.432,1.819c0.813,0.806,1.22,1.916,1.22,3.332c0,2.279-0.65,3.972-1.952,5.078
			c-1.399,1.18-3.183,1.771-5.347,1.771c-2.36,0-4.569-0.716-6.629-2.147l2.1-3.955c1.473,1.302,2.926,1.953,4.358,1.953
			c0.617,0,1.168-0.168,1.646-0.502c0.48-0.334,0.721-0.801,0.721-1.403c0-0.61-0.265-1.05-0.794-1.317
			c-0.497-0.253-1.221-0.529-2.173-0.83c-1.123-0.302-2.066-0.643-2.832-1.025c-0.725-0.366-1.284-0.883-1.679-1.551
			c-0.396-0.666-0.592-1.582-0.592-2.746c0-1.254,0.271-2.36,0.816-3.32c0.578-0.977,1.355-1.721,2.332-2.234
			c0.952-0.512,2.066-0.769,3.346-0.769c0.943,0,1.961,0.144,3.052,0.427C379.643,32.857,380.595,33.232,381.441,33.712z"/>
		<path fill="#F51484" d="M392.037,36.813V51.51h-4.896V36.813h-4.053v-4.149h13.001v4.149H392.037z"/>
		<path fill="#F51484" d="M407.344,32.04c1.376,0,2.687,0.231,3.932,0.696c1.27,0.488,2.385,1.164,3.345,2.025
			c0.942,0.848,1.713,1.881,2.307,3.102c0.563,1.146,0.843,2.438,0.843,3.869c0,1.507-0.248,2.89-0.744,4.151
			c-0.521,1.285-1.253,2.396-2.197,3.332c-0.505,0.505-1.025,0.933-1.563,1.281c-0.536,0.351-1.118,0.647-1.745,0.892
			c-1.261,0.496-2.652,0.744-4.175,0.744c-1.498,0-2.881-0.248-4.149-0.744c-1.286-0.505-2.394-1.229-3.32-2.173
			c-0.465-0.456-0.873-0.95-1.229-1.483c-0.354-0.532-0.677-1.148-0.97-1.85c-0.505-1.277-0.758-2.66-0.758-4.15
			c0-0.676,0.071-1.338,0.214-1.988c0.144-0.651,0.356-1.277,0.643-1.88c0.602-1.237,1.365-2.271,2.295-3.101
			c0.969-0.871,2.095-1.547,3.381-2.027C404.662,32.271,405.961,32.04,407.344,32.04z M407.344,36.788
			c-0.96,0-1.844,0.231-2.647,0.696c-0.848,0.488-1.498,1.099-1.953,1.83c-0.48,0.799-0.722,1.612-0.722,2.442
			c0,1.033,0.24,1.993,0.722,2.882c0.487,0.887,1.131,1.563,1.928,2.025c0.839,0.48,1.73,0.72,2.674,0.72
			c0.961,0,1.853-0.239,2.674-0.72c0.798-0.455,1.44-1.131,1.93-2.025c0.479-0.863,0.72-1.824,0.72-2.882
			c0-0.854-0.24-1.668-0.72-2.442c-0.464-0.739-1.115-1.35-1.953-1.83C409.195,37.02,408.313,36.788,407.344,36.788z"/>
		<path fill="#F51484" d="M429.805,43.782l5.921,7.728h-6.104l-4.614-7.251h-0.062v7.251h-4.896V32.662h7.323
			c1.303,0,2.438,0.208,3.406,0.622c1.001,0.44,1.767,1.083,2.295,1.929c0.569,0.863,0.854,1.945,0.854,3.247
			c0,0.879-0.158,1.697-0.476,2.454c-0.342,0.766-0.811,1.387-1.404,1.868C431.441,43.277,430.692,43.611,429.805,43.782z
			 M424.947,36.409v4.7h0.476c0.676,0,1.245-0.057,1.709-0.172c0.505-0.146,0.911-0.381,1.222-0.707
			c0.316-0.326,0.476-0.813,0.476-1.465c0-0.66-0.158-1.151-0.476-1.478c-0.311-0.325-0.718-0.562-1.222-0.708
			c-0.448-0.114-1.018-0.171-1.709-0.171H424.947L424.947,36.409z"/>
		<path fill="#F51484" d="M447.786,36.813h-5.835v3.149h5.529v4.149h-5.529v3.248h5.835v4.149h-10.73V32.662h10.73V36.813z"/>
	</g>
	<g>
		<path fill="#3AB4FF" d="M298.447,31.162l4.541,11.449l4.577-11.449h5.321l-8.044,18.848h-3.809l-7.923-18.848H298.447z"/>
		<path fill="#3AB4FF" d="M319.016,31.162V50.01h-4.895V31.162H319.016z"/>
		<path fill="#3AB4FF" d="M334.531,32.212l-1.953,3.797c-1.019-0.829-2.1-1.245-3.247-1.245c-0.521,0-0.997,0.144-1.428,0.428
			c-0.448,0.269-0.672,0.65-0.672,1.146c0,0.48,0.198,0.848,0.599,1.1c0.374,0.244,0.898,0.476,1.574,0.695l1.244,0.378
			c1.425,0.415,2.567,1.021,3.431,1.819c0.813,0.806,1.221,1.917,1.221,3.332c0,2.279-0.65,3.972-1.953,5.078
			c-1.399,1.18-3.183,1.771-5.347,1.771c-2.36,0-4.569-0.716-6.629-2.147l2.1-3.955c1.475,1.302,2.927,1.953,4.358,1.953
			c0.618,0,1.167-0.168,1.646-0.502c0.48-0.334,0.722-0.801,0.722-1.403c0-0.61-0.266-1.05-0.794-1.317
			c-0.496-0.253-1.221-0.529-2.173-0.83c-1.123-0.302-2.066-0.643-2.832-1.025c-0.726-0.366-1.284-0.883-1.68-1.551
			c-0.395-0.666-0.592-1.582-0.592-2.746c0-1.254,0.272-2.36,0.818-3.32c0.577-0.977,1.354-1.721,2.331-2.234
			c0.952-0.512,2.066-0.769,3.345-0.769c0.943,0,1.961,0.144,3.052,0.427C332.732,31.357,333.685,31.732,334.531,32.212z"/>
		<path fill="#3AB4FF" d="M342.526,31.162V50.01h-4.896V31.162H342.526z"/>
		<path fill="#3AB4FF" d="M353.232,35.313V50.01h-4.896V35.313h-4.053v-4.149h13.001v4.149H353.232z"/>
		<path fill="#3AB4FF" d="M379.941,32.212l-1.953,3.797c-1.019-0.829-2.101-1.245-3.247-1.245c-0.521,0-0.997,0.144-1.43,0.428
			c-0.446,0.269-0.671,0.65-0.671,1.146c0,0.48,0.199,0.848,0.599,1.1c0.374,0.244,0.898,0.476,1.575,0.695l1.243,0.378
			c1.426,0.415,2.568,1.021,3.432,1.819c0.813,0.806,1.22,1.917,1.22,3.332c0,2.279-0.65,3.972-1.952,5.078
			c-1.399,1.18-3.183,1.771-5.347,1.771c-2.36,0-4.569-0.716-6.629-2.147l2.1-3.955c1.473,1.302,2.926,1.953,4.358,1.953
			c0.617,0,1.168-0.168,1.646-0.502c0.48-0.334,0.721-0.801,0.721-1.403c0-0.61-0.265-1.05-0.794-1.317
			c-0.497-0.253-1.221-0.529-2.173-0.83c-1.123-0.302-2.066-0.643-2.832-1.025c-0.725-0.366-1.284-0.883-1.679-1.551
			c-0.395-0.666-0.592-1.582-0.592-2.746c0-1.254,0.271-2.36,0.816-3.32c0.578-0.977,1.355-1.721,2.332-2.234
			c0.952-0.512,2.066-0.769,3.346-0.769c0.943,0,1.961,0.144,3.052,0.427C378.143,31.357,379.095,31.732,379.941,32.212z"/>
		<path fill="#3AB4FF" d="M390.537,35.313V50.01h-4.896V35.313h-4.053v-4.149h13.001v4.149H390.537z"/>
		<path fill="#3AB4FF" d="M405.844,30.54c1.376,0,2.687,0.231,3.932,0.696c1.27,0.488,2.385,1.164,3.345,2.025
			c0.942,0.848,1.713,1.881,2.307,3.102c0.563,1.146,0.843,2.438,0.843,3.869c0,1.507-0.248,2.89-0.744,4.151
			c-0.521,1.285-1.253,2.396-2.197,3.332c-0.505,0.505-1.025,0.933-1.563,1.281c-0.536,0.351-1.118,0.647-1.745,0.892
			c-1.261,0.496-2.652,0.744-4.175,0.744c-1.498,0-2.881-0.248-4.149-0.744c-1.286-0.505-2.394-1.229-3.32-2.173
			c-0.465-0.456-0.873-0.95-1.229-1.483c-0.354-0.532-0.677-1.148-0.97-1.85c-0.505-1.277-0.758-2.66-0.758-4.15
			c0-0.676,0.071-1.338,0.214-1.988c0.144-0.651,0.356-1.277,0.643-1.88c0.602-1.237,1.365-2.271,2.295-3.101
			c0.969-0.871,2.095-1.547,3.381-2.027C403.162,30.771,404.461,30.54,405.844,30.54z M405.844,35.288
			c-0.96,0-1.844,0.231-2.647,0.696c-0.848,0.488-1.498,1.099-1.953,1.83c-0.48,0.799-0.722,1.612-0.722,2.442
			c0,1.033,0.24,1.994,0.722,2.882c0.487,0.887,1.131,1.563,1.928,2.025c0.839,0.48,1.73,0.72,2.674,0.72
			c0.961,0,1.853-0.239,2.674-0.72c0.798-0.455,1.44-1.131,1.93-2.025c0.479-0.863,0.72-1.824,0.72-2.882
			c0-0.854-0.24-1.668-0.72-2.442c-0.464-0.739-1.115-1.35-1.953-1.83C407.695,35.52,406.813,35.288,405.844,35.288z"/>
		<path fill="#3AB4FF" d="M428.305,42.282l5.921,7.728h-6.104l-4.614-7.251h-0.062v7.251h-4.896V31.162h7.323
			c1.303,0,2.438,0.208,3.406,0.622c1.001,0.44,1.767,1.083,2.295,1.929c0.569,0.863,0.854,1.945,0.854,3.247
			c0,0.879-0.158,1.697-0.476,2.454c-0.342,0.766-0.811,1.387-1.404,1.868C429.941,41.777,429.192,42.111,428.305,42.282z
			 M423.447,34.909v4.7h0.476c0.676,0,1.245-0.057,1.709-0.172c0.505-0.146,0.911-0.381,1.222-0.707
			c0.316-0.326,0.476-0.813,0.476-1.465c0-0.66-0.158-1.151-0.476-1.478c-0.311-0.325-0.718-0.562-1.222-0.708
			c-0.448-0.114-1.018-0.171-1.709-0.171H423.447L423.447,34.909z"/>
		<path fill="#3AB4FF" d="M446.286,35.313h-5.835v3.149h5.529v4.149h-5.529v3.248h5.835v4.149h-10.73V31.162h10.73V35.313z"/>
	</g>
</g>
<g>
	<rect x="11" y="14" fill="#6E1F75" width="225" height="60"/>
	<rect x="9" y="12" fill="#F51484" width="225" height="60"/>
	<rect x="7" y="10" fill="#F9F9F9" width="225" height="60"/>
	<g>
		<path fill="#3AB4FF" d="M49.947,32.162l4.541,11.449l4.578-11.449h5.322L56.345,51.01h-3.809l-7.923-18.847L49.947,32.162
			L49.947,32.162z"/>
		<path fill="#3AB4FF" d="M70.516,32.162V51.01h-4.895V32.162H70.516z"/>
		<path fill="#3AB4FF" d="M86.031,33.212l-1.953,3.797c-1.018-0.829-2.1-1.245-3.247-1.245c-0.521,0-0.997,0.144-1.429,0.428
			c-0.447,0.269-0.67,0.65-0.67,1.146c0,0.48,0.199,0.848,0.598,1.1c0.374,0.244,0.898,0.476,1.574,0.695l1.244,0.378
			c1.425,0.415,2.567,1.021,3.431,1.819c0.813,0.806,1.22,1.917,1.22,3.332c0,2.279-0.65,3.972-1.953,5.078
			c-1.4,1.18-3.182,1.771-5.347,1.771c-2.36,0-4.569-0.716-6.628-2.147l2.099-3.955c1.474,1.302,2.927,1.953,4.358,1.953
			c0.617,0,1.168-0.168,1.648-0.502c0.479-0.334,0.719-0.801,0.719-1.403c0-0.61-0.264-1.05-0.793-1.317
			c-0.496-0.253-1.219-0.529-2.172-0.83c-1.123-0.302-2.067-0.643-2.832-1.025c-0.725-0.366-1.285-0.883-1.679-1.551
			c-0.395-0.666-0.592-1.582-0.592-2.746c0-1.254,0.272-2.36,0.817-3.32c0.578-0.977,1.355-1.721,2.332-2.234
			c0.953-0.512,2.067-0.769,3.346-0.769c0.943,0,1.961,0.144,3.052,0.427C84.232,32.357,85.186,32.732,86.031,33.212z"/>
		<path fill="#3AB4FF" d="M94.025,32.162V51.01h-4.895V32.162H94.025z"/>
		<path fill="#3AB4FF" d="M104.732,36.313V51.01h-4.896V36.313h-4.052v-4.149h13v4.149H104.732z"/>
		<path fill="#3AB4FF" d="M131.441,33.212l-1.953,3.797c-1.018-0.829-2.1-1.245-3.247-1.245c-0.521,0-0.997,0.144-1.429,0.428
			c-0.447,0.269-0.67,0.65-0.67,1.146c0,0.48,0.198,0.848,0.598,1.1c0.373,0.244,0.9,0.476,1.574,0.695l1.246,0.378
			c1.424,0.415,2.566,1.021,3.43,1.819c0.813,0.806,1.221,1.917,1.221,3.332c0,2.279-0.65,3.972-1.953,5.078
			c-1.4,1.18-3.182,1.771-5.346,1.771c-2.361,0-4.57-0.716-6.629-2.147l2.1-3.955c1.473,1.302,2.926,1.953,4.358,1.953
			c0.618,0,1.168-0.168,1.647-0.502c0.48-0.334,0.721-0.801,0.721-1.403c0-0.61-0.266-1.05-0.793-1.317
			c-0.498-0.253-1.221-0.529-2.174-0.83c-1.123-0.302-2.066-0.643-2.832-1.025c-0.724-0.366-1.283-0.883-1.678-1.551
			c-0.395-0.666-0.592-1.582-0.592-2.746c0-1.254,0.271-2.36,0.818-3.32c0.578-0.977,1.354-1.721,2.332-2.234
			c0.951-0.512,2.066-0.769,3.344-0.769c0.943,0,1.962,0.144,3.052,0.427C129.643,32.357,130.596,32.732,131.441,33.212z"/>
		<path fill="#3AB4FF" d="M142.037,36.313V51.01h-4.895V36.313h-4.054v-4.149h13v4.149H142.037z"/>
		<path fill="#3AB4FF" d="M157.344,31.54c1.376,0,2.687,0.231,3.932,0.696c1.27,0.488,2.385,1.164,3.345,2.025
			c0.944,0.848,1.713,1.881,2.307,3.102c0.563,1.146,0.843,2.438,0.843,3.869c0,1.507-0.248,2.89-0.744,4.151
			c-0.521,1.285-1.254,2.396-2.197,3.332c-0.505,0.505-1.026,0.933-1.563,1.281c-0.536,0.351-1.118,0.647-1.745,0.892
			c-1.262,0.496-2.653,0.744-4.176,0.744c-1.498,0-2.881-0.248-4.15-0.744c-1.285-0.505-2.394-1.229-3.32-2.173
			c-0.464-0.456-0.873-0.95-1.227-1.483c-0.354-0.532-0.678-1.148-0.971-1.85c-0.504-1.277-0.757-2.66-0.757-4.15
			c0-0.676,0.071-1.338,0.213-1.988c0.144-0.651,0.356-1.277,0.642-1.88c0.602-1.237,1.366-2.271,2.295-3.101
			c0.969-0.871,2.095-1.547,3.382-2.027C154.663,31.771,155.961,31.54,157.344,31.54z M157.344,36.288
			c-0.96,0-1.843,0.231-2.648,0.696c-0.847,0.488-1.498,1.099-1.953,1.83c-0.48,0.799-0.72,1.612-0.72,2.442
			c0,1.033,0.239,1.993,0.72,2.882c0.488,0.887,1.131,1.563,1.928,2.025c0.838,0.48,1.729,0.72,2.673,0.72
			c0.961,0,1.852-0.239,2.674-0.72c0.798-0.455,1.44-1.131,1.929-2.025c0.479-0.863,0.72-1.824,0.72-2.882
			c0-0.854-0.24-1.668-0.72-2.442c-0.464-0.739-1.115-1.35-1.953-1.83C159.195,36.52,158.313,36.288,157.344,36.288z"/>
		<path fill="#3AB4FF" d="M179.805,43.282l5.92,7.728h-6.104l-4.615-7.251h-0.061v7.251h-4.896V32.162h7.324
			c1.302,0,2.438,0.208,3.406,0.622c1.001,0.44,1.766,1.083,2.295,1.929c0.569,0.863,0.854,1.945,0.854,3.247
			c0,0.879-0.159,1.697-0.476,2.454c-0.342,0.766-0.811,1.387-1.404,1.868C181.441,42.777,180.692,43.111,179.805,43.282z
			 M174.947,35.909v4.7h0.476c0.676,0,1.245-0.057,1.709-0.172c0.505-0.146,0.911-0.381,1.222-0.707
			c0.316-0.326,0.476-0.813,0.476-1.465c0-0.66-0.159-1.151-0.476-1.478c-0.311-0.325-0.717-0.562-1.222-0.708
			c-0.448-0.114-1.017-0.171-1.709-0.171H174.947L174.947,35.909z"/>
		<path fill="#3AB4FF" d="M197.786,36.313h-5.835v3.149h5.53v4.149h-5.53v3.248h5.835v4.149h-10.73V32.162h10.73V36.313z"/>
	</g>
	<g>
		<path fill="#F51484" d="M48.447,30.662l4.541,11.449l4.578-11.449h5.322L54.845,49.51h-3.809l-7.923-18.847L48.447,30.662
			L48.447,30.662z"/>
		<path fill="#F51484" d="M69.016,30.662V49.51h-4.895V30.662H69.016z"/>
		<path fill="#F51484" d="M84.531,31.712l-1.953,3.797c-1.018-0.829-2.1-1.245-3.247-1.245c-0.521,0-0.997,0.144-1.429,0.428
			c-0.447,0.269-0.67,0.65-0.67,1.146c0,0.48,0.199,0.848,0.598,1.1c0.374,0.244,0.898,0.476,1.574,0.695l1.244,0.378
			c1.425,0.415,2.567,1.021,3.431,1.819c0.813,0.806,1.22,1.917,1.22,3.333c0,2.278-0.65,3.971-1.953,5.078
			c-1.4,1.18-3.182,1.771-5.347,1.771c-2.36,0-4.569-0.716-6.628-2.147l2.099-3.955c1.474,1.302,2.927,1.952,4.358,1.952
			c0.617,0,1.168-0.166,1.648-0.5c0.479-0.334,0.719-0.801,0.719-1.404c0-0.609-0.264-1.05-0.793-1.318
			c-0.496-0.252-1.219-0.529-2.172-0.83c-1.123-0.301-2.067-0.642-2.832-1.024c-0.725-0.366-1.285-0.884-1.679-1.55
			c-0.395-0.668-0.592-1.584-0.592-2.748c0-1.252,0.272-2.359,0.817-3.319c0.578-0.978,1.355-1.722,2.332-2.233
			c0.953-0.513,2.067-0.77,3.346-0.77c0.943,0,1.961,0.143,3.052,0.427C82.732,30.857,83.686,31.232,84.531,31.712z"/>
		<path fill="#F51484" d="M92.525,30.662V49.51h-4.895V30.662H92.525z"/>
		<path fill="#F51484" d="M103.232,34.813V49.51h-4.896V34.813h-4.052v-4.149h13v4.149H103.232z"/>
		<path fill="#F51484" d="M129.941,31.712l-1.953,3.797c-1.018-0.829-2.1-1.245-3.247-1.245c-0.521,0-0.997,0.144-1.429,0.428
			c-0.447,0.269-0.67,0.65-0.67,1.146c0,0.48,0.198,0.848,0.598,1.1c0.373,0.244,0.9,0.476,1.574,0.695l1.246,0.378
			c1.424,0.415,2.566,1.021,3.43,1.819c0.813,0.806,1.221,1.917,1.221,3.333c0,2.278-0.65,3.971-1.953,5.078
			c-1.4,1.18-3.182,1.771-5.346,1.771c-2.361,0-4.57-0.716-6.629-2.147l2.1-3.955c1.473,1.302,2.926,1.952,4.358,1.952
			c0.618,0,1.168-0.166,1.647-0.5c0.48-0.334,0.721-0.801,0.721-1.404c0-0.609-0.266-1.05-0.793-1.318
			c-0.498-0.252-1.221-0.529-2.174-0.83c-1.123-0.301-2.066-0.642-2.832-1.024c-0.724-0.366-1.283-0.884-1.678-1.55
			c-0.395-0.668-0.592-1.584-0.592-2.748c0-1.252,0.271-2.359,0.818-3.319c0.578-0.978,1.354-1.722,2.332-2.233
			c0.951-0.513,2.066-0.77,3.344-0.77c0.943,0,1.962,0.143,3.052,0.427C128.143,30.857,129.096,31.232,129.941,31.712z"/>
		<path fill="#F51484" d="M140.537,34.813V49.51h-4.895V34.813h-4.054v-4.149h13v4.149H140.537z"/>
		<path fill="#F51484" d="M155.844,30.04c1.376,0,2.687,0.231,3.932,0.696c1.27,0.488,2.385,1.164,3.345,2.025
			c0.944,0.848,1.713,1.881,2.307,3.102c0.563,1.146,0.843,2.438,0.843,3.869c0,1.507-0.248,2.89-0.744,4.151
			c-0.521,1.285-1.254,2.396-2.197,3.332c-0.505,0.505-1.026,0.933-1.563,1.281c-0.536,0.351-1.118,0.647-1.745,0.892
			c-1.262,0.496-2.653,0.744-4.176,0.744c-1.498,0-2.881-0.248-4.15-0.744c-1.285-0.505-2.394-1.229-3.32-2.173
			c-0.464-0.456-0.873-0.95-1.227-1.483c-0.354-0.532-0.678-1.148-0.971-1.85c-0.504-1.277-0.757-2.66-0.757-4.15
			c0-0.676,0.071-1.338,0.213-1.988c0.144-0.651,0.356-1.277,0.642-1.88c0.602-1.237,1.366-2.271,2.295-3.101
			c0.969-0.871,2.095-1.547,3.382-2.027C153.163,30.271,154.461,30.04,155.844,30.04z M155.844,34.788
			c-0.96,0-1.843,0.231-2.648,0.696c-0.847,0.488-1.498,1.099-1.953,1.83c-0.48,0.799-0.72,1.612-0.72,2.442
			c0,1.033,0.239,1.994,0.72,2.882c0.488,0.887,1.131,1.563,1.928,2.025c0.838,0.48,1.729,0.72,2.673,0.72
			c0.961,0,1.852-0.239,2.674-0.72c0.798-0.455,1.44-1.131,1.929-2.025c0.479-0.863,0.72-1.824,0.72-2.882
			c0-0.854-0.24-1.668-0.72-2.442c-0.464-0.739-1.115-1.35-1.953-1.83C157.695,35.02,156.813,34.788,155.844,34.788z"/>
		<path fill="#F51484" d="M178.305,41.782l5.92,7.728h-6.104l-4.615-7.251h-0.061v7.251h-4.896V30.662h7.324
			c1.302,0,2.438,0.208,3.406,0.622c1.001,0.44,1.766,1.083,2.295,1.929c0.569,0.863,0.854,1.945,0.854,3.247
			c0,0.879-0.159,1.697-0.476,2.454c-0.342,0.766-0.811,1.387-1.404,1.868C179.941,41.277,179.192,41.611,178.305,41.782z
			 M173.447,34.409v4.7h0.476c0.676,0,1.245-0.057,1.709-0.172c0.505-0.146,0.911-0.381,1.222-0.707
			c0.316-0.326,0.476-0.813,0.476-1.465c0-0.66-0.159-1.151-0.476-1.478c-0.311-0.325-0.717-0.562-1.222-0.708
			c-0.448-0.114-1.017-0.171-1.709-0.171H173.447L173.447,34.409z"/>
		<path fill="#F51484" d="M196.286,34.813h-5.835v3.149h5.53v4.149h-5.53v3.248h5.835v4.149h-10.73V30.662h10.73V34.813z"/>
	</g>
</g>
</svg>
