<?xml version="1.0" encoding="utf-8"?>
<!-- Generator: Adobe Illustrator 16.0.0, SVG Export Plug-In . SVG Version: 6.00 Build 0)  -->
<!DOCTYPE svg PUBLIC "-//W3C//DTD SVG 1.1//EN" "http://www.w3.org/Graphics/SVG/1.1/DTD/svg11.dtd">
<svg version="1.1" id="Layer_1" xmlns="http://www.w3.org/2000/svg" xmlns:xlink="http://www.w3.org/1999/xlink" x="0px" y="0px"
	 width="819px" height="122px" viewBox="85.5 12.5 819 122" enable-background="new 85.5 12.5 819 122" xml:space="preserve">
<g>
	<rect x="118.49" y="29.735" fill="#F9F9F9" width="364.5" height="97.201"/>
	<rect x="115.25" y="26.495" fill="#F51484" width="364.5" height="97.2"/>
	<rect x="112.01" y="23.255" fill="#6E1F75" width="364.5" height="97.2"/>
	<g>
		<path fill="#F51484" d="M181.584,59.158l7.356,18.549l7.416-18.549h8.622l-13.032,30.534h-6.17l-12.834-30.534H181.584z"/>
		<path fill="#F51484" d="M214.905,59.158v30.534h-7.93V59.158H214.905z"/>
		<path fill="#F51484" d="M240.04,60.858l-3.164,6.15c-1.648-1.345-3.401-2.017-5.26-2.017c-0.844,0-1.615,0.231-2.313,0.692
			c-0.726,0.435-1.088,1.056-1.088,1.859c0,0.779,0.322,1.372,0.969,1.78c0.607,0.395,1.457,0.771,2.551,1.127l2.017,0.613
			c2.307,0.672,4.16,1.655,5.557,2.947c1.318,1.305,1.977,3.104,1.977,5.398c0,3.691-1.055,6.434-3.164,8.227
			c-2.268,1.911-5.155,2.867-8.661,2.867c-3.824,0-7.403-1.16-10.738-3.48l3.401-6.406c2.387,2.108,4.74,3.164,7.061,3.164
			c1.001,0,1.891-0.271,2.669-0.813c0.778-0.54,1.167-1.298,1.167-2.273c0-0.99-0.428-1.701-1.286-2.137
			c-0.804-0.408-1.977-0.857-3.52-1.345c-1.819-0.487-3.349-1.04-4.588-1.661c-1.174-0.593-2.08-1.43-2.719-2.512
			c-0.64-1.081-0.959-2.563-0.959-4.449c0-2.03,0.441-3.823,1.325-5.379c0.935-1.582,2.195-2.789,3.777-3.62
			c1.542-0.83,3.349-1.246,5.418-1.246c1.529,0,3.176,0.231,4.944,0.692C237.125,59.474,238.669,60.081,240.04,60.858z"/>
		<path fill="#F51484" d="M252.993,59.158v30.534h-7.93V59.158H252.993z"/>
		<path fill="#F51484" d="M270.335,65.881v23.81h-7.93v-23.81h-6.565v-6.724h21.061v6.724H270.335z"/>
		<path fill="#F51484" d="M313.604,60.858l-3.164,6.15c-1.648-1.345-3.401-2.017-5.26-2.017c-0.844,0-1.615,0.231-2.313,0.692
			c-0.726,0.435-1.087,1.056-1.087,1.859c0,0.779,0.322,1.372,0.968,1.78c0.606,0.395,1.457,0.771,2.551,1.127l2.017,0.613
			c2.308,0.672,4.159,1.655,5.557,2.947c1.318,1.305,1.977,3.104,1.977,5.398c0,3.691-1.055,6.434-3.164,8.227
			c-2.269,1.911-5.155,2.867-8.662,2.867c-3.824,0-7.402-1.16-10.738-3.48l3.401-6.406c2.386,2.108,4.739,3.164,7.06,3.164
			c1.001,0,1.892-0.271,2.669-0.813c0.778-0.54,1.167-1.298,1.167-2.273c0-0.99-0.428-1.701-1.285-2.137
			c-0.805-0.408-1.978-0.857-3.521-1.345c-1.819-0.487-3.349-1.04-4.587-1.661c-1.174-0.593-2.081-1.43-2.72-2.512
			c-0.64-1.081-0.958-2.563-0.958-4.449c0-2.03,0.441-3.823,1.325-5.379c0.936-1.582,2.195-2.789,3.777-3.62
			c1.542-0.83,3.348-1.246,5.418-1.246c1.529,0,3.177,0.231,4.944,0.692C310.691,59.474,312.233,60.081,313.604,60.858z"/>
		<path fill="#F51484" d="M330.769,65.881v23.81h-7.93v-23.81h-6.565v-6.724h21.061v6.724H330.769z"/>
		<path fill="#F51484" d="M355.567,58.149c2.229,0,4.351,0.376,6.368,1.128c2.057,0.791,3.863,1.885,5.418,3.283
			c1.529,1.371,2.775,3.045,3.737,5.023c0.91,1.859,1.365,3.949,1.365,6.268c0,2.44-0.403,4.681-1.207,6.725
			c-0.844,2.083-2.031,3.882-3.56,5.397c-0.818,0.818-1.661,1.51-2.531,2.076c-0.87,0.568-1.813,1.049-2.827,1.444
			c-2.043,0.804-4.298,1.206-6.764,1.206c-2.426,0-4.667-0.402-6.724-1.206c-2.083-0.817-3.875-1.99-5.379-3.521
			c-0.752-0.738-1.414-1.539-1.988-2.403c-0.573-0.863-1.097-1.861-1.571-2.995c-0.818-2.07-1.227-4.312-1.227-6.724
			c0-1.095,0.115-2.168,0.346-3.223c0.23-1.054,0.577-2.069,1.038-3.045c0.975-2.004,2.214-3.678,3.718-5.023
			c1.569-1.41,3.394-2.504,5.478-3.283C351.223,58.525,353.327,58.149,355.567,58.149z M355.567,65.842
			c-1.556,0-2.986,0.375-4.291,1.127c-1.372,0.792-2.426,1.78-3.164,2.966c-0.778,1.293-1.167,2.611-1.167,3.956
			c0,1.674,0.388,3.23,1.167,4.668c0.792,1.436,1.833,2.531,3.124,3.282c1.358,0.778,2.802,1.166,4.331,1.166
			c1.556,0,2.999-0.388,4.332-1.166c1.292-0.738,2.333-1.832,3.124-3.282c0.777-1.398,1.167-2.954,1.167-4.668
			c0-1.384-0.389-2.703-1.167-3.956c-0.752-1.199-1.806-2.188-3.164-2.966C358.566,66.217,357.136,65.842,355.567,65.842z"/>
		<path fill="#F51484" d="M391.954,77.172l9.592,12.52h-9.888l-7.476-11.747h-0.099v11.747h-7.93V59.158h11.865
			c2.109,0,3.949,0.336,5.518,1.008c1.622,0.712,2.861,1.754,3.718,3.125c0.924,1.398,1.384,3.152,1.384,5.26
			c0,1.424-0.256,2.749-0.771,3.975c-0.554,1.239-1.312,2.248-2.275,3.026C394.604,76.355,393.392,76.896,391.954,77.172z
			 M384.084,65.228v7.613h0.771c1.095,0,2.017-0.091,2.769-0.277c0.817-0.237,1.476-0.62,1.978-1.147
			c0.514-0.526,0.771-1.318,0.771-2.374c0-1.067-0.257-1.865-0.771-2.392c-0.501-0.527-1.161-0.91-1.978-1.147
			c-0.726-0.185-1.648-0.277-2.769-0.277L384.084,65.228L384.084,65.228z"/>
		<path fill="#F51484" d="M421.083,65.881h-9.453v5.102h8.958v6.724h-8.958v5.26h9.453v6.725H403.7V59.158h17.383V65.881z"/>
	</g>
	<g>
		<path fill="#3AB4FF" d="M179.154,56.728l7.356,18.549l7.416-18.549h8.623l-13.032,30.533h-6.17l-12.834-30.533H179.154z"/>
		<path fill="#3AB4FF" d="M212.475,56.728v30.533h-7.93V56.728H212.475z"/>
		<path fill="#3AB4FF" d="M237.61,58.428l-3.164,6.15c-1.648-1.345-3.401-2.017-5.26-2.017c-0.844,0-1.615,0.231-2.313,0.692
			c-0.726,0.435-1.088,1.056-1.088,1.859c0,0.779,0.322,1.372,0.969,1.78c0.606,0.395,1.456,0.771,2.55,1.127l2.017,0.613
			c2.307,0.672,4.16,1.655,5.557,2.947c1.318,1.305,1.977,3.105,1.977,5.399c0,3.691-1.055,6.434-3.164,8.226
			c-2.268,1.912-5.155,2.868-8.661,2.868c-3.823,0-7.403-1.16-10.738-3.48l3.401-6.407c2.386,2.108,4.739,3.164,7.06,3.164
			c1.001,0,1.891-0.271,2.669-0.812c0.778-0.54,1.167-1.298,1.167-2.273c0-0.99-0.428-1.702-1.285-2.137
			c-0.805-0.408-1.978-0.857-3.521-1.345c-1.819-0.487-3.349-1.041-4.588-1.661c-1.173-0.593-2.08-1.431-2.719-2.512
			c-0.64-1.081-0.959-2.564-0.959-4.45c0-2.03,0.441-3.823,1.325-5.379c0.936-1.582,2.195-2.788,3.777-3.619
			c1.542-0.83,3.348-1.246,5.418-1.246c1.529,0,3.177,0.231,4.944,0.692C234.695,57.044,236.239,57.651,237.61,58.428z"/>
		<path fill="#3AB4FF" d="M250.563,56.728v30.533h-7.93V56.728H250.563z"/>
		<path fill="#3AB4FF" d="M267.905,63.451v23.81h-7.93v-23.81h-6.565v-6.724h21.061v6.724H267.905z"/>
		<path fill="#3AB4FF" d="M311.174,58.428l-3.164,6.15c-1.647-1.345-3.401-2.017-5.26-2.017c-0.844,0-1.615,0.231-2.313,0.692
			c-0.726,0.435-1.088,1.056-1.088,1.859c0,0.779,0.322,1.372,0.969,1.78c0.606,0.395,1.457,0.771,2.55,1.127l2.017,0.613
			c2.308,0.672,4.159,1.655,5.557,2.947c1.318,1.305,1.977,3.105,1.977,5.399c0,3.691-1.055,6.434-3.164,8.226
			c-2.268,1.912-5.155,2.868-8.662,2.868c-3.823,0-7.402-1.16-10.738-3.48l3.401-6.407c2.386,2.108,4.739,3.164,7.06,3.164
			c1.001,0,1.892-0.271,2.67-0.812c0.777-0.54,1.166-1.298,1.166-2.273c0-0.99-0.428-1.702-1.285-2.137
			c-0.805-0.408-1.977-0.857-3.52-1.345c-1.819-0.487-3.349-1.041-4.588-1.661c-1.174-0.593-2.081-1.431-2.72-2.512
			c-0.639-1.081-0.958-2.564-0.958-4.45c0-2.03,0.441-3.823,1.325-5.379c0.936-1.582,2.195-2.788,3.777-3.619
			c1.542-0.83,3.348-1.246,5.418-1.246c1.529,0,3.178,0.231,4.944,0.692C308.261,57.044,309.803,57.651,311.174,58.428z"/>
		<path fill="#3AB4FF" d="M328.339,63.451v23.81h-7.93v-23.81h-6.565v-6.724h21.061v6.724H328.339z"/>
		<path fill="#3AB4FF" d="M353.137,55.719c2.228,0,4.351,0.375,6.367,1.127c2.057,0.792,3.863,1.885,5.418,3.283
			c1.529,1.371,2.775,3.046,3.738,5.023c0.91,1.859,1.365,3.949,1.365,6.269c0,2.44-0.403,4.681-1.207,6.724
			c-0.844,2.084-2.03,3.883-3.56,5.398c-0.818,0.818-1.661,1.51-2.531,2.076c-0.87,0.567-1.813,1.049-2.828,1.443
			c-2.043,0.805-4.298,1.206-6.764,1.206c-2.426,0-4.667-0.401-6.724-1.206c-2.082-0.817-3.875-1.99-5.379-3.52
			c-0.752-0.738-1.414-1.539-1.988-2.404c-0.573-0.862-1.097-1.861-1.571-2.995c-0.817-2.069-1.227-4.311-1.227-6.724
			c0-1.094,0.115-2.168,0.346-3.223c0.23-1.054,0.577-2.069,1.038-3.045c0.976-2.004,2.214-3.678,3.718-5.023
			c1.569-1.41,3.395-2.504,5.479-3.283C348.793,56.095,350.896,55.719,353.137,55.719z M353.137,63.412
			c-1.556,0-2.987,0.376-4.292,1.127c-1.372,0.791-2.426,1.78-3.164,2.966c-0.778,1.293-1.167,2.61-1.167,3.955
			c0,1.674,0.388,3.23,1.167,4.667c0.792,1.437,1.833,2.531,3.124,3.282c1.358,0.779,2.802,1.166,4.332,1.166
			c1.556,0,2.999-0.387,4.331-1.166c1.292-0.737,2.333-1.832,3.124-3.282c0.778-1.397,1.167-2.954,1.167-4.667
			c0-1.384-0.389-2.702-1.167-3.955c-0.752-1.199-1.806-2.188-3.164-2.966C356.137,63.788,354.706,63.412,353.137,63.412z"/>
		<path fill="#3AB4FF" d="M389.524,74.743l9.591,12.518h-9.888l-7.476-11.747h-0.099v11.747h-7.93V56.728h11.865
			c2.109,0,3.949,0.336,5.518,1.008c1.622,0.712,2.861,1.753,3.718,3.124c0.923,1.398,1.384,3.152,1.384,5.26
			c0,1.424-0.257,2.749-0.771,3.975c-0.554,1.239-1.312,2.248-2.274,3.025C392.174,73.926,390.961,74.466,389.524,74.743z
			 M381.654,62.798v7.613h0.771c1.094,0,2.017-0.092,2.769-0.277c0.817-0.237,1.476-0.62,1.977-1.147
			c0.514-0.527,0.771-1.318,0.771-2.374c0-1.067-0.257-1.865-0.771-2.393c-0.501-0.527-1.161-0.91-1.977-1.147
			c-0.726-0.185-1.648-0.277-2.769-0.277L381.654,62.798L381.654,62.798z"/>
		<path fill="#3AB4FF" d="M418.653,63.451H409.2v5.102h8.958v6.724H409.2v5.26h9.453v6.724h-17.383V56.728h17.383V63.451z"/>
	</g>
</g>
<g>
	<rect x="523.49" y="30.545" fill="#6E1F75" width="364.5" height="97.2"/>
	<rect x="520.25" y="27.305" fill="#F51484" width="364.5" height="97.2"/>
	<rect x="517.01" y="24.065" fill="#F9F9F9" width="364.5" height="97.201"/>
	<g>
		<path fill="#3AB4FF" d="M586.584,59.968l7.355,18.55l7.416-18.55h8.623l-13.031,30.533h-6.17l-12.836-30.533L586.584,59.968
			L586.584,59.968z"/>
		<path fill="#3AB4FF" d="M619.905,59.968v30.533h-7.931V59.968H619.905z"/>
		<path fill="#3AB4FF" d="M645.041,61.668l-3.164,6.15c-1.648-1.345-3.402-2.017-5.261-2.017c-0.845,0-1.615,0.231-2.313,0.692
			c-0.726,0.435-1.088,1.056-1.088,1.859c0,0.779,0.322,1.372,0.969,1.78c0.605,0.395,1.457,0.771,2.551,1.127l2.017,0.613
			c2.308,0.672,4.159,1.655,5.558,2.947c1.317,1.305,1.977,3.104,1.977,5.399c0,3.691-1.056,6.434-3.164,8.226
			c-2.269,1.911-5.154,2.868-8.661,2.868c-3.823,0-7.402-1.16-10.738-3.48l3.401-6.407c2.386,2.108,4.739,3.164,7.061,3.164
			c1,0,1.892-0.271,2.669-0.812c0.778-0.541,1.166-1.299,1.166-2.274c0-0.989-0.428-1.701-1.285-2.136
			c-0.805-0.408-1.978-0.857-3.521-1.346c-1.818-0.486-3.348-1.04-4.588-1.66c-1.173-0.594-2.079-1.431-2.719-2.512
			c-0.64-1.081-0.959-2.563-0.959-4.449c0-2.03,0.441-3.823,1.324-5.379c0.936-1.582,2.195-2.789,3.777-3.62
			c1.543-0.83,3.349-1.246,5.419-1.246c1.528,0,3.177,0.231,4.944,0.691C642.127,60.284,643.669,60.891,645.041,61.668z"/>
		<path fill="#3AB4FF" d="M657.992,59.968v30.533h-7.93V59.968H657.992z"/>
		<path fill="#3AB4FF" d="M675.336,66.691v23.81h-7.93v-23.81h-6.565v-6.724h21.062v6.724H675.336z"/>
		<path fill="#3AB4FF" d="M718.604,61.668l-3.164,6.15c-1.646-1.345-3.4-2.017-5.259-2.017c-0.845,0-1.615,0.231-2.313,0.692
			c-0.726,0.435-1.088,1.056-1.088,1.859c0,0.779,0.322,1.372,0.969,1.78c0.605,0.395,1.457,0.771,2.551,1.127l2.017,0.613
			c2.308,0.672,4.159,1.655,5.556,2.947c1.318,1.305,1.979,3.104,1.979,5.399c0,3.691-1.056,6.434-3.164,8.226
			c-2.269,1.911-5.156,2.868-8.661,2.868c-3.825,0-7.403-1.16-10.739-3.48l3.402-6.407c2.386,2.108,4.739,3.164,7.059,3.164
			c1.002,0,1.893-0.271,2.67-0.812c0.779-0.541,1.167-1.299,1.167-2.274c0-0.989-0.429-1.701-1.285-2.136
			c-0.805-0.408-1.978-0.857-3.521-1.346c-1.818-0.486-3.35-1.04-4.588-1.66c-1.173-0.594-2.079-1.431-2.719-2.512
			c-0.64-1.081-0.959-2.563-0.959-4.449c0-2.03,0.441-3.823,1.324-5.379c0.936-1.582,2.195-2.789,3.777-3.62
			c1.543-0.83,3.349-1.246,5.418-1.246c1.529,0,3.178,0.231,4.945,0.691C715.691,60.284,717.233,60.891,718.604,61.668z"/>
		<path fill="#3AB4FF" d="M735.77,66.691v23.81h-7.93v-23.81h-6.566v-6.724h21.061v6.724H735.77z"/>
		<path fill="#3AB4FF" d="M760.566,58.959c2.229,0,4.352,0.376,6.368,1.127c2.057,0.792,3.863,1.886,5.419,3.283
			c1.528,1.372,2.773,3.046,3.736,5.023c0.909,1.859,1.365,3.949,1.365,6.269c0,2.441-0.402,4.681-1.207,6.724
			c-0.844,2.083-2.03,3.883-3.559,5.398c-0.819,0.818-1.662,1.51-2.531,2.076c-0.871,0.567-1.813,1.049-2.828,1.443
			c-2.043,0.805-4.299,1.206-6.764,1.206c-2.426,0-4.668-0.401-6.725-1.206c-2.082-0.817-3.875-1.99-5.379-3.52
			c-0.751-0.738-1.413-1.539-1.987-2.404c-0.573-0.863-1.097-1.861-1.571-2.995c-0.818-2.069-1.227-4.312-1.227-6.724
			c0-1.095,0.115-2.168,0.346-3.223s0.577-2.069,1.039-3.045c0.975-2.004,2.215-3.678,3.717-5.023
			c1.57-1.41,3.395-2.504,5.479-3.283C756.223,59.335,758.326,58.959,760.566,58.959z M760.566,66.652
			c-1.556,0-2.986,0.375-4.291,1.127c-1.371,0.792-2.426,1.78-3.163,2.966c-0.778,1.293-1.167,2.611-1.167,3.956
			c0,1.674,0.389,3.23,1.167,4.667c0.791,1.437,1.832,2.531,3.124,3.282c1.357,0.779,2.801,1.166,4.33,1.166
			c1.557,0,2.999-0.387,4.332-1.166c1.291-0.738,2.334-1.832,3.123-3.282c0.777-1.397,1.168-2.954,1.168-4.667
			c0-1.384-0.391-2.703-1.168-3.956c-0.751-1.199-1.805-2.188-3.162-2.966C763.566,67.027,762.137,66.652,760.566,66.652z"/>
		<path fill="#3AB4FF" d="M796.954,77.982l9.591,12.519h-9.887l-7.477-11.747h-0.099v11.747h-7.929V59.968h11.863
			c2.11,0,3.949,0.336,5.519,1.008c1.622,0.712,2.86,1.754,3.718,3.125c0.924,1.398,1.385,3.151,1.385,5.26
			c0,1.424-0.258,2.749-0.771,3.975c-0.555,1.239-1.312,2.247-2.275,3.026C799.604,77.166,798.392,77.707,796.954,77.982z
			 M789.084,66.038v7.613h0.771c1.094,0,2.017-0.091,2.768-0.277c0.818-0.237,1.477-0.62,1.979-1.147
			c0.514-0.526,0.771-1.318,0.771-2.374c0-1.067-0.257-1.865-0.771-2.392c-0.502-0.527-1.161-0.91-1.979-1.147
			c-0.725-0.185-1.647-0.277-2.768-0.277L789.084,66.038L789.084,66.038z"/>
		<path fill="#3AB4FF" d="M826.084,66.691h-9.453v5.102h8.958v6.724h-8.958v5.26h9.453v6.724h-17.383V59.968h17.383V66.691z"/>
	</g>
	<g>
		<path fill="#F51484" d="M584.154,57.538l7.355,18.549l7.416-18.549h8.623L594.517,88.07h-6.17l-12.835-30.532L584.154,57.538
			L584.154,57.538z"/>
		<path fill="#F51484" d="M617.475,57.538V88.07h-7.93V57.538H617.475z"/>
		<path fill="#F51484" d="M642.61,59.238l-3.164,6.15c-1.647-1.345-3.401-2.017-5.261-2.017c-0.844,0-1.615,0.231-2.313,0.692
			c-0.727,0.435-1.088,1.056-1.088,1.859c0,0.779,0.322,1.372,0.969,1.78c0.605,0.395,1.457,0.771,2.551,1.127l2.017,0.613
			c2.308,0.672,4.159,1.655,5.557,2.947c1.317,1.305,1.977,3.105,1.977,5.399c0,3.691-1.056,6.433-3.163,8.225
			c-2.269,1.912-5.155,2.869-8.662,2.869c-3.823,0-7.402-1.16-10.737-3.48l3.4-6.408c2.386,2.109,4.739,3.164,7.061,3.164
			c1.001,0,1.892-0.27,2.67-0.811c0.777-0.541,1.165-1.299,1.165-2.274c0-0.989-0.428-1.702-1.285-2.137
			c-0.805-0.408-1.977-0.856-3.52-1.345c-1.819-0.487-3.349-1.04-4.588-1.661c-1.174-0.593-2.08-1.431-2.719-2.512
			c-0.641-1.081-0.959-2.563-0.959-4.449c0-2.03,0.441-3.823,1.324-5.379c0.936-1.582,2.195-2.789,3.777-3.619
			c1.543-0.831,3.348-1.246,5.418-1.246c1.529,0,3.178,0.231,4.944,0.692C639.696,57.854,641.238,58.461,642.61,59.238z"/>
		<path fill="#F51484" d="M655.563,57.538V88.07h-7.93V57.538H655.563z"/>
		<path fill="#F51484" d="M672.906,64.261V88.07h-7.931V64.261h-6.564v-6.724h21.061v6.724H672.906z"/>
		<path fill="#F51484" d="M716.174,59.238l-3.164,6.15c-1.646-1.345-3.4-2.017-5.26-2.017c-0.844,0-1.615,0.231-2.313,0.692
			c-0.727,0.435-1.088,1.056-1.088,1.859c0,0.779,0.321,1.372,0.968,1.78c0.606,0.395,1.458,0.771,2.552,1.127l2.017,0.613
			c2.308,0.672,4.159,1.655,5.556,2.947c1.318,1.305,1.978,3.105,1.978,5.399c0,3.691-1.056,6.433-3.164,8.225
			c-2.268,1.912-5.155,2.869-8.661,2.869c-3.824,0-7.402-1.16-10.738-3.48l3.401-6.408c2.386,2.109,4.739,3.164,7.06,3.164
			c1.002,0,1.893-0.27,2.67-0.811c0.778-0.541,1.166-1.299,1.166-2.274c0-0.989-0.428-1.702-1.285-2.137
			c-0.805-0.408-1.977-0.856-3.52-1.345c-1.819-0.487-3.35-1.04-4.588-1.661c-1.174-0.593-2.08-1.431-2.719-2.512
			c-0.641-1.081-0.959-2.563-0.959-4.449c0-2.03,0.441-3.823,1.324-5.379c0.936-1.582,2.195-2.789,3.777-3.619
			c1.543-0.831,3.348-1.246,5.418-1.246c1.529,0,3.178,0.231,4.944,0.692C713.261,57.854,714.803,58.461,716.174,59.238z"/>
		<path fill="#F51484" d="M733.34,64.261V88.07h-7.931V64.261h-6.565v-6.724h21.061v6.724H733.34z"/>
		<path fill="#F51484" d="M758.137,56.529c2.229,0,4.351,0.375,6.367,1.127c2.057,0.792,3.863,1.885,5.419,3.283
			c1.528,1.371,2.774,3.046,3.737,5.023c0.909,1.859,1.365,3.949,1.365,6.269c0,2.439-0.403,4.68-1.207,6.724
			c-0.844,2.083-2.03,3.883-3.56,5.398c-0.818,0.817-1.661,1.51-2.531,2.076s-1.813,1.048-2.827,1.443
			c-2.044,0.804-4.299,1.205-6.764,1.205c-2.426,0-4.668-0.401-6.725-1.205c-2.082-0.818-3.876-1.99-5.379-3.52
			c-0.752-0.739-1.414-1.539-1.988-2.404c-0.572-0.863-1.096-1.861-1.571-2.996c-0.817-2.068-1.226-4.31-1.226-6.723
			c0-1.094,0.115-2.168,0.346-3.223c0.23-1.054,0.577-2.069,1.038-3.045c0.976-2.004,2.215-3.678,3.718-5.023
			c1.569-1.41,3.395-2.504,5.479-3.283C753.793,56.905,755.896,56.529,758.137,56.529z M758.137,64.222
			c-1.557,0-2.986,0.376-4.291,1.127c-1.371,0.791-2.426,1.78-3.164,2.966c-0.777,1.292-1.166,2.61-1.166,3.955
			c0,1.674,0.389,3.23,1.166,4.667c0.791,1.438,1.832,2.531,3.124,3.283c1.357,0.778,2.802,1.166,4.331,1.166
			c1.557,0,2.998-0.388,4.332-1.166c1.291-0.738,2.333-1.832,3.123-3.283c0.777-1.396,1.167-2.953,1.167-4.667
			c0-1.384-0.39-2.702-1.167-3.955c-0.752-1.199-1.806-2.188-3.163-2.966C761.137,64.598,759.706,64.222,758.137,64.222z"/>
		<path fill="#F51484" d="M794.524,75.553l9.591,12.518h-9.888l-7.476-11.746h-0.1V88.07h-7.929V57.538h11.864
			c2.109,0,3.949,0.336,5.519,1.008c1.622,0.712,2.86,1.753,3.718,3.124c0.923,1.398,1.385,3.152,1.385,5.26
			c0,1.424-0.258,2.749-0.771,3.975c-0.555,1.239-1.313,2.248-2.275,3.025C797.174,74.736,795.961,75.276,794.524,75.553z
			 M786.654,63.608v7.613h0.771c1.095,0,2.017-0.091,2.769-0.277c0.818-0.237,1.477-0.62,1.978-1.147
			c0.515-0.526,0.771-1.318,0.771-2.373c0-1.068-0.257-1.865-0.771-2.393c-0.501-0.527-1.161-0.91-1.978-1.147
			c-0.726-0.185-1.647-0.277-2.769-0.277L786.654,63.608L786.654,63.608z"/>
		<path fill="#F51484" d="M823.653,64.261h-9.452v5.102h8.958v6.724h-8.958v5.261h9.452v6.723h-17.382V57.538h17.382V64.261z"/>
	</g>
</g>
</svg>
