<?xml version="1.0" encoding="utf-8"?>
<!-- Generator: Adobe Illustrator 16.0.0, SVG Export Plug-In . SVG Version: 6.00 Build 0)  -->
<!DOCTYPE svg PUBLIC "-//W3C//DTD SVG 1.1//EN" "http://www.w3.org/Graphics/SVG/1.1/DTD/svg11.dtd">
<svg version="1.1" id="Layer_1" xmlns="http://www.w3.org/2000/svg" xmlns:xlink="http://www.w3.org/1999/xlink" x="0px" y="0px"
	 width="1000px" height="150px" viewBox="0 0 1000 150" enable-background="new 0 0 1000 150" xml:space="preserve">
<g>
	<rect x="29" y="19" fill="#F9F9F9" width="450" height="120"/>
	<rect x="25" y="15" fill="#F51484" width="450" height="120"/>
	<rect x="21" y="11" fill="#6E1F75" width="450" height="120"/>
	<g>
		<path fill="#F51484" d="M106.894,55.324l9.082,22.9l9.155-22.9h10.645L119.687,93.02h-7.617L96.225,55.324H106.894z"/>
		<path fill="#F51484" d="M148.031,55.324V93.02h-9.79V55.324H148.031z"/>
		<path fill="#F51484" d="M179.062,57.424l-3.906,7.593c-2.035-1.66-4.199-2.49-6.494-2.49c-1.042,0-1.994,0.285-2.856,0.854
			c-0.896,0.537-1.343,1.303-1.343,2.295c0,0.961,0.398,1.693,1.196,2.197c0.749,0.488,1.798,0.952,3.149,1.392l2.49,0.757
			c2.848,0.83,5.135,2.043,6.86,3.638c1.627,1.611,2.441,3.833,2.441,6.665c0,4.558-1.302,7.943-3.906,10.156
			c-2.8,2.36-6.364,3.54-10.693,3.54c-4.72,0-9.139-1.432-13.257-4.297l4.199-7.91c2.946,2.604,5.851,3.906,8.716,3.906
			c1.236,0,2.335-0.333,3.296-1.001c0.96-0.667,1.44-1.603,1.44-2.808c0-1.221-0.529-2.1-1.587-2.637
			c-0.993-0.504-2.441-1.058-4.346-1.66c-2.246-0.602-4.134-1.285-5.664-2.051c-1.449-0.732-2.568-1.766-3.357-3.101
			c-0.79-1.334-1.184-3.165-1.184-5.493c0-2.506,0.545-4.72,1.636-6.641c1.155-1.953,2.71-3.442,4.663-4.468
			c1.904-1.025,4.134-1.538,6.689-1.538c1.888,0,3.922,0.285,6.104,0.854C175.464,55.715,177.369,56.464,179.062,57.424z"/>
		<path fill="#F51484" d="M195.053,55.324V93.02h-9.79V55.324H195.053z"/>
		<path fill="#F51484" d="M216.464,63.625V93.02h-9.79V63.625h-8.105v-8.301h26.001v8.301H216.464z"/>
		<path fill="#F51484" d="M269.882,57.424l-3.906,7.593c-2.034-1.66-4.199-2.49-6.494-2.49c-1.042,0-1.994,0.285-2.856,0.854
			c-0.896,0.537-1.343,1.303-1.343,2.295c0,0.961,0.398,1.693,1.196,2.197c0.748,0.488,1.799,0.952,3.149,1.392l2.49,0.757
			c2.849,0.83,5.135,2.043,6.86,3.638c1.627,1.611,2.441,3.833,2.441,6.665c0,4.558-1.303,7.943-3.906,10.156
			c-2.8,2.36-6.364,3.54-10.693,3.54c-4.721,0-9.139-1.432-13.257-4.297l4.199-7.91c2.946,2.604,5.851,3.906,8.716,3.906
			c1.236,0,2.336-0.333,3.296-1.001c0.96-0.667,1.44-1.603,1.44-2.808c0-1.221-0.529-2.1-1.587-2.637
			c-0.993-0.504-2.441-1.058-4.346-1.66c-2.246-0.602-4.134-1.285-5.664-2.051c-1.449-0.732-2.568-1.766-3.357-3.101
			c-0.79-1.334-1.184-3.165-1.184-5.493c0-2.506,0.545-4.72,1.636-6.641c1.155-1.953,2.71-3.442,4.663-4.468
			c1.904-1.025,4.134-1.538,6.689-1.538c1.888,0,3.923,0.285,6.104,0.854C266.285,55.715,268.189,56.464,269.882,57.424z"/>
		<path fill="#F51484" d="M291.073,63.625V93.02h-9.79V63.625h-8.105v-8.301h26.001v8.301H291.073z"/>
		<path fill="#F51484" d="M321.688,54.079c2.751,0,5.371,0.464,7.861,1.392c2.539,0.977,4.769,2.328,6.689,4.053
			c1.888,1.693,3.426,3.76,4.614,6.201c1.123,2.295,1.685,4.875,1.685,7.739c0,3.012-0.497,5.778-1.489,8.301
			c-1.042,2.572-2.507,4.794-4.395,6.665c-1.01,1.01-2.051,1.864-3.125,2.563c-1.074,0.7-2.238,1.294-3.491,1.782
			c-2.522,0.992-5.306,1.489-8.35,1.489c-2.995,0-5.762-0.497-8.301-1.489c-2.571-1.009-4.785-2.457-6.641-4.346
			c-0.928-0.911-1.745-1.9-2.454-2.967c-0.707-1.065-1.354-2.298-1.94-3.698c-1.009-2.555-1.514-5.322-1.514-8.301
			c0-1.351,0.142-2.677,0.427-3.979c0.285-1.302,0.712-2.555,1.282-3.76c1.204-2.474,2.734-4.541,4.59-6.201
			c1.937-1.741,4.19-3.092,6.763-4.053C316.325,54.543,318.922,54.079,321.688,54.079z M321.688,63.576
			c-1.921,0-3.687,0.464-5.298,1.392c-1.693,0.977-2.995,2.197-3.906,3.662c-0.961,1.596-1.44,3.223-1.44,4.883
			c0,2.067,0.479,3.988,1.44,5.762c0.977,1.774,2.262,3.125,3.857,4.053c1.676,0.961,3.459,1.44,5.347,1.44
			c1.921,0,3.702-0.479,5.347-1.44c1.595-0.911,2.881-2.262,3.857-4.053c0.96-1.725,1.44-3.646,1.44-5.762
			c0-1.709-0.48-3.336-1.44-4.883c-0.928-1.48-2.23-2.701-3.906-3.662C325.391,64.04,323.625,63.576,321.688,63.576z"/>
		<path fill="#F51484" d="M366.61,77.565l11.841,15.454h-12.207l-9.229-14.502h-0.122V93.02h-9.79V55.324h14.648
			c2.604,0,4.875,0.415,6.812,1.245c2.002,0.879,3.532,2.165,4.59,3.857c1.14,1.726,1.709,3.891,1.709,6.494
			c0,1.758-0.317,3.394-0.952,4.907c-0.684,1.53-1.619,2.775-2.808,3.735C369.882,76.557,368.385,77.224,366.61,77.565z
			 M356.894,62.819v9.399h0.952c1.351,0,2.49-0.113,3.418-0.342c1.009-0.293,1.822-0.765,2.441-1.416
			c0.635-0.65,0.952-1.627,0.952-2.93c0-1.318-0.317-2.303-0.952-2.954c-0.619-0.65-1.433-1.123-2.441-1.416
			c-0.896-0.228-2.035-0.342-3.418-0.342H356.894z"/>
		<path fill="#F51484" d="M402.572,63.625h-11.67v6.299h11.06v8.301h-11.06v6.494h11.67v8.301h-21.46V55.324h21.46V63.625z"/>
	</g>
	<g>
		<path fill="#3AB4FF" d="M103.894,52.324l9.082,22.9l9.155-22.9h10.645L116.687,90.02h-7.617L93.225,52.324H103.894z"/>
		<path fill="#3AB4FF" d="M145.031,52.324V90.02h-9.79V52.324H145.031z"/>
		<path fill="#3AB4FF" d="M176.062,54.424l-3.906,7.593c-2.035-1.66-4.199-2.49-6.494-2.49c-1.042,0-1.994,0.285-2.856,0.854
			c-0.896,0.537-1.343,1.303-1.343,2.295c0,0.961,0.398,1.693,1.196,2.197c0.749,0.488,1.798,0.952,3.149,1.392l2.49,0.757
			c2.848,0.83,5.135,2.043,6.86,3.638c1.627,1.611,2.441,3.833,2.441,6.665c0,4.558-1.302,7.943-3.906,10.156
			c-2.8,2.36-6.364,3.54-10.693,3.54c-4.72,0-9.139-1.432-13.257-4.297l4.199-7.91c2.946,2.604,5.851,3.906,8.716,3.906
			c1.236,0,2.335-0.333,3.296-1.001c0.96-0.667,1.44-1.603,1.44-2.808c0-1.221-0.529-2.1-1.587-2.637
			c-0.993-0.504-2.441-1.058-4.346-1.66c-2.246-0.602-4.134-1.285-5.664-2.051c-1.449-0.732-2.568-1.766-3.357-3.101
			c-0.79-1.334-1.184-3.165-1.184-5.493c0-2.506,0.545-4.72,1.636-6.641c1.155-1.953,2.71-3.442,4.663-4.468
			c1.904-1.025,4.134-1.538,6.689-1.538c1.888,0,3.922,0.285,6.104,0.854C172.464,52.715,174.369,53.464,176.062,54.424z"/>
		<path fill="#3AB4FF" d="M192.053,52.324V90.02h-9.79V52.324H192.053z"/>
		<path fill="#3AB4FF" d="M213.464,60.625V90.02h-9.79V60.625h-8.105v-8.301h26.001v8.301H213.464z"/>
		<path fill="#3AB4FF" d="M266.882,54.424l-3.906,7.593c-2.034-1.66-4.199-2.49-6.494-2.49c-1.042,0-1.994,0.285-2.856,0.854
			c-0.896,0.537-1.343,1.303-1.343,2.295c0,0.961,0.398,1.693,1.196,2.197c0.748,0.488,1.799,0.952,3.149,1.392l2.49,0.757
			c2.849,0.83,5.135,2.043,6.86,3.638c1.627,1.611,2.441,3.833,2.441,6.665c0,4.558-1.303,7.943-3.906,10.156
			c-2.8,2.36-6.364,3.54-10.693,3.54c-4.72,0-9.139-1.432-13.257-4.297l4.199-7.91c2.946,2.604,5.851,3.906,8.716,3.906
			c1.236,0,2.336-0.333,3.296-1.001c0.96-0.667,1.44-1.603,1.44-2.808c0-1.221-0.529-2.1-1.587-2.637
			c-0.993-0.504-2.441-1.058-4.346-1.66c-2.246-0.602-4.134-1.285-5.664-2.051c-1.449-0.732-2.568-1.766-3.357-3.101
			c-0.79-1.334-1.184-3.165-1.184-5.493c0-2.506,0.545-4.72,1.636-6.641c1.155-1.953,2.71-3.442,4.663-4.468
			c1.904-1.025,4.134-1.538,6.689-1.538c1.888,0,3.923,0.285,6.104,0.854C263.285,52.715,265.189,53.464,266.882,54.424z"/>
		<path fill="#3AB4FF" d="M288.073,60.625V90.02h-9.79V60.625h-8.105v-8.301h26.001v8.301H288.073z"/>
		<path fill="#3AB4FF" d="M318.688,51.079c2.751,0,5.371,0.464,7.861,1.392c2.539,0.977,4.769,2.328,6.689,4.053
			c1.888,1.693,3.426,3.76,4.614,6.201c1.123,2.295,1.685,4.875,1.685,7.739c0,3.012-0.497,5.778-1.489,8.301
			c-1.042,2.572-2.507,4.794-4.395,6.665c-1.01,1.01-2.051,1.864-3.125,2.563c-1.074,0.7-2.238,1.294-3.491,1.782
			c-2.522,0.992-5.306,1.489-8.35,1.489c-2.995,0-5.762-0.497-8.301-1.489c-2.571-1.009-4.785-2.457-6.641-4.346
			c-0.928-0.911-1.745-1.9-2.454-2.967c-0.707-1.065-1.354-2.298-1.94-3.698c-1.009-2.555-1.514-5.322-1.514-8.301
			c0-1.351,0.142-2.677,0.427-3.979c0.285-1.302,0.712-2.555,1.282-3.76c1.204-2.474,2.734-4.541,4.59-6.201
			c1.937-1.741,4.19-3.092,6.763-4.053C313.325,51.543,315.922,51.079,318.688,51.079z M318.688,60.576
			c-1.921,0-3.687,0.464-5.298,1.392c-1.693,0.977-2.995,2.197-3.906,3.662c-0.961,1.596-1.44,3.223-1.44,4.883
			c0,2.067,0.479,3.988,1.44,5.762c0.977,1.774,2.262,3.125,3.857,4.053c1.676,0.961,3.459,1.44,5.347,1.44
			c1.921,0,3.702-0.479,5.347-1.44c1.595-0.911,2.881-2.262,3.857-4.053c0.96-1.725,1.44-3.646,1.44-5.762
			c0-1.709-0.48-3.336-1.44-4.883c-0.928-1.48-2.23-2.701-3.906-3.662C322.391,61.04,320.625,60.576,318.688,60.576z"/>
		<path fill="#3AB4FF" d="M363.61,74.565l11.841,15.454h-12.207l-9.229-14.502h-0.122V90.02h-9.79V52.324h14.648
			c2.604,0,4.875,0.415,6.812,1.245c2.002,0.879,3.532,2.165,4.59,3.857c1.14,1.726,1.709,3.891,1.709,6.494
			c0,1.758-0.317,3.394-0.952,4.907c-0.684,1.53-1.619,2.775-2.808,3.735C366.882,73.557,365.385,74.224,363.61,74.565z
			 M353.894,59.819v9.399h0.952c1.351,0,2.49-0.113,3.418-0.342c1.009-0.293,1.822-0.765,2.441-1.416
			c0.635-0.65,0.952-1.627,0.952-2.93c0-1.318-0.317-2.303-0.952-2.954c-0.619-0.65-1.433-1.123-2.441-1.416
			c-0.896-0.228-2.035-0.342-3.418-0.342H353.894z"/>
		<path fill="#3AB4FF" d="M399.572,60.625h-11.67v6.299h11.06v8.301h-11.06v6.494h11.67v8.301h-21.46V52.324h21.46V60.625z"/>
	</g>
</g>
<g>
	<rect x="529" y="20" fill="#6E1F75" width="450" height="120"/>
	<rect x="525" y="16" fill="#F51484" width="450" height="120"/>
	<rect x="521" y="12" fill="#F9F9F9" width="450" height="120"/>
	<g>
		<path fill="#3AB4FF" d="M606.894,56.324l9.082,22.9l9.155-22.9h10.645L619.687,94.02h-7.617l-15.845-37.695H606.894z"/>
		<path fill="#3AB4FF" d="M648.031,56.324V94.02h-9.79V56.324H648.031z"/>
		<path fill="#3AB4FF" d="M679.062,58.424l-3.906,7.593c-2.034-1.66-4.199-2.49-6.494-2.49c-1.042,0-1.994,0.285-2.856,0.854
			c-0.896,0.537-1.343,1.303-1.343,2.295c0,0.961,0.398,1.693,1.196,2.197c0.748,0.488,1.799,0.952,3.149,1.392l2.49,0.757
			c2.849,0.83,5.135,2.043,6.86,3.638c1.627,1.611,2.441,3.833,2.441,6.665c0,4.558-1.303,7.943-3.906,10.156
			c-2.8,2.36-6.364,3.54-10.693,3.54c-4.721,0-9.139-1.432-13.257-4.297l4.199-7.91c2.946,2.604,5.851,3.906,8.716,3.906
			c1.236,0,2.336-0.333,3.296-1.001c0.96-0.667,1.44-1.603,1.44-2.808c0-1.221-0.529-2.1-1.587-2.637
			c-0.993-0.504-2.441-1.058-4.346-1.66c-2.246-0.602-4.134-1.285-5.664-2.051c-1.448-0.732-2.567-1.766-3.356-3.101
			c-0.79-1.334-1.185-3.165-1.185-5.493c0-2.506,0.545-4.72,1.636-6.641c1.155-1.953,2.71-3.442,4.663-4.468
			c1.904-1.025,4.134-1.538,6.689-1.538c1.888,0,3.923,0.285,6.104,0.854C675.465,56.715,677.369,57.464,679.062,58.424z"/>
		<path fill="#3AB4FF" d="M695.053,56.324V94.02h-9.79V56.324H695.053z"/>
		<path fill="#3AB4FF" d="M716.464,64.625V94.02h-9.79V64.625h-8.105v-8.301h26.001v8.301H716.464z"/>
		<path fill="#3AB4FF" d="M769.882,58.424l-3.906,7.593c-2.034-1.66-4.199-2.49-6.494-2.49c-1.042,0-1.994,0.285-2.856,0.854
			c-0.896,0.537-1.343,1.303-1.343,2.295c0,0.961,0.398,1.693,1.196,2.197c0.748,0.488,1.799,0.952,3.149,1.392l2.49,0.757
			c2.849,0.83,5.135,2.043,6.86,3.638c1.627,1.611,2.441,3.833,2.441,6.665c0,4.558-1.303,7.943-3.906,10.156
			c-2.8,2.36-6.364,3.54-10.693,3.54c-4.721,0-9.139-1.432-13.257-4.297l4.199-7.91c2.946,2.604,5.851,3.906,8.716,3.906
			c1.236,0,2.336-0.333,3.296-1.001c0.96-0.667,1.44-1.603,1.44-2.808c0-1.221-0.529-2.1-1.587-2.637
			c-0.993-0.504-2.441-1.058-4.346-1.66c-2.246-0.602-4.134-1.285-5.664-2.051c-1.448-0.732-2.567-1.766-3.356-3.101
			c-0.79-1.334-1.185-3.165-1.185-5.493c0-2.506,0.545-4.72,1.636-6.641c1.155-1.953,2.71-3.442,4.663-4.468
			c1.904-1.025,4.134-1.538,6.689-1.538c1.888,0,3.923,0.285,6.104,0.854C766.285,56.715,768.189,57.464,769.882,58.424z"/>
		<path fill="#3AB4FF" d="M791.073,64.625V94.02h-9.79V64.625h-8.105v-8.301h26.001v8.301H791.073z"/>
		<path fill="#3AB4FF" d="M821.688,55.079c2.751,0,5.371,0.464,7.861,1.392c2.539,0.977,4.769,2.328,6.689,4.053
			c1.888,1.693,3.426,3.76,4.614,6.201c1.123,2.295,1.685,4.875,1.685,7.739c0,3.012-0.497,5.778-1.489,8.301
			c-1.042,2.572-2.507,4.794-4.395,6.665c-1.01,1.01-2.051,1.864-3.125,2.563c-1.074,0.7-2.238,1.294-3.491,1.782
			c-2.522,0.992-5.306,1.489-8.35,1.489c-2.995,0-5.762-0.497-8.301-1.489c-2.571-1.009-4.785-2.457-6.641-4.346
			c-0.928-0.911-1.745-1.9-2.454-2.967c-0.707-1.065-1.354-2.298-1.94-3.698c-1.009-2.555-1.514-5.322-1.514-8.301
			c0-1.351,0.142-2.677,0.427-3.979c0.285-1.302,0.713-2.555,1.282-3.76c1.204-2.474,2.734-4.541,4.59-6.201
			c1.937-1.741,4.19-3.092,6.763-4.053C816.325,55.543,818.922,55.079,821.688,55.079z M821.688,64.576
			c-1.921,0-3.687,0.464-5.298,1.392c-1.693,0.977-2.995,2.197-3.906,3.662c-0.961,1.596-1.44,3.223-1.44,4.883
			c0,2.067,0.479,3.988,1.44,5.762c0.977,1.774,2.262,3.125,3.857,4.053c1.676,0.961,3.459,1.44,5.347,1.44
			c1.921,0,3.702-0.479,5.347-1.44c1.595-0.911,2.881-2.262,3.857-4.053c0.96-1.725,1.44-3.646,1.44-5.762
			c0-1.709-0.48-3.336-1.44-4.883c-0.928-1.48-2.23-2.701-3.906-3.662C825.391,65.04,823.625,64.576,821.688,64.576z"/>
		<path fill="#3AB4FF" d="M866.61,78.565l11.841,15.454h-12.207l-9.229-14.502h-0.122V94.02h-9.79V56.324h14.648
			c2.604,0,4.875,0.415,6.812,1.245c2.002,0.879,3.532,2.165,4.59,3.857c1.14,1.726,1.709,3.891,1.709,6.494
			c0,1.758-0.317,3.394-0.952,4.907c-0.684,1.53-1.619,2.775-2.808,3.735C869.882,77.557,868.385,78.224,866.61,78.565z
			 M856.894,63.819v9.399h0.952c1.351,0,2.49-0.113,3.418-0.342c1.009-0.293,1.822-0.765,2.441-1.416
			c0.635-0.65,0.952-1.627,0.952-2.93c0-1.318-0.317-2.303-0.952-2.954c-0.619-0.65-1.433-1.123-2.441-1.416
			c-0.896-0.228-2.035-0.342-3.418-0.342H856.894z"/>
		<path fill="#3AB4FF" d="M902.572,64.625h-11.67v6.299h11.06v8.301h-11.06v6.494h11.67v8.301h-21.46V56.324h21.46V64.625z"/>
	</g>
	<g>
		<path fill="#F51484" d="M603.894,53.324l9.082,22.9l9.155-22.9h10.645L616.687,91.02h-7.617l-15.845-37.695H603.894z"/>
		<path fill="#F51484" d="M645.031,53.324V91.02h-9.79V53.324H645.031z"/>
		<path fill="#F51484" d="M676.062,55.424l-3.906,7.593c-2.034-1.66-4.199-2.49-6.494-2.49c-1.042,0-1.994,0.285-2.856,0.854
			c-0.896,0.537-1.343,1.303-1.343,2.295c0,0.961,0.398,1.693,1.196,2.197c0.748,0.488,1.799,0.952,3.149,1.392l2.49,0.757
			c2.849,0.83,5.135,2.043,6.86,3.638c1.627,1.611,2.441,3.833,2.441,6.665c0,4.558-1.303,7.943-3.906,10.156
			c-2.8,2.36-6.364,3.54-10.693,3.54c-4.721,0-9.139-1.432-13.257-4.297l4.199-7.91c2.946,2.604,5.851,3.906,8.716,3.906
			c1.236,0,2.336-0.333,3.296-1.001c0.96-0.667,1.44-1.603,1.44-2.808c0-1.221-0.529-2.1-1.587-2.637
			c-0.993-0.504-2.441-1.058-4.346-1.66c-2.246-0.602-4.134-1.285-5.664-2.051c-1.448-0.732-2.567-1.766-3.356-3.101
			c-0.79-1.334-1.185-3.165-1.185-5.493c0-2.506,0.545-4.72,1.636-6.641c1.155-1.953,2.71-3.442,4.663-4.468
			c1.904-1.025,4.134-1.538,6.689-1.538c1.888,0,3.923,0.285,6.104,0.854C672.465,53.715,674.369,54.464,676.062,55.424z"/>
		<path fill="#F51484" d="M692.053,53.324V91.02h-9.79V53.324H692.053z"/>
		<path fill="#F51484" d="M713.464,61.625V91.02h-9.79V61.625h-8.105v-8.301h26.001v8.301H713.464z"/>
		<path fill="#F51484" d="M766.882,55.424l-3.906,7.593c-2.034-1.66-4.199-2.49-6.494-2.49c-1.042,0-1.994,0.285-2.856,0.854
			c-0.896,0.537-1.343,1.303-1.343,2.295c0,0.961,0.398,1.693,1.196,2.197c0.748,0.488,1.799,0.952,3.149,1.392l2.49,0.757
			c2.849,0.83,5.135,2.043,6.86,3.638c1.627,1.611,2.441,3.833,2.441,6.665c0,4.558-1.303,7.943-3.906,10.156
			c-2.8,2.36-6.364,3.54-10.693,3.54c-4.721,0-9.139-1.432-13.257-4.297l4.199-7.91c2.946,2.604,5.851,3.906,8.716,3.906
			c1.236,0,2.336-0.333,3.296-1.001c0.96-0.667,1.44-1.603,1.44-2.808c0-1.221-0.529-2.1-1.587-2.637
			c-0.993-0.504-2.441-1.058-4.346-1.66c-2.246-0.602-4.134-1.285-5.664-2.051c-1.448-0.732-2.567-1.766-3.356-3.101
			c-0.79-1.334-1.185-3.165-1.185-5.493c0-2.506,0.545-4.72,1.636-6.641c1.155-1.953,2.71-3.442,4.663-4.468
			c1.904-1.025,4.134-1.538,6.689-1.538c1.888,0,3.923,0.285,6.104,0.854C763.285,53.715,765.189,54.464,766.882,55.424z"/>
		<path fill="#F51484" d="M788.073,61.625V91.02h-9.79V61.625h-8.105v-8.301h26.001v8.301H788.073z"/>
		<path fill="#F51484" d="M818.688,52.079c2.751,0,5.371,0.464,7.861,1.392c2.539,0.977,4.769,2.328,6.689,4.053
			c1.888,1.693,3.426,3.76,4.614,6.201c1.123,2.295,1.685,4.875,1.685,7.739c0,3.012-0.497,5.778-1.489,8.301
			c-1.042,2.572-2.507,4.794-4.395,6.665c-1.01,1.01-2.051,1.864-3.125,2.563c-1.074,0.7-2.238,1.294-3.491,1.782
			c-2.522,0.992-5.306,1.489-8.35,1.489c-2.995,0-5.762-0.497-8.301-1.489c-2.571-1.009-4.785-2.457-6.641-4.346
			c-0.928-0.911-1.745-1.9-2.454-2.967c-0.707-1.065-1.354-2.298-1.94-3.698c-1.009-2.555-1.514-5.322-1.514-8.301
			c0-1.351,0.142-2.677,0.427-3.979c0.285-1.302,0.713-2.555,1.282-3.76c1.204-2.474,2.734-4.541,4.59-6.201
			c1.937-1.741,4.19-3.092,6.763-4.053C813.325,52.543,815.922,52.079,818.688,52.079z M818.688,61.576
			c-1.921,0-3.687,0.464-5.298,1.392c-1.693,0.977-2.995,2.197-3.906,3.662c-0.961,1.596-1.44,3.223-1.44,4.883
			c0,2.067,0.479,3.988,1.44,5.762c0.977,1.774,2.262,3.125,3.857,4.053c1.676,0.961,3.459,1.44,5.347,1.44
			c1.921,0,3.702-0.479,5.347-1.44c1.595-0.911,2.881-2.262,3.857-4.053c0.96-1.725,1.44-3.646,1.44-5.762
			c0-1.709-0.48-3.336-1.44-4.883c-0.928-1.48-2.23-2.701-3.906-3.662C822.391,62.04,820.625,61.576,818.688,61.576z"/>
		<path fill="#F51484" d="M863.61,75.565l11.841,15.454h-12.207l-9.229-14.502h-0.122V91.02h-9.79V53.324h14.648
			c2.604,0,4.875,0.415,6.812,1.245c2.002,0.879,3.532,2.165,4.59,3.857c1.14,1.726,1.709,3.891,1.709,6.494
			c0,1.758-0.317,3.394-0.952,4.907c-0.684,1.53-1.619,2.775-2.808,3.735C866.882,74.557,865.385,75.224,863.61,75.565z
			 M853.894,60.819v9.399h0.952c1.351,0,2.49-0.113,3.418-0.342c1.009-0.293,1.822-0.765,2.441-1.416
			c0.635-0.65,0.952-1.627,0.952-2.93c0-1.318-0.317-2.303-0.952-2.954c-0.619-0.65-1.433-1.123-2.441-1.416
			c-0.896-0.228-2.035-0.342-3.418-0.342H853.894z"/>
		<path fill="#F51484" d="M899.572,61.625h-11.67v6.299h11.06v8.301h-11.06v6.494h11.67v8.301h-21.46V53.324h21.46V61.625z"/>
	</g>
</g>
</svg>
